G04 #@! TF.FileFunction,Copper,L1,Top,Signal*
%FSLAX46Y46*%
G04 Gerber Fmt 4.6, Leading zero omitted, Abs format (unit mm)*
G04 Created by KiCad (PCBNEW 4.0.7) date 01/17/18 14:55:35*
%MOMM*%
%LPD*%
G01*
G04 APERTURE LIST*
%ADD10C,0.152400*%
%ADD11C,0.100000*%
%ADD12R,0.800000X3.000000*%
%ADD13R,2.100000X3.000000*%
%ADD14R,1.000000X1.250000*%
%ADD15R,0.600000X0.500000*%
%ADD16R,0.800000X0.600000*%
%ADD17R,0.500000X0.500000*%
%ADD18R,1.300000X0.700000*%
%ADD19C,0.600000*%
%ADD20C,0.250000*%
G04 APERTURE END LIST*
D10*
D11*
X29400000Y-27500000D02*
X14300000Y-27500000D01*
X29400000Y-14300000D02*
X29400000Y-27500000D01*
X28900000Y-14300000D02*
X29400000Y-14300000D01*
X14300000Y-14300000D02*
X28900000Y-14300000D01*
X14300000Y-27500000D02*
X14300000Y-14300000D01*
D12*
X21890000Y-22190000D03*
X23140000Y-22190000D03*
X24390000Y-22190000D03*
X20640000Y-22190000D03*
X19390000Y-22190000D03*
D13*
X28190000Y-25790000D03*
X15590000Y-25790000D03*
D12*
X25640000Y-22190000D03*
X18140000Y-22190000D03*
D14*
X24425000Y-19050000D03*
X22425000Y-19050000D03*
D15*
X23700000Y-17725000D03*
X22600000Y-17725000D03*
D16*
X20800000Y-18050000D03*
X20800000Y-19750000D03*
D17*
X22525000Y-14925000D03*
X21725000Y-14925000D03*
X23325000Y-14925000D03*
X20925000Y-14925000D03*
X22525000Y-16525000D03*
X21725000Y-16525000D03*
X20925000Y-16525000D03*
X20125000Y-16525000D03*
X23325000Y-15725000D03*
X23325000Y-16525000D03*
X20125000Y-15725000D03*
X20125000Y-14925000D03*
D18*
X19100000Y-19750000D03*
X19100000Y-17850000D03*
D19*
X22510000Y-15320000D03*
X21890000Y-22190000D03*
X20600000Y-22260000D03*
X21720000Y-15720000D03*
X19390000Y-22190000D03*
X19720000Y-14960000D03*
D20*
X23700000Y-17725000D02*
X23700000Y-16900000D01*
X23700000Y-16900000D02*
X23325000Y-16525000D01*
X24425000Y-19050000D02*
X24425000Y-18450000D01*
X24425000Y-18450000D02*
X23700000Y-17725000D01*
X24390000Y-22190000D02*
X24390000Y-19085000D01*
X24390000Y-19085000D02*
X24425000Y-19050000D01*
X23325000Y-15725000D02*
X23035000Y-15725000D01*
X22525000Y-16235000D02*
X22525000Y-16525000D01*
X23035000Y-15725000D02*
X22525000Y-16235000D01*
X25640000Y-22190000D02*
X25640000Y-17270000D01*
X24095000Y-15725000D02*
X23325000Y-15725000D01*
X25640000Y-17270000D02*
X24095000Y-15725000D01*
X20925000Y-16525000D02*
X20925000Y-16125000D01*
X20525000Y-15725000D02*
X20125000Y-15725000D01*
X20925000Y-16125000D02*
X20525000Y-15725000D01*
X20925000Y-16525000D02*
X20925000Y-17925000D01*
X20925000Y-17925000D02*
X20800000Y-18050000D01*
X21725000Y-16525000D02*
X20925000Y-16525000D01*
X22525000Y-16525000D02*
X21725000Y-16525000D01*
X22600000Y-17725000D02*
X22600000Y-18875000D01*
X22600000Y-18875000D02*
X22425000Y-19050000D01*
X22525000Y-16525000D02*
X22525000Y-17650000D01*
X22525000Y-17650000D02*
X22600000Y-17725000D01*
X22525000Y-15305000D02*
X22510000Y-15320000D01*
X22525000Y-15305000D02*
X22525000Y-14925000D01*
X21725000Y-14925000D02*
X21725000Y-15715000D01*
X20600000Y-22260000D02*
X20640000Y-22220000D01*
X21725000Y-15715000D02*
X21720000Y-15720000D01*
X20640000Y-22220000D02*
X20640000Y-22190000D01*
X18140000Y-22190000D02*
X18140000Y-20550000D01*
X18635000Y-16525000D02*
X20125000Y-16525000D01*
X17940000Y-17220000D02*
X18635000Y-16525000D01*
X17940000Y-20350000D02*
X17940000Y-17220000D01*
X18140000Y-20550000D02*
X17940000Y-20350000D01*
X20125000Y-14925000D02*
X19755000Y-14925000D01*
X19720000Y-14960000D02*
X19755000Y-14925000D01*
X23140000Y-22190000D02*
X23140000Y-20830000D01*
X23140000Y-20830000D02*
X22480000Y-20170000D01*
X22480000Y-20170000D02*
X21770000Y-20170000D01*
X21770000Y-20170000D02*
X21560000Y-19960000D01*
X21560000Y-19960000D02*
X21560000Y-19180000D01*
X21560000Y-19180000D02*
X21220000Y-18840000D01*
X21220000Y-18840000D02*
X20090000Y-18840000D01*
X20090000Y-18840000D02*
X19100000Y-17850000D01*
M02*
