G04 #@! TF.FileFunction,Soldermask,Bot*
%FSLAX46Y46*%
G04 Gerber Fmt 4.6, Leading zero omitted, Abs format (unit mm)*
G04 Created by KiCad (PCBNEW 4.0.7) date 01/31/18 21:18:14*
%MOMM*%
%LPD*%
G01*
G04 APERTURE LIST*
%ADD10C,0.152400*%
%ADD11C,0.100000*%
%ADD12R,1.524000X1.524000*%
%ADD13C,1.060000*%
%ADD14C,1.006000*%
%ADD15R,3.000000X0.800000*%
%ADD16R,3.000000X2.100000*%
%ADD17C,1.524000*%
%ADD18R,0.900000X0.500000*%
%ADD19R,0.500000X0.900000*%
%ADD20R,1.300000X0.700000*%
%ADD21R,0.700000X1.300000*%
%ADD22R,0.800000X1.600000*%
%ADD23R,2.100000X3.000000*%
%ADD24R,0.800000X3.000000*%
%ADD25R,1.050000X1.950000*%
%ADD26C,1.306000*%
%ADD27C,2.000000*%
G04 APERTURE END LIST*
D10*
D11*
X14400000Y-73700000D02*
X73300000Y-73700000D01*
X73300000Y-14700000D02*
X73300000Y-73700000D01*
X14400000Y-14700000D02*
X73300000Y-14700000D01*
X14400000Y-73700000D02*
X14400000Y-14700000D01*
X62925000Y-50600000D02*
X62925000Y-50475000D01*
D12*
X63803000Y-65207900D03*
X66343000Y-65207900D03*
X61263000Y-65207900D03*
X66343000Y-60127900D03*
X63803000Y-60127900D03*
X61263000Y-60127900D03*
X54913000Y-63150500D03*
X57453000Y-63150500D03*
X52373000Y-63150500D03*
X57453000Y-58070500D03*
X54913000Y-58070500D03*
X52373000Y-58070500D03*
D13*
X64882500Y-56140100D03*
D14*
X66132500Y-56140100D03*
X69297020Y-56084220D03*
D13*
X70547020Y-56084220D03*
D15*
X55945000Y-44250000D03*
X55945000Y-45500000D03*
X55945000Y-46750000D03*
X55945000Y-43000000D03*
X55945000Y-41750000D03*
D16*
X59545000Y-50550000D03*
X59545000Y-37950000D03*
D15*
X55945000Y-48000000D03*
X55945000Y-40500000D03*
D17*
X50240000Y-51740000D03*
X55320000Y-51740000D03*
X60400000Y-51740000D03*
X60400000Y-36500000D03*
X55320000Y-36500000D03*
X50240000Y-36500000D03*
D14*
X67486000Y-36290000D03*
D13*
X66236000Y-36290000D03*
D15*
X31815000Y-44250000D03*
X31815000Y-43000000D03*
X31815000Y-41750000D03*
X31815000Y-45500000D03*
X31815000Y-46750000D03*
D16*
X28215000Y-37950000D03*
X28215000Y-50550000D03*
D15*
X31815000Y-40500000D03*
X31815000Y-48000000D03*
D13*
X35990000Y-16224000D03*
D14*
X35990000Y-17474000D03*
D18*
X48960000Y-55795000D03*
X48960000Y-54295000D03*
D19*
X46305000Y-53775000D03*
X47805000Y-53775000D03*
D18*
X31180000Y-49215000D03*
X31180000Y-50715000D03*
X32450000Y-49215000D03*
X32450000Y-50715000D03*
D19*
X38915000Y-31550000D03*
X37415000Y-31550000D03*
D18*
X36060000Y-30210000D03*
X36060000Y-31710000D03*
D19*
X53520000Y-40440000D03*
X52020000Y-40440000D03*
X53520000Y-41710000D03*
X52020000Y-41710000D03*
D20*
X63565000Y-35040000D03*
X63565000Y-33140000D03*
D19*
X63450000Y-31550000D03*
X64950000Y-31550000D03*
D20*
X60867520Y-34648840D03*
X60867520Y-32748840D03*
D18*
X59120000Y-34840000D03*
X59120000Y-33340000D03*
D21*
X54360000Y-30280000D03*
X56260000Y-30280000D03*
D19*
X57100000Y-31550000D03*
X58600000Y-31550000D03*
D22*
X30175000Y-66050000D03*
X28925000Y-66050000D03*
X27675000Y-66050000D03*
D23*
X25125000Y-63150000D03*
X32725000Y-63150000D03*
D24*
X61025000Y-29645000D03*
X62275000Y-29645000D03*
X63525000Y-29645000D03*
X59775000Y-29645000D03*
X58525000Y-29645000D03*
D23*
X67325000Y-26045000D03*
X54725000Y-26045000D03*
D24*
X64775000Y-29645000D03*
X57275000Y-29645000D03*
X43880000Y-56315000D03*
X42630000Y-56315000D03*
X41380000Y-56315000D03*
X45130000Y-56315000D03*
X46380000Y-56315000D03*
D23*
X37580000Y-59915000D03*
X50180000Y-59915000D03*
D24*
X40130000Y-56315000D03*
X47630000Y-56315000D03*
X43880000Y-32185000D03*
X45130000Y-32185000D03*
X46380000Y-32185000D03*
X42630000Y-32185000D03*
X41380000Y-32185000D03*
D23*
X50180000Y-28585000D03*
X37580000Y-28585000D03*
D24*
X47630000Y-32185000D03*
X40130000Y-32185000D03*
D13*
X15670000Y-52038000D03*
D14*
X16920000Y-52038000D03*
X20115000Y-52038000D03*
D13*
X21365000Y-52038000D03*
X51738000Y-72358000D03*
D14*
X51738000Y-71108000D03*
X51738000Y-67913000D03*
D13*
X51738000Y-66663000D03*
X34720000Y-72358000D03*
D14*
X34720000Y-71108000D03*
X34720000Y-67913000D03*
D13*
X34720000Y-66663000D03*
X53008000Y-16224000D03*
D14*
X53008000Y-17474000D03*
X53008000Y-20669000D03*
D13*
X53008000Y-21919000D03*
X71931000Y-36290000D03*
D14*
X70681000Y-36290000D03*
X67359000Y-53435000D03*
X66109000Y-53435000D03*
X35990000Y-20669000D03*
D13*
X35990000Y-21919000D03*
X15924000Y-35147000D03*
D14*
X17174000Y-35147000D03*
X20369000Y-35147000D03*
D13*
X21619000Y-35147000D03*
D24*
X29800000Y-31640000D03*
X28550000Y-31640000D03*
X27300000Y-31640000D03*
D23*
X32350000Y-28040000D03*
X23500000Y-28040000D03*
D24*
X26050000Y-31640000D03*
D14*
X18024580Y-57242460D03*
D13*
X16774580Y-57242460D03*
D25*
X48150000Y-51660000D03*
X46150000Y-51660000D03*
X44150000Y-51660000D03*
X42150000Y-51660000D03*
X40150000Y-51660000D03*
X38150000Y-51660000D03*
X36150000Y-51660000D03*
X34150000Y-51660000D03*
X34150000Y-36860000D03*
X36150000Y-36860000D03*
X38150000Y-36860000D03*
X40150000Y-36860000D03*
X42150000Y-36860000D03*
X44150000Y-36860000D03*
X46150000Y-36860000D03*
X48150000Y-36860000D03*
D14*
X71804000Y-53435000D03*
X70554000Y-53435000D03*
D17*
X53262000Y-69056000D03*
X53262000Y-66516000D03*
X34453300Y-19792700D03*
X34453300Y-22332700D03*
D26*
X35570900Y-36582100D03*
D27*
X28725600Y-28924000D03*
X59294500Y-59569100D03*
D13*
X17371800Y-32734000D03*
X17371800Y-31484000D03*
X53198500Y-72345300D03*
D14*
X54448500Y-72345300D03*
X52093600Y-49383700D03*
X52093600Y-50633700D03*
X53363600Y-43376600D03*
X52113600Y-43376600D03*
M02*
