G04 #@! TF.FileFunction,Legend,Bot*
%FSLAX46Y46*%
G04 Gerber Fmt 4.6, Leading zero omitted, Abs format (unit mm)*
G04 Created by KiCad (PCBNEW 4.0.7) date 01/17/18 18:25:31*
%MOMM*%
%LPD*%
G01*
G04 APERTURE LIST*
%ADD10C,0.152400*%
%ADD11C,0.100000*%
%ADD12C,0.120000*%
%ADD13C,0.127000*%
%ADD14C,0.280000*%
%ADD15C,0.200000*%
%ADD16C,0.381000*%
G04 APERTURE END LIST*
D10*
D11*
X14400000Y-73700000D02*
X73300000Y-73700000D01*
X73300000Y-14700000D02*
X73300000Y-73700000D01*
X14400000Y-14700000D02*
X73300000Y-14700000D01*
X14400000Y-73700000D02*
X14400000Y-14700000D01*
X62925000Y-50600000D02*
X62925000Y-50475000D01*
D12*
X48280000Y-54545000D02*
X48280000Y-55545000D01*
X49640000Y-55545000D02*
X49640000Y-54545000D01*
X47555000Y-53095000D02*
X46555000Y-53095000D01*
X46555000Y-54455000D02*
X47555000Y-54455000D01*
X31860000Y-50465000D02*
X31860000Y-49465000D01*
X30500000Y-49465000D02*
X30500000Y-50465000D01*
X33130000Y-50465000D02*
X33130000Y-49465000D01*
X31770000Y-49465000D02*
X31770000Y-50465000D01*
X37665000Y-32230000D02*
X38665000Y-32230000D01*
X38665000Y-30870000D02*
X37665000Y-30870000D01*
X36740000Y-31460000D02*
X36740000Y-30460000D01*
X35380000Y-30460000D02*
X35380000Y-31460000D01*
X52270000Y-41120000D02*
X53270000Y-41120000D01*
X53270000Y-39760000D02*
X52270000Y-39760000D01*
X52270000Y-42390000D02*
X53270000Y-42390000D01*
X53270000Y-41030000D02*
X52270000Y-41030000D01*
X62685000Y-33490000D02*
X62685000Y-34690000D01*
X64445000Y-34690000D02*
X64445000Y-33490000D01*
X64700000Y-30870000D02*
X63700000Y-30870000D01*
X63700000Y-32230000D02*
X64700000Y-32230000D01*
X59987520Y-33098840D02*
X59987520Y-34298840D01*
X61747520Y-34298840D02*
X61747520Y-33098840D01*
X58440000Y-33590000D02*
X58440000Y-34590000D01*
X59800000Y-34590000D02*
X59800000Y-33590000D01*
X55910000Y-29400000D02*
X54710000Y-29400000D01*
X54710000Y-31160000D02*
X55910000Y-31160000D01*
X58350000Y-30870000D02*
X57350000Y-30870000D01*
X57350000Y-32230000D02*
X58350000Y-32230000D01*
D13*
X24675000Y-61400000D02*
X24675000Y-61200000D01*
D14*
X31165000Y-66050000D02*
G75*
G03X31165000Y-66050000I-140000J0D01*
G01*
X31165000Y-66050000D02*
G75*
G03X31165000Y-66050000I-140000J0D01*
G01*
D13*
X26175000Y-65000000D02*
X24675000Y-65000000D01*
X24675000Y-65000000D02*
X24675000Y-64950000D01*
X26975000Y-65150000D02*
X26175000Y-65150000D01*
X26175000Y-65150000D02*
X26175000Y-65000000D01*
X30825000Y-65150000D02*
X31675000Y-65150000D01*
X31675000Y-65150000D02*
X31675000Y-65000000D01*
X31675000Y-65000000D02*
X33175000Y-65000000D01*
X33175000Y-65000000D02*
X33175000Y-64950000D01*
X24675000Y-61200000D02*
X26175000Y-61200000D01*
X26175000Y-61200000D02*
X26175000Y-60950000D01*
X26175000Y-60950000D02*
X31675000Y-60950000D01*
X31675000Y-60950000D02*
X31675000Y-61200000D01*
X31675000Y-61200000D02*
X33175000Y-61200000D01*
X33175000Y-61200000D02*
X33175000Y-61350000D01*
D15*
X49150000Y-52260000D02*
X49150000Y-36260000D01*
X33150000Y-36260000D02*
X33150000Y-52260000D01*
X48441550Y-54010000D02*
G75*
G03X48441550Y-54010000I-291550J0D01*
G01*
D16*
G36*
X48350000Y-55978100D02*
X48350000Y-53760000D01*
X49118730Y-53760000D01*
X49118730Y-55978100D01*
X48350000Y-55978100D01*
G37*
X48350000Y-55978100D02*
X48350000Y-53760000D01*
X49118730Y-53760000D01*
X49118730Y-55978100D01*
X48350000Y-55978100D01*
M02*
