G04 #@! TF.FileFunction,Legend,Bot*
%FSLAX46Y46*%
G04 Gerber Fmt 4.6, Leading zero omitted, Abs format (unit mm)*
G04 Created by KiCad (PCBNEW 4.0.7) date 02/03/18 21:52:34*
%MOMM*%
%LPD*%
G01*
G04 APERTURE LIST*
%ADD10C,0.100000*%
%ADD11C,0.200000*%
%ADD12C,0.381000*%
%ADD13C,0.120000*%
%ADD14C,0.127000*%
%ADD15C,0.280000*%
%ADD16C,0.050000*%
%ADD17C,0.150000*%
%ADD18R,1.050000X1.950000*%
%ADD19R,1.524000X1.524000*%
%ADD20C,1.060000*%
%ADD21C,1.006000*%
%ADD22R,3.000000X0.800000*%
%ADD23R,3.000000X2.100000*%
%ADD24C,1.300000*%
%ADD25C,1.524000*%
%ADD26R,0.900000X0.500000*%
%ADD27R,0.500000X0.900000*%
%ADD28R,1.300000X0.700000*%
%ADD29R,0.700000X1.300000*%
%ADD30R,0.800000X1.600000*%
%ADD31R,2.100000X3.000000*%
%ADD32R,0.800000X3.000000*%
%ADD33R,2.000000X3.000000*%
%ADD34R,1.900000X2.800000*%
%ADD35C,1.306000*%
%ADD36C,2.000000*%
%ADD37C,1.000000*%
%ADD38C,0.706000*%
G04 APERTURE END LIST*
D10*
D11*
X49150000Y-52260000D02*
X49150000Y-36260000D01*
X33150000Y-36260000D02*
X33150000Y-52260000D01*
X48441550Y-54010000D02*
G75*
G03X48441550Y-54010000I-291550J0D01*
G01*
D12*
G36*
X48350000Y-55978100D02*
X48350000Y-53760000D01*
X49118730Y-53760000D01*
X49118730Y-55978100D01*
X48350000Y-55978100D01*
G37*
X48350000Y-55978100D02*
X48350000Y-53760000D01*
X49118730Y-53760000D01*
X49118730Y-55978100D01*
X48350000Y-55978100D01*
D13*
X48280000Y-54545000D02*
X48280000Y-55545000D01*
X49640000Y-55545000D02*
X49640000Y-54545000D01*
X47555000Y-53095000D02*
X46555000Y-53095000D01*
X46555000Y-54455000D02*
X47555000Y-54455000D01*
X31860000Y-50465000D02*
X31860000Y-49465000D01*
X30500000Y-49465000D02*
X30500000Y-50465000D01*
X33130000Y-50465000D02*
X33130000Y-49465000D01*
X31770000Y-49465000D02*
X31770000Y-50465000D01*
X37665000Y-32230000D02*
X38665000Y-32230000D01*
X38665000Y-30870000D02*
X37665000Y-30870000D01*
X36740000Y-31460000D02*
X36740000Y-30460000D01*
X35380000Y-30460000D02*
X35380000Y-31460000D01*
X52270000Y-41120000D02*
X53270000Y-41120000D01*
X53270000Y-39760000D02*
X52270000Y-39760000D01*
X52270000Y-42390000D02*
X53270000Y-42390000D01*
X53270000Y-41030000D02*
X52270000Y-41030000D01*
X62685000Y-33490000D02*
X62685000Y-34690000D01*
X64445000Y-34690000D02*
X64445000Y-33490000D01*
X64700000Y-30870000D02*
X63700000Y-30870000D01*
X63700000Y-32230000D02*
X64700000Y-32230000D01*
X59987520Y-33098840D02*
X59987520Y-34298840D01*
X61747520Y-34298840D02*
X61747520Y-33098840D01*
X58440000Y-33590000D02*
X58440000Y-34590000D01*
X59800000Y-34590000D02*
X59800000Y-33590000D01*
X55910000Y-29400000D02*
X54710000Y-29400000D01*
X54710000Y-31160000D02*
X55910000Y-31160000D01*
X58350000Y-30870000D02*
X57350000Y-30870000D01*
X57350000Y-32230000D02*
X58350000Y-32230000D01*
D14*
X24675000Y-61400000D02*
X24675000Y-61200000D01*
D15*
X31165000Y-66050000D02*
G75*
G03X31165000Y-66050000I-140000J0D01*
G01*
X31165000Y-66050000D02*
G75*
G03X31165000Y-66050000I-140000J0D01*
G01*
D14*
X26175000Y-65000000D02*
X24675000Y-65000000D01*
X24675000Y-65000000D02*
X24675000Y-64950000D01*
X26975000Y-65150000D02*
X26175000Y-65150000D01*
X26175000Y-65150000D02*
X26175000Y-65000000D01*
X30825000Y-65150000D02*
X31675000Y-65150000D01*
X31675000Y-65150000D02*
X31675000Y-65000000D01*
X31675000Y-65000000D02*
X33175000Y-65000000D01*
X33175000Y-65000000D02*
X33175000Y-64950000D01*
X24675000Y-61200000D02*
X26175000Y-61200000D01*
X26175000Y-61200000D02*
X26175000Y-60950000D01*
X26175000Y-60950000D02*
X31675000Y-60950000D01*
X31675000Y-60950000D02*
X31675000Y-61200000D01*
X31675000Y-61200000D02*
X33175000Y-61200000D01*
X33175000Y-61200000D02*
X33175000Y-61350000D01*
D16*
X53098629Y-49170169D02*
X51896259Y-49170169D01*
X52984118Y-50429794D02*
X53041374Y-50372538D01*
X53098629Y-50200771D01*
X53098629Y-50086260D01*
X53041374Y-49914493D01*
X52926862Y-49799981D01*
X52812351Y-49742726D01*
X52583328Y-49685470D01*
X52411561Y-49685470D01*
X52182538Y-49742726D01*
X52068026Y-49799981D01*
X51953515Y-49914493D01*
X51896259Y-50086260D01*
X51896259Y-50200771D01*
X51953515Y-50372538D01*
X52010771Y-50429794D01*
X52297049Y-51460397D02*
X53098629Y-51460397D01*
X51839004Y-51174118D02*
X52697839Y-50887840D01*
X52697839Y-51632164D01*
X30610628Y-46056909D02*
X30053756Y-45667099D01*
X30610628Y-45388664D02*
X29441198Y-45388664D01*
X29441198Y-45834161D01*
X29496885Y-45945535D01*
X29552572Y-46001222D01*
X29663946Y-46056909D01*
X29831008Y-46056909D01*
X29942382Y-46001222D01*
X29998069Y-45945535D01*
X30053756Y-45834161D01*
X30053756Y-45388664D01*
X29998069Y-46947904D02*
X29998069Y-46558094D01*
X30610628Y-46558094D02*
X29441198Y-46558094D01*
X29441198Y-47114965D01*
X30610628Y-47560463D02*
X29441198Y-47560463D01*
X30276505Y-47950273D01*
X29441198Y-48340083D01*
X30610628Y-48340083D01*
X29441198Y-49398138D02*
X29441198Y-49175389D01*
X29496885Y-49064015D01*
X29552572Y-49008328D01*
X29719634Y-48896954D01*
X29942382Y-48841267D01*
X30387879Y-48841267D01*
X30499254Y-48896954D01*
X30554941Y-48952641D01*
X30610628Y-49064015D01*
X30610628Y-49286764D01*
X30554941Y-49398138D01*
X30499254Y-49453825D01*
X30387879Y-49509512D01*
X30109444Y-49509512D01*
X29998069Y-49453825D01*
X29942382Y-49398138D01*
X29886695Y-49286764D01*
X29886695Y-49064015D01*
X29942382Y-48952641D01*
X29998069Y-48896954D01*
X30109444Y-48841267D01*
X30610628Y-50066384D02*
X30610628Y-50289132D01*
X30554941Y-50400507D01*
X30499254Y-50456194D01*
X30332192Y-50567568D01*
X30109444Y-50623255D01*
X29663946Y-50623255D01*
X29552572Y-50567568D01*
X29496885Y-50511881D01*
X29441198Y-50400507D01*
X29441198Y-50177758D01*
X29496885Y-50066384D01*
X29552572Y-50010697D01*
X29663946Y-49955010D01*
X29942382Y-49955010D01*
X30053756Y-50010697D01*
X30109444Y-50066384D01*
X30165131Y-50177758D01*
X30165131Y-50400507D01*
X30109444Y-50511881D01*
X30053756Y-50567568D01*
X29942382Y-50623255D01*
X30610628Y-51124440D02*
X29441198Y-51124440D01*
X29998069Y-51124440D02*
X29998069Y-51792685D01*
X30610628Y-51792685D02*
X29441198Y-51792685D01*
X29441198Y-52238182D02*
X30610628Y-52516618D01*
X29775321Y-52739367D01*
X30610628Y-52962115D01*
X29441198Y-53240551D01*
D17*
X64541095Y-63620281D02*
X64541095Y-62620281D01*
X63969666Y-63620281D02*
X64398238Y-63048852D01*
X63969666Y-62620281D02*
X64541095Y-63191710D01*
X63017285Y-63620281D02*
X63588714Y-63620281D01*
X63303000Y-63620281D02*
X63303000Y-62620281D01*
X63398238Y-62763138D01*
X63493476Y-62858376D01*
X63588714Y-62905995D01*
X55651095Y-61697881D02*
X55651095Y-60697881D01*
X55079666Y-61697881D02*
X55508238Y-61126452D01*
X55079666Y-60697881D02*
X55651095Y-61269310D01*
X54698714Y-60793119D02*
X54651095Y-60745500D01*
X54555857Y-60697881D01*
X54317761Y-60697881D01*
X54222523Y-60745500D01*
X54174904Y-60793119D01*
X54127285Y-60888357D01*
X54127285Y-60983595D01*
X54174904Y-61126452D01*
X54746333Y-61697881D01*
X54127285Y-61697881D01*
X59207381Y-43916667D02*
X59921667Y-43916667D01*
X60064524Y-43869047D01*
X60159762Y-43773809D01*
X60207381Y-43630952D01*
X60207381Y-43535714D01*
X59207381Y-44821429D02*
X59207381Y-44630952D01*
X59255000Y-44535714D01*
X59302619Y-44488095D01*
X59445476Y-44392857D01*
X59635952Y-44345238D01*
X60016905Y-44345238D01*
X60112143Y-44392857D01*
X60159762Y-44440476D01*
X60207381Y-44535714D01*
X60207381Y-44726191D01*
X60159762Y-44821429D01*
X60112143Y-44869048D01*
X60016905Y-44916667D01*
X59778810Y-44916667D01*
X59683571Y-44869048D01*
X59635952Y-44821429D01*
X59588333Y-44726191D01*
X59588333Y-44535714D01*
X59635952Y-44440476D01*
X59683571Y-44392857D01*
X59778810Y-44345238D01*
X27457381Y-43916667D02*
X28171667Y-43916667D01*
X28314524Y-43869047D01*
X28409762Y-43773809D01*
X28457381Y-43630952D01*
X28457381Y-43535714D01*
X27790714Y-44821429D02*
X28457381Y-44821429D01*
X27409762Y-44583333D02*
X28124048Y-44345238D01*
X28124048Y-44964286D01*
X50862381Y-54878334D02*
X50386190Y-54545000D01*
X50862381Y-54306905D02*
X49862381Y-54306905D01*
X49862381Y-54687858D01*
X49910000Y-54783096D01*
X49957619Y-54830715D01*
X50052857Y-54878334D01*
X50195714Y-54878334D01*
X50290952Y-54830715D01*
X50338571Y-54783096D01*
X50386190Y-54687858D01*
X50386190Y-54306905D01*
X49862381Y-55783096D02*
X49862381Y-55306905D01*
X50338571Y-55259286D01*
X50290952Y-55306905D01*
X50243333Y-55402143D01*
X50243333Y-55640239D01*
X50290952Y-55735477D01*
X50338571Y-55783096D01*
X50433810Y-55830715D01*
X50671905Y-55830715D01*
X50767143Y-55783096D01*
X50814762Y-55735477D01*
X50862381Y-55640239D01*
X50862381Y-55402143D01*
X50814762Y-55306905D01*
X50767143Y-55259286D01*
X47221666Y-55677381D02*
X47555000Y-55201190D01*
X47793095Y-55677381D02*
X47793095Y-54677381D01*
X47412142Y-54677381D01*
X47316904Y-54725000D01*
X47269285Y-54772619D01*
X47221666Y-54867857D01*
X47221666Y-55010714D01*
X47269285Y-55105952D01*
X47316904Y-55153571D01*
X47412142Y-55201190D01*
X47793095Y-55201190D01*
X46364523Y-54677381D02*
X46555000Y-54677381D01*
X46650238Y-54725000D01*
X46697857Y-54772619D01*
X46793095Y-54915476D01*
X46840714Y-55105952D01*
X46840714Y-55486905D01*
X46793095Y-55582143D01*
X46745476Y-55629762D01*
X46650238Y-55677381D01*
X46459761Y-55677381D01*
X46364523Y-55629762D01*
X46316904Y-55582143D01*
X46269285Y-55486905D01*
X46269285Y-55248810D01*
X46316904Y-55153571D01*
X46364523Y-55105952D01*
X46459761Y-55058333D01*
X46650238Y-55058333D01*
X46745476Y-55105952D01*
X46793095Y-55153571D01*
X46840714Y-55248810D01*
X30182381Y-49798334D02*
X29706190Y-49465000D01*
X30182381Y-49226905D02*
X29182381Y-49226905D01*
X29182381Y-49607858D01*
X29230000Y-49703096D01*
X29277619Y-49750715D01*
X29372857Y-49798334D01*
X29515714Y-49798334D01*
X29610952Y-49750715D01*
X29658571Y-49703096D01*
X29706190Y-49607858D01*
X29706190Y-49226905D01*
X29182381Y-50131667D02*
X29182381Y-50798334D01*
X30182381Y-50369762D01*
X31452381Y-49798334D02*
X30976190Y-49465000D01*
X31452381Y-49226905D02*
X30452381Y-49226905D01*
X30452381Y-49607858D01*
X30500000Y-49703096D01*
X30547619Y-49750715D01*
X30642857Y-49798334D01*
X30785714Y-49798334D01*
X30880952Y-49750715D01*
X30928571Y-49703096D01*
X30976190Y-49607858D01*
X30976190Y-49226905D01*
X30880952Y-50369762D02*
X30833333Y-50274524D01*
X30785714Y-50226905D01*
X30690476Y-50179286D01*
X30642857Y-50179286D01*
X30547619Y-50226905D01*
X30500000Y-50274524D01*
X30452381Y-50369762D01*
X30452381Y-50560239D01*
X30500000Y-50655477D01*
X30547619Y-50703096D01*
X30642857Y-50750715D01*
X30690476Y-50750715D01*
X30785714Y-50703096D01*
X30833333Y-50655477D01*
X30880952Y-50560239D01*
X30880952Y-50369762D01*
X30928571Y-50274524D01*
X30976190Y-50226905D01*
X31071429Y-50179286D01*
X31261905Y-50179286D01*
X31357143Y-50226905D01*
X31404762Y-50274524D01*
X31452381Y-50369762D01*
X31452381Y-50560239D01*
X31404762Y-50655477D01*
X31357143Y-50703096D01*
X31261905Y-50750715D01*
X31071429Y-50750715D01*
X30976190Y-50703096D01*
X30928571Y-50655477D01*
X30880952Y-50560239D01*
X38331666Y-30552381D02*
X38665000Y-30076190D01*
X38903095Y-30552381D02*
X38903095Y-29552381D01*
X38522142Y-29552381D01*
X38426904Y-29600000D01*
X38379285Y-29647619D01*
X38331666Y-29742857D01*
X38331666Y-29885714D01*
X38379285Y-29980952D01*
X38426904Y-30028571D01*
X38522142Y-30076190D01*
X38903095Y-30076190D01*
X37855476Y-30552381D02*
X37665000Y-30552381D01*
X37569761Y-30504762D01*
X37522142Y-30457143D01*
X37426904Y-30314286D01*
X37379285Y-30123810D01*
X37379285Y-29742857D01*
X37426904Y-29647619D01*
X37474523Y-29600000D01*
X37569761Y-29552381D01*
X37760238Y-29552381D01*
X37855476Y-29600000D01*
X37903095Y-29647619D01*
X37950714Y-29742857D01*
X37950714Y-29980952D01*
X37903095Y-30076190D01*
X37855476Y-30123810D01*
X37760238Y-30171429D01*
X37569761Y-30171429D01*
X37474523Y-30123810D01*
X37426904Y-30076190D01*
X37379285Y-29980952D01*
X35062381Y-30317143D02*
X34586190Y-29983809D01*
X35062381Y-29745714D02*
X34062381Y-29745714D01*
X34062381Y-30126667D01*
X34110000Y-30221905D01*
X34157619Y-30269524D01*
X34252857Y-30317143D01*
X34395714Y-30317143D01*
X34490952Y-30269524D01*
X34538571Y-30221905D01*
X34586190Y-30126667D01*
X34586190Y-29745714D01*
X35062381Y-31269524D02*
X35062381Y-30698095D01*
X35062381Y-30983809D02*
X34062381Y-30983809D01*
X34205238Y-30888571D01*
X34300476Y-30793333D01*
X34348095Y-30698095D01*
X34062381Y-31888571D02*
X34062381Y-31983810D01*
X34110000Y-32079048D01*
X34157619Y-32126667D01*
X34252857Y-32174286D01*
X34443333Y-32221905D01*
X34681429Y-32221905D01*
X34871905Y-32174286D01*
X34967143Y-32126667D01*
X35014762Y-32079048D01*
X35062381Y-31983810D01*
X35062381Y-31888571D01*
X35014762Y-31793333D01*
X34967143Y-31745714D01*
X34871905Y-31698095D01*
X34681429Y-31650476D01*
X34443333Y-31650476D01*
X34252857Y-31698095D01*
X34157619Y-31745714D01*
X34110000Y-31793333D01*
X34062381Y-31888571D01*
X53412857Y-39442381D02*
X53746191Y-38966190D01*
X53984286Y-39442381D02*
X53984286Y-38442381D01*
X53603333Y-38442381D01*
X53508095Y-38490000D01*
X53460476Y-38537619D01*
X53412857Y-38632857D01*
X53412857Y-38775714D01*
X53460476Y-38870952D01*
X53508095Y-38918571D01*
X53603333Y-38966190D01*
X53984286Y-38966190D01*
X52460476Y-39442381D02*
X53031905Y-39442381D01*
X52746191Y-39442381D02*
X52746191Y-38442381D01*
X52841429Y-38585238D01*
X52936667Y-38680476D01*
X53031905Y-38728095D01*
X51508095Y-39442381D02*
X52079524Y-39442381D01*
X51793810Y-39442381D02*
X51793810Y-38442381D01*
X51889048Y-38585238D01*
X51984286Y-38680476D01*
X52079524Y-38728095D01*
X53412857Y-40712381D02*
X53746191Y-40236190D01*
X53984286Y-40712381D02*
X53984286Y-39712381D01*
X53603333Y-39712381D01*
X53508095Y-39760000D01*
X53460476Y-39807619D01*
X53412857Y-39902857D01*
X53412857Y-40045714D01*
X53460476Y-40140952D01*
X53508095Y-40188571D01*
X53603333Y-40236190D01*
X53984286Y-40236190D01*
X52460476Y-40712381D02*
X53031905Y-40712381D01*
X52746191Y-40712381D02*
X52746191Y-39712381D01*
X52841429Y-39855238D01*
X52936667Y-39950476D01*
X53031905Y-39998095D01*
X52079524Y-39807619D02*
X52031905Y-39760000D01*
X51936667Y-39712381D01*
X51698571Y-39712381D01*
X51603333Y-39760000D01*
X51555714Y-39807619D01*
X51508095Y-39902857D01*
X51508095Y-39998095D01*
X51555714Y-40140952D01*
X52127143Y-40712381D01*
X51508095Y-40712381D01*
X65667381Y-33447143D02*
X65191190Y-33113809D01*
X65667381Y-32875714D02*
X64667381Y-32875714D01*
X64667381Y-33256667D01*
X64715000Y-33351905D01*
X64762619Y-33399524D01*
X64857857Y-33447143D01*
X65000714Y-33447143D01*
X65095952Y-33399524D01*
X65143571Y-33351905D01*
X65191190Y-33256667D01*
X65191190Y-32875714D01*
X65667381Y-34399524D02*
X65667381Y-33828095D01*
X65667381Y-34113809D02*
X64667381Y-34113809D01*
X64810238Y-34018571D01*
X64905476Y-33923333D01*
X64953095Y-33828095D01*
X64667381Y-34732857D02*
X64667381Y-35351905D01*
X65048333Y-35018571D01*
X65048333Y-35161429D01*
X65095952Y-35256667D01*
X65143571Y-35304286D01*
X65238810Y-35351905D01*
X65476905Y-35351905D01*
X65572143Y-35304286D01*
X65619762Y-35256667D01*
X65667381Y-35161429D01*
X65667381Y-34875714D01*
X65619762Y-34780476D01*
X65572143Y-34732857D01*
X64842857Y-33452381D02*
X65176191Y-32976190D01*
X65414286Y-33452381D02*
X65414286Y-32452381D01*
X65033333Y-32452381D01*
X64938095Y-32500000D01*
X64890476Y-32547619D01*
X64842857Y-32642857D01*
X64842857Y-32785714D01*
X64890476Y-32880952D01*
X64938095Y-32928571D01*
X65033333Y-32976190D01*
X65414286Y-32976190D01*
X63890476Y-33452381D02*
X64461905Y-33452381D01*
X64176191Y-33452381D02*
X64176191Y-32452381D01*
X64271429Y-32595238D01*
X64366667Y-32690476D01*
X64461905Y-32738095D01*
X63033333Y-32785714D02*
X63033333Y-33452381D01*
X63271429Y-32404762D02*
X63509524Y-33119048D01*
X62890476Y-33119048D01*
X62969901Y-33055983D02*
X62493710Y-32722649D01*
X62969901Y-32484554D02*
X61969901Y-32484554D01*
X61969901Y-32865507D01*
X62017520Y-32960745D01*
X62065139Y-33008364D01*
X62160377Y-33055983D01*
X62303234Y-33055983D01*
X62398472Y-33008364D01*
X62446091Y-32960745D01*
X62493710Y-32865507D01*
X62493710Y-32484554D01*
X62969901Y-34008364D02*
X62969901Y-33436935D01*
X62969901Y-33722649D02*
X61969901Y-33722649D01*
X62112758Y-33627411D01*
X62207996Y-33532173D01*
X62255615Y-33436935D01*
X61969901Y-34913126D02*
X61969901Y-34436935D01*
X62446091Y-34389316D01*
X62398472Y-34436935D01*
X62350853Y-34532173D01*
X62350853Y-34770269D01*
X62398472Y-34865507D01*
X62446091Y-34913126D01*
X62541330Y-34960745D01*
X62779425Y-34960745D01*
X62874663Y-34913126D01*
X62922282Y-34865507D01*
X62969901Y-34770269D01*
X62969901Y-34532173D01*
X62922282Y-34436935D01*
X62874663Y-34389316D01*
X61022381Y-33447143D02*
X60546190Y-33113809D01*
X61022381Y-32875714D02*
X60022381Y-32875714D01*
X60022381Y-33256667D01*
X60070000Y-33351905D01*
X60117619Y-33399524D01*
X60212857Y-33447143D01*
X60355714Y-33447143D01*
X60450952Y-33399524D01*
X60498571Y-33351905D01*
X60546190Y-33256667D01*
X60546190Y-32875714D01*
X61022381Y-34399524D02*
X61022381Y-33828095D01*
X61022381Y-34113809D02*
X60022381Y-34113809D01*
X60165238Y-34018571D01*
X60260476Y-33923333D01*
X60308095Y-33828095D01*
X60022381Y-35256667D02*
X60022381Y-35066190D01*
X60070000Y-34970952D01*
X60117619Y-34923333D01*
X60260476Y-34828095D01*
X60450952Y-34780476D01*
X60831905Y-34780476D01*
X60927143Y-34828095D01*
X60974762Y-34875714D01*
X61022381Y-34970952D01*
X61022381Y-35161429D01*
X60974762Y-35256667D01*
X60927143Y-35304286D01*
X60831905Y-35351905D01*
X60593810Y-35351905D01*
X60498571Y-35304286D01*
X60450952Y-35256667D01*
X60403333Y-35161429D01*
X60403333Y-34970952D01*
X60450952Y-34875714D01*
X60498571Y-34828095D01*
X60593810Y-34780476D01*
X55952857Y-32382381D02*
X56286191Y-31906190D01*
X56524286Y-32382381D02*
X56524286Y-31382381D01*
X56143333Y-31382381D01*
X56048095Y-31430000D01*
X56000476Y-31477619D01*
X55952857Y-31572857D01*
X55952857Y-31715714D01*
X56000476Y-31810952D01*
X56048095Y-31858571D01*
X56143333Y-31906190D01*
X56524286Y-31906190D01*
X55000476Y-32382381D02*
X55571905Y-32382381D01*
X55286191Y-32382381D02*
X55286191Y-31382381D01*
X55381429Y-31525238D01*
X55476667Y-31620476D01*
X55571905Y-31668095D01*
X54667143Y-31382381D02*
X54000476Y-31382381D01*
X54429048Y-32382381D01*
X58492857Y-33452381D02*
X58826191Y-32976190D01*
X59064286Y-33452381D02*
X59064286Y-32452381D01*
X58683333Y-32452381D01*
X58588095Y-32500000D01*
X58540476Y-32547619D01*
X58492857Y-32642857D01*
X58492857Y-32785714D01*
X58540476Y-32880952D01*
X58588095Y-32928571D01*
X58683333Y-32976190D01*
X59064286Y-32976190D01*
X57540476Y-33452381D02*
X58111905Y-33452381D01*
X57826191Y-33452381D02*
X57826191Y-32452381D01*
X57921429Y-32595238D01*
X58016667Y-32690476D01*
X58111905Y-32738095D01*
X56969048Y-32880952D02*
X57064286Y-32833333D01*
X57111905Y-32785714D01*
X57159524Y-32690476D01*
X57159524Y-32642857D01*
X57111905Y-32547619D01*
X57064286Y-32500000D01*
X56969048Y-32452381D01*
X56778571Y-32452381D01*
X56683333Y-32500000D01*
X56635714Y-32547619D01*
X56588095Y-32642857D01*
X56588095Y-32690476D01*
X56635714Y-32785714D01*
X56683333Y-32833333D01*
X56778571Y-32880952D01*
X56969048Y-32880952D01*
X57064286Y-32928571D01*
X57111905Y-32976190D01*
X57159524Y-33071429D01*
X57159524Y-33261905D01*
X57111905Y-33357143D01*
X57064286Y-33404762D01*
X56969048Y-33452381D01*
X56778571Y-33452381D01*
X56683333Y-33404762D01*
X56635714Y-33357143D01*
X56588095Y-33261905D01*
X56588095Y-33071429D01*
X56635714Y-32976190D01*
X56683333Y-32928571D01*
X56778571Y-32880952D01*
D16*
X25991094Y-67479745D02*
X25991094Y-67938112D01*
X26021651Y-68029785D01*
X26082767Y-68090900D01*
X26174440Y-68121458D01*
X26235556Y-68121458D01*
X25349381Y-68121458D02*
X25716074Y-68121458D01*
X25532727Y-68121458D02*
X25532727Y-67479745D01*
X25593843Y-67571419D01*
X25654958Y-67632534D01*
X25716074Y-67663092D01*
X28583239Y-60315827D02*
X28613818Y-60346405D01*
X28705553Y-60376984D01*
X28766709Y-60376984D01*
X28858444Y-60346405D01*
X28919601Y-60285249D01*
X28950179Y-60224092D01*
X28980758Y-60101779D01*
X28980758Y-60010044D01*
X28950179Y-59887730D01*
X28919601Y-59826574D01*
X28858444Y-59765417D01*
X28766709Y-59734839D01*
X28705553Y-59734839D01*
X28613818Y-59765417D01*
X28583239Y-59795995D01*
X28216299Y-60376984D02*
X28277456Y-60346405D01*
X28308034Y-60315827D01*
X28338613Y-60254670D01*
X28338613Y-60071200D01*
X28308034Y-60010044D01*
X28277456Y-59979465D01*
X28216299Y-59948887D01*
X28124564Y-59948887D01*
X28063408Y-59979465D01*
X28032829Y-60010044D01*
X28002251Y-60071200D01*
X28002251Y-60254670D01*
X28032829Y-60315827D01*
X28063408Y-60346405D01*
X28124564Y-60376984D01*
X28216299Y-60376984D01*
X27727046Y-59948887D02*
X27727046Y-60376984D01*
X27727046Y-60010044D02*
X27696468Y-59979465D01*
X27635311Y-59948887D01*
X27543576Y-59948887D01*
X27482420Y-59979465D01*
X27451841Y-60040622D01*
X27451841Y-60376984D01*
X27146058Y-59948887D02*
X27146058Y-60376984D01*
X27146058Y-60010044D02*
X27115480Y-59979465D01*
X27054323Y-59948887D01*
X26962588Y-59948887D01*
X26901432Y-59979465D01*
X26870853Y-60040622D01*
X26870853Y-60376984D01*
X26717962Y-60438140D02*
X26228709Y-60438140D01*
X25953504Y-59734839D02*
X25892347Y-59734839D01*
X25831191Y-59765417D01*
X25800612Y-59795995D01*
X25770034Y-59857152D01*
X25739456Y-59979465D01*
X25739456Y-60132357D01*
X25770034Y-60254670D01*
X25800612Y-60315827D01*
X25831191Y-60346405D01*
X25892347Y-60376984D01*
X25953504Y-60376984D01*
X26014661Y-60346405D01*
X26045239Y-60315827D01*
X26075817Y-60254670D01*
X26106396Y-60132357D01*
X26106396Y-59979465D01*
X26075817Y-59857152D01*
X26045239Y-59795995D01*
X26014661Y-59765417D01*
X25953504Y-59734839D01*
X25127889Y-60376984D02*
X25494829Y-60376984D01*
X25311359Y-60376984D02*
X25311359Y-59734839D01*
X25372515Y-59826574D01*
X25433672Y-59887730D01*
X25494829Y-59918309D01*
X24913840Y-60376984D02*
X24577478Y-59948887D01*
X24913840Y-59948887D02*
X24577478Y-60376984D01*
X24210538Y-59734839D02*
X24149381Y-59734839D01*
X24088225Y-59765417D01*
X24057646Y-59795995D01*
X24027068Y-59857152D01*
X23996490Y-59979465D01*
X23996490Y-60132357D01*
X24027068Y-60254670D01*
X24057646Y-60315827D01*
X24088225Y-60346405D01*
X24149381Y-60376984D01*
X24210538Y-60376984D01*
X24271695Y-60346405D01*
X24302273Y-60315827D01*
X24332851Y-60254670D01*
X24363430Y-60132357D01*
X24363430Y-59979465D01*
X24332851Y-59857152D01*
X24302273Y-59795995D01*
X24271695Y-59765417D01*
X24210538Y-59734839D01*
X23782441Y-59734839D02*
X23384923Y-59734839D01*
X23598971Y-59979465D01*
X23507236Y-59979465D01*
X23446079Y-60010044D01*
X23415501Y-60040622D01*
X23384923Y-60101779D01*
X23384923Y-60254670D01*
X23415501Y-60315827D01*
X23446079Y-60346405D01*
X23507236Y-60376984D01*
X23690706Y-60376984D01*
X23751863Y-60346405D01*
X23782441Y-60315827D01*
D17*
X61358333Y-25287381D02*
X61358333Y-26001667D01*
X61405953Y-26144524D01*
X61501191Y-26239762D01*
X61644048Y-26287381D01*
X61739286Y-26287381D01*
X60929762Y-25382619D02*
X60882143Y-25335000D01*
X60786905Y-25287381D01*
X60548809Y-25287381D01*
X60453571Y-25335000D01*
X60405952Y-25382619D01*
X60358333Y-25477857D01*
X60358333Y-25573095D01*
X60405952Y-25715952D01*
X60977381Y-26287381D01*
X60358333Y-26287381D01*
X44213333Y-59577381D02*
X44213333Y-60291667D01*
X44260953Y-60434524D01*
X44356191Y-60529762D01*
X44499048Y-60577381D01*
X44594286Y-60577381D01*
X43832381Y-59577381D02*
X43213333Y-59577381D01*
X43546667Y-59958333D01*
X43403809Y-59958333D01*
X43308571Y-60005952D01*
X43260952Y-60053571D01*
X43213333Y-60148810D01*
X43213333Y-60386905D01*
X43260952Y-60482143D01*
X43308571Y-60529762D01*
X43403809Y-60577381D01*
X43689524Y-60577381D01*
X43784762Y-60529762D01*
X43832381Y-60482143D01*
X44213333Y-27827381D02*
X44213333Y-28541667D01*
X44260953Y-28684524D01*
X44356191Y-28779762D01*
X44499048Y-28827381D01*
X44594286Y-28827381D01*
X43260952Y-27827381D02*
X43737143Y-27827381D01*
X43784762Y-28303571D01*
X43737143Y-28255952D01*
X43641905Y-28208333D01*
X43403809Y-28208333D01*
X43308571Y-28255952D01*
X43260952Y-28303571D01*
X43213333Y-28398810D01*
X43213333Y-28636905D01*
X43260952Y-28732143D01*
X43308571Y-28779762D01*
X43403809Y-28827381D01*
X43641905Y-28827381D01*
X43737143Y-28779762D01*
X43784762Y-28732143D01*
X29744286Y-28282381D02*
X29744286Y-27282381D01*
X29363333Y-27282381D01*
X29268095Y-27330000D01*
X29220476Y-27377619D01*
X29172857Y-27472857D01*
X29172857Y-27615714D01*
X29220476Y-27710952D01*
X29268095Y-27758571D01*
X29363333Y-27806190D01*
X29744286Y-27806190D01*
X28220476Y-28282381D02*
X28791905Y-28282381D01*
X28506191Y-28282381D02*
X28506191Y-27282381D01*
X28601429Y-27425238D01*
X28696667Y-27520476D01*
X28791905Y-27568095D01*
X27744286Y-28282381D02*
X27553810Y-28282381D01*
X27458571Y-28234762D01*
X27410952Y-28187143D01*
X27315714Y-28044286D01*
X27268095Y-27853810D01*
X27268095Y-27472857D01*
X27315714Y-27377619D01*
X27363333Y-27330000D01*
X27458571Y-27282381D01*
X27649048Y-27282381D01*
X27744286Y-27330000D01*
X27791905Y-27377619D01*
X27839524Y-27472857D01*
X27839524Y-27710952D01*
X27791905Y-27806190D01*
X27744286Y-27853810D01*
X27649048Y-27901429D01*
X27458571Y-27901429D01*
X27363333Y-27853810D01*
X27315714Y-27806190D01*
X27268095Y-27710952D01*
%LPC*%
D18*
X48150000Y-51660000D03*
X46150000Y-51660000D03*
X40150000Y-51660000D03*
X38150000Y-51660000D03*
X36150000Y-51660000D03*
X34150000Y-51660000D03*
X34150000Y-36860000D03*
X36150000Y-36860000D03*
X38150000Y-36860000D03*
X40150000Y-36860000D03*
X42150000Y-36860000D03*
X44150000Y-36860000D03*
X46150000Y-36860000D03*
X48150000Y-36860000D03*
D19*
X63803000Y-65207900D03*
X66343000Y-65207900D03*
X61263000Y-65207900D03*
X66343000Y-60127900D03*
X63803000Y-60127900D03*
X61263000Y-60127900D03*
X54913000Y-63150500D03*
X57453000Y-63150500D03*
X52373000Y-63150500D03*
X57453000Y-58070500D03*
X54913000Y-58070500D03*
X52373000Y-58070500D03*
D20*
X64882500Y-56140100D03*
D21*
X66132500Y-56140100D03*
X69297020Y-56084220D03*
D20*
X70547020Y-56084220D03*
D22*
X55945000Y-44250000D03*
X55945000Y-45500000D03*
X55945000Y-46750000D03*
X55945000Y-43000000D03*
X55945000Y-41750000D03*
D23*
X59545000Y-50550000D03*
X59545000Y-37950000D03*
D22*
X55945000Y-48000000D03*
X55945000Y-40500000D03*
D24*
X50240000Y-51740000D03*
D25*
X55320000Y-51740000D03*
X60400000Y-51740000D03*
X60400000Y-36500000D03*
X55320000Y-36500000D03*
X50240000Y-36500000D03*
D21*
X67486000Y-36290000D03*
D20*
X66236000Y-36290000D03*
D22*
X31815000Y-44250000D03*
X31815000Y-43000000D03*
X31815000Y-41750000D03*
X31815000Y-45500000D03*
X31815000Y-46750000D03*
D23*
X28215000Y-37950000D03*
X28215000Y-50550000D03*
D22*
X31815000Y-40500000D03*
X31815000Y-48000000D03*
D20*
X35990000Y-16224000D03*
D21*
X35990000Y-17474000D03*
D26*
X48960000Y-55795000D03*
X48960000Y-54295000D03*
D27*
X46305000Y-53775000D03*
X47805000Y-53775000D03*
D26*
X31180000Y-49215000D03*
X31180000Y-50715000D03*
X32450000Y-49215000D03*
X32450000Y-50715000D03*
D27*
X38915000Y-31550000D03*
X37415000Y-31550000D03*
D26*
X36060000Y-30210000D03*
X36060000Y-31710000D03*
D27*
X53520000Y-40440000D03*
X52020000Y-40440000D03*
X53520000Y-41710000D03*
X52020000Y-41710000D03*
D28*
X63565000Y-35040000D03*
X63565000Y-33140000D03*
D27*
X63450000Y-31550000D03*
X64950000Y-31550000D03*
D28*
X60867520Y-34648840D03*
X60867520Y-32748840D03*
D26*
X59120000Y-34840000D03*
X59120000Y-33340000D03*
D29*
X54360000Y-30280000D03*
X56260000Y-30280000D03*
D27*
X57100000Y-31550000D03*
X58600000Y-31550000D03*
D30*
X30175000Y-66050000D03*
X28925000Y-66050000D03*
X27675000Y-66050000D03*
D31*
X25125000Y-63150000D03*
X32725000Y-63150000D03*
D32*
X61025000Y-29645000D03*
X62275000Y-29645000D03*
X63525000Y-29645000D03*
X59775000Y-29645000D03*
X58525000Y-29645000D03*
D31*
X67325000Y-26045000D03*
X54725000Y-26045000D03*
D32*
X64775000Y-29645000D03*
X57275000Y-29645000D03*
X43880000Y-56315000D03*
X42630000Y-56315000D03*
X41380000Y-56315000D03*
X45130000Y-56315000D03*
X46380000Y-56315000D03*
D31*
X37580000Y-59915000D03*
X50180000Y-59915000D03*
D32*
X40130000Y-56315000D03*
X47630000Y-56315000D03*
X43880000Y-32185000D03*
X45130000Y-32185000D03*
X46380000Y-32185000D03*
X42630000Y-32185000D03*
X41380000Y-32185000D03*
D31*
X50180000Y-28585000D03*
D33*
X37770000Y-28585000D03*
D32*
X47630000Y-32185000D03*
X40130000Y-32185000D03*
D20*
X15670000Y-52038000D03*
D21*
X16920000Y-52038000D03*
X20115000Y-52038000D03*
D20*
X21365000Y-52038000D03*
X51738000Y-72358000D03*
D21*
X51738000Y-71108000D03*
X51738000Y-67913000D03*
D20*
X51738000Y-66663000D03*
X34720000Y-72358000D03*
D21*
X34720000Y-71108000D03*
X34720000Y-67913000D03*
D20*
X34720000Y-66663000D03*
X53008000Y-16224000D03*
D21*
X53008000Y-17474000D03*
X53008000Y-20669000D03*
D20*
X53008000Y-21919000D03*
X71931000Y-36290000D03*
D21*
X70681000Y-36290000D03*
X67359000Y-53435000D03*
X66109000Y-53435000D03*
X35990000Y-20669000D03*
D20*
X35990000Y-21919000D03*
X15924000Y-35147000D03*
D21*
X17174000Y-35147000D03*
X20369000Y-35147000D03*
D20*
X21619000Y-35147000D03*
D32*
X29800000Y-31640000D03*
X28550000Y-31640000D03*
X27300000Y-31640000D03*
D34*
X32450000Y-27940000D03*
D31*
X23500000Y-28040000D03*
D32*
X26050000Y-31640000D03*
D21*
X18024580Y-57242460D03*
D20*
X16774580Y-57242460D03*
D21*
X71804000Y-53435000D03*
X70554000Y-53435000D03*
D25*
X53262000Y-69056000D03*
X53262000Y-66516000D03*
X34453300Y-19792700D03*
X34453300Y-22332700D03*
D35*
X35570900Y-36582100D03*
D36*
X28725600Y-28924000D03*
X59294500Y-59569100D03*
D20*
X17371800Y-32734000D03*
X17371800Y-31484000D03*
X31800000Y-71000000D03*
D21*
X30550000Y-71000000D03*
X43960520Y-53800760D03*
X42710520Y-53800760D03*
X53363600Y-43376600D03*
X52113600Y-43376600D03*
D37*
X52098680Y-50641000D03*
X52098680Y-49391000D03*
D21*
X30262300Y-26942800D03*
X26287200Y-28441400D03*
X30015920Y-25967440D03*
D37*
X62865740Y-23028660D03*
X63871580Y-24400260D03*
D38*
X58606160Y-23341080D03*
D37*
X62449940Y-27145640D03*
D38*
X58667120Y-29447240D03*
D37*
X40490000Y-27970000D03*
D38*
X43884320Y-28461720D03*
D37*
X33880000Y-37370000D03*
X32632120Y-39975540D03*
X55895980Y-21751040D03*
D38*
X58989700Y-32030420D03*
D37*
X61030000Y-47310000D03*
D21*
X26275900Y-25075900D03*
D37*
X62317100Y-53930300D03*
D21*
X32383200Y-23247100D03*
D38*
X54800000Y-65300000D03*
D37*
X60642730Y-19727570D03*
D38*
X48020200Y-41105480D03*
X64200000Y-66475000D03*
X39100000Y-56300000D03*
X31320000Y-51910000D03*
X28350000Y-54820000D03*
X47680000Y-32670000D03*
X47825000Y-53800000D03*
X37350000Y-31525000D03*
D37*
X37200000Y-34550000D03*
D38*
X28800000Y-60150000D03*
X31930000Y-35360000D03*
D37*
X33740000Y-30480000D03*
D38*
X54660000Y-54440000D03*
D37*
X60480680Y-66754760D03*
D38*
X30894760Y-31123640D03*
X27180000Y-42570000D03*
D37*
X56524120Y-24112880D03*
D38*
X53719200Y-22995640D03*
D37*
X41410000Y-28970000D03*
X29114220Y-48263560D03*
X28342060Y-46051220D03*
D38*
X34070000Y-33050000D03*
D37*
X34864780Y-29846020D03*
X52929260Y-26648160D03*
X51971680Y-28080720D03*
D38*
X52740000Y-37490000D03*
D37*
X59772020Y-47499020D03*
X57275000Y-67750000D03*
D38*
X66482700Y-57537100D03*
D37*
X58423280Y-39998400D03*
D21*
X28975000Y-65000000D03*
D38*
X59800000Y-28800000D03*
D37*
X61175000Y-67750000D03*
D38*
X37300000Y-54350000D03*
D21*
X41120000Y-58530000D03*
X38660000Y-57660000D03*
D37*
X43860000Y-59960000D03*
D21*
X41440000Y-60240000D03*
D38*
X27280000Y-39220000D03*
D37*
X34375000Y-54575000D03*
D38*
X53135000Y-35040000D03*
X33425000Y-59825000D03*
X36508920Y-39611960D03*
X31317160Y-60071660D03*
X36072040Y-40747340D03*
X46305000Y-53775000D03*
X33094400Y-34992060D03*
X33150000Y-46620000D03*
X53520000Y-41710000D03*
X26450000Y-53290000D03*
X28275000Y-41710000D03*
X29600000Y-44880000D03*
X22600000Y-59150000D03*
X30050000Y-57250000D03*
X29600000Y-46120000D03*
X38570000Y-48270000D03*
X31420000Y-37710000D03*
X36075000Y-54500000D03*
X35300000Y-57750000D03*
X31250000Y-66125000D03*
X52576200Y-46221400D03*
X43122320Y-30158440D03*
X39731420Y-49498000D03*
X45360060Y-42845740D03*
D21*
X45340000Y-49940000D03*
D38*
X48025000Y-42850000D03*
X44341520Y-30178760D03*
X55190000Y-34283400D03*
X57588210Y-33191790D03*
X56909440Y-34999680D03*
X39820320Y-48255940D03*
X42818280Y-45489520D03*
X43920000Y-55160000D03*
X59907400Y-44984060D03*
X57224400Y-59581800D03*
X53135000Y-60077100D03*
X56180460Y-56668420D03*
X58391020Y-43627700D03*
X40011580Y-40930220D03*
X29530000Y-33890000D03*
X57300600Y-38695380D03*
X46907680Y-39680540D03*
X40285900Y-42118940D03*
X60498460Y-39746940D03*
X45045100Y-41644320D03*
D21*
X47225000Y-50050000D03*
D38*
X54371980Y-35334960D03*
X42700000Y-55150000D03*
X49934600Y-33788100D03*
X32962320Y-31621480D03*
X49147960Y-39540840D03*
X53188340Y-52647600D03*
X58336920Y-53605180D03*
X60577200Y-55505100D03*
X66650000Y-55000000D03*
X69403700Y-61745880D03*
X54570100Y-59569100D03*
X37150000Y-45100000D03*
X53500000Y-40475000D03*
X36607220Y-49388780D03*
X38065180Y-32670500D03*
X47630000Y-56315000D03*
X32890000Y-36340000D03*
X34700000Y-61700000D03*
X34344080Y-28822400D03*
D37*
X31880280Y-30310840D03*
X24620960Y-54923440D03*
X28430000Y-56140000D03*
X32190160Y-54324000D03*
D38*
X53282320Y-29213560D03*
D37*
X46200000Y-30000000D03*
D38*
X28217600Y-24260560D03*
X29045640Y-24265640D03*
X52317120Y-31611320D03*
X50097160Y-31646880D03*
X58834760Y-48677580D03*
D37*
X57173600Y-54453540D03*
X50150500Y-56114700D03*
D21*
X21664400Y-27666700D03*
X24737800Y-32848300D03*
D38*
X57240000Y-51500000D03*
X58010000Y-46650000D03*
D37*
X42350000Y-61070000D03*
D38*
X27160000Y-40620000D03*
X31478960Y-39231320D03*
X37710340Y-42926660D03*
X38911000Y-39670740D03*
X35655480Y-41903040D03*
X29280000Y-39920000D03*
X44240000Y-47020000D03*
X42370000Y-41680000D03*
X42300000Y-39300000D03*
X28530020Y-43485820D03*
X27084760Y-52622200D03*
X23810000Y-56680000D03*
X26560000Y-56400000D03*
X45215280Y-39713920D03*
X40682140Y-47331020D03*
X34446440Y-41882720D03*
X50976000Y-32134560D03*
X60643240Y-33135320D03*
X59177660Y-34819340D03*
X39500280Y-26907240D03*
X44671720Y-26902160D03*
X35034960Y-28014680D03*
X53360000Y-54040000D03*
X47280000Y-48810000D03*
X45140000Y-34700000D03*
X45180000Y-38500000D03*
X43750000Y-34460000D03*
X43259480Y-38535360D03*
X42250000Y-34675000D03*
X41120000Y-38730000D03*
X39162460Y-38482020D03*
X40782980Y-34590740D03*
X47837320Y-45045020D03*
X53744600Y-45002200D03*
X48507880Y-47704400D03*
X52817500Y-47859700D03*
X53731900Y-47046900D03*
X47837320Y-46683320D03*
X52525400Y-45002200D03*
X49140340Y-46096580D03*
X58113400Y-36165540D03*
X55606420Y-39360860D03*
X62263760Y-31890720D03*
X53290000Y-39280000D03*
X61027540Y-40907360D03*
X58181980Y-45421300D03*
X53160400Y-30173680D03*
X51347600Y-35288880D03*
X32307000Y-25761700D03*
X27874700Y-22040600D03*
X58890640Y-66673480D03*
X55370200Y-61639200D03*
X41810000Y-50190000D03*
X42890000Y-49220000D03*
M02*
