M48
;DRILL file {KiCad 4.0.7} date 01/31/18 21:18:16
;FORMAT={-:-/ absolute / inch / decimal}
FMAT,2
INCH,TZ
T1C0.024
T2C0.028
T3C0.035
%
G90
G05
M72
T1
X0.6169Y-2.0487
X0.6269Y-1.3837
X0.6604Y-2.2536
X0.6661Y-2.0487
X0.6761Y-1.3837
X0.6839Y-1.2395
X0.6839Y-1.2887
X0.7096Y-2.2536
X0.7919Y-2.0487
X0.8019Y-1.3837
X0.8411Y-2.0487
X0.8511Y-1.3837
X0.8529Y-1.0892
X0.8898Y-2.3287
X0.9374Y-2.2315
X0.9677Y-2.1858
X0.9739Y-1.2932
X1.0345Y-0.9872
X1.0349Y-1.1197
X1.0413Y-2.098
X1.0457Y-2.2205
X1.0693Y-1.5992
X1.0701Y-1.676
X1.074Y-1.5441
X1.0866Y-2.0803
X1.0974Y-0.8677
X1.1132Y-1.6421
X1.1158Y-1.813
X1.1161Y-2.1583
X1.1193Y-2.2102
X1.1232Y-1.712
X1.1339Y-2.3681
X1.1407Y-2.5591
X1.1462Y-1.9001
X1.1528Y-1.5717
X1.1626Y-1.3343
X1.1654Y-1.7669
X1.1654Y-1.8157
X1.1831Y-2.2539
X1.1844Y-1.0217
X1.1914Y-1.0607
X1.2303Y-2.6033
X1.2323Y-1.2411
X1.233Y-2.365
X1.2331Y-2.0437
X1.237Y-1.4846
X1.2393Y-1.5445
X1.2571Y-1.3921
X1.2719Y-1.0142
X1.2749Y-0.9152
X1.2813Y-1.2187
X1.2847Y-1.5738
X1.2949Y-1.4307
X1.3029Y-1.3776
X1.3051Y-1.8354
X1.3159Y-2.3553
X1.3173Y-2.113
X1.3283Y-1.2
X1.3339Y-1.4713
X1.3413Y-1.3012
X1.3533Y-2.1486
X1.3562Y-1.6489
X1.3669Y-2.6245
X1.3669Y-2.6737
X1.3669Y-2.7995
X1.3669Y-2.8487
X1.3725Y-1.119
X1.3726Y-1.175
X1.3835Y-2.4449
X1.3898Y-2.2736
X1.4038Y-1.6497
X1.4169Y-0.6387
X1.4169Y-0.688
X1.4169Y-0.8137
X1.4169Y-0.863
X1.4202Y-1.6042
X1.4203Y-2.1457
X1.4374Y-1.5595
X1.4412Y-1.9444
X1.4626Y-1.7756
X1.4646Y-1.3602
X1.4685Y-2.1398
X1.4705Y-1.2411
X1.4847Y-1.69
X1.4986Y-1.2862
X1.5185Y-1.9004
X1.522Y-2.2701
X1.5319Y-1.5618
X1.5394Y-2.2165
X1.5418Y-1.515
X1.5535Y-1.0693
X1.5642Y-1.9487
X1.5677Y-1.8998
X1.5753Y-1.6114
X1.5861Y-1.6582
X1.5941Y-1.1012
X1.6017Y-1.8634
X1.6056Y-1.3618
X1.6189Y-1.5248
X1.6189Y-2.3043
X1.6303Y-1.1406
X1.6315Y-2.3717
X1.6634Y-1.3652
X1.6654Y-1.5472
X1.6673Y-2.4043
X1.6681Y-1.6409
X1.6692Y-2.119
X1.6846Y-1.135
X1.6858Y-1.7909
X1.7031Y-1.5171
X1.7142Y-1.1772
X1.7224Y-1.3567
X1.7268Y-2.3606
X1.7303Y-2.1575
X1.7417Y-1.8512
X1.7614Y-1.0669
X1.7677Y-1.1781
X1.7734Y-1.6395
X1.7772Y-1.3661
X1.7787Y-1.5157
X1.7801Y-1.5635
X1.785Y-1.9661
X1.7858Y-1.6868
X1.8189Y-1.1811
X1.823Y-2.1171
X1.8468Y-1.5622
X1.8593Y-1.9705
X1.8752Y-2.2171
X1.8772Y-1.2862
X1.8829Y-2.1181
X1.8834Y-1.7734
X1.8834Y-1.8379
X1.8906Y-1.6183
X1.8907Y-1.687
X1.8996Y-1.9433
X1.9098Y-1.8781
X1.9347Y-1.8148
X1.935Y-1.5567
X1.937Y-1.2618
X1.9659Y-1.3302
X1.9744Y-2.2092
X2.0069Y-1.2651
X2.0216Y-1.3893
X2.0369Y-2.6245
X2.0369Y-2.6737
X2.0369Y-2.7995
X2.0369Y-2.8487
X2.0461Y-1.1055
X2.0509Y-1.9442
X2.0509Y-1.9935
X2.0517Y-1.7077
X2.0679Y-1.7717
X2.0699Y-1.8197
X2.0713Y-1.2157
X2.0764Y-1.476
X2.0794Y-1.8842
X2.0838Y-1.0491
X2.0869Y-0.6387
X2.0869Y-0.688
X2.0869Y-0.8137
X2.0869Y-0.863
X2.0919Y-1.3795
X2.0919Y-2.3652
X2.0926Y-1.1497
X2.094Y-2.0727
X2.0944Y-2.8482
X2.098Y-1.5465
X2.1008Y-2.1276
X2.1009Y-1.7077
X2.1063Y-1.5935
X2.1071Y-1.6421
X2.1154Y-1.8522
X2.1159Y-1.7717
X2.1378Y-0.9097
X2.1406Y-1.3911
X2.1436Y-2.8482
X2.1484Y-2.3452
X2.152Y-2.1433
X2.1575Y-2.5709
X2.1728Y-1.3497
X2.1799Y-2.4267
X2.1892Y-1.5496
X2.2006Y-0.8563
X2.2118Y-2.231
X2.2254Y-0.9493
X2.2405Y-1.3779
X2.2509Y-2.1438
X2.2529Y-2.3457
X2.2535Y-2.0276
X2.2549Y-2.6673
X2.2559Y-1.5234
X2.2673Y-1.3068
X2.2839Y-1.8366
X2.2879Y-1.4238
X2.2896Y-0.9283
X2.2906Y-1.7882
X2.2967Y-2.1104
X2.2989Y-1.7176
X2.3001Y-1.5747
X2.3163Y-1.9164
X2.3224Y-1.261
X2.3298Y-1.3708
X2.3349Y-2.6182
X2.3532Y-1.87
X2.3543Y-1.1339
X2.3586Y-1.771
X2.3818Y-1.5648
X2.3849Y-2.1852
X2.3875Y-0.7767
X2.3875Y-1.3045
X2.4027Y-1.6105
X2.4028Y-1.8626
X2.4085Y-2.6673
X2.4513Y-1.2555
X2.4534Y-2.1232
X2.4587Y-1.0687
X2.475Y-0.9066
X2.5146Y-0.9606
X2.5276Y-2.6171
X2.5544Y-2.2102
X2.6027Y-2.1037
X2.6036Y-2.2102
X2.6077Y-1.4287
X2.6174Y-2.2652
X2.624Y-2.1654
X2.6519Y-2.1037
X2.6569Y-1.4287
X2.7282Y-2.208
X2.7324Y-2.4309
X2.7774Y-2.208
X2.7777Y-2.1037
X2.7827Y-1.4287
X2.8269Y-2.1037
X2.8319Y-1.4287
T2
X1.3564Y-0.7792
X1.3564Y-0.8792
X1.978Y-1.437
X1.978Y-2.037
X2.0969Y-2.6187
X2.0969Y-2.7187
X2.178Y-1.437
X2.178Y-2.037
X2.378Y-1.437
X2.378Y-2.037
T3
X1.4004Y-1.4402
T0
M30
