M48
INCH,TZ
T1C0.012
T2C0.024
T3C0.028
T4C0.035
%
G90
G05
T1
X8898Y-23287
X9374Y-22315
X9693Y-21623
X10413Y-20980
X10457Y-22205
X10663Y-20717
X10693Y-15992
X10701Y-16760
X10740Y-15441
X10974Y-8677
X11109Y-9551
X11132Y-16421
X11158Y-18130
X11161Y-21583
X11193Y-22102
X11232Y-17120
X11339Y-23681
X11435Y-9553
X11462Y-19001
X11528Y-15717
X11626Y-13343
X11654Y-17669
X11654Y-18157
X11831Y-22539
X12163Y-12253
X12303Y-26033
X12330Y-23650
X12331Y-20437
X12370Y-14846
X12393Y-15445
X12551Y-11933
X12571Y-13921
X12673Y-21387
X12719Y-10142
X12847Y-15738
X12949Y-14307
X12977Y-12449
X13029Y-13776
X13051Y-18354
X13159Y-23553
X13283Y-12000
X13339Y-14713
X13413Y-13012
X13521Y-11347
X13562Y-16489
X13661Y-24291
X13726Y-11750
X13793Y-11029
X13898Y-22736
X14038Y-16497
X14202Y-16042
X14203Y-21457
X14374Y-15595
X14412Y-19444
X14626Y-17756
X14646Y-13602
X14685Y-21398
X14705Y-12411
X14847Y-16900
X14986Y-12862
X15185Y-19004
X15319Y-15618
X15394Y-22165
X15418Y-15150
X15551Y-10593
X15642Y-19487
X15677Y-18998
X15753Y-16114
X15861Y-16582
X15941Y-11012
X16017Y-18634
X16056Y-13618
X16189Y-15248
X16303Y-11406
X16461Y-19760
X16634Y-13652
X16654Y-15472
X16673Y-24043
X16681Y-16409
X16811Y-21713
X16858Y-17909
X16886Y-19378
X16977Y-11873
X17031Y-15171
X17224Y-13567
X17268Y-23606
X17277Y-11205
X17291Y-21717
X17417Y-18512
X17457Y-11881
X17587Y-10591
X17734Y-16395
X17772Y-13661
X17787Y-15157
X17801Y-15635
X17858Y-16868
X18189Y-11811
X18230Y-21171
X18468Y-15622
X18614Y-19217
X18752Y-22171
X18772Y-12862
X18829Y-21181
X18834Y-17734
X18834Y-18379
X18906Y-16183
X18907Y-16870
X19098Y-18781
X19347Y-18148
X19350Y-15567
X19659Y-13302
X19723Y-12459
X19744Y-22092
X20069Y-12651
X20216Y-13893
X20461Y-11055
X20597Y-12445
X20679Y-17717
X20699Y-18197
X20764Y-14760
X20794Y-18842
X20838Y-10491
X20919Y-13795
X20919Y-23652
X20929Y-11879
X20940Y-20727
X20977Y-11501
X20980Y-15465
X21008Y-21276
X21063Y-15935
X21071Y-16421
X21149Y-9053
X21154Y-18522
X21159Y-17717
X21406Y-13911
X21484Y-23452
X21520Y-21433
X21575Y-25709
X21728Y-13497
X21799Y-24267
X21892Y-15496
X22006Y-8563
X22118Y-22310
X22254Y-9493
X22405Y-13779
X22509Y-21438
X22529Y-23457
X22535Y-20276
X22549Y-26673
X22559Y-15234
X22673Y-13068
X22839Y-18366
X22879Y-14238
X22906Y-17882
X22967Y-21104
X22989Y-17176
X23001Y-15747
X23073Y-9189
X23097Y-11593
X23163Y-19164
X23185Y-26249
X23224Y-12610
X23298Y-13708
X23532Y-18700
X23543Y-11339
X23586Y-17710
X23811Y-26281
X23818Y-15648
X23849Y-21852
X23875Y-7767
X23875Y-13045
X24027Y-16105
X24028Y-18626
X24085Y-26673
X24513Y-12555
X24534Y-21232
X24587Y-10687
X24750Y-9066
X25146Y-9606
X25276Y-26171
X26174Y-22652
X26240Y-21654
X27324Y-24309
T2
X6169Y-20487
X6269Y-13837
X6604Y-22536
X6661Y-20487
X6761Y-13837
X6839Y-12395
X6839Y-12887
X7096Y-22536
X7919Y-20487
X8019Y-13837
X8411Y-20487
X8511Y-13837
X8529Y-10892
X9739Y-12932
X10345Y-9872
X10349Y-11197
X11407Y-25591
X11817Y-10223
X11914Y-10607
X12028Y-27953
X12520Y-27953
X12749Y-9152
X13533Y-21486
X13669Y-26245
X13669Y-26737
X13669Y-27995
X13669Y-28487
X14169Y-6387
X14169Y-6880
X14169Y-8137
X14169Y-8630
X15220Y-22701
X16189Y-23043
X16315Y-23717
X16815Y-21181
X17307Y-21181
X17850Y-19661
X18593Y-19705
X20369Y-26245
X20369Y-26737
X20369Y-27995
X20369Y-28487
X20511Y-19445
X20511Y-19937
X20517Y-17077
X20869Y-6387
X20869Y-6880
X20869Y-8137
X20869Y-8630
X21009Y-17077
X25544Y-22102
X26027Y-21037
X26036Y-22102
X26077Y-14287
X26519Y-21037
X26569Y-14287
X27282Y-22080
X27774Y-22080
X27777Y-21037
X27827Y-14287
X28269Y-21037
X28319Y-14287
T3
X13564Y-7792
X13564Y-8792
X19780Y-14370
X19780Y-20370
X20969Y-26187
X20969Y-27187
X21780Y-14370
X21780Y-20370
X23780Y-14370
X23780Y-20370
T4
X14004Y-14402
T0
M30
