G04 #@! TF.FileFunction,Legend,Top*
%FSLAX46Y46*%
G04 Gerber Fmt 4.6, Leading zero omitted, Abs format (unit mm)*
G04 Created by KiCad (PCBNEW 4.0.7) date 02/03/18 21:52:34*
%MOMM*%
%LPD*%
G01*
G04 APERTURE LIST*
%ADD10C,0.100000*%
%ADD11C,0.254000*%
%ADD12C,0.120000*%
%ADD13C,0.150000*%
%ADD14C,0.050000*%
%ADD15R,1.500000X0.290000*%
%ADD16R,0.290000X1.500000*%
%ADD17R,2.000000X3.800000*%
%ADD18R,2.000000X1.500000*%
%ADD19R,2.550000X2.500000*%
%ADD20R,1.000000X1.250000*%
%ADD21C,1.060000*%
%ADD22C,1.006000*%
%ADD23R,0.800000X3.000000*%
%ADD24R,2.100000X3.000000*%
%ADD25C,1.300000*%
%ADD26C,1.524000*%
%ADD27R,3.000000X0.800000*%
%ADD28R,0.600000X0.500000*%
%ADD29R,1.500000X0.500000*%
%ADD30R,0.900000X0.800000*%
%ADD31R,0.500000X0.900000*%
%ADD32R,0.900000X0.500000*%
%ADD33R,0.700000X1.300000*%
%ADD34R,1.250000X1.000000*%
%ADD35R,1.300000X1.700000*%
%ADD36R,5.500000X2.000000*%
%ADD37C,1.306000*%
%ADD38C,2.000000*%
%ADD39C,1.000000*%
%ADD40R,3.000000X0.650000*%
%ADD41C,0.706000*%
G04 APERTURE END LIST*
D10*
D11*
X35610000Y-37250000D02*
X49610000Y-37250000D01*
X49610000Y-37250000D02*
X49610000Y-51250000D01*
X49610000Y-51250000D02*
X35610000Y-51250000D01*
X35610000Y-51250000D02*
X35610000Y-37250000D01*
X36859900Y-38250000D02*
G75*
G03X36859900Y-38250000I-249900J0D01*
G01*
D10*
X34564000Y-37100000D02*
G75*
G03X34564000Y-37100000I-254000J0D01*
G01*
D12*
X53115000Y-60180000D02*
X60215000Y-60180000D01*
X53115000Y-63880000D02*
X60215000Y-63880000D01*
X53115000Y-60180000D02*
X53115000Y-63880000D01*
X68935000Y-63880000D02*
X61835000Y-63880000D01*
X68935000Y-60180000D02*
X61835000Y-60180000D01*
X68935000Y-63880000D02*
X68935000Y-60180000D01*
X64065000Y-65625000D02*
X63065000Y-65625000D01*
X63065000Y-67325000D02*
X64065000Y-67325000D01*
D13*
X63382500Y-54870100D02*
X67632500Y-54870100D01*
X67632500Y-54870100D02*
X67632500Y-57410100D01*
X67632500Y-57410100D02*
X67632500Y-58680100D01*
X67632500Y-58680100D02*
X63382500Y-58680100D01*
X63382500Y-58680100D02*
X63382500Y-54870100D01*
X67797020Y-54814220D02*
X72047020Y-54814220D01*
X72047020Y-54814220D02*
X72047020Y-57354220D01*
X72047020Y-57354220D02*
X72047020Y-58624220D01*
X72047020Y-58624220D02*
X67797020Y-58624220D01*
X67797020Y-58624220D02*
X67797020Y-54814220D01*
X68986000Y-37560000D02*
X64736000Y-37560000D01*
X64736000Y-37560000D02*
X64736000Y-35020000D01*
X64736000Y-35020000D02*
X64736000Y-33750000D01*
X64736000Y-33750000D02*
X68986000Y-33750000D01*
X68986000Y-33750000D02*
X68986000Y-37560000D01*
X37260000Y-14724000D02*
X37260000Y-18974000D01*
X37260000Y-18974000D02*
X34720000Y-18974000D01*
X34720000Y-18974000D02*
X33450000Y-18974000D01*
X33450000Y-18974000D02*
X33450000Y-14724000D01*
X33450000Y-14724000D02*
X37260000Y-14724000D01*
D12*
X40320000Y-55845000D02*
X39820000Y-55845000D01*
X39820000Y-56785000D02*
X40320000Y-56785000D01*
X43630000Y-56785000D02*
X44130000Y-56785000D01*
X44130000Y-55845000D02*
X43630000Y-55845000D01*
X29215000Y-62685000D02*
X26795000Y-62685000D01*
X29215000Y-57565000D02*
X26795000Y-57565000D01*
X30345000Y-62635000D02*
X29215000Y-62635000D01*
X29215000Y-62685000D02*
X29215000Y-62635000D01*
X26795000Y-62685000D02*
X26795000Y-62635000D01*
X29215000Y-57615000D02*
X29215000Y-57565000D01*
X26795000Y-57615000D02*
X26795000Y-57565000D01*
X28515000Y-36320000D02*
X28515000Y-37250000D01*
X28515000Y-39480000D02*
X28515000Y-38550000D01*
X28515000Y-39480000D02*
X30675000Y-39480000D01*
X28515000Y-36320000D02*
X29975000Y-36320000D01*
X51375000Y-32510000D02*
X51375000Y-33440000D01*
X51375000Y-35670000D02*
X51375000Y-34740000D01*
X51375000Y-35670000D02*
X53535000Y-35670000D01*
X51375000Y-32510000D02*
X52835000Y-32510000D01*
X27880000Y-32510000D02*
X27880000Y-33440000D01*
X27880000Y-35670000D02*
X27880000Y-34740000D01*
X27880000Y-35670000D02*
X30040000Y-35670000D01*
X27880000Y-32510000D02*
X29340000Y-32510000D01*
X28515000Y-40130000D02*
X28515000Y-41060000D01*
X28515000Y-43290000D02*
X28515000Y-42360000D01*
X28515000Y-43290000D02*
X30675000Y-43290000D01*
X28515000Y-40130000D02*
X29975000Y-40130000D01*
X28515000Y-47750000D02*
X28515000Y-48680000D01*
X28515000Y-50910000D02*
X28515000Y-49980000D01*
X28515000Y-50910000D02*
X30675000Y-50910000D01*
X28515000Y-47750000D02*
X29975000Y-47750000D01*
X22840000Y-57570000D02*
X22840000Y-58500000D01*
X22840000Y-60730000D02*
X22840000Y-59800000D01*
X22840000Y-60730000D02*
X25000000Y-60730000D01*
X22840000Y-57570000D02*
X24300000Y-57570000D01*
X33585000Y-58265000D02*
X32585000Y-58265000D01*
X32585000Y-56905000D02*
X33585000Y-56905000D01*
X56500000Y-51050000D02*
X57500000Y-51050000D01*
X57500000Y-52410000D02*
X56500000Y-52410000D01*
X55990000Y-29780000D02*
X55990000Y-30780000D01*
X54630000Y-30780000D02*
X54630000Y-29780000D01*
X42475000Y-56995000D02*
X41475000Y-56995000D01*
X41475000Y-55635000D02*
X42475000Y-55635000D01*
X26870000Y-35950000D02*
X27870000Y-35950000D01*
X27870000Y-37310000D02*
X26870000Y-37310000D01*
X49730000Y-31505000D02*
X50730000Y-31505000D01*
X50730000Y-32865000D02*
X49730000Y-32865000D01*
X31045000Y-32230000D02*
X30045000Y-32230000D01*
X30045000Y-30870000D02*
X31045000Y-30870000D01*
X26690000Y-39035000D02*
X26690000Y-38035000D01*
X28050000Y-38035000D02*
X28050000Y-39035000D01*
X31850000Y-32575000D02*
X33050000Y-32575000D01*
X33050000Y-34335000D02*
X31850000Y-34335000D01*
X53209040Y-37116960D02*
X52209040Y-37116960D01*
X52209040Y-35756960D02*
X53209040Y-35756960D01*
X26870000Y-39760000D02*
X27870000Y-39760000D01*
X27870000Y-41120000D02*
X26870000Y-41120000D01*
X26120000Y-35325000D02*
X26120000Y-34325000D01*
X27480000Y-34325000D02*
X27480000Y-35325000D01*
X30680000Y-34680000D02*
X31680000Y-34680000D01*
X31680000Y-36040000D02*
X30680000Y-36040000D01*
X26690000Y-42845000D02*
X26690000Y-41845000D01*
X28050000Y-41845000D02*
X28050000Y-42845000D01*
X26870000Y-47380000D02*
X27870000Y-47380000D01*
X27870000Y-48740000D02*
X26870000Y-48740000D01*
X27370000Y-51110000D02*
X27370000Y-50110000D01*
X28730000Y-50110000D02*
X28730000Y-51110000D01*
X25310000Y-55920000D02*
X25310000Y-56920000D01*
X23950000Y-56920000D02*
X23950000Y-55920000D01*
X21130000Y-61360000D02*
X21130000Y-60360000D01*
X22490000Y-60360000D02*
X22490000Y-61360000D01*
X34645000Y-28320000D02*
X27545000Y-28320000D01*
X34645000Y-24620000D02*
X27545000Y-24620000D01*
X34645000Y-28320000D02*
X34645000Y-24620000D01*
X38030000Y-55465000D02*
X37030000Y-55465000D01*
X37030000Y-57165000D02*
X38030000Y-57165000D01*
X18825000Y-24620000D02*
X25925000Y-24620000D01*
X18825000Y-28320000D02*
X25925000Y-28320000D01*
X18825000Y-24620000D02*
X18825000Y-28320000D01*
X23425000Y-22445000D02*
X22425000Y-22445000D01*
X22425000Y-24145000D02*
X23425000Y-24145000D01*
X33325000Y-44525000D02*
X33325000Y-43525000D01*
X31625000Y-43525000D02*
X31625000Y-44525000D01*
X38800000Y-53500000D02*
X37800000Y-53500000D01*
X37800000Y-55200000D02*
X38800000Y-55200000D01*
X47190000Y-34940000D02*
X48190000Y-34940000D01*
X48190000Y-33240000D02*
X47190000Y-33240000D01*
X36125000Y-33810000D02*
X35125000Y-33810000D01*
X35125000Y-35510000D02*
X36125000Y-35510000D01*
X54950000Y-54200000D02*
X53950000Y-54200000D01*
X53950000Y-55900000D02*
X54950000Y-55900000D01*
X31970000Y-57100000D02*
X36270000Y-57100000D01*
X36270000Y-57100000D02*
X36270000Y-55100000D01*
X36270000Y-55100000D02*
X31970000Y-55100000D01*
D13*
X14170000Y-50768000D02*
X18420000Y-50768000D01*
X18420000Y-50768000D02*
X18420000Y-53308000D01*
X18420000Y-53308000D02*
X18420000Y-54578000D01*
X18420000Y-54578000D02*
X14170000Y-54578000D01*
X14170000Y-54578000D02*
X14170000Y-50768000D01*
X18615000Y-50768000D02*
X22865000Y-50768000D01*
X22865000Y-50768000D02*
X22865000Y-53308000D01*
X22865000Y-53308000D02*
X22865000Y-54578000D01*
X22865000Y-54578000D02*
X18615000Y-54578000D01*
X18615000Y-54578000D02*
X18615000Y-50768000D01*
X50468000Y-73858000D02*
X50468000Y-69608000D01*
X50468000Y-69608000D02*
X53008000Y-69608000D01*
X53008000Y-69608000D02*
X54278000Y-69608000D01*
X54278000Y-69608000D02*
X54278000Y-73858000D01*
X54278000Y-73858000D02*
X50468000Y-73858000D01*
X50468000Y-69413000D02*
X50468000Y-65163000D01*
X50468000Y-65163000D02*
X53008000Y-65163000D01*
X53008000Y-65163000D02*
X54278000Y-65163000D01*
X54278000Y-65163000D02*
X54278000Y-69413000D01*
X54278000Y-69413000D02*
X50468000Y-69413000D01*
X33450000Y-73858000D02*
X33450000Y-69608000D01*
X33450000Y-69608000D02*
X35990000Y-69608000D01*
X35990000Y-69608000D02*
X37260000Y-69608000D01*
X37260000Y-69608000D02*
X37260000Y-73858000D01*
X37260000Y-73858000D02*
X33450000Y-73858000D01*
X33450000Y-69413000D02*
X33450000Y-65163000D01*
X33450000Y-65163000D02*
X35990000Y-65163000D01*
X35990000Y-65163000D02*
X37260000Y-65163000D01*
X37260000Y-65163000D02*
X37260000Y-69413000D01*
X37260000Y-69413000D02*
X33450000Y-69413000D01*
X54278000Y-14724000D02*
X54278000Y-18974000D01*
X54278000Y-18974000D02*
X51738000Y-18974000D01*
X51738000Y-18974000D02*
X50468000Y-18974000D01*
X50468000Y-18974000D02*
X50468000Y-14724000D01*
X50468000Y-14724000D02*
X54278000Y-14724000D01*
X54278000Y-19169000D02*
X54278000Y-23419000D01*
X54278000Y-23419000D02*
X51738000Y-23419000D01*
X51738000Y-23419000D02*
X50468000Y-23419000D01*
X50468000Y-23419000D02*
X50468000Y-19169000D01*
X50468000Y-19169000D02*
X54278000Y-19169000D01*
X73431000Y-37560000D02*
X69181000Y-37560000D01*
X69181000Y-37560000D02*
X69181000Y-35020000D01*
X69181000Y-35020000D02*
X69181000Y-33750000D01*
X69181000Y-33750000D02*
X73431000Y-33750000D01*
X73431000Y-33750000D02*
X73431000Y-37560000D01*
X68859000Y-54705000D02*
X64609000Y-54705000D01*
X64609000Y-54705000D02*
X64609000Y-52165000D01*
X64609000Y-52165000D02*
X64609000Y-50895000D01*
X64609000Y-50895000D02*
X68859000Y-50895000D01*
X68859000Y-50895000D02*
X68859000Y-54705000D01*
X37260000Y-19169000D02*
X37260000Y-23419000D01*
X37260000Y-23419000D02*
X34720000Y-23419000D01*
X34720000Y-23419000D02*
X33450000Y-23419000D01*
X33450000Y-23419000D02*
X33450000Y-19169000D01*
X33450000Y-19169000D02*
X37260000Y-19169000D01*
X14424000Y-33877000D02*
X18674000Y-33877000D01*
X18674000Y-33877000D02*
X18674000Y-36417000D01*
X18674000Y-36417000D02*
X18674000Y-37687000D01*
X18674000Y-37687000D02*
X14424000Y-37687000D01*
X14424000Y-37687000D02*
X14424000Y-33877000D01*
X18869000Y-33877000D02*
X23119000Y-33877000D01*
X23119000Y-33877000D02*
X23119000Y-36417000D01*
X23119000Y-36417000D02*
X23119000Y-37687000D01*
X23119000Y-37687000D02*
X18869000Y-37687000D01*
X18869000Y-37687000D02*
X18869000Y-33877000D01*
D12*
X54085000Y-57720000D02*
X54085000Y-58720000D01*
X52725000Y-58720000D02*
X52725000Y-57720000D01*
X54540000Y-56995000D02*
X53540000Y-56995000D01*
X53540000Y-55635000D02*
X54540000Y-55635000D01*
X45910000Y-62865000D02*
X39310000Y-62865000D01*
X45910000Y-57385000D02*
X39310000Y-57385000D01*
X50410000Y-62925000D02*
X50410000Y-57325000D01*
D13*
X19524580Y-58512460D02*
X15274580Y-58512460D01*
X15274580Y-58512460D02*
X15274580Y-55972460D01*
X15274580Y-55972460D02*
X15274580Y-54702460D01*
X15274580Y-54702460D02*
X19524580Y-54702460D01*
X19524580Y-54702460D02*
X19524580Y-58512460D01*
X73304000Y-54705000D02*
X69054000Y-54705000D01*
X69054000Y-54705000D02*
X69054000Y-52165000D01*
X69054000Y-52165000D02*
X69054000Y-50895000D01*
X69054000Y-50895000D02*
X73304000Y-50895000D01*
X73304000Y-50895000D02*
X73304000Y-54705000D01*
X51992000Y-69056000D02*
X51992000Y-63976000D01*
X51992000Y-63976000D02*
X54532000Y-63976000D01*
X54532000Y-63976000D02*
X54532000Y-74136000D01*
X54532000Y-74136000D02*
X51992000Y-74136000D01*
X51992000Y-74136000D02*
X51992000Y-69056000D01*
X35723300Y-19792700D02*
X35723300Y-24872700D01*
X35723300Y-24872700D02*
X33183300Y-24872700D01*
X33183300Y-24872700D02*
X33183300Y-14712700D01*
X33183300Y-14712700D02*
X35723300Y-14712700D01*
X35723300Y-14712700D02*
X35723300Y-19792700D01*
D12*
X34240900Y-37912100D02*
X36900900Y-37912100D01*
X34240900Y-37852100D02*
X34240900Y-37912100D01*
X36900900Y-37852100D02*
X36900900Y-37912100D01*
X34240900Y-37852100D02*
X36900900Y-37852100D01*
X34240900Y-36582100D02*
X34240900Y-35252100D01*
X34240900Y-35252100D02*
X35570900Y-35252100D01*
X29785600Y-29984000D02*
X29785600Y-27864000D01*
X29725600Y-29984000D02*
X29785600Y-29984000D01*
X29725600Y-27864000D02*
X29785600Y-27864000D01*
X29725600Y-29984000D02*
X29725600Y-27864000D01*
X28725600Y-29984000D02*
X27665600Y-29984000D01*
X27665600Y-29984000D02*
X27665600Y-28924000D01*
X58234500Y-60629100D02*
X60354500Y-60629100D01*
X58234500Y-60569100D02*
X58234500Y-60629100D01*
X60354500Y-60569100D02*
X60354500Y-60629100D01*
X58234500Y-60569100D02*
X60354500Y-60569100D01*
X58234500Y-59569100D02*
X58234500Y-58509100D01*
X58234500Y-58509100D02*
X59294500Y-58509100D01*
D13*
X16101800Y-34234000D02*
X16101800Y-29984000D01*
X16101800Y-29984000D02*
X18641800Y-29984000D01*
X18641800Y-29984000D02*
X19911800Y-29984000D01*
X19911800Y-29984000D02*
X19911800Y-34234000D01*
X19911800Y-34234000D02*
X16101800Y-34234000D01*
X33300000Y-72270000D02*
X29050000Y-72270000D01*
X29050000Y-72270000D02*
X29050000Y-69730000D01*
X29050000Y-69730000D02*
X29050000Y-68460000D01*
X29050000Y-68460000D02*
X33300000Y-68460000D01*
X33300000Y-68460000D02*
X33300000Y-72270000D01*
X45460520Y-55070760D02*
X41210520Y-55070760D01*
X41210520Y-55070760D02*
X41210520Y-52530760D01*
X41210520Y-52530760D02*
X41210520Y-51260760D01*
X41210520Y-51260760D02*
X45460520Y-51260760D01*
X45460520Y-51260760D02*
X45460520Y-55070760D01*
X54863600Y-44646600D02*
X50613600Y-44646600D01*
X50613600Y-44646600D02*
X50613600Y-42106600D01*
X50613600Y-42106600D02*
X50613600Y-40836600D01*
X50613600Y-40836600D02*
X54863600Y-40836600D01*
X54863600Y-40836600D02*
X54863600Y-44646600D01*
X50828680Y-52141000D02*
X50828680Y-47891000D01*
X50828680Y-47891000D02*
X53368680Y-47891000D01*
X53368680Y-47891000D02*
X54638680Y-47891000D01*
X54638680Y-47891000D02*
X54638680Y-52141000D01*
X54638680Y-52141000D02*
X50828680Y-52141000D01*
D12*
X56967840Y-23347120D02*
X59187840Y-23347120D01*
X56967840Y-31087120D02*
X59187840Y-31087120D01*
X59187840Y-23357120D02*
X59187840Y-24727120D01*
X56967840Y-23457120D02*
X55137840Y-23457120D01*
X56967840Y-23347120D02*
X56967840Y-23457120D01*
X59187840Y-30977120D02*
X59187840Y-31087120D01*
X59187840Y-25897120D02*
X59187840Y-27267120D01*
X59187840Y-28437120D02*
X59187840Y-29807120D01*
X56967840Y-24627120D02*
X56967840Y-25997120D01*
X56967840Y-27167120D02*
X56967840Y-28537120D01*
X56967840Y-29707120D02*
X56967840Y-31077120D01*
D14*
X35154141Y-34905269D02*
X35154141Y-33903969D01*
X36203122Y-34809907D02*
X36155441Y-34857588D01*
X36012398Y-34905269D01*
X35917036Y-34905269D01*
X35773994Y-34857588D01*
X35678632Y-34762226D01*
X35630951Y-34666864D01*
X35583270Y-34476140D01*
X35583270Y-34333098D01*
X35630951Y-34142374D01*
X35678632Y-34047012D01*
X35773994Y-33951650D01*
X35917036Y-33903969D01*
X36012398Y-33903969D01*
X36155441Y-33951650D01*
X36203122Y-33999331D01*
X36536889Y-33903969D02*
X37156741Y-33903969D01*
X36822975Y-34285417D01*
X36966017Y-34285417D01*
X37061379Y-34333098D01*
X37109060Y-34380779D01*
X37156741Y-34476140D01*
X37156741Y-34714545D01*
X37109060Y-34809907D01*
X37061379Y-34857588D01*
X36966017Y-34905269D01*
X36679932Y-34905269D01*
X36584570Y-34857588D01*
X36536889Y-34809907D01*
X31225421Y-54264345D02*
X31702692Y-54264345D01*
X31129966Y-54550708D02*
X31464056Y-53548438D01*
X31798146Y-54550708D01*
X31989055Y-53548438D02*
X32561781Y-53548438D01*
X32275418Y-54550708D02*
X32275418Y-53548438D01*
X32895871Y-54550708D02*
X32895871Y-53548438D01*
X33229961Y-54264345D01*
X33564051Y-53548438D01*
X33564051Y-54550708D01*
X34041322Y-54025709D02*
X34375412Y-54025709D01*
X34518593Y-54550708D02*
X34041322Y-54550708D01*
X34041322Y-53548438D01*
X34518593Y-53548438D01*
X35473136Y-53596165D02*
X35377682Y-53548438D01*
X35234501Y-53548438D01*
X35091319Y-53596165D01*
X34995865Y-53691619D01*
X34948138Y-53787074D01*
X34900411Y-53977982D01*
X34900411Y-54121164D01*
X34948138Y-54312072D01*
X34995865Y-54407526D01*
X35091319Y-54502981D01*
X35234501Y-54550708D01*
X35329955Y-54550708D01*
X35473136Y-54502981D01*
X35520863Y-54455254D01*
X35520863Y-54121164D01*
X35329955Y-54121164D01*
X35902681Y-54264345D02*
X36379952Y-54264345D01*
X35807226Y-54550708D02*
X36141316Y-53548438D01*
X36475406Y-54550708D01*
X36761770Y-53643892D02*
X36809497Y-53596165D01*
X36904951Y-53548438D01*
X37143587Y-53548438D01*
X37239041Y-53596165D01*
X37286768Y-53643892D01*
X37334495Y-53739346D01*
X37334495Y-53834801D01*
X37286768Y-53977982D01*
X36714042Y-54550708D01*
X37334495Y-54550708D01*
X38241311Y-53548438D02*
X37764040Y-53548438D01*
X37716313Y-54025709D01*
X37764040Y-53977982D01*
X37859494Y-53930255D01*
X38098130Y-53930255D01*
X38193584Y-53977982D01*
X38241311Y-54025709D01*
X38289038Y-54121164D01*
X38289038Y-54359799D01*
X38241311Y-54455254D01*
X38193584Y-54502981D01*
X38098130Y-54550708D01*
X37859494Y-54550708D01*
X37764040Y-54502981D01*
X37716313Y-54455254D01*
X39148127Y-53548438D02*
X38957218Y-53548438D01*
X38861764Y-53596165D01*
X38814037Y-53643892D01*
X38718583Y-53787074D01*
X38670856Y-53977982D01*
X38670856Y-54359799D01*
X38718583Y-54455254D01*
X38766310Y-54502981D01*
X38861764Y-54550708D01*
X39052673Y-54550708D01*
X39148127Y-54502981D01*
X39195854Y-54455254D01*
X39243581Y-54359799D01*
X39243581Y-54121164D01*
X39195854Y-54025709D01*
X39148127Y-53977982D01*
X39052673Y-53930255D01*
X38861764Y-53930255D01*
X38766310Y-53977982D01*
X38718583Y-54025709D01*
X38670856Y-54121164D01*
X39864034Y-53548438D02*
X39959489Y-53548438D01*
X40054943Y-53596165D01*
X40102670Y-53643892D01*
X40150397Y-53739346D01*
X40198124Y-53930255D01*
X40198124Y-54168891D01*
X40150397Y-54359799D01*
X40102670Y-54455254D01*
X40054943Y-54502981D01*
X39959489Y-54550708D01*
X39864034Y-54550708D01*
X39768580Y-54502981D01*
X39720853Y-54455254D01*
X39673126Y-54359799D01*
X39625399Y-54168891D01*
X39625399Y-53930255D01*
X39673126Y-53739346D01*
X39720853Y-53643892D01*
X39768580Y-53596165D01*
X39864034Y-53548438D01*
X40627669Y-54168891D02*
X41391303Y-54168891D01*
X41820848Y-54264345D02*
X42298119Y-54264345D01*
X41725393Y-54550708D02*
X42059483Y-53548438D01*
X42393573Y-54550708D01*
D13*
X57032381Y-68721190D02*
X56032381Y-68721190D01*
X56937143Y-67673571D02*
X56984762Y-67721190D01*
X57032381Y-67864047D01*
X57032381Y-67959285D01*
X56984762Y-68102143D01*
X56889524Y-68197381D01*
X56794286Y-68245000D01*
X56603810Y-68292619D01*
X56460952Y-68292619D01*
X56270476Y-68245000D01*
X56175238Y-68197381D01*
X56080000Y-68102143D01*
X56032381Y-67959285D01*
X56032381Y-67864047D01*
X56080000Y-67721190D01*
X56127619Y-67673571D01*
X56127619Y-67292619D02*
X56080000Y-67245000D01*
X56032381Y-67149762D01*
X56032381Y-66911666D01*
X56080000Y-66816428D01*
X56127619Y-66768809D01*
X56222857Y-66721190D01*
X56318095Y-66721190D01*
X56460952Y-66768809D01*
X57032381Y-67340238D01*
X57032381Y-66721190D01*
X57048334Y-59037143D02*
X57000715Y-59084762D01*
X56857858Y-59132381D01*
X56762620Y-59132381D01*
X56619762Y-59084762D01*
X56524524Y-58989524D01*
X56476905Y-58894286D01*
X56429286Y-58703810D01*
X56429286Y-58560952D01*
X56476905Y-58370476D01*
X56524524Y-58275238D01*
X56619762Y-58180000D01*
X56762620Y-58132381D01*
X56857858Y-58132381D01*
X57000715Y-58180000D01*
X57048334Y-58227619D01*
X57953096Y-58132381D02*
X57476905Y-58132381D01*
X57429286Y-58608571D01*
X57476905Y-58560952D01*
X57572143Y-58513333D01*
X57810239Y-58513333D01*
X57905477Y-58560952D01*
X57953096Y-58608571D01*
X58000715Y-58703810D01*
X58000715Y-58941905D01*
X57953096Y-59037143D01*
X57905477Y-59084762D01*
X57810239Y-59132381D01*
X57572143Y-59132381D01*
X57476905Y-59084762D01*
X57429286Y-59037143D01*
X64668334Y-65737143D02*
X64620715Y-65784762D01*
X64477858Y-65832381D01*
X64382620Y-65832381D01*
X64239762Y-65784762D01*
X64144524Y-65689524D01*
X64096905Y-65594286D01*
X64049286Y-65403810D01*
X64049286Y-65260952D01*
X64096905Y-65070476D01*
X64144524Y-64975238D01*
X64239762Y-64880000D01*
X64382620Y-64832381D01*
X64477858Y-64832381D01*
X64620715Y-64880000D01*
X64668334Y-64927619D01*
X65239762Y-65260952D02*
X65144524Y-65213333D01*
X65096905Y-65165714D01*
X65049286Y-65070476D01*
X65049286Y-65022857D01*
X65096905Y-64927619D01*
X65144524Y-64880000D01*
X65239762Y-64832381D01*
X65430239Y-64832381D01*
X65525477Y-64880000D01*
X65573096Y-64927619D01*
X65620715Y-65022857D01*
X65620715Y-65070476D01*
X65573096Y-65165714D01*
X65525477Y-65213333D01*
X65430239Y-65260952D01*
X65239762Y-65260952D01*
X65144524Y-65308571D01*
X65096905Y-65356190D01*
X65049286Y-65451429D01*
X65049286Y-65641905D01*
X65096905Y-65737143D01*
X65144524Y-65784762D01*
X65239762Y-65832381D01*
X65430239Y-65832381D01*
X65525477Y-65784762D01*
X65573096Y-65737143D01*
X65620715Y-65641905D01*
X65620715Y-65451429D01*
X65573096Y-65356190D01*
X65525477Y-65308571D01*
X65430239Y-65260952D01*
X63398334Y-65332143D02*
X63350715Y-65379762D01*
X63207858Y-65427381D01*
X63112620Y-65427381D01*
X62969762Y-65379762D01*
X62874524Y-65284524D01*
X62826905Y-65189286D01*
X62779286Y-64998810D01*
X62779286Y-64855952D01*
X62826905Y-64665476D01*
X62874524Y-64570238D01*
X62969762Y-64475000D01*
X63112620Y-64427381D01*
X63207858Y-64427381D01*
X63350715Y-64475000D01*
X63398334Y-64522619D01*
X63874524Y-65427381D02*
X64065000Y-65427381D01*
X64160239Y-65379762D01*
X64207858Y-65332143D01*
X64303096Y-65189286D01*
X64350715Y-64998810D01*
X64350715Y-64617857D01*
X64303096Y-64522619D01*
X64255477Y-64475000D01*
X64160239Y-64427381D01*
X63969762Y-64427381D01*
X63874524Y-64475000D01*
X63826905Y-64522619D01*
X63779286Y-64617857D01*
X63779286Y-64855952D01*
X63826905Y-64951190D01*
X63874524Y-64998810D01*
X63969762Y-65046429D01*
X64160239Y-65046429D01*
X64255477Y-64998810D01*
X64303096Y-64951190D01*
X64350715Y-64855952D01*
X64938214Y-57862481D02*
X64938214Y-56862481D01*
X65319167Y-56862481D01*
X65414405Y-56910100D01*
X65462024Y-56957719D01*
X65509643Y-57052957D01*
X65509643Y-57195814D01*
X65462024Y-57291052D01*
X65414405Y-57338671D01*
X65319167Y-57386290D01*
X64938214Y-57386290D01*
X66462024Y-57862481D02*
X65890595Y-57862481D01*
X66176309Y-57862481D02*
X66176309Y-56862481D01*
X66081071Y-57005338D01*
X65985833Y-57100576D01*
X65890595Y-57148195D01*
X66795357Y-56862481D02*
X67462024Y-56862481D01*
X67033452Y-57862481D01*
X69352734Y-57916600D02*
X69352734Y-56916600D01*
X69733687Y-56916600D01*
X69828925Y-56964219D01*
X69876544Y-57011838D01*
X69924163Y-57107076D01*
X69924163Y-57249933D01*
X69876544Y-57345171D01*
X69828925Y-57392790D01*
X69733687Y-57440409D01*
X69352734Y-57440409D01*
X70305115Y-57011838D02*
X70352734Y-56964219D01*
X70447972Y-56916600D01*
X70686068Y-56916600D01*
X70781306Y-56964219D01*
X70828925Y-57011838D01*
X70876544Y-57107076D01*
X70876544Y-57202314D01*
X70828925Y-57345171D01*
X70257496Y-57916600D01*
X70876544Y-57916600D01*
X71495591Y-56916600D02*
X71590830Y-56916600D01*
X71686068Y-56964219D01*
X71733687Y-57011838D01*
X71781306Y-57107076D01*
X71828925Y-57297552D01*
X71828925Y-57535648D01*
X71781306Y-57726124D01*
X71733687Y-57821362D01*
X71686068Y-57868981D01*
X71590830Y-57916600D01*
X71495591Y-57916600D01*
X71400353Y-57868981D01*
X71352734Y-57821362D01*
X71305115Y-57726124D01*
X71257496Y-57535648D01*
X71257496Y-57297552D01*
X71305115Y-57107076D01*
X71352734Y-57011838D01*
X71400353Y-56964219D01*
X71495591Y-56916600D01*
X55620477Y-52522381D02*
X55620477Y-53236667D01*
X55572857Y-53379524D01*
X55477619Y-53474762D01*
X55334762Y-53522381D01*
X55239524Y-53522381D01*
X56620477Y-53522381D02*
X56049048Y-53522381D01*
X56334762Y-53522381D02*
X56334762Y-52522381D01*
X56239524Y-52665238D01*
X56144286Y-52760476D01*
X56049048Y-52808095D01*
X57239524Y-52522381D02*
X57334763Y-52522381D01*
X57430001Y-52570000D01*
X57477620Y-52617619D01*
X57525239Y-52712857D01*
X57572858Y-52903333D01*
X57572858Y-53141429D01*
X57525239Y-53331905D01*
X57477620Y-53427143D01*
X57430001Y-53474762D01*
X57334763Y-53522381D01*
X57239524Y-53522381D01*
X57144286Y-53474762D01*
X57096667Y-53427143D01*
X57049048Y-53331905D01*
X57001429Y-53141429D01*
X57001429Y-52903333D01*
X57049048Y-52712857D01*
X57096667Y-52617619D01*
X57144286Y-52570000D01*
X57239524Y-52522381D01*
X54105714Y-45072381D02*
X54105714Y-44072381D01*
X54486667Y-44072381D01*
X54581905Y-44120000D01*
X54629524Y-44167619D01*
X54677143Y-44262857D01*
X54677143Y-44405714D01*
X54629524Y-44500952D01*
X54581905Y-44548571D01*
X54486667Y-44596190D01*
X54105714Y-44596190D01*
X55629524Y-45072381D02*
X55058095Y-45072381D01*
X55343809Y-45072381D02*
X55343809Y-44072381D01*
X55248571Y-44215238D01*
X55153333Y-44310476D01*
X55058095Y-44358095D01*
X56200952Y-44500952D02*
X56105714Y-44453333D01*
X56058095Y-44405714D01*
X56010476Y-44310476D01*
X56010476Y-44262857D01*
X56058095Y-44167619D01*
X56105714Y-44120000D01*
X56200952Y-44072381D01*
X56391429Y-44072381D01*
X56486667Y-44120000D01*
X56534286Y-44167619D01*
X56581905Y-44262857D01*
X56581905Y-44310476D01*
X56534286Y-44405714D01*
X56486667Y-44453333D01*
X56391429Y-44500952D01*
X56200952Y-44500952D01*
X56105714Y-44548571D01*
X56058095Y-44596190D01*
X56010476Y-44691429D01*
X56010476Y-44881905D01*
X56058095Y-44977143D01*
X56105714Y-45024762D01*
X56200952Y-45072381D01*
X56391429Y-45072381D01*
X56486667Y-45024762D01*
X56534286Y-44977143D01*
X56581905Y-44881905D01*
X56581905Y-44691429D01*
X56534286Y-44596190D01*
X56486667Y-44548571D01*
X56391429Y-44500952D01*
X65001714Y-35472381D02*
X65001714Y-34472381D01*
X65382667Y-34472381D01*
X65477905Y-34520000D01*
X65525524Y-34567619D01*
X65573143Y-34662857D01*
X65573143Y-34805714D01*
X65525524Y-34900952D01*
X65477905Y-34948571D01*
X65382667Y-34996190D01*
X65001714Y-34996190D01*
X66525524Y-35472381D02*
X65954095Y-35472381D01*
X66239809Y-35472381D02*
X66239809Y-34472381D01*
X66144571Y-34615238D01*
X66049333Y-34710476D01*
X65954095Y-34758095D01*
X67144571Y-34472381D02*
X67239810Y-34472381D01*
X67335048Y-34520000D01*
X67382667Y-34567619D01*
X67430286Y-34662857D01*
X67477905Y-34853333D01*
X67477905Y-35091429D01*
X67430286Y-35281905D01*
X67382667Y-35377143D01*
X67335048Y-35424762D01*
X67239810Y-35472381D01*
X67144571Y-35472381D01*
X67049333Y-35424762D01*
X67001714Y-35377143D01*
X66954095Y-35281905D01*
X66906476Y-35091429D01*
X66906476Y-34853333D01*
X66954095Y-34662857D01*
X67001714Y-34567619D01*
X67049333Y-34520000D01*
X67144571Y-34472381D01*
X54315341Y-21894723D02*
X55029627Y-21894723D01*
X55172484Y-21942343D01*
X55267722Y-22037581D01*
X55315341Y-22180438D01*
X55315341Y-22275676D01*
X55315341Y-20894723D02*
X55315341Y-21466152D01*
X55315341Y-21180438D02*
X54315341Y-21180438D01*
X54458198Y-21275676D01*
X54553436Y-21370914D01*
X54601055Y-21466152D01*
X55315341Y-19942342D02*
X55315341Y-20513771D01*
X55315341Y-20228057D02*
X54315341Y-20228057D01*
X54458198Y-20323295D01*
X54553436Y-20418533D01*
X54601055Y-20513771D01*
X35172381Y-18708286D02*
X34172381Y-18708286D01*
X34172381Y-18327333D01*
X34220000Y-18232095D01*
X34267619Y-18184476D01*
X34362857Y-18136857D01*
X34505714Y-18136857D01*
X34600952Y-18184476D01*
X34648571Y-18232095D01*
X34696190Y-18327333D01*
X34696190Y-18708286D01*
X35172381Y-17184476D02*
X35172381Y-17755905D01*
X35172381Y-17470191D02*
X34172381Y-17470191D01*
X34315238Y-17565429D01*
X34410476Y-17660667D01*
X34458095Y-17755905D01*
X34172381Y-16851143D02*
X34172381Y-16232095D01*
X34553333Y-16565429D01*
X34553333Y-16422571D01*
X34600952Y-16327333D01*
X34648571Y-16279714D01*
X34743810Y-16232095D01*
X34981905Y-16232095D01*
X35077143Y-16279714D01*
X35124762Y-16327333D01*
X35172381Y-16422571D01*
X35172381Y-16708286D01*
X35124762Y-16803524D01*
X35077143Y-16851143D01*
X39903334Y-55402143D02*
X39855715Y-55449762D01*
X39712858Y-55497381D01*
X39617620Y-55497381D01*
X39474762Y-55449762D01*
X39379524Y-55354524D01*
X39331905Y-55259286D01*
X39284286Y-55068810D01*
X39284286Y-54925952D01*
X39331905Y-54735476D01*
X39379524Y-54640238D01*
X39474762Y-54545000D01*
X39617620Y-54497381D01*
X39712858Y-54497381D01*
X39855715Y-54545000D01*
X39903334Y-54592619D01*
X40760477Y-54497381D02*
X40570000Y-54497381D01*
X40474762Y-54545000D01*
X40427143Y-54592619D01*
X40331905Y-54735476D01*
X40284286Y-54925952D01*
X40284286Y-55306905D01*
X40331905Y-55402143D01*
X40379524Y-55449762D01*
X40474762Y-55497381D01*
X40665239Y-55497381D01*
X40760477Y-55449762D01*
X40808096Y-55402143D01*
X40855715Y-55306905D01*
X40855715Y-55068810D01*
X40808096Y-54973571D01*
X40760477Y-54925952D01*
X40665239Y-54878333D01*
X40474762Y-54878333D01*
X40379524Y-54925952D01*
X40331905Y-54973571D01*
X40284286Y-55068810D01*
X43713334Y-57942143D02*
X43665715Y-57989762D01*
X43522858Y-58037381D01*
X43427620Y-58037381D01*
X43284762Y-57989762D01*
X43189524Y-57894524D01*
X43141905Y-57799286D01*
X43094286Y-57608810D01*
X43094286Y-57465952D01*
X43141905Y-57275476D01*
X43189524Y-57180238D01*
X43284762Y-57085000D01*
X43427620Y-57037381D01*
X43522858Y-57037381D01*
X43665715Y-57085000D01*
X43713334Y-57132619D01*
X44046667Y-57037381D02*
X44713334Y-57037381D01*
X44284762Y-58037381D01*
X31632381Y-21731190D02*
X30632381Y-21731190D01*
X31537143Y-20683571D02*
X31584762Y-20731190D01*
X31632381Y-20874047D01*
X31632381Y-20969285D01*
X31584762Y-21112143D01*
X31489524Y-21207381D01*
X31394286Y-21255000D01*
X31203810Y-21302619D01*
X31060952Y-21302619D01*
X30870476Y-21255000D01*
X30775238Y-21207381D01*
X30680000Y-21112143D01*
X30632381Y-20969285D01*
X30632381Y-20874047D01*
X30680000Y-20731190D01*
X30727619Y-20683571D01*
X31632381Y-19731190D02*
X31632381Y-20302619D01*
X31632381Y-20016905D02*
X30632381Y-20016905D01*
X30775238Y-20112143D01*
X30870476Y-20207381D01*
X30918095Y-20302619D01*
X27671667Y-63137381D02*
X27671667Y-63851667D01*
X27624047Y-63994524D01*
X27528809Y-64089762D01*
X27385952Y-64137381D01*
X27290714Y-64137381D01*
X28290714Y-63565952D02*
X28195476Y-63518333D01*
X28147857Y-63470714D01*
X28100238Y-63375476D01*
X28100238Y-63327857D01*
X28147857Y-63232619D01*
X28195476Y-63185000D01*
X28290714Y-63137381D01*
X28481191Y-63137381D01*
X28576429Y-63185000D01*
X28624048Y-63232619D01*
X28671667Y-63327857D01*
X28671667Y-63375476D01*
X28624048Y-63470714D01*
X28576429Y-63518333D01*
X28481191Y-63565952D01*
X28290714Y-63565952D01*
X28195476Y-63613571D01*
X28147857Y-63661190D01*
X28100238Y-63756429D01*
X28100238Y-63946905D01*
X28147857Y-64042143D01*
X28195476Y-64089762D01*
X28290714Y-64137381D01*
X28481191Y-64137381D01*
X28576429Y-64089762D01*
X28624048Y-64042143D01*
X28671667Y-63946905D01*
X28671667Y-63756429D01*
X28624048Y-63661190D01*
X28576429Y-63613571D01*
X28481191Y-63565952D01*
X29179762Y-40947619D02*
X29084524Y-40900000D01*
X28989286Y-40804762D01*
X28846429Y-40661905D01*
X28751190Y-40614286D01*
X28655952Y-40614286D01*
X28703571Y-40852381D02*
X28608333Y-40804762D01*
X28513095Y-40709524D01*
X28465476Y-40519048D01*
X28465476Y-40185714D01*
X28513095Y-39995238D01*
X28608333Y-39900000D01*
X28703571Y-39852381D01*
X28894048Y-39852381D01*
X28989286Y-39900000D01*
X29084524Y-39995238D01*
X29132143Y-40185714D01*
X29132143Y-40519048D01*
X29084524Y-40709524D01*
X28989286Y-40804762D01*
X28894048Y-40852381D01*
X28703571Y-40852381D01*
X30084524Y-40852381D02*
X29513095Y-40852381D01*
X29798809Y-40852381D02*
X29798809Y-39852381D01*
X29703571Y-39995238D01*
X29608333Y-40090476D01*
X29513095Y-40138095D01*
X52039762Y-37137619D02*
X51944524Y-37090000D01*
X51849286Y-36994762D01*
X51706429Y-36851905D01*
X51611190Y-36804286D01*
X51515952Y-36804286D01*
X51563571Y-37042381D02*
X51468333Y-36994762D01*
X51373095Y-36899524D01*
X51325476Y-36709048D01*
X51325476Y-36375714D01*
X51373095Y-36185238D01*
X51468333Y-36090000D01*
X51563571Y-36042381D01*
X51754048Y-36042381D01*
X51849286Y-36090000D01*
X51944524Y-36185238D01*
X51992143Y-36375714D01*
X51992143Y-36709048D01*
X51944524Y-36899524D01*
X51849286Y-36994762D01*
X51754048Y-37042381D01*
X51563571Y-37042381D01*
X52373095Y-36137619D02*
X52420714Y-36090000D01*
X52515952Y-36042381D01*
X52754048Y-36042381D01*
X52849286Y-36090000D01*
X52896905Y-36137619D01*
X52944524Y-36232857D01*
X52944524Y-36328095D01*
X52896905Y-36470952D01*
X52325476Y-37042381D01*
X52944524Y-37042381D01*
X28544762Y-37137619D02*
X28449524Y-37090000D01*
X28354286Y-36994762D01*
X28211429Y-36851905D01*
X28116190Y-36804286D01*
X28020952Y-36804286D01*
X28068571Y-37042381D02*
X27973333Y-36994762D01*
X27878095Y-36899524D01*
X27830476Y-36709048D01*
X27830476Y-36375714D01*
X27878095Y-36185238D01*
X27973333Y-36090000D01*
X28068571Y-36042381D01*
X28259048Y-36042381D01*
X28354286Y-36090000D01*
X28449524Y-36185238D01*
X28497143Y-36375714D01*
X28497143Y-36709048D01*
X28449524Y-36899524D01*
X28354286Y-36994762D01*
X28259048Y-37042381D01*
X28068571Y-37042381D01*
X28830476Y-36042381D02*
X29449524Y-36042381D01*
X29116190Y-36423333D01*
X29259048Y-36423333D01*
X29354286Y-36470952D01*
X29401905Y-36518571D01*
X29449524Y-36613810D01*
X29449524Y-36851905D01*
X29401905Y-36947143D01*
X29354286Y-36994762D01*
X29259048Y-37042381D01*
X28973333Y-37042381D01*
X28878095Y-36994762D01*
X28830476Y-36947143D01*
X29179762Y-44757619D02*
X29084524Y-44710000D01*
X28989286Y-44614762D01*
X28846429Y-44471905D01*
X28751190Y-44424286D01*
X28655952Y-44424286D01*
X28703571Y-44662381D02*
X28608333Y-44614762D01*
X28513095Y-44519524D01*
X28465476Y-44329048D01*
X28465476Y-43995714D01*
X28513095Y-43805238D01*
X28608333Y-43710000D01*
X28703571Y-43662381D01*
X28894048Y-43662381D01*
X28989286Y-43710000D01*
X29084524Y-43805238D01*
X29132143Y-43995714D01*
X29132143Y-44329048D01*
X29084524Y-44519524D01*
X28989286Y-44614762D01*
X28894048Y-44662381D01*
X28703571Y-44662381D01*
X29989286Y-43995714D02*
X29989286Y-44662381D01*
X29751190Y-43614762D02*
X29513095Y-44329048D01*
X30132143Y-44329048D01*
X29179762Y-52377619D02*
X29084524Y-52330000D01*
X28989286Y-52234762D01*
X28846429Y-52091905D01*
X28751190Y-52044286D01*
X28655952Y-52044286D01*
X28703571Y-52282381D02*
X28608333Y-52234762D01*
X28513095Y-52139524D01*
X28465476Y-51949048D01*
X28465476Y-51615714D01*
X28513095Y-51425238D01*
X28608333Y-51330000D01*
X28703571Y-51282381D01*
X28894048Y-51282381D01*
X28989286Y-51330000D01*
X29084524Y-51425238D01*
X29132143Y-51615714D01*
X29132143Y-51949048D01*
X29084524Y-52139524D01*
X28989286Y-52234762D01*
X28894048Y-52282381D01*
X28703571Y-52282381D01*
X30036905Y-51282381D02*
X29560714Y-51282381D01*
X29513095Y-51758571D01*
X29560714Y-51710952D01*
X29655952Y-51663333D01*
X29894048Y-51663333D01*
X29989286Y-51710952D01*
X30036905Y-51758571D01*
X30084524Y-51853810D01*
X30084524Y-52091905D01*
X30036905Y-52187143D01*
X29989286Y-52234762D01*
X29894048Y-52282381D01*
X29655952Y-52282381D01*
X29560714Y-52234762D01*
X29513095Y-52187143D01*
X23504762Y-62197619D02*
X23409524Y-62150000D01*
X23314286Y-62054762D01*
X23171429Y-61911905D01*
X23076190Y-61864286D01*
X22980952Y-61864286D01*
X23028571Y-62102381D02*
X22933333Y-62054762D01*
X22838095Y-61959524D01*
X22790476Y-61769048D01*
X22790476Y-61435714D01*
X22838095Y-61245238D01*
X22933333Y-61150000D01*
X23028571Y-61102381D01*
X23219048Y-61102381D01*
X23314286Y-61150000D01*
X23409524Y-61245238D01*
X23457143Y-61435714D01*
X23457143Y-61769048D01*
X23409524Y-61959524D01*
X23314286Y-62054762D01*
X23219048Y-62102381D01*
X23028571Y-62102381D01*
X24314286Y-61102381D02*
X24123809Y-61102381D01*
X24028571Y-61150000D01*
X23980952Y-61197619D01*
X23885714Y-61340476D01*
X23838095Y-61530952D01*
X23838095Y-61911905D01*
X23885714Y-62007143D01*
X23933333Y-62054762D01*
X24028571Y-62102381D01*
X24219048Y-62102381D01*
X24314286Y-62054762D01*
X24361905Y-62007143D01*
X24409524Y-61911905D01*
X24409524Y-61673810D01*
X24361905Y-61578571D01*
X24314286Y-61530952D01*
X24219048Y-61483333D01*
X24028571Y-61483333D01*
X23933333Y-61530952D01*
X23885714Y-61578571D01*
X23838095Y-61673810D01*
X32918334Y-56587381D02*
X32585000Y-56111190D01*
X32346905Y-56587381D02*
X32346905Y-55587381D01*
X32727858Y-55587381D01*
X32823096Y-55635000D01*
X32870715Y-55682619D01*
X32918334Y-55777857D01*
X32918334Y-55920714D01*
X32870715Y-56015952D01*
X32823096Y-56063571D01*
X32727858Y-56111190D01*
X32346905Y-56111190D01*
X33870715Y-56587381D02*
X33299286Y-56587381D01*
X33585000Y-56587381D02*
X33585000Y-55587381D01*
X33489762Y-55730238D01*
X33394524Y-55825476D01*
X33299286Y-55873095D01*
X56833334Y-53632381D02*
X56500000Y-53156190D01*
X56261905Y-53632381D02*
X56261905Y-52632381D01*
X56642858Y-52632381D01*
X56738096Y-52680000D01*
X56785715Y-52727619D01*
X56833334Y-52822857D01*
X56833334Y-52965714D01*
X56785715Y-53060952D01*
X56738096Y-53108571D01*
X56642858Y-53156190D01*
X56261905Y-53156190D01*
X57214286Y-52727619D02*
X57261905Y-52680000D01*
X57357143Y-52632381D01*
X57595239Y-52632381D01*
X57690477Y-52680000D01*
X57738096Y-52727619D01*
X57785715Y-52822857D01*
X57785715Y-52918095D01*
X57738096Y-53060952D01*
X57166667Y-53632381D01*
X57785715Y-53632381D01*
X54312381Y-30446666D02*
X53836190Y-30780000D01*
X54312381Y-31018095D02*
X53312381Y-31018095D01*
X53312381Y-30637142D01*
X53360000Y-30541904D01*
X53407619Y-30494285D01*
X53502857Y-30446666D01*
X53645714Y-30446666D01*
X53740952Y-30494285D01*
X53788571Y-30541904D01*
X53836190Y-30637142D01*
X53836190Y-31018095D01*
X53312381Y-30113333D02*
X53312381Y-29494285D01*
X53693333Y-29827619D01*
X53693333Y-29684761D01*
X53740952Y-29589523D01*
X53788571Y-29541904D01*
X53883810Y-29494285D01*
X54121905Y-29494285D01*
X54217143Y-29541904D01*
X54264762Y-29589523D01*
X54312381Y-29684761D01*
X54312381Y-29970476D01*
X54264762Y-30065714D01*
X54217143Y-30113333D01*
X41808334Y-55317381D02*
X41475000Y-54841190D01*
X41236905Y-55317381D02*
X41236905Y-54317381D01*
X41617858Y-54317381D01*
X41713096Y-54365000D01*
X41760715Y-54412619D01*
X41808334Y-54507857D01*
X41808334Y-54650714D01*
X41760715Y-54745952D01*
X41713096Y-54793571D01*
X41617858Y-54841190D01*
X41236905Y-54841190D01*
X42665477Y-54650714D02*
X42665477Y-55317381D01*
X42427381Y-54269762D02*
X42189286Y-54984048D01*
X42808334Y-54984048D01*
X26727143Y-38532381D02*
X26393809Y-38056190D01*
X26155714Y-38532381D02*
X26155714Y-37532381D01*
X26536667Y-37532381D01*
X26631905Y-37580000D01*
X26679524Y-37627619D01*
X26727143Y-37722857D01*
X26727143Y-37865714D01*
X26679524Y-37960952D01*
X26631905Y-38008571D01*
X26536667Y-38056190D01*
X26155714Y-38056190D01*
X27679524Y-38532381D02*
X27108095Y-38532381D01*
X27393809Y-38532381D02*
X27393809Y-37532381D01*
X27298571Y-37675238D01*
X27203333Y-37770476D01*
X27108095Y-37818095D01*
X28155714Y-38532381D02*
X28346190Y-38532381D01*
X28441429Y-38484762D01*
X28489048Y-38437143D01*
X28584286Y-38294286D01*
X28631905Y-38103810D01*
X28631905Y-37722857D01*
X28584286Y-37627619D01*
X28536667Y-37580000D01*
X28441429Y-37532381D01*
X28250952Y-37532381D01*
X28155714Y-37580000D01*
X28108095Y-37627619D01*
X28060476Y-37722857D01*
X28060476Y-37960952D01*
X28108095Y-38056190D01*
X28155714Y-38103810D01*
X28250952Y-38151429D01*
X28441429Y-38151429D01*
X28536667Y-38103810D01*
X28584286Y-38056190D01*
X28631905Y-37960952D01*
X49587143Y-34087381D02*
X49253809Y-33611190D01*
X49015714Y-34087381D02*
X49015714Y-33087381D01*
X49396667Y-33087381D01*
X49491905Y-33135000D01*
X49539524Y-33182619D01*
X49587143Y-33277857D01*
X49587143Y-33420714D01*
X49539524Y-33515952D01*
X49491905Y-33563571D01*
X49396667Y-33611190D01*
X49015714Y-33611190D01*
X49968095Y-33182619D02*
X50015714Y-33135000D01*
X50110952Y-33087381D01*
X50349048Y-33087381D01*
X50444286Y-33135000D01*
X50491905Y-33182619D01*
X50539524Y-33277857D01*
X50539524Y-33373095D01*
X50491905Y-33515952D01*
X49920476Y-34087381D01*
X50539524Y-34087381D01*
X51158571Y-33087381D02*
X51253810Y-33087381D01*
X51349048Y-33135000D01*
X51396667Y-33182619D01*
X51444286Y-33277857D01*
X51491905Y-33468333D01*
X51491905Y-33706429D01*
X51444286Y-33896905D01*
X51396667Y-33992143D01*
X51349048Y-34039762D01*
X51253810Y-34087381D01*
X51158571Y-34087381D01*
X51063333Y-34039762D01*
X51015714Y-33992143D01*
X50968095Y-33896905D01*
X50920476Y-33706429D01*
X50920476Y-33468333D01*
X50968095Y-33277857D01*
X51015714Y-33182619D01*
X51063333Y-33135000D01*
X51158571Y-33087381D01*
X29902143Y-30552381D02*
X29568809Y-30076190D01*
X29330714Y-30552381D02*
X29330714Y-29552381D01*
X29711667Y-29552381D01*
X29806905Y-29600000D01*
X29854524Y-29647619D01*
X29902143Y-29742857D01*
X29902143Y-29885714D01*
X29854524Y-29980952D01*
X29806905Y-30028571D01*
X29711667Y-30076190D01*
X29330714Y-30076190D01*
X30283095Y-29647619D02*
X30330714Y-29600000D01*
X30425952Y-29552381D01*
X30664048Y-29552381D01*
X30759286Y-29600000D01*
X30806905Y-29647619D01*
X30854524Y-29742857D01*
X30854524Y-29838095D01*
X30806905Y-29980952D01*
X30235476Y-30552381D01*
X30854524Y-30552381D01*
X31806905Y-30552381D02*
X31235476Y-30552381D01*
X31521190Y-30552381D02*
X31521190Y-29552381D01*
X31425952Y-29695238D01*
X31330714Y-29790476D01*
X31235476Y-29838095D01*
X29272381Y-39177857D02*
X28796190Y-39511191D01*
X29272381Y-39749286D02*
X28272381Y-39749286D01*
X28272381Y-39368333D01*
X28320000Y-39273095D01*
X28367619Y-39225476D01*
X28462857Y-39177857D01*
X28605714Y-39177857D01*
X28700952Y-39225476D01*
X28748571Y-39273095D01*
X28796190Y-39368333D01*
X28796190Y-39749286D01*
X28367619Y-38796905D02*
X28320000Y-38749286D01*
X28272381Y-38654048D01*
X28272381Y-38415952D01*
X28320000Y-38320714D01*
X28367619Y-38273095D01*
X28462857Y-38225476D01*
X28558095Y-38225476D01*
X28700952Y-38273095D01*
X29272381Y-38844524D01*
X29272381Y-38225476D01*
X28367619Y-37844524D02*
X28320000Y-37796905D01*
X28272381Y-37701667D01*
X28272381Y-37463571D01*
X28320000Y-37368333D01*
X28367619Y-37320714D01*
X28462857Y-37273095D01*
X28558095Y-37273095D01*
X28700952Y-37320714D01*
X29272381Y-37892143D01*
X29272381Y-37273095D01*
X31807143Y-35557381D02*
X31473809Y-35081190D01*
X31235714Y-35557381D02*
X31235714Y-34557381D01*
X31616667Y-34557381D01*
X31711905Y-34605000D01*
X31759524Y-34652619D01*
X31807143Y-34747857D01*
X31807143Y-34890714D01*
X31759524Y-34985952D01*
X31711905Y-35033571D01*
X31616667Y-35081190D01*
X31235714Y-35081190D01*
X32188095Y-34652619D02*
X32235714Y-34605000D01*
X32330952Y-34557381D01*
X32569048Y-34557381D01*
X32664286Y-34605000D01*
X32711905Y-34652619D01*
X32759524Y-34747857D01*
X32759524Y-34843095D01*
X32711905Y-34985952D01*
X32140476Y-35557381D01*
X32759524Y-35557381D01*
X33092857Y-34557381D02*
X33711905Y-34557381D01*
X33378571Y-34938333D01*
X33521429Y-34938333D01*
X33616667Y-34985952D01*
X33664286Y-35033571D01*
X33711905Y-35128810D01*
X33711905Y-35366905D01*
X33664286Y-35462143D01*
X33616667Y-35509762D01*
X33521429Y-35557381D01*
X33235714Y-35557381D01*
X33140476Y-35509762D01*
X33092857Y-35462143D01*
X52066183Y-35439341D02*
X51732849Y-34963150D01*
X51494754Y-35439341D02*
X51494754Y-34439341D01*
X51875707Y-34439341D01*
X51970945Y-34486960D01*
X52018564Y-34534579D01*
X52066183Y-34629817D01*
X52066183Y-34772674D01*
X52018564Y-34867912D01*
X51970945Y-34915531D01*
X51875707Y-34963150D01*
X51494754Y-34963150D01*
X52447135Y-34534579D02*
X52494754Y-34486960D01*
X52589992Y-34439341D01*
X52828088Y-34439341D01*
X52923326Y-34486960D01*
X52970945Y-34534579D01*
X53018564Y-34629817D01*
X53018564Y-34725055D01*
X52970945Y-34867912D01*
X52399516Y-35439341D01*
X53018564Y-35439341D01*
X53875707Y-34772674D02*
X53875707Y-35439341D01*
X53637611Y-34391722D02*
X53399516Y-35106008D01*
X54018564Y-35106008D01*
X26727143Y-42342381D02*
X26393809Y-41866190D01*
X26155714Y-42342381D02*
X26155714Y-41342381D01*
X26536667Y-41342381D01*
X26631905Y-41390000D01*
X26679524Y-41437619D01*
X26727143Y-41532857D01*
X26727143Y-41675714D01*
X26679524Y-41770952D01*
X26631905Y-41818571D01*
X26536667Y-41866190D01*
X26155714Y-41866190D01*
X27108095Y-41437619D02*
X27155714Y-41390000D01*
X27250952Y-41342381D01*
X27489048Y-41342381D01*
X27584286Y-41390000D01*
X27631905Y-41437619D01*
X27679524Y-41532857D01*
X27679524Y-41628095D01*
X27631905Y-41770952D01*
X27060476Y-42342381D01*
X27679524Y-42342381D01*
X28584286Y-41342381D02*
X28108095Y-41342381D01*
X28060476Y-41818571D01*
X28108095Y-41770952D01*
X28203333Y-41723333D01*
X28441429Y-41723333D01*
X28536667Y-41770952D01*
X28584286Y-41818571D01*
X28631905Y-41913810D01*
X28631905Y-42151905D01*
X28584286Y-42247143D01*
X28536667Y-42294762D01*
X28441429Y-42342381D01*
X28203333Y-42342381D01*
X28108095Y-42294762D01*
X28060476Y-42247143D01*
X28702381Y-35467857D02*
X28226190Y-35801191D01*
X28702381Y-36039286D02*
X27702381Y-36039286D01*
X27702381Y-35658333D01*
X27750000Y-35563095D01*
X27797619Y-35515476D01*
X27892857Y-35467857D01*
X28035714Y-35467857D01*
X28130952Y-35515476D01*
X28178571Y-35563095D01*
X28226190Y-35658333D01*
X28226190Y-36039286D01*
X27797619Y-35086905D02*
X27750000Y-35039286D01*
X27702381Y-34944048D01*
X27702381Y-34705952D01*
X27750000Y-34610714D01*
X27797619Y-34563095D01*
X27892857Y-34515476D01*
X27988095Y-34515476D01*
X28130952Y-34563095D01*
X28702381Y-35134524D01*
X28702381Y-34515476D01*
X27702381Y-33658333D02*
X27702381Y-33848810D01*
X27750000Y-33944048D01*
X27797619Y-33991667D01*
X27940476Y-34086905D01*
X28130952Y-34134524D01*
X28511905Y-34134524D01*
X28607143Y-34086905D01*
X28654762Y-34039286D01*
X28702381Y-33944048D01*
X28702381Y-33753571D01*
X28654762Y-33658333D01*
X28607143Y-33610714D01*
X28511905Y-33563095D01*
X28273810Y-33563095D01*
X28178571Y-33610714D01*
X28130952Y-33658333D01*
X28083333Y-33753571D01*
X28083333Y-33944048D01*
X28130952Y-34039286D01*
X28178571Y-34086905D01*
X28273810Y-34134524D01*
X30537143Y-37262381D02*
X30203809Y-36786190D01*
X29965714Y-37262381D02*
X29965714Y-36262381D01*
X30346667Y-36262381D01*
X30441905Y-36310000D01*
X30489524Y-36357619D01*
X30537143Y-36452857D01*
X30537143Y-36595714D01*
X30489524Y-36690952D01*
X30441905Y-36738571D01*
X30346667Y-36786190D01*
X29965714Y-36786190D01*
X30918095Y-36357619D02*
X30965714Y-36310000D01*
X31060952Y-36262381D01*
X31299048Y-36262381D01*
X31394286Y-36310000D01*
X31441905Y-36357619D01*
X31489524Y-36452857D01*
X31489524Y-36548095D01*
X31441905Y-36690952D01*
X30870476Y-37262381D01*
X31489524Y-37262381D01*
X31822857Y-36262381D02*
X32489524Y-36262381D01*
X32060952Y-37262381D01*
X29272381Y-42987857D02*
X28796190Y-43321191D01*
X29272381Y-43559286D02*
X28272381Y-43559286D01*
X28272381Y-43178333D01*
X28320000Y-43083095D01*
X28367619Y-43035476D01*
X28462857Y-42987857D01*
X28605714Y-42987857D01*
X28700952Y-43035476D01*
X28748571Y-43083095D01*
X28796190Y-43178333D01*
X28796190Y-43559286D01*
X28367619Y-42606905D02*
X28320000Y-42559286D01*
X28272381Y-42464048D01*
X28272381Y-42225952D01*
X28320000Y-42130714D01*
X28367619Y-42083095D01*
X28462857Y-42035476D01*
X28558095Y-42035476D01*
X28700952Y-42083095D01*
X29272381Y-42654524D01*
X29272381Y-42035476D01*
X28700952Y-41464048D02*
X28653333Y-41559286D01*
X28605714Y-41606905D01*
X28510476Y-41654524D01*
X28462857Y-41654524D01*
X28367619Y-41606905D01*
X28320000Y-41559286D01*
X28272381Y-41464048D01*
X28272381Y-41273571D01*
X28320000Y-41178333D01*
X28367619Y-41130714D01*
X28462857Y-41083095D01*
X28510476Y-41083095D01*
X28605714Y-41130714D01*
X28653333Y-41178333D01*
X28700952Y-41273571D01*
X28700952Y-41464048D01*
X28748571Y-41559286D01*
X28796190Y-41606905D01*
X28891429Y-41654524D01*
X29081905Y-41654524D01*
X29177143Y-41606905D01*
X29224762Y-41559286D01*
X29272381Y-41464048D01*
X29272381Y-41273571D01*
X29224762Y-41178333D01*
X29177143Y-41130714D01*
X29081905Y-41083095D01*
X28891429Y-41083095D01*
X28796190Y-41130714D01*
X28748571Y-41178333D01*
X28700952Y-41273571D01*
X26727143Y-49962381D02*
X26393809Y-49486190D01*
X26155714Y-49962381D02*
X26155714Y-48962381D01*
X26536667Y-48962381D01*
X26631905Y-49010000D01*
X26679524Y-49057619D01*
X26727143Y-49152857D01*
X26727143Y-49295714D01*
X26679524Y-49390952D01*
X26631905Y-49438571D01*
X26536667Y-49486190D01*
X26155714Y-49486190D01*
X27108095Y-49057619D02*
X27155714Y-49010000D01*
X27250952Y-48962381D01*
X27489048Y-48962381D01*
X27584286Y-49010000D01*
X27631905Y-49057619D01*
X27679524Y-49152857D01*
X27679524Y-49248095D01*
X27631905Y-49390952D01*
X27060476Y-49962381D01*
X27679524Y-49962381D01*
X28155714Y-49962381D02*
X28346190Y-49962381D01*
X28441429Y-49914762D01*
X28489048Y-49867143D01*
X28584286Y-49724286D01*
X28631905Y-49533810D01*
X28631905Y-49152857D01*
X28584286Y-49057619D01*
X28536667Y-49010000D01*
X28441429Y-48962381D01*
X28250952Y-48962381D01*
X28155714Y-49010000D01*
X28108095Y-49057619D01*
X28060476Y-49152857D01*
X28060476Y-49390952D01*
X28108095Y-49486190D01*
X28155714Y-49533810D01*
X28250952Y-49581429D01*
X28441429Y-49581429D01*
X28536667Y-49533810D01*
X28584286Y-49486190D01*
X28631905Y-49390952D01*
X29952381Y-51252857D02*
X29476190Y-51586191D01*
X29952381Y-51824286D02*
X28952381Y-51824286D01*
X28952381Y-51443333D01*
X29000000Y-51348095D01*
X29047619Y-51300476D01*
X29142857Y-51252857D01*
X29285714Y-51252857D01*
X29380952Y-51300476D01*
X29428571Y-51348095D01*
X29476190Y-51443333D01*
X29476190Y-51824286D01*
X28952381Y-50919524D02*
X28952381Y-50300476D01*
X29333333Y-50633810D01*
X29333333Y-50490952D01*
X29380952Y-50395714D01*
X29428571Y-50348095D01*
X29523810Y-50300476D01*
X29761905Y-50300476D01*
X29857143Y-50348095D01*
X29904762Y-50395714D01*
X29952381Y-50490952D01*
X29952381Y-50776667D01*
X29904762Y-50871905D01*
X29857143Y-50919524D01*
X28952381Y-49681429D02*
X28952381Y-49586190D01*
X29000000Y-49490952D01*
X29047619Y-49443333D01*
X29142857Y-49395714D01*
X29333333Y-49348095D01*
X29571429Y-49348095D01*
X29761905Y-49395714D01*
X29857143Y-49443333D01*
X29904762Y-49490952D01*
X29952381Y-49586190D01*
X29952381Y-49681429D01*
X29904762Y-49776667D01*
X29857143Y-49824286D01*
X29761905Y-49871905D01*
X29571429Y-49919524D01*
X29333333Y-49919524D01*
X29142857Y-49871905D01*
X29047619Y-49824286D01*
X29000000Y-49776667D01*
X28952381Y-49681429D01*
X23632381Y-57062857D02*
X23156190Y-57396191D01*
X23632381Y-57634286D02*
X22632381Y-57634286D01*
X22632381Y-57253333D01*
X22680000Y-57158095D01*
X22727619Y-57110476D01*
X22822857Y-57062857D01*
X22965714Y-57062857D01*
X23060952Y-57110476D01*
X23108571Y-57158095D01*
X23156190Y-57253333D01*
X23156190Y-57634286D01*
X22632381Y-56729524D02*
X22632381Y-56110476D01*
X23013333Y-56443810D01*
X23013333Y-56300952D01*
X23060952Y-56205714D01*
X23108571Y-56158095D01*
X23203810Y-56110476D01*
X23441905Y-56110476D01*
X23537143Y-56158095D01*
X23584762Y-56205714D01*
X23632381Y-56300952D01*
X23632381Y-56586667D01*
X23584762Y-56681905D01*
X23537143Y-56729524D01*
X23632381Y-55158095D02*
X23632381Y-55729524D01*
X23632381Y-55443810D02*
X22632381Y-55443810D01*
X22775238Y-55539048D01*
X22870476Y-55634286D01*
X22918095Y-55729524D01*
X23712381Y-61502857D02*
X23236190Y-61836191D01*
X23712381Y-62074286D02*
X22712381Y-62074286D01*
X22712381Y-61693333D01*
X22760000Y-61598095D01*
X22807619Y-61550476D01*
X22902857Y-61502857D01*
X23045714Y-61502857D01*
X23140952Y-61550476D01*
X23188571Y-61598095D01*
X23236190Y-61693333D01*
X23236190Y-62074286D01*
X22712381Y-61169524D02*
X22712381Y-60550476D01*
X23093333Y-60883810D01*
X23093333Y-60740952D01*
X23140952Y-60645714D01*
X23188571Y-60598095D01*
X23283810Y-60550476D01*
X23521905Y-60550476D01*
X23617143Y-60598095D01*
X23664762Y-60645714D01*
X23712381Y-60740952D01*
X23712381Y-61026667D01*
X23664762Y-61121905D01*
X23617143Y-61169524D01*
X22807619Y-60169524D02*
X22760000Y-60121905D01*
X22712381Y-60026667D01*
X22712381Y-59788571D01*
X22760000Y-59693333D01*
X22807619Y-59645714D01*
X22902857Y-59598095D01*
X22998095Y-59598095D01*
X23140952Y-59645714D01*
X23712381Y-60217143D01*
X23712381Y-59598095D01*
X30378334Y-30177143D02*
X30330715Y-30224762D01*
X30187858Y-30272381D01*
X30092620Y-30272381D01*
X29949762Y-30224762D01*
X29854524Y-30129524D01*
X29806905Y-30034286D01*
X29759286Y-29843810D01*
X29759286Y-29700952D01*
X29806905Y-29510476D01*
X29854524Y-29415238D01*
X29949762Y-29320000D01*
X30092620Y-29272381D01*
X30187858Y-29272381D01*
X30330715Y-29320000D01*
X30378334Y-29367619D01*
X31330715Y-30272381D02*
X30759286Y-30272381D01*
X31045000Y-30272381D02*
X31045000Y-29272381D01*
X30949762Y-29415238D01*
X30854524Y-29510476D01*
X30759286Y-29558095D01*
X37363334Y-55172143D02*
X37315715Y-55219762D01*
X37172858Y-55267381D01*
X37077620Y-55267381D01*
X36934762Y-55219762D01*
X36839524Y-55124524D01*
X36791905Y-55029286D01*
X36744286Y-54838810D01*
X36744286Y-54695952D01*
X36791905Y-54505476D01*
X36839524Y-54410238D01*
X36934762Y-54315000D01*
X37077620Y-54267381D01*
X37172858Y-54267381D01*
X37315715Y-54315000D01*
X37363334Y-54362619D01*
X37744286Y-54362619D02*
X37791905Y-54315000D01*
X37887143Y-54267381D01*
X38125239Y-54267381D01*
X38220477Y-54315000D01*
X38268096Y-54362619D01*
X38315715Y-54457857D01*
X38315715Y-54553095D01*
X38268096Y-54695952D01*
X37696667Y-55267381D01*
X38315715Y-55267381D01*
X22758334Y-23477143D02*
X22710715Y-23524762D01*
X22567858Y-23572381D01*
X22472620Y-23572381D01*
X22329762Y-23524762D01*
X22234524Y-23429524D01*
X22186905Y-23334286D01*
X22139286Y-23143810D01*
X22139286Y-23000952D01*
X22186905Y-22810476D01*
X22234524Y-22715238D01*
X22329762Y-22620000D01*
X22472620Y-22572381D01*
X22567858Y-22572381D01*
X22710715Y-22620000D01*
X22758334Y-22667619D01*
X23091667Y-22572381D02*
X23710715Y-22572381D01*
X23377381Y-22953333D01*
X23520239Y-22953333D01*
X23615477Y-23000952D01*
X23663096Y-23048571D01*
X23710715Y-23143810D01*
X23710715Y-23381905D01*
X23663096Y-23477143D01*
X23615477Y-23524762D01*
X23520239Y-23572381D01*
X23234524Y-23572381D01*
X23139286Y-23524762D01*
X23091667Y-23477143D01*
X22758334Y-22152143D02*
X22710715Y-22199762D01*
X22567858Y-22247381D01*
X22472620Y-22247381D01*
X22329762Y-22199762D01*
X22234524Y-22104524D01*
X22186905Y-22009286D01*
X22139286Y-21818810D01*
X22139286Y-21675952D01*
X22186905Y-21485476D01*
X22234524Y-21390238D01*
X22329762Y-21295000D01*
X22472620Y-21247381D01*
X22567858Y-21247381D01*
X22710715Y-21295000D01*
X22758334Y-21342619D01*
X23615477Y-21580714D02*
X23615477Y-22247381D01*
X23377381Y-21199762D02*
X23139286Y-21914048D01*
X23758334Y-21914048D01*
X34332143Y-44667857D02*
X34379762Y-44715476D01*
X34427381Y-44858333D01*
X34427381Y-44953571D01*
X34379762Y-45096429D01*
X34284524Y-45191667D01*
X34189286Y-45239286D01*
X33998810Y-45286905D01*
X33855952Y-45286905D01*
X33665476Y-45239286D01*
X33570238Y-45191667D01*
X33475000Y-45096429D01*
X33427381Y-44953571D01*
X33427381Y-44858333D01*
X33475000Y-44715476D01*
X33522619Y-44667857D01*
X34427381Y-43715476D02*
X34427381Y-44286905D01*
X34427381Y-44001191D02*
X33427381Y-44001191D01*
X33570238Y-44096429D01*
X33665476Y-44191667D01*
X33713095Y-44286905D01*
X33427381Y-43096429D02*
X33427381Y-43001190D01*
X33475000Y-42905952D01*
X33522619Y-42858333D01*
X33617857Y-42810714D01*
X33808333Y-42763095D01*
X34046429Y-42763095D01*
X34236905Y-42810714D01*
X34332143Y-42858333D01*
X34379762Y-42905952D01*
X34427381Y-43001190D01*
X34427381Y-43096429D01*
X34379762Y-43191667D01*
X34332143Y-43239286D01*
X34236905Y-43286905D01*
X34046429Y-43334524D01*
X33808333Y-43334524D01*
X33617857Y-43286905D01*
X33522619Y-43239286D01*
X33475000Y-43191667D01*
X33427381Y-43096429D01*
X37657143Y-53207143D02*
X37609524Y-53254762D01*
X37466667Y-53302381D01*
X37371429Y-53302381D01*
X37228571Y-53254762D01*
X37133333Y-53159524D01*
X37085714Y-53064286D01*
X37038095Y-52873810D01*
X37038095Y-52730952D01*
X37085714Y-52540476D01*
X37133333Y-52445238D01*
X37228571Y-52350000D01*
X37371429Y-52302381D01*
X37466667Y-52302381D01*
X37609524Y-52350000D01*
X37657143Y-52397619D01*
X38609524Y-53302381D02*
X38038095Y-53302381D01*
X38323809Y-53302381D02*
X38323809Y-52302381D01*
X38228571Y-52445238D01*
X38133333Y-52540476D01*
X38038095Y-52588095D01*
X39561905Y-53302381D02*
X38990476Y-53302381D01*
X39276190Y-53302381D02*
X39276190Y-52302381D01*
X39180952Y-52445238D01*
X39085714Y-52540476D01*
X38990476Y-52588095D01*
X47047143Y-35947143D02*
X46999524Y-35994762D01*
X46856667Y-36042381D01*
X46761429Y-36042381D01*
X46618571Y-35994762D01*
X46523333Y-35899524D01*
X46475714Y-35804286D01*
X46428095Y-35613810D01*
X46428095Y-35470952D01*
X46475714Y-35280476D01*
X46523333Y-35185238D01*
X46618571Y-35090000D01*
X46761429Y-35042381D01*
X46856667Y-35042381D01*
X46999524Y-35090000D01*
X47047143Y-35137619D01*
X47999524Y-36042381D02*
X47428095Y-36042381D01*
X47713809Y-36042381D02*
X47713809Y-35042381D01*
X47618571Y-35185238D01*
X47523333Y-35280476D01*
X47428095Y-35328095D01*
X48380476Y-35137619D02*
X48428095Y-35090000D01*
X48523333Y-35042381D01*
X48761429Y-35042381D01*
X48856667Y-35090000D01*
X48904286Y-35137619D01*
X48951905Y-35232857D01*
X48951905Y-35328095D01*
X48904286Y-35470952D01*
X48332857Y-36042381D01*
X48951905Y-36042381D01*
X34982143Y-33517143D02*
X34934524Y-33564762D01*
X34791667Y-33612381D01*
X34696429Y-33612381D01*
X34553571Y-33564762D01*
X34458333Y-33469524D01*
X34410714Y-33374286D01*
X34363095Y-33183810D01*
X34363095Y-33040952D01*
X34410714Y-32850476D01*
X34458333Y-32755238D01*
X34553571Y-32660000D01*
X34696429Y-32612381D01*
X34791667Y-32612381D01*
X34934524Y-32660000D01*
X34982143Y-32707619D01*
X35934524Y-33612381D02*
X35363095Y-33612381D01*
X35648809Y-33612381D02*
X35648809Y-32612381D01*
X35553571Y-32755238D01*
X35458333Y-32850476D01*
X35363095Y-32898095D01*
X36267857Y-32612381D02*
X36886905Y-32612381D01*
X36553571Y-32993333D01*
X36696429Y-32993333D01*
X36791667Y-33040952D01*
X36839286Y-33088571D01*
X36886905Y-33183810D01*
X36886905Y-33421905D01*
X36839286Y-33517143D01*
X36791667Y-33564762D01*
X36696429Y-33612381D01*
X36410714Y-33612381D01*
X36315476Y-33564762D01*
X36267857Y-33517143D01*
X53807143Y-53907143D02*
X53759524Y-53954762D01*
X53616667Y-54002381D01*
X53521429Y-54002381D01*
X53378571Y-53954762D01*
X53283333Y-53859524D01*
X53235714Y-53764286D01*
X53188095Y-53573810D01*
X53188095Y-53430952D01*
X53235714Y-53240476D01*
X53283333Y-53145238D01*
X53378571Y-53050000D01*
X53521429Y-53002381D01*
X53616667Y-53002381D01*
X53759524Y-53050000D01*
X53807143Y-53097619D01*
X54759524Y-54002381D02*
X54188095Y-54002381D01*
X54473809Y-54002381D02*
X54473809Y-53002381D01*
X54378571Y-53145238D01*
X54283333Y-53240476D01*
X54188095Y-53288095D01*
X55616667Y-53335714D02*
X55616667Y-54002381D01*
X55378571Y-52954762D02*
X55140476Y-53669048D01*
X55759524Y-53669048D01*
X32981905Y-58552381D02*
X32981905Y-57552381D01*
X33220000Y-57552381D01*
X33362858Y-57600000D01*
X33458096Y-57695238D01*
X33505715Y-57790476D01*
X33553334Y-57980952D01*
X33553334Y-58123810D01*
X33505715Y-58314286D01*
X33458096Y-58409524D01*
X33362858Y-58504762D01*
X33220000Y-58552381D01*
X32981905Y-58552381D01*
X34505715Y-58552381D02*
X33934286Y-58552381D01*
X34220000Y-58552381D02*
X34220000Y-57552381D01*
X34124762Y-57695238D01*
X34029524Y-57790476D01*
X33934286Y-57838095D01*
X16201905Y-53760381D02*
X16201905Y-52760381D01*
X16582858Y-52760381D01*
X16678096Y-52808000D01*
X16725715Y-52855619D01*
X16773334Y-52950857D01*
X16773334Y-53093714D01*
X16725715Y-53188952D01*
X16678096Y-53236571D01*
X16582858Y-53284190D01*
X16201905Y-53284190D01*
X17725715Y-53760381D02*
X17154286Y-53760381D01*
X17440000Y-53760381D02*
X17440000Y-52760381D01*
X17344762Y-52903238D01*
X17249524Y-52998476D01*
X17154286Y-53046095D01*
X20646905Y-53760381D02*
X20646905Y-52760381D01*
X21027858Y-52760381D01*
X21123096Y-52808000D01*
X21170715Y-52855619D01*
X21218334Y-52950857D01*
X21218334Y-53093714D01*
X21170715Y-53188952D01*
X21123096Y-53236571D01*
X21027858Y-53284190D01*
X20646905Y-53284190D01*
X21599286Y-52855619D02*
X21646905Y-52808000D01*
X21742143Y-52760381D01*
X21980239Y-52760381D01*
X22075477Y-52808000D01*
X22123096Y-52855619D01*
X22170715Y-52950857D01*
X22170715Y-53046095D01*
X22123096Y-53188952D01*
X21551667Y-53760381D01*
X22170715Y-53760381D01*
X53460381Y-71826095D02*
X52460381Y-71826095D01*
X52460381Y-71445142D01*
X52508000Y-71349904D01*
X52555619Y-71302285D01*
X52650857Y-71254666D01*
X52793714Y-71254666D01*
X52888952Y-71302285D01*
X52936571Y-71349904D01*
X52984190Y-71445142D01*
X52984190Y-71826095D01*
X52460381Y-70921333D02*
X52460381Y-70302285D01*
X52841333Y-70635619D01*
X52841333Y-70492761D01*
X52888952Y-70397523D01*
X52936571Y-70349904D01*
X53031810Y-70302285D01*
X53269905Y-70302285D01*
X53365143Y-70349904D01*
X53412762Y-70397523D01*
X53460381Y-70492761D01*
X53460381Y-70778476D01*
X53412762Y-70873714D01*
X53365143Y-70921333D01*
X53460381Y-67381095D02*
X52460381Y-67381095D01*
X52460381Y-67000142D01*
X52508000Y-66904904D01*
X52555619Y-66857285D01*
X52650857Y-66809666D01*
X52793714Y-66809666D01*
X52888952Y-66857285D01*
X52936571Y-66904904D01*
X52984190Y-67000142D01*
X52984190Y-67381095D01*
X52793714Y-65952523D02*
X53460381Y-65952523D01*
X52412762Y-66190619D02*
X53127048Y-66428714D01*
X53127048Y-65809666D01*
X36442381Y-71826095D02*
X35442381Y-71826095D01*
X35442381Y-71445142D01*
X35490000Y-71349904D01*
X35537619Y-71302285D01*
X35632857Y-71254666D01*
X35775714Y-71254666D01*
X35870952Y-71302285D01*
X35918571Y-71349904D01*
X35966190Y-71445142D01*
X35966190Y-71826095D01*
X35442381Y-70349904D02*
X35442381Y-70826095D01*
X35918571Y-70873714D01*
X35870952Y-70826095D01*
X35823333Y-70730857D01*
X35823333Y-70492761D01*
X35870952Y-70397523D01*
X35918571Y-70349904D01*
X36013810Y-70302285D01*
X36251905Y-70302285D01*
X36347143Y-70349904D01*
X36394762Y-70397523D01*
X36442381Y-70492761D01*
X36442381Y-70730857D01*
X36394762Y-70826095D01*
X36347143Y-70873714D01*
X36442381Y-67381095D02*
X35442381Y-67381095D01*
X35442381Y-67000142D01*
X35490000Y-66904904D01*
X35537619Y-66857285D01*
X35632857Y-66809666D01*
X35775714Y-66809666D01*
X35870952Y-66857285D01*
X35918571Y-66904904D01*
X35966190Y-67000142D01*
X35966190Y-67381095D01*
X35442381Y-65952523D02*
X35442381Y-66143000D01*
X35490000Y-66238238D01*
X35537619Y-66285857D01*
X35680476Y-66381095D01*
X35870952Y-66428714D01*
X36251905Y-66428714D01*
X36347143Y-66381095D01*
X36394762Y-66333476D01*
X36442381Y-66238238D01*
X36442381Y-66047761D01*
X36394762Y-65952523D01*
X36347143Y-65904904D01*
X36251905Y-65857285D01*
X36013810Y-65857285D01*
X35918571Y-65904904D01*
X35870952Y-65952523D01*
X35823333Y-66047761D01*
X35823333Y-66238238D01*
X35870952Y-66333476D01*
X35918571Y-66381095D01*
X36013810Y-66428714D01*
X52190381Y-18232095D02*
X51190381Y-18232095D01*
X51190381Y-17851142D01*
X51238000Y-17755904D01*
X51285619Y-17708285D01*
X51380857Y-17660666D01*
X51523714Y-17660666D01*
X51618952Y-17708285D01*
X51666571Y-17755904D01*
X51714190Y-17851142D01*
X51714190Y-18232095D01*
X51190381Y-17327333D02*
X51190381Y-16660666D01*
X52190381Y-17089238D01*
X52190381Y-22677095D02*
X51190381Y-22677095D01*
X51190381Y-22296142D01*
X51238000Y-22200904D01*
X51285619Y-22153285D01*
X51380857Y-22105666D01*
X51523714Y-22105666D01*
X51618952Y-22153285D01*
X51666571Y-22200904D01*
X51714190Y-22296142D01*
X51714190Y-22677095D01*
X51618952Y-21534238D02*
X51571333Y-21629476D01*
X51523714Y-21677095D01*
X51428476Y-21724714D01*
X51380857Y-21724714D01*
X51285619Y-21677095D01*
X51238000Y-21629476D01*
X51190381Y-21534238D01*
X51190381Y-21343761D01*
X51238000Y-21248523D01*
X51285619Y-21200904D01*
X51380857Y-21153285D01*
X51428476Y-21153285D01*
X51523714Y-21200904D01*
X51571333Y-21248523D01*
X51618952Y-21343761D01*
X51618952Y-21534238D01*
X51666571Y-21629476D01*
X51714190Y-21677095D01*
X51809429Y-21724714D01*
X51999905Y-21724714D01*
X52095143Y-21677095D01*
X52142762Y-21629476D01*
X52190381Y-21534238D01*
X52190381Y-21343761D01*
X52142762Y-21248523D01*
X52095143Y-21200904D01*
X51999905Y-21153285D01*
X51809429Y-21153285D01*
X51714190Y-21200904D01*
X51666571Y-21248523D01*
X51618952Y-21343761D01*
X69922905Y-35472381D02*
X69922905Y-34472381D01*
X70303858Y-34472381D01*
X70399096Y-34520000D01*
X70446715Y-34567619D01*
X70494334Y-34662857D01*
X70494334Y-34805714D01*
X70446715Y-34900952D01*
X70399096Y-34948571D01*
X70303858Y-34996190D01*
X69922905Y-34996190D01*
X70970524Y-35472381D02*
X71161000Y-35472381D01*
X71256239Y-35424762D01*
X71303858Y-35377143D01*
X71399096Y-35234286D01*
X71446715Y-35043810D01*
X71446715Y-34662857D01*
X71399096Y-34567619D01*
X71351477Y-34520000D01*
X71256239Y-34472381D01*
X71065762Y-34472381D01*
X70970524Y-34520000D01*
X70922905Y-34567619D01*
X70875286Y-34662857D01*
X70875286Y-34900952D01*
X70922905Y-34996190D01*
X70970524Y-35043810D01*
X71065762Y-35091429D01*
X71256239Y-35091429D01*
X71351477Y-35043810D01*
X71399096Y-34996190D01*
X71446715Y-34900952D01*
X64874714Y-52617381D02*
X64874714Y-51617381D01*
X65255667Y-51617381D01*
X65350905Y-51665000D01*
X65398524Y-51712619D01*
X65446143Y-51807857D01*
X65446143Y-51950714D01*
X65398524Y-52045952D01*
X65350905Y-52093571D01*
X65255667Y-52141190D01*
X64874714Y-52141190D01*
X66398524Y-52617381D02*
X65827095Y-52617381D01*
X66112809Y-52617381D02*
X66112809Y-51617381D01*
X66017571Y-51760238D01*
X65922333Y-51855476D01*
X65827095Y-51903095D01*
X66779476Y-51712619D02*
X66827095Y-51665000D01*
X66922333Y-51617381D01*
X67160429Y-51617381D01*
X67255667Y-51665000D01*
X67303286Y-51712619D01*
X67350905Y-51807857D01*
X67350905Y-51903095D01*
X67303286Y-52045952D01*
X66731857Y-52617381D01*
X67350905Y-52617381D01*
X35172381Y-23153286D02*
X34172381Y-23153286D01*
X34172381Y-22772333D01*
X34220000Y-22677095D01*
X34267619Y-22629476D01*
X34362857Y-22581857D01*
X34505714Y-22581857D01*
X34600952Y-22629476D01*
X34648571Y-22677095D01*
X34696190Y-22772333D01*
X34696190Y-23153286D01*
X35172381Y-21629476D02*
X35172381Y-22200905D01*
X35172381Y-21915191D02*
X34172381Y-21915191D01*
X34315238Y-22010429D01*
X34410476Y-22105667D01*
X34458095Y-22200905D01*
X34505714Y-20772333D02*
X35172381Y-20772333D01*
X34124762Y-21010429D02*
X34839048Y-21248524D01*
X34839048Y-20629476D01*
X15979714Y-36869381D02*
X15979714Y-35869381D01*
X16360667Y-35869381D01*
X16455905Y-35917000D01*
X16503524Y-35964619D01*
X16551143Y-36059857D01*
X16551143Y-36202714D01*
X16503524Y-36297952D01*
X16455905Y-36345571D01*
X16360667Y-36393190D01*
X15979714Y-36393190D01*
X17503524Y-36869381D02*
X16932095Y-36869381D01*
X17217809Y-36869381D02*
X17217809Y-35869381D01*
X17122571Y-36012238D01*
X17027333Y-36107476D01*
X16932095Y-36155095D01*
X18408286Y-35869381D02*
X17932095Y-35869381D01*
X17884476Y-36345571D01*
X17932095Y-36297952D01*
X18027333Y-36250333D01*
X18265429Y-36250333D01*
X18360667Y-36297952D01*
X18408286Y-36345571D01*
X18455905Y-36440810D01*
X18455905Y-36678905D01*
X18408286Y-36774143D01*
X18360667Y-36821762D01*
X18265429Y-36869381D01*
X18027333Y-36869381D01*
X17932095Y-36821762D01*
X17884476Y-36774143D01*
X20424714Y-36869381D02*
X20424714Y-35869381D01*
X20805667Y-35869381D01*
X20900905Y-35917000D01*
X20948524Y-35964619D01*
X20996143Y-36059857D01*
X20996143Y-36202714D01*
X20948524Y-36297952D01*
X20900905Y-36345571D01*
X20805667Y-36393190D01*
X20424714Y-36393190D01*
X21948524Y-36869381D02*
X21377095Y-36869381D01*
X21662809Y-36869381D02*
X21662809Y-35869381D01*
X21567571Y-36012238D01*
X21472333Y-36107476D01*
X21377095Y-36155095D01*
X22805667Y-35869381D02*
X22615190Y-35869381D01*
X22519952Y-35917000D01*
X22472333Y-35964619D01*
X22377095Y-36107476D01*
X22329476Y-36297952D01*
X22329476Y-36678905D01*
X22377095Y-36774143D01*
X22424714Y-36821762D01*
X22519952Y-36869381D01*
X22710429Y-36869381D01*
X22805667Y-36821762D01*
X22853286Y-36774143D01*
X22900905Y-36678905D01*
X22900905Y-36440810D01*
X22853286Y-36345571D01*
X22805667Y-36297952D01*
X22710429Y-36250333D01*
X22519952Y-36250333D01*
X22424714Y-36297952D01*
X22377095Y-36345571D01*
X22329476Y-36440810D01*
X52407381Y-58862857D02*
X51931190Y-59196191D01*
X52407381Y-59434286D02*
X51407381Y-59434286D01*
X51407381Y-59053333D01*
X51455000Y-58958095D01*
X51502619Y-58910476D01*
X51597857Y-58862857D01*
X51740714Y-58862857D01*
X51835952Y-58910476D01*
X51883571Y-58958095D01*
X51931190Y-59053333D01*
X51931190Y-59434286D01*
X51407381Y-58529524D02*
X51407381Y-57910476D01*
X51788333Y-58243810D01*
X51788333Y-58100952D01*
X51835952Y-58005714D01*
X51883571Y-57958095D01*
X51978810Y-57910476D01*
X52216905Y-57910476D01*
X52312143Y-57958095D01*
X52359762Y-58005714D01*
X52407381Y-58100952D01*
X52407381Y-58386667D01*
X52359762Y-58481905D01*
X52312143Y-58529524D01*
X51407381Y-57577143D02*
X51407381Y-56958095D01*
X51788333Y-57291429D01*
X51788333Y-57148571D01*
X51835952Y-57053333D01*
X51883571Y-57005714D01*
X51978810Y-56958095D01*
X52216905Y-56958095D01*
X52312143Y-57005714D01*
X52359762Y-57053333D01*
X52407381Y-57148571D01*
X52407381Y-57434286D01*
X52359762Y-57529524D01*
X52312143Y-57577143D01*
X53397143Y-55317381D02*
X53063809Y-54841190D01*
X52825714Y-55317381D02*
X52825714Y-54317381D01*
X53206667Y-54317381D01*
X53301905Y-54365000D01*
X53349524Y-54412619D01*
X53397143Y-54507857D01*
X53397143Y-54650714D01*
X53349524Y-54745952D01*
X53301905Y-54793571D01*
X53206667Y-54841190D01*
X52825714Y-54841190D01*
X53730476Y-54317381D02*
X54349524Y-54317381D01*
X54016190Y-54698333D01*
X54159048Y-54698333D01*
X54254286Y-54745952D01*
X54301905Y-54793571D01*
X54349524Y-54888810D01*
X54349524Y-55126905D01*
X54301905Y-55222143D01*
X54254286Y-55269762D01*
X54159048Y-55317381D01*
X53873333Y-55317381D01*
X53778095Y-55269762D01*
X53730476Y-55222143D01*
X55206667Y-54650714D02*
X55206667Y-55317381D01*
X54968571Y-54269762D02*
X54730476Y-54984048D01*
X55349524Y-54984048D01*
X41366667Y-27882381D02*
X41366667Y-28596667D01*
X41319047Y-28739524D01*
X41223809Y-28834762D01*
X41080952Y-28882381D01*
X40985714Y-28882381D01*
X41890476Y-28882381D02*
X42080952Y-28882381D01*
X42176191Y-28834762D01*
X42223810Y-28787143D01*
X42319048Y-28644286D01*
X42366667Y-28453810D01*
X42366667Y-28072857D01*
X42319048Y-27977619D01*
X42271429Y-27930000D01*
X42176191Y-27882381D01*
X41985714Y-27882381D01*
X41890476Y-27930000D01*
X41842857Y-27977619D01*
X41795238Y-28072857D01*
X41795238Y-28310952D01*
X41842857Y-28406190D01*
X41890476Y-28453810D01*
X41985714Y-28501429D01*
X42176191Y-28501429D01*
X42271429Y-28453810D01*
X42319048Y-28406190D01*
X42366667Y-28310952D01*
X39071429Y-62657143D02*
X39023810Y-62704762D01*
X38880953Y-62752381D01*
X38785715Y-62752381D01*
X38642857Y-62704762D01*
X38547619Y-62609524D01*
X38500000Y-62514286D01*
X38452381Y-62323810D01*
X38452381Y-62180952D01*
X38500000Y-61990476D01*
X38547619Y-61895238D01*
X38642857Y-61800000D01*
X38785715Y-61752381D01*
X38880953Y-61752381D01*
X39023810Y-61800000D01*
X39071429Y-61847619D01*
X39452381Y-62704762D02*
X39595238Y-62752381D01*
X39833334Y-62752381D01*
X39928572Y-62704762D01*
X39976191Y-62657143D01*
X40023810Y-62561905D01*
X40023810Y-62466667D01*
X39976191Y-62371429D01*
X39928572Y-62323810D01*
X39833334Y-62276190D01*
X39642857Y-62228571D01*
X39547619Y-62180952D01*
X39500000Y-62133333D01*
X39452381Y-62038095D01*
X39452381Y-61942857D01*
X39500000Y-61847619D01*
X39547619Y-61800000D01*
X39642857Y-61752381D01*
X39880953Y-61752381D01*
X40023810Y-61800000D01*
X40309524Y-61752381D02*
X40880953Y-61752381D01*
X40595238Y-62752381D02*
X40595238Y-61752381D01*
X41214286Y-62228571D02*
X41547620Y-62228571D01*
X41690477Y-62752381D02*
X41214286Y-62752381D01*
X41214286Y-61752381D01*
X41690477Y-61752381D01*
X42690477Y-62657143D02*
X42642858Y-62704762D01*
X42500001Y-62752381D01*
X42404763Y-62752381D01*
X42261905Y-62704762D01*
X42166667Y-62609524D01*
X42119048Y-62514286D01*
X42071429Y-62323810D01*
X42071429Y-62180952D01*
X42119048Y-61990476D01*
X42166667Y-61895238D01*
X42261905Y-61800000D01*
X42404763Y-61752381D01*
X42500001Y-61752381D01*
X42642858Y-61800000D01*
X42690477Y-61847619D01*
X43119048Y-62228571D02*
X43452382Y-62228571D01*
X43595239Y-62752381D02*
X43119048Y-62752381D01*
X43119048Y-61752381D01*
X43595239Y-61752381D01*
X44547620Y-62752381D02*
X43976191Y-62752381D01*
X44261905Y-62752381D02*
X44261905Y-61752381D01*
X44166667Y-61895238D01*
X44071429Y-61990476D01*
X43976191Y-62038095D01*
X15540294Y-56424841D02*
X15540294Y-55424841D01*
X15921247Y-55424841D01*
X16016485Y-55472460D01*
X16064104Y-55520079D01*
X16111723Y-55615317D01*
X16111723Y-55758174D01*
X16064104Y-55853412D01*
X16016485Y-55901031D01*
X15921247Y-55948650D01*
X15540294Y-55948650D01*
X16492675Y-55520079D02*
X16540294Y-55472460D01*
X16635532Y-55424841D01*
X16873628Y-55424841D01*
X16968866Y-55472460D01*
X17016485Y-55520079D01*
X17064104Y-55615317D01*
X17064104Y-55710555D01*
X17016485Y-55853412D01*
X16445056Y-56424841D01*
X17064104Y-56424841D01*
X18016485Y-56424841D02*
X17445056Y-56424841D01*
X17730770Y-56424841D02*
X17730770Y-55424841D01*
X17635532Y-55567698D01*
X17540294Y-55662936D01*
X17445056Y-55710555D01*
X69319714Y-52617381D02*
X69319714Y-51617381D01*
X69700667Y-51617381D01*
X69795905Y-51665000D01*
X69843524Y-51712619D01*
X69891143Y-51807857D01*
X69891143Y-51950714D01*
X69843524Y-52045952D01*
X69795905Y-52093571D01*
X69700667Y-52141190D01*
X69319714Y-52141190D01*
X70843524Y-52617381D02*
X70272095Y-52617381D01*
X70557809Y-52617381D02*
X70557809Y-51617381D01*
X70462571Y-51760238D01*
X70367333Y-51855476D01*
X70272095Y-51903095D01*
X71795905Y-52617381D02*
X71224476Y-52617381D01*
X71510190Y-52617381D02*
X71510190Y-51617381D01*
X71414952Y-51760238D01*
X71319714Y-51855476D01*
X71224476Y-51903095D01*
X55698762Y-67341333D02*
X55746381Y-67198476D01*
X55746381Y-66960380D01*
X55698762Y-66865142D01*
X55651143Y-66817523D01*
X55555905Y-66769904D01*
X55460667Y-66769904D01*
X55365429Y-66817523D01*
X55317810Y-66865142D01*
X55270190Y-66960380D01*
X55222571Y-67150857D01*
X55174952Y-67246095D01*
X55127333Y-67293714D01*
X55032095Y-67341333D01*
X54936857Y-67341333D01*
X54841619Y-67293714D01*
X54794000Y-67246095D01*
X54746381Y-67150857D01*
X54746381Y-66912761D01*
X54794000Y-66769904D01*
X54746381Y-66436571D02*
X55746381Y-66198476D01*
X55032095Y-66007999D01*
X55746381Y-65817523D01*
X54746381Y-65579428D01*
X55746381Y-64674666D02*
X55746381Y-65246095D01*
X55746381Y-64960381D02*
X54746381Y-64960381D01*
X54889238Y-65055619D01*
X54984476Y-65150857D01*
X55032095Y-65246095D01*
X32826062Y-24174033D02*
X32873681Y-24031176D01*
X32873681Y-23793080D01*
X32826062Y-23697842D01*
X32778443Y-23650223D01*
X32683205Y-23602604D01*
X32587967Y-23602604D01*
X32492729Y-23650223D01*
X32445110Y-23697842D01*
X32397490Y-23793080D01*
X32349871Y-23983557D01*
X32302252Y-24078795D01*
X32254633Y-24126414D01*
X32159395Y-24174033D01*
X32064157Y-24174033D01*
X31968919Y-24126414D01*
X31921300Y-24078795D01*
X31873681Y-23983557D01*
X31873681Y-23745461D01*
X31921300Y-23602604D01*
X31873681Y-23269271D02*
X32873681Y-23031176D01*
X32159395Y-22840699D01*
X32873681Y-22650223D01*
X31873681Y-22412128D01*
X31873681Y-22126414D02*
X31873681Y-21459747D01*
X32873681Y-21888319D01*
X34761377Y-33704481D02*
X34761377Y-34418767D01*
X34713757Y-34561624D01*
X34618519Y-34656862D01*
X34475662Y-34704481D01*
X34380424Y-34704481D01*
X35761377Y-34704481D02*
X35189948Y-34704481D01*
X35475662Y-34704481D02*
X35475662Y-33704481D01*
X35380424Y-33847338D01*
X35285186Y-33942576D01*
X35189948Y-33990195D01*
X36142329Y-33799719D02*
X36189948Y-33752100D01*
X36285186Y-33704481D01*
X36523282Y-33704481D01*
X36618520Y-33752100D01*
X36666139Y-33799719D01*
X36713758Y-33894957D01*
X36713758Y-33990195D01*
X36666139Y-34133052D01*
X36094710Y-34704481D01*
X36713758Y-34704481D01*
X27117981Y-30257333D02*
X26641790Y-30590667D01*
X27117981Y-30828762D02*
X26117981Y-30828762D01*
X26117981Y-30447809D01*
X26165600Y-30352571D01*
X26213219Y-30304952D01*
X26308457Y-30257333D01*
X26451314Y-30257333D01*
X26546552Y-30304952D01*
X26594171Y-30352571D01*
X26641790Y-30447809D01*
X26641790Y-30828762D01*
X26594171Y-29828762D02*
X26594171Y-29495428D01*
X27117981Y-29352571D02*
X27117981Y-29828762D01*
X26117981Y-29828762D01*
X26117981Y-29352571D01*
X26594171Y-28590666D02*
X26594171Y-28924000D01*
X27117981Y-28924000D02*
X26117981Y-28924000D01*
X26117981Y-28447809D01*
X26117981Y-27924000D02*
X26356076Y-27924000D01*
X26260838Y-28162095D02*
X26356076Y-27924000D01*
X26260838Y-27685904D01*
X26546552Y-28066857D02*
X26356076Y-27924000D01*
X26546552Y-27781142D01*
X26117981Y-27162095D02*
X26356076Y-27162095D01*
X26260838Y-27400190D02*
X26356076Y-27162095D01*
X26260838Y-26923999D01*
X26546552Y-27304952D02*
X26356076Y-27162095D01*
X26546552Y-27019237D01*
X57961167Y-57961481D02*
X57627833Y-57485290D01*
X57389738Y-57961481D02*
X57389738Y-56961481D01*
X57770691Y-56961481D01*
X57865929Y-57009100D01*
X57913548Y-57056719D01*
X57961167Y-57151957D01*
X57961167Y-57294814D01*
X57913548Y-57390052D01*
X57865929Y-57437671D01*
X57770691Y-57485290D01*
X57389738Y-57485290D01*
X58389738Y-57437671D02*
X58723072Y-57437671D01*
X58865929Y-57961481D02*
X58389738Y-57961481D01*
X58389738Y-56961481D01*
X58865929Y-56961481D01*
X59627834Y-57437671D02*
X59294500Y-57437671D01*
X59294500Y-57961481D02*
X59294500Y-56961481D01*
X59770691Y-56961481D01*
X60294500Y-56961481D02*
X60294500Y-57199576D01*
X60056405Y-57104338D02*
X60294500Y-57199576D01*
X60532596Y-57104338D01*
X60151643Y-57390052D02*
X60294500Y-57199576D01*
X60437358Y-57390052D01*
X61056405Y-56961481D02*
X61056405Y-57199576D01*
X60818310Y-57104338D02*
X61056405Y-57199576D01*
X61294501Y-57104338D01*
X60913548Y-57390052D02*
X61056405Y-57199576D01*
X61199263Y-57390052D01*
X18094181Y-32273523D02*
X18808467Y-32273523D01*
X18951324Y-32321143D01*
X19046562Y-32416381D01*
X19094181Y-32559238D01*
X19094181Y-32654476D01*
X19094181Y-31273523D02*
X19094181Y-31844952D01*
X19094181Y-31559238D02*
X18094181Y-31559238D01*
X18237038Y-31654476D01*
X18332276Y-31749714D01*
X18379895Y-31844952D01*
X18094181Y-30940190D02*
X18094181Y-30321142D01*
X18475133Y-30654476D01*
X18475133Y-30511618D01*
X18522752Y-30416380D01*
X18570371Y-30368761D01*
X18665610Y-30321142D01*
X18903705Y-30321142D01*
X18998943Y-30368761D01*
X19046562Y-30416380D01*
X19094181Y-30511618D01*
X19094181Y-30797333D01*
X19046562Y-30892571D01*
X18998943Y-30940190D01*
X29720477Y-69182381D02*
X29720477Y-69896667D01*
X29672857Y-70039524D01*
X29577619Y-70134762D01*
X29434762Y-70182381D01*
X29339524Y-70182381D01*
X30720477Y-70182381D02*
X30149048Y-70182381D01*
X30434762Y-70182381D02*
X30434762Y-69182381D01*
X30339524Y-69325238D01*
X30244286Y-69420476D01*
X30149048Y-69468095D01*
X31577620Y-69515714D02*
X31577620Y-70182381D01*
X31339524Y-69134762D02*
X31101429Y-69849048D01*
X31720477Y-69849048D01*
X41880997Y-51983141D02*
X41880997Y-52697427D01*
X41833377Y-52840284D01*
X41738139Y-52935522D01*
X41595282Y-52983141D01*
X41500044Y-52983141D01*
X42880997Y-52983141D02*
X42309568Y-52983141D01*
X42595282Y-52983141D02*
X42595282Y-51983141D01*
X42500044Y-52125998D01*
X42404806Y-52221236D01*
X42309568Y-52268855D01*
X43785759Y-51983141D02*
X43309568Y-51983141D01*
X43261949Y-52459331D01*
X43309568Y-52411712D01*
X43404806Y-52364093D01*
X43642902Y-52364093D01*
X43738140Y-52411712D01*
X43785759Y-52459331D01*
X43833378Y-52554570D01*
X43833378Y-52792665D01*
X43785759Y-52887903D01*
X43738140Y-52935522D01*
X43642902Y-52983141D01*
X43404806Y-52983141D01*
X43309568Y-52935522D01*
X43261949Y-52887903D01*
X51284077Y-41558981D02*
X51284077Y-42273267D01*
X51236457Y-42416124D01*
X51141219Y-42511362D01*
X50998362Y-42558981D01*
X50903124Y-42558981D01*
X52284077Y-42558981D02*
X51712648Y-42558981D01*
X51998362Y-42558981D02*
X51998362Y-41558981D01*
X51903124Y-41701838D01*
X51807886Y-41797076D01*
X51712648Y-41844695D01*
X53141220Y-41558981D02*
X52950743Y-41558981D01*
X52855505Y-41606600D01*
X52807886Y-41654219D01*
X52712648Y-41797076D01*
X52665029Y-41987552D01*
X52665029Y-42368505D01*
X52712648Y-42463743D01*
X52760267Y-42511362D01*
X52855505Y-42558981D01*
X53045982Y-42558981D01*
X53141220Y-42511362D01*
X53188839Y-42463743D01*
X53236458Y-42368505D01*
X53236458Y-42130410D01*
X53188839Y-42035171D01*
X53141220Y-41987552D01*
X53045982Y-41939933D01*
X52855505Y-41939933D01*
X52760267Y-41987552D01*
X52712648Y-42035171D01*
X52665029Y-42130410D01*
X52821061Y-50180523D02*
X53535347Y-50180523D01*
X53678204Y-50228143D01*
X53773442Y-50323381D01*
X53821061Y-50466238D01*
X53821061Y-50561476D01*
X53821061Y-49180523D02*
X53821061Y-49751952D01*
X53821061Y-49466238D02*
X52821061Y-49466238D01*
X52963918Y-49561476D01*
X53059156Y-49656714D01*
X53106775Y-49751952D01*
X52821061Y-48847190D02*
X52821061Y-48180523D01*
X53821061Y-48609095D01*
X57744507Y-21799501D02*
X57744507Y-22513787D01*
X57696887Y-22656644D01*
X57601649Y-22751882D01*
X57458792Y-22799501D01*
X57363554Y-22799501D01*
X58125459Y-21799501D02*
X58792126Y-21799501D01*
X58363554Y-22799501D01*
%LPC*%
D15*
X34610000Y-38250000D03*
X34610000Y-38750000D03*
X34610000Y-39250000D03*
X34610000Y-39750000D03*
X34610000Y-40250000D03*
X34610000Y-42750000D03*
X34610000Y-43250000D03*
X34610000Y-43750000D03*
X34610000Y-44250000D03*
X34610000Y-44750000D03*
X34610000Y-45250000D03*
X34610000Y-45750000D03*
X34610000Y-46250000D03*
X34610000Y-46750000D03*
X34610000Y-47250000D03*
X34610000Y-47750000D03*
X34610000Y-48250000D03*
X34610000Y-48750000D03*
X34610000Y-49250000D03*
X34610000Y-49750000D03*
X34610000Y-50250000D03*
D16*
X36610000Y-52250000D03*
X37110000Y-52250000D03*
X37610000Y-52250000D03*
X38110000Y-52250000D03*
X38610000Y-52250000D03*
X39110000Y-52250000D03*
X39610000Y-52250000D03*
X40110000Y-52250000D03*
X40610000Y-52250000D03*
X41110000Y-52250000D03*
X41610000Y-52250000D03*
X42110000Y-52250000D03*
X42610000Y-52250000D03*
X43110000Y-52250000D03*
X43610000Y-52250000D03*
X44110000Y-52250000D03*
X44610000Y-52250000D03*
X45110000Y-52250000D03*
X45610000Y-52250000D03*
X46110000Y-52250000D03*
X46610000Y-52250000D03*
X47110000Y-52250000D03*
X47610000Y-52250000D03*
X48110000Y-52250000D03*
X48610000Y-52250000D03*
D15*
X50610000Y-50250000D03*
X50610000Y-49750000D03*
X50610000Y-49250000D03*
X50610000Y-48750000D03*
X50610000Y-48250000D03*
X50610000Y-47750000D03*
X50610000Y-47250000D03*
X50610000Y-46750000D03*
X50610000Y-46250000D03*
X50610000Y-45750000D03*
X50610000Y-45250000D03*
X50610000Y-44750000D03*
X50610000Y-44250000D03*
X50610000Y-43750000D03*
X50610000Y-43250000D03*
X50610000Y-42750000D03*
X50610000Y-42250000D03*
X50610000Y-41750000D03*
X50610000Y-41250000D03*
X50610000Y-40750000D03*
X50610000Y-40250000D03*
X50610000Y-39750000D03*
X50610000Y-39250000D03*
X50610000Y-38750000D03*
X50610000Y-38250000D03*
D16*
X48610000Y-36250000D03*
X48110000Y-36250000D03*
X47610000Y-36250000D03*
X47110000Y-36250000D03*
X46610000Y-36250000D03*
X46110000Y-36250000D03*
X45610000Y-36250000D03*
X45110000Y-36250000D03*
X44610000Y-36250000D03*
X44110000Y-36250000D03*
X43610000Y-36250000D03*
X43110000Y-36250000D03*
X42610000Y-36250000D03*
X42110000Y-36250000D03*
X41610000Y-36250000D03*
X41110000Y-36250000D03*
X40610000Y-36250000D03*
X40110000Y-36250000D03*
X39610000Y-36250000D03*
X39110000Y-36250000D03*
X38610000Y-36250000D03*
X38110000Y-36250000D03*
X37610000Y-36250000D03*
X37110000Y-36250000D03*
X36610000Y-36250000D03*
D17*
X61660000Y-67745000D03*
D18*
X55310000Y-67745000D03*
X55310000Y-65205000D03*
X55310000Y-70285000D03*
D19*
X54690000Y-62030000D03*
X59740000Y-62030000D03*
X67360000Y-62030000D03*
X62310000Y-62030000D03*
D20*
X62565000Y-66475000D03*
X64565000Y-66475000D03*
D21*
X64882500Y-56140100D03*
D22*
X66132500Y-56140100D03*
X69297020Y-56084220D03*
D21*
X70547020Y-56084220D03*
D23*
X57700000Y-49260000D03*
X56450000Y-49260000D03*
X55200000Y-49260000D03*
D24*
X60250000Y-52860000D03*
X51400000Y-52860000D03*
D23*
X53950000Y-49260000D03*
D25*
X50240000Y-51740000D03*
D26*
X55320000Y-51740000D03*
X60400000Y-51740000D03*
X60400000Y-36500000D03*
X55320000Y-36500000D03*
X50240000Y-36500000D03*
D22*
X67486000Y-36290000D03*
D21*
X66236000Y-36290000D03*
D27*
X58672960Y-22355200D03*
X58672960Y-21105200D03*
X58672960Y-19855200D03*
X58672960Y-18605200D03*
D21*
X35990000Y-16224000D03*
D22*
X35990000Y-17474000D03*
D28*
X39520000Y-56315000D03*
X40620000Y-56315000D03*
X44430000Y-56315000D03*
X43330000Y-56315000D03*
D17*
X26100000Y-20755000D03*
D18*
X32450000Y-20755000D03*
X32450000Y-23295000D03*
X32450000Y-18215000D03*
D29*
X29655000Y-62125000D03*
X26355000Y-62125000D03*
X29655000Y-61125000D03*
X26355000Y-61125000D03*
X29655000Y-60125000D03*
X26355000Y-60125000D03*
X29655000Y-59125000D03*
X26355000Y-59125000D03*
X29655000Y-58125000D03*
X26355000Y-58125000D03*
D30*
X30275000Y-38850000D03*
X30275000Y-36950000D03*
X28275000Y-37900000D03*
X53135000Y-35040000D03*
X53135000Y-33140000D03*
X51135000Y-34090000D03*
X29640000Y-35040000D03*
X29640000Y-33140000D03*
X27640000Y-34090000D03*
X30275000Y-42660000D03*
X30275000Y-40760000D03*
X28275000Y-41710000D03*
X30275000Y-50280000D03*
X30275000Y-48380000D03*
X28275000Y-49330000D03*
X24600000Y-60100000D03*
X24600000Y-58200000D03*
X22600000Y-59150000D03*
D31*
X32335000Y-57585000D03*
X33835000Y-57585000D03*
X57750000Y-51730000D03*
X56250000Y-51730000D03*
D32*
X55310000Y-31030000D03*
X55310000Y-29530000D03*
D31*
X41225000Y-56315000D03*
X42725000Y-56315000D03*
X28120000Y-36630000D03*
X26620000Y-36630000D03*
X50980000Y-32185000D03*
X49480000Y-32185000D03*
X29795000Y-31550000D03*
X31295000Y-31550000D03*
D32*
X27370000Y-37785000D03*
X27370000Y-39285000D03*
D33*
X33400000Y-33455000D03*
X31500000Y-33455000D03*
D31*
X51959040Y-36436960D03*
X53459040Y-36436960D03*
X28120000Y-40440000D03*
X26620000Y-40440000D03*
D32*
X26800000Y-34075000D03*
X26800000Y-35575000D03*
D31*
X31930000Y-35360000D03*
X30430000Y-35360000D03*
D32*
X27370000Y-41595000D03*
X27370000Y-43095000D03*
D31*
X28120000Y-48060000D03*
X26620000Y-48060000D03*
D32*
X28050000Y-49860000D03*
X28050000Y-51360000D03*
X24630000Y-57170000D03*
X24630000Y-55670000D03*
X21810000Y-60110000D03*
X21810000Y-61610000D03*
D19*
X33070000Y-26470000D03*
X28020000Y-26470000D03*
D20*
X36530000Y-56315000D03*
X38530000Y-56315000D03*
D19*
X20400000Y-26470000D03*
X25450000Y-26470000D03*
D20*
X21925000Y-23295000D03*
X23925000Y-23295000D03*
D34*
X32475000Y-43025000D03*
X32475000Y-45025000D03*
D20*
X37300000Y-54350000D03*
X39300000Y-54350000D03*
X48690000Y-34090000D03*
X46690000Y-34090000D03*
X34625000Y-34660000D03*
X36625000Y-34660000D03*
X53450000Y-55050000D03*
X55450000Y-55050000D03*
D35*
X35470000Y-56100000D03*
X31970000Y-56100000D03*
D21*
X15670000Y-52038000D03*
D22*
X16920000Y-52038000D03*
X20115000Y-52038000D03*
D21*
X21365000Y-52038000D03*
X51738000Y-72358000D03*
D22*
X51738000Y-71108000D03*
X51738000Y-67913000D03*
D21*
X51738000Y-66663000D03*
X34720000Y-72358000D03*
D22*
X34720000Y-71108000D03*
X34720000Y-67913000D03*
D21*
X34720000Y-66663000D03*
X53008000Y-16224000D03*
D22*
X53008000Y-17474000D03*
X53008000Y-20669000D03*
D21*
X53008000Y-21919000D03*
X71931000Y-36290000D03*
D22*
X70681000Y-36290000D03*
X67359000Y-53435000D03*
X66109000Y-53435000D03*
X35990000Y-20669000D03*
D21*
X35990000Y-21919000D03*
X15924000Y-35147000D03*
D22*
X17174000Y-35147000D03*
X20369000Y-35147000D03*
D21*
X21619000Y-35147000D03*
D32*
X53405000Y-58970000D03*
X53405000Y-57470000D03*
D31*
X53290000Y-56315000D03*
X54790000Y-56315000D03*
D23*
X41700000Y-32240000D03*
X40450000Y-32240000D03*
X39200000Y-32240000D03*
X42950000Y-32240000D03*
X44200000Y-32240000D03*
D24*
X36650000Y-28640000D03*
X48000000Y-28640000D03*
D23*
X45450000Y-32240000D03*
D36*
X47360000Y-60125000D03*
X37860000Y-60125000D03*
D22*
X18024580Y-57242460D03*
D21*
X16774580Y-57242460D03*
D22*
X71804000Y-53435000D03*
X70554000Y-53435000D03*
D26*
X53262000Y-69056000D03*
X53262000Y-66516000D03*
X34453300Y-19792700D03*
X34453300Y-22332700D03*
D37*
X35570900Y-36582100D03*
D38*
X28725600Y-28924000D03*
X59294500Y-59569100D03*
D21*
X17371800Y-32734000D03*
X17371800Y-31484000D03*
X31800000Y-71000000D03*
D22*
X30550000Y-71000000D03*
X43960520Y-53800760D03*
X42710520Y-53800760D03*
X53363600Y-43376600D03*
X52113600Y-43376600D03*
D39*
X52098680Y-50641000D03*
X52098680Y-49391000D03*
D40*
X56577840Y-24042120D03*
X56577840Y-26582120D03*
X56577840Y-29122120D03*
X59577840Y-25312120D03*
X59577840Y-27852120D03*
X59577840Y-30392120D03*
D22*
X30262300Y-26942800D03*
X26287200Y-28441400D03*
X30015920Y-25967440D03*
D39*
X62865740Y-23028660D03*
X63871580Y-24400260D03*
D41*
X58606160Y-23341080D03*
D39*
X62449940Y-27145640D03*
D41*
X58667120Y-29447240D03*
D39*
X40490000Y-27970000D03*
D41*
X43884320Y-28461720D03*
D39*
X33880000Y-37370000D03*
X32632120Y-39975540D03*
X55895980Y-21751040D03*
D41*
X58989700Y-32030420D03*
D39*
X61030000Y-47310000D03*
D22*
X26275900Y-25075900D03*
D39*
X62317100Y-53930300D03*
D22*
X32383200Y-23247100D03*
D41*
X54800000Y-65300000D03*
D39*
X60642730Y-19727570D03*
D41*
X48020200Y-41105480D03*
X64200000Y-66475000D03*
X39100000Y-56300000D03*
X31320000Y-51910000D03*
X28350000Y-54820000D03*
X47680000Y-32670000D03*
X47825000Y-53800000D03*
X37350000Y-31525000D03*
D39*
X37200000Y-34550000D03*
D41*
X28800000Y-60150000D03*
X31930000Y-35360000D03*
D39*
X33740000Y-30480000D03*
D41*
X54660000Y-54440000D03*
D39*
X60480680Y-66754760D03*
D41*
X30894760Y-31123640D03*
X27180000Y-42570000D03*
D39*
X56524120Y-24112880D03*
D41*
X53719200Y-22995640D03*
D39*
X41410000Y-28970000D03*
X29114220Y-48263560D03*
X28342060Y-46051220D03*
D41*
X34070000Y-33050000D03*
D39*
X34864780Y-29846020D03*
X52929260Y-26648160D03*
X51971680Y-28080720D03*
D41*
X52740000Y-37490000D03*
D39*
X59772020Y-47499020D03*
X57275000Y-67750000D03*
D41*
X66482700Y-57537100D03*
D39*
X58423280Y-39998400D03*
D22*
X28975000Y-65000000D03*
D41*
X59800000Y-28800000D03*
D39*
X61175000Y-67750000D03*
D41*
X37300000Y-54350000D03*
D22*
X41120000Y-58530000D03*
X38660000Y-57660000D03*
D39*
X43860000Y-59960000D03*
D22*
X41440000Y-60240000D03*
D41*
X27280000Y-39220000D03*
D39*
X34375000Y-54575000D03*
D41*
X53135000Y-35040000D03*
X33425000Y-59825000D03*
X36508920Y-39611960D03*
X31317160Y-60071660D03*
X36072040Y-40747340D03*
X46305000Y-53775000D03*
X33094400Y-34992060D03*
X33150000Y-46620000D03*
X53520000Y-41710000D03*
X26450000Y-53290000D03*
X28275000Y-41710000D03*
X29600000Y-44880000D03*
X22600000Y-59150000D03*
X30050000Y-57250000D03*
X29600000Y-46120000D03*
X38570000Y-48270000D03*
X31420000Y-37710000D03*
X36075000Y-54500000D03*
X35300000Y-57750000D03*
X31250000Y-66125000D03*
X52576200Y-46221400D03*
X43122320Y-30158440D03*
X39731420Y-49498000D03*
X45360060Y-42845740D03*
D22*
X45340000Y-49940000D03*
D41*
X48025000Y-42850000D03*
X44341520Y-30178760D03*
X55190000Y-34283400D03*
X57588210Y-33191790D03*
X56909440Y-34999680D03*
X39820320Y-48255940D03*
X42818280Y-45489520D03*
X43920000Y-55160000D03*
X59907400Y-44984060D03*
X57224400Y-59581800D03*
X53135000Y-60077100D03*
X56180460Y-56668420D03*
X58391020Y-43627700D03*
X40011580Y-40930220D03*
X29530000Y-33890000D03*
X57300600Y-38695380D03*
X46907680Y-39680540D03*
X40285900Y-42118940D03*
X60498460Y-39746940D03*
X45045100Y-41644320D03*
D22*
X47225000Y-50050000D03*
D41*
X54371980Y-35334960D03*
X42700000Y-55150000D03*
X49934600Y-33788100D03*
X32962320Y-31621480D03*
X49147960Y-39540840D03*
X53188340Y-52647600D03*
X58336920Y-53605180D03*
X60577200Y-55505100D03*
X66650000Y-55000000D03*
X69403700Y-61745880D03*
X54570100Y-59569100D03*
X37150000Y-45100000D03*
X53500000Y-40475000D03*
X36607220Y-49388780D03*
X38065180Y-32670500D03*
X47630000Y-56315000D03*
X32890000Y-36340000D03*
X34700000Y-61700000D03*
X34344080Y-28822400D03*
D39*
X31880280Y-30310840D03*
X24620960Y-54923440D03*
X28430000Y-56140000D03*
X32190160Y-54324000D03*
D41*
X53282320Y-29213560D03*
D39*
X46200000Y-30000000D03*
D41*
X28217600Y-24260560D03*
X29045640Y-24265640D03*
X52317120Y-31611320D03*
X50097160Y-31646880D03*
X58834760Y-48677580D03*
D39*
X57173600Y-54453540D03*
X50150500Y-56114700D03*
D22*
X21664400Y-27666700D03*
X24737800Y-32848300D03*
D41*
X57240000Y-51500000D03*
X58010000Y-46650000D03*
D39*
X42350000Y-61070000D03*
D41*
X27160000Y-40620000D03*
X31478960Y-39231320D03*
X37710340Y-42926660D03*
X38911000Y-39670740D03*
X35655480Y-41903040D03*
X29280000Y-39920000D03*
X44240000Y-47020000D03*
X42370000Y-41680000D03*
X42300000Y-39300000D03*
X28530020Y-43485820D03*
X27084760Y-52622200D03*
X23810000Y-56680000D03*
X26560000Y-56400000D03*
X45215280Y-39713920D03*
X40682140Y-47331020D03*
X34446440Y-41882720D03*
X50976000Y-32134560D03*
X60643240Y-33135320D03*
X59177660Y-34819340D03*
X39500280Y-26907240D03*
X44671720Y-26902160D03*
X35034960Y-28014680D03*
X53360000Y-54040000D03*
X47280000Y-48810000D03*
X45140000Y-34700000D03*
X45180000Y-38500000D03*
X43750000Y-34460000D03*
X43259480Y-38535360D03*
X42250000Y-34675000D03*
X41120000Y-38730000D03*
X39162460Y-38482020D03*
X40782980Y-34590740D03*
X47837320Y-45045020D03*
X53744600Y-45002200D03*
X48507880Y-47704400D03*
X52817500Y-47859700D03*
X53731900Y-47046900D03*
X47837320Y-46683320D03*
X52525400Y-45002200D03*
X49140340Y-46096580D03*
X58113400Y-36165540D03*
X55606420Y-39360860D03*
X62263760Y-31890720D03*
X53290000Y-39280000D03*
X61027540Y-40907360D03*
X58181980Y-45421300D03*
X53160400Y-30173680D03*
X51347600Y-35288880D03*
X32307000Y-25761700D03*
X27874700Y-22040600D03*
X58890640Y-66673480D03*
X55370200Y-61639200D03*
X41810000Y-50190000D03*
X42890000Y-49220000D03*
M02*
