G04 #@! TF.FileFunction,Copper,L2,Bot,Signal*
%FSLAX46Y46*%
G04 Gerber Fmt 4.6, Leading zero omitted, Abs format (unit mm)*
G04 Created by KiCad (PCBNEW 4.0.7) date 02/03/18 21:52:34*
%MOMM*%
%LPD*%
G01*
G04 APERTURE LIST*
%ADD10C,0.100000*%
%ADD11R,1.050000X1.950000*%
%ADD12R,1.524000X1.524000*%
%ADD13C,1.060000*%
%ADD14C,1.006000*%
%ADD15R,3.000000X0.800000*%
%ADD16R,3.000000X2.100000*%
%ADD17C,1.300000*%
%ADD18C,1.524000*%
%ADD19R,0.900000X0.500000*%
%ADD20R,0.500000X0.900000*%
%ADD21R,1.300000X0.700000*%
%ADD22R,0.700000X1.300000*%
%ADD23R,0.800000X1.600000*%
%ADD24R,2.100000X3.000000*%
%ADD25R,0.800000X3.000000*%
%ADD26R,2.000000X3.000000*%
%ADD27R,1.900000X2.800000*%
%ADD28C,1.306000*%
%ADD29C,1.000000*%
%ADD30C,0.706000*%
%ADD31C,0.750000*%
%ADD32C,0.250000*%
%ADD33C,1.000000*%
%ADD34C,0.500000*%
%ADD35C,0.300000*%
%ADD36C,0.203000*%
%ADD37C,2.000000*%
%ADD38C,1.500000*%
%ADD39C,0.400000*%
G04 APERTURE END LIST*
D10*
D11*
X48150000Y-51660000D03*
X46150000Y-51660000D03*
X40150000Y-51660000D03*
X38150000Y-51660000D03*
X36150000Y-51660000D03*
X34150000Y-51660000D03*
X34150000Y-36860000D03*
X36150000Y-36860000D03*
X38150000Y-36860000D03*
X40150000Y-36860000D03*
X42150000Y-36860000D03*
X44150000Y-36860000D03*
X46150000Y-36860000D03*
X48150000Y-36860000D03*
D12*
X63803000Y-65207900D03*
X66343000Y-65207900D03*
X61263000Y-65207900D03*
X66343000Y-60127900D03*
X63803000Y-60127900D03*
X61263000Y-60127900D03*
X54913000Y-63150500D03*
X57453000Y-63150500D03*
X52373000Y-63150500D03*
X57453000Y-58070500D03*
X54913000Y-58070500D03*
X52373000Y-58070500D03*
D13*
X64882500Y-56140100D03*
D14*
X66132500Y-56140100D03*
X69297020Y-56084220D03*
D13*
X70547020Y-56084220D03*
D15*
X55945000Y-44250000D03*
X55945000Y-45500000D03*
X55945000Y-46750000D03*
X55945000Y-43000000D03*
X55945000Y-41750000D03*
D16*
X59545000Y-50550000D03*
X59545000Y-37950000D03*
D15*
X55945000Y-48000000D03*
X55945000Y-40500000D03*
D17*
X50240000Y-51740000D03*
D18*
X55320000Y-51740000D03*
X60400000Y-51740000D03*
X60400000Y-36500000D03*
X55320000Y-36500000D03*
X50240000Y-36500000D03*
D14*
X67486000Y-36290000D03*
D13*
X66236000Y-36290000D03*
D15*
X31815000Y-44250000D03*
X31815000Y-43000000D03*
X31815000Y-41750000D03*
X31815000Y-45500000D03*
X31815000Y-46750000D03*
D16*
X28215000Y-37950000D03*
X28215000Y-50550000D03*
D15*
X31815000Y-40500000D03*
X31815000Y-48000000D03*
D13*
X35990000Y-16224000D03*
D14*
X35990000Y-17474000D03*
D19*
X48960000Y-55795000D03*
X48960000Y-54295000D03*
D20*
X46305000Y-53775000D03*
X47805000Y-53775000D03*
D19*
X31180000Y-49215000D03*
X31180000Y-50715000D03*
X32450000Y-49215000D03*
X32450000Y-50715000D03*
D20*
X38915000Y-31550000D03*
X37415000Y-31550000D03*
D19*
X36060000Y-30210000D03*
X36060000Y-31710000D03*
D20*
X53520000Y-40440000D03*
X52020000Y-40440000D03*
X53520000Y-41710000D03*
X52020000Y-41710000D03*
D21*
X63565000Y-35040000D03*
X63565000Y-33140000D03*
D20*
X63450000Y-31550000D03*
X64950000Y-31550000D03*
D21*
X60867520Y-34648840D03*
X60867520Y-32748840D03*
D19*
X59120000Y-34840000D03*
X59120000Y-33340000D03*
D22*
X54360000Y-30280000D03*
X56260000Y-30280000D03*
D20*
X57100000Y-31550000D03*
X58600000Y-31550000D03*
D23*
X30175000Y-66050000D03*
X28925000Y-66050000D03*
X27675000Y-66050000D03*
D24*
X25125000Y-63150000D03*
X32725000Y-63150000D03*
D25*
X61025000Y-29645000D03*
X62275000Y-29645000D03*
X63525000Y-29645000D03*
X59775000Y-29645000D03*
X58525000Y-29645000D03*
D24*
X67325000Y-26045000D03*
X54725000Y-26045000D03*
D25*
X64775000Y-29645000D03*
X57275000Y-29645000D03*
X43880000Y-56315000D03*
X42630000Y-56315000D03*
X41380000Y-56315000D03*
X45130000Y-56315000D03*
X46380000Y-56315000D03*
D24*
X37580000Y-59915000D03*
X50180000Y-59915000D03*
D25*
X40130000Y-56315000D03*
X47630000Y-56315000D03*
X43880000Y-32185000D03*
X45130000Y-32185000D03*
X46380000Y-32185000D03*
X42630000Y-32185000D03*
X41380000Y-32185000D03*
D24*
X50180000Y-28585000D03*
D26*
X37770000Y-28585000D03*
D25*
X47630000Y-32185000D03*
X40130000Y-32185000D03*
D13*
X15670000Y-52038000D03*
D14*
X16920000Y-52038000D03*
X20115000Y-52038000D03*
D13*
X21365000Y-52038000D03*
X51738000Y-72358000D03*
D14*
X51738000Y-71108000D03*
X51738000Y-67913000D03*
D13*
X51738000Y-66663000D03*
X34720000Y-72358000D03*
D14*
X34720000Y-71108000D03*
X34720000Y-67913000D03*
D13*
X34720000Y-66663000D03*
X53008000Y-16224000D03*
D14*
X53008000Y-17474000D03*
X53008000Y-20669000D03*
D13*
X53008000Y-21919000D03*
X71931000Y-36290000D03*
D14*
X70681000Y-36290000D03*
X67359000Y-53435000D03*
X66109000Y-53435000D03*
X35990000Y-20669000D03*
D13*
X35990000Y-21919000D03*
X15924000Y-35147000D03*
D14*
X17174000Y-35147000D03*
X20369000Y-35147000D03*
D13*
X21619000Y-35147000D03*
D25*
X29800000Y-31640000D03*
X28550000Y-31640000D03*
X27300000Y-31640000D03*
D27*
X32450000Y-27940000D03*
D24*
X23500000Y-28040000D03*
D25*
X26050000Y-31640000D03*
D14*
X18024580Y-57242460D03*
D13*
X16774580Y-57242460D03*
D14*
X71804000Y-53435000D03*
X70554000Y-53435000D03*
D18*
X53262000Y-69056000D03*
X53262000Y-66516000D03*
X34453300Y-19792700D03*
X34453300Y-22332700D03*
D28*
X35570900Y-36582100D03*
D13*
X17371800Y-32734000D03*
X17371800Y-31484000D03*
X31800000Y-71000000D03*
D14*
X30550000Y-71000000D03*
X43960520Y-53800760D03*
X42710520Y-53800760D03*
X53363600Y-43376600D03*
X52113600Y-43376600D03*
D29*
X52098680Y-50641000D03*
X52098680Y-49391000D03*
D14*
X30262300Y-26942800D03*
X26287200Y-28441400D03*
X30015920Y-25967440D03*
D29*
X62865740Y-23028660D03*
X63871580Y-24400260D03*
D30*
X58606160Y-23341080D03*
D29*
X62449940Y-27145640D03*
D30*
X58667120Y-29447240D03*
D29*
X40490000Y-27970000D03*
D30*
X43884320Y-28461720D03*
D29*
X33880000Y-37370000D03*
X32632120Y-39975540D03*
X55895980Y-21751040D03*
D30*
X58989700Y-32030420D03*
D29*
X61030000Y-47310000D03*
D14*
X26275900Y-25075900D03*
D29*
X62317100Y-53930300D03*
D14*
X32383200Y-23247100D03*
D30*
X54800000Y-65300000D03*
D29*
X60642730Y-19727570D03*
D30*
X48020200Y-41105480D03*
X64200000Y-66475000D03*
X39100000Y-56300000D03*
X31320000Y-51910000D03*
X28350000Y-54820000D03*
X47680000Y-32670000D03*
X47825000Y-53800000D03*
X37350000Y-31525000D03*
D29*
X37200000Y-34550000D03*
D30*
X28800000Y-60150000D03*
X31930000Y-35360000D03*
D29*
X33740000Y-30480000D03*
D30*
X54660000Y-54440000D03*
D29*
X60480680Y-66754760D03*
D30*
X30894760Y-31123640D03*
X27180000Y-42570000D03*
D29*
X56524120Y-24112880D03*
D30*
X53719200Y-22995640D03*
D29*
X41410000Y-28970000D03*
X29114220Y-48263560D03*
X28342060Y-46051220D03*
D30*
X34070000Y-33050000D03*
D29*
X34864780Y-29846020D03*
X52929260Y-26648160D03*
X51971680Y-28080720D03*
D30*
X52740000Y-37490000D03*
D29*
X59772020Y-47499020D03*
X57275000Y-67750000D03*
D30*
X66482700Y-57537100D03*
D29*
X58423280Y-39998400D03*
D14*
X28975000Y-65000000D03*
D30*
X59800000Y-28800000D03*
D29*
X61175000Y-67750000D03*
D30*
X37300000Y-54350000D03*
D14*
X41120000Y-58530000D03*
X38660000Y-57660000D03*
D29*
X43860000Y-59960000D03*
D14*
X41440000Y-60240000D03*
D30*
X27280000Y-39220000D03*
D29*
X34375000Y-54575000D03*
D30*
X53135000Y-35040000D03*
X33425000Y-59825000D03*
X36508920Y-39611960D03*
X31317160Y-60071660D03*
X36072040Y-40747340D03*
X46305000Y-53775000D03*
X33094400Y-34992060D03*
X33150000Y-46620000D03*
X53520000Y-41710000D03*
X26450000Y-53290000D03*
X28275000Y-41710000D03*
X29600000Y-44880000D03*
X22600000Y-59150000D03*
X30050000Y-57250000D03*
X29600000Y-46120000D03*
X38570000Y-48270000D03*
X31420000Y-37710000D03*
X36075000Y-54500000D03*
X35300000Y-57750000D03*
X31250000Y-66125000D03*
X52576200Y-46221400D03*
X43122320Y-30158440D03*
X39731420Y-49498000D03*
X45360060Y-42845740D03*
D14*
X45340000Y-49940000D03*
D30*
X48025000Y-42850000D03*
X44341520Y-30178760D03*
X55190000Y-34283400D03*
X57588210Y-33191790D03*
X56909440Y-34999680D03*
X39820320Y-48255940D03*
X42818280Y-45489520D03*
X43920000Y-55160000D03*
X59907400Y-44984060D03*
X57224400Y-59581800D03*
X53135000Y-60077100D03*
X56180460Y-56668420D03*
X58391020Y-43627700D03*
X40011580Y-40930220D03*
X29530000Y-33890000D03*
X57300600Y-38695380D03*
X46907680Y-39680540D03*
X40285900Y-42118940D03*
X60498460Y-39746940D03*
X45045100Y-41644320D03*
D14*
X47225000Y-50050000D03*
D30*
X54371980Y-35334960D03*
X42700000Y-55150000D03*
X49934600Y-33788100D03*
X32962320Y-31621480D03*
X49147960Y-39540840D03*
X53188340Y-52647600D03*
X58336920Y-53605180D03*
X60577200Y-55505100D03*
X66650000Y-55000000D03*
X69403700Y-61745880D03*
X54570100Y-59569100D03*
X37150000Y-45100000D03*
X53500000Y-40475000D03*
X36607220Y-49388780D03*
X38065180Y-32670500D03*
X47630000Y-56315000D03*
X32890000Y-36340000D03*
X34700000Y-61700000D03*
X34344080Y-28822400D03*
D29*
X31880280Y-30310840D03*
X24620960Y-54923440D03*
X28430000Y-56140000D03*
X32190160Y-54324000D03*
D30*
X53282320Y-29213560D03*
D29*
X46200000Y-30000000D03*
D30*
X28217600Y-24260560D03*
X29045640Y-24265640D03*
X52317120Y-31611320D03*
X50097160Y-31646880D03*
X58834760Y-48677580D03*
D29*
X57173600Y-54453540D03*
X50150500Y-56114700D03*
D14*
X21664400Y-27666700D03*
X24737800Y-32848300D03*
D30*
X57240000Y-51500000D03*
X58010000Y-46650000D03*
D29*
X42350000Y-61070000D03*
D30*
X27160000Y-40620000D03*
X31478960Y-39231320D03*
X37710340Y-42926660D03*
X38911000Y-39670740D03*
X35655480Y-41903040D03*
X29280000Y-39920000D03*
X44240000Y-47020000D03*
X42370000Y-41680000D03*
X42300000Y-39300000D03*
X28530020Y-43485820D03*
X27084760Y-52622200D03*
X23810000Y-56680000D03*
X26560000Y-56400000D03*
X45215280Y-39713920D03*
X40682140Y-47331020D03*
X34446440Y-41882720D03*
X50976000Y-32134560D03*
X60643240Y-33135320D03*
X59177660Y-34819340D03*
X39500280Y-26907240D03*
X44671720Y-26902160D03*
X35034960Y-28014680D03*
X53360000Y-54040000D03*
X47280000Y-48810000D03*
X45140000Y-34700000D03*
X45180000Y-38500000D03*
X43750000Y-34460000D03*
X43259480Y-38535360D03*
X42250000Y-34675000D03*
X41120000Y-38730000D03*
X39162460Y-38482020D03*
X40782980Y-34590740D03*
X47837320Y-45045020D03*
X53744600Y-45002200D03*
X48507880Y-47704400D03*
X52817500Y-47859700D03*
X53731900Y-47046900D03*
X47837320Y-46683320D03*
X52525400Y-45002200D03*
X49140340Y-46096580D03*
X58113400Y-36165540D03*
X55606420Y-39360860D03*
X62263760Y-31890720D03*
X53290000Y-39280000D03*
X61027540Y-40907360D03*
X58181980Y-45421300D03*
X53160400Y-30173680D03*
X51347600Y-35288880D03*
X32307000Y-25761700D03*
X27874700Y-22040600D03*
X58890640Y-66673480D03*
X55370200Y-61639200D03*
X41810000Y-50190000D03*
X42890000Y-49220000D03*
D31*
X28395400Y-25952200D02*
X27811200Y-25952200D01*
X27176200Y-26587200D02*
X27176200Y-27171400D01*
X27811200Y-25952200D02*
X27176200Y-26587200D01*
X30262300Y-26942800D02*
X29817800Y-26498300D01*
X29817800Y-26498300D02*
X27849300Y-26498300D01*
D32*
X27849300Y-26498300D02*
X29817800Y-26498300D01*
D33*
X28395400Y-25952200D02*
X30015920Y-25967440D01*
D31*
X26350700Y-27996900D02*
X27176200Y-27171400D01*
X26350700Y-28377900D02*
X26350700Y-27996900D01*
X26287200Y-28441400D02*
X26350700Y-28377900D01*
X27176200Y-27171400D02*
X27849300Y-26498300D01*
X27849300Y-26498300D02*
X28395400Y-25952200D01*
D33*
X60884540Y-22949920D02*
X60884540Y-22906740D01*
X54577720Y-20323560D02*
X54577720Y-21304000D01*
X55309240Y-19592040D02*
X54577720Y-20323560D01*
X57569840Y-19592040D02*
X55309240Y-19592040D01*
X60884540Y-22906740D02*
X57569840Y-19592040D01*
X62865740Y-23394420D02*
X61402700Y-23394420D01*
X61402700Y-23394420D02*
X60788020Y-24009100D01*
X62865740Y-23028660D02*
X62865740Y-23394420D01*
X62865740Y-23394420D02*
X63871580Y-24400260D01*
X62787000Y-22949920D02*
X60884540Y-22949920D01*
X60884540Y-22949920D02*
X59728840Y-22949920D01*
X62865740Y-23028660D02*
X62787000Y-22949920D01*
X53008000Y-21919000D02*
X53962720Y-21919000D01*
X53962720Y-21919000D02*
X54577720Y-21304000D01*
X57262500Y-20483580D02*
X59728840Y-22949920D01*
X54577720Y-21304000D02*
X55398140Y-20483580D01*
X55398140Y-20483580D02*
X57262500Y-20483580D01*
X59728840Y-22949920D02*
X60788020Y-24009100D01*
X60788020Y-24009100D02*
X61179180Y-24400260D01*
X61179180Y-24400260D02*
X63871580Y-24400260D01*
X36895000Y-62665000D02*
X36435000Y-62665000D01*
X36002700Y-63097300D02*
X36002700Y-65169800D01*
X36435000Y-62665000D02*
X36002700Y-63097300D01*
D34*
X36895000Y-63200000D02*
X36500000Y-63200000D01*
X36500000Y-63200000D02*
X36103002Y-63596998D01*
X36103002Y-63596998D02*
X36103002Y-65069498D01*
X36103002Y-65069498D02*
X36002700Y-65169800D01*
D31*
X31800000Y-71000000D02*
X30550000Y-71000000D01*
D34*
X62449940Y-27145640D02*
X62706080Y-27145640D01*
X62706080Y-27145640D02*
X66214020Y-23637700D01*
X62449940Y-27145640D02*
X64254760Y-27145640D01*
X64775000Y-27665880D02*
X64775000Y-29645000D01*
X64254760Y-27145640D02*
X64775000Y-27665880D01*
X58844560Y-23579480D02*
X58606160Y-23341080D01*
X62449940Y-27145640D02*
X58883780Y-23579480D01*
X58883780Y-23579480D02*
X58844560Y-23579480D01*
D35*
X58667120Y-29447240D02*
X58525000Y-29589360D01*
X58525000Y-29589360D02*
X58525000Y-29645000D01*
D34*
X40490000Y-27970000D02*
X41150240Y-27970000D01*
X43285240Y-25835000D02*
X43620000Y-25835000D01*
X41150240Y-27970000D02*
X43285240Y-25835000D01*
X47630000Y-32185000D02*
X47630000Y-30464960D01*
D32*
X40490000Y-27970000D02*
X40460000Y-27940000D01*
D34*
X40460000Y-27940000D02*
X40460000Y-25835000D01*
X43991000Y-28568400D02*
X43884320Y-28461720D01*
X44930800Y-28568400D02*
X43991000Y-28568400D01*
X45377840Y-29015440D02*
X44930800Y-28568400D01*
X46602120Y-29015440D02*
X45377840Y-29015440D01*
X47171080Y-29584400D02*
X46602120Y-29015440D01*
X47171080Y-30006040D02*
X47171080Y-29584400D01*
X47630000Y-30464960D02*
X47171080Y-30006040D01*
D36*
X34150000Y-37100000D02*
X33880000Y-37370000D01*
X32632120Y-39975540D02*
X32107660Y-40500000D01*
X32107660Y-40500000D02*
X31815000Y-40500000D01*
D31*
X37415000Y-31550000D02*
X36750000Y-32215000D01*
D33*
X36750000Y-33250000D02*
X36750000Y-32215000D01*
X37200000Y-33700000D02*
X36750000Y-33250000D01*
X37200000Y-33700000D02*
X37200000Y-34550000D01*
D34*
X58600000Y-31550000D02*
X58600000Y-31640720D01*
X58600000Y-31640720D02*
X58989700Y-32030420D01*
D36*
X61030000Y-47310000D02*
X61040000Y-47300000D01*
D34*
X54660000Y-52970000D02*
X54660000Y-52801000D01*
X55945000Y-48000000D02*
X54060000Y-49885000D01*
X57650000Y-52590000D02*
X57270000Y-52970000D01*
X57650000Y-52590000D02*
X59545000Y-50695000D01*
X57270000Y-52970000D02*
X54660000Y-52970000D01*
X53935100Y-50009900D02*
X54060000Y-49885000D01*
X53935100Y-51900840D02*
X53935100Y-50009900D01*
X54133220Y-52098960D02*
X53935100Y-51900840D01*
X54133220Y-52274220D02*
X54133220Y-52098960D01*
X54660000Y-52801000D02*
X54133220Y-52274220D01*
D33*
X63565000Y-67685000D02*
X63840500Y-67685000D01*
X64200000Y-67325500D02*
X64200000Y-66475000D01*
X63840500Y-67685000D02*
X64200000Y-67325500D01*
X63803000Y-65207900D02*
X63803000Y-64738000D01*
X63803000Y-64738000D02*
X65876000Y-62665000D01*
X67658720Y-61646820D02*
X65065380Y-61646820D01*
X63803000Y-62909200D02*
X63803000Y-63997000D01*
X65065380Y-61646820D02*
X63803000Y-62909200D01*
X56811650Y-69087750D02*
X60112250Y-69087750D01*
X60112250Y-69087750D02*
X60150000Y-69050000D01*
X54913000Y-64445900D02*
X55078100Y-64445900D01*
X55967100Y-69367100D02*
X56450000Y-69850000D01*
X55967100Y-65334900D02*
X55967100Y-69367100D01*
X55078100Y-64445900D02*
X55967100Y-65334900D01*
X50899800Y-64623700D02*
X54123700Y-64623700D01*
X54123700Y-64623700D02*
X54800000Y-65300000D01*
X65121260Y-35726120D02*
X65121260Y-35595160D01*
X65121260Y-35595160D02*
X65632920Y-35083500D01*
X49871100Y-25835000D02*
X51423400Y-25835000D01*
X51661800Y-16632940D02*
X51085220Y-17209520D01*
X51661800Y-25596600D02*
X51661800Y-16632940D01*
X51423400Y-25835000D02*
X51661800Y-25596600D01*
X51085220Y-17209520D02*
X51085220Y-25233780D01*
X51085220Y-25233780D02*
X50484000Y-25835000D01*
X39787300Y-25835000D02*
X39936800Y-25835000D01*
X18522420Y-60242200D02*
X19708600Y-60242200D01*
X23048700Y-63582300D02*
X23048700Y-65698700D01*
X19708600Y-60242200D02*
X23048700Y-63582300D01*
X24907980Y-37079940D02*
X24907980Y-36409380D01*
X24907980Y-36409380D02*
X22860740Y-34362140D01*
X25443920Y-48863000D02*
X25443920Y-48842680D01*
X26134800Y-43427400D02*
X25443920Y-42736520D01*
X26134800Y-48151800D02*
X26134800Y-43427400D01*
X25443920Y-48842680D02*
X26134800Y-48151800D01*
D37*
X19975300Y-55479700D02*
X19975300Y-58789320D01*
X19975300Y-58789320D02*
X20038800Y-58725820D01*
X20038800Y-58725820D02*
X20038800Y-58273700D01*
X20038800Y-58273700D02*
X20038800Y-58725820D01*
X21933640Y-55479700D02*
X19975300Y-55479700D01*
X19975300Y-55479700D02*
X16647900Y-55479700D01*
X16647900Y-55479700D02*
X16533600Y-55365400D01*
X21766000Y-53953160D02*
X16371040Y-53953160D01*
X16371040Y-53953160D02*
X16317700Y-54006500D01*
D32*
X27901500Y-23450300D02*
X26275900Y-25075900D01*
D36*
X24185350Y-24574250D02*
X25774250Y-24574250D01*
X25774250Y-24574250D02*
X26275900Y-25075900D01*
X24546030Y-52570130D02*
X24546030Y-51353470D01*
X20027050Y-31484000D02*
X17371800Y-31484000D01*
X22860740Y-34317690D02*
X20027050Y-31484000D01*
X22860740Y-35540700D02*
X22860740Y-34317690D01*
X25443920Y-38123880D02*
X22860740Y-35540700D01*
X25443920Y-50455580D02*
X25443920Y-48863000D01*
X25443920Y-42736520D02*
X25443920Y-38123880D01*
X24546030Y-51353470D02*
X25443920Y-50455580D01*
X26050000Y-31640000D02*
X26050000Y-29994900D01*
X26050000Y-29994900D02*
X25182300Y-29127200D01*
X25182300Y-29127200D02*
X25182300Y-25571200D01*
X25182300Y-25571200D02*
X24185350Y-24574250D01*
X24185350Y-24574250D02*
X23074100Y-23463000D01*
X23074100Y-23463000D02*
X22553400Y-23463000D01*
X22553400Y-23463000D02*
X19467300Y-26549100D01*
X19467300Y-26549100D02*
X19467300Y-29388500D01*
X19467300Y-29388500D02*
X17371800Y-31484000D01*
D32*
X32350000Y-28040000D02*
X32350000Y-27112800D01*
X32350000Y-27112800D02*
X31405300Y-26168100D01*
X29462200Y-23450300D02*
X27901500Y-23450300D01*
X31405300Y-25393400D02*
X29462200Y-23450300D01*
X31405300Y-26168100D02*
X31405300Y-25393400D01*
D31*
X26050000Y-26498300D02*
X26050000Y-26760900D01*
X26050000Y-26760900D02*
X25182300Y-27628600D01*
X25309300Y-29254200D02*
X25309300Y-28962100D01*
X25309300Y-28962100D02*
X25182300Y-28835100D01*
X25182300Y-28835100D02*
X25182300Y-27628600D01*
D33*
X26050000Y-29994900D02*
X25309300Y-29254200D01*
D31*
X25182300Y-26169500D02*
X26275900Y-25075900D01*
X25182300Y-27628600D02*
X25182300Y-26169500D01*
D33*
X26050000Y-26498300D02*
X26050000Y-25301800D01*
X26050000Y-25301800D02*
X26275900Y-25075900D01*
X26050000Y-26438900D02*
X24687000Y-25075900D01*
X26050000Y-26498300D02*
X26050000Y-26438900D01*
D34*
X62609200Y-52317400D02*
X63295000Y-51631600D01*
X62609200Y-53638200D02*
X62609200Y-52317400D01*
X62317100Y-53930300D02*
X62609200Y-53638200D01*
D33*
X30750000Y-70500000D02*
X31299900Y-70500000D01*
X31130200Y-69200000D02*
X29450000Y-69200000D01*
X33615100Y-71684900D02*
X31130200Y-69200000D01*
X33615100Y-72002400D02*
X33615100Y-71684900D01*
X33297600Y-72319900D02*
X33615100Y-72002400D01*
X33119800Y-72319900D02*
X33297600Y-72319900D01*
X31299900Y-70500000D02*
X33119800Y-72319900D01*
X68321660Y-60978800D02*
X68321660Y-60879740D01*
X70981040Y-58220360D02*
X70981040Y-57166260D01*
X68321660Y-60879740D02*
X70981040Y-58220360D01*
X70981040Y-57166260D02*
X68453740Y-59693560D01*
X68453740Y-59693560D02*
X68321660Y-59693560D01*
X68321660Y-59693560D02*
X68321660Y-60978800D01*
X68321660Y-59693560D02*
X68321660Y-60978800D01*
X68321660Y-60978800D02*
X68321660Y-60983880D01*
X68209900Y-61004200D02*
X68209900Y-61095640D01*
X68301340Y-61004200D02*
X68209900Y-61004200D01*
X68321660Y-60983880D02*
X68301340Y-61004200D01*
X63803000Y-65207900D02*
X63803000Y-63997000D01*
D38*
X66105000Y-62665000D02*
X65876000Y-62665000D01*
X65876000Y-62665000D02*
X65135000Y-62665000D01*
D33*
X63803000Y-63997000D02*
X65135000Y-62665000D01*
X66105000Y-62665000D02*
X66632920Y-62665000D01*
X66632920Y-62665000D02*
X67186280Y-62111640D01*
X54913000Y-63150500D02*
X54913000Y-64445900D01*
X54913000Y-64445900D02*
X54913000Y-65187000D01*
X54913000Y-65187000D02*
X54800000Y-65300000D01*
X54357400Y-65300000D02*
X54166900Y-65300000D01*
X50865000Y-62665000D02*
X39485000Y-62665000D01*
X50899800Y-62699800D02*
X50865000Y-62665000D01*
X50899800Y-64623700D02*
X50899800Y-62699800D01*
X51306200Y-65030100D02*
X50899800Y-64623700D01*
X53897000Y-65030100D02*
X51306200Y-65030100D01*
X54166900Y-65300000D02*
X53897000Y-65030100D01*
D31*
X66132500Y-56140100D02*
X67181200Y-56140100D01*
X69767560Y-54755800D02*
X70547020Y-55535260D01*
X68565500Y-54755800D02*
X69767560Y-54755800D01*
X67181200Y-56140100D02*
X68565500Y-54755800D01*
D37*
X32784600Y-28040000D02*
X34980350Y-25844250D01*
X35081950Y-25844250D02*
X34980350Y-25844250D01*
X34980350Y-25844250D02*
X32383200Y-23247100D01*
X19946090Y-26933910D02*
X19946090Y-26070310D01*
X19946090Y-26591010D02*
X19946090Y-26933910D01*
X23124900Y-23412200D02*
X19946090Y-26591010D01*
X25410900Y-23412200D02*
X23124900Y-23412200D01*
X25449000Y-23374100D02*
X25410900Y-23412200D01*
X25449000Y-21215100D02*
X25449000Y-23374100D01*
X26566600Y-20097500D02*
X25449000Y-21215100D01*
X30008300Y-20097500D02*
X26566600Y-20097500D01*
X31786300Y-21875500D02*
X30008300Y-20097500D01*
X31786300Y-18662400D02*
X31786300Y-21875500D01*
X30300400Y-20148300D02*
X31786300Y-18662400D01*
X25868100Y-20148300D02*
X30300400Y-20148300D01*
X19946090Y-26070310D02*
X25868100Y-20148300D01*
X19946090Y-30774390D02*
X19946090Y-26933910D01*
X21804100Y-25075900D02*
X24687000Y-25075900D01*
X19946090Y-26933910D02*
X21804100Y-25075900D01*
X24687000Y-25075900D02*
X26275900Y-25075900D01*
D33*
X32383200Y-23247100D02*
X31265600Y-23247100D01*
X31265600Y-23247100D02*
X28776400Y-20757900D01*
X28776400Y-20757900D02*
X27239700Y-20757900D01*
X27239700Y-20757900D02*
X26452300Y-21545300D01*
X26452300Y-21545300D02*
X26452300Y-25252300D01*
X32383200Y-23247100D02*
X32383200Y-17826740D01*
X32383200Y-17826740D02*
X32886120Y-17323820D01*
X36895000Y-25835000D02*
X36895000Y-25828500D01*
X36895000Y-25828500D02*
X35126400Y-24059900D01*
X35126400Y-24059900D02*
X33196000Y-24059900D01*
X33196000Y-24059900D02*
X32383200Y-23247100D01*
X32350000Y-28040000D02*
X32886200Y-28040000D01*
X32886200Y-28040000D02*
X35081950Y-25844250D01*
X35081950Y-25844250D02*
X35091200Y-25835000D01*
X36895000Y-25835000D02*
X39787300Y-25835000D01*
X39787300Y-25835000D02*
X40460000Y-25835000D01*
X35091200Y-25835000D02*
X36895000Y-25835000D01*
X55057500Y-66757300D02*
X55057500Y-66000100D01*
X55057500Y-66000100D02*
X54357400Y-65300000D01*
X55794300Y-68070400D02*
X55890900Y-68167000D01*
X55890900Y-68167000D02*
X55890900Y-68306700D01*
X55890900Y-68306700D02*
X55890900Y-68167000D01*
X55057500Y-66757300D02*
X55057500Y-67333600D01*
X55057500Y-67333600D02*
X55890900Y-68167000D01*
X57783660Y-70059760D02*
X57783660Y-70450000D01*
X55890900Y-68167000D02*
X56811650Y-69087750D01*
X56811650Y-69087750D02*
X57783660Y-70059760D01*
X55057500Y-67620900D02*
X55057500Y-68457500D01*
X55057500Y-68457500D02*
X57050000Y-70450000D01*
X56450000Y-69850000D02*
X55681600Y-69850000D01*
X55681600Y-69850000D02*
X55057500Y-69225900D01*
X57050000Y-70450000D02*
X56450000Y-69850000D01*
X54803780Y-72307200D02*
X54803780Y-72200520D01*
X55548000Y-71456300D02*
X55548000Y-71952000D01*
X54803780Y-72200520D02*
X55548000Y-71456300D01*
X54800000Y-65300000D02*
X54357400Y-65300000D01*
X52804800Y-72358000D02*
X53392000Y-72358000D01*
X53392000Y-72358000D02*
X55057500Y-70692500D01*
X55057500Y-70692500D02*
X55057500Y-69225900D01*
X55057500Y-69225900D02*
X55057500Y-67620900D01*
X55057500Y-67620900D02*
X55057500Y-66757300D01*
X55057500Y-66757300D02*
X55057500Y-65557500D01*
X55057500Y-65557500D02*
X54800000Y-65300000D01*
X67186280Y-62111640D02*
X67193900Y-62111640D01*
X67193900Y-62111640D02*
X67658720Y-61646820D01*
X67658720Y-61646820D02*
X68209900Y-61095640D01*
X67699360Y-61598560D02*
X67186280Y-62111640D01*
X68321660Y-59665620D02*
X68321660Y-59693560D01*
X70836260Y-57166260D02*
X68336900Y-59665620D01*
X68336900Y-59665620D02*
X68321660Y-59665620D01*
X70981040Y-57166260D02*
X70836260Y-57166260D01*
X70981040Y-57166260D02*
X70981040Y-57128160D01*
X71659220Y-54301140D02*
X71659220Y-54423060D01*
X71804000Y-54301140D02*
X71659220Y-54301140D01*
X70547020Y-55535260D02*
X70547020Y-56084220D01*
X71659220Y-54423060D02*
X70547020Y-55535260D01*
X70547020Y-56084220D02*
X70785460Y-56084220D01*
X70785460Y-56084220D02*
X70981040Y-56279800D01*
X70981040Y-56279800D02*
X70547020Y-56084220D01*
X67186280Y-62111640D02*
X67699360Y-61598560D01*
X36802800Y-64534800D02*
X36637700Y-64534800D01*
X36637700Y-64534800D02*
X36002700Y-65169800D01*
X36002700Y-72332600D02*
X36028100Y-72358000D01*
X36002700Y-65169800D02*
X36002700Y-72332600D01*
X36802800Y-64534800D02*
X36802800Y-66897000D01*
X36802800Y-66897000D02*
X36739300Y-66960500D01*
X36739300Y-66960500D02*
X36802800Y-66960500D01*
X36895000Y-62665000D02*
X36895000Y-63200000D01*
X36895000Y-63200000D02*
X36895000Y-62736002D01*
X39485000Y-62665000D02*
X39220000Y-62665000D01*
X36895000Y-62665000D02*
X39220000Y-62665000D01*
X36802800Y-62828202D02*
X36802800Y-64534800D01*
X36895000Y-62736002D02*
X36802800Y-62828202D01*
X36028100Y-72358000D02*
X34720000Y-72358000D01*
X36802800Y-71583300D02*
X36028100Y-72358000D01*
X36802800Y-64534800D02*
X36802800Y-66960500D01*
X36802800Y-66960500D02*
X36802800Y-71583300D01*
X62901300Y-51631600D02*
X63295000Y-51631600D01*
X63295000Y-51631600D02*
X71219800Y-51631600D01*
X71219800Y-51631600D02*
X71804000Y-52215800D01*
X71804000Y-52215800D02*
X63485500Y-52215800D01*
X63485500Y-52215800D02*
X62901300Y-51631600D01*
X62295000Y-51200000D02*
X62295000Y-51203100D01*
X62295000Y-51203100D02*
X62723500Y-51631600D01*
X62723500Y-51631600D02*
X62901300Y-51631600D01*
X71804000Y-52215800D02*
X71804000Y-53435000D01*
X24687000Y-51212500D02*
X24369500Y-51212500D01*
X23620200Y-53536600D02*
X23620200Y-53495960D01*
X23579560Y-53536600D02*
X23620200Y-53536600D01*
X23480500Y-53635660D02*
X23579560Y-53536600D01*
X21946340Y-53635660D02*
X23480500Y-53635660D01*
X24369500Y-51212500D02*
X21946340Y-53635660D01*
X21766000Y-53953160D02*
X21946340Y-53953160D01*
X21946340Y-53953160D02*
X24687000Y-51212500D01*
X24687000Y-51212500D02*
X25443920Y-51212500D01*
D37*
X18522420Y-61164220D02*
X18522420Y-60242200D01*
X18522420Y-60242200D02*
X20038800Y-58725820D01*
X21933640Y-54120800D02*
X21766000Y-53953160D01*
X21933640Y-56830980D02*
X21933640Y-55479700D01*
X20038800Y-58725820D02*
X21933640Y-56830980D01*
X21933640Y-55479700D02*
X21933640Y-54120800D01*
D33*
X19467300Y-31700220D02*
X19467300Y-31253180D01*
X19467300Y-31253180D02*
X19946090Y-30774390D01*
X19946090Y-30774390D02*
X20222950Y-30497530D01*
X20243270Y-31700220D02*
X19467300Y-31700220D01*
X19467300Y-31700220D02*
X18207460Y-31700220D01*
X17374340Y-32533340D02*
X17374340Y-32553660D01*
X18207460Y-31700220D02*
X17374340Y-32533340D01*
X20243270Y-30497530D02*
X20222950Y-30497530D01*
X20222950Y-30497530D02*
X19430470Y-30497530D01*
X19430470Y-30497530D02*
X17374340Y-32553660D01*
X17374340Y-32553660D02*
X15924000Y-34004000D01*
X22860740Y-37079940D02*
X22860740Y-34362140D01*
X20243270Y-31744670D02*
X20243270Y-31700220D01*
X22860740Y-34362140D02*
X20243270Y-31744670D01*
X20243270Y-31700220D02*
X20243270Y-30497530D01*
X31128440Y-17717520D02*
X31418000Y-17717520D01*
X24039300Y-37079940D02*
X24039300Y-36719260D01*
X24039300Y-36719260D02*
X23267140Y-35947100D01*
X23267140Y-35947100D02*
X23267140Y-33521400D01*
X23267140Y-33521400D02*
X20243270Y-30497530D01*
X20243270Y-30497530D02*
X19223460Y-29477720D01*
X17572460Y-59208420D02*
X17907740Y-59208420D01*
X17907740Y-59208420D02*
X23620200Y-53495960D01*
X23620200Y-53495960D02*
X24546030Y-52570130D01*
X24546030Y-52570130D02*
X25443920Y-51672240D01*
X25443920Y-51672240D02*
X25443920Y-51212500D01*
X15924000Y-36630360D02*
X15924000Y-35147000D01*
X16373580Y-37079940D02*
X15924000Y-36630360D01*
X24907980Y-37079940D02*
X24039300Y-37079940D01*
X25443920Y-51212500D02*
X25443920Y-37615880D01*
X25443920Y-37615880D02*
X24907980Y-37079940D01*
X24039300Y-37079940D02*
X22860740Y-37079940D01*
X22860740Y-37079940D02*
X16373580Y-37079940D01*
X15670000Y-52977800D02*
X15670000Y-53953160D01*
X15670000Y-52038000D02*
X15670000Y-52977800D01*
X15670000Y-53953160D02*
X15670000Y-56137880D01*
X15670000Y-56137880D02*
X16774580Y-57242460D01*
X16774580Y-57242460D02*
X16774580Y-58410540D01*
D37*
X20550000Y-63191800D02*
X18522420Y-61164220D01*
X18522420Y-61164220D02*
X17572460Y-60214260D01*
X17572460Y-60214260D02*
X17572460Y-59208420D01*
X20550000Y-63191800D02*
X20550000Y-63200000D01*
D33*
X16774580Y-58410540D02*
X17572460Y-59208420D01*
X20080680Y-63200000D02*
X20550000Y-63200000D01*
D37*
X20550000Y-63200000D02*
X23048700Y-65698700D01*
X23048700Y-65698700D02*
X25675000Y-68325000D01*
D33*
X54803780Y-72358000D02*
X54803780Y-72307200D01*
X54803780Y-72307200D02*
X54803780Y-72358000D01*
X71804000Y-54301140D02*
X71804000Y-55456840D01*
X70981040Y-56279800D02*
X70981040Y-57128160D01*
X71804000Y-55456840D02*
X70981040Y-56279800D01*
X70981040Y-57128160D02*
X70802880Y-56950000D01*
D32*
X71185000Y-56950000D02*
X70550000Y-56950000D01*
X70802880Y-56950000D02*
X71185000Y-56950000D01*
D33*
X71804000Y-54301140D02*
X71804000Y-53435000D01*
X66014630Y-33230010D02*
X66014630Y-34281570D01*
X66014630Y-34281570D02*
X65212700Y-35083500D01*
X65121260Y-35083500D02*
X65212700Y-35083500D01*
X65212700Y-35083500D02*
X65632920Y-35083500D01*
X65632920Y-35083500D02*
X66750520Y-33965900D01*
X62295000Y-37265000D02*
X62325080Y-37265000D01*
X62295000Y-46840000D02*
X62295000Y-37265000D01*
X65121260Y-35726120D02*
X65121260Y-35083500D01*
X65121260Y-35083500D02*
X65121260Y-32336640D01*
X64316080Y-36531300D02*
X65121260Y-35726120D01*
X63058780Y-36531300D02*
X64316080Y-36531300D01*
X62325080Y-37265000D02*
X63058780Y-36531300D01*
X70277460Y-33965900D02*
X66750520Y-33965900D01*
X66750520Y-33965900D02*
X66014630Y-33230010D01*
X66014630Y-33230010D02*
X65121260Y-32336640D01*
X65121260Y-32336640D02*
X64950000Y-32165380D01*
X67900000Y-32191840D02*
X65591840Y-32191840D01*
X65591840Y-32191840D02*
X64950000Y-31550000D01*
X71931000Y-32716220D02*
X66894180Y-32716220D01*
X66894180Y-32716220D02*
X64775000Y-30597040D01*
X64775000Y-30597040D02*
X64775000Y-29645000D01*
X69738980Y-33455000D02*
X69853640Y-33455000D01*
X69853640Y-33455000D02*
X71931000Y-31377640D01*
X70600000Y-31000000D02*
X70600000Y-33414680D01*
X70600000Y-33414680D02*
X71931000Y-34745680D01*
X69920160Y-31476700D02*
X69920160Y-32043960D01*
X69920160Y-30320160D02*
X69920160Y-31476700D01*
X69920160Y-32043960D02*
X71931000Y-34054800D01*
X71931000Y-34054800D02*
X71931000Y-34745680D01*
X71931000Y-34745680D02*
X71931000Y-34745680D01*
X70600000Y-31000000D02*
X70600000Y-31550000D01*
X70600000Y-31550000D02*
X69525000Y-32625000D01*
X71931000Y-35703260D02*
X71931000Y-34745680D01*
X71931000Y-34745680D02*
X71931000Y-32716220D01*
X71931000Y-32716220D02*
X71931000Y-31377640D01*
X71931000Y-31377640D02*
X71931000Y-30458160D01*
X71931000Y-30458160D02*
X71161380Y-29688540D01*
X71161380Y-29688540D02*
X67517840Y-26045000D01*
X71931000Y-36290000D02*
X71931000Y-35703260D01*
X71931000Y-35703260D02*
X71931000Y-35619440D01*
D37*
X67900000Y-33300000D02*
X67900000Y-32191840D01*
D38*
X68055000Y-33455000D02*
X67900000Y-33300000D01*
D33*
X69766560Y-33455000D02*
X69738980Y-33455000D01*
X69738980Y-33455000D02*
X68055000Y-33455000D01*
X71931000Y-35619440D02*
X70277460Y-33965900D01*
X70277460Y-33965900D02*
X69766560Y-33455000D01*
X54178940Y-16224000D02*
X54178940Y-16401800D01*
X56037860Y-18260720D02*
X57224040Y-18260720D01*
X54178940Y-16401800D02*
X56037860Y-18260720D01*
X59175880Y-18260720D02*
X57224040Y-18260720D01*
X57224040Y-18260720D02*
X55187320Y-16224000D01*
X53008000Y-16224000D02*
X54178940Y-16224000D01*
X54178940Y-16224000D02*
X55187320Y-16224000D01*
X55187320Y-16224000D02*
X56270480Y-16224000D01*
X56270480Y-16224000D02*
X57697600Y-17651120D01*
X59434960Y-17651120D02*
X57697600Y-17651120D01*
X61781920Y-19998080D02*
X59434960Y-17651120D01*
X63321160Y-19998080D02*
X61781920Y-19998080D01*
X67325000Y-24001920D02*
X63321160Y-19998080D01*
X67325000Y-24001920D02*
X67325000Y-26045000D01*
X52070740Y-16224000D02*
X51085220Y-17209520D01*
X53008000Y-16224000D02*
X52070740Y-16224000D01*
X50484000Y-25835000D02*
X50484000Y-25835000D01*
X50484000Y-25835000D02*
X49871100Y-25835000D01*
X49871100Y-25835000D02*
X44283100Y-25835000D01*
X44283100Y-25835000D02*
X43620000Y-25835000D01*
X50484000Y-25835000D02*
X50564880Y-25835000D01*
X51085220Y-17209520D02*
X51085220Y-25314660D01*
X51085220Y-25314660D02*
X50564880Y-25835000D01*
X15924000Y-35147000D02*
X15924000Y-34004000D01*
X15924000Y-34004000D02*
X15924000Y-32777180D01*
X15924000Y-32777180D02*
X19223460Y-29477720D01*
X19223460Y-29477720D02*
X19223460Y-24994620D01*
X33985940Y-16224000D02*
X34595540Y-16224000D01*
X32886120Y-17323820D02*
X33985940Y-16224000D01*
X34595540Y-16224000D02*
X35990000Y-16224000D01*
X31522140Y-17323820D02*
X32886120Y-17323820D01*
X31128440Y-17717520D02*
X31522140Y-17323820D01*
X29566340Y-19279620D02*
X31128440Y-17717520D01*
X24938460Y-19279620D02*
X29566340Y-19279620D01*
X19223460Y-24994620D02*
X24938460Y-19279620D01*
X30750000Y-70500000D02*
X30750000Y-71121040D01*
D37*
X30750000Y-70500000D02*
X29450000Y-69200000D01*
X29450000Y-69200000D02*
X26550000Y-69200000D01*
X25675000Y-68325000D02*
X26550000Y-69200000D01*
D33*
X31986960Y-72358000D02*
X34720000Y-72358000D01*
X30750000Y-71121040D02*
X31986960Y-72358000D01*
X51738000Y-72358000D02*
X52804800Y-72358000D01*
X52804800Y-72358000D02*
X53173100Y-72358000D01*
X53173100Y-72358000D02*
X54008760Y-72358000D01*
X54008760Y-72358000D02*
X54803780Y-72358000D01*
X54803780Y-72358000D02*
X55875660Y-72358000D01*
X55875660Y-72358000D02*
X57783660Y-70450000D01*
X57783660Y-70450000D02*
X59400000Y-70450000D01*
X67325000Y-26045000D02*
X67517840Y-26045000D01*
X66530740Y-33130740D02*
X64950000Y-31550000D01*
X64950000Y-31550000D02*
X64950000Y-29707800D01*
X64950000Y-29707800D02*
X66320900Y-28336900D01*
D37*
X66530740Y-30919260D02*
X67900000Y-29550000D01*
X70600000Y-31000000D02*
X69920160Y-30320160D01*
X69920160Y-30320160D02*
X67325000Y-27725000D01*
D33*
X55057500Y-70692500D02*
X55057500Y-71042500D01*
D34*
X59545000Y-50695000D02*
X59545000Y-50550000D01*
D31*
X59545000Y-50550000D02*
X59545000Y-50885000D01*
X59545000Y-50885000D02*
X60400000Y-51740000D01*
D33*
X66320900Y-28789020D02*
X66320900Y-28336900D01*
X66536800Y-28121000D02*
X66536800Y-26833200D01*
X66320900Y-28336900D02*
X66536800Y-28121000D01*
X66536800Y-26833200D02*
X67325000Y-26045000D01*
X64950000Y-31550000D02*
X64950000Y-31250000D01*
X64950000Y-31250000D02*
X67900000Y-28300000D01*
X64950000Y-31550000D02*
X64950000Y-32165380D01*
X64950000Y-32165380D02*
X65050900Y-32266280D01*
X64775000Y-29645000D02*
X65353160Y-29645000D01*
X65353160Y-29645000D02*
X67900000Y-32191840D01*
X64775000Y-29645000D02*
X65464920Y-29645000D01*
X65464920Y-29645000D02*
X66320900Y-28789020D01*
X67325000Y-27784920D02*
X67325000Y-27725000D01*
X67325000Y-27725000D02*
X67325000Y-26045000D01*
X66320900Y-28789020D02*
X67325000Y-27784920D01*
X67325000Y-26045000D02*
X67325000Y-27735720D01*
X67325000Y-27735720D02*
X67900000Y-28310720D01*
D32*
X67900000Y-26620000D02*
X67900000Y-28310720D01*
X67900000Y-28310720D02*
X67900000Y-28300000D01*
D37*
X67900000Y-28300000D02*
X67900000Y-29550000D01*
D32*
X67900000Y-26620000D02*
X67325000Y-26045000D01*
D37*
X63260200Y-20683880D02*
X61599040Y-20683880D01*
X61599040Y-20683880D02*
X60642730Y-19727570D01*
X63260200Y-20683880D02*
X66214020Y-23637700D01*
X66214020Y-23637700D02*
X67325000Y-24748680D01*
X60642730Y-19727570D02*
X59175880Y-18260720D01*
D38*
X58769480Y-17854320D02*
X59175880Y-18260720D01*
D37*
X67325000Y-26045000D02*
X67325000Y-24748680D01*
D33*
X43620000Y-25835000D02*
X40460000Y-25835000D01*
X67805000Y-29645000D02*
X67900000Y-29550000D01*
D36*
X67805000Y-29645000D02*
X67900000Y-29550000D01*
D34*
X49150000Y-41710000D02*
X48624720Y-41710000D01*
X48624720Y-41710000D02*
X48020200Y-41105480D01*
X49150000Y-41710000D02*
X52020000Y-41710000D01*
D32*
X59120000Y-33340000D02*
X59120000Y-32083400D01*
D33*
X34150000Y-36860000D02*
X34150000Y-35773280D01*
X34150000Y-35773280D02*
X35373280Y-34550000D01*
X35373280Y-34550000D02*
X37200000Y-34550000D01*
D32*
X64950000Y-31550000D02*
X64950000Y-29820000D01*
X64950000Y-29820000D02*
X64775000Y-29645000D01*
D33*
X63565000Y-65205000D02*
X63565000Y-65385000D01*
D38*
X62050000Y-69050000D02*
X62100000Y-69050000D01*
X62100000Y-69050000D02*
X62200000Y-69050000D01*
X62200000Y-69050000D02*
X63565000Y-67685000D01*
D33*
X60975000Y-69625000D02*
X61550000Y-69050000D01*
X61550000Y-69050000D02*
X62050000Y-69050000D01*
X63565000Y-67110000D02*
X63565000Y-66475000D01*
X63565000Y-67685000D02*
X63565000Y-67110000D01*
X63565000Y-67885000D02*
X63565000Y-67685000D01*
X62050000Y-69050000D02*
X62400000Y-69050000D01*
D32*
X63565000Y-66475000D02*
X64200000Y-66475000D01*
D33*
X63565000Y-66475000D02*
X63565000Y-65205000D01*
D36*
X31990000Y-40500000D02*
X32600000Y-39890000D01*
X34150000Y-37100000D02*
X34150000Y-36860000D01*
X31815000Y-40500000D02*
X31990000Y-40500000D01*
X31815000Y-40500000D02*
X31815000Y-40215000D01*
D32*
X31180000Y-50715000D02*
X31180000Y-51770000D01*
X31180000Y-51770000D02*
X31320000Y-51910000D01*
X28350000Y-54820000D02*
X26770000Y-54820000D01*
X26770000Y-54820000D02*
X24830000Y-52880000D01*
X47680000Y-32670000D02*
X47610000Y-32600000D01*
X47610000Y-32600000D02*
X47630000Y-32185000D01*
X31180000Y-50715000D02*
X32450000Y-50715000D01*
X52020000Y-40440000D02*
X52020000Y-41710000D01*
X58600000Y-31550000D02*
X58600000Y-29720000D01*
X58600000Y-29720000D02*
X58525000Y-29645000D01*
X47825000Y-53800000D02*
X47805000Y-53780000D01*
D31*
X48475000Y-53775000D02*
X47805000Y-53775000D01*
D32*
X47805000Y-53780000D02*
X47805000Y-53775000D01*
D33*
X38150000Y-36860000D02*
X38150000Y-35500000D01*
X38150000Y-35500000D02*
X37200000Y-34550000D01*
D32*
X36060000Y-31710000D02*
X37255000Y-31710000D01*
X37255000Y-31710000D02*
X37415000Y-31550000D01*
X37350000Y-31525000D02*
X37375000Y-31550000D01*
X37375000Y-31550000D02*
X37415000Y-31550000D01*
X37200000Y-31765000D02*
X37415000Y-31550000D01*
X37300000Y-31665000D02*
X37415000Y-31550000D01*
D31*
X62295000Y-46840000D02*
X61500000Y-46840000D01*
X61500000Y-46840000D02*
X61040000Y-47300000D01*
D33*
X68950000Y-33200000D02*
X68950000Y-30600000D01*
X68950000Y-30600000D02*
X67900000Y-29550000D01*
X69525000Y-32625000D02*
X68950000Y-33200000D01*
X68950000Y-33200000D02*
X68850000Y-33300000D01*
X62295000Y-51200000D02*
X62295000Y-46840000D01*
D37*
X67900000Y-32191840D02*
X67900000Y-29550000D01*
D33*
X62295000Y-51235000D02*
X62295000Y-51200000D01*
X27675000Y-66050000D02*
X27675000Y-61275000D01*
X27675000Y-61275000D02*
X28800000Y-60150000D01*
X25675000Y-68325000D02*
X25675000Y-68050000D01*
X25675000Y-68050000D02*
X27675000Y-66050000D01*
D36*
X33740000Y-30480000D02*
X33740000Y-31800000D01*
D32*
X31815000Y-35475000D02*
X31930000Y-35360000D01*
D36*
X31930000Y-33610000D02*
X31930000Y-35360000D01*
X33740000Y-31800000D02*
X31930000Y-33610000D01*
D33*
X33740000Y-30480000D02*
X33740000Y-30390000D01*
X33740000Y-30390000D02*
X32350000Y-29000000D01*
X32350000Y-29000000D02*
X32350000Y-28040000D01*
D32*
X26050000Y-32850000D02*
X26050000Y-31640000D01*
D34*
X54660000Y-54440000D02*
X54660000Y-54490000D01*
X49795000Y-55130000D02*
X48960000Y-54295000D01*
X54020000Y-55130000D02*
X49795000Y-55130000D01*
X54660000Y-54490000D02*
X54020000Y-55130000D01*
X54660000Y-54440000D02*
X54515000Y-54295000D01*
D31*
X48960000Y-54295000D02*
X48960000Y-54260000D01*
X48960000Y-54260000D02*
X48475000Y-53775000D01*
D33*
X40130000Y-56315000D02*
X39115000Y-56315000D01*
X39115000Y-56315000D02*
X39100000Y-56300000D01*
X40130000Y-56315000D02*
X40130000Y-57820000D01*
X40130000Y-57820000D02*
X39800000Y-58150000D01*
X39800000Y-58150000D02*
X39800000Y-62665000D01*
X39800000Y-62665000D02*
X39485000Y-62665000D01*
D32*
X40130000Y-56315000D02*
X40130000Y-57490000D01*
X40130000Y-56315000D02*
X40130000Y-57555000D01*
D33*
X62100000Y-69050000D02*
X60150000Y-69050000D01*
X60150000Y-69050000D02*
X59900000Y-69300000D01*
X59900000Y-69300000D02*
X60225000Y-69625000D01*
X60225000Y-69625000D02*
X60975000Y-69625000D01*
D37*
X59400000Y-70450000D02*
X60225000Y-69625000D01*
X60225000Y-69625000D02*
X60250000Y-69600000D01*
D33*
X54257500Y-71492500D02*
X54607500Y-71492500D01*
X54607500Y-71492500D02*
X55057500Y-71042500D01*
X55057500Y-71042500D02*
X55407500Y-70692500D01*
D37*
X56300000Y-71200000D02*
X55548000Y-71952000D01*
D33*
X56300000Y-70600000D02*
X56300000Y-71200000D01*
X56715000Y-70600000D02*
X56300000Y-70600000D01*
X56807500Y-70692500D02*
X56715000Y-70600000D01*
X55407500Y-70692500D02*
X56807500Y-70692500D01*
D37*
X55548000Y-71952000D02*
X57050000Y-70450000D01*
X57050000Y-70450000D02*
X59400000Y-70450000D01*
D34*
X32340000Y-67410000D02*
X32390000Y-67410000D01*
D32*
X28925000Y-66050000D02*
X28925000Y-66955000D01*
D34*
X29380000Y-67410000D02*
X32340000Y-67410000D01*
X28925000Y-66955000D02*
X29380000Y-67410000D01*
X35970000Y-61630000D02*
X35970000Y-61525000D01*
X34400000Y-63200000D02*
X35970000Y-61630000D01*
X34400000Y-64900000D02*
X34400000Y-63200000D01*
X33800000Y-65500000D02*
X34400000Y-64900000D01*
X33800000Y-66000000D02*
X33800000Y-65500000D01*
X32390000Y-67410000D02*
X33800000Y-66000000D01*
D31*
X56203320Y-55568600D02*
X55893440Y-55568600D01*
X58308980Y-54920900D02*
X57661280Y-55568600D01*
X57661280Y-55568600D02*
X56203320Y-55568600D01*
X58456300Y-54920900D02*
X58308980Y-54920900D01*
X54874900Y-56587140D02*
X54874900Y-56673500D01*
X55893440Y-55568600D02*
X54874900Y-56587140D01*
D34*
X54913000Y-56432200D02*
X54913000Y-56433050D01*
D31*
X53465200Y-56673500D02*
X54874900Y-56673500D01*
X54874900Y-56673500D02*
X54913000Y-56635400D01*
D33*
X54913000Y-58070500D02*
X54913000Y-56635400D01*
D31*
X55624200Y-58908700D02*
X55624200Y-59594500D01*
X55624200Y-59594500D02*
X55916300Y-59886600D01*
D33*
X59479920Y-65164720D02*
X59479920Y-62497720D01*
X57823840Y-61217560D02*
X57254880Y-60648600D01*
X58199760Y-61217560D02*
X57823840Y-61217560D01*
X59479920Y-62497720D02*
X58199760Y-61217560D01*
D31*
X59972680Y-66592200D02*
X59972680Y-66434720D01*
D33*
X59972680Y-67750000D02*
X59972680Y-66592200D01*
D31*
X58875400Y-65215520D02*
X58875400Y-64547500D01*
X59678040Y-66018160D02*
X58875400Y-65215520D01*
X59678040Y-66140080D02*
X59678040Y-66018160D01*
X59972680Y-66434720D02*
X59678040Y-66140080D01*
D32*
X60272400Y-66739520D02*
X60465440Y-66739520D01*
X60465440Y-66739520D02*
X60480680Y-66754760D01*
D35*
X30676320Y-30901320D02*
X30676320Y-30905200D01*
X30676320Y-30900120D02*
X30564560Y-30788360D01*
X30564560Y-30788360D02*
X30564560Y-29879040D01*
X30564560Y-29879040D02*
X30236900Y-29551380D01*
X30236900Y-29551380D02*
X30236900Y-29393900D01*
D34*
X30236900Y-29368500D02*
X30236900Y-29393900D01*
X30236900Y-29368500D02*
X30236900Y-28339800D01*
X30236900Y-28339800D02*
X29335200Y-27438100D01*
X29335200Y-27438100D02*
X28103300Y-27438100D01*
X28103300Y-27438100D02*
X27252400Y-28289000D01*
X27252400Y-31592400D02*
X27252400Y-28289000D01*
D35*
X30676320Y-30901320D02*
X30676320Y-30900120D01*
X30676320Y-30905200D02*
X30894760Y-31123640D01*
X27280000Y-39220000D02*
X27280000Y-39391680D01*
D39*
X26393880Y-41783880D02*
X27180000Y-42570000D01*
X26393880Y-40277800D02*
X26393880Y-41783880D01*
X27280000Y-39391680D02*
X26393880Y-40277800D01*
X55518280Y-23107040D02*
X53830600Y-23107040D01*
X56524120Y-24112880D02*
X55518280Y-23107040D01*
X53830600Y-23107040D02*
X53719200Y-22995640D01*
X52950340Y-26668120D02*
X52950340Y-24186540D01*
X52950340Y-23764500D02*
X52950340Y-24186540D01*
X53719200Y-22995640D02*
X52950340Y-23764500D01*
D34*
X41410000Y-28970000D02*
X41826640Y-28970000D01*
D35*
X51971680Y-28080720D02*
X52124840Y-28233880D01*
D34*
X51750000Y-30200000D02*
X51750000Y-28770160D01*
X48900000Y-30700000D02*
X48550000Y-30350000D01*
X51750000Y-30200000D02*
X51750000Y-30400000D01*
X51750000Y-30400000D02*
X51450000Y-30700000D01*
X51450000Y-30700000D02*
X48970000Y-30700000D01*
X48970000Y-30700000D02*
X48900000Y-30700000D01*
X48550000Y-29000000D02*
X47650000Y-28100000D01*
X48550000Y-30350000D02*
X48550000Y-29000000D01*
X51750000Y-28770160D02*
X52124840Y-28395320D01*
D35*
X52124840Y-28233880D02*
X52124840Y-28395320D01*
D34*
X47310680Y-27760680D02*
X47650000Y-28100000D01*
X44341520Y-27760680D02*
X47310680Y-27760680D01*
X44158640Y-27577800D02*
X44341520Y-27760680D01*
X43218840Y-27577800D02*
X44158640Y-27577800D01*
X41826640Y-28970000D02*
X43218840Y-27577800D01*
D39*
X53900000Y-28470402D02*
X53553500Y-28470402D01*
D34*
X52855600Y-28080720D02*
X51971680Y-28080720D01*
X52855600Y-28080720D02*
X53002920Y-28228040D01*
D39*
X53171782Y-28396902D02*
X53002920Y-28228040D01*
X53480000Y-28396902D02*
X53171782Y-28396902D01*
X53553500Y-28470402D02*
X53480000Y-28396902D01*
D34*
X29116760Y-48266100D02*
X29120000Y-48266100D01*
X29114220Y-48263560D02*
X29116760Y-48266100D01*
X29120000Y-48270000D02*
X29120000Y-48266100D01*
X29120000Y-48266100D02*
X29120000Y-47570000D01*
X28342060Y-46051220D02*
X28350000Y-46059160D01*
X28350000Y-46059160D02*
X28350000Y-46130000D01*
X29120000Y-47570000D02*
X28350000Y-46800000D01*
X28350000Y-46800000D02*
X28350000Y-46130000D01*
X34770000Y-30842582D02*
X34770000Y-29940800D01*
X34650000Y-31694118D02*
X34681998Y-31662120D01*
X34681998Y-31662120D02*
X34681998Y-30930584D01*
X34681998Y-30930584D02*
X34770000Y-30842582D01*
X34070000Y-33050000D02*
X34150000Y-33050000D01*
X34150000Y-33050000D02*
X34650000Y-32550000D01*
X34650000Y-32550000D02*
X34650000Y-31694118D01*
X34770000Y-29940800D02*
X34864780Y-29846020D01*
X55325000Y-28710040D02*
X55085362Y-28470402D01*
X55085362Y-28470402D02*
X53900000Y-28470402D01*
X53900000Y-28470402D02*
X53885060Y-28470402D01*
X55325000Y-28720000D02*
X55325000Y-28710040D01*
D35*
X52929260Y-26648160D02*
X52950340Y-26627080D01*
X52950340Y-26668120D02*
X52950340Y-26627080D01*
D32*
X54710000Y-38460000D02*
X56054300Y-38460000D01*
X54250000Y-38000000D02*
X53370000Y-38000000D01*
X54250000Y-38000000D02*
X54710000Y-38460000D01*
X53370000Y-38000000D02*
X53250000Y-38000000D01*
X53250000Y-38000000D02*
X52740000Y-37490000D01*
X56426840Y-39106860D02*
X56969980Y-39650000D01*
X56426840Y-38832540D02*
X56426840Y-39106860D01*
X56054300Y-38460000D02*
X56426840Y-38832540D01*
D36*
X59705980Y-47565060D02*
X59772020Y-47499020D01*
D33*
X58456300Y-54920900D02*
X59218300Y-54920900D01*
X59218300Y-54920900D02*
X59802500Y-54336700D01*
D31*
X58189600Y-54920900D02*
X58456300Y-54920900D01*
X55916300Y-59886600D02*
X55929000Y-59886600D01*
X57027602Y-61002142D02*
X57027602Y-61357742D01*
X57027602Y-61357742D02*
X57474160Y-61804300D01*
X57474160Y-61804300D02*
X58583300Y-61804300D01*
X58875400Y-62096400D02*
X58583300Y-61804300D01*
D34*
X55624200Y-59594500D02*
X55916300Y-59886600D01*
D31*
X55624200Y-58908700D02*
X54913000Y-58197500D01*
X57027602Y-60985202D02*
X57027602Y-61002142D01*
X55929000Y-59886600D02*
X57027602Y-60985202D01*
X54913000Y-58070500D02*
X54913000Y-58197500D01*
D39*
X58875400Y-64547500D02*
X58875400Y-64560200D01*
X58875400Y-64560200D02*
X59479920Y-65164720D01*
X59479920Y-65164720D02*
X60043800Y-65728600D01*
X60043800Y-65728600D02*
X60043800Y-65830200D01*
D31*
X58875400Y-62096400D02*
X58875400Y-64547500D01*
D39*
X60043800Y-65411100D02*
X60043800Y-63937900D01*
X60043800Y-63937900D02*
X60450200Y-63531500D01*
D35*
X60043800Y-65411100D02*
X60043800Y-65830200D01*
D32*
X60272400Y-66414400D02*
X60272400Y-66338200D01*
X60272400Y-66338200D02*
X60145400Y-66211200D01*
X60145400Y-66211200D02*
X60145400Y-65931800D01*
X60145400Y-65931800D02*
X60043800Y-65830200D01*
D35*
X60272400Y-67750000D02*
X60272400Y-66739520D01*
X60272400Y-66739520D02*
X60272400Y-66414400D01*
D32*
X60043800Y-65830200D02*
X60043800Y-65830200D01*
D33*
X60272400Y-67750000D02*
X59972680Y-67750000D01*
X59972680Y-67750000D02*
X57275000Y-67750000D01*
D31*
X54913000Y-58070500D02*
X54913000Y-58362600D01*
X60310500Y-63531500D02*
X60539100Y-63531500D01*
X58875400Y-62096400D02*
X60310500Y-63531500D01*
D34*
X27252400Y-31592400D02*
X27300000Y-31640000D01*
D31*
X60539100Y-63531500D02*
X60450200Y-63531500D01*
D33*
X60450200Y-63531500D02*
X60450200Y-63417200D01*
D31*
X54938400Y-58070500D02*
X54913000Y-58070500D01*
D33*
X60539100Y-63531500D02*
X62507600Y-63531500D01*
D35*
X60132700Y-63937900D02*
X60539100Y-63531500D01*
D34*
X62152000Y-66770000D02*
X62152000Y-66693800D01*
X62152000Y-66693800D02*
X62507600Y-66338200D01*
X62507600Y-66338200D02*
X62507600Y-63531500D01*
D33*
X61175000Y-67747000D02*
X62152000Y-66770000D01*
X61175000Y-67750000D02*
X61175000Y-67747000D01*
D34*
X62507600Y-61423300D02*
X63803000Y-60127900D01*
X62507600Y-63531500D02*
X62507600Y-61423300D01*
D33*
X54913000Y-58070500D02*
X54913000Y-57321200D01*
X59777100Y-54336700D02*
X59802500Y-54336700D01*
X59802500Y-54336700D02*
X60170800Y-54336700D01*
X60170800Y-54336700D02*
X61501760Y-53005740D01*
D31*
X61501760Y-53005740D02*
X61501760Y-52606960D01*
X51623700Y-56673500D02*
X51128400Y-56673500D01*
X51623700Y-56673500D02*
X53465200Y-56673500D01*
X55052700Y-58261000D02*
X53465200Y-56673500D01*
X50315600Y-57486300D02*
X50150500Y-57486300D01*
X51128400Y-56673500D02*
X50315600Y-57486300D01*
X50150500Y-57486300D02*
X49172600Y-57486300D01*
D34*
X50175900Y-57486300D02*
X50150500Y-57486300D01*
D31*
X49172600Y-57486300D02*
X49020200Y-57638700D01*
D34*
X66482700Y-57537100D02*
X63891900Y-60127900D01*
X63891900Y-60127900D02*
X63803000Y-60127900D01*
X48258900Y-58400000D02*
X49020200Y-57638700D01*
X49020200Y-57638700D02*
X49020200Y-57626000D01*
X48250000Y-58400000D02*
X48258900Y-58400000D01*
D31*
X58171820Y-39746940D02*
X58423280Y-39998400D01*
X58171820Y-39650000D02*
X58171820Y-39746940D01*
D34*
X37580000Y-59915000D02*
X35970000Y-61525000D01*
D35*
X36002700Y-61557700D02*
X35970000Y-61525000D01*
D32*
X28925000Y-66050000D02*
X28925000Y-65050000D01*
X28975000Y-65000000D02*
X28925000Y-65050000D01*
D34*
X63565000Y-60043320D02*
X63565000Y-60125000D01*
D32*
X52950340Y-26668120D02*
X52955420Y-26673200D01*
X56940000Y-39650000D02*
X56969980Y-39650000D01*
X56969980Y-39650000D02*
X58171820Y-39650000D01*
X58171820Y-39650000D02*
X58180000Y-39650000D01*
X59775000Y-28825000D02*
X59800000Y-28800000D01*
X59775000Y-28825000D02*
X59775000Y-29645000D01*
D31*
X35400000Y-53350000D02*
X36750000Y-53350000D01*
D33*
X37300000Y-53900000D02*
X36750000Y-53350000D01*
X37300000Y-54350000D02*
X37300000Y-53900000D01*
X34950000Y-54000000D02*
X34950000Y-53800000D01*
X34950000Y-53800000D02*
X35400000Y-53350000D01*
X34950000Y-54000000D02*
X34375000Y-54575000D01*
D32*
X37580000Y-59915000D02*
X37580000Y-58740000D01*
D34*
X37580000Y-58740000D02*
X38660000Y-57660000D01*
D33*
X46690000Y-59960000D02*
X47900000Y-58750000D01*
X43860000Y-59960000D02*
X46690000Y-59960000D01*
X41440000Y-60240000D02*
X41440000Y-58850000D01*
X41440000Y-58850000D02*
X41120000Y-58530000D01*
D34*
X47900000Y-58750000D02*
X48250000Y-58400000D01*
X48250000Y-58400000D02*
X48200000Y-58450000D01*
X28215000Y-37950000D02*
X28215000Y-34995000D01*
X27300000Y-34080000D02*
X27300000Y-31640000D01*
X28215000Y-34995000D02*
X27300000Y-34080000D01*
D32*
X27280000Y-39220000D02*
X27280000Y-38885000D01*
X27280000Y-38885000D02*
X28215000Y-37950000D01*
D33*
X60272400Y-67750000D02*
X61175000Y-67750000D01*
D34*
X53135000Y-35040000D02*
X53135000Y-34315000D01*
X55325000Y-32125000D02*
X55325000Y-28720000D01*
X53135000Y-34315000D02*
X55325000Y-32125000D01*
D32*
X55325000Y-28720000D02*
X55325000Y-28625000D01*
X61501760Y-51474120D02*
X61501760Y-52606960D01*
X61441998Y-51235000D02*
X61441998Y-51414358D01*
D35*
X61341998Y-49110980D02*
X61441998Y-49210980D01*
X61441998Y-49210980D02*
X61441998Y-51235000D01*
D34*
X60851520Y-48865540D02*
X61159118Y-48865540D01*
D31*
X59772020Y-47450760D02*
X59878700Y-47557440D01*
X59878700Y-47557440D02*
X59878700Y-47892720D01*
X59878700Y-47892720D02*
X60851520Y-48865540D01*
D34*
X61159118Y-48865540D02*
X61341998Y-49048420D01*
D35*
X61341998Y-49048420D02*
X61341998Y-49110980D01*
D32*
X61441998Y-51414358D02*
X61501760Y-51474120D01*
X61501760Y-52606960D02*
X61504300Y-52609500D01*
D36*
X41250000Y-48670000D02*
X41246002Y-48670000D01*
D32*
X41250000Y-48670000D02*
X42244240Y-47675760D01*
X42244240Y-47675760D02*
X42244240Y-46119440D01*
D36*
X38969384Y-41292644D02*
X39417220Y-41740480D01*
X39417220Y-41740480D02*
X39417220Y-42426280D01*
D32*
X39417220Y-42426280D02*
X41954680Y-44963740D01*
X41954680Y-44963740D02*
X41954680Y-45829880D01*
X41954680Y-45829880D02*
X42244240Y-46119440D01*
D36*
X38721260Y-41292644D02*
X38969384Y-41292644D01*
X40990000Y-52940000D02*
X40920000Y-53010000D01*
X40990000Y-50430000D02*
X40990000Y-52940000D01*
X40956002Y-50396002D02*
X40990000Y-50430000D01*
X40956002Y-48960000D02*
X40956002Y-50396002D01*
X41246002Y-48670000D02*
X40956002Y-48960000D01*
D32*
X40920000Y-53010000D02*
X39820000Y-53010000D01*
X34575000Y-58675000D02*
X35575000Y-58675000D01*
X33425000Y-59825000D02*
X34575000Y-58675000D01*
X38200000Y-56050000D02*
X38200000Y-55525000D01*
X35575000Y-58675000D02*
X38200000Y-56050000D01*
X39300000Y-54425000D02*
X38200000Y-55525000D01*
X39300000Y-53530000D02*
X39300000Y-54425000D01*
X39820000Y-53010000D02*
X39300000Y-53530000D01*
D36*
X36508920Y-39611960D02*
X36546752Y-39611960D01*
X38227436Y-41292644D02*
X38721260Y-41292644D01*
X38721260Y-41292644D02*
X38723800Y-41292644D01*
X36546752Y-39611960D02*
X38227436Y-41292644D01*
X40049680Y-50333300D02*
X40106700Y-50333300D01*
D32*
X40781200Y-48413060D02*
X41566060Y-47628200D01*
X41566060Y-47628200D02*
X41566060Y-46599500D01*
X41566060Y-46599500D02*
X38838100Y-43871540D01*
X38838100Y-43871540D02*
X38838100Y-42558360D01*
X38838100Y-42558360D02*
X38198020Y-41918280D01*
D36*
X33402500Y-50333300D02*
X40049680Y-50333300D01*
X33214540Y-50521260D02*
X33402500Y-50333300D01*
X33214540Y-51392480D02*
X33214540Y-50521260D01*
X31301920Y-53305100D02*
X33214540Y-51392480D01*
X31301920Y-60056420D02*
X31301920Y-53305100D01*
X31317160Y-60071660D02*
X31301920Y-60056420D01*
X36072040Y-40747340D02*
X36552100Y-40747340D01*
D32*
X37723040Y-41918280D02*
X38198020Y-41918280D01*
X36552100Y-40747340D02*
X37723040Y-41918280D01*
D36*
X40550000Y-48644260D02*
X40781200Y-48413060D01*
X40550000Y-49890000D02*
X40550000Y-48644260D01*
X40106700Y-50333300D02*
X40550000Y-49890000D01*
D32*
X46305000Y-56240000D02*
X46305000Y-53775000D01*
X46305000Y-56240000D02*
X46380000Y-56315000D01*
X41380000Y-32185000D02*
X41380000Y-30697040D01*
X41380000Y-30697040D02*
X41009040Y-30326080D01*
X41009040Y-30326080D02*
X39195480Y-30326080D01*
X39195480Y-30326080D02*
X38961800Y-30559760D01*
X38961800Y-30559760D02*
X36409760Y-30559760D01*
X36409760Y-30559760D02*
X36060000Y-30210000D01*
D36*
X34400000Y-33930000D02*
X33910000Y-33930000D01*
X34400000Y-33930000D02*
X34760000Y-33930000D01*
X33910000Y-33930000D02*
X33030000Y-34810000D01*
X35260000Y-33430000D02*
X34760000Y-33930000D01*
X33030000Y-34927660D02*
X33030000Y-34810000D01*
X33094400Y-34992060D02*
X33030000Y-34927660D01*
D32*
X36060000Y-30210000D02*
X36060000Y-30370000D01*
X36060000Y-30370000D02*
X35260000Y-31170000D01*
X35260000Y-31170000D02*
X35260000Y-33430000D01*
X35260000Y-33430000D02*
X35260000Y-33510000D01*
X36060000Y-30210000D02*
X35800000Y-30210000D01*
X33150000Y-46620000D02*
X33020000Y-46750000D01*
X33020000Y-46750000D02*
X31815000Y-46750000D01*
X32450000Y-49215000D02*
X33200000Y-49215000D01*
X33720000Y-47425000D02*
X33710000Y-47415000D01*
X33710000Y-47415000D02*
X33045000Y-46750000D01*
X33720000Y-48695000D02*
X33720000Y-47425000D01*
X33200000Y-49215000D02*
X33720000Y-48695000D01*
X33045000Y-46750000D02*
X31815000Y-46750000D01*
X55905000Y-41710000D02*
X53520000Y-41710000D01*
X55905000Y-41710000D02*
X55945000Y-41750000D01*
X27806120Y-50958880D02*
X27806120Y-52393600D01*
X26609560Y-53290000D02*
X26673280Y-53353720D01*
X26673280Y-53353720D02*
X27384480Y-53353720D01*
X27384480Y-53353720D02*
X27806120Y-52932080D01*
X27806120Y-52932080D02*
X27806120Y-52393600D01*
X26450000Y-53290000D02*
X26609560Y-53290000D01*
X27806120Y-50958880D02*
X28215000Y-50550000D01*
X29340000Y-42775000D02*
X29340000Y-42919120D01*
X28275000Y-41710000D02*
X29340000Y-42775000D01*
X29421560Y-44701560D02*
X29600000Y-44880000D01*
X29421560Y-43000680D02*
X29421560Y-44701560D01*
X29340000Y-42919120D02*
X29421560Y-43000680D01*
X29600000Y-44880000D02*
X28200000Y-44880000D01*
X28215000Y-47915000D02*
X28215000Y-50550000D01*
X28200000Y-44880000D02*
X27520000Y-45560000D01*
D36*
X27520000Y-45560000D02*
X27520000Y-47220000D01*
D32*
X27520000Y-47220000D02*
X28215000Y-47915000D01*
X29340000Y-44620000D02*
X29340000Y-44430000D01*
X29600000Y-44880000D02*
X29340000Y-44620000D01*
X28490000Y-50550000D02*
X28215000Y-50550000D01*
X30050000Y-57250000D02*
X30400000Y-56900000D01*
X30400000Y-54620000D02*
X30400000Y-56900000D01*
X30200000Y-54420000D02*
X30400000Y-54620000D01*
X30200000Y-49210000D02*
X30200000Y-54420000D01*
X30200000Y-49200000D02*
X30200000Y-49210000D01*
X29960000Y-48960000D02*
X30200000Y-49200000D01*
X24500000Y-57250000D02*
X30050000Y-57250000D01*
X22600000Y-59150000D02*
X24500000Y-57250000D01*
X29960000Y-46480000D02*
X29960000Y-48960000D01*
X29600000Y-46120000D02*
X29960000Y-46480000D01*
D36*
X33630000Y-41830000D02*
X33630000Y-42813800D01*
X33630000Y-39715826D02*
X32756002Y-38841828D01*
D32*
X38570000Y-48270000D02*
X38550000Y-48250000D01*
D36*
X38550000Y-48250000D02*
X38550000Y-45550000D01*
X38550000Y-45550000D02*
X38000000Y-45000000D01*
X38000000Y-45000000D02*
X38000000Y-44740000D01*
X33630000Y-41830000D02*
X33630000Y-39850000D01*
X31624174Y-37710000D02*
X31420000Y-37710000D01*
X32756002Y-38841828D02*
X31624174Y-37710000D01*
X33630000Y-39850000D02*
X33630000Y-39715826D01*
X37550640Y-44290640D02*
X38000000Y-44740000D01*
X35106840Y-44290640D02*
X37550640Y-44290640D01*
X33630000Y-42813800D02*
X35106840Y-44290640D01*
D32*
X36075000Y-54500000D02*
X35300000Y-55275000D01*
X35300000Y-55275000D02*
X35300000Y-57750000D01*
X31250000Y-66125000D02*
X31175000Y-66050000D01*
X30175000Y-66050000D02*
X31175000Y-66050000D01*
X52576200Y-46221400D02*
X53298600Y-46221400D01*
X54220000Y-45910000D02*
X54630000Y-45500000D01*
X53610000Y-45910000D02*
X54220000Y-45910000D01*
X53298600Y-46221400D02*
X53610000Y-45910000D01*
X54630000Y-45500000D02*
X55945000Y-45500000D01*
D36*
X54554900Y-45500000D02*
X55945000Y-45500000D01*
D32*
X43122320Y-30158440D02*
X42630000Y-30650760D01*
X42630000Y-32185000D02*
X42630000Y-30650760D01*
X45340000Y-49940000D02*
X45340000Y-49710000D01*
X45110000Y-43095800D02*
X45360060Y-42845740D01*
X45110000Y-47360000D02*
X45110000Y-43095800D01*
X45010000Y-47460000D02*
X45110000Y-47360000D01*
X45010000Y-49380000D02*
X45010000Y-47460000D01*
X45340000Y-49710000D02*
X45010000Y-49380000D01*
X45340000Y-49940000D02*
X45340000Y-50280000D01*
X45460000Y-53070000D02*
X45460000Y-55985000D01*
X45270000Y-52880000D02*
X45460000Y-53070000D01*
X45270000Y-50350000D02*
X45270000Y-52880000D01*
X45340000Y-50280000D02*
X45270000Y-50350000D01*
X45460000Y-55985000D02*
X45130000Y-56315000D01*
D36*
X36897162Y-48421422D02*
X38367440Y-49891700D01*
X38367440Y-49891700D02*
X39308300Y-49891700D01*
D32*
X36896422Y-48403578D02*
X36896422Y-48421422D01*
X36442844Y-47950000D02*
X36896422Y-48403578D01*
X33975000Y-45500000D02*
X31815000Y-45500000D01*
X33975000Y-45500000D02*
X36425000Y-47950000D01*
X36425000Y-47950000D02*
X36442844Y-47950000D01*
D36*
X36896422Y-48421422D02*
X36897162Y-48421422D01*
X39350420Y-49891700D02*
X39716180Y-49525940D01*
X39308300Y-49891700D02*
X39350420Y-49891700D01*
X39716180Y-49513240D02*
X39716180Y-49525940D01*
X39731420Y-49498000D02*
X39716180Y-49513240D01*
X45350000Y-42855800D02*
X45360060Y-42845740D01*
X55945000Y-43000000D02*
X54942800Y-43000000D01*
X54942800Y-43000000D02*
X54506600Y-42563800D01*
X48403800Y-42850000D02*
X48025000Y-42850000D01*
X48690000Y-42563800D02*
X48403800Y-42850000D01*
X54506600Y-42563800D02*
X48690000Y-42563800D01*
D32*
X59389240Y-39429080D02*
X59389240Y-38105760D01*
X59389240Y-38105760D02*
X59545000Y-37950000D01*
X55945000Y-43000000D02*
X57304220Y-43000000D01*
X57304220Y-43000000D02*
X59389240Y-40914980D01*
X59389240Y-40914980D02*
X59389240Y-39429080D01*
X59389240Y-39429080D02*
X59389240Y-39421460D01*
D36*
X55945000Y-43000000D02*
X54781360Y-43000000D01*
X48321720Y-42553280D02*
X48025000Y-42850000D01*
D32*
X45350000Y-49940000D02*
X45350000Y-50050000D01*
X45340000Y-49940000D02*
X45350000Y-49940000D01*
X55970000Y-42975000D02*
X55945000Y-43000000D01*
X59545000Y-37950000D02*
X59545000Y-37355000D01*
X59545000Y-37355000D02*
X60400000Y-36500000D01*
X48025000Y-42850000D02*
X48150000Y-42725000D01*
X55670000Y-42725000D02*
X55945000Y-43000000D01*
X55695000Y-42750000D02*
X55945000Y-43000000D01*
X45225000Y-50175000D02*
X45350000Y-50050000D01*
X60390000Y-36630000D02*
X60390000Y-37105000D01*
X60390000Y-37105000D02*
X59545000Y-37950000D01*
X43880000Y-30640280D02*
X43880000Y-32185000D01*
X44341520Y-30178760D02*
X43880000Y-30640280D01*
X55202560Y-34430000D02*
X55202560Y-34362140D01*
D36*
X55202560Y-34362140D02*
X55202560Y-34295960D01*
X55202560Y-34295960D02*
X55190000Y-34283400D01*
X56882260Y-34972500D02*
X56882260Y-35067900D01*
X56909440Y-34999680D02*
X56882260Y-34972500D01*
X56882260Y-35119820D02*
X56882260Y-35067900D01*
D32*
X56882260Y-35067900D02*
X56882260Y-33897740D01*
X56882260Y-33897740D02*
X57588210Y-33191790D01*
X55190000Y-34430000D02*
X55202560Y-34430000D01*
X55190000Y-34430000D02*
X56450000Y-33170000D01*
X56450000Y-33170000D02*
X57610000Y-33170000D01*
X55202560Y-34430000D02*
X55990000Y-34430000D01*
X56882260Y-35067900D02*
X56244360Y-34430000D01*
X56244360Y-34430000D02*
X55990000Y-34430000D01*
D36*
X33500440Y-44250000D02*
X37676560Y-48426120D01*
X37676560Y-48426120D02*
X37676560Y-48570900D01*
X37676560Y-48570900D02*
X38265840Y-49160180D01*
X38265840Y-49160180D02*
X38855120Y-49160180D01*
D32*
X31815000Y-44250000D02*
X33375000Y-44250000D01*
D36*
X33375000Y-44250000D02*
X33500440Y-44250000D01*
X39812700Y-48255940D02*
X39820320Y-48255940D01*
X38908460Y-49160180D02*
X39812700Y-48255940D01*
X38855120Y-49160180D02*
X38908460Y-49160180D01*
D32*
X44350000Y-54730000D02*
X44350000Y-54590000D01*
X43920000Y-55160000D02*
X44350000Y-54730000D01*
X43193440Y-45864680D02*
X43194680Y-45864680D01*
X43193440Y-45864680D02*
X42818280Y-45489520D01*
X43400000Y-47370000D02*
X44490000Y-48460000D01*
X43400000Y-46070000D02*
X43400000Y-47370000D01*
X43194680Y-45864680D02*
X43400000Y-46070000D01*
X44490000Y-50280000D02*
X44490000Y-48460000D01*
X44800000Y-50590000D02*
X44490000Y-50280000D01*
X44800000Y-54140000D02*
X44800000Y-50590000D01*
X44350000Y-54590000D02*
X44800000Y-54140000D01*
D36*
X58880000Y-46970000D02*
X58880000Y-46011460D01*
D32*
X57910000Y-47980000D02*
X57910000Y-47940000D01*
X55320000Y-50160000D02*
X55320000Y-51740000D01*
X57910000Y-48520000D02*
X57910000Y-47980000D01*
X57700000Y-48730000D02*
X57910000Y-48520000D01*
X56750000Y-48730000D02*
X57700000Y-48730000D01*
X55320000Y-50160000D02*
X56750000Y-48730000D01*
X57910000Y-47940000D02*
X58880000Y-46970000D01*
D36*
X58880000Y-46011460D02*
X59907400Y-44984060D01*
D32*
X56348100Y-57702200D02*
X56348100Y-56836060D01*
X52140600Y-61770000D02*
X53135000Y-60775600D01*
X53135000Y-60775600D02*
X53135000Y-60077100D01*
X51450000Y-61770000D02*
X51924700Y-61770000D01*
X43880000Y-56315000D02*
X43880000Y-58530000D01*
X44310000Y-61770000D02*
X51450000Y-61770000D01*
X42960000Y-60420000D02*
X44310000Y-61770000D01*
X42960000Y-59450000D02*
X42960000Y-60420000D01*
X43880000Y-58530000D02*
X42960000Y-59450000D01*
X51924700Y-61770000D02*
X52140600Y-61770000D01*
X56348100Y-59086500D02*
X56348100Y-57702200D01*
X56487800Y-59226200D02*
X56348100Y-59086500D01*
X56792600Y-59226200D02*
X56487800Y-59226200D01*
D36*
X56868800Y-59226200D02*
X56792600Y-59226200D01*
X57224400Y-59581800D02*
X56868800Y-59226200D01*
X56348100Y-56836060D02*
X56180460Y-56668420D01*
D32*
X58391020Y-43627700D02*
X57768720Y-44250000D01*
X57768720Y-44250000D02*
X55945000Y-44250000D01*
X43880000Y-30945000D02*
X43880000Y-32185000D01*
D36*
X39968002Y-40886642D02*
X40011580Y-40930220D01*
X39968002Y-40886642D02*
X39455320Y-40886642D01*
X32600000Y-38060000D02*
X32600000Y-38075400D01*
X32600000Y-38060000D02*
X32600000Y-37670000D01*
X30790000Y-35150000D02*
X29530000Y-33890000D01*
X30790000Y-35860000D02*
X30790000Y-35150000D01*
X32600000Y-37670000D02*
X30790000Y-35860000D01*
X38395608Y-40886642D02*
X39455320Y-40886642D01*
X39455320Y-40886642D02*
X39470958Y-40886642D01*
X37675178Y-40166212D02*
X38395608Y-40886642D01*
X37675178Y-38992200D02*
X37675178Y-40166212D01*
X37317038Y-38634060D02*
X37675178Y-38992200D01*
X33158660Y-38634060D02*
X37317038Y-38634060D01*
X32600000Y-38075400D02*
X33158660Y-38634060D01*
X57300600Y-38695380D02*
X57320000Y-38714780D01*
X57320000Y-38714780D02*
X57320000Y-38800000D01*
D32*
X46907680Y-39680540D02*
X47858220Y-38730000D01*
X47858220Y-38730000D02*
X48540000Y-38730000D01*
D36*
X40285900Y-42118940D02*
X41624840Y-40780000D01*
X41624840Y-40780000D02*
X44190000Y-40780000D01*
X57320000Y-38700000D02*
X57320000Y-38800000D01*
D32*
X56360000Y-37740000D02*
X57320000Y-38700000D01*
X54760000Y-37740000D02*
X56360000Y-37740000D01*
X53540000Y-36520000D02*
X54760000Y-37740000D01*
X52280000Y-36520000D02*
X53540000Y-36520000D01*
X51850000Y-36950000D02*
X52280000Y-36520000D01*
X51850000Y-37420000D02*
X51850000Y-36950000D01*
X50540000Y-38730000D02*
X51850000Y-37420000D01*
D36*
X48540000Y-38730000D02*
X50540000Y-38730000D01*
X44190000Y-40780000D02*
X45070000Y-41660000D01*
D32*
X60514770Y-39730630D02*
X60517710Y-39730630D01*
X60498460Y-39746940D02*
X60514770Y-39730630D01*
D36*
X45049710Y-41639710D02*
X45070000Y-41660000D01*
X45045100Y-41644320D02*
X45049710Y-41639710D01*
X60517000Y-39731340D02*
X60517710Y-39730630D01*
X60517710Y-39730630D02*
X60727820Y-39520520D01*
D32*
X60727820Y-39520520D02*
X61182480Y-39520520D01*
D36*
X61470000Y-39233000D02*
X61182480Y-39520520D01*
X61470000Y-36890000D02*
X61730000Y-36630000D01*
X61730000Y-36630000D02*
X61730000Y-36250000D01*
D32*
X62940000Y-35040000D02*
X61730000Y-36250000D01*
D36*
X61470000Y-39270000D02*
X61470000Y-39233000D01*
X61470000Y-39233000D02*
X61470000Y-36890000D01*
X62940000Y-35040000D02*
X63565000Y-35040000D01*
D32*
X63565000Y-35040000D02*
X63250000Y-35040000D01*
X47225000Y-50050000D02*
X47225000Y-49945000D01*
X52262000Y-33968080D02*
X54360000Y-31870080D01*
X54360000Y-31870080D02*
X54360000Y-31090000D01*
X51360000Y-37090000D02*
X51360000Y-36698880D01*
X49340000Y-37780000D02*
X48930000Y-38190000D01*
X48930000Y-38190000D02*
X47180000Y-38190000D01*
X47180000Y-38190000D02*
X46730000Y-38640000D01*
X49470000Y-37780000D02*
X50670000Y-37780000D01*
X50670000Y-37780000D02*
X51360000Y-37090000D01*
X49470000Y-37780000D02*
X49340000Y-37780000D01*
X46539962Y-42090000D02*
X46353002Y-41903040D01*
X46353002Y-41903040D02*
X46353002Y-41114120D01*
X46353002Y-41114120D02*
X45927240Y-40688358D01*
X45927240Y-40688358D02*
X45927240Y-40160600D01*
X45927240Y-40160600D02*
X46059320Y-40028520D01*
X46059320Y-40028520D02*
X46059320Y-39310680D01*
X46059320Y-39310680D02*
X46730000Y-38640000D01*
X46680000Y-43580000D02*
X46380000Y-43880000D01*
X46680000Y-42230000D02*
X46680000Y-43580000D01*
X46540000Y-42090000D02*
X46680000Y-42230000D01*
X46540000Y-42090000D02*
X46539962Y-42090000D01*
X52262000Y-35796880D02*
X52262000Y-35075520D01*
X51360000Y-36698880D02*
X52262000Y-35796880D01*
X54360000Y-31090000D02*
X54360000Y-30280000D01*
X52262000Y-35075520D02*
X52262000Y-33968080D01*
X46050000Y-44210000D02*
X46380000Y-43880000D01*
X46050000Y-47720000D02*
X46050000Y-44210000D01*
X45960000Y-47810000D02*
X46050000Y-47720000D01*
X45960000Y-48680000D02*
X45960000Y-47810000D01*
X47225000Y-49945000D02*
X45960000Y-48680000D01*
X47225000Y-49835000D02*
X47225000Y-50050000D01*
X47225000Y-50050000D02*
X47250000Y-50025000D01*
D36*
X57105020Y-36008060D02*
X57105020Y-35987740D01*
X55945780Y-35400000D02*
X56553840Y-36008060D01*
X56553840Y-36008060D02*
X57105020Y-36008060D01*
D32*
X55040000Y-35400000D02*
X55790000Y-35400000D01*
X54440000Y-35400000D02*
X55040000Y-35400000D01*
D36*
X55790000Y-35400000D02*
X55945780Y-35400000D01*
D32*
X58121020Y-34971740D02*
X58121020Y-34469220D01*
D36*
X57105020Y-35987740D02*
X58121020Y-34971740D01*
D32*
X54373470Y-35333470D02*
X54440000Y-35400000D01*
X54371980Y-35334960D02*
X54373470Y-35333470D01*
X54440000Y-35400000D02*
X54370000Y-35330000D01*
X58121020Y-34469220D02*
X58185280Y-34404960D01*
X60516960Y-33983320D02*
X61088500Y-34554860D01*
X58606920Y-33983320D02*
X59968320Y-33983320D01*
X58185280Y-34404960D02*
X58606920Y-33983320D01*
X59968320Y-33983320D02*
X60516960Y-33983320D01*
X42700000Y-55150000D02*
X42630000Y-55220000D01*
X42630000Y-55220000D02*
X42630000Y-56315000D01*
X42630000Y-55140000D02*
X42650000Y-55120000D01*
X42630000Y-55140000D02*
X42630000Y-56315000D01*
D36*
X49503560Y-34161120D02*
X49561580Y-34161120D01*
D32*
X49503560Y-34161120D02*
X45821120Y-34161120D01*
X45821120Y-34161120D02*
X45720000Y-34060000D01*
X45130000Y-33470000D02*
X45720000Y-34060000D01*
D36*
X49561580Y-34161120D02*
X49934600Y-33788100D01*
D32*
X45130000Y-32185000D02*
X45130000Y-33470000D01*
X45130000Y-32185000D02*
X45130000Y-33450000D01*
X29800000Y-31640000D02*
X30252880Y-31640000D01*
X32261280Y-32322520D02*
X32962320Y-31621480D01*
X30935400Y-32322520D02*
X32261280Y-32322520D01*
X30252880Y-31640000D02*
X30935400Y-32322520D01*
D36*
X29800000Y-31640000D02*
X29826160Y-31640000D01*
D32*
X29800000Y-31640000D02*
X30080000Y-31640000D01*
D36*
X48565740Y-48524260D02*
X48164260Y-48524260D01*
D32*
X47150000Y-43820000D02*
X47150000Y-42270000D01*
X46980000Y-43990000D02*
X47150000Y-43820000D01*
X46980000Y-46690000D02*
X46980000Y-43990000D01*
D36*
X46980000Y-47340000D02*
X46980000Y-46690000D01*
X48164260Y-48524260D02*
X46980000Y-47340000D01*
D32*
X48235040Y-39580000D02*
X48245200Y-39580000D01*
X48245200Y-39580000D02*
X48284360Y-39540840D01*
X48284360Y-39540840D02*
X49147960Y-39540840D01*
X47150000Y-40665040D02*
X47150000Y-42270000D01*
X47150000Y-40665040D02*
X48235040Y-39580000D01*
D36*
X50240000Y-49810000D02*
X50240000Y-49627020D01*
D32*
X50240000Y-49810000D02*
X50240000Y-51740000D01*
D36*
X49437520Y-49396040D02*
X48565740Y-48524260D01*
X48565740Y-48524260D02*
X48561220Y-48519740D01*
X50009020Y-49396040D02*
X49437520Y-49396040D01*
X50240000Y-49627020D02*
X50009020Y-49396040D01*
D32*
X47150000Y-42270000D02*
X47150000Y-42230000D01*
X47150000Y-42270000D02*
X47150000Y-42240000D01*
X54292850Y-53432850D02*
X54288550Y-53432850D01*
X54288550Y-53432850D02*
X53477900Y-52622200D01*
D36*
X53213740Y-52622200D02*
X53477900Y-52622200D01*
X53188340Y-52647600D02*
X53213740Y-52622200D01*
D35*
X58352100Y-53590000D02*
X58458900Y-53590000D01*
X58336920Y-53605180D02*
X58352100Y-53590000D01*
D32*
X57170000Y-53590000D02*
X58458900Y-53590000D01*
X54450000Y-53590000D02*
X57170000Y-53590000D01*
X54292850Y-53432850D02*
X54450000Y-53590000D01*
X63100000Y-55000000D02*
X61082300Y-55000000D01*
X61082300Y-55000000D02*
X60577200Y-55505100D01*
X66650000Y-55000000D02*
X63100000Y-55000000D01*
X54290000Y-53430000D02*
X54292850Y-53432850D01*
X66105000Y-65020000D02*
X69403700Y-61745880D01*
X66105000Y-65205000D02*
X66105000Y-65020000D01*
X66105000Y-65205000D02*
X66105000Y-65095000D01*
X54036700Y-60064400D02*
X54036700Y-59962800D01*
X54252600Y-60788300D02*
X54036700Y-60572400D01*
X54036700Y-60572400D02*
X54036700Y-60064400D01*
D36*
X56348100Y-61639200D02*
X57453000Y-62744100D01*
X56348100Y-61639200D02*
X56348100Y-61283600D01*
X56348100Y-61283600D02*
X55852800Y-60788300D01*
X55852800Y-60788300D02*
X55154300Y-60788300D01*
D32*
X55154300Y-60788300D02*
X54252600Y-60788300D01*
D36*
X54430400Y-59569100D02*
X54570100Y-59569100D01*
D32*
X54036700Y-59962800D02*
X54430400Y-59569100D01*
D36*
X57453000Y-63150500D02*
X57453000Y-62744100D01*
X31815000Y-43000000D02*
X33198980Y-43000000D01*
X33198980Y-43000000D02*
X35298980Y-45100000D01*
X35298980Y-45100000D02*
X37150000Y-45100000D01*
D32*
X53500000Y-40475000D02*
X53520000Y-40455000D01*
X53520000Y-40455000D02*
X53520000Y-40440000D01*
X53520000Y-40440000D02*
X55885000Y-40440000D01*
X55885000Y-40440000D02*
X55945000Y-40500000D01*
X55885000Y-40440000D02*
X55945000Y-40500000D01*
D36*
X36475000Y-49875000D02*
X36475000Y-49521000D01*
D32*
X31180000Y-49215000D02*
X31180000Y-49505000D01*
X31180000Y-49505000D02*
X31550000Y-49875000D01*
X31550000Y-49875000D02*
X36475000Y-49875000D01*
D36*
X36475000Y-49521000D02*
X36607220Y-49388780D01*
D32*
X31180000Y-49215000D02*
X31180000Y-48635000D01*
X31180000Y-48635000D02*
X31815000Y-48000000D01*
X38073338Y-32662342D02*
X38086492Y-32662342D01*
X38065180Y-32670500D02*
X38073338Y-32662342D01*
X38080000Y-32670000D02*
X38086492Y-32662342D01*
X38086492Y-32662342D02*
X38915000Y-31685000D01*
X38915000Y-31685000D02*
X38915000Y-31550000D01*
X38915000Y-31550000D02*
X39495000Y-31550000D01*
X39495000Y-31550000D02*
X40130000Y-32185000D01*
X48960000Y-55795000D02*
X48150000Y-55795000D01*
X48150000Y-55795000D02*
X47630000Y-56315000D01*
X46230000Y-50230000D02*
X46230000Y-49620000D01*
X39724560Y-40122500D02*
X39772820Y-40074240D01*
X39772820Y-40074240D02*
X41705760Y-40074240D01*
X41705760Y-40074240D02*
X41774340Y-40142820D01*
X41774340Y-40142820D02*
X44443880Y-40142820D01*
X44443880Y-40142820D02*
X45101740Y-40800680D01*
X45101740Y-40800680D02*
X45398920Y-40800680D01*
X45398920Y-40800680D02*
X45900000Y-41301760D01*
X45900000Y-41301760D02*
X45900000Y-42130000D01*
D36*
X33050000Y-37820000D02*
X33050000Y-37892940D01*
X32890000Y-37230000D02*
X33050000Y-37390000D01*
X33050000Y-37390000D02*
X33050000Y-37820000D01*
X32890000Y-36340000D02*
X32890000Y-37230000D01*
X39287680Y-40480640D02*
X39645820Y-40122500D01*
X38563780Y-40480640D02*
X39287680Y-40480640D01*
X38081180Y-39998040D02*
X38563780Y-40480640D01*
X38081180Y-38766140D02*
X38081180Y-39998040D01*
X37504600Y-38189560D02*
X38081180Y-38766140D01*
X33346620Y-38189560D02*
X37504600Y-38189560D01*
X33050000Y-37892940D02*
X33346620Y-38189560D01*
D32*
X46150000Y-50310000D02*
X46150000Y-51660000D01*
X46150000Y-50310000D02*
X46230000Y-50230000D01*
X45920000Y-43660000D02*
X46210000Y-43370000D01*
X46210000Y-43370000D02*
X46210000Y-42440000D01*
X46210000Y-42440000D02*
X45900000Y-42130000D01*
X39645820Y-40122500D02*
X39724560Y-40122500D01*
X45570000Y-44010000D02*
X45920000Y-43660000D01*
X45570000Y-47560000D02*
X45570000Y-44010000D01*
X45500000Y-47630000D02*
X45570000Y-47560000D01*
X45500000Y-48890000D02*
X45500000Y-47630000D01*
X46230000Y-49620000D02*
X45500000Y-48890000D01*
D39*
X34250000Y-61380000D02*
X33730000Y-60860000D01*
X33730000Y-60860000D02*
X33130000Y-60860000D01*
X33130000Y-60860000D02*
X32490000Y-60220000D01*
X32490000Y-60220000D02*
X32490000Y-54329080D01*
D34*
X34380000Y-61380000D02*
X34250000Y-61380000D01*
X34700000Y-61700000D02*
X34380000Y-61380000D01*
D32*
X58156180Y-49073820D02*
X58814240Y-48415760D01*
D34*
X31377360Y-29919680D02*
X31489120Y-29919680D01*
D35*
X30978580Y-29393900D02*
X30915080Y-29457400D01*
D34*
X35111160Y-28822400D02*
X34344080Y-28822400D01*
D35*
X31377360Y-29919680D02*
X30915080Y-29457400D01*
X30978580Y-29393900D02*
X30978580Y-29251660D01*
D34*
X31489120Y-29919680D02*
X31880280Y-30310840D01*
D39*
X28430000Y-56140000D02*
X27813640Y-56140000D01*
X27813640Y-56140000D02*
X27171120Y-55497480D01*
X27171120Y-55497480D02*
X25195000Y-55497480D01*
X25195000Y-55497480D02*
X24620960Y-54923440D01*
X32490000Y-54329080D02*
X32195240Y-54329080D01*
X32190160Y-54324000D02*
X32195240Y-54329080D01*
D35*
X53282320Y-29213560D02*
X53068960Y-29000200D01*
X53068960Y-29000200D02*
X52576200Y-29000200D01*
X52576200Y-29000200D02*
X52367920Y-29208480D01*
X52367920Y-29208480D02*
X52367920Y-30889960D01*
X52367920Y-30889960D02*
X52317120Y-30940760D01*
X52317120Y-30940760D02*
X52317120Y-31611320D01*
D34*
X42086000Y-29843480D02*
X42273960Y-29843480D01*
D35*
X40877442Y-29716480D02*
X40999362Y-29838400D01*
X40999362Y-29838400D02*
X42080920Y-29838400D01*
X42080920Y-29838400D02*
X42086000Y-29843480D01*
D34*
X38170680Y-28585000D02*
X39302160Y-29716480D01*
X39302160Y-29716480D02*
X40749960Y-29716480D01*
D35*
X40749960Y-29716480D02*
X40877442Y-29716480D01*
D34*
X45326080Y-30000000D02*
X46200000Y-30000000D01*
X44651400Y-29325320D02*
X45326080Y-30000000D01*
X42792120Y-29325320D02*
X44651400Y-29325320D01*
X42273960Y-29843480D02*
X42792120Y-29325320D01*
D35*
X46200000Y-30000000D02*
X46057600Y-30000000D01*
D34*
X37770000Y-28585000D02*
X38170680Y-28585000D01*
X35111160Y-28822400D02*
X37532600Y-28822400D01*
X37532600Y-28822400D02*
X37770000Y-28585000D01*
D35*
X35410880Y-29015440D02*
X35304200Y-29015440D01*
X35695360Y-29299920D02*
X35410880Y-29015440D01*
D34*
X35695360Y-29299920D02*
X36772320Y-29299920D01*
D35*
X35304200Y-29015440D02*
X35111160Y-28822400D01*
D34*
X30978580Y-27605740D02*
X30978580Y-29251660D01*
X30978580Y-29251660D02*
X30981120Y-29254200D01*
X29045640Y-24265640D02*
X28222680Y-24265640D01*
D35*
X28222680Y-24265640D02*
X28217600Y-24260560D01*
X29248840Y-24265640D02*
X29045640Y-24265640D01*
D34*
X29970200Y-24987000D02*
X29248840Y-24265640D01*
D35*
X30322904Y-24987000D02*
X29970200Y-24987000D01*
X30927298Y-25591394D02*
X30322904Y-24987000D01*
X30927298Y-26366094D02*
X30927298Y-25591394D01*
X31123360Y-26562156D02*
X30927298Y-26366094D01*
X31123360Y-27460960D02*
X31123360Y-26562156D01*
X30915080Y-27669240D02*
X30978580Y-27605740D01*
X30978580Y-27605740D02*
X31123360Y-27460960D01*
X37310800Y-29838400D02*
X36772320Y-29299920D01*
X37770000Y-28753280D02*
X37770000Y-28585000D01*
X46200000Y-30000000D02*
X46042360Y-30000000D01*
X51814960Y-31972760D02*
X51955680Y-31972760D01*
X51955680Y-31972760D02*
X52317120Y-31611320D01*
X51814960Y-31972760D02*
X51814960Y-32495240D01*
X51255400Y-31413200D02*
X51814960Y-31972760D01*
X50330840Y-31413200D02*
X51255400Y-31413200D01*
X50097160Y-31646880D02*
X50330840Y-31413200D01*
D32*
X46200000Y-30000000D02*
X46380000Y-30180000D01*
D35*
X46380000Y-30180000D02*
X46380000Y-32185000D01*
D36*
X51180358Y-34196416D02*
X51180358Y-34310182D01*
X51814960Y-32644606D02*
X51180358Y-33279208D01*
X51180358Y-33279208D02*
X51180358Y-34196416D01*
X51814960Y-32495240D02*
X51814960Y-32644606D01*
X50240000Y-35250540D02*
X50240000Y-36500000D01*
X51180358Y-34310182D02*
X50240000Y-35250540D01*
X58814240Y-48415760D02*
X58814240Y-48657060D01*
X58814240Y-48657060D02*
X58834760Y-48677580D01*
D39*
X55827400Y-54489100D02*
X57138040Y-54489100D01*
D35*
X55113660Y-55172360D02*
X55144140Y-55172360D01*
X55144140Y-55172360D02*
X55827400Y-54489100D01*
X57138040Y-54489100D02*
X57173600Y-54453540D01*
D39*
X50940440Y-55794660D02*
X50470540Y-55794660D01*
X50470540Y-55794660D02*
X50150500Y-56114700D01*
X52743840Y-55794660D02*
X50940440Y-55794660D01*
D35*
X52743840Y-55794660D02*
X54491360Y-55794660D01*
X54491360Y-55794660D02*
X55113660Y-55172360D01*
X55113660Y-55172360D02*
X55123820Y-55162200D01*
D31*
X22934400Y-31044900D02*
X24737800Y-32848300D01*
X21842200Y-27844500D02*
X21664400Y-27666700D01*
X21842200Y-29952700D02*
X21842200Y-28009600D01*
X22934400Y-31044900D02*
X21842200Y-29952700D01*
X21842200Y-28009600D02*
X21842200Y-27844500D01*
D32*
X58032120Y-49073820D02*
X58156180Y-49073820D01*
D36*
X57922938Y-49183002D02*
X58032120Y-49073820D01*
D32*
X57240000Y-49570000D02*
X57240000Y-49538280D01*
D39*
X57240000Y-51500000D02*
X57240000Y-49570000D01*
D32*
X57595278Y-49183002D02*
X57676520Y-49183002D01*
X57240000Y-49538280D02*
X57595278Y-49183002D01*
D36*
X57676520Y-49183002D02*
X57922938Y-49183002D01*
X51814960Y-32495240D02*
X51814960Y-32502500D01*
D32*
X50240000Y-36500000D02*
X50240000Y-36140000D01*
D35*
X57910000Y-46750000D02*
X55945000Y-46750000D01*
D32*
X58010000Y-46650000D02*
X57910000Y-46750000D01*
X57325000Y-46625000D02*
X57200000Y-46750000D01*
X57200000Y-46750000D02*
X55945000Y-46750000D01*
X54750000Y-46750000D02*
X55945000Y-46750000D01*
D39*
X32490000Y-54329080D02*
X32490000Y-53660000D01*
X32490000Y-52835000D02*
X33150000Y-52175000D01*
X33150000Y-52175000D02*
X33675000Y-51650000D01*
X32490000Y-53660000D02*
X32490000Y-52835000D01*
D32*
X33675000Y-51650000D02*
X34340000Y-51650000D01*
X34340000Y-51650000D02*
X34340000Y-52165000D01*
X34340000Y-51935000D02*
X34340000Y-51650000D01*
D39*
X42350000Y-58960000D02*
X42350000Y-58550000D01*
X42350000Y-61070000D02*
X42350000Y-58960000D01*
D32*
X42350000Y-58550000D02*
X41380000Y-57580000D01*
X41380000Y-57580000D02*
X41380000Y-56315000D01*
X41380000Y-54955000D02*
X41380000Y-56315000D01*
X28775000Y-40750000D02*
X29775000Y-41750000D01*
X29775000Y-41750000D02*
X31815000Y-41750000D01*
X27290000Y-40750000D02*
X28775000Y-40750000D01*
X27160000Y-40620000D02*
X27290000Y-40750000D01*
D36*
X30300000Y-39520000D02*
X31190280Y-39520000D01*
X31190280Y-39520000D02*
X31478960Y-39231320D01*
X38911760Y-39657680D02*
X39209440Y-39360000D01*
X39209440Y-39360000D02*
X39640000Y-39360000D01*
X36686720Y-41903040D02*
X37710340Y-42926660D01*
X35655480Y-41903040D02*
X36686720Y-41903040D01*
D32*
X39640000Y-39360000D02*
X40150000Y-38850000D01*
X40150000Y-38850000D02*
X40150000Y-36860000D01*
D36*
X38911760Y-39669980D02*
X38911760Y-39657680D01*
X38911000Y-39670740D02*
X38911760Y-39669980D01*
X35655480Y-41903040D02*
X35680880Y-41928440D01*
X30300000Y-39530000D02*
X30300000Y-39520000D01*
X30310000Y-39520000D02*
X30300000Y-39530000D01*
D32*
X29280000Y-39920000D02*
X29680000Y-39520000D01*
X29680000Y-39520000D02*
X30300000Y-39520000D01*
X30300000Y-39520000D02*
X30190000Y-39520000D01*
X44190000Y-43770000D02*
X44190000Y-46970000D01*
X44240000Y-47020000D02*
X44190000Y-46970000D01*
X42150000Y-36860000D02*
X42150000Y-38120000D01*
X42150000Y-38120000D02*
X42300000Y-38270000D01*
X44160000Y-43470000D02*
X44160000Y-43740000D01*
X42370000Y-41680000D02*
X44160000Y-43470000D01*
X42300000Y-38270000D02*
X42300000Y-39300000D01*
X44160000Y-43740000D02*
X44190000Y-43770000D01*
X44190000Y-43770000D02*
X44160000Y-43740000D01*
X26546680Y-52140000D02*
X26602560Y-52140000D01*
X28272540Y-43743300D02*
X28530020Y-43485820D01*
X28270000Y-43750000D02*
X28270000Y-43743300D01*
D36*
X26546680Y-52140000D02*
X26343080Y-51936400D01*
X26343080Y-51936400D02*
X26343080Y-49223680D01*
X26343080Y-49223680D02*
X27030000Y-48536760D01*
X27030000Y-48536760D02*
X27030000Y-48340000D01*
D32*
X27360000Y-44350000D02*
X27360000Y-44300000D01*
X27030000Y-46460000D02*
X27030000Y-44680000D01*
X27030000Y-48340000D02*
X27030000Y-46460000D01*
X27030000Y-44680000D02*
X27360000Y-44350000D01*
X27360000Y-44300000D02*
X27910000Y-43750000D01*
X27910000Y-43750000D02*
X28270000Y-43750000D01*
X28270000Y-43743300D02*
X28272540Y-43743300D01*
X26602560Y-52140000D02*
X27084760Y-52622200D01*
X23810000Y-56680000D02*
X23920000Y-56570000D01*
X23920000Y-56570000D02*
X25900000Y-56570000D01*
X26390000Y-56570000D02*
X25900000Y-56570000D01*
X26560000Y-56400000D02*
X26390000Y-56570000D01*
X44150000Y-38770000D02*
X45060000Y-39680000D01*
X44150000Y-36860000D02*
X44150000Y-38770000D01*
X45185020Y-39680000D02*
X45060000Y-39680000D01*
X45208420Y-39703400D02*
X45185020Y-39680000D01*
D36*
X45208420Y-39707060D02*
X45208420Y-39703400D01*
X45215280Y-39713920D02*
X45208420Y-39707060D01*
X38626420Y-44975580D02*
X39059080Y-45408240D01*
X39059080Y-45408240D02*
X39059080Y-46805240D01*
X39059080Y-46805240D02*
X39440080Y-47186240D01*
X39440080Y-47186240D02*
X40537360Y-47186240D01*
X40537360Y-47186240D02*
X40682140Y-47331020D01*
X37524920Y-43884638D02*
X37731058Y-43884638D01*
X34446440Y-41882720D02*
X34446440Y-42756480D01*
X34446440Y-42756480D02*
X34446440Y-43015560D01*
X34446440Y-43015560D02*
X35315518Y-43884638D01*
X35315518Y-43884638D02*
X37524920Y-43884638D01*
X37731058Y-43884638D02*
X38626420Y-44780000D01*
X38626420Y-44780000D02*
X38626420Y-44975580D01*
D32*
X46340000Y-36850000D02*
X46340000Y-36460000D01*
D36*
X48301960Y-35190000D02*
X49726366Y-35190000D01*
X47680000Y-35190000D02*
X48301960Y-35190000D01*
D32*
X46210000Y-36660000D02*
X47680000Y-35190000D01*
D36*
X50774356Y-34142010D02*
X50774356Y-34026860D01*
X49726366Y-35190000D02*
X50774356Y-34142010D01*
X50774356Y-34026860D02*
X50774356Y-33111036D01*
X50976000Y-32909392D02*
X50976000Y-32134560D01*
X50774356Y-33111036D02*
X50976000Y-32909392D01*
D32*
X46210000Y-36860000D02*
X46210000Y-36660000D01*
X56260000Y-30280000D02*
X56640000Y-30280000D01*
X56640000Y-30280000D02*
X57275000Y-29645000D01*
X57100000Y-31550000D02*
X57100000Y-29820000D01*
X57100000Y-29820000D02*
X57275000Y-29645000D01*
D36*
X60867520Y-32748840D02*
X60867520Y-32911040D01*
X60867520Y-32911040D02*
X60643240Y-33135320D01*
X59177660Y-34819340D02*
X59157000Y-34840000D01*
X59157000Y-34840000D02*
X59120000Y-34840000D01*
D32*
X61088500Y-32654860D02*
X61088500Y-29708500D01*
X61088500Y-29708500D02*
X61025000Y-29645000D01*
D36*
X60913280Y-32654860D02*
X61088500Y-32654860D01*
D32*
X35970000Y-27030000D02*
X35970000Y-27079640D01*
X39313040Y-26720000D02*
X39500280Y-26907240D01*
X44671720Y-26902160D02*
X44813880Y-26760000D01*
X44813880Y-26760000D02*
X48180000Y-26760000D01*
D36*
X53464840Y-27892400D02*
X53058800Y-27486360D01*
X53058800Y-27486360D02*
X52581280Y-27486360D01*
X52581280Y-27486360D02*
X51854920Y-26760000D01*
X51854920Y-26760000D02*
X51680000Y-26760000D01*
D32*
X56297420Y-27700000D02*
X56105020Y-27892400D01*
X36280000Y-26720000D02*
X39020000Y-26720000D01*
X35970000Y-27030000D02*
X36280000Y-26720000D01*
D36*
X48180000Y-26760000D02*
X51680000Y-26760000D01*
D32*
X56297420Y-27700000D02*
X56592700Y-27700000D01*
D36*
X56105020Y-27892400D02*
X53464840Y-27892400D01*
D32*
X39020000Y-26720000D02*
X39313040Y-26720000D01*
X35970000Y-27079640D02*
X35034960Y-28014680D01*
X61700000Y-27700000D02*
X62275000Y-28275000D01*
X56592700Y-27700000D02*
X61700000Y-27700000D01*
D36*
X56590000Y-27700000D02*
X56592700Y-27700000D01*
X62275000Y-28275000D02*
X62275000Y-29645000D01*
D32*
X63450000Y-31550000D02*
X63450000Y-29720000D01*
X63450000Y-29720000D02*
X63525000Y-29645000D01*
X63565000Y-33140000D02*
X63565000Y-31665000D01*
X63565000Y-31665000D02*
X63450000Y-31550000D01*
D31*
X66105000Y-60125000D02*
X66105000Y-59276240D01*
X66105000Y-59276240D02*
X69297020Y-56084220D01*
D33*
X57592700Y-58261000D02*
X58164200Y-58261000D01*
X58164200Y-58261000D02*
X59675500Y-56749700D01*
X59675500Y-56749700D02*
X64272900Y-56749700D01*
X64272900Y-56749700D02*
X64882500Y-56140100D01*
X16920000Y-52038000D02*
X20115000Y-52038000D01*
X51738000Y-71108000D02*
X51738000Y-67913000D01*
X34720000Y-71108000D02*
X34720000Y-67913000D01*
X53008000Y-20669000D02*
X53008000Y-17474000D01*
X67486000Y-36290000D02*
X70681000Y-36290000D01*
X67359000Y-53435000D02*
X70554000Y-53435000D01*
X35990000Y-17474000D02*
X35990000Y-20669000D01*
X20369000Y-35147000D02*
X17174000Y-35147000D01*
D32*
X48250000Y-49360000D02*
X47830000Y-49360000D01*
X52640000Y-53320000D02*
X53360000Y-54040000D01*
X49100000Y-52900000D02*
X49520000Y-53320000D01*
X49100000Y-50210000D02*
X49100000Y-52900000D01*
X48250000Y-49360000D02*
X49100000Y-50210000D01*
X49520000Y-53320000D02*
X52640000Y-53320000D01*
X47830000Y-49360000D02*
X47280000Y-48810000D01*
X45080000Y-38400000D02*
X45140000Y-34700000D01*
X45180000Y-38500000D02*
X45080000Y-38400000D01*
X43300000Y-34910000D02*
X43300000Y-35030000D01*
X43750000Y-34460000D02*
X43300000Y-34910000D01*
X43240000Y-35090000D02*
X43240000Y-38540000D01*
X43300000Y-35030000D02*
X43240000Y-35090000D01*
D36*
X43240000Y-38535360D02*
X43240000Y-38540000D01*
X43259480Y-38535360D02*
X43240000Y-38535360D01*
D32*
X41120000Y-38730000D02*
X41140000Y-38710000D01*
X41140000Y-38710000D02*
X41140000Y-35785000D01*
X41140000Y-35785000D02*
X41350000Y-35575000D01*
X41350000Y-35575000D02*
X42250000Y-34675000D01*
D36*
X39174480Y-38470000D02*
X39250000Y-38470000D01*
X39162460Y-38482020D02*
X39174480Y-38470000D01*
D32*
X40540000Y-34730000D02*
X40643720Y-34730000D01*
X39250000Y-38470000D02*
X39290000Y-38510000D01*
X39250000Y-35660000D02*
X39250000Y-38470000D01*
X40180000Y-34730000D02*
X39250000Y-35660000D01*
X40540000Y-34730000D02*
X40180000Y-34730000D01*
X40643720Y-34730000D02*
X40782980Y-34590740D01*
D36*
X49218680Y-45045020D02*
X50074300Y-44189400D01*
X50074300Y-44189400D02*
X52931800Y-44189400D01*
X53744600Y-45002200D02*
X52931800Y-44189400D01*
X47837320Y-45045020D02*
X49218680Y-45045020D01*
X53652800Y-44910400D02*
X53744600Y-45002200D01*
D32*
X48507880Y-47704400D02*
X52662200Y-47704400D01*
X52662200Y-47704400D02*
X52817500Y-47859700D01*
D36*
X52474600Y-47859700D02*
X52817500Y-47859700D01*
D32*
X49528200Y-46907200D02*
X51877200Y-46907200D01*
D36*
X52246000Y-47034200D02*
X53719200Y-47034200D01*
X53719200Y-47034200D02*
X53731900Y-47046900D01*
X47837320Y-46683320D02*
X48567720Y-46683320D01*
X48791600Y-46907200D02*
X49515500Y-46907200D01*
X48567720Y-46683320D02*
X48791600Y-46907200D01*
X49515500Y-46907200D02*
X49528200Y-46907200D01*
D32*
X52004200Y-47034200D02*
X52246000Y-47034200D01*
X51877200Y-46907200D02*
X52004200Y-47034200D01*
D36*
X48027820Y-46873820D02*
X47837320Y-46683320D01*
D32*
X49273420Y-46096580D02*
X50367800Y-45002200D01*
X50367800Y-45002200D02*
X52525400Y-45002200D01*
X49140340Y-46096580D02*
X49273420Y-46096580D01*
D36*
X49140340Y-46096580D02*
X49140340Y-45910760D01*
D32*
X62250000Y-33500000D02*
X62250000Y-31904480D01*
D36*
X58113400Y-36165540D02*
X58118840Y-36160100D01*
X58118840Y-36160100D02*
X58131940Y-36160100D01*
D32*
X62107040Y-35116160D02*
X62107040Y-33642960D01*
X61847960Y-35375240D02*
X62107040Y-35116160D01*
X59917560Y-35375240D02*
X61847960Y-35375240D01*
X59577200Y-35715600D02*
X59917560Y-35375240D01*
X58576440Y-35715600D02*
X59577200Y-35715600D01*
X58131940Y-36160100D02*
X58576440Y-35715600D01*
X62107040Y-33642960D02*
X62250000Y-33500000D01*
D36*
X55588640Y-39390000D02*
X55588640Y-39378640D01*
X55606420Y-39360860D02*
X55588640Y-39378640D01*
X62250000Y-31904480D02*
X62263760Y-31890720D01*
D32*
X53290000Y-39280000D02*
X53400000Y-39390000D01*
X53400000Y-39390000D02*
X55588640Y-39390000D01*
X55588640Y-39390000D02*
X55620000Y-39390000D01*
X55620000Y-39390000D02*
X55450000Y-39220000D01*
X59628000Y-43968060D02*
X58154800Y-45441260D01*
X60219820Y-43160340D02*
X59628000Y-43752160D01*
X59628000Y-43752160D02*
X59628000Y-43968060D01*
X60219820Y-41715080D02*
X60219820Y-43160340D01*
X61027540Y-40907360D02*
X60219820Y-41715080D01*
D36*
X58162020Y-45441260D02*
X58154800Y-45441260D01*
X58181980Y-45421300D02*
X58162020Y-45441260D01*
D32*
X53476120Y-31478880D02*
X53476120Y-30489400D01*
X53476120Y-30489400D02*
X53160400Y-30173680D01*
X52721740Y-32312000D02*
X52721740Y-32233260D01*
D36*
X51980060Y-33091780D02*
X51586360Y-33485480D01*
X51586360Y-33485480D02*
X51586360Y-35050120D01*
X51586360Y-35050120D02*
X51347600Y-35288880D01*
X52721740Y-32312000D02*
X51980060Y-33053680D01*
X51980060Y-33053680D02*
X51980060Y-33091780D01*
D32*
X52721740Y-32233260D02*
X53476120Y-31478880D01*
D36*
X35545500Y-36569400D02*
X35859400Y-36569400D01*
X35859400Y-36569400D02*
X36150000Y-36860000D01*
D32*
X32307000Y-25761700D02*
X32307000Y-25533100D01*
X28814500Y-22040600D02*
X27874700Y-22040600D01*
X32307000Y-25533100D02*
X28814500Y-22040600D01*
X57005960Y-64788800D02*
X58890640Y-66673480D01*
X56805300Y-64788800D02*
X56297300Y-64280800D01*
X56297300Y-64280800D02*
X56297300Y-62210700D01*
X56297300Y-62210700D02*
X55700400Y-61613800D01*
X55535300Y-61613800D02*
X55700400Y-61613800D01*
X56805300Y-64788800D02*
X57005960Y-64788800D01*
D36*
X55535300Y-61613800D02*
X55395600Y-61613800D01*
X55395600Y-61613800D02*
X55370200Y-61639200D01*
X42710000Y-51090000D02*
X42710000Y-53790000D01*
X41810000Y-50190000D02*
X42710000Y-51090000D01*
X42890000Y-49220000D02*
X42890000Y-49380000D01*
X43960000Y-53790000D02*
X43960000Y-50450000D01*
X42890000Y-49380000D02*
X43960000Y-50450000D01*
M02*
