M48
;DRILL file {KiCad 4.0.7} date 01/17/18 18:07:02
;FORMAT={-:-/ absolute / inch / decimal}
FMAT,2
INCH,TZ
T1C0.020
T2C0.024
T3C0.028
%
G90
G05
M72
T1
X0.6604Y-2.2536
X0.7096Y-2.2536
X2.4526Y-2.2421
X2.5018Y-2.2421
X2.6283Y-2.2921
X2.6776Y-2.2921
X2.7777Y-2.1037
X2.8269Y-2.1037
T2
X0.6169Y-2.0487
X0.6269Y-1.3837
X0.6661Y-2.0487
X0.6761Y-1.3837
X0.7919Y-2.0487
X0.8019Y-1.3837
X0.8411Y-2.0487
X0.8511Y-1.3837
X0.8898Y-2.3287
X0.9374Y-2.2315
X0.9677Y-2.1858
X0.9883Y-0.9635
X0.9921Y-1.3996
X1.0413Y-2.098
X1.0457Y-2.2205
X1.0693Y-1.5992
X1.0701Y-1.676
X1.074Y-1.5441
X1.0866Y-2.0803
X1.1063Y-1.0591
X1.1132Y-1.6421
X1.1161Y-1.8161
X1.1161Y-2.1583
X1.1193Y-2.2102
X1.1224Y-1.713
X1.1339Y-2.3681
X1.1407Y-2.5591
X1.1465Y-1.9004
X1.1528Y-1.5717
X1.1626Y-1.3343
X1.1654Y-1.7669
X1.1654Y-1.8157
X1.1831Y-2.2539
X1.189Y-0.8878
X1.2303Y-2.6033
X1.2323Y-1.2411
X1.233Y-2.365
X1.2331Y-2.0437
X1.237Y-1.4846
X1.2413Y-1.5488
X1.2571Y-1.3921
X1.2835Y-1.5705
X1.2886Y-1.2264
X1.2949Y-1.4307
X1.3004Y-1.3705
X1.3051Y-1.8354
X1.3159Y-2.3553
X1.3173Y-2.113
X1.3283Y-1.2
X1.3339Y-1.4713
X1.3413Y-1.3012
X1.3533Y-2.1486
X1.3562Y-1.6489
X1.3669Y-2.6245
X1.3669Y-2.6737
X1.3669Y-2.7995
X1.3669Y-2.8487
X1.3689Y-1.1709
X1.3734Y-1.1164
X1.3835Y-2.4449
X1.3898Y-2.2736
X1.4038Y-1.6497
X1.4169Y-0.6387
X1.4169Y-0.688
X1.4169Y-0.8137
X1.4169Y-0.863
X1.4202Y-1.6042
X1.4203Y-2.1457
X1.4374Y-1.5595
X1.44Y-1.9449
X1.4626Y-1.7756
X1.4646Y-1.3602
X1.4685Y-2.1398
X1.4705Y-1.2411
X1.4847Y-1.69
X1.4992Y-1.2862
X1.5185Y-1.9004
X1.522Y-2.2701
X1.532Y-1.5613
X1.5394Y-2.2165
X1.5469Y-1.5161
X1.5535Y-1.0693
X1.5636Y-1.9498
X1.5677Y-1.8998
X1.5753Y-1.6114
X1.5861Y-1.6582
X1.5941Y-1.1012
X1.6017Y-1.8634
X1.6067Y-1.3567
X1.6189Y-1.5248
X1.6189Y-2.3043
X1.6303Y-1.1406
X1.6315Y-2.3717
X1.6634Y-1.3563
X1.6654Y-1.5472
X1.6673Y-2.4043
X1.6681Y-1.6409
X1.6781Y-2.1299
X1.6846Y-1.135
X1.6858Y-1.7909
X1.7024Y-1.5173
X1.7142Y-1.1772
X1.7224Y-1.3567
X1.7268Y-2.3606
X1.7303Y-2.1575
X1.7417Y-1.8512
X1.7614Y-1.0669
X1.7677Y-1.1781
X1.7744Y-1.6402
X1.7772Y-1.3661
X1.7787Y-1.5157
X1.7799Y-1.5631
X1.785Y-1.9661
X1.7854Y-1.687
X1.8189Y-1.1811
X1.823Y-2.1171
X1.8468Y-1.5622
X1.8593Y-1.9705
X1.8752Y-2.2171
X1.8772Y-1.2862
X1.8829Y-2.1181
X1.8834Y-1.7734
X1.8834Y-1.8379
X1.8906Y-1.6183
X1.8907Y-1.687
X1.8996Y-1.9433
X1.9098Y-1.8781
X1.9347Y-1.8148
X1.935Y-1.5567
X1.937Y-1.2618
X1.9646Y-1.3293
X2.0083Y-1.2661
X2.0138Y-2.2087
X2.0216Y-1.3893
X2.0369Y-2.6245
X2.0369Y-2.6737
X2.0369Y-2.7995
X2.0369Y-2.8487
X2.0522Y-1.1179
X2.0523Y-1.7914
X2.0601Y-1.873
X2.0658Y-1.9654
X2.0714Y-1.2151
X2.0762Y-1.9188
X2.0764Y-1.476
X2.0846Y-1.8278
X2.0849Y-1.0501
X2.0869Y-0.6387
X2.0869Y-0.688
X2.0869Y-0.8137
X2.0869Y-0.863
X2.0919Y-1.3795
X2.0972Y-1.1501
X2.098Y-1.5465
X2.1008Y-2.1276
X2.1063Y-1.5935
X2.1071Y-1.6421
X2.1138Y-1.7578
X2.1378Y-0.9097
X2.1406Y-1.3909
X2.152Y-2.1433
X2.1575Y-2.5709
X2.1728Y-1.3555
X2.1898Y-1.5508
X2.2002Y-2.2341
X2.2014Y-0.8544
X2.2156Y-2.3602
X2.2254Y-0.9493
X2.2395Y-1.3806
X2.2496Y-2.1551
X2.2535Y-2.0276
X2.2549Y-2.6673
X2.2567Y-1.5276
X2.2681Y-1.3059
X2.2776Y-2.3602
X2.2839Y-1.8366
X2.2887Y-1.4236
X2.2896Y-0.9283
X2.2896Y-1.789
X2.2945Y-1.5996
X2.2989Y-1.7176
X2.3157Y-1.9059
X2.3276Y-1.2631
X2.3276Y-1.3717
X2.3524Y-1.8752
X2.3543Y-1.1339
X2.3563Y-2.172
X2.3586Y-1.771
X2.3826Y-1.5642
X2.3835Y-1.3003
X2.3875Y-0.7767
X2.4026Y-2.4671
X2.4027Y-1.6105
X2.4031Y-1.8622
X2.4085Y-2.6673
X2.4508Y-1.2589
X2.4587Y-1.0687
X2.475Y-0.9066
X2.4823Y-2.1673
X2.5146Y-0.9606
X2.5276Y-2.6171
X2.6014Y-2.2077
X2.6027Y-2.1037
X2.6077Y-1.4287
X2.624Y-2.1654
X2.6519Y-2.1037
X2.6569Y-1.4287
X2.7324Y-2.4309
X2.7827Y-1.4287
X2.8319Y-1.4287
T3
X1.978Y-1.437
X1.978Y-2.037
X2.178Y-1.437
X2.178Y-2.037
X2.378Y-1.437
X2.378Y-2.037
T0
M30
