G04 #@! TF.FileFunction,Legend,Top*
%FSLAX46Y46*%
G04 Gerber Fmt 4.6, Leading zero omitted, Abs format (unit mm)*
G04 Created by KiCad (PCBNEW 4.0.7) date 01/17/18 18:25:31*
%MOMM*%
%LPD*%
G01*
G04 APERTURE LIST*
%ADD10C,0.152400*%
%ADD11C,0.100000*%
%ADD12C,0.120000*%
%ADD13C,0.150000*%
%ADD14C,0.254000*%
G04 APERTURE END LIST*
D10*
D11*
X14400000Y-73700000D02*
X73300000Y-73700000D01*
X73300000Y-14700000D02*
X73300000Y-73700000D01*
X14400000Y-14700000D02*
X73300000Y-14700000D01*
X14400000Y-73700000D02*
X14400000Y-14700000D01*
X62925000Y-50600000D02*
X62925000Y-50475000D01*
D12*
X53115000Y-60180000D02*
X60215000Y-60180000D01*
X53115000Y-63880000D02*
X60215000Y-63880000D01*
X53115000Y-60180000D02*
X53115000Y-63880000D01*
X68935000Y-63880000D02*
X61835000Y-63880000D01*
X68935000Y-60180000D02*
X61835000Y-60180000D01*
X68935000Y-63880000D02*
X68935000Y-60180000D01*
X64065000Y-65625000D02*
X63065000Y-65625000D01*
X63065000Y-67325000D02*
X64065000Y-67325000D01*
D13*
X60795000Y-55680000D02*
X65045000Y-55680000D01*
X65045000Y-55680000D02*
X65045000Y-58220000D01*
X65045000Y-58220000D02*
X65045000Y-59490000D01*
X65045000Y-59490000D02*
X60795000Y-59490000D01*
X60795000Y-59490000D02*
X60795000Y-55680000D01*
X69510000Y-59490000D02*
X65260000Y-59490000D01*
X65260000Y-59490000D02*
X65260000Y-56950000D01*
X65260000Y-56950000D02*
X65260000Y-55680000D01*
X65260000Y-55680000D02*
X69510000Y-55680000D01*
X69510000Y-55680000D02*
X69510000Y-59490000D01*
X68986000Y-37560000D02*
X64736000Y-37560000D01*
X64736000Y-37560000D02*
X64736000Y-35020000D01*
X64736000Y-35020000D02*
X64736000Y-33750000D01*
X64736000Y-33750000D02*
X68986000Y-33750000D01*
X68986000Y-33750000D02*
X68986000Y-37560000D01*
X37260000Y-14724000D02*
X37260000Y-18974000D01*
X37260000Y-18974000D02*
X34720000Y-18974000D01*
X34720000Y-18974000D02*
X33450000Y-18974000D01*
X33450000Y-18974000D02*
X33450000Y-14724000D01*
X33450000Y-14724000D02*
X37260000Y-14724000D01*
D12*
X40320000Y-55845000D02*
X39820000Y-55845000D01*
X39820000Y-56785000D02*
X40320000Y-56785000D01*
X43630000Y-56785000D02*
X44130000Y-56785000D01*
X44130000Y-55845000D02*
X43630000Y-55845000D01*
X29215000Y-62685000D02*
X26795000Y-62685000D01*
X29215000Y-57565000D02*
X26795000Y-57565000D01*
X30345000Y-62635000D02*
X29215000Y-62635000D01*
X29215000Y-62685000D02*
X29215000Y-62635000D01*
X26795000Y-62685000D02*
X26795000Y-62635000D01*
X29215000Y-57615000D02*
X29215000Y-57565000D01*
X26795000Y-57615000D02*
X26795000Y-57565000D01*
X28515000Y-36320000D02*
X28515000Y-37250000D01*
X28515000Y-39480000D02*
X28515000Y-38550000D01*
X28515000Y-39480000D02*
X30675000Y-39480000D01*
X28515000Y-36320000D02*
X29975000Y-36320000D01*
X51375000Y-32510000D02*
X51375000Y-33440000D01*
X51375000Y-35670000D02*
X51375000Y-34740000D01*
X51375000Y-35670000D02*
X53535000Y-35670000D01*
X51375000Y-32510000D02*
X52835000Y-32510000D01*
X27880000Y-32510000D02*
X27880000Y-33440000D01*
X27880000Y-35670000D02*
X27880000Y-34740000D01*
X27880000Y-35670000D02*
X30040000Y-35670000D01*
X27880000Y-32510000D02*
X29340000Y-32510000D01*
X28515000Y-40130000D02*
X28515000Y-41060000D01*
X28515000Y-43290000D02*
X28515000Y-42360000D01*
X28515000Y-43290000D02*
X30675000Y-43290000D01*
X28515000Y-40130000D02*
X29975000Y-40130000D01*
X28515000Y-47750000D02*
X28515000Y-48680000D01*
X28515000Y-50910000D02*
X28515000Y-49980000D01*
X28515000Y-50910000D02*
X30675000Y-50910000D01*
X28515000Y-47750000D02*
X29975000Y-47750000D01*
X22840000Y-57570000D02*
X22840000Y-58500000D01*
X22840000Y-60730000D02*
X22840000Y-59800000D01*
X22840000Y-60730000D02*
X25000000Y-60730000D01*
X22840000Y-57570000D02*
X24300000Y-57570000D01*
X33585000Y-58265000D02*
X32585000Y-58265000D01*
X32585000Y-56905000D02*
X33585000Y-56905000D01*
X56500000Y-51050000D02*
X57500000Y-51050000D01*
X57500000Y-52410000D02*
X56500000Y-52410000D01*
X55990000Y-29780000D02*
X55990000Y-30780000D01*
X54630000Y-30780000D02*
X54630000Y-29780000D01*
X42475000Y-56995000D02*
X41475000Y-56995000D01*
X41475000Y-55635000D02*
X42475000Y-55635000D01*
X26870000Y-35950000D02*
X27870000Y-35950000D01*
X27870000Y-37310000D02*
X26870000Y-37310000D01*
X49730000Y-31505000D02*
X50730000Y-31505000D01*
X50730000Y-32865000D02*
X49730000Y-32865000D01*
X31045000Y-32230000D02*
X30045000Y-32230000D01*
X30045000Y-30870000D02*
X31045000Y-30870000D01*
X26690000Y-39035000D02*
X26690000Y-38035000D01*
X28050000Y-38035000D02*
X28050000Y-39035000D01*
X31850000Y-32575000D02*
X33050000Y-32575000D01*
X33050000Y-34335000D02*
X31850000Y-34335000D01*
X53209040Y-37116960D02*
X52209040Y-37116960D01*
X52209040Y-35756960D02*
X53209040Y-35756960D01*
X26870000Y-39760000D02*
X27870000Y-39760000D01*
X27870000Y-41120000D02*
X26870000Y-41120000D01*
X26120000Y-35325000D02*
X26120000Y-34325000D01*
X27480000Y-34325000D02*
X27480000Y-35325000D01*
X30680000Y-34680000D02*
X31680000Y-34680000D01*
X31680000Y-36040000D02*
X30680000Y-36040000D01*
X26690000Y-42845000D02*
X26690000Y-41845000D01*
X28050000Y-41845000D02*
X28050000Y-42845000D01*
X26870000Y-47380000D02*
X27870000Y-47380000D01*
X27870000Y-48740000D02*
X26870000Y-48740000D01*
X27370000Y-51110000D02*
X27370000Y-50110000D01*
X28730000Y-50110000D02*
X28730000Y-51110000D01*
X25310000Y-55920000D02*
X25310000Y-56920000D01*
X23950000Y-56920000D02*
X23950000Y-55920000D01*
X21130000Y-61360000D02*
X21130000Y-60360000D01*
X22490000Y-60360000D02*
X22490000Y-61360000D01*
X34645000Y-28320000D02*
X27545000Y-28320000D01*
X34645000Y-24620000D02*
X27545000Y-24620000D01*
X34645000Y-28320000D02*
X34645000Y-24620000D01*
X38030000Y-55465000D02*
X37030000Y-55465000D01*
X37030000Y-57165000D02*
X38030000Y-57165000D01*
X18825000Y-24620000D02*
X25925000Y-24620000D01*
X18825000Y-28320000D02*
X25925000Y-28320000D01*
X18825000Y-24620000D02*
X18825000Y-28320000D01*
X23425000Y-22445000D02*
X22425000Y-22445000D01*
X22425000Y-24145000D02*
X23425000Y-24145000D01*
X33325000Y-44525000D02*
X33325000Y-43525000D01*
X31625000Y-43525000D02*
X31625000Y-44525000D01*
X38800000Y-53500000D02*
X37800000Y-53500000D01*
X37800000Y-55200000D02*
X38800000Y-55200000D01*
X47190000Y-34940000D02*
X48190000Y-34940000D01*
X48190000Y-33240000D02*
X47190000Y-33240000D01*
X36125000Y-33810000D02*
X35125000Y-33810000D01*
X35125000Y-35510000D02*
X36125000Y-35510000D01*
X54950000Y-54200000D02*
X53950000Y-54200000D01*
X53950000Y-55900000D02*
X54950000Y-55900000D01*
X31970000Y-57100000D02*
X36270000Y-57100000D01*
X36270000Y-57100000D02*
X36270000Y-55100000D01*
X36270000Y-55100000D02*
X31970000Y-55100000D01*
X57375000Y-24505000D02*
X59595000Y-24505000D01*
X57375000Y-30975000D02*
X59595000Y-30975000D01*
X59595000Y-25785000D02*
X59595000Y-27155000D01*
X59595000Y-28325000D02*
X59595000Y-29695000D01*
X57375000Y-24515000D02*
X57375000Y-25885000D01*
X59595000Y-24615000D02*
X61425000Y-24615000D01*
X59595000Y-24505000D02*
X59595000Y-24615000D01*
X57375000Y-30865000D02*
X57375000Y-30975000D01*
X57375000Y-27055000D02*
X57375000Y-28425000D01*
X57375000Y-29595000D02*
X57375000Y-30965000D01*
D13*
X14170000Y-50768000D02*
X18420000Y-50768000D01*
X18420000Y-50768000D02*
X18420000Y-53308000D01*
X18420000Y-53308000D02*
X18420000Y-54578000D01*
X18420000Y-54578000D02*
X14170000Y-54578000D01*
X14170000Y-54578000D02*
X14170000Y-50768000D01*
X18615000Y-50768000D02*
X22865000Y-50768000D01*
X22865000Y-50768000D02*
X22865000Y-53308000D01*
X22865000Y-53308000D02*
X22865000Y-54578000D01*
X22865000Y-54578000D02*
X18615000Y-54578000D01*
X18615000Y-54578000D02*
X18615000Y-50768000D01*
X50468000Y-73858000D02*
X50468000Y-69608000D01*
X50468000Y-69608000D02*
X53008000Y-69608000D01*
X53008000Y-69608000D02*
X54278000Y-69608000D01*
X54278000Y-69608000D02*
X54278000Y-73858000D01*
X54278000Y-73858000D02*
X50468000Y-73858000D01*
X50468000Y-69413000D02*
X50468000Y-65163000D01*
X50468000Y-65163000D02*
X53008000Y-65163000D01*
X53008000Y-65163000D02*
X54278000Y-65163000D01*
X54278000Y-65163000D02*
X54278000Y-69413000D01*
X54278000Y-69413000D02*
X50468000Y-69413000D01*
X33450000Y-73858000D02*
X33450000Y-69608000D01*
X33450000Y-69608000D02*
X35990000Y-69608000D01*
X35990000Y-69608000D02*
X37260000Y-69608000D01*
X37260000Y-69608000D02*
X37260000Y-73858000D01*
X37260000Y-73858000D02*
X33450000Y-73858000D01*
X33450000Y-69413000D02*
X33450000Y-65163000D01*
X33450000Y-65163000D02*
X35990000Y-65163000D01*
X35990000Y-65163000D02*
X37260000Y-65163000D01*
X37260000Y-65163000D02*
X37260000Y-69413000D01*
X37260000Y-69413000D02*
X33450000Y-69413000D01*
X54278000Y-14724000D02*
X54278000Y-18974000D01*
X54278000Y-18974000D02*
X51738000Y-18974000D01*
X51738000Y-18974000D02*
X50468000Y-18974000D01*
X50468000Y-18974000D02*
X50468000Y-14724000D01*
X50468000Y-14724000D02*
X54278000Y-14724000D01*
X54278000Y-19169000D02*
X54278000Y-23419000D01*
X54278000Y-23419000D02*
X51738000Y-23419000D01*
X51738000Y-23419000D02*
X50468000Y-23419000D01*
X50468000Y-23419000D02*
X50468000Y-19169000D01*
X50468000Y-19169000D02*
X54278000Y-19169000D01*
X73431000Y-37560000D02*
X69181000Y-37560000D01*
X69181000Y-37560000D02*
X69181000Y-35020000D01*
X69181000Y-35020000D02*
X69181000Y-33750000D01*
X69181000Y-33750000D02*
X73431000Y-33750000D01*
X73431000Y-33750000D02*
X73431000Y-37560000D01*
X68859000Y-54705000D02*
X64609000Y-54705000D01*
X64609000Y-54705000D02*
X64609000Y-52165000D01*
X64609000Y-52165000D02*
X64609000Y-50895000D01*
X64609000Y-50895000D02*
X68859000Y-50895000D01*
X68859000Y-50895000D02*
X68859000Y-54705000D01*
X37260000Y-19169000D02*
X37260000Y-23419000D01*
X37260000Y-23419000D02*
X34720000Y-23419000D01*
X34720000Y-23419000D02*
X33450000Y-23419000D01*
X33450000Y-23419000D02*
X33450000Y-19169000D01*
X33450000Y-19169000D02*
X37260000Y-19169000D01*
X14424000Y-33877000D02*
X18674000Y-33877000D01*
X18674000Y-33877000D02*
X18674000Y-36417000D01*
X18674000Y-36417000D02*
X18674000Y-37687000D01*
X18674000Y-37687000D02*
X14424000Y-37687000D01*
X14424000Y-37687000D02*
X14424000Y-33877000D01*
X18869000Y-33877000D02*
X23119000Y-33877000D01*
X23119000Y-33877000D02*
X23119000Y-36417000D01*
X23119000Y-36417000D02*
X23119000Y-37687000D01*
X23119000Y-37687000D02*
X18869000Y-37687000D01*
X18869000Y-37687000D02*
X18869000Y-33877000D01*
D12*
X54085000Y-57720000D02*
X54085000Y-58720000D01*
X52725000Y-58720000D02*
X52725000Y-57720000D01*
X54540000Y-56995000D02*
X53540000Y-56995000D01*
X53540000Y-55635000D02*
X54540000Y-55635000D01*
X45910000Y-62865000D02*
X39310000Y-62865000D01*
X45910000Y-57385000D02*
X39310000Y-57385000D01*
X50410000Y-62925000D02*
X50410000Y-57325000D01*
D13*
X19524580Y-58512460D02*
X15274580Y-58512460D01*
X15274580Y-58512460D02*
X15274580Y-55972460D01*
X15274580Y-55972460D02*
X15274580Y-54702460D01*
X15274580Y-54702460D02*
X19524580Y-54702460D01*
X19524580Y-54702460D02*
X19524580Y-58512460D01*
D14*
X35610000Y-37250000D02*
X49610000Y-37250000D01*
X49610000Y-37250000D02*
X49610000Y-51250000D01*
X49610000Y-51250000D02*
X35610000Y-51250000D01*
X35610000Y-51250000D02*
X35610000Y-37250000D01*
X36859900Y-38250000D02*
G75*
G03X36859900Y-38250000I-249900J0D01*
G01*
D10*
X34564000Y-37100000D02*
G75*
G03X34564000Y-37100000I-254000J0D01*
G01*
D13*
X73304000Y-54705000D02*
X69054000Y-54705000D01*
X69054000Y-54705000D02*
X69054000Y-52165000D01*
X69054000Y-52165000D02*
X69054000Y-50895000D01*
X69054000Y-50895000D02*
X73304000Y-50895000D01*
X73304000Y-50895000D02*
X73304000Y-54705000D01*
M02*
