G04 #@! TF.FileFunction,Copper,L1,Top,Signal*
%FSLAX46Y46*%
G04 Gerber Fmt 4.6, Leading zero omitted, Abs format (unit mm)*
G04 Created by KiCad (PCBNEW 4.0.7) date 01/19/18 23:24:35*
%MOMM*%
%LPD*%
G01*
G04 APERTURE LIST*
%ADD10C,0.152400*%
%ADD11C,0.100000*%
%ADD12R,2.000000X3.800000*%
%ADD13R,2.000000X1.500000*%
%ADD14R,2.550000X2.500000*%
%ADD15R,1.000000X1.250000*%
%ADD16C,1.000000*%
%ADD17R,0.800000X3.000000*%
%ADD18R,2.100000X3.000000*%
%ADD19C,1.524000*%
%ADD20R,3.000000X0.800000*%
%ADD21R,0.600000X0.500000*%
%ADD22R,1.500000X0.500000*%
%ADD23R,0.900000X0.800000*%
%ADD24R,0.500000X0.900000*%
%ADD25R,0.900000X0.500000*%
%ADD26R,0.700000X1.300000*%
%ADD27R,1.250000X1.000000*%
%ADD28R,1.300000X1.700000*%
%ADD29R,3.000000X0.650000*%
%ADD30R,5.500000X2.000000*%
%ADD31R,1.500000X0.290000*%
%ADD32R,0.290000X1.500000*%
%ADD33C,1.000000*%
%ADD34C,0.250000*%
%ADD35C,2.000000*%
%ADD36C,0.500000*%
%ADD37C,0.203000*%
%ADD38C,0.300000*%
%ADD39C,0.750000*%
G04 APERTURE END LIST*
D10*
D11*
X14400000Y-73700000D02*
X73300000Y-73700000D01*
X73300000Y-14700000D02*
X73300000Y-73700000D01*
X14400000Y-14700000D02*
X73300000Y-14700000D01*
X14400000Y-73700000D02*
X14400000Y-14700000D01*
X62925000Y-50600000D02*
X62925000Y-50475000D01*
D12*
X61660000Y-67745000D03*
D13*
X55310000Y-67745000D03*
X55310000Y-65205000D03*
X55310000Y-70285000D03*
D14*
X54690000Y-62030000D03*
X59740000Y-62030000D03*
X67360000Y-62030000D03*
X62310000Y-62030000D03*
D15*
X62565000Y-66475000D03*
X64565000Y-66475000D03*
D16*
X62835260Y-53432460D03*
X61585260Y-53432460D03*
X69297020Y-56084220D03*
X70547020Y-56084220D03*
D17*
X57700000Y-49260000D03*
X56450000Y-49260000D03*
X55200000Y-49260000D03*
D18*
X60250000Y-52860000D03*
X51400000Y-52860000D03*
D17*
X53950000Y-49260000D03*
D19*
X50240000Y-51740000D03*
X55320000Y-51740000D03*
X60400000Y-51740000D03*
X60400000Y-36500000D03*
X55320000Y-36500000D03*
X50240000Y-36500000D03*
D16*
X67486000Y-36290000D03*
X66236000Y-36290000D03*
D20*
X58672960Y-22355200D03*
X58672960Y-21105200D03*
X58672960Y-19855200D03*
X58672960Y-18605200D03*
D16*
X35990000Y-16224000D03*
X35990000Y-17474000D03*
D21*
X39520000Y-56315000D03*
X40620000Y-56315000D03*
X44430000Y-56315000D03*
X43330000Y-56315000D03*
D12*
X26100000Y-20755000D03*
D13*
X32450000Y-20755000D03*
X32450000Y-23295000D03*
X32450000Y-18215000D03*
D22*
X29655000Y-62125000D03*
X26355000Y-62125000D03*
X29655000Y-61125000D03*
X26355000Y-61125000D03*
X29655000Y-60125000D03*
X26355000Y-60125000D03*
X29655000Y-59125000D03*
X26355000Y-59125000D03*
X29655000Y-58125000D03*
X26355000Y-58125000D03*
D23*
X30275000Y-38850000D03*
X30275000Y-36950000D03*
X28275000Y-37900000D03*
X53135000Y-35040000D03*
X53135000Y-33140000D03*
X51135000Y-34090000D03*
X29640000Y-35040000D03*
X29640000Y-33140000D03*
X27640000Y-34090000D03*
X30275000Y-42660000D03*
X30275000Y-40760000D03*
X28275000Y-41710000D03*
X30275000Y-50280000D03*
X30275000Y-48380000D03*
X28275000Y-49330000D03*
X24600000Y-60100000D03*
X24600000Y-58200000D03*
X22600000Y-59150000D03*
D24*
X32335000Y-57585000D03*
X33835000Y-57585000D03*
X57750000Y-51730000D03*
X56250000Y-51730000D03*
D25*
X55310000Y-31030000D03*
X55310000Y-29530000D03*
D24*
X41225000Y-56315000D03*
X42725000Y-56315000D03*
X28120000Y-36630000D03*
X26620000Y-36630000D03*
X50980000Y-32185000D03*
X49480000Y-32185000D03*
X29795000Y-31550000D03*
X31295000Y-31550000D03*
D25*
X27370000Y-37785000D03*
X27370000Y-39285000D03*
D26*
X33400000Y-33455000D03*
X31500000Y-33455000D03*
D24*
X51959040Y-36436960D03*
X53459040Y-36436960D03*
X28120000Y-40440000D03*
X26620000Y-40440000D03*
D25*
X26800000Y-34075000D03*
X26800000Y-35575000D03*
D24*
X31930000Y-35360000D03*
X30430000Y-35360000D03*
D25*
X27370000Y-41595000D03*
X27370000Y-43095000D03*
D24*
X28120000Y-48060000D03*
X26620000Y-48060000D03*
D25*
X28050000Y-49860000D03*
X28050000Y-51360000D03*
X24630000Y-57170000D03*
X24630000Y-55670000D03*
X21810000Y-60110000D03*
X21810000Y-61610000D03*
D14*
X33070000Y-26470000D03*
X28020000Y-26470000D03*
D15*
X36530000Y-56315000D03*
X38530000Y-56315000D03*
D14*
X20400000Y-26470000D03*
X25450000Y-26470000D03*
D15*
X21925000Y-23295000D03*
X23925000Y-23295000D03*
D27*
X32475000Y-43025000D03*
X32475000Y-45025000D03*
D15*
X37300000Y-54350000D03*
X39300000Y-54350000D03*
X48690000Y-34090000D03*
X46690000Y-34090000D03*
X34625000Y-34660000D03*
X36625000Y-34660000D03*
X53450000Y-55050000D03*
X55450000Y-55050000D03*
D28*
X35470000Y-56100000D03*
X31970000Y-56100000D03*
D29*
X56985000Y-26470000D03*
X56985000Y-29010000D03*
X59985000Y-25200000D03*
X59985000Y-27740000D03*
X59985000Y-30280000D03*
D16*
X15670000Y-52038000D03*
X16920000Y-52038000D03*
X20115000Y-52038000D03*
X21365000Y-52038000D03*
X51738000Y-72358000D03*
X51738000Y-71108000D03*
X51738000Y-67913000D03*
X51738000Y-66663000D03*
X34720000Y-72358000D03*
X34720000Y-71108000D03*
X34720000Y-67913000D03*
X34720000Y-66663000D03*
X53008000Y-16224000D03*
X53008000Y-17474000D03*
X53008000Y-20669000D03*
X53008000Y-21919000D03*
X71931000Y-36290000D03*
X70681000Y-36290000D03*
X67359000Y-53435000D03*
X66109000Y-53435000D03*
X35990000Y-20669000D03*
X35990000Y-21919000D03*
X15924000Y-35147000D03*
X17174000Y-35147000D03*
X20369000Y-35147000D03*
X21619000Y-35147000D03*
D25*
X53405000Y-58970000D03*
X53405000Y-57470000D03*
D24*
X53290000Y-56315000D03*
X54790000Y-56315000D03*
D17*
X41700000Y-32240000D03*
X40450000Y-32240000D03*
X39200000Y-32240000D03*
X42950000Y-32240000D03*
X44200000Y-32240000D03*
D18*
X36650000Y-28640000D03*
X48000000Y-28640000D03*
D17*
X45450000Y-32240000D03*
D30*
X47360000Y-60125000D03*
X37860000Y-60125000D03*
D16*
X18024580Y-57242460D03*
X16774580Y-57242460D03*
D31*
X34610000Y-38250000D03*
X34610000Y-38750000D03*
X34610000Y-39250000D03*
X34610000Y-39750000D03*
X34610000Y-40250000D03*
X34610000Y-42750000D03*
X34610000Y-43250000D03*
X34610000Y-43750000D03*
X34610000Y-44250000D03*
X34610000Y-44750000D03*
X34610000Y-45250000D03*
X34610000Y-45750000D03*
X34610000Y-46250000D03*
X34610000Y-46750000D03*
X34610000Y-47250000D03*
X34610000Y-47750000D03*
X34610000Y-48250000D03*
X34610000Y-48750000D03*
X34610000Y-49250000D03*
X34610000Y-49750000D03*
X34610000Y-50250000D03*
D32*
X36610000Y-52250000D03*
X37110000Y-52250000D03*
X37610000Y-52250000D03*
X38110000Y-52250000D03*
X38610000Y-52250000D03*
X39110000Y-52250000D03*
X39610000Y-52250000D03*
X40110000Y-52250000D03*
X40610000Y-52250000D03*
X41110000Y-52250000D03*
X41610000Y-52250000D03*
X42110000Y-52250000D03*
X42610000Y-52250000D03*
X43110000Y-52250000D03*
X43610000Y-52250000D03*
X44110000Y-52250000D03*
X44610000Y-52250000D03*
X45110000Y-52250000D03*
X45610000Y-52250000D03*
X46110000Y-52250000D03*
X46610000Y-52250000D03*
X47110000Y-52250000D03*
X47610000Y-52250000D03*
X48110000Y-52250000D03*
X48610000Y-52250000D03*
D31*
X50610000Y-50250000D03*
X50610000Y-49750000D03*
X50610000Y-49250000D03*
X50610000Y-48750000D03*
X50610000Y-48250000D03*
X50610000Y-47750000D03*
X50610000Y-47250000D03*
X50610000Y-46750000D03*
X50610000Y-46250000D03*
X50610000Y-45750000D03*
X50610000Y-45250000D03*
X50610000Y-44750000D03*
X50610000Y-44250000D03*
X50610000Y-43750000D03*
X50610000Y-43250000D03*
X50610000Y-42750000D03*
X50610000Y-42250000D03*
X50610000Y-41750000D03*
X50610000Y-41250000D03*
X50610000Y-40750000D03*
X50610000Y-40250000D03*
X50610000Y-39750000D03*
X50610000Y-39250000D03*
X50610000Y-38750000D03*
X50610000Y-38250000D03*
D32*
X48610000Y-36250000D03*
X48110000Y-36250000D03*
X47610000Y-36250000D03*
X47110000Y-36250000D03*
X46610000Y-36250000D03*
X46110000Y-36250000D03*
X45610000Y-36250000D03*
X45110000Y-36250000D03*
X44610000Y-36250000D03*
X44110000Y-36250000D03*
X43610000Y-36250000D03*
X43110000Y-36250000D03*
X42610000Y-36250000D03*
X42110000Y-36250000D03*
X41610000Y-36250000D03*
X41110000Y-36250000D03*
X40610000Y-36250000D03*
X40110000Y-36250000D03*
X39610000Y-36250000D03*
X39110000Y-36250000D03*
X38610000Y-36250000D03*
X38110000Y-36250000D03*
X37610000Y-36250000D03*
X37110000Y-36250000D03*
X36610000Y-36250000D03*
D16*
X71804000Y-53435000D03*
X70554000Y-53435000D03*
X62865740Y-23028660D03*
X63871580Y-24400260D03*
X55916300Y-21702780D03*
X60642730Y-19727570D03*
X58154800Y-23579480D03*
X59120000Y-32083400D03*
X62449940Y-27145640D03*
X25103940Y-24473940D03*
X48020200Y-41105480D03*
X54800000Y-65300000D03*
X64200000Y-66475000D03*
X39100000Y-56300000D03*
X32600000Y-39890000D03*
X33880000Y-37370000D03*
X40490000Y-27970000D03*
X42790000Y-28830000D03*
X31320000Y-51910000D03*
X28350000Y-54820000D03*
X47680000Y-32670000D03*
X47825000Y-53800000D03*
X37350000Y-31525000D03*
X37200000Y-34550000D03*
X61040000Y-47300000D03*
X61025000Y-62665000D03*
X28800000Y-60150000D03*
X31930000Y-35360000D03*
X33740000Y-30480000D03*
X28100000Y-26900000D03*
X54660000Y-54440000D03*
X58423280Y-39998400D03*
X59772020Y-47450760D03*
X66304900Y-57303420D03*
X54299080Y-23107040D03*
X52124840Y-28395320D03*
X52955420Y-26673200D03*
X41410000Y-28970000D03*
X56524120Y-24112880D03*
X52740000Y-37490000D03*
X34770000Y-29740000D03*
X34070000Y-33050000D03*
X31300000Y-31525000D03*
X59800000Y-28800000D03*
X57850000Y-59950000D03*
X61175000Y-67750000D03*
X37300000Y-54350000D03*
X41120000Y-58530000D03*
X38660000Y-57660000D03*
X43860000Y-59960000D03*
X41440000Y-60240000D03*
X27280000Y-39220000D03*
X57275000Y-67750000D03*
X29120000Y-48270000D03*
X34375000Y-54575000D03*
X53135000Y-35040000D03*
X28350000Y-46130000D03*
X27180000Y-42570000D03*
X28975000Y-65000000D03*
X33425000Y-59825000D03*
X36508920Y-39611960D03*
X36072040Y-40747340D03*
X31317160Y-60071660D03*
X46305000Y-53775000D03*
X33030000Y-34810000D03*
X33150000Y-46620000D03*
X53520000Y-41710000D03*
X29600000Y-44880000D03*
X26450000Y-53290000D03*
X28275000Y-41710000D03*
X22600000Y-59150000D03*
X30050000Y-57250000D03*
X29600000Y-46120000D03*
X38570000Y-48270000D03*
X31420000Y-37710000D03*
X36075000Y-54500000D03*
X35300000Y-57750000D03*
X31250000Y-66125000D03*
X52950000Y-46425000D03*
X39716180Y-49525940D03*
X43540000Y-29900000D03*
X45340000Y-49940000D03*
X45350000Y-42850000D03*
X48025000Y-42850000D03*
X39820320Y-48255940D03*
X42818280Y-45489520D03*
X55885820Y-56747160D03*
X59907400Y-44984060D03*
X55190000Y-34430000D03*
X58391020Y-43627700D03*
X56882260Y-35067900D03*
X57610000Y-33170000D03*
X44900000Y-29925000D03*
X43950000Y-54800000D03*
X40011580Y-40930220D03*
X29530000Y-33890000D03*
X60517000Y-39731340D03*
X45070000Y-41660000D03*
X57320000Y-38800000D03*
X40285900Y-42118940D03*
X46907680Y-39680540D03*
X47225000Y-50050000D03*
X54370000Y-35330000D03*
X42625000Y-54100000D03*
X49899800Y-33764880D03*
X32730000Y-31150000D03*
X49147960Y-39540840D03*
X52470280Y-49921820D03*
X63050000Y-55050000D03*
X59850000Y-55170000D03*
X66650000Y-55000000D03*
X69403700Y-61745880D03*
X56275000Y-59950000D03*
X37150000Y-45100000D03*
X53500000Y-40475000D03*
X36575000Y-49400000D03*
X38080000Y-32670000D03*
X47630000Y-56315000D03*
X32890000Y-36340000D03*
X57240000Y-51500000D03*
X57140000Y-54740000D03*
X52612520Y-30864200D03*
X25200000Y-35550000D03*
X30200000Y-22550000D03*
X58010000Y-46650000D03*
X58820000Y-48410000D03*
X49200000Y-32050000D03*
X46200000Y-30000000D03*
X33460000Y-53670000D03*
X28430000Y-56140000D03*
X35140000Y-62100000D03*
X51150000Y-56100000D03*
X42350000Y-61070000D03*
X24580000Y-55520000D03*
X27160000Y-40620000D03*
X37710340Y-42926660D03*
X38911760Y-39657680D03*
X35655480Y-41903040D03*
X31530000Y-39340000D03*
X29280000Y-39920000D03*
X44240000Y-47020000D03*
X42370000Y-41680000D03*
X42300000Y-39300000D03*
X27600000Y-52840000D03*
X26560000Y-56400000D03*
X23810000Y-56680000D03*
X28510000Y-43510000D03*
X34446440Y-41882720D03*
X40682140Y-47331020D03*
X45208420Y-39703400D03*
X51010000Y-32160000D03*
X59120000Y-34840000D03*
X60539860Y-33028280D03*
X39460000Y-27160000D03*
X44740000Y-27100000D03*
X34885100Y-28357580D03*
X48250000Y-49360000D03*
X53360000Y-54040000D03*
X45140000Y-34700000D03*
X45180000Y-38500000D03*
X43240000Y-38540000D03*
X43750000Y-34460000D03*
X42250000Y-34450000D03*
X41120000Y-38730000D03*
X40810000Y-34460000D03*
X39290000Y-38510000D03*
X47837320Y-45045020D03*
X53689480Y-44648780D03*
X52734440Y-48738180D03*
X48507880Y-47704400D03*
X52325500Y-47574860D03*
X47837320Y-46683320D03*
X52127380Y-45502220D03*
X49140340Y-46096580D03*
X55620000Y-39390000D03*
X58131940Y-36160100D03*
X53290000Y-39280000D03*
X62250000Y-31975000D03*
X58154800Y-45441260D03*
X61027540Y-40907360D03*
X51347600Y-35288880D03*
X53267840Y-29213200D03*
D33*
X64350000Y-59020000D02*
X64350000Y-53459500D01*
X64350000Y-53459500D02*
X64374500Y-53435000D01*
X64374500Y-53435000D02*
X64374500Y-52556160D01*
X64374500Y-52556160D02*
X63368340Y-51550000D01*
X63368340Y-51550000D02*
X62295000Y-51550000D01*
X62295000Y-51235000D02*
X62295000Y-51550000D01*
X62295000Y-51235000D02*
X62295000Y-37376360D01*
D34*
X35990000Y-21919000D02*
X35543280Y-21919000D01*
X35543280Y-21919000D02*
X34598080Y-20973800D01*
X34598080Y-20363080D02*
X32450000Y-18215000D01*
X34598080Y-20973800D02*
X34598080Y-20363080D01*
D33*
X22494980Y-56287420D02*
X22007300Y-56287420D01*
X19609540Y-58685180D02*
X19609540Y-58278780D01*
X22007300Y-56287420D02*
X19609540Y-58685180D01*
X19203140Y-58278780D02*
X19609540Y-58278780D01*
X19609540Y-58278780D02*
X19426660Y-58278780D01*
X19426660Y-58278780D02*
X22494980Y-55210460D01*
X21926020Y-52038000D02*
X21926020Y-54661820D01*
X21926020Y-54661820D02*
X18756100Y-57831740D01*
X24140900Y-52038000D02*
X23432240Y-52038000D01*
X23432240Y-52038000D02*
X21365000Y-54105240D01*
X21365000Y-52038000D02*
X21926020Y-52038000D01*
X21926020Y-52038000D02*
X24140900Y-52038000D01*
X24140900Y-52038000D02*
X24321240Y-52038000D01*
X24321240Y-52038000D02*
X24460940Y-52177700D01*
X18024580Y-57242460D02*
X18227780Y-57242460D01*
X18227780Y-57242460D02*
X21365000Y-54105240D01*
X21365000Y-54105240D02*
X21365000Y-52038000D01*
X18024580Y-57242460D02*
X18166820Y-57242460D01*
X18166820Y-57242460D02*
X18756100Y-57831740D01*
X18756100Y-57831740D02*
X19203140Y-58278780D01*
X19203140Y-58278780D02*
X20300420Y-59376060D01*
X64374500Y-53435000D02*
X64374500Y-53918500D01*
X64374500Y-53918500D02*
X65000000Y-54544000D01*
X65000000Y-54900000D02*
X65000000Y-54544000D01*
X65000000Y-54544000D02*
X66109000Y-53435000D01*
X66109000Y-53435000D02*
X64374500Y-53435000D01*
X66236000Y-26764680D02*
X66236000Y-25560720D01*
X63703940Y-23028660D02*
X62865740Y-23028660D01*
X66236000Y-25560720D02*
X63703940Y-23028660D01*
X65253340Y-25782020D02*
X65253340Y-34458660D01*
X65248260Y-34463740D02*
X65248260Y-35134300D01*
X65253340Y-34458660D02*
X65248260Y-34463740D01*
X65045060Y-36290000D02*
X65045060Y-36028380D01*
X66236000Y-34837440D02*
X66236000Y-34146560D01*
X65045060Y-36028380D02*
X66236000Y-34837440D01*
X64435460Y-36290000D02*
X64435460Y-35947100D01*
X64435460Y-35947100D02*
X65248260Y-35134300D01*
X65248260Y-35134300D02*
X66236000Y-34146560D01*
X66236000Y-34146560D02*
X66236000Y-34146560D01*
X63339450Y-36293810D02*
X63339450Y-36169350D01*
X63339450Y-36169350D02*
X66236000Y-33272800D01*
X62295000Y-37376360D02*
X62295000Y-37338260D01*
X62295000Y-37338260D02*
X63339450Y-36293810D01*
X63339450Y-36293810D02*
X63343260Y-36290000D01*
X66236000Y-36290000D02*
X65045060Y-36290000D01*
X65045060Y-36290000D02*
X64435460Y-36290000D01*
X64435460Y-36290000D02*
X63343260Y-36290000D01*
X63343260Y-36290000D02*
X63332422Y-36290000D01*
X63871580Y-24400260D02*
X65253340Y-25782020D01*
X65253340Y-25782020D02*
X66236000Y-26764680D01*
X66236000Y-26764680D02*
X66236000Y-33272800D01*
X66236000Y-33272800D02*
X66236000Y-34146560D01*
X66236000Y-34146560D02*
X66236000Y-36290000D01*
D35*
X52121540Y-22845780D02*
X52121540Y-24583140D01*
D33*
X53008000Y-21959320D02*
X52121540Y-22845780D01*
D35*
X52121540Y-24583140D02*
X51205360Y-25499320D01*
D33*
X51205360Y-25835000D02*
X51205360Y-25499320D01*
X39050000Y-25835000D02*
X50478920Y-25835000D01*
X50824360Y-25835000D02*
X50478920Y-25835000D01*
X50824360Y-25835000D02*
X51205360Y-25835000D01*
X51205360Y-25499320D02*
X51572900Y-25131780D01*
X53008000Y-21919000D02*
X53008000Y-21959320D01*
X35990000Y-21919000D02*
X35990000Y-24930000D01*
X35990000Y-24930000D02*
X36260000Y-25200000D01*
X21619000Y-35147000D02*
X21619000Y-29620040D01*
X22737040Y-28502000D02*
X28731440Y-28502000D01*
X21619000Y-29620040D02*
X22737040Y-28502000D01*
X22494980Y-54153820D02*
X22494980Y-54143660D01*
X22494980Y-55210460D02*
X22494980Y-54153820D01*
X22494980Y-54143660D02*
X24460940Y-52177700D01*
X22494980Y-57151020D02*
X22494980Y-56287420D01*
X22494980Y-56287420D02*
X22494980Y-55210460D01*
X20300420Y-59376060D02*
X20300420Y-59345580D01*
X20300420Y-59345580D02*
X22494980Y-57151020D01*
X32683240Y-66663000D02*
X31943780Y-67402460D01*
X31943780Y-67402460D02*
X27879780Y-67402460D01*
X27879780Y-67402460D02*
X23145220Y-62667900D01*
X23145220Y-62667900D02*
X20828740Y-62667900D01*
X20828740Y-62667900D02*
X20300420Y-62139580D01*
X20300420Y-62139580D02*
X20300420Y-59376060D01*
X34720000Y-66663000D02*
X32683240Y-66663000D01*
X23539240Y-37067240D02*
X21619000Y-35147000D01*
X24460940Y-52177700D02*
X25466780Y-51171860D01*
X25466780Y-51171860D02*
X25466780Y-37687000D01*
X25466780Y-37687000D02*
X24847020Y-37067240D01*
X24847020Y-37067240D02*
X23539240Y-37067240D01*
X36895000Y-62665000D02*
X36686320Y-62665000D01*
X36895000Y-62665000D02*
X50865000Y-62665000D01*
X51500000Y-63300000D02*
X50865000Y-62665000D01*
X34720000Y-64631320D02*
X34720000Y-66663000D01*
X36686320Y-62665000D02*
X34720000Y-64631320D01*
X51738000Y-66663000D02*
X51738000Y-63538000D01*
X51738000Y-63538000D02*
X51500000Y-63300000D01*
X25236400Y-29355440D02*
X24342320Y-29355440D01*
X25236400Y-29355440D02*
X25510720Y-29081120D01*
X26729920Y-29081120D02*
X26465760Y-29081120D01*
X28152320Y-29081120D02*
X27563040Y-29081120D01*
X28152320Y-29081120D02*
X28731440Y-28502000D01*
X27563040Y-29081120D02*
X26729920Y-29081120D01*
X26729920Y-29081120D02*
X25510720Y-29081120D01*
X25510720Y-29081120D02*
X23234880Y-29081120D01*
X29432480Y-28502000D02*
X29432480Y-28634080D01*
X33070000Y-26470000D02*
X31794680Y-26470000D01*
X29762680Y-28502000D02*
X29432480Y-28502000D01*
X29432480Y-28502000D02*
X28731440Y-28502000D01*
X31794680Y-26470000D02*
X29762680Y-28502000D01*
D34*
X51500000Y-63300000D02*
X53420000Y-63300000D01*
X53420000Y-63300000D02*
X54690000Y-62030000D01*
D33*
X33070000Y-25580000D02*
X33070000Y-26470000D01*
X39050000Y-25835000D02*
X38765000Y-25835000D01*
X35110000Y-26350000D02*
X35110000Y-26470000D01*
X38250000Y-26350000D02*
X35110000Y-26350000D01*
X38765000Y-25835000D02*
X38250000Y-26350000D01*
X33070000Y-26470000D02*
X33730000Y-26470000D01*
X64835000Y-55065000D02*
X65000000Y-54900000D01*
X64835000Y-58535000D02*
X64835000Y-55065000D01*
X62295000Y-37376360D02*
X62295000Y-37376360D01*
X64350000Y-64350000D02*
X64350000Y-59020000D01*
X64350000Y-59020000D02*
X64835000Y-58535000D01*
X59980000Y-64980000D02*
X64720000Y-64980000D01*
X65250000Y-60980000D02*
X64835000Y-60565000D01*
X65250000Y-64450000D02*
X65250000Y-60980000D01*
X64720000Y-64980000D02*
X65250000Y-64450000D01*
X58530000Y-66430000D02*
X58530000Y-65520000D01*
X59700000Y-64350000D02*
X64350000Y-64350000D01*
X64350000Y-64350000D02*
X64420000Y-64350000D01*
X58530000Y-65520000D02*
X59700000Y-64350000D01*
X55310000Y-70285000D02*
X57665000Y-70285000D01*
X59300000Y-68650000D02*
X59300000Y-65660000D01*
X57665000Y-70285000D02*
X59300000Y-68650000D01*
X57200000Y-69600000D02*
X57200000Y-69665000D01*
X57265000Y-69600000D02*
X57200000Y-69600000D01*
X54385000Y-70285000D02*
X55310000Y-70285000D01*
D34*
X53405000Y-58970000D02*
X53405000Y-60745000D01*
X53405000Y-60745000D02*
X54690000Y-62030000D01*
D33*
X33070000Y-26470000D02*
X35110000Y-26470000D01*
X35110000Y-26470000D02*
X34990000Y-26470000D01*
X34990000Y-26470000D02*
X36260000Y-25200000D01*
X55310000Y-70285000D02*
X56580000Y-70285000D01*
X56580000Y-70285000D02*
X57200000Y-69665000D01*
X64835000Y-60565000D02*
X64835000Y-58535000D01*
X64420000Y-64350000D02*
X64835000Y-63935000D01*
X64835000Y-63935000D02*
X64835000Y-60565000D01*
X64200000Y-64570000D02*
X64420000Y-64350000D01*
X59300000Y-65660000D02*
X59980000Y-64980000D01*
X59980000Y-64980000D02*
X60390000Y-64570000D01*
X60390000Y-64570000D02*
X64200000Y-64570000D01*
X57200000Y-69665000D02*
X58485000Y-68380000D01*
X58485000Y-66475000D02*
X58530000Y-66430000D01*
X58530000Y-66430000D02*
X59300000Y-65660000D01*
X58485000Y-68380000D02*
X58485000Y-66475000D01*
X62295000Y-37265000D02*
X62295000Y-37376360D01*
X36895000Y-25835000D02*
X39050000Y-25835000D01*
X36260000Y-25200000D02*
X36895000Y-25835000D01*
D34*
X32450000Y-18215000D02*
X33085000Y-18215000D01*
X60250000Y-52860000D02*
X61012800Y-52860000D01*
X61012800Y-52860000D02*
X61585260Y-53432460D01*
D36*
X56941320Y-19855200D02*
X56862180Y-19855200D01*
X58672960Y-19855200D02*
X56941320Y-19855200D01*
X55916300Y-20801080D02*
X55916300Y-21702780D01*
X56862180Y-19855200D02*
X55916300Y-20801080D01*
X58672960Y-19855200D02*
X60515100Y-19855200D01*
D37*
X60515100Y-19855200D02*
X60642730Y-19727570D01*
D36*
X59775320Y-25200000D02*
X58154800Y-23579480D01*
D37*
X62391520Y-27204060D02*
X62449940Y-27145640D01*
X62391520Y-27259940D02*
X62391520Y-27204060D01*
D36*
X61660000Y-29124300D02*
X62391520Y-28392780D01*
X62391520Y-28392780D02*
X62391520Y-27259940D01*
D37*
X59120000Y-31928460D02*
X59120000Y-32083400D01*
X61129140Y-29645000D02*
X61649840Y-29124300D01*
X58213220Y-29645000D02*
X61129140Y-29645000D01*
X57979540Y-29878680D02*
X58213220Y-29645000D01*
X57979540Y-30788000D02*
X57979540Y-29878680D01*
X59120000Y-31928460D02*
X57979540Y-30788000D01*
D36*
X61649840Y-29124300D02*
X61660000Y-29124300D01*
D34*
X25450000Y-26470000D02*
X25450000Y-24820000D01*
X25450000Y-24820000D02*
X25103940Y-24473940D01*
X25103940Y-24473940D02*
X23925000Y-23295000D01*
X59985000Y-25200000D02*
X59775320Y-25200000D01*
X47888120Y-40556840D02*
X47888120Y-40536520D01*
D36*
X48020200Y-40688920D02*
X47888120Y-40556840D01*
D34*
X46110000Y-36250000D02*
X46110000Y-37450000D01*
D36*
X46940000Y-38280000D02*
X46110000Y-37450000D01*
X48020200Y-40688920D02*
X48020200Y-41105480D01*
D38*
X47804300Y-39144300D02*
X46940000Y-38280000D01*
X47804300Y-40452700D02*
X47804300Y-39144300D01*
D34*
X47888120Y-40536520D02*
X47804300Y-40452700D01*
X48020200Y-41105480D02*
X48004960Y-41090240D01*
D37*
X37110000Y-36250000D02*
X37110000Y-38318066D01*
X36056174Y-43250000D02*
X34610000Y-43250000D01*
X36884442Y-42421732D02*
X36056174Y-43250000D01*
X36884442Y-41674972D02*
X36884442Y-42421732D01*
X37321720Y-41237694D02*
X36884442Y-41674972D01*
X37321720Y-41100534D02*
X37321720Y-41237694D01*
X38098562Y-40323692D02*
X37321720Y-41100534D01*
X38098562Y-39306628D02*
X38098562Y-40323692D01*
X37110000Y-38318066D02*
X38098562Y-39306628D01*
D33*
X54800000Y-65300000D02*
X54895000Y-65205000D01*
X54895000Y-65205000D02*
X55310000Y-65205000D01*
D34*
X37110000Y-36250000D02*
X37110000Y-34640000D01*
X37110000Y-34640000D02*
X37200000Y-34550000D01*
X37090000Y-34660000D02*
X37200000Y-34550000D01*
X37090000Y-34660000D02*
X36625000Y-34660000D01*
D33*
X39085000Y-56315000D02*
X38530000Y-56315000D01*
X39520000Y-56315000D02*
X38530000Y-56315000D01*
X38530000Y-56315000D02*
X38530000Y-55120000D01*
X38530000Y-55120000D02*
X39300000Y-54350000D01*
D34*
X39610000Y-52250000D02*
X39610000Y-54040000D01*
X39610000Y-54040000D02*
X39300000Y-54350000D01*
D33*
X39100000Y-56300000D02*
X39085000Y-56315000D01*
D37*
X32600000Y-38520000D02*
X32600000Y-38410000D01*
X32600000Y-39890000D02*
X32600000Y-38520000D01*
X33640000Y-37370000D02*
X33880000Y-37370000D01*
X32600000Y-38410000D02*
X33640000Y-37370000D01*
D36*
X41930000Y-27970000D02*
X40490000Y-27970000D01*
X42790000Y-28830000D02*
X41930000Y-27970000D01*
D34*
X31320000Y-51910000D02*
X28410000Y-54820000D01*
X28410000Y-54820000D02*
X28350000Y-54820000D01*
X46690000Y-34090000D02*
X46690000Y-34010000D01*
D36*
X46690000Y-34010000D02*
X47680000Y-32670000D01*
D34*
X46110000Y-36250000D02*
X46110000Y-34670000D01*
X46110000Y-34670000D02*
X46690000Y-34090000D01*
X64200000Y-66475000D02*
X64565000Y-66475000D01*
X32450000Y-44800000D02*
X33450000Y-43800000D01*
X33450000Y-43800000D02*
X33450000Y-43550000D01*
X33450000Y-43550000D02*
X33750000Y-43250000D01*
X33750000Y-43250000D02*
X34610000Y-43250000D01*
D39*
X44430000Y-56315000D02*
X45535000Y-56315000D01*
X54790000Y-56315000D02*
X54790000Y-55710000D01*
X54600000Y-56505000D02*
X54600000Y-57000000D01*
X55700000Y-58300000D02*
X54600000Y-57200000D01*
X54600000Y-57200000D02*
X54600000Y-57000000D01*
D33*
X59740000Y-59640000D02*
X59740000Y-62030000D01*
X58400000Y-58300000D02*
X56050000Y-58300000D01*
X59740000Y-59640000D02*
X58400000Y-58300000D01*
D39*
X56050000Y-58300000D02*
X55700000Y-58300000D01*
X54600000Y-56505000D02*
X54790000Y-56315000D01*
X47825000Y-54025000D02*
X47825000Y-53800000D01*
X45535000Y-56315000D02*
X47825000Y-54025000D01*
D36*
X37350000Y-31525000D02*
X34785000Y-31525000D01*
X34785000Y-31525000D02*
X33740000Y-30480000D01*
D34*
X39200000Y-32240000D02*
X39090000Y-32240000D01*
X39090000Y-32240000D02*
X38475000Y-31625000D01*
X38475000Y-31625000D02*
X37775000Y-31625000D01*
X37775000Y-31625000D02*
X37675000Y-31525000D01*
X37675000Y-31525000D02*
X37350000Y-31525000D01*
D39*
X60400000Y-49840000D02*
X60400000Y-51740000D01*
X61030000Y-49210000D02*
X60400000Y-49840000D01*
X61030000Y-47310000D02*
X61030000Y-49210000D01*
X61040000Y-47300000D02*
X61030000Y-47310000D01*
X60400000Y-51740000D02*
X60250000Y-52860000D01*
D34*
X62310000Y-62030000D02*
X61930000Y-62030000D01*
X61930000Y-62030000D02*
X61025000Y-61125000D01*
X61025000Y-63175000D02*
X59880000Y-62030000D01*
X61025000Y-61125000D02*
X61025000Y-63175000D01*
X59880000Y-62030000D02*
X59740000Y-62030000D01*
X62310000Y-62030000D02*
X62155000Y-62030000D01*
X62155000Y-62030000D02*
X61025000Y-60900000D01*
X62310000Y-62030000D02*
X61660000Y-62030000D01*
X61660000Y-62030000D02*
X61025000Y-62665000D01*
X59740000Y-62030000D02*
X60390000Y-62030000D01*
X60390000Y-62030000D02*
X61025000Y-62665000D01*
X62310000Y-62030000D02*
X59740000Y-62030000D01*
X28825000Y-60125000D02*
X28800000Y-60150000D01*
X28825000Y-60125000D02*
X29655000Y-60125000D01*
D33*
X28100000Y-26900000D02*
X28020000Y-26820000D01*
X28020000Y-26820000D02*
X28020000Y-26470000D01*
X25450000Y-26470000D02*
X25970000Y-26470000D01*
X25970000Y-26470000D02*
X26725000Y-27225000D01*
X26725000Y-27225000D02*
X25450000Y-26470000D01*
X25450000Y-26470000D02*
X25980000Y-26470000D01*
X25980000Y-26470000D02*
X26725000Y-25725000D01*
X26725000Y-25725000D02*
X25450000Y-26470000D01*
X25450000Y-26470000D02*
X28020000Y-26470000D01*
D34*
X28020000Y-26720000D02*
X28020000Y-26470000D01*
X28020000Y-26470000D02*
X29275000Y-26470000D01*
X29275000Y-26470000D02*
X32450000Y-23295000D01*
D36*
X55450000Y-55050000D02*
X55270000Y-55050000D01*
X55270000Y-55050000D02*
X54660000Y-54440000D01*
D39*
X54790000Y-55710000D02*
X55450000Y-55050000D01*
D34*
X55450000Y-54810000D02*
X55450000Y-55050000D01*
X32450000Y-45250000D02*
X32450000Y-44800000D01*
D37*
X59985000Y-25200000D02*
X59587360Y-25200000D01*
D34*
X38610000Y-52250000D02*
X38610000Y-51227002D01*
X35225000Y-52125000D02*
X35225000Y-55450000D01*
X35225000Y-52125000D02*
X35225000Y-52055000D01*
X36142998Y-51137002D02*
X35225000Y-52055000D01*
X38520000Y-51137002D02*
X36142998Y-51137002D01*
X38610000Y-51227002D02*
X38520000Y-51137002D01*
X29655000Y-59125000D02*
X32295000Y-59125000D01*
X32295000Y-59125000D02*
X33835000Y-57585000D01*
X33835000Y-57585000D02*
X33985000Y-57585000D01*
X33985000Y-57585000D02*
X35470000Y-56100000D01*
X35470000Y-56100000D02*
X35470000Y-55695000D01*
X35470000Y-55695000D02*
X35225000Y-55450000D01*
X35685000Y-56315000D02*
X35470000Y-56100000D01*
X36530000Y-56315000D02*
X35685000Y-56315000D01*
X40110000Y-53392156D02*
X40110000Y-53400642D01*
X40110000Y-52250000D02*
X40110000Y-53392156D01*
X41225000Y-54534880D02*
X41225000Y-56315000D01*
X40196240Y-53506120D02*
X41225000Y-54534880D01*
X40196240Y-53486882D02*
X40196240Y-53506120D01*
X40110000Y-53400642D02*
X40196240Y-53486882D01*
X40620000Y-56315000D02*
X41225000Y-56315000D01*
X37860000Y-60125000D02*
X40205000Y-60125000D01*
X40205000Y-60125000D02*
X40940000Y-59390000D01*
X41970000Y-57060000D02*
X41225000Y-56315000D01*
X41970000Y-58950000D02*
X41970000Y-57060000D01*
X41530000Y-59390000D02*
X41970000Y-58950000D01*
X40940000Y-59390000D02*
X41530000Y-59390000D01*
X37860000Y-60125000D02*
X39450000Y-60125000D01*
X42725000Y-56315000D02*
X42725000Y-57325000D01*
X42725000Y-57325000D02*
X45525000Y-60125000D01*
X45525000Y-60125000D02*
X47360000Y-60125000D01*
X40610000Y-52250000D02*
X40610000Y-53260000D01*
X42725000Y-55375000D02*
X42725000Y-56315000D01*
X40610000Y-53260000D02*
X42725000Y-55375000D01*
X42725000Y-56315000D02*
X43330000Y-56315000D01*
D39*
X58423280Y-39998400D02*
X61082660Y-42657780D01*
X61082660Y-42657780D02*
X61082660Y-45548300D01*
X61082660Y-45548300D02*
X59772020Y-46858940D01*
X59772020Y-46858940D02*
X59772020Y-47450760D01*
D36*
X67360000Y-62030000D02*
X67360000Y-58358520D01*
X67360000Y-58358520D02*
X66304900Y-57303420D01*
X34770000Y-30070000D02*
X34770000Y-30210980D01*
X40450000Y-29950000D02*
X38750000Y-29950000D01*
X35300000Y-30600000D02*
X37100000Y-30600000D01*
D34*
X37850000Y-30600000D02*
X37100000Y-30600000D01*
D36*
X38100000Y-30600000D02*
X38750000Y-29950000D01*
X37850000Y-30600000D02*
X38100000Y-30600000D01*
X34770000Y-30070000D02*
X34770000Y-29740000D01*
X35159020Y-30600000D02*
X35300000Y-30600000D01*
X34770000Y-30210980D02*
X35159020Y-30600000D01*
D34*
X58672960Y-18605200D02*
X56240600Y-18605200D01*
X54314320Y-20531480D02*
X56240600Y-18605200D01*
X54314320Y-23091800D02*
X54314320Y-20531480D01*
X54314320Y-23091800D02*
X54299080Y-23107040D01*
X52124840Y-27503780D02*
X52124840Y-28395320D01*
X52955420Y-26673200D02*
X52124840Y-27503780D01*
D36*
X40450000Y-29950000D02*
X40450000Y-29930000D01*
X40450000Y-29930000D02*
X41410000Y-28970000D01*
D34*
X56985000Y-26470000D02*
X56985000Y-24573760D01*
X56985000Y-24573760D02*
X56524120Y-24112880D01*
D37*
X51560000Y-33020000D02*
X51527280Y-33020000D01*
D34*
X51560000Y-33020000D02*
X53135000Y-34595000D01*
X53135000Y-35040000D02*
X53135000Y-34595000D01*
D37*
X48690000Y-33079840D02*
X48690000Y-34090000D01*
X48817760Y-32952080D02*
X48690000Y-33079840D01*
X50423040Y-32952080D02*
X48817760Y-32952080D01*
X50443360Y-32972400D02*
X50423040Y-32952080D01*
X51479680Y-32972400D02*
X50443360Y-32972400D01*
X51527280Y-33020000D02*
X51479680Y-32972400D01*
D34*
X52740000Y-37490000D02*
X53460000Y-36770000D01*
X53460000Y-36290000D02*
X53460000Y-36770000D01*
D37*
X37194720Y-38976960D02*
X37179480Y-38976960D01*
X34610000Y-42750000D02*
X35982000Y-42750000D01*
X37692560Y-39474800D02*
X37194720Y-38976960D01*
X37692560Y-40155520D02*
X37692560Y-39474800D01*
X36884840Y-40963240D02*
X37692560Y-40155520D01*
X36884840Y-41100400D02*
X36884840Y-40963240D01*
X36478440Y-41506800D02*
X36884840Y-41100400D01*
X36478440Y-42253560D02*
X36478440Y-41506800D01*
X35982000Y-42750000D02*
X36478440Y-42253560D01*
X36610000Y-38407480D02*
X36610000Y-36250000D01*
X37179480Y-38976960D02*
X36610000Y-38407480D01*
D34*
X33665000Y-33455000D02*
X34070000Y-33050000D01*
X34770000Y-30040000D02*
X34770000Y-29740000D01*
X33665000Y-33455000D02*
X33400000Y-33455000D01*
X33400000Y-33455000D02*
X33400000Y-33050000D01*
X33400000Y-33050000D02*
X31900000Y-31550000D01*
X31900000Y-31550000D02*
X31295000Y-31550000D01*
X31300000Y-31525000D02*
X31295000Y-31530000D01*
X31295000Y-31530000D02*
X31295000Y-31550000D01*
X33400000Y-33455000D02*
X33200000Y-33455000D01*
X34625000Y-34660000D02*
X35020000Y-34660000D01*
X35020000Y-34660000D02*
X36610000Y-36250000D01*
X34625000Y-34660000D02*
X34605000Y-34660000D01*
X34605000Y-34660000D02*
X33400000Y-33455000D01*
D37*
X59800000Y-28800000D02*
X59800000Y-28690000D01*
X56985000Y-27126460D02*
X56985000Y-26470000D01*
X58233540Y-28375000D02*
X56985000Y-27126460D01*
X59485000Y-28375000D02*
X58233540Y-28375000D01*
X59800000Y-28690000D02*
X59485000Y-28375000D01*
D33*
X57600000Y-60800000D02*
X57600000Y-60200000D01*
X57200000Y-61200000D02*
X57600000Y-60800000D01*
X55805000Y-67745000D02*
X57200000Y-66350000D01*
X57200000Y-66350000D02*
X57200000Y-62250000D01*
X57200000Y-62250000D02*
X57200000Y-61200000D01*
X57600000Y-60200000D02*
X57850000Y-59950000D01*
X55310000Y-67745000D02*
X55805000Y-67745000D01*
D34*
X61660000Y-67745000D02*
X61660000Y-67380000D01*
X61660000Y-67380000D02*
X62565000Y-66475000D01*
X62565000Y-66475000D02*
X61660000Y-67745000D01*
X55310000Y-67745000D02*
X57270000Y-67745000D01*
X61175000Y-67750000D02*
X61180000Y-67745000D01*
X57270000Y-67745000D02*
X57275000Y-67750000D01*
X61180000Y-67745000D02*
X61660000Y-67745000D01*
D36*
X37300000Y-54350000D02*
X37300000Y-55110000D01*
X37820000Y-57660000D02*
X38660000Y-57660000D01*
X37530000Y-57370000D02*
X37820000Y-57660000D01*
X37530000Y-55340000D02*
X37530000Y-57370000D01*
X37300000Y-55110000D02*
X37530000Y-55340000D01*
D34*
X38550000Y-53375000D02*
X38525000Y-53375000D01*
X39110000Y-52250000D02*
X39110000Y-53265000D01*
X39000000Y-53375000D02*
X39110000Y-53265000D01*
X38550000Y-53375000D02*
X39000000Y-53375000D01*
D36*
X38250000Y-53650000D02*
X37550000Y-54350000D01*
D34*
X38525000Y-53375000D02*
X38250000Y-53650000D01*
D36*
X37300000Y-54350000D02*
X37550000Y-54350000D01*
X37550000Y-54600000D02*
X37300000Y-54350000D01*
D33*
X41120000Y-58530000D02*
X41120000Y-58520000D01*
X41120000Y-58520000D02*
X40260000Y-57660000D01*
X40260000Y-57660000D02*
X38660000Y-57660000D01*
D34*
X38930000Y-57660000D02*
X38660000Y-57660000D01*
X41100000Y-58510000D02*
X41120000Y-58530000D01*
X38660000Y-57660000D02*
X38650000Y-57670000D01*
X37460000Y-54510000D02*
X37300000Y-54350000D01*
X37575000Y-54350000D02*
X37300000Y-54350000D01*
X34610000Y-42750000D02*
X32950000Y-42750000D01*
X32950000Y-42750000D02*
X32450000Y-43250000D01*
D36*
X41720000Y-59960000D02*
X43860000Y-59960000D01*
X41720000Y-59960000D02*
X41440000Y-60240000D01*
D34*
X41440000Y-60240000D02*
X41720000Y-59960000D01*
X27280000Y-39220000D02*
X27345000Y-39285000D01*
X27345000Y-39285000D02*
X27370000Y-39285000D01*
X27805000Y-38850000D02*
X27370000Y-39285000D01*
D36*
X30275000Y-50225000D02*
X29250000Y-49200000D01*
X29250000Y-48400000D02*
X29120000Y-48270000D01*
X29250000Y-49200000D02*
X29250000Y-48400000D01*
X30275000Y-50280000D02*
X30275000Y-50225000D01*
X34500000Y-53000000D02*
X34500000Y-52600000D01*
X34375000Y-54175000D02*
X34500000Y-54050000D01*
X34500000Y-54050000D02*
X34500000Y-53000000D01*
X34375000Y-54575000D02*
X34375000Y-54175000D01*
X32180000Y-50280000D02*
X30275000Y-50280000D01*
X34500000Y-52600000D02*
X32180000Y-50280000D01*
D34*
X29000000Y-56850000D02*
X29400000Y-56450000D01*
D36*
X29750000Y-56100000D02*
X29400000Y-56450000D01*
X29925000Y-56100000D02*
X31970000Y-56100000D01*
X29925000Y-56100000D02*
X29750000Y-56100000D01*
D33*
X34375000Y-54575000D02*
X33300000Y-55650000D01*
X33300000Y-55650000D02*
X32420000Y-55650000D01*
X32420000Y-55650000D02*
X31970000Y-56100000D01*
D34*
X30275000Y-50280000D02*
X30275000Y-50065000D01*
X28050000Y-51360000D02*
X29195000Y-51360000D01*
X29195000Y-51360000D02*
X29840000Y-50715000D01*
X29840000Y-50715000D02*
X30275000Y-50280000D01*
X32050000Y-56100000D02*
X31970000Y-56100000D01*
X32335000Y-57585000D02*
X32335000Y-56465000D01*
X32335000Y-56465000D02*
X31970000Y-56100000D01*
D36*
X40450000Y-32240000D02*
X40450000Y-29950000D01*
D34*
X53460000Y-36610000D02*
X53460000Y-36290000D01*
X53460000Y-36290000D02*
X53460000Y-35365000D01*
X53460000Y-35365000D02*
X53135000Y-35040000D01*
X48690000Y-34090000D02*
X48690000Y-33660000D01*
X40450000Y-32240000D02*
X40450000Y-31000000D01*
X53135000Y-35040000D02*
X53185000Y-35040000D01*
X46610000Y-36250000D02*
X46610000Y-35390000D01*
X46610000Y-35390000D02*
X46900000Y-35100000D01*
X46900000Y-35100000D02*
X47680000Y-35100000D01*
X47680000Y-35100000D02*
X48690000Y-34090000D01*
X27190000Y-44200000D02*
X27700000Y-44200000D01*
X27700000Y-44200000D02*
X28350000Y-44850000D01*
X28350000Y-46130000D02*
X28350000Y-44850000D01*
X29230000Y-43970000D02*
X28860000Y-44340000D01*
X28350000Y-44850000D02*
X28860000Y-44340000D01*
X29480000Y-43970000D02*
X29230000Y-43970000D01*
X31530000Y-43970000D02*
X32475000Y-43025000D01*
X29480000Y-43970000D02*
X31530000Y-43970000D01*
D36*
X27190000Y-44940000D02*
X27190000Y-44200000D01*
X27190000Y-44200000D02*
X27190000Y-43275000D01*
X27190000Y-43275000D02*
X27370000Y-43095000D01*
X28350000Y-46130000D02*
X28350000Y-46100000D01*
X28350000Y-46100000D02*
X27190000Y-44940000D01*
D34*
X27190000Y-44940000D02*
X27190000Y-44970000D01*
X27370000Y-42760000D02*
X27180000Y-42570000D01*
X27370000Y-43095000D02*
X27370000Y-42760000D01*
X32475000Y-43025000D02*
X32315000Y-43025000D01*
X27805000Y-42660000D02*
X27370000Y-43095000D01*
X30275000Y-42660000D02*
X27805000Y-42660000D01*
X30275000Y-38850000D02*
X30275000Y-39275000D01*
X31100000Y-41835000D02*
X30275000Y-42660000D01*
X31100000Y-40100000D02*
X31100000Y-41835000D01*
X30275000Y-39275000D02*
X31100000Y-40100000D01*
X30275000Y-38850000D02*
X27805000Y-38850000D01*
X29000000Y-56950000D02*
X29000000Y-56850000D01*
D36*
X28200000Y-57750000D02*
X29000000Y-56950000D01*
X26355000Y-61125000D02*
X27275000Y-61125000D01*
X28200000Y-59150000D02*
X28200000Y-58200000D01*
X27750000Y-59600000D02*
X28200000Y-59150000D01*
X27750000Y-60650000D02*
X27750000Y-59600000D01*
X27275000Y-61125000D02*
X27750000Y-60650000D01*
X28200000Y-58200000D02*
X28200000Y-57750000D01*
D34*
X24600000Y-60100000D02*
X24600000Y-60630000D01*
X25095000Y-61125000D02*
X26355000Y-61125000D01*
X24600000Y-60630000D02*
X25095000Y-61125000D01*
X21810000Y-61610000D02*
X23090000Y-61610000D01*
X23090000Y-61610000D02*
X24600000Y-60100000D01*
X26355000Y-61125000D02*
X27000000Y-61125000D01*
X26355000Y-61125000D02*
X26975000Y-61125000D01*
X26975000Y-61125000D02*
X28975000Y-63125000D01*
X28975000Y-63125000D02*
X28975000Y-65000000D01*
X26355000Y-63755000D02*
X28525000Y-65925000D01*
X28525000Y-65925000D02*
X29350000Y-65925000D01*
X29350000Y-65925000D02*
X33425000Y-61850000D01*
X33425000Y-61850000D02*
X33425000Y-59825000D01*
X26355000Y-63755000D02*
X26355000Y-62125000D01*
D37*
X35728240Y-38750000D02*
X36508920Y-39530680D01*
X36508920Y-39530680D02*
X36508920Y-39611960D01*
X34610000Y-38750000D02*
X35728240Y-38750000D01*
X35611020Y-39250000D02*
X35611020Y-39255080D01*
X34610000Y-39250000D02*
X35611020Y-39250000D01*
X35691040Y-40366340D02*
X36072040Y-40747340D01*
X35691040Y-39335100D02*
X35691040Y-40366340D01*
X35611020Y-39255080D02*
X35691040Y-39335100D01*
X30690540Y-61125000D02*
X31317160Y-60498380D01*
X31317160Y-60498380D02*
X31317160Y-60071660D01*
X30690540Y-61125000D02*
X29655000Y-61125000D01*
D34*
X30275000Y-61125000D02*
X29655000Y-61125000D01*
X30275000Y-61125000D02*
X29655000Y-61125000D01*
X46110000Y-53580000D02*
X46110000Y-52250000D01*
X46305000Y-53775000D02*
X46110000Y-53580000D01*
D37*
X34610000Y-38250000D02*
X34610000Y-37820000D01*
X33030000Y-35180000D02*
X33030000Y-34810000D01*
X34720000Y-36870000D02*
X33030000Y-35180000D01*
X34720000Y-37710000D02*
X34720000Y-36870000D01*
X34610000Y-37820000D02*
X34720000Y-37710000D01*
D34*
X34610000Y-47250000D02*
X33610000Y-47250000D01*
X33150000Y-46790000D02*
X33150000Y-46620000D01*
X33610000Y-47250000D02*
X33150000Y-46790000D01*
X53480000Y-41750000D02*
X50610000Y-41750000D01*
X53520000Y-41710000D02*
X53480000Y-41750000D01*
D37*
X51960000Y-36290000D02*
X51960000Y-36048080D01*
X51960000Y-36048080D02*
X52297560Y-35710520D01*
X52297560Y-35710520D02*
X52297560Y-34918040D01*
X52297560Y-34918040D02*
X51469520Y-34090000D01*
X51469520Y-34090000D02*
X51135000Y-34090000D01*
D34*
X50610000Y-38750000D02*
X51620000Y-38750000D01*
X51750000Y-36900000D02*
X52020000Y-36630000D01*
X51750000Y-38620000D02*
X51750000Y-36900000D01*
X51620000Y-38750000D02*
X51750000Y-38620000D01*
X30200000Y-45440000D02*
X30160000Y-45440000D01*
X32510000Y-47750000D02*
X30932002Y-46172002D01*
X34610000Y-47750000D02*
X33200000Y-47750000D01*
X33200000Y-47750000D02*
X33100000Y-47750000D01*
X30932002Y-46172002D02*
X30200000Y-45440000D01*
X33100000Y-47750000D02*
X32510000Y-47750000D01*
X30160000Y-45440000D02*
X29600000Y-44880000D01*
X26355000Y-53385000D02*
X26450000Y-53290000D01*
X26355000Y-58085000D02*
X25530000Y-57260000D01*
X25530000Y-57260000D02*
X25530000Y-54570000D01*
X25530000Y-54570000D02*
X26355000Y-53745000D01*
X26355000Y-53745000D02*
X26355000Y-53385000D01*
X26355000Y-58125000D02*
X26355000Y-58085000D01*
X27370000Y-41595000D02*
X28160000Y-41595000D01*
X21810000Y-59940000D02*
X22600000Y-59150000D01*
X21810000Y-60110000D02*
X21810000Y-59940000D01*
X29655000Y-57645000D02*
X29655000Y-58125000D01*
X30050000Y-57250000D02*
X29655000Y-57645000D01*
X29725000Y-58125000D02*
X29655000Y-58125000D01*
X30390000Y-46320000D02*
X29800000Y-46320000D01*
X32320000Y-48250000D02*
X34610000Y-48250000D01*
X32320000Y-48250000D02*
X30390000Y-46320000D01*
X29800000Y-46320000D02*
X29600000Y-46120000D01*
X28050000Y-51980000D02*
X27380000Y-51980000D01*
X28050000Y-49860000D02*
X27210000Y-50700000D01*
X27450000Y-54470000D02*
X27940000Y-53980000D01*
X27940000Y-53980000D02*
X28560000Y-53980000D01*
X28560000Y-53980000D02*
X29610000Y-52930000D01*
X29610000Y-52930000D02*
X29610000Y-52210000D01*
X29610000Y-52210000D02*
X29380000Y-51980000D01*
X29380000Y-51980000D02*
X28050000Y-51980000D01*
X27200000Y-59125000D02*
X27450000Y-58875000D01*
X27200000Y-59125000D02*
X26355000Y-59125000D01*
X27450000Y-58875000D02*
X27450000Y-54470000D01*
X27210000Y-51810000D02*
X27210000Y-50700000D01*
X27380000Y-51980000D02*
X27210000Y-51810000D01*
X30630000Y-47270000D02*
X29980000Y-47270000D01*
X32110000Y-48750000D02*
X30630000Y-47270000D01*
X28800000Y-46960000D02*
X27780000Y-46960000D01*
X27780000Y-46960000D02*
X27390000Y-47350000D01*
X27390000Y-47350000D02*
X27390000Y-48930000D01*
X27390000Y-48930000D02*
X27790000Y-49330000D01*
X28275000Y-49330000D02*
X27790000Y-49330000D01*
X32110000Y-48750000D02*
X34610000Y-48750000D01*
X29670000Y-46960000D02*
X28800000Y-46960000D01*
X29980000Y-47270000D02*
X29670000Y-46960000D01*
X35610000Y-49250000D02*
X35790000Y-49070000D01*
X35790000Y-49070000D02*
X35790000Y-48710000D01*
X35790000Y-48710000D02*
X36230000Y-48270000D01*
X36230000Y-48270000D02*
X38570000Y-48270000D01*
X34610000Y-49250000D02*
X35610000Y-49250000D01*
D37*
X31230000Y-37900000D02*
X30750000Y-37900000D01*
X31420000Y-37710000D02*
X31230000Y-37900000D01*
X30750000Y-37890000D02*
X30750000Y-37900000D01*
D34*
X30750000Y-37900000D02*
X28275000Y-37900000D01*
X27370000Y-37785000D02*
X28160000Y-37785000D01*
X28160000Y-37785000D02*
X28275000Y-37900000D01*
X31250000Y-66125000D02*
X31250000Y-65449560D01*
X36610000Y-53315000D02*
X36075000Y-53850000D01*
X36075000Y-53850000D02*
X36075000Y-54500000D01*
X35300000Y-57750000D02*
X34275000Y-58775000D01*
X36610000Y-53315000D02*
X36610000Y-52250000D01*
X34275000Y-60456060D02*
X34275000Y-58775000D01*
X33958000Y-60773060D02*
X34275000Y-60456060D01*
X33958000Y-62741560D02*
X33958000Y-60773060D01*
X31250000Y-65449560D02*
X33958000Y-62741560D01*
X50610000Y-46250000D02*
X51625000Y-46250000D01*
X52425000Y-46425000D02*
X52950000Y-46425000D01*
X51800000Y-46425000D02*
X52425000Y-46425000D01*
X51625000Y-46250000D02*
X51800000Y-46425000D01*
D37*
X40049881Y-49770219D02*
X40858199Y-49770219D01*
X40858199Y-49770219D02*
X43001558Y-47626860D01*
X43001558Y-47626860D02*
X43001558Y-46477048D01*
X43001558Y-46477048D02*
X43706748Y-45771858D01*
X43706748Y-45771858D02*
X44679702Y-45771858D01*
X44679702Y-45771858D02*
X45100000Y-45351560D01*
X45100000Y-45351560D02*
X45100000Y-44100000D01*
D34*
X45350000Y-42850000D02*
X45100000Y-43100000D01*
X45100000Y-44100000D02*
X45100000Y-43100000D01*
D37*
X39960459Y-49770219D02*
X40049881Y-49770219D01*
X39716180Y-49525940D02*
X39960459Y-49770219D01*
D34*
X52978280Y-30020920D02*
X52983360Y-30020920D01*
X51951420Y-29532540D02*
X52439800Y-30020920D01*
X52439800Y-30020920D02*
X52978280Y-30020920D01*
X50100460Y-27679040D02*
X50100460Y-27549500D01*
D37*
X43540000Y-29900000D02*
X46630000Y-26810000D01*
D34*
X51951420Y-29530000D02*
X50100460Y-27679040D01*
X46632180Y-26807820D02*
X46630000Y-26810000D01*
X49358780Y-26807820D02*
X46632180Y-26807820D01*
X50100460Y-27549500D02*
X49358780Y-26807820D01*
X51951420Y-29530000D02*
X51951420Y-29532540D01*
X54170240Y-29530000D02*
X55310000Y-29530000D01*
X53628520Y-30071720D02*
X54170240Y-29530000D01*
X53034160Y-30071720D02*
X53628520Y-30071720D01*
X52983360Y-30020920D02*
X53034160Y-30071720D01*
D37*
X56150000Y-33225000D02*
X56150000Y-33258680D01*
X56150000Y-33258680D02*
X57123560Y-34232240D01*
X57123560Y-34232240D02*
X57568060Y-34232240D01*
X57568060Y-34232240D02*
X58276720Y-34940900D01*
X58276720Y-34940900D02*
X58276720Y-35136480D01*
X58276720Y-35136480D02*
X58799960Y-35659720D01*
X58799960Y-35659720D02*
X59559720Y-35659720D01*
X59559720Y-35659720D02*
X60400000Y-36500000D01*
D34*
X56150000Y-33225000D02*
X56150000Y-30520560D01*
X56150000Y-30520560D02*
X56150000Y-29845000D01*
X56985000Y-29010000D02*
X56150000Y-29845000D01*
X56985000Y-29010000D02*
X55830000Y-29010000D01*
X55830000Y-29010000D02*
X55310000Y-29530000D01*
X45110000Y-52250000D02*
X45110000Y-50170000D01*
X45110000Y-50170000D02*
X45340000Y-49940000D01*
X45350000Y-42850000D02*
X48025000Y-42850000D01*
X60390000Y-36630000D02*
X60390000Y-36610000D01*
D37*
X39820320Y-48255940D02*
X40479822Y-48915442D01*
X40479822Y-48915442D02*
X40613022Y-48915442D01*
X42595556Y-47458688D02*
X42595556Y-46800160D01*
X40613022Y-48915442D02*
X41138802Y-48915442D01*
X41138802Y-48915442D02*
X42595556Y-47458688D01*
X42594760Y-45713040D02*
X42818280Y-45489520D01*
X42594760Y-46799364D02*
X42594760Y-45713040D01*
X42595556Y-46800160D02*
X42594760Y-46799364D01*
D34*
X56300000Y-55970000D02*
X56300000Y-52720000D01*
X55320000Y-51740000D02*
X56300000Y-52720000D01*
D37*
X56300000Y-56332980D02*
X56300000Y-55970000D01*
X55885820Y-56747160D02*
X56300000Y-56332980D01*
X58551040Y-43627700D02*
X58391020Y-43627700D01*
X59907400Y-44984060D02*
X58551040Y-43627700D01*
X61306940Y-26071220D02*
X60539860Y-26071220D01*
X63082400Y-32228180D02*
X63775820Y-31534760D01*
X63775820Y-31534760D02*
X63775820Y-27011020D01*
X63775820Y-27011020D02*
X62836020Y-26071220D01*
X62836020Y-26071220D02*
X61306940Y-26071220D01*
X57610000Y-33170000D02*
X59209420Y-33170000D01*
X59209420Y-33170000D02*
X59945500Y-32433920D01*
X59945500Y-32433920D02*
X59945500Y-32281520D01*
X59945500Y-32281520D02*
X60303640Y-31923380D01*
X60303640Y-31923380D02*
X61167240Y-31923380D01*
X61167240Y-31923380D02*
X61459340Y-32215480D01*
X61459340Y-32215480D02*
X61459340Y-32327240D01*
X61459340Y-32327240D02*
X61931780Y-32799680D01*
X61931780Y-32799680D02*
X62688700Y-32799680D01*
X62688700Y-32799680D02*
X63082400Y-32405980D01*
X63082400Y-32405980D02*
X63082400Y-32228180D01*
X59985000Y-26626080D02*
X59985000Y-27740000D01*
X60539860Y-26071220D02*
X59985000Y-26626080D01*
D34*
X55190000Y-33650000D02*
X55190000Y-33622020D01*
X55190000Y-34430000D02*
X55190000Y-33650000D01*
X49620400Y-31326480D02*
X49175000Y-30881080D01*
X51439040Y-31326480D02*
X49620400Y-31326480D01*
X51776860Y-31664300D02*
X51439040Y-31326480D01*
X52325500Y-31664300D02*
X51776860Y-31664300D01*
X52988440Y-32327240D02*
X52325500Y-31664300D01*
X53895220Y-32327240D02*
X52988440Y-32327240D01*
X55190000Y-33622020D02*
X53895220Y-32327240D01*
X55200000Y-41518720D02*
X57308980Y-43627700D01*
X57308980Y-43627700D02*
X58391020Y-43627700D01*
D37*
X56882260Y-35067900D02*
X56889880Y-35075520D01*
X55920000Y-38240000D02*
X55968220Y-38240000D01*
D34*
X55200000Y-40220000D02*
X54700000Y-39720000D01*
X54700000Y-39720000D02*
X54700000Y-39040000D01*
X54700000Y-39040000D02*
X55500000Y-38240000D01*
X55500000Y-38240000D02*
X55920000Y-38240000D01*
X55200000Y-40220000D02*
X55200000Y-40480000D01*
D37*
X56889880Y-37318340D02*
X56889880Y-35640120D01*
X55968220Y-38240000D02*
X56889880Y-37318340D01*
X56889880Y-35640120D02*
X56889880Y-35075520D01*
D34*
X55200000Y-40480000D02*
X55200000Y-41518720D01*
X57610000Y-33170000D02*
X57620000Y-33180000D01*
X57620000Y-33180000D02*
X57610000Y-33180000D01*
X49175000Y-30950000D02*
X49175000Y-30881080D01*
X49175000Y-30881080D02*
X49175000Y-29815000D01*
X48000000Y-28640000D02*
X49175000Y-29815000D01*
X48000000Y-28640000D02*
X46060000Y-28640000D01*
X44900000Y-29800000D02*
X44900000Y-29925000D01*
X46060000Y-28640000D02*
X44900000Y-29800000D01*
X43950000Y-54800000D02*
X44825000Y-53925000D01*
X44825000Y-53925000D02*
X45000000Y-53925000D01*
X45000000Y-53925000D02*
X45610000Y-53315000D01*
X45610000Y-53315000D02*
X45610000Y-52250000D01*
D37*
X56250000Y-51730000D02*
X55330000Y-51730000D01*
X55330000Y-51730000D02*
X55320000Y-51740000D01*
X40011580Y-40930220D02*
X40011580Y-41184220D01*
X38570000Y-43750000D02*
X38896140Y-43750000D01*
X34610000Y-43750000D02*
X38570000Y-43750000D01*
X39417220Y-43228920D02*
X38896140Y-43750000D01*
X39417220Y-41778580D02*
X39417220Y-43228920D01*
X40011580Y-41184220D02*
X39417220Y-41778580D01*
X29640000Y-33140000D02*
X29640000Y-33780000D01*
X29530000Y-33890000D02*
X29640000Y-33780000D01*
D34*
X29640000Y-33140000D02*
X29640000Y-31705000D01*
X29640000Y-31705000D02*
X29795000Y-31550000D01*
X45580000Y-41150000D02*
X45580000Y-40741520D01*
D37*
X59865580Y-38450000D02*
X60517000Y-39101420D01*
X60517000Y-39101420D02*
X60517000Y-39731340D01*
X39850000Y-44250000D02*
X39904900Y-44250000D01*
X45070000Y-41660000D02*
X45580000Y-41150000D01*
X57320000Y-38800000D02*
X57670000Y-38450000D01*
X57670000Y-38450000D02*
X59650000Y-38450000D01*
X39850000Y-44250000D02*
X34610000Y-44250000D01*
X40285900Y-43869000D02*
X40285900Y-42118940D01*
X39904900Y-44250000D02*
X40285900Y-43869000D01*
X59650000Y-38450000D02*
X59865580Y-38450000D01*
D34*
X46640980Y-39680540D02*
X46907680Y-39680540D01*
X45580000Y-40741520D02*
X46640980Y-39680540D01*
X47110000Y-52250000D02*
X47110000Y-50165000D01*
X47110000Y-50165000D02*
X47225000Y-50050000D01*
X54370000Y-35330000D02*
X54130000Y-35570000D01*
X54130000Y-35570000D02*
X54130000Y-35680000D01*
X54130000Y-35680000D02*
X54130000Y-36940000D01*
X51950000Y-39250000D02*
X52130000Y-39250000D01*
X54130000Y-36940000D02*
X54130000Y-37330000D01*
X50610000Y-39250000D02*
X51940000Y-39250000D01*
X51940000Y-39250000D02*
X51950000Y-39250000D01*
X54130000Y-38200000D02*
X54130000Y-37330000D01*
X53890000Y-38440000D02*
X54130000Y-38200000D01*
X52940000Y-38440000D02*
X53890000Y-38440000D01*
X52130000Y-39250000D02*
X52940000Y-38440000D01*
X42110000Y-53585000D02*
X42110000Y-52250000D01*
X42625000Y-54100000D02*
X42110000Y-53585000D01*
D37*
X49900000Y-34960000D02*
X49900000Y-33765080D01*
D34*
X48610000Y-36250000D02*
X49900000Y-34960000D01*
D37*
X49900000Y-33765080D02*
X49899800Y-33764880D01*
D34*
X38110000Y-34850000D02*
X38110000Y-34615240D01*
X36040000Y-32160000D02*
X37280000Y-33400000D01*
X38110000Y-36250000D02*
X38110000Y-34850000D01*
X32730000Y-31150000D02*
X33740000Y-32160000D01*
X33740000Y-32160000D02*
X36040000Y-32160000D01*
X37861980Y-33981980D02*
X37280000Y-33400000D01*
X37861980Y-34039560D02*
X37861980Y-33981980D01*
X38037240Y-34214820D02*
X37861980Y-34039560D01*
X38037240Y-34542480D02*
X38037240Y-34214820D01*
X38110000Y-34615240D02*
X38037240Y-34542480D01*
X51400000Y-52860000D02*
X51360000Y-52860000D01*
X51360000Y-52860000D02*
X50240000Y-51740000D01*
X50610000Y-38250000D02*
X49530000Y-38250000D01*
X49214000Y-38566000D02*
X49530000Y-38250000D01*
X49214000Y-39474800D02*
X49214000Y-38566000D01*
X49147960Y-39540840D02*
X49214000Y-39474800D01*
X66650000Y-55000000D02*
X66650000Y-55471740D01*
D37*
X52470280Y-49921820D02*
X51845440Y-49296980D01*
X51845440Y-49296980D02*
X51845440Y-48443540D01*
X51845440Y-48443540D02*
X51651900Y-48250000D01*
X50610000Y-48250000D02*
X51651900Y-48250000D01*
D34*
X63050000Y-55050000D02*
X62930000Y-55170000D01*
X62930000Y-55170000D02*
X59850000Y-55170000D01*
X69403700Y-58225440D02*
X69403700Y-61745880D01*
X66650000Y-55471740D02*
X69403700Y-58225440D01*
X69403700Y-61745880D02*
X69628700Y-61520880D01*
X49106560Y-52248820D02*
X49106560Y-48306560D01*
X50610000Y-47750000D02*
X49650000Y-47750000D01*
X49650000Y-47750000D02*
X49125000Y-48275000D01*
X49100000Y-48300000D02*
X49125000Y-48275000D01*
X49748080Y-55250000D02*
X49347860Y-54849780D01*
X49347860Y-54849780D02*
X49347860Y-52711100D01*
X49347860Y-52711100D02*
X49106560Y-52469800D01*
X49106560Y-52469800D02*
X49106560Y-52248820D01*
X50050000Y-55250000D02*
X49900000Y-55250000D01*
X52775000Y-58225000D02*
X52500000Y-57950000D01*
X52500000Y-57950000D02*
X52500000Y-56100000D01*
X52500000Y-56100000D02*
X51650000Y-55250000D01*
X51650000Y-55250000D02*
X50050000Y-55250000D01*
X54550000Y-58225000D02*
X56275000Y-59950000D01*
X54550000Y-58225000D02*
X52775000Y-58225000D01*
X49900000Y-55250000D02*
X49748080Y-55250000D01*
X49106560Y-48306560D02*
X49100000Y-48300000D01*
X34610000Y-44750000D02*
X36800000Y-44750000D01*
X36800000Y-44750000D02*
X37150000Y-45100000D01*
X50610000Y-40250000D02*
X53275000Y-40250000D01*
X53275000Y-40250000D02*
X53500000Y-40475000D01*
X36225000Y-49750000D02*
X34610000Y-49750000D01*
X36575000Y-49400000D02*
X36225000Y-49750000D01*
D37*
X38610000Y-34181800D02*
X38610000Y-34137340D01*
X38610000Y-34137340D02*
X38446180Y-33973520D01*
D34*
X38610000Y-36250000D02*
X38610000Y-34181800D01*
X38080000Y-33259360D02*
X38314381Y-33493741D01*
D37*
X38314381Y-33493741D02*
X38314381Y-33841721D01*
X38314381Y-33841721D02*
X38446180Y-33973520D01*
D34*
X38080000Y-32670000D02*
X38080000Y-33259360D01*
X48650000Y-55295000D02*
X48650000Y-54422420D01*
X47630000Y-56315000D02*
X48650000Y-55295000D01*
X48610000Y-53476920D02*
X48610000Y-52250000D01*
X48664600Y-53531520D02*
X48610000Y-53476920D01*
X48664600Y-54407820D02*
X48664600Y-53531520D01*
X48650000Y-54422420D02*
X48664600Y-54407820D01*
D37*
X32890000Y-36340000D02*
X32740000Y-36190000D01*
X32740000Y-36190000D02*
X31035000Y-36190000D01*
X31035000Y-36190000D02*
X30275000Y-36950000D01*
D34*
X28120000Y-36630000D02*
X29955000Y-36630000D01*
X29955000Y-36630000D02*
X30275000Y-36950000D01*
D37*
X57750000Y-51730000D02*
X57470000Y-51730000D01*
X57470000Y-51730000D02*
X57240000Y-51500000D01*
D34*
X57290000Y-53280000D02*
X57750000Y-52820000D01*
X57750000Y-52820000D02*
X57750000Y-51730000D01*
X57290000Y-54590000D02*
X57290000Y-53280000D01*
D37*
X57140000Y-54740000D02*
X57290000Y-54590000D01*
D34*
X21925000Y-23295000D02*
X21925000Y-23014840D01*
X21925000Y-23014840D02*
X24184840Y-20755000D01*
X24184840Y-20755000D02*
X26100000Y-20755000D01*
X20400000Y-26470000D02*
X20400000Y-24820000D01*
X20400000Y-24820000D02*
X21925000Y-23295000D01*
X53755000Y-31030000D02*
X52778320Y-31030000D01*
X55310000Y-31030000D02*
X53755000Y-31030000D01*
X52778320Y-31030000D02*
X52612520Y-30864200D01*
X58749160Y-44839280D02*
X58749160Y-44824040D01*
X54360000Y-40110000D02*
X54130000Y-39880000D01*
X54130000Y-39880000D02*
X54130000Y-38870000D01*
X54130000Y-38870000D02*
X54360000Y-38640000D01*
X56050000Y-35025000D02*
X56050000Y-35670000D01*
X56050000Y-35025000D02*
X56050000Y-33825000D01*
X56050000Y-33825000D02*
X55310000Y-33085000D01*
X55310000Y-31030000D02*
X55310000Y-33085000D01*
X54360000Y-38640000D02*
X55390000Y-37610000D01*
X55390000Y-37610000D02*
X55800000Y-37610000D01*
X55800000Y-37610000D02*
X56110000Y-37300000D01*
X56430000Y-36980000D02*
X56110000Y-37300000D01*
X56430000Y-36050000D02*
X56430000Y-36980000D01*
X56050000Y-35670000D02*
X56430000Y-36050000D01*
X58142400Y-46650000D02*
X59008240Y-45784160D01*
X59008240Y-45784160D02*
X59008240Y-45098360D01*
X59008240Y-45098360D02*
X58749160Y-44839280D01*
X58142400Y-46650000D02*
X58010000Y-46650000D01*
X54360000Y-42477040D02*
X54360000Y-40110000D01*
X56470780Y-44587820D02*
X54360000Y-42477040D01*
X58512940Y-44587820D02*
X56470780Y-44587820D01*
X58749160Y-44824040D02*
X58512940Y-44587820D01*
D37*
X58010000Y-46650000D02*
X58205900Y-46650000D01*
D34*
X30200000Y-22550000D02*
X31995000Y-20755000D01*
X26100000Y-20755000D02*
X32450000Y-20755000D01*
X32450000Y-20755000D02*
X31995000Y-20755000D01*
X58010000Y-46650000D02*
X57910000Y-46650000D01*
X58820000Y-48410000D02*
X58820000Y-47460000D01*
X58820000Y-47460000D02*
X58010000Y-46650000D01*
X58820000Y-48410000D02*
X58830000Y-48410000D01*
X49335000Y-32185000D02*
X49200000Y-32050000D01*
X49480000Y-32185000D02*
X49335000Y-32185000D01*
X49480000Y-32185000D02*
X48385000Y-32185000D01*
X48385000Y-32185000D02*
X46200000Y-30000000D01*
X29500000Y-55310000D02*
X29260000Y-55310000D01*
X29500000Y-55310000D02*
X31140000Y-53670000D01*
X31140000Y-53670000D02*
X33460000Y-53670000D01*
X29260000Y-55310000D02*
X28430000Y-56140000D01*
X35580000Y-61660000D02*
X35140000Y-62100000D01*
X41330000Y-61660000D02*
X35580000Y-61660000D01*
X50610000Y-56640000D02*
X50610000Y-57850000D01*
X50610000Y-56640000D02*
X51150000Y-56100000D01*
X42350000Y-61070000D02*
X41920000Y-61070000D01*
X41920000Y-61070000D02*
X41330000Y-61660000D01*
X42970000Y-61690000D02*
X42350000Y-61070000D01*
X50610000Y-61270000D02*
X50610000Y-57850000D01*
X50190000Y-61690000D02*
X50610000Y-61270000D01*
X42970000Y-61690000D02*
X50190000Y-61690000D01*
X50610000Y-57850000D02*
X50610000Y-57840000D01*
X26450000Y-44060000D02*
X26450000Y-43872998D01*
X26350000Y-40710000D02*
X26620000Y-40440000D01*
X26350000Y-43772998D02*
X26350000Y-40710000D01*
X26450000Y-43872998D02*
X26350000Y-43772998D01*
X24580000Y-55520000D02*
X24630000Y-55570000D01*
X24630000Y-55570000D02*
X24630000Y-55670000D01*
X25920000Y-52560000D02*
X25920000Y-51980000D01*
X26320000Y-48360000D02*
X26620000Y-48060000D01*
X26320000Y-51580000D02*
X26320000Y-48360000D01*
X25920000Y-51980000D02*
X26320000Y-51580000D01*
X24630000Y-55670000D02*
X24630000Y-53850000D01*
X24630000Y-53850000D02*
X25920000Y-52560000D01*
X26620000Y-40440000D02*
X26980000Y-40440000D01*
X26980000Y-40440000D02*
X27160000Y-40620000D01*
X26450000Y-44420000D02*
X26450000Y-44060000D01*
X26450000Y-44060000D02*
X26450000Y-44050000D01*
X26450000Y-47550000D02*
X26450000Y-44420000D01*
X26620000Y-47720000D02*
X26450000Y-47550000D01*
X26280000Y-36630000D02*
X25200000Y-35550000D01*
X26620000Y-36630000D02*
X26280000Y-36630000D01*
X26620000Y-40440000D02*
X26590000Y-40440000D01*
X26590000Y-40440000D02*
X26450000Y-40300000D01*
X26450000Y-40300000D02*
X26450000Y-36800000D01*
X26450000Y-36800000D02*
X26620000Y-36630000D01*
X26450000Y-40610000D02*
X26620000Y-40440000D01*
X26620000Y-48060000D02*
X26620000Y-47720000D01*
D37*
X37710340Y-42926660D02*
X37710340Y-42446600D01*
X38911760Y-40084668D02*
X38911760Y-39657680D01*
X37745900Y-41250528D02*
X38911760Y-40084668D01*
X37745900Y-41410280D02*
X37745900Y-41250528D01*
X37359820Y-41796360D02*
X37745900Y-41410280D01*
X37359820Y-42096080D02*
X37359820Y-41796360D01*
X37710340Y-42446600D02*
X37359820Y-42096080D01*
X32650000Y-40850000D02*
X34561800Y-40850000D01*
X32650000Y-40850000D02*
X32060000Y-40850000D01*
X31530000Y-39340000D02*
X31560000Y-39370000D01*
X31560000Y-40350000D02*
X31560000Y-39370000D01*
X32060000Y-40850000D02*
X31560000Y-40350000D01*
X35310040Y-41557600D02*
X35655480Y-41903040D01*
X35269400Y-41557600D02*
X35310040Y-41557600D01*
X34561800Y-40850000D02*
X35269400Y-41557600D01*
X31440000Y-39640000D02*
X31440000Y-39430000D01*
X31440000Y-39430000D02*
X31530000Y-39340000D01*
D34*
X28760000Y-40440000D02*
X29280000Y-39920000D01*
X28120000Y-40440000D02*
X28760000Y-40440000D01*
X28120000Y-40440000D02*
X29955000Y-40440000D01*
X29955000Y-40440000D02*
X30275000Y-40760000D01*
X35090000Y-50910000D02*
X35729358Y-50910000D01*
X32570000Y-49680000D02*
X33490000Y-50600000D01*
X33760000Y-50910000D02*
X35090000Y-50910000D01*
X33490000Y-50640000D02*
X33760000Y-50910000D01*
X33490000Y-50600000D02*
X33490000Y-50640000D01*
X44240000Y-47570000D02*
X44240000Y-47020000D01*
X41120000Y-50690000D02*
X44240000Y-47570000D01*
X31310000Y-49680000D02*
X30275000Y-48645000D01*
X31310000Y-49680000D02*
X32570000Y-49680000D01*
X40785460Y-51024540D02*
X41120000Y-50690000D01*
X39048180Y-51024540D02*
X40785460Y-51024540D01*
X38707640Y-50684000D02*
X39048180Y-51024540D01*
X35955358Y-50684000D02*
X38707640Y-50684000D01*
X35729358Y-50910000D02*
X35955358Y-50684000D01*
X30275000Y-48380000D02*
X30275000Y-48215000D01*
X30275000Y-48380000D02*
X30275000Y-48645000D01*
X30275000Y-48215000D02*
X29520000Y-47460000D01*
X28750000Y-47430000D02*
X28120000Y-48060000D01*
X29330000Y-47430000D02*
X28750000Y-47430000D01*
X29360000Y-47460000D02*
X29330000Y-47430000D01*
X29520000Y-47460000D02*
X29360000Y-47460000D01*
X42340000Y-41650000D02*
X42370000Y-41680000D01*
X42340000Y-39340000D02*
X42340000Y-41650000D01*
X42300000Y-39300000D02*
X42340000Y-39340000D01*
D37*
X43230000Y-44364060D02*
X42922420Y-44671640D01*
X42922420Y-44671640D02*
X42480460Y-44671640D01*
X42480460Y-44671640D02*
X41997860Y-45154240D01*
X41997860Y-45154240D02*
X41997860Y-46015300D01*
X41997860Y-46015300D02*
X41665120Y-46348040D01*
X33360000Y-41730000D02*
X34293720Y-41730000D01*
D34*
X29900000Y-43490000D02*
X30410000Y-43490000D01*
X30410000Y-43490000D02*
X30930000Y-43490000D01*
X31110000Y-43310000D02*
X31110000Y-42540000D01*
X30930000Y-43490000D02*
X31110000Y-43310000D01*
X33360000Y-41730000D02*
X31920000Y-41730000D01*
X31110000Y-42540000D02*
X31920000Y-41730000D01*
X27280000Y-53790000D02*
X27540000Y-53530000D01*
X26730000Y-54340000D02*
X27280000Y-53790000D01*
X26730000Y-55740000D02*
X26730000Y-54340000D01*
X27540000Y-52900000D02*
X27600000Y-52840000D01*
X27540000Y-53530000D02*
X27540000Y-52900000D01*
X28760000Y-43490000D02*
X29900000Y-43490000D01*
X26730000Y-56230000D02*
X26560000Y-56400000D01*
X24300000Y-57170000D02*
X23810000Y-56680000D01*
X26730000Y-55740000D02*
X26730000Y-56230000D01*
X28530000Y-43490000D02*
X28760000Y-43490000D01*
X28510000Y-43510000D02*
X28530000Y-43490000D01*
D37*
X34293720Y-41730000D02*
X34446440Y-41882720D01*
X40682140Y-47331020D02*
X41665120Y-46348040D01*
D34*
X43230000Y-44350000D02*
X44480000Y-43100000D01*
X44480000Y-43100000D02*
X44480000Y-42340000D01*
X44480000Y-42340000D02*
X44160000Y-42020000D01*
X44160000Y-42020000D02*
X44160000Y-41334080D01*
D37*
X43230000Y-44350000D02*
X43230000Y-44364060D01*
D34*
X44160000Y-41334080D02*
X44160000Y-40751820D01*
X44160000Y-40751820D02*
X45208420Y-39703400D01*
X44160000Y-41334080D02*
X44160000Y-41310000D01*
X24630000Y-57170000D02*
X24300000Y-57170000D01*
X24600000Y-58200000D02*
X24600000Y-57200000D01*
X24600000Y-57200000D02*
X24630000Y-57170000D01*
X50985000Y-32185000D02*
X51010000Y-32160000D01*
X50985000Y-32185000D02*
X50980000Y-32185000D01*
X50980000Y-32185000D02*
X52180000Y-32185000D01*
X52180000Y-32185000D02*
X53135000Y-33140000D01*
D37*
X60024940Y-33935060D02*
X60113140Y-33935060D01*
X59120000Y-34840000D02*
X60024940Y-33935060D01*
X60539860Y-33508340D02*
X60539860Y-33028280D01*
X60113140Y-33935060D02*
X60539860Y-33508340D01*
D34*
X32715100Y-28300000D02*
X34827520Y-28300000D01*
X39460000Y-27160000D02*
X39520000Y-27100000D01*
X39520000Y-27100000D02*
X44740000Y-27100000D01*
X32715100Y-28300000D02*
X30725100Y-30290000D01*
X30725100Y-30290000D02*
X29270000Y-30290000D01*
X29270000Y-30290000D02*
X29080000Y-30290000D01*
X29080000Y-30290000D02*
X27640000Y-31730000D01*
X27640000Y-31730000D02*
X27640000Y-31920000D01*
X27640000Y-31920000D02*
X27640000Y-34090000D01*
D37*
X34827520Y-28300000D02*
X34885100Y-28357580D01*
D34*
X26800000Y-34075000D02*
X27625000Y-34075000D01*
X27625000Y-34075000D02*
X27640000Y-34090000D01*
X26800000Y-35575000D02*
X29105000Y-35575000D01*
X29105000Y-35575000D02*
X29640000Y-35040000D01*
X31500000Y-33455000D02*
X31225000Y-33455000D01*
X31225000Y-33455000D02*
X29640000Y-35040000D01*
X30430000Y-35360000D02*
X29960000Y-35360000D01*
X29960000Y-35360000D02*
X29640000Y-35040000D01*
X53405000Y-57470000D02*
X53405000Y-56430000D01*
X53405000Y-56430000D02*
X53290000Y-56315000D01*
X48110000Y-49500000D02*
X48250000Y-49360000D01*
X48110000Y-52250000D02*
X48110000Y-49500000D01*
X53450000Y-54130000D02*
X53450000Y-55050000D01*
X53360000Y-54040000D02*
X53450000Y-54130000D01*
X53290000Y-56315000D02*
X53290000Y-55210000D01*
X53290000Y-55210000D02*
X53450000Y-55050000D01*
D37*
X39371500Y-47425000D02*
X39419760Y-47425000D01*
D34*
X43390000Y-43490000D02*
X43700000Y-43180000D01*
X43700000Y-43180000D02*
X43700000Y-40125000D01*
X43700000Y-40125000D02*
X45180000Y-38500000D01*
X45340000Y-34500000D02*
X45450000Y-32240000D01*
X45140000Y-34700000D02*
X45340000Y-34500000D01*
D37*
X42614362Y-44265638D02*
X43390000Y-43490000D01*
X42312288Y-44265638D02*
X42614362Y-44265638D01*
X41591858Y-44986068D02*
X42312288Y-44265638D01*
X41591858Y-45847128D02*
X41591858Y-44986068D01*
X40930993Y-46507993D02*
X41591858Y-45847128D01*
X40336767Y-46507993D02*
X40930993Y-46507993D01*
X39419760Y-47425000D02*
X40336767Y-46507993D01*
D34*
X36300000Y-47425000D02*
X39371500Y-47425000D01*
X39371500Y-47425000D02*
X39375000Y-47425000D01*
X34610000Y-46750000D02*
X35625000Y-46750000D01*
X35625000Y-46750000D02*
X35925000Y-47050000D01*
X35925000Y-47050000D02*
X36300000Y-47425000D01*
D37*
X39200000Y-46925000D02*
X39345586Y-46925000D01*
D34*
X43240000Y-38540000D02*
X43240000Y-42880000D01*
X43120000Y-43000000D02*
X43240000Y-42880000D01*
X36200000Y-46675000D02*
X36425000Y-46900000D01*
X35775000Y-46250000D02*
X36200000Y-46675000D01*
X34610000Y-46250000D02*
X35775000Y-46250000D01*
X36450000Y-46925000D02*
X39200000Y-46925000D01*
X36425000Y-46900000D02*
X36450000Y-46925000D01*
X44200000Y-34010000D02*
X44200000Y-32240000D01*
X44200000Y-34010000D02*
X43750000Y-34460000D01*
D37*
X42260364Y-43859636D02*
X43120000Y-43000000D01*
X42144116Y-43859636D02*
X42260364Y-43859636D01*
X41185856Y-44817896D02*
X42144116Y-43859636D01*
X41185856Y-45678956D02*
X41185856Y-44817896D01*
X40762821Y-46101991D02*
X41185856Y-45678956D01*
X40168595Y-46101991D02*
X40762821Y-46101991D01*
X39345586Y-46925000D02*
X40168595Y-46101991D01*
X39000000Y-46450000D02*
X39246412Y-46450000D01*
D34*
X36500000Y-46325000D02*
X36625000Y-46450000D01*
X35925000Y-45750000D02*
X36500000Y-46325000D01*
X34610000Y-45750000D02*
X35925000Y-45750000D01*
X36625000Y-46450000D02*
X39000000Y-46450000D01*
D37*
X41120000Y-39485940D02*
X41120000Y-38730000D01*
X41527960Y-39893900D02*
X41120000Y-39485940D01*
X41527960Y-42027500D02*
X41527960Y-39893900D01*
X41848000Y-42347540D02*
X41527960Y-42027500D01*
X41848000Y-43581578D02*
X41848000Y-42347540D01*
X40779854Y-44649724D02*
X41848000Y-43581578D01*
X40779854Y-45510784D02*
X40779854Y-44649724D01*
X40594649Y-45695989D02*
X40779854Y-45510784D01*
X40000423Y-45695989D02*
X40594649Y-45695989D01*
X39246412Y-46450000D02*
X40000423Y-45695989D01*
D34*
X42250000Y-34450000D02*
X42950000Y-33750000D01*
X42950000Y-32240000D02*
X42950000Y-33750000D01*
X41350000Y-38960000D02*
X41120000Y-38730000D01*
X42950000Y-32240000D02*
X42950000Y-33625000D01*
D37*
X38800000Y-45960000D02*
X39162238Y-45960000D01*
D34*
X39290000Y-38510000D02*
X40870000Y-40090000D01*
X38800000Y-45960000D02*
X36810000Y-45960000D01*
X36810000Y-45960000D02*
X36100000Y-45250000D01*
X34610000Y-45250000D02*
X36100000Y-45250000D01*
X40810000Y-34460000D02*
X41700000Y-33570000D01*
D37*
X41121958Y-40341958D02*
X40870000Y-40090000D01*
X41121958Y-42195672D02*
X41121958Y-40341958D01*
X41441998Y-42515712D02*
X41121958Y-42195672D01*
X41441998Y-43413406D02*
X41441998Y-42515712D01*
X40373852Y-44481552D02*
X41441998Y-43413406D01*
X40373852Y-44748386D02*
X40373852Y-44481552D01*
X39162238Y-45960000D02*
X40373852Y-44748386D01*
D34*
X41700000Y-32240000D02*
X41700000Y-33570000D01*
X41700000Y-32240000D02*
X41700000Y-33475000D01*
D37*
X40972592Y-50230000D02*
X40939358Y-50230000D01*
X40972592Y-50230000D02*
X43407560Y-47795032D01*
X43407560Y-47795032D02*
X43407560Y-46645220D01*
X43407560Y-46645220D02*
X43874920Y-46177860D01*
X43874920Y-46177860D02*
X45814732Y-46177860D01*
X46612292Y-45380300D02*
X45814732Y-46177860D01*
X47502040Y-45380300D02*
X46612292Y-45380300D01*
X47837320Y-45045020D02*
X47502040Y-45380300D01*
D34*
X35595022Y-50250000D02*
X35614024Y-50230998D01*
X35614024Y-50230998D02*
X38895280Y-50230998D01*
X38895280Y-50230998D02*
X39235820Y-50571538D01*
X39235820Y-50571538D02*
X40597820Y-50571538D01*
X40597820Y-50571538D02*
X40703929Y-50465429D01*
D37*
X35385320Y-50250000D02*
X34610000Y-50250000D01*
D34*
X35385320Y-50250000D02*
X35595022Y-50250000D01*
D37*
X40939358Y-50230000D02*
X40703929Y-50465429D01*
X56650000Y-46850000D02*
X56322500Y-46850000D01*
D34*
X57700000Y-47900000D02*
X56650000Y-46850000D01*
D37*
X54121280Y-44648780D02*
X53689480Y-44648780D01*
X56322500Y-46850000D02*
X54121280Y-44648780D01*
D34*
X57700000Y-47900000D02*
X57700000Y-49260000D01*
X57700000Y-49260000D02*
X57700000Y-47950000D01*
X57700000Y-49260000D02*
X57700000Y-48100000D01*
X57700000Y-49260000D02*
X57700000Y-48000000D01*
D37*
X47989720Y-48372420D02*
X47989720Y-48222560D01*
X53256260Y-49260000D02*
X52734440Y-48738180D01*
X53950000Y-49260000D02*
X53256260Y-49260000D01*
X43610000Y-50237540D02*
X44733440Y-49114100D01*
X44733440Y-49114100D02*
X47248040Y-49114100D01*
X47248040Y-49114100D02*
X47989720Y-48372420D01*
D34*
X43610000Y-50415000D02*
X43610000Y-52250000D01*
D37*
X43610000Y-50415000D02*
X43610000Y-50237540D01*
X47989720Y-48222560D02*
X48507880Y-47704400D01*
D34*
X53950000Y-49260000D02*
X53950000Y-48150000D01*
X53950000Y-49260000D02*
X53950000Y-48175000D01*
D37*
X55200000Y-47454700D02*
X55061080Y-47315780D01*
X55061080Y-47315780D02*
X52584580Y-47315780D01*
X52584580Y-47315780D02*
X52325500Y-47574860D01*
D34*
X43110000Y-52250000D02*
X43110000Y-50215000D01*
X55200000Y-47475000D02*
X55200000Y-49260000D01*
D37*
X55200000Y-47475000D02*
X55200000Y-47454700D01*
X43110000Y-50061900D02*
X43110000Y-50215000D01*
X44463802Y-48708098D02*
X43110000Y-50061900D01*
X45812542Y-48708098D02*
X44463802Y-48708098D01*
X47837320Y-46683320D02*
X45812542Y-48708098D01*
X56450000Y-47698860D02*
X54253360Y-45502220D01*
X54253360Y-45502220D02*
X52127380Y-45502220D01*
D34*
X42610000Y-52250000D02*
X42610000Y-49990000D01*
D37*
X56450000Y-47698860D02*
X56450000Y-49260000D01*
X42610000Y-49878640D02*
X42610000Y-49990000D01*
X44296560Y-48192080D02*
X42610000Y-49878640D01*
X45170320Y-48192080D02*
X44296560Y-48192080D01*
X47494420Y-45867980D02*
X45170320Y-48192080D01*
X48911740Y-45867980D02*
X47494420Y-45867980D01*
X49140340Y-46096580D02*
X48911740Y-45867980D01*
D34*
X56450000Y-49260000D02*
X56450000Y-48000000D01*
D37*
X56950000Y-37950000D02*
X56959260Y-37950000D01*
D34*
X56250000Y-38650000D02*
X56950000Y-37950000D01*
X55620000Y-39390000D02*
X55850000Y-39390000D01*
X56250000Y-38990000D02*
X55850000Y-39390000D01*
X56250000Y-38990000D02*
X56250000Y-38650000D01*
D37*
X57537580Y-36754460D02*
X58131940Y-36160100D01*
X57537580Y-37371680D02*
X57537580Y-36754460D01*
X56959260Y-37950000D02*
X57537580Y-37371680D01*
D34*
X52760000Y-39750000D02*
X52820000Y-39750000D01*
X50610000Y-39750000D02*
X52250000Y-39750000D01*
X52250000Y-39750000D02*
X52430000Y-39750000D01*
X52430000Y-39750000D02*
X52760000Y-39750000D01*
X52820000Y-39750000D02*
X53290000Y-39280000D01*
X62250000Y-31975000D02*
X60555000Y-30280000D01*
X60555000Y-30280000D02*
X59985000Y-30280000D01*
X59985000Y-30280000D02*
X60405000Y-30280000D01*
D37*
X59310000Y-23256400D02*
X59310000Y-22992240D01*
D34*
X57933820Y-45423480D02*
X58137020Y-45423480D01*
D37*
X56450460Y-45423480D02*
X57933820Y-45423480D01*
D34*
X58137020Y-45423480D02*
X58154800Y-45441260D01*
D37*
X61441560Y-39454480D02*
X61441560Y-40493340D01*
X59310000Y-23256400D02*
X60364600Y-24311000D01*
X60364600Y-24311000D02*
X62213720Y-24311000D01*
X62213720Y-24311000D02*
X64281280Y-26378560D01*
X64281280Y-26378560D02*
X64281280Y-33736940D01*
X64281280Y-33736940D02*
X61609200Y-36409020D01*
X61609200Y-36409020D02*
X61609200Y-36751920D01*
X61609200Y-36751920D02*
X61441560Y-36919560D01*
X61441560Y-36919560D02*
X61441560Y-39454480D01*
X61441560Y-40493340D02*
X61027540Y-40907360D01*
X59310000Y-22992240D02*
X58672960Y-22355200D01*
X52074040Y-43871540D02*
X52869060Y-43871540D01*
X52074040Y-43871540D02*
X51695580Y-44250000D01*
X50610000Y-44250000D02*
X51695580Y-44250000D01*
X54723260Y-43696280D02*
X56450460Y-45423480D01*
X53044320Y-43696280D02*
X54723260Y-43696280D01*
X52869060Y-43871540D02*
X53044320Y-43696280D01*
X56450460Y-45423480D02*
X56465700Y-45438720D01*
D34*
X55868800Y-22939400D02*
X55868800Y-22933920D01*
D37*
X51373000Y-35314280D02*
X51347600Y-35288880D01*
X51286640Y-36746840D02*
X51373000Y-36660480D01*
X51286640Y-37074500D02*
X51286640Y-36746840D01*
X50616080Y-37745060D02*
X51286640Y-37074500D01*
X49399420Y-37745060D02*
X50616080Y-37745060D01*
X51373000Y-36660480D02*
X51373000Y-35314280D01*
D34*
X53925700Y-24882500D02*
X55868800Y-22939400D01*
X53925700Y-28555340D02*
X53925700Y-24882500D01*
X53267840Y-29213200D02*
X53925700Y-28555340D01*
D37*
X49161951Y-37982529D02*
X49399420Y-37745060D01*
X49156829Y-37982529D02*
X49161951Y-37982529D01*
D34*
X57169200Y-21105200D02*
X58672960Y-21105200D01*
X56764660Y-21509740D02*
X57169200Y-21105200D01*
X56764660Y-22038060D02*
X56764660Y-21509740D01*
X55868800Y-22933920D02*
X56764660Y-22038060D01*
X49156829Y-37982529D02*
X49174609Y-37964749D01*
X50610000Y-43750000D02*
X49562360Y-43750000D01*
X48314840Y-38824518D02*
X49156829Y-37982529D01*
X48314840Y-39881200D02*
X48314840Y-38824518D01*
X49208920Y-40775280D02*
X48314840Y-39881200D01*
X49208920Y-43396560D02*
X49208920Y-40775280D01*
X49562360Y-43750000D02*
X49208920Y-43396560D01*
M02*
