G04 #@! TF.FileFunction,Copper,L2,Bot,Signal*
%FSLAX46Y46*%
G04 Gerber Fmt 4.6, Leading zero omitted, Abs format (unit mm)*
G04 Created by KiCad (PCBNEW 4.0.7) date 02/03/18 21:49:53*
%MOMM*%
%LPD*%
G01*
G04 APERTURE LIST*
%ADD10C,0.100000*%
%ADD11R,1.000000X1.250000*%
%ADD12R,0.600000X0.500000*%
%ADD13R,0.500000X0.600000*%
%ADD14R,1.250000X1.000000*%
%ADD15R,1.500000X1.950000*%
%ADD16R,3.000000X0.650000*%
%ADD17R,3.000000X0.800000*%
%ADD18R,3.000000X2.100000*%
%ADD19R,1.700000X1.700000*%
%ADD20O,1.700000X1.700000*%
%ADD21C,1.000000*%
%ADD22R,1.000000X1.000000*%
%ADD23R,0.500000X0.900000*%
%ADD24R,0.900000X0.500000*%
%ADD25C,0.700000*%
%ADD26C,0.250000*%
%ADD27C,0.500000*%
%ADD28C,0.300000*%
G04 APERTURE END LIST*
D10*
D11*
X18658600Y-25780200D03*
X16658600Y-25780200D03*
D12*
X18040000Y-21770000D03*
X19140000Y-21770000D03*
D13*
X18373400Y-28673800D03*
X18373400Y-27573800D03*
D14*
X22720000Y-23410000D03*
X22720000Y-21410000D03*
D11*
X24630000Y-21940000D03*
X26630000Y-21940000D03*
X14863600Y-24365200D03*
X16863600Y-24365200D03*
D14*
X14943400Y-25643800D03*
X14943400Y-27643800D03*
D15*
X35363600Y-34390200D03*
X35363600Y-37140200D03*
X33563600Y-29690200D03*
X33563600Y-32440200D03*
D16*
X23590000Y-24685000D03*
X23590000Y-27225000D03*
X23590000Y-29765000D03*
X20590000Y-25955000D03*
X20590000Y-28495000D03*
X20590000Y-31035000D03*
D17*
X25403600Y-35175200D03*
X25403600Y-36425200D03*
D18*
X21803600Y-32625200D03*
X21803600Y-40225200D03*
D17*
X25403600Y-37675200D03*
D19*
X15063600Y-38365200D03*
D20*
X15063600Y-40905200D03*
X15063600Y-43445200D03*
D21*
X16463600Y-35565200D03*
X15213600Y-35565200D03*
X31533600Y-36735200D03*
X32803600Y-35465200D03*
D22*
X30263600Y-35465200D03*
D23*
X30513600Y-30265200D03*
X32013600Y-30265200D03*
X31713600Y-29065200D03*
X30213600Y-29065200D03*
D24*
X24563600Y-39515200D03*
X24563600Y-41015200D03*
X32963600Y-37815200D03*
X32963600Y-36315200D03*
D19*
X18563600Y-43465200D03*
D20*
X21103600Y-43465200D03*
X23643600Y-43465200D03*
D25*
X25963600Y-21365200D03*
X19863600Y-34765200D03*
X23463600Y-37665200D03*
X26763600Y-32165200D03*
X25663600Y-25065200D03*
X15263600Y-25065200D03*
X17863600Y-25565200D03*
X22663600Y-22065200D03*
X33363600Y-33165200D03*
X18563600Y-29165200D03*
X21563600Y-23565200D03*
X20063600Y-29865200D03*
X16663600Y-29865200D03*
X22163600Y-28265200D03*
X19963600Y-27865200D03*
X25463600Y-30765200D03*
X14863600Y-28765200D03*
X23263600Y-28365200D03*
X22763600Y-20265200D03*
X23063600Y-25665200D03*
X15963600Y-26765200D03*
X17463600Y-23165200D03*
X25263600Y-21965200D03*
X25963600Y-32665200D03*
X24663600Y-26065200D03*
X24563600Y-38865200D03*
X28363600Y-29065200D03*
X31863600Y-25865200D03*
X28863600Y-25665200D03*
X27463600Y-36165200D03*
X29363600Y-30765200D03*
X31263600Y-28965200D03*
D26*
X25963600Y-21365200D02*
X26538400Y-21940000D01*
X26538400Y-21940000D02*
X26630000Y-21940000D01*
D27*
X17555000Y-27573800D02*
X18373400Y-27573800D01*
X15763600Y-29365200D02*
X17555000Y-27573800D01*
X15763600Y-30665200D02*
X15763600Y-29365200D01*
X19863600Y-34765200D02*
X15763600Y-30665200D01*
X33563600Y-32440200D02*
X27038600Y-32440200D01*
X27038600Y-32440200D02*
X26763600Y-32165200D01*
D26*
X23463600Y-37665200D02*
X23463600Y-37675200D01*
X23463600Y-37675200D02*
X23463600Y-37665200D01*
X23463600Y-37665200D02*
X23463600Y-37675200D01*
X23643600Y-43465200D02*
X23963600Y-43465200D01*
D27*
X23963600Y-43465200D02*
X25563600Y-41865200D01*
X25563600Y-41865200D02*
X25563600Y-37835200D01*
D26*
X25563600Y-37835200D02*
X25403600Y-37675200D01*
D27*
X25403600Y-37675200D02*
X23463600Y-37675200D01*
X23463600Y-37675200D02*
X15753600Y-37675200D01*
D26*
X15753600Y-37675200D02*
X15063600Y-38365200D01*
D27*
X26630000Y-21940000D02*
X26630000Y-24098800D01*
X26630000Y-24098800D02*
X25663600Y-25065200D01*
D26*
X22720000Y-21410000D02*
X22918800Y-21410000D01*
D27*
X22918800Y-21410000D02*
X23763600Y-20565200D01*
X25255200Y-20565200D02*
X26630000Y-21940000D01*
X23763600Y-20565200D02*
X25255200Y-20565200D01*
X18658600Y-25780200D02*
X18658600Y-23270200D01*
X19140000Y-22788800D02*
X19140000Y-21770000D01*
X18658600Y-23270200D02*
X19140000Y-22788800D01*
D26*
X14863600Y-25065200D02*
X15263600Y-25065200D01*
X18078600Y-25780200D02*
X18658600Y-25780200D01*
X17863600Y-25565200D02*
X18078600Y-25780200D01*
D27*
X18373400Y-27573800D02*
X18373400Y-26065400D01*
D26*
X18373400Y-26065400D02*
X18658600Y-25780200D01*
X18658600Y-25780200D02*
X20415200Y-25780200D01*
X20415200Y-25780200D02*
X20590000Y-25955000D01*
X14863600Y-24365200D02*
X14863600Y-25065200D01*
X14863600Y-25065200D02*
X14863600Y-25564000D01*
X14863600Y-25564000D02*
X14943400Y-25643800D01*
D27*
X19140000Y-21770000D02*
X22360000Y-21770000D01*
D26*
X22360000Y-21770000D02*
X22720000Y-21410000D01*
X22720000Y-22008800D02*
X22720000Y-21410000D01*
X22663600Y-22065200D02*
X22720000Y-22008800D01*
X33563600Y-32440200D02*
X33563600Y-32590200D01*
D27*
X33563600Y-32590200D02*
X35363600Y-34390200D01*
D26*
X33363600Y-33165200D02*
X33563600Y-32965200D01*
X33563600Y-32965200D02*
X33563600Y-32440200D01*
X18373400Y-28975000D02*
X18373400Y-28673800D01*
X18563600Y-29165200D02*
X18373400Y-28975000D01*
X21563600Y-23565200D02*
X21718800Y-23410000D01*
X21718800Y-23410000D02*
X22720000Y-23410000D01*
X20163800Y-29765000D02*
X23590000Y-29765000D01*
X20063600Y-29865200D02*
X20163800Y-29765000D01*
X20233800Y-28495000D02*
X18863600Y-29865200D01*
X16863600Y-29865200D02*
X17163600Y-29865200D01*
X17163600Y-29865200D02*
X18863600Y-29865200D01*
X16663600Y-29865200D02*
X16863600Y-29865200D01*
X20233800Y-28495000D02*
X20590000Y-28495000D01*
X22163600Y-28265200D02*
X21933800Y-28495000D01*
X21933800Y-28495000D02*
X20590000Y-28495000D01*
X20590000Y-28491600D02*
X19963600Y-27865200D01*
X20590000Y-28491600D02*
X20590000Y-28495000D01*
X20590000Y-31035000D02*
X25193800Y-31035000D01*
X25193800Y-31035000D02*
X25463600Y-30765200D01*
D27*
X14943400Y-27643800D02*
X14943400Y-28685400D01*
X14863600Y-28765200D02*
X14943400Y-28685400D01*
X23590000Y-28038800D02*
X23263600Y-28365200D01*
X23590000Y-28038800D02*
X23590000Y-27225000D01*
X18040000Y-21488800D02*
X18040000Y-21770000D01*
X19263600Y-20265200D02*
X18040000Y-21488800D01*
D26*
X19563600Y-20265200D02*
X19263600Y-20265200D01*
D27*
X22763600Y-20265200D02*
X19563600Y-20265200D01*
X23063600Y-25665200D02*
X23590000Y-26191600D01*
X23590000Y-26191600D02*
X23590000Y-27225000D01*
D26*
X15713600Y-26615200D02*
X15813600Y-26615200D01*
X15813600Y-26615200D02*
X15963600Y-26765200D01*
X14943400Y-27643800D02*
X14943400Y-27385400D01*
D27*
X14943400Y-27385400D02*
X15713600Y-26615200D01*
D26*
X15713600Y-26615200D02*
X16548600Y-25780200D01*
X16548600Y-25780200D02*
X16658600Y-25780200D01*
X16863600Y-24365200D02*
X16863600Y-23765200D01*
D27*
X16863600Y-23765200D02*
X17463600Y-23165200D01*
X18040000Y-21770000D02*
X18040000Y-22588800D01*
X18040000Y-22588800D02*
X17463600Y-23165200D01*
D26*
X16658600Y-25780200D02*
X16658600Y-24570200D01*
X16658600Y-24570200D02*
X16863600Y-24365200D01*
X16678600Y-24400200D02*
X16998600Y-24400200D01*
X25263600Y-21965200D02*
X25238400Y-21940000D01*
X25238400Y-21940000D02*
X24630000Y-21940000D01*
X26063600Y-32865200D02*
X26063600Y-32765200D01*
D27*
X31063600Y-33965200D02*
X32563600Y-35465200D01*
X27163600Y-33965200D02*
X26863600Y-33665200D01*
X31063600Y-33965200D02*
X27163600Y-33965200D01*
X26863600Y-33665200D02*
X26063600Y-32865200D01*
D26*
X26063600Y-32765200D02*
X25963600Y-32665200D01*
X32803600Y-35465200D02*
X32563600Y-35465200D01*
D27*
X15063600Y-43445200D02*
X18543600Y-43445200D01*
D26*
X18543600Y-43445200D02*
X18563600Y-43465200D01*
D27*
X23590000Y-24685000D02*
X23590000Y-24991600D01*
X23590000Y-24991600D02*
X24663600Y-26065200D01*
X32803600Y-35465200D02*
X32803600Y-36155200D01*
D26*
X32803600Y-36155200D02*
X32963600Y-36315200D01*
X32963600Y-37815200D02*
X34688600Y-37815200D01*
X34688600Y-37815200D02*
X35363600Y-37140200D01*
X31533600Y-36735200D02*
X31533600Y-37235200D01*
X31533600Y-37235200D02*
X32113600Y-37815200D01*
X32113600Y-37815200D02*
X32963600Y-37815200D01*
D27*
X32013600Y-30265200D02*
X32988600Y-30265200D01*
D26*
X32988600Y-30265200D02*
X33563600Y-29690200D01*
D28*
X28363600Y-29065200D02*
X31563600Y-25865200D01*
D26*
X31563600Y-25865200D02*
X31863600Y-25865200D01*
D27*
X24563600Y-38865200D02*
X24563600Y-39515200D01*
D28*
X16463600Y-35565200D02*
X22063600Y-35565200D01*
X26763600Y-28665200D02*
X28863600Y-26565200D01*
X28863600Y-26565200D02*
X28863600Y-25665200D01*
X26763600Y-30865200D02*
X26763600Y-28665200D01*
X22063600Y-35565200D02*
X26763600Y-30865200D01*
D27*
X25403600Y-35175200D02*
X29973600Y-35175200D01*
X29973600Y-35175200D02*
X30263600Y-35465200D01*
X27203600Y-36425200D02*
X25403600Y-36425200D01*
X27203600Y-36425200D02*
X27463600Y-36165200D01*
X30513600Y-30265200D02*
X30513600Y-29365200D01*
X30513600Y-29365200D02*
X30213600Y-29065200D01*
X29863600Y-30265200D02*
X30263600Y-30265200D01*
X29363600Y-30765200D02*
X29863600Y-30265200D01*
D26*
X30263600Y-30265200D02*
X30513600Y-30265200D01*
X30263600Y-30265200D02*
X30513600Y-30265200D01*
X31363600Y-29065200D02*
X31713600Y-29065200D01*
X31263600Y-28965200D02*
X31363600Y-29065200D01*
X21103600Y-43465200D02*
X21163600Y-43465200D01*
D27*
X21163600Y-43465200D02*
X22663600Y-41965200D01*
X22663600Y-41965200D02*
X23613600Y-41965200D01*
X23613600Y-41965200D02*
X24563600Y-41015200D01*
M02*
