G04 #@! TF.FileFunction,Legend,Top*
%FSLAX46Y46*%
G04 Gerber Fmt 4.6, Leading zero omitted, Abs format (unit mm)*
G04 Created by KiCad (PCBNEW 4.0.7) date 01/17/18 14:56:10*
%MOMM*%
%LPD*%
G01*
G04 APERTURE LIST*
%ADD10C,0.152400*%
%ADD11C,0.100000*%
%ADD12C,0.120000*%
%ADD13C,0.127000*%
%ADD14C,0.200000*%
G04 APERTURE END LIST*
D10*
D11*
X37100000Y-36800000D02*
X37000000Y-36800000D01*
X37100000Y-13700000D02*
X37100000Y-36800000D01*
X36700000Y-13700000D02*
X37100000Y-13700000D01*
X35900000Y-13700000D02*
X36700000Y-13700000D01*
X13600000Y-13700000D02*
X35900000Y-13700000D01*
X13600000Y-36800000D02*
X13600000Y-13700000D01*
X37000000Y-36800000D02*
X13600000Y-36800000D01*
D12*
X25400000Y-25920000D02*
X26540000Y-25920000D01*
X26540000Y-25920000D02*
X26540000Y-23820000D01*
X25400000Y-25920000D02*
X25400000Y-23820000D01*
D13*
X15440000Y-25380000D02*
X15340000Y-25380000D01*
X15340000Y-25380000D02*
X15340000Y-25780000D01*
X17240000Y-27380000D02*
X17340000Y-27380000D01*
X17340000Y-27380000D02*
X17340000Y-26980000D01*
X17340000Y-25380000D02*
X17340000Y-25780000D01*
X15440000Y-27380000D02*
X15340000Y-27380000D01*
X15340000Y-26980000D02*
X15340000Y-27380000D01*
X17340000Y-25380000D02*
X17240000Y-25380000D01*
D14*
X15040000Y-26080000D02*
G75*
G03X15040000Y-26080000I-100000J0D01*
G01*
D10*
X23235000Y-36015000D02*
G75*
G03X23235000Y-36015000I-200000J0D01*
G01*
D13*
X20720000Y-36000000D02*
X16720000Y-36000000D01*
X20720000Y-31000000D02*
X16720000Y-31000000D01*
D10*
X25910000Y-32460000D02*
G75*
G03X25910000Y-32460000I-100000J0D01*
G01*
M02*
