G04 #@! TF.FileFunction,Legend,Bot*
%FSLAX46Y46*%
G04 Gerber Fmt 4.6, Leading zero omitted, Abs format (unit mm)*
G04 Created by KiCad (PCBNEW 4.0.7) date 01/17/18 14:56:10*
%MOMM*%
%LPD*%
G01*
G04 APERTURE LIST*
%ADD10C,0.152400*%
%ADD11C,0.100000*%
%ADD12C,0.120000*%
G04 APERTURE END LIST*
D10*
D11*
X37100000Y-36800000D02*
X37000000Y-36800000D01*
X37100000Y-13700000D02*
X37100000Y-36800000D01*
X36700000Y-13700000D02*
X37100000Y-13700000D01*
X35900000Y-13700000D02*
X36700000Y-13700000D01*
X13600000Y-13700000D02*
X35900000Y-13700000D01*
X13600000Y-36800000D02*
X13600000Y-13700000D01*
X37000000Y-36800000D02*
X13600000Y-36800000D01*
D12*
X22780000Y-22955000D02*
X20560000Y-22955000D01*
X22780000Y-29425000D02*
X20560000Y-29425000D01*
X20560000Y-22965000D02*
X20560000Y-24335000D01*
X22780000Y-23065000D02*
X24610000Y-23065000D01*
X22780000Y-22955000D02*
X22780000Y-23065000D01*
X20560000Y-29315000D02*
X20560000Y-29425000D01*
X20560000Y-25505000D02*
X20560000Y-26875000D01*
X20560000Y-28045000D02*
X20560000Y-29415000D01*
X22780000Y-24235000D02*
X22780000Y-25605000D01*
X22780000Y-26775000D02*
X22780000Y-28145000D01*
X30330000Y-33320000D02*
X30330000Y-34320000D01*
X28630000Y-34320000D02*
X28630000Y-33320000D01*
X18970000Y-34730000D02*
X18470000Y-34730000D01*
X18470000Y-33790000D02*
X18970000Y-33790000D01*
X27390000Y-35000000D02*
X26890000Y-35000000D01*
X26890000Y-34060000D02*
X27390000Y-34060000D01*
X23700000Y-34400000D02*
X23700000Y-35400000D01*
X22000000Y-35400000D02*
X22000000Y-34400000D01*
X16170000Y-25970000D02*
X15170000Y-25970000D01*
X15170000Y-24270000D02*
X16170000Y-24270000D01*
X32190000Y-31350000D02*
X32190000Y-32350000D01*
X30490000Y-32350000D02*
X30490000Y-31350000D01*
X26910000Y-28330000D02*
X26910000Y-27130000D01*
X25150000Y-27130000D02*
X25150000Y-28330000D01*
X28120000Y-30250000D02*
X29120000Y-30250000D01*
X29120000Y-31950000D02*
X28120000Y-31950000D01*
M02*
