G04 #@! TF.FileFunction,Copper,L1,Top,Signal*
%FSLAX46Y46*%
G04 Gerber Fmt 4.6, Leading zero omitted, Abs format (unit mm)*
G04 Created by KiCad (PCBNEW 4.0.7) date 01/31/18 21:16:08*
%MOMM*%
%LPD*%
G01*
G04 APERTURE LIST*
%ADD10C,0.152400*%
%ADD11C,0.100000*%
%ADD12R,0.800000X0.600000*%
%ADD13R,0.300000X0.400000*%
%ADD14R,0.400000X0.300000*%
%ADD15R,1.970000X0.600000*%
%ADD16R,0.400000X0.250000*%
%ADD17R,0.250000X0.400000*%
%ADD18C,1.006000*%
%ADD19C,0.250000*%
%ADD20C,0.203000*%
G04 APERTURE END LIST*
D10*
D11*
X37100000Y-36800000D02*
X37000000Y-36800000D01*
X36700000Y-13700000D02*
X36700000Y-36800000D01*
X13600000Y-13700000D02*
X36700000Y-13700000D01*
X13600000Y-36800000D02*
X13600000Y-13700000D01*
X36700000Y-36800000D02*
X13600000Y-36800000D01*
D12*
X25970000Y-25470000D03*
X25970000Y-23770000D03*
D13*
X15830000Y-27190000D03*
X16340000Y-27180000D03*
X16850000Y-27190000D03*
D14*
X17140000Y-26120000D03*
X17140000Y-26630000D03*
D13*
X16850000Y-25560000D03*
X16340000Y-25580000D03*
X15830000Y-25560000D03*
D14*
X15540000Y-26630000D03*
X15540000Y-26120000D03*
D15*
X21195000Y-35405000D03*
X21195000Y-34135000D03*
X21195000Y-32865000D03*
X21195000Y-31595000D03*
X16245000Y-31595000D03*
X16245000Y-32865000D03*
X16245000Y-34135000D03*
X16245000Y-35405000D03*
D14*
X26310000Y-32370000D03*
D16*
X26315000Y-32910000D03*
X26315000Y-33410000D03*
D14*
X26310000Y-33950000D03*
D17*
X26860000Y-33990000D03*
X27360000Y-33990000D03*
D14*
X27910000Y-33950000D03*
D16*
X27905000Y-33410000D03*
X27905000Y-32910000D03*
D14*
X27910000Y-32370000D03*
D17*
X27360000Y-32330000D03*
X26860000Y-32330000D03*
D18*
X27670000Y-35080000D03*
X25190000Y-23710000D03*
X21195000Y-34135000D03*
X16520000Y-24230000D03*
X15480000Y-27490000D03*
X26050000Y-34810000D03*
X22880000Y-35160000D03*
X25970000Y-26170000D03*
X24790000Y-33740000D03*
X23840000Y-31570000D03*
X21670000Y-27480000D03*
X17000000Y-28550000D03*
X21440000Y-26170000D03*
X22250000Y-24940000D03*
X18360000Y-24910000D03*
X17590000Y-35390000D03*
X28340000Y-31100000D03*
X31340000Y-31630000D03*
X29470000Y-33600000D03*
D19*
X27370000Y-33930000D02*
X27370000Y-34780000D01*
X27370000Y-34780000D02*
X27670000Y-35080000D01*
X27370000Y-33930000D02*
X27370000Y-33560000D01*
X27510000Y-33420000D02*
X27880000Y-33420000D01*
X27370000Y-33560000D02*
X27510000Y-33420000D01*
X25970000Y-23770000D02*
X25250000Y-23770000D01*
X25250000Y-23770000D02*
X25190000Y-23710000D01*
X16340000Y-25580000D02*
X16340000Y-24410000D01*
X16340000Y-24410000D02*
X16520000Y-24230000D01*
X15840000Y-27180000D02*
X15790000Y-27180000D01*
X15790000Y-27180000D02*
X15480000Y-27490000D01*
X16340000Y-25580000D02*
X16840000Y-25580000D01*
X26870000Y-33930000D02*
X26870000Y-34370000D01*
X26430000Y-34810000D02*
X26050000Y-34810000D01*
X26870000Y-34370000D02*
X26430000Y-34810000D01*
X21195000Y-35405000D02*
X22635000Y-35405000D01*
X22635000Y-35405000D02*
X22880000Y-35160000D01*
X25970000Y-25470000D02*
X25970000Y-26170000D01*
X21195000Y-31595000D02*
X23815000Y-31595000D01*
X24970000Y-33920000D02*
X26360000Y-33920000D01*
X24790000Y-33740000D02*
X24970000Y-33920000D01*
X23815000Y-31595000D02*
X23840000Y-31570000D01*
X21195000Y-31595000D02*
X21195000Y-27955000D01*
X21195000Y-27955000D02*
X21670000Y-27480000D01*
X17000000Y-28550000D02*
X16340000Y-27890000D01*
X16340000Y-27890000D02*
X16340000Y-27180000D01*
X21195000Y-32865000D02*
X24115000Y-32865000D01*
X24560000Y-32420000D02*
X26360000Y-32420000D01*
X24115000Y-32865000D02*
X24560000Y-32420000D01*
X21195000Y-32865000D02*
X19685000Y-32865000D01*
X18760000Y-31940000D02*
X18760000Y-29760000D01*
X19685000Y-32865000D02*
X18760000Y-31940000D01*
X15540000Y-26630000D02*
X14960000Y-26630000D01*
X20720000Y-26170000D02*
X21440000Y-26170000D01*
X19710000Y-27180000D02*
X20720000Y-26170000D01*
X19710000Y-28810000D02*
X19710000Y-27180000D01*
X18650000Y-29870000D02*
X18760000Y-29760000D01*
X18760000Y-29760000D02*
X19710000Y-28810000D01*
X15750000Y-29870000D02*
X18650000Y-29870000D01*
X14450000Y-28570000D02*
X15750000Y-29870000D01*
X14450000Y-27140000D02*
X14450000Y-28570000D01*
X14960000Y-26630000D02*
X14450000Y-27140000D01*
X28440000Y-33680000D02*
X28440000Y-33040000D01*
X28495000Y-33625000D02*
X28440000Y-33680000D01*
X28495000Y-33095000D02*
X28495000Y-33625000D01*
X28195000Y-32795000D02*
X28195000Y-32910000D01*
X28440000Y-33040000D02*
X28195000Y-32795000D01*
X27870000Y-32910000D02*
X28195000Y-32910000D01*
X28610000Y-33210000D02*
X28630000Y-33210000D01*
X28495000Y-33095000D02*
X28610000Y-33210000D01*
X27870000Y-32410000D02*
X27870000Y-32130000D01*
X27870000Y-32130000D02*
X28230000Y-31770000D01*
X27870000Y-32410000D02*
X27870000Y-32320000D01*
X27870000Y-32320000D02*
X28390000Y-31800000D01*
X27870000Y-32910000D02*
X27870000Y-32550000D01*
X27870000Y-32550000D02*
X28520000Y-31900000D01*
X27870000Y-32910000D02*
X27870000Y-32790000D01*
X27870000Y-32790000D02*
X28570000Y-32090000D01*
X27870000Y-32910000D02*
X28080000Y-32910000D01*
X28080000Y-32910000D02*
X28610000Y-32380000D01*
X27870000Y-32910000D02*
X28250000Y-32910000D01*
X28250000Y-32910000D02*
X28610000Y-32550000D01*
X27870000Y-32910000D02*
X28480000Y-32910000D01*
X28480000Y-32910000D02*
X28520000Y-32870000D01*
X26350000Y-33410000D02*
X26350000Y-32910000D01*
X26350000Y-32910000D02*
X27870000Y-32910000D01*
X27870000Y-32910000D02*
X27870000Y-32410000D01*
X17575000Y-35405000D02*
X16245000Y-35405000D01*
X17590000Y-35390000D02*
X17575000Y-35405000D01*
D20*
G36*
X20328229Y-15971771D02*
X20361806Y-15994040D01*
X20400000Y-16001500D01*
X21857958Y-16001500D01*
X24328229Y-18471771D01*
X24361806Y-18494040D01*
X24400000Y-18501500D01*
X25857958Y-18501500D01*
X31798500Y-24442042D01*
X31798500Y-25900000D01*
X31806497Y-25939489D01*
X31828229Y-25971771D01*
X34798500Y-28942042D01*
X34798500Y-30900000D01*
X34806497Y-30939489D01*
X34828229Y-30971771D01*
X36298500Y-32442042D01*
X36298500Y-36298500D01*
X17389864Y-36298500D01*
X17575254Y-36221709D01*
X17746709Y-36050254D01*
X17839500Y-35826237D01*
X17839500Y-35707375D01*
X17687125Y-35555000D01*
X16397500Y-35555000D01*
X16397500Y-35577500D01*
X16092500Y-35577500D01*
X16092500Y-35555000D01*
X14802875Y-35555000D01*
X14650500Y-35707375D01*
X14650500Y-35826237D01*
X14743291Y-36050254D01*
X14914746Y-36221709D01*
X15100136Y-36298500D01*
X14001500Y-36298500D01*
X14001500Y-34983763D01*
X14650500Y-34983763D01*
X14650500Y-35102625D01*
X14802875Y-35255000D01*
X16092500Y-35255000D01*
X16092500Y-35232500D01*
X16397500Y-35232500D01*
X16397500Y-35255000D01*
X17687125Y-35255000D01*
X17839500Y-35102625D01*
X17839500Y-34983763D01*
X17746709Y-34759746D01*
X17575254Y-34588291D01*
X17511765Y-34561993D01*
X17516005Y-34555788D01*
X17540465Y-34435000D01*
X17540465Y-33835000D01*
X17519233Y-33722159D01*
X17452544Y-33618522D01*
X17350788Y-33548995D01*
X17230000Y-33524535D01*
X15260000Y-33524535D01*
X15147159Y-33545767D01*
X15043522Y-33612456D01*
X14973995Y-33714212D01*
X14949535Y-33835000D01*
X14949535Y-34435000D01*
X14970767Y-34547841D01*
X14979529Y-34561457D01*
X14914746Y-34588291D01*
X14743291Y-34759746D01*
X14650500Y-34983763D01*
X14001500Y-34983763D01*
X14001500Y-32565000D01*
X14949535Y-32565000D01*
X14949535Y-33165000D01*
X14970767Y-33277841D01*
X15037456Y-33381478D01*
X15139212Y-33451005D01*
X15260000Y-33475465D01*
X17230000Y-33475465D01*
X17342841Y-33454233D01*
X17446478Y-33387544D01*
X17516005Y-33285788D01*
X17540465Y-33165000D01*
X17540465Y-32565000D01*
X17519233Y-32452159D01*
X17452544Y-32348522D01*
X17350788Y-32278995D01*
X17230000Y-32254535D01*
X15260000Y-32254535D01*
X15147159Y-32275767D01*
X15043522Y-32342456D01*
X14973995Y-32444212D01*
X14949535Y-32565000D01*
X14001500Y-32565000D01*
X14001500Y-31295000D01*
X14949535Y-31295000D01*
X14949535Y-31895000D01*
X14970767Y-32007841D01*
X15037456Y-32111478D01*
X15139212Y-32181005D01*
X15260000Y-32205465D01*
X17230000Y-32205465D01*
X17342841Y-32184233D01*
X17446478Y-32117544D01*
X17516005Y-32015788D01*
X17540465Y-31895000D01*
X17540465Y-31295000D01*
X17519233Y-31182159D01*
X17452544Y-31078522D01*
X17350788Y-31008995D01*
X17230000Y-30984535D01*
X15260000Y-30984535D01*
X15147159Y-31005767D01*
X15043522Y-31072456D01*
X14973995Y-31174212D01*
X14949535Y-31295000D01*
X14001500Y-31295000D01*
X14001500Y-27140000D01*
X14020500Y-27140000D01*
X14020500Y-28570000D01*
X14053194Y-28734363D01*
X14132934Y-28853702D01*
X14146298Y-28873702D01*
X15446298Y-30173703D01*
X15585638Y-30266807D01*
X15750000Y-30299500D01*
X18330500Y-30299500D01*
X18330500Y-31940000D01*
X18363194Y-32104363D01*
X18410727Y-32175500D01*
X18456298Y-32243702D01*
X19381298Y-33168703D01*
X19520638Y-33261807D01*
X19685000Y-33294500D01*
X19931487Y-33294500D01*
X19987456Y-33381478D01*
X20089212Y-33451005D01*
X20210000Y-33475465D01*
X20712712Y-33475465D01*
X20663556Y-33524535D01*
X20210000Y-33524535D01*
X20097159Y-33545767D01*
X19993522Y-33612456D01*
X19923995Y-33714212D01*
X19899535Y-33835000D01*
X19899535Y-34435000D01*
X19920767Y-34547841D01*
X19987456Y-34651478D01*
X20089212Y-34721005D01*
X20210000Y-34745465D01*
X20663418Y-34745465D01*
X20712403Y-34794535D01*
X20210000Y-34794535D01*
X20097159Y-34815767D01*
X19993522Y-34882456D01*
X19923995Y-34984212D01*
X19899535Y-35105000D01*
X19899535Y-35705000D01*
X19920767Y-35817841D01*
X19987456Y-35921478D01*
X20089212Y-35991005D01*
X20210000Y-36015465D01*
X22180000Y-36015465D01*
X22292841Y-35994233D01*
X22396478Y-35927544D01*
X22446495Y-35854341D01*
X22718674Y-35967360D01*
X23039917Y-35967640D01*
X23336815Y-35844964D01*
X23564166Y-35618009D01*
X23687360Y-35321326D01*
X23687640Y-35000083D01*
X23564964Y-34703185D01*
X23338009Y-34475834D01*
X23041326Y-34352640D01*
X22720083Y-34352360D01*
X22487761Y-34448354D01*
X22490465Y-34435000D01*
X22490465Y-33835000D01*
X22469233Y-33722159D01*
X22402544Y-33618522D01*
X22300788Y-33548995D01*
X22180000Y-33524535D01*
X21726582Y-33524535D01*
X21677597Y-33475465D01*
X22180000Y-33475465D01*
X22292841Y-33454233D01*
X22396478Y-33387544D01*
X22460052Y-33294500D01*
X24100640Y-33294500D01*
X23982640Y-33578674D01*
X23982360Y-33899917D01*
X24105036Y-34196815D01*
X24331991Y-34424166D01*
X24628674Y-34547360D01*
X24949917Y-34547640D01*
X25246815Y-34424964D01*
X25322411Y-34349500D01*
X25368329Y-34349500D01*
X25365834Y-34351991D01*
X25242640Y-34648674D01*
X25242360Y-34969917D01*
X25365036Y-35266815D01*
X25591991Y-35494166D01*
X25888674Y-35617360D01*
X26209917Y-35617640D01*
X26506815Y-35494964D01*
X26734166Y-35268009D01*
X26844068Y-35003336D01*
X26862582Y-34984822D01*
X26862360Y-35239917D01*
X26985036Y-35536815D01*
X27211991Y-35764166D01*
X27508674Y-35887360D01*
X27829917Y-35887640D01*
X28126815Y-35764964D01*
X28354166Y-35538009D01*
X28477360Y-35241326D01*
X28477640Y-34920083D01*
X28354964Y-34623185D01*
X28137457Y-34405299D01*
X28222841Y-34389233D01*
X28326478Y-34322544D01*
X28396005Y-34220788D01*
X28420465Y-34100000D01*
X28420465Y-33800000D01*
X28399233Y-33687159D01*
X28384846Y-33664802D01*
X28391005Y-33655788D01*
X28408586Y-33568968D01*
X28450254Y-33551709D01*
X28621709Y-33380254D01*
X28714500Y-33156237D01*
X28714500Y-33124875D01*
X28562125Y-32972500D01*
X28519463Y-32972500D01*
X28626709Y-32865254D01*
X28684931Y-32724694D01*
X28714500Y-32695125D01*
X28714500Y-32663763D01*
X28712335Y-32658536D01*
X28719500Y-32641237D01*
X28719500Y-32597375D01*
X28664021Y-32541896D01*
X28621709Y-32439746D01*
X28476963Y-32295000D01*
X28567125Y-32295000D01*
X28719500Y-32142625D01*
X28719500Y-32098763D01*
X28626709Y-31874746D01*
X28455254Y-31703291D01*
X28231237Y-31610500D01*
X28162375Y-31610500D01*
X28010000Y-31762875D01*
X28010000Y-32295000D01*
X28037875Y-32295000D01*
X28005000Y-32327875D01*
X28005000Y-32520000D01*
X27810000Y-32520000D01*
X27810000Y-32445000D01*
X27805000Y-32445000D01*
X27805000Y-32327875D01*
X27795465Y-32318340D01*
X27795465Y-32295000D01*
X27810000Y-32295000D01*
X27810000Y-31762875D01*
X27657625Y-31610500D01*
X27588763Y-31610500D01*
X27364746Y-31703291D01*
X27248502Y-31819535D01*
X27235000Y-31819535D01*
X27122159Y-31840767D01*
X27111295Y-31847758D01*
X27105788Y-31843995D01*
X26985000Y-31819535D01*
X26735000Y-31819535D01*
X26622159Y-31840767D01*
X26518522Y-31907456D01*
X26516238Y-31910798D01*
X26510000Y-31909535D01*
X26110000Y-31909535D01*
X25997159Y-31930767D01*
X25904332Y-31990500D01*
X24560000Y-31990500D01*
X24537917Y-31994893D01*
X24647360Y-31731326D01*
X24647640Y-31410083D01*
X24524964Y-31113185D01*
X24298009Y-30885834D01*
X24001326Y-30762640D01*
X23680083Y-30762360D01*
X23383185Y-30885036D01*
X23155834Y-31111991D01*
X23133615Y-31165500D01*
X22458513Y-31165500D01*
X22402544Y-31078522D01*
X22300788Y-31008995D01*
X22180000Y-30984535D01*
X21624500Y-30984535D01*
X21624500Y-28287461D01*
X21829917Y-28287640D01*
X22126815Y-28164964D01*
X22354166Y-27938009D01*
X22477360Y-27641326D01*
X22477640Y-27320083D01*
X22354964Y-27023185D01*
X22128009Y-26795834D01*
X22006565Y-26745406D01*
X22124166Y-26628009D01*
X22247360Y-26331326D01*
X22247361Y-26329917D01*
X25162360Y-26329917D01*
X25285036Y-26626815D01*
X25511991Y-26854166D01*
X25808674Y-26977360D01*
X26129917Y-26977640D01*
X26426815Y-26854964D01*
X26654166Y-26628009D01*
X26777360Y-26331326D01*
X26777640Y-26010083D01*
X26679799Y-25773290D01*
X26680465Y-25770000D01*
X26680465Y-25170000D01*
X26659233Y-25057159D01*
X26592544Y-24953522D01*
X26490788Y-24883995D01*
X26370000Y-24859535D01*
X25570000Y-24859535D01*
X25457159Y-24880767D01*
X25353522Y-24947456D01*
X25283995Y-25049212D01*
X25259535Y-25170000D01*
X25259535Y-25770000D01*
X25260225Y-25773665D01*
X25162640Y-26008674D01*
X25162360Y-26329917D01*
X22247361Y-26329917D01*
X22247640Y-26010083D01*
X22124964Y-25713185D01*
X21898009Y-25485834D01*
X21601326Y-25362640D01*
X21280083Y-25362360D01*
X20983185Y-25485036D01*
X20755834Y-25711991D01*
X20743996Y-25740500D01*
X20720000Y-25740500D01*
X20555638Y-25773193D01*
X20416298Y-25866297D01*
X19406298Y-26876298D01*
X19313194Y-27015637D01*
X19280500Y-27180000D01*
X19280500Y-28632096D01*
X18472096Y-29440500D01*
X15927905Y-29440500D01*
X14879500Y-28392096D01*
X14879500Y-28031426D01*
X15021991Y-28174166D01*
X15318674Y-28297360D01*
X15639917Y-28297640D01*
X15936815Y-28174964D01*
X15988982Y-28122888D01*
X16000750Y-28140501D01*
X16036298Y-28193702D01*
X16203974Y-28361378D01*
X16192640Y-28388674D01*
X16192360Y-28709917D01*
X16315036Y-29006815D01*
X16541991Y-29234166D01*
X16838674Y-29357360D01*
X17159917Y-29357640D01*
X17456815Y-29234964D01*
X17684166Y-29008009D01*
X17807360Y-28711326D01*
X17807640Y-28390083D01*
X17684964Y-28093185D01*
X17458009Y-27865834D01*
X17161326Y-27742640D01*
X16840083Y-27742360D01*
X16811553Y-27754149D01*
X16769500Y-27712096D01*
X16769500Y-27700465D01*
X17000000Y-27700465D01*
X17112841Y-27679233D01*
X17216478Y-27612544D01*
X17286005Y-27510788D01*
X17310465Y-27390000D01*
X17310465Y-27090465D01*
X17340000Y-27090465D01*
X17452841Y-27069233D01*
X17556478Y-27002544D01*
X17626005Y-26900788D01*
X17650465Y-26780000D01*
X17650465Y-26480000D01*
X17629983Y-26371144D01*
X17650465Y-26270000D01*
X17650465Y-25970000D01*
X17629233Y-25857159D01*
X17562544Y-25753522D01*
X17460788Y-25683995D01*
X17340000Y-25659535D01*
X17310465Y-25659535D01*
X17310465Y-25360000D01*
X17289233Y-25247159D01*
X17222544Y-25143522D01*
X17120788Y-25073995D01*
X17000000Y-25049535D01*
X16769500Y-25049535D01*
X16769500Y-25000625D01*
X16976815Y-24914964D01*
X17204166Y-24688009D01*
X17327360Y-24391326D01*
X17327640Y-24070083D01*
X17244933Y-23869917D01*
X24382360Y-23869917D01*
X24505036Y-24166815D01*
X24731991Y-24394166D01*
X25028674Y-24517360D01*
X25349917Y-24517640D01*
X25646815Y-24394964D01*
X25661339Y-24380465D01*
X26370000Y-24380465D01*
X26482841Y-24359233D01*
X26586478Y-24292544D01*
X26656005Y-24190788D01*
X26680465Y-24070000D01*
X26680465Y-23470000D01*
X26659233Y-23357159D01*
X26592544Y-23253522D01*
X26490788Y-23183995D01*
X26370000Y-23159535D01*
X25781477Y-23159535D01*
X25648009Y-23025834D01*
X25351326Y-22902640D01*
X25030083Y-22902360D01*
X24733185Y-23025036D01*
X24505834Y-23251991D01*
X24382640Y-23548674D01*
X24382360Y-23869917D01*
X17244933Y-23869917D01*
X17204964Y-23773185D01*
X16978009Y-23545834D01*
X16681326Y-23422640D01*
X16360083Y-23422360D01*
X16063185Y-23545036D01*
X15835834Y-23771991D01*
X15712640Y-24068674D01*
X15712360Y-24389917D01*
X15835036Y-24686815D01*
X15910500Y-24762411D01*
X15910500Y-24897375D01*
X15905000Y-24902875D01*
X15905000Y-25257741D01*
X15903995Y-25259212D01*
X15879535Y-25380000D01*
X15879535Y-25696804D01*
X15860788Y-25683995D01*
X15755000Y-25662573D01*
X15755000Y-25660000D01*
X15742296Y-25660000D01*
X15740000Y-25659535D01*
X15340000Y-25659535D01*
X15337529Y-25660000D01*
X15222875Y-25660000D01*
X15156892Y-25725983D01*
X15123522Y-25747456D01*
X15097857Y-25785018D01*
X15070500Y-25812375D01*
X15070500Y-25825056D01*
X15053995Y-25849212D01*
X15029535Y-25970000D01*
X15029535Y-26200500D01*
X14960000Y-26200500D01*
X14795637Y-26233194D01*
X14730513Y-26276709D01*
X14656298Y-26326298D01*
X14146298Y-26836298D01*
X14053194Y-26975637D01*
X14020500Y-27140000D01*
X14001500Y-27140000D01*
X14001500Y-25238763D01*
X15070500Y-25238763D01*
X15070500Y-25307625D01*
X15222875Y-25460000D01*
X15755000Y-25460000D01*
X15755000Y-24902875D01*
X15602625Y-24750500D01*
X15558763Y-24750500D01*
X15334746Y-24843291D01*
X15163291Y-25014746D01*
X15070500Y-25238763D01*
X14001500Y-25238763D01*
X14001500Y-14054500D01*
X18410958Y-14054500D01*
X20328229Y-15971771D01*
X20328229Y-15971771D01*
G37*
X20328229Y-15971771D02*
X20361806Y-15994040D01*
X20400000Y-16001500D01*
X21857958Y-16001500D01*
X24328229Y-18471771D01*
X24361806Y-18494040D01*
X24400000Y-18501500D01*
X25857958Y-18501500D01*
X31798500Y-24442042D01*
X31798500Y-25900000D01*
X31806497Y-25939489D01*
X31828229Y-25971771D01*
X34798500Y-28942042D01*
X34798500Y-30900000D01*
X34806497Y-30939489D01*
X34828229Y-30971771D01*
X36298500Y-32442042D01*
X36298500Y-36298500D01*
X17389864Y-36298500D01*
X17575254Y-36221709D01*
X17746709Y-36050254D01*
X17839500Y-35826237D01*
X17839500Y-35707375D01*
X17687125Y-35555000D01*
X16397500Y-35555000D01*
X16397500Y-35577500D01*
X16092500Y-35577500D01*
X16092500Y-35555000D01*
X14802875Y-35555000D01*
X14650500Y-35707375D01*
X14650500Y-35826237D01*
X14743291Y-36050254D01*
X14914746Y-36221709D01*
X15100136Y-36298500D01*
X14001500Y-36298500D01*
X14001500Y-34983763D01*
X14650500Y-34983763D01*
X14650500Y-35102625D01*
X14802875Y-35255000D01*
X16092500Y-35255000D01*
X16092500Y-35232500D01*
X16397500Y-35232500D01*
X16397500Y-35255000D01*
X17687125Y-35255000D01*
X17839500Y-35102625D01*
X17839500Y-34983763D01*
X17746709Y-34759746D01*
X17575254Y-34588291D01*
X17511765Y-34561993D01*
X17516005Y-34555788D01*
X17540465Y-34435000D01*
X17540465Y-33835000D01*
X17519233Y-33722159D01*
X17452544Y-33618522D01*
X17350788Y-33548995D01*
X17230000Y-33524535D01*
X15260000Y-33524535D01*
X15147159Y-33545767D01*
X15043522Y-33612456D01*
X14973995Y-33714212D01*
X14949535Y-33835000D01*
X14949535Y-34435000D01*
X14970767Y-34547841D01*
X14979529Y-34561457D01*
X14914746Y-34588291D01*
X14743291Y-34759746D01*
X14650500Y-34983763D01*
X14001500Y-34983763D01*
X14001500Y-32565000D01*
X14949535Y-32565000D01*
X14949535Y-33165000D01*
X14970767Y-33277841D01*
X15037456Y-33381478D01*
X15139212Y-33451005D01*
X15260000Y-33475465D01*
X17230000Y-33475465D01*
X17342841Y-33454233D01*
X17446478Y-33387544D01*
X17516005Y-33285788D01*
X17540465Y-33165000D01*
X17540465Y-32565000D01*
X17519233Y-32452159D01*
X17452544Y-32348522D01*
X17350788Y-32278995D01*
X17230000Y-32254535D01*
X15260000Y-32254535D01*
X15147159Y-32275767D01*
X15043522Y-32342456D01*
X14973995Y-32444212D01*
X14949535Y-32565000D01*
X14001500Y-32565000D01*
X14001500Y-31295000D01*
X14949535Y-31295000D01*
X14949535Y-31895000D01*
X14970767Y-32007841D01*
X15037456Y-32111478D01*
X15139212Y-32181005D01*
X15260000Y-32205465D01*
X17230000Y-32205465D01*
X17342841Y-32184233D01*
X17446478Y-32117544D01*
X17516005Y-32015788D01*
X17540465Y-31895000D01*
X17540465Y-31295000D01*
X17519233Y-31182159D01*
X17452544Y-31078522D01*
X17350788Y-31008995D01*
X17230000Y-30984535D01*
X15260000Y-30984535D01*
X15147159Y-31005767D01*
X15043522Y-31072456D01*
X14973995Y-31174212D01*
X14949535Y-31295000D01*
X14001500Y-31295000D01*
X14001500Y-27140000D01*
X14020500Y-27140000D01*
X14020500Y-28570000D01*
X14053194Y-28734363D01*
X14132934Y-28853702D01*
X14146298Y-28873702D01*
X15446298Y-30173703D01*
X15585638Y-30266807D01*
X15750000Y-30299500D01*
X18330500Y-30299500D01*
X18330500Y-31940000D01*
X18363194Y-32104363D01*
X18410727Y-32175500D01*
X18456298Y-32243702D01*
X19381298Y-33168703D01*
X19520638Y-33261807D01*
X19685000Y-33294500D01*
X19931487Y-33294500D01*
X19987456Y-33381478D01*
X20089212Y-33451005D01*
X20210000Y-33475465D01*
X20712712Y-33475465D01*
X20663556Y-33524535D01*
X20210000Y-33524535D01*
X20097159Y-33545767D01*
X19993522Y-33612456D01*
X19923995Y-33714212D01*
X19899535Y-33835000D01*
X19899535Y-34435000D01*
X19920767Y-34547841D01*
X19987456Y-34651478D01*
X20089212Y-34721005D01*
X20210000Y-34745465D01*
X20663418Y-34745465D01*
X20712403Y-34794535D01*
X20210000Y-34794535D01*
X20097159Y-34815767D01*
X19993522Y-34882456D01*
X19923995Y-34984212D01*
X19899535Y-35105000D01*
X19899535Y-35705000D01*
X19920767Y-35817841D01*
X19987456Y-35921478D01*
X20089212Y-35991005D01*
X20210000Y-36015465D01*
X22180000Y-36015465D01*
X22292841Y-35994233D01*
X22396478Y-35927544D01*
X22446495Y-35854341D01*
X22718674Y-35967360D01*
X23039917Y-35967640D01*
X23336815Y-35844964D01*
X23564166Y-35618009D01*
X23687360Y-35321326D01*
X23687640Y-35000083D01*
X23564964Y-34703185D01*
X23338009Y-34475834D01*
X23041326Y-34352640D01*
X22720083Y-34352360D01*
X22487761Y-34448354D01*
X22490465Y-34435000D01*
X22490465Y-33835000D01*
X22469233Y-33722159D01*
X22402544Y-33618522D01*
X22300788Y-33548995D01*
X22180000Y-33524535D01*
X21726582Y-33524535D01*
X21677597Y-33475465D01*
X22180000Y-33475465D01*
X22292841Y-33454233D01*
X22396478Y-33387544D01*
X22460052Y-33294500D01*
X24100640Y-33294500D01*
X23982640Y-33578674D01*
X23982360Y-33899917D01*
X24105036Y-34196815D01*
X24331991Y-34424166D01*
X24628674Y-34547360D01*
X24949917Y-34547640D01*
X25246815Y-34424964D01*
X25322411Y-34349500D01*
X25368329Y-34349500D01*
X25365834Y-34351991D01*
X25242640Y-34648674D01*
X25242360Y-34969917D01*
X25365036Y-35266815D01*
X25591991Y-35494166D01*
X25888674Y-35617360D01*
X26209917Y-35617640D01*
X26506815Y-35494964D01*
X26734166Y-35268009D01*
X26844068Y-35003336D01*
X26862582Y-34984822D01*
X26862360Y-35239917D01*
X26985036Y-35536815D01*
X27211991Y-35764166D01*
X27508674Y-35887360D01*
X27829917Y-35887640D01*
X28126815Y-35764964D01*
X28354166Y-35538009D01*
X28477360Y-35241326D01*
X28477640Y-34920083D01*
X28354964Y-34623185D01*
X28137457Y-34405299D01*
X28222841Y-34389233D01*
X28326478Y-34322544D01*
X28396005Y-34220788D01*
X28420465Y-34100000D01*
X28420465Y-33800000D01*
X28399233Y-33687159D01*
X28384846Y-33664802D01*
X28391005Y-33655788D01*
X28408586Y-33568968D01*
X28450254Y-33551709D01*
X28621709Y-33380254D01*
X28714500Y-33156237D01*
X28714500Y-33124875D01*
X28562125Y-32972500D01*
X28519463Y-32972500D01*
X28626709Y-32865254D01*
X28684931Y-32724694D01*
X28714500Y-32695125D01*
X28714500Y-32663763D01*
X28712335Y-32658536D01*
X28719500Y-32641237D01*
X28719500Y-32597375D01*
X28664021Y-32541896D01*
X28621709Y-32439746D01*
X28476963Y-32295000D01*
X28567125Y-32295000D01*
X28719500Y-32142625D01*
X28719500Y-32098763D01*
X28626709Y-31874746D01*
X28455254Y-31703291D01*
X28231237Y-31610500D01*
X28162375Y-31610500D01*
X28010000Y-31762875D01*
X28010000Y-32295000D01*
X28037875Y-32295000D01*
X28005000Y-32327875D01*
X28005000Y-32520000D01*
X27810000Y-32520000D01*
X27810000Y-32445000D01*
X27805000Y-32445000D01*
X27805000Y-32327875D01*
X27795465Y-32318340D01*
X27795465Y-32295000D01*
X27810000Y-32295000D01*
X27810000Y-31762875D01*
X27657625Y-31610500D01*
X27588763Y-31610500D01*
X27364746Y-31703291D01*
X27248502Y-31819535D01*
X27235000Y-31819535D01*
X27122159Y-31840767D01*
X27111295Y-31847758D01*
X27105788Y-31843995D01*
X26985000Y-31819535D01*
X26735000Y-31819535D01*
X26622159Y-31840767D01*
X26518522Y-31907456D01*
X26516238Y-31910798D01*
X26510000Y-31909535D01*
X26110000Y-31909535D01*
X25997159Y-31930767D01*
X25904332Y-31990500D01*
X24560000Y-31990500D01*
X24537917Y-31994893D01*
X24647360Y-31731326D01*
X24647640Y-31410083D01*
X24524964Y-31113185D01*
X24298009Y-30885834D01*
X24001326Y-30762640D01*
X23680083Y-30762360D01*
X23383185Y-30885036D01*
X23155834Y-31111991D01*
X23133615Y-31165500D01*
X22458513Y-31165500D01*
X22402544Y-31078522D01*
X22300788Y-31008995D01*
X22180000Y-30984535D01*
X21624500Y-30984535D01*
X21624500Y-28287461D01*
X21829917Y-28287640D01*
X22126815Y-28164964D01*
X22354166Y-27938009D01*
X22477360Y-27641326D01*
X22477640Y-27320083D01*
X22354964Y-27023185D01*
X22128009Y-26795834D01*
X22006565Y-26745406D01*
X22124166Y-26628009D01*
X22247360Y-26331326D01*
X22247361Y-26329917D01*
X25162360Y-26329917D01*
X25285036Y-26626815D01*
X25511991Y-26854166D01*
X25808674Y-26977360D01*
X26129917Y-26977640D01*
X26426815Y-26854964D01*
X26654166Y-26628009D01*
X26777360Y-26331326D01*
X26777640Y-26010083D01*
X26679799Y-25773290D01*
X26680465Y-25770000D01*
X26680465Y-25170000D01*
X26659233Y-25057159D01*
X26592544Y-24953522D01*
X26490788Y-24883995D01*
X26370000Y-24859535D01*
X25570000Y-24859535D01*
X25457159Y-24880767D01*
X25353522Y-24947456D01*
X25283995Y-25049212D01*
X25259535Y-25170000D01*
X25259535Y-25770000D01*
X25260225Y-25773665D01*
X25162640Y-26008674D01*
X25162360Y-26329917D01*
X22247361Y-26329917D01*
X22247640Y-26010083D01*
X22124964Y-25713185D01*
X21898009Y-25485834D01*
X21601326Y-25362640D01*
X21280083Y-25362360D01*
X20983185Y-25485036D01*
X20755834Y-25711991D01*
X20743996Y-25740500D01*
X20720000Y-25740500D01*
X20555638Y-25773193D01*
X20416298Y-25866297D01*
X19406298Y-26876298D01*
X19313194Y-27015637D01*
X19280500Y-27180000D01*
X19280500Y-28632096D01*
X18472096Y-29440500D01*
X15927905Y-29440500D01*
X14879500Y-28392096D01*
X14879500Y-28031426D01*
X15021991Y-28174166D01*
X15318674Y-28297360D01*
X15639917Y-28297640D01*
X15936815Y-28174964D01*
X15988982Y-28122888D01*
X16000750Y-28140501D01*
X16036298Y-28193702D01*
X16203974Y-28361378D01*
X16192640Y-28388674D01*
X16192360Y-28709917D01*
X16315036Y-29006815D01*
X16541991Y-29234166D01*
X16838674Y-29357360D01*
X17159917Y-29357640D01*
X17456815Y-29234964D01*
X17684166Y-29008009D01*
X17807360Y-28711326D01*
X17807640Y-28390083D01*
X17684964Y-28093185D01*
X17458009Y-27865834D01*
X17161326Y-27742640D01*
X16840083Y-27742360D01*
X16811553Y-27754149D01*
X16769500Y-27712096D01*
X16769500Y-27700465D01*
X17000000Y-27700465D01*
X17112841Y-27679233D01*
X17216478Y-27612544D01*
X17286005Y-27510788D01*
X17310465Y-27390000D01*
X17310465Y-27090465D01*
X17340000Y-27090465D01*
X17452841Y-27069233D01*
X17556478Y-27002544D01*
X17626005Y-26900788D01*
X17650465Y-26780000D01*
X17650465Y-26480000D01*
X17629983Y-26371144D01*
X17650465Y-26270000D01*
X17650465Y-25970000D01*
X17629233Y-25857159D01*
X17562544Y-25753522D01*
X17460788Y-25683995D01*
X17340000Y-25659535D01*
X17310465Y-25659535D01*
X17310465Y-25360000D01*
X17289233Y-25247159D01*
X17222544Y-25143522D01*
X17120788Y-25073995D01*
X17000000Y-25049535D01*
X16769500Y-25049535D01*
X16769500Y-25000625D01*
X16976815Y-24914964D01*
X17204166Y-24688009D01*
X17327360Y-24391326D01*
X17327640Y-24070083D01*
X17244933Y-23869917D01*
X24382360Y-23869917D01*
X24505036Y-24166815D01*
X24731991Y-24394166D01*
X25028674Y-24517360D01*
X25349917Y-24517640D01*
X25646815Y-24394964D01*
X25661339Y-24380465D01*
X26370000Y-24380465D01*
X26482841Y-24359233D01*
X26586478Y-24292544D01*
X26656005Y-24190788D01*
X26680465Y-24070000D01*
X26680465Y-23470000D01*
X26659233Y-23357159D01*
X26592544Y-23253522D01*
X26490788Y-23183995D01*
X26370000Y-23159535D01*
X25781477Y-23159535D01*
X25648009Y-23025834D01*
X25351326Y-22902640D01*
X25030083Y-22902360D01*
X24733185Y-23025036D01*
X24505834Y-23251991D01*
X24382640Y-23548674D01*
X24382360Y-23869917D01*
X17244933Y-23869917D01*
X17204964Y-23773185D01*
X16978009Y-23545834D01*
X16681326Y-23422640D01*
X16360083Y-23422360D01*
X16063185Y-23545036D01*
X15835834Y-23771991D01*
X15712640Y-24068674D01*
X15712360Y-24389917D01*
X15835036Y-24686815D01*
X15910500Y-24762411D01*
X15910500Y-24897375D01*
X15905000Y-24902875D01*
X15905000Y-25257741D01*
X15903995Y-25259212D01*
X15879535Y-25380000D01*
X15879535Y-25696804D01*
X15860788Y-25683995D01*
X15755000Y-25662573D01*
X15755000Y-25660000D01*
X15742296Y-25660000D01*
X15740000Y-25659535D01*
X15340000Y-25659535D01*
X15337529Y-25660000D01*
X15222875Y-25660000D01*
X15156892Y-25725983D01*
X15123522Y-25747456D01*
X15097857Y-25785018D01*
X15070500Y-25812375D01*
X15070500Y-25825056D01*
X15053995Y-25849212D01*
X15029535Y-25970000D01*
X15029535Y-26200500D01*
X14960000Y-26200500D01*
X14795637Y-26233194D01*
X14730513Y-26276709D01*
X14656298Y-26326298D01*
X14146298Y-26836298D01*
X14053194Y-26975637D01*
X14020500Y-27140000D01*
X14001500Y-27140000D01*
X14001500Y-25238763D01*
X15070500Y-25238763D01*
X15070500Y-25307625D01*
X15222875Y-25460000D01*
X15755000Y-25460000D01*
X15755000Y-24902875D01*
X15602625Y-24750500D01*
X15558763Y-24750500D01*
X15334746Y-24843291D01*
X15163291Y-25014746D01*
X15070500Y-25238763D01*
X14001500Y-25238763D01*
X14001500Y-14054500D01*
X18410958Y-14054500D01*
X20328229Y-15971771D01*
M02*
