G04 #@! TF.FileFunction,Copper,L1,Top,Signal*
%FSLAX46Y46*%
G04 Gerber Fmt 4.6, Leading zero omitted, Abs format (unit mm)*
G04 Created by KiCad (PCBNEW 4.0.7) date 01/17/18 14:56:10*
%MOMM*%
%LPD*%
G01*
G04 APERTURE LIST*
%ADD10C,0.152400*%
%ADD11C,0.100000*%
%ADD12R,0.800000X0.600000*%
%ADD13R,0.300000X0.400000*%
%ADD14R,0.400000X0.300000*%
%ADD15R,1.970000X0.600000*%
%ADD16R,0.400000X0.250000*%
%ADD17R,0.250000X0.400000*%
%ADD18C,1.000000*%
%ADD19C,0.250000*%
%ADD20C,0.203000*%
G04 APERTURE END LIST*
D10*
D11*
X37100000Y-36800000D02*
X37000000Y-36800000D01*
X37100000Y-13700000D02*
X37100000Y-36800000D01*
X36700000Y-13700000D02*
X37100000Y-13700000D01*
X35900000Y-13700000D02*
X36700000Y-13700000D01*
X13600000Y-13700000D02*
X35900000Y-13700000D01*
X13600000Y-36800000D02*
X13600000Y-13700000D01*
X37000000Y-36800000D02*
X13600000Y-36800000D01*
D12*
X25970000Y-25470000D03*
X25970000Y-23770000D03*
D13*
X15840000Y-27180000D03*
X16340000Y-27180000D03*
X16840000Y-27180000D03*
D14*
X17140000Y-26130000D03*
X17140000Y-26630000D03*
D13*
X16840000Y-25580000D03*
X16340000Y-25580000D03*
X15840000Y-25580000D03*
D14*
X15540000Y-26630000D03*
X15540000Y-26130000D03*
D15*
X21195000Y-35405000D03*
X21195000Y-34135000D03*
X21195000Y-32865000D03*
X21195000Y-31595000D03*
X16245000Y-31595000D03*
X16245000Y-32865000D03*
X16245000Y-34135000D03*
X16245000Y-35405000D03*
D14*
X26310000Y-32370000D03*
D16*
X26315000Y-32910000D03*
X26315000Y-33410000D03*
D14*
X26310000Y-33950000D03*
D17*
X26860000Y-33990000D03*
X27360000Y-33990000D03*
D14*
X27910000Y-33950000D03*
D16*
X27905000Y-33410000D03*
X27905000Y-32910000D03*
D14*
X27910000Y-32370000D03*
D17*
X27360000Y-32330000D03*
X26860000Y-32330000D03*
D18*
X27670000Y-35080000D03*
X25190000Y-23710000D03*
X21195000Y-34135000D03*
X16520000Y-24230000D03*
X15480000Y-27490000D03*
X26050000Y-34810000D03*
X22880000Y-35160000D03*
X25970000Y-26170000D03*
X24790000Y-33740000D03*
X23840000Y-31570000D03*
X21670000Y-27480000D03*
X17000000Y-28550000D03*
X21440000Y-26170000D03*
X22250000Y-24940000D03*
X18360000Y-24910000D03*
X17590000Y-35390000D03*
X28340000Y-31100000D03*
X31340000Y-31630000D03*
X29470000Y-33600000D03*
D19*
X27370000Y-33930000D02*
X27370000Y-34780000D01*
X27370000Y-34780000D02*
X27670000Y-35080000D01*
X27370000Y-33930000D02*
X27370000Y-33560000D01*
X27510000Y-33420000D02*
X27880000Y-33420000D01*
X27370000Y-33560000D02*
X27510000Y-33420000D01*
X25970000Y-23770000D02*
X25250000Y-23770000D01*
X25250000Y-23770000D02*
X25190000Y-23710000D01*
X16340000Y-25580000D02*
X16340000Y-24410000D01*
X16340000Y-24410000D02*
X16520000Y-24230000D01*
X15840000Y-27180000D02*
X15790000Y-27180000D01*
X15790000Y-27180000D02*
X15480000Y-27490000D01*
X16340000Y-25580000D02*
X16840000Y-25580000D01*
X26870000Y-33930000D02*
X26870000Y-34370000D01*
X26430000Y-34810000D02*
X26050000Y-34810000D01*
X26870000Y-34370000D02*
X26430000Y-34810000D01*
X21195000Y-35405000D02*
X22635000Y-35405000D01*
X22635000Y-35405000D02*
X22880000Y-35160000D01*
X25970000Y-25470000D02*
X25970000Y-26170000D01*
X21195000Y-31595000D02*
X23815000Y-31595000D01*
X24970000Y-33920000D02*
X26360000Y-33920000D01*
X24790000Y-33740000D02*
X24970000Y-33920000D01*
X23815000Y-31595000D02*
X23840000Y-31570000D01*
X21195000Y-31595000D02*
X21195000Y-27955000D01*
X21195000Y-27955000D02*
X21670000Y-27480000D01*
X17000000Y-28550000D02*
X16340000Y-27890000D01*
X16340000Y-27890000D02*
X16340000Y-27180000D01*
X21195000Y-32865000D02*
X24115000Y-32865000D01*
X24560000Y-32420000D02*
X26360000Y-32420000D01*
X24115000Y-32865000D02*
X24560000Y-32420000D01*
X21195000Y-32865000D02*
X19685000Y-32865000D01*
X18760000Y-31940000D02*
X18760000Y-29760000D01*
X19685000Y-32865000D02*
X18760000Y-31940000D01*
X15540000Y-26630000D02*
X14960000Y-26630000D01*
X20720000Y-26170000D02*
X21440000Y-26170000D01*
X19710000Y-27180000D02*
X20720000Y-26170000D01*
X19710000Y-28810000D02*
X19710000Y-27180000D01*
X18650000Y-29870000D02*
X18760000Y-29760000D01*
X18760000Y-29760000D02*
X19710000Y-28810000D01*
X15750000Y-29870000D02*
X18650000Y-29870000D01*
X14450000Y-28570000D02*
X15750000Y-29870000D01*
X14450000Y-27140000D02*
X14450000Y-28570000D01*
X14960000Y-26630000D02*
X14450000Y-27140000D01*
X28440000Y-33680000D02*
X28440000Y-33040000D01*
X28495000Y-33625000D02*
X28440000Y-33680000D01*
X28495000Y-33095000D02*
X28495000Y-33625000D01*
X28195000Y-32795000D02*
X28195000Y-32910000D01*
X28440000Y-33040000D02*
X28195000Y-32795000D01*
X27870000Y-32910000D02*
X28195000Y-32910000D01*
X28610000Y-33210000D02*
X28630000Y-33210000D01*
X28495000Y-33095000D02*
X28610000Y-33210000D01*
X27870000Y-32410000D02*
X27870000Y-32130000D01*
X27870000Y-32130000D02*
X28230000Y-31770000D01*
X27870000Y-32410000D02*
X27870000Y-32320000D01*
X27870000Y-32320000D02*
X28390000Y-31800000D01*
X27870000Y-32910000D02*
X27870000Y-32550000D01*
X27870000Y-32550000D02*
X28520000Y-31900000D01*
X27870000Y-32910000D02*
X27870000Y-32790000D01*
X27870000Y-32790000D02*
X28570000Y-32090000D01*
X27870000Y-32910000D02*
X28080000Y-32910000D01*
X28080000Y-32910000D02*
X28610000Y-32380000D01*
X27870000Y-32910000D02*
X28250000Y-32910000D01*
X28250000Y-32910000D02*
X28610000Y-32550000D01*
X27870000Y-32910000D02*
X28480000Y-32910000D01*
X28480000Y-32910000D02*
X28520000Y-32870000D01*
X26350000Y-33410000D02*
X26350000Y-32910000D01*
X26350000Y-32910000D02*
X27870000Y-32910000D01*
X27870000Y-32910000D02*
X27870000Y-32410000D01*
X17575000Y-35405000D02*
X16245000Y-35405000D01*
X17590000Y-35390000D02*
X17575000Y-35405000D01*
D20*
G36*
X20328229Y-15971771D02*
X20361806Y-15994040D01*
X20400000Y-16001500D01*
X21857958Y-16001500D01*
X24328229Y-18471771D01*
X24361806Y-18494040D01*
X24400000Y-18501500D01*
X25857958Y-18501500D01*
X31798500Y-24442042D01*
X31798500Y-25900000D01*
X31806497Y-25939489D01*
X31828229Y-25971771D01*
X34798500Y-28942042D01*
X34798500Y-30900000D01*
X34806497Y-30939489D01*
X34828229Y-30971771D01*
X36298500Y-32442042D01*
X36298500Y-36298500D01*
X17389864Y-36298500D01*
X17575254Y-36221709D01*
X17746709Y-36050254D01*
X17839500Y-35826237D01*
X17839500Y-35707375D01*
X17687125Y-35555000D01*
X16397500Y-35555000D01*
X16397500Y-35577500D01*
X16092500Y-35577500D01*
X16092500Y-35555000D01*
X14802875Y-35555000D01*
X14650500Y-35707375D01*
X14650500Y-35826237D01*
X14743291Y-36050254D01*
X14914746Y-36221709D01*
X15100136Y-36298500D01*
X14001500Y-36298500D01*
X14001500Y-34983763D01*
X14650500Y-34983763D01*
X14650500Y-35102625D01*
X14802875Y-35255000D01*
X16092500Y-35255000D01*
X16092500Y-35232500D01*
X16397500Y-35232500D01*
X16397500Y-35255000D01*
X17687125Y-35255000D01*
X17839500Y-35102625D01*
X17839500Y-34983763D01*
X17746709Y-34759746D01*
X17575254Y-34588291D01*
X17511765Y-34561993D01*
X17516005Y-34555788D01*
X17540465Y-34435000D01*
X17540465Y-33835000D01*
X17519233Y-33722159D01*
X17452544Y-33618522D01*
X17350788Y-33548995D01*
X17230000Y-33524535D01*
X15260000Y-33524535D01*
X15147159Y-33545767D01*
X15043522Y-33612456D01*
X14973995Y-33714212D01*
X14949535Y-33835000D01*
X14949535Y-34435000D01*
X14970767Y-34547841D01*
X14979529Y-34561457D01*
X14914746Y-34588291D01*
X14743291Y-34759746D01*
X14650500Y-34983763D01*
X14001500Y-34983763D01*
X14001500Y-32565000D01*
X14949535Y-32565000D01*
X14949535Y-33165000D01*
X14970767Y-33277841D01*
X15037456Y-33381478D01*
X15139212Y-33451005D01*
X15260000Y-33475465D01*
X17230000Y-33475465D01*
X17342841Y-33454233D01*
X17446478Y-33387544D01*
X17516005Y-33285788D01*
X17540465Y-33165000D01*
X17540465Y-32565000D01*
X17519233Y-32452159D01*
X17452544Y-32348522D01*
X17350788Y-32278995D01*
X17230000Y-32254535D01*
X15260000Y-32254535D01*
X15147159Y-32275767D01*
X15043522Y-32342456D01*
X14973995Y-32444212D01*
X14949535Y-32565000D01*
X14001500Y-32565000D01*
X14001500Y-31295000D01*
X14949535Y-31295000D01*
X14949535Y-31895000D01*
X14970767Y-32007841D01*
X15037456Y-32111478D01*
X15139212Y-32181005D01*
X15260000Y-32205465D01*
X17230000Y-32205465D01*
X17342841Y-32184233D01*
X17446478Y-32117544D01*
X17516005Y-32015788D01*
X17540465Y-31895000D01*
X17540465Y-31295000D01*
X17519233Y-31182159D01*
X17452544Y-31078522D01*
X17350788Y-31008995D01*
X17230000Y-30984535D01*
X15260000Y-30984535D01*
X15147159Y-31005767D01*
X15043522Y-31072456D01*
X14973995Y-31174212D01*
X14949535Y-31295000D01*
X14001500Y-31295000D01*
X14001500Y-27140000D01*
X14020500Y-27140000D01*
X14020500Y-28570000D01*
X14053194Y-28734363D01*
X14132934Y-28853702D01*
X14146298Y-28873702D01*
X15446298Y-30173703D01*
X15585638Y-30266807D01*
X15750000Y-30299500D01*
X18330500Y-30299500D01*
X18330500Y-31940000D01*
X18363194Y-32104363D01*
X18410727Y-32175500D01*
X18456298Y-32243702D01*
X19381298Y-33168703D01*
X19520638Y-33261807D01*
X19685000Y-33294500D01*
X19931487Y-33294500D01*
X19987456Y-33381478D01*
X20089212Y-33451005D01*
X20210000Y-33475465D01*
X20716958Y-33475465D01*
X20667802Y-33524535D01*
X20210000Y-33524535D01*
X20097159Y-33545767D01*
X19993522Y-33612456D01*
X19923995Y-33714212D01*
X19899535Y-33835000D01*
X19899535Y-34435000D01*
X19920767Y-34547841D01*
X19987456Y-34651478D01*
X20089212Y-34721005D01*
X20210000Y-34745465D01*
X20667657Y-34745465D01*
X20716642Y-34794535D01*
X20210000Y-34794535D01*
X20097159Y-34815767D01*
X19993522Y-34882456D01*
X19923995Y-34984212D01*
X19899535Y-35105000D01*
X19899535Y-35705000D01*
X19920767Y-35817841D01*
X19987456Y-35921478D01*
X20089212Y-35991005D01*
X20210000Y-36015465D01*
X22180000Y-36015465D01*
X22292841Y-35994233D01*
X22396478Y-35927544D01*
X22448224Y-35851811D01*
X22719273Y-35964360D01*
X23039323Y-35964639D01*
X23335117Y-35842420D01*
X23561624Y-35616308D01*
X23684360Y-35320727D01*
X23684639Y-35000677D01*
X23562420Y-34704883D01*
X23336308Y-34478376D01*
X23040727Y-34355640D01*
X22720677Y-34355361D01*
X22487044Y-34451896D01*
X22490465Y-34435000D01*
X22490465Y-33835000D01*
X22469233Y-33722159D01*
X22402544Y-33618522D01*
X22300788Y-33548995D01*
X22180000Y-33524535D01*
X21722343Y-33524535D01*
X21673358Y-33475465D01*
X22180000Y-33475465D01*
X22292841Y-33454233D01*
X22396478Y-33387544D01*
X22460052Y-33294500D01*
X24103888Y-33294500D01*
X23985640Y-33579273D01*
X23985361Y-33899323D01*
X24107580Y-34195117D01*
X24333692Y-34421624D01*
X24629273Y-34544360D01*
X24949323Y-34544639D01*
X25245117Y-34422420D01*
X25318164Y-34349500D01*
X25372575Y-34349500D01*
X25368376Y-34353692D01*
X25245640Y-34649273D01*
X25245361Y-34969323D01*
X25367580Y-35265117D01*
X25593692Y-35491624D01*
X25889273Y-35614360D01*
X26209323Y-35614639D01*
X26505117Y-35492420D01*
X26731624Y-35266308D01*
X26838513Y-35008891D01*
X26865585Y-34981819D01*
X26865361Y-35239323D01*
X26987580Y-35535117D01*
X27213692Y-35761624D01*
X27509273Y-35884360D01*
X27829323Y-35884639D01*
X28125117Y-35762420D01*
X28351624Y-35536308D01*
X28474360Y-35240727D01*
X28474639Y-34920677D01*
X28352420Y-34624883D01*
X28133889Y-34405970D01*
X28222841Y-34389233D01*
X28326478Y-34322544D01*
X28396005Y-34220788D01*
X28420465Y-34100000D01*
X28420465Y-33800000D01*
X28399233Y-33687159D01*
X28384846Y-33664802D01*
X28391005Y-33655788D01*
X28408586Y-33568968D01*
X28450254Y-33551709D01*
X28621709Y-33380254D01*
X28714500Y-33156237D01*
X28714500Y-33124875D01*
X28562125Y-32972500D01*
X28519463Y-32972500D01*
X28626709Y-32865254D01*
X28684931Y-32724694D01*
X28714500Y-32695125D01*
X28714500Y-32663763D01*
X28712335Y-32658536D01*
X28719500Y-32641237D01*
X28719500Y-32597375D01*
X28664021Y-32541896D01*
X28621709Y-32439746D01*
X28476963Y-32295000D01*
X28567125Y-32295000D01*
X28719500Y-32142625D01*
X28719500Y-32098763D01*
X28626709Y-31874746D01*
X28455254Y-31703291D01*
X28231237Y-31610500D01*
X28162375Y-31610500D01*
X28010000Y-31762875D01*
X28010000Y-32295000D01*
X28037875Y-32295000D01*
X28005000Y-32327875D01*
X28005000Y-32520000D01*
X27810000Y-32520000D01*
X27810000Y-32445000D01*
X27805000Y-32445000D01*
X27805000Y-32327875D01*
X27795465Y-32318340D01*
X27795465Y-32295000D01*
X27810000Y-32295000D01*
X27810000Y-31762875D01*
X27657625Y-31610500D01*
X27588763Y-31610500D01*
X27364746Y-31703291D01*
X27248502Y-31819535D01*
X27235000Y-31819535D01*
X27122159Y-31840767D01*
X27111295Y-31847758D01*
X27105788Y-31843995D01*
X26985000Y-31819535D01*
X26735000Y-31819535D01*
X26622159Y-31840767D01*
X26518522Y-31907456D01*
X26516238Y-31910798D01*
X26510000Y-31909535D01*
X26110000Y-31909535D01*
X25997159Y-31930767D01*
X25904332Y-31990500D01*
X24560000Y-31990500D01*
X24534376Y-31995597D01*
X24644360Y-31730727D01*
X24644639Y-31410677D01*
X24522420Y-31114883D01*
X24296308Y-30888376D01*
X24000727Y-30765640D01*
X23680677Y-30765361D01*
X23384883Y-30887580D01*
X23158376Y-31113692D01*
X23136863Y-31165500D01*
X22458513Y-31165500D01*
X22402544Y-31078522D01*
X22300788Y-31008995D01*
X22180000Y-30984535D01*
X21624500Y-30984535D01*
X21624500Y-28284460D01*
X21829323Y-28284639D01*
X22125117Y-28162420D01*
X22351624Y-27936308D01*
X22474360Y-27640727D01*
X22474639Y-27320677D01*
X22352420Y-27024883D01*
X22126308Y-26798376D01*
X22001267Y-26746455D01*
X22121624Y-26626308D01*
X22244360Y-26330727D01*
X22244361Y-26329323D01*
X25165361Y-26329323D01*
X25287580Y-26625117D01*
X25513692Y-26851624D01*
X25809273Y-26974360D01*
X26129323Y-26974639D01*
X26425117Y-26852420D01*
X26651624Y-26626308D01*
X26774360Y-26330727D01*
X26774639Y-26010677D01*
X26678731Y-25778561D01*
X26680465Y-25770000D01*
X26680465Y-25170000D01*
X26659233Y-25057159D01*
X26592544Y-24953522D01*
X26490788Y-24883995D01*
X26370000Y-24859535D01*
X25570000Y-24859535D01*
X25457159Y-24880767D01*
X25353522Y-24947456D01*
X25283995Y-25049212D01*
X25259535Y-25170000D01*
X25259535Y-25770000D01*
X25261238Y-25779049D01*
X25165640Y-26009273D01*
X25165361Y-26329323D01*
X22244361Y-26329323D01*
X22244639Y-26010677D01*
X22122420Y-25714883D01*
X21896308Y-25488376D01*
X21600727Y-25365640D01*
X21280677Y-25365361D01*
X20984883Y-25487580D01*
X20758376Y-25713692D01*
X20747244Y-25740500D01*
X20720000Y-25740500D01*
X20555638Y-25773193D01*
X20416298Y-25866297D01*
X19406298Y-26876298D01*
X19313194Y-27015637D01*
X19280500Y-27180000D01*
X19280500Y-28632096D01*
X18472096Y-29440500D01*
X15927905Y-29440500D01*
X14879500Y-28392096D01*
X14879500Y-28027180D01*
X15023692Y-28171624D01*
X15319273Y-28294360D01*
X15639323Y-28294639D01*
X15935117Y-28172420D01*
X15987282Y-28120346D01*
X16000750Y-28140501D01*
X16036298Y-28193702D01*
X16206270Y-28363674D01*
X16195640Y-28389273D01*
X16195361Y-28709323D01*
X16317580Y-29005117D01*
X16543692Y-29231624D01*
X16839273Y-29354360D01*
X17159323Y-29354639D01*
X17455117Y-29232420D01*
X17681624Y-29006308D01*
X17804360Y-28710727D01*
X17804639Y-28390677D01*
X17682420Y-28094883D01*
X17456308Y-27868376D01*
X17160727Y-27745640D01*
X16840677Y-27745361D01*
X16813850Y-27756446D01*
X16769500Y-27712096D01*
X16769500Y-27690465D01*
X16990000Y-27690465D01*
X17102841Y-27669233D01*
X17206478Y-27602544D01*
X17276005Y-27500788D01*
X17300465Y-27380000D01*
X17300465Y-27090465D01*
X17340000Y-27090465D01*
X17452841Y-27069233D01*
X17556478Y-27002544D01*
X17626005Y-26900788D01*
X17650465Y-26780000D01*
X17650465Y-26480000D01*
X17630958Y-26376328D01*
X17650465Y-26280000D01*
X17650465Y-25980000D01*
X17629233Y-25867159D01*
X17562544Y-25763522D01*
X17460788Y-25693995D01*
X17340000Y-25669535D01*
X17300465Y-25669535D01*
X17300465Y-25380000D01*
X17279233Y-25267159D01*
X17212544Y-25163522D01*
X17110788Y-25093995D01*
X16990000Y-25069535D01*
X16769500Y-25069535D01*
X16769500Y-24997379D01*
X16975117Y-24912420D01*
X17201624Y-24686308D01*
X17324360Y-24390727D01*
X17324639Y-24070677D01*
X17241442Y-23869323D01*
X24385361Y-23869323D01*
X24507580Y-24165117D01*
X24733692Y-24391624D01*
X25029273Y-24514360D01*
X25349323Y-24514639D01*
X25645117Y-24392420D01*
X25657093Y-24380465D01*
X26370000Y-24380465D01*
X26482841Y-24359233D01*
X26586478Y-24292544D01*
X26656005Y-24190788D01*
X26680465Y-24070000D01*
X26680465Y-23470000D01*
X26659233Y-23357159D01*
X26592544Y-23253522D01*
X26490788Y-23183995D01*
X26370000Y-23159535D01*
X25777238Y-23159535D01*
X25646308Y-23028376D01*
X25350727Y-22905640D01*
X25030677Y-22905361D01*
X24734883Y-23027580D01*
X24508376Y-23253692D01*
X24385640Y-23549273D01*
X24385361Y-23869323D01*
X17241442Y-23869323D01*
X17202420Y-23774883D01*
X16976308Y-23548376D01*
X16680727Y-23425640D01*
X16360677Y-23425361D01*
X16064883Y-23547580D01*
X15838376Y-23773692D01*
X15715640Y-24069273D01*
X15715361Y-24389323D01*
X15837580Y-24685117D01*
X15910500Y-24758164D01*
X15910500Y-25249692D01*
X15903995Y-25259212D01*
X15879535Y-25380000D01*
X15879535Y-25706804D01*
X15860788Y-25693995D01*
X15740000Y-25669535D01*
X15340000Y-25669535D01*
X15284382Y-25680000D01*
X15232875Y-25680000D01*
X15212991Y-25699884D01*
X15123522Y-25757456D01*
X15053995Y-25859212D01*
X15029535Y-25980000D01*
X15029535Y-26200500D01*
X14960000Y-26200500D01*
X14795637Y-26233194D01*
X14700581Y-26296709D01*
X14656298Y-26326298D01*
X14146298Y-26836298D01*
X14053194Y-26975637D01*
X14020500Y-27140000D01*
X14001500Y-27140000D01*
X14001500Y-25258763D01*
X15080500Y-25258763D01*
X15080500Y-25327625D01*
X15232875Y-25480000D01*
X15765000Y-25480000D01*
X15765000Y-24922875D01*
X15612625Y-24770500D01*
X15568763Y-24770500D01*
X15344746Y-24863291D01*
X15173291Y-25034746D01*
X15080500Y-25258763D01*
X14001500Y-25258763D01*
X14001500Y-14001500D01*
X18357958Y-14001500D01*
X20328229Y-15971771D01*
X20328229Y-15971771D01*
G37*
X20328229Y-15971771D02*
X20361806Y-15994040D01*
X20400000Y-16001500D01*
X21857958Y-16001500D01*
X24328229Y-18471771D01*
X24361806Y-18494040D01*
X24400000Y-18501500D01*
X25857958Y-18501500D01*
X31798500Y-24442042D01*
X31798500Y-25900000D01*
X31806497Y-25939489D01*
X31828229Y-25971771D01*
X34798500Y-28942042D01*
X34798500Y-30900000D01*
X34806497Y-30939489D01*
X34828229Y-30971771D01*
X36298500Y-32442042D01*
X36298500Y-36298500D01*
X17389864Y-36298500D01*
X17575254Y-36221709D01*
X17746709Y-36050254D01*
X17839500Y-35826237D01*
X17839500Y-35707375D01*
X17687125Y-35555000D01*
X16397500Y-35555000D01*
X16397500Y-35577500D01*
X16092500Y-35577500D01*
X16092500Y-35555000D01*
X14802875Y-35555000D01*
X14650500Y-35707375D01*
X14650500Y-35826237D01*
X14743291Y-36050254D01*
X14914746Y-36221709D01*
X15100136Y-36298500D01*
X14001500Y-36298500D01*
X14001500Y-34983763D01*
X14650500Y-34983763D01*
X14650500Y-35102625D01*
X14802875Y-35255000D01*
X16092500Y-35255000D01*
X16092500Y-35232500D01*
X16397500Y-35232500D01*
X16397500Y-35255000D01*
X17687125Y-35255000D01*
X17839500Y-35102625D01*
X17839500Y-34983763D01*
X17746709Y-34759746D01*
X17575254Y-34588291D01*
X17511765Y-34561993D01*
X17516005Y-34555788D01*
X17540465Y-34435000D01*
X17540465Y-33835000D01*
X17519233Y-33722159D01*
X17452544Y-33618522D01*
X17350788Y-33548995D01*
X17230000Y-33524535D01*
X15260000Y-33524535D01*
X15147159Y-33545767D01*
X15043522Y-33612456D01*
X14973995Y-33714212D01*
X14949535Y-33835000D01*
X14949535Y-34435000D01*
X14970767Y-34547841D01*
X14979529Y-34561457D01*
X14914746Y-34588291D01*
X14743291Y-34759746D01*
X14650500Y-34983763D01*
X14001500Y-34983763D01*
X14001500Y-32565000D01*
X14949535Y-32565000D01*
X14949535Y-33165000D01*
X14970767Y-33277841D01*
X15037456Y-33381478D01*
X15139212Y-33451005D01*
X15260000Y-33475465D01*
X17230000Y-33475465D01*
X17342841Y-33454233D01*
X17446478Y-33387544D01*
X17516005Y-33285788D01*
X17540465Y-33165000D01*
X17540465Y-32565000D01*
X17519233Y-32452159D01*
X17452544Y-32348522D01*
X17350788Y-32278995D01*
X17230000Y-32254535D01*
X15260000Y-32254535D01*
X15147159Y-32275767D01*
X15043522Y-32342456D01*
X14973995Y-32444212D01*
X14949535Y-32565000D01*
X14001500Y-32565000D01*
X14001500Y-31295000D01*
X14949535Y-31295000D01*
X14949535Y-31895000D01*
X14970767Y-32007841D01*
X15037456Y-32111478D01*
X15139212Y-32181005D01*
X15260000Y-32205465D01*
X17230000Y-32205465D01*
X17342841Y-32184233D01*
X17446478Y-32117544D01*
X17516005Y-32015788D01*
X17540465Y-31895000D01*
X17540465Y-31295000D01*
X17519233Y-31182159D01*
X17452544Y-31078522D01*
X17350788Y-31008995D01*
X17230000Y-30984535D01*
X15260000Y-30984535D01*
X15147159Y-31005767D01*
X15043522Y-31072456D01*
X14973995Y-31174212D01*
X14949535Y-31295000D01*
X14001500Y-31295000D01*
X14001500Y-27140000D01*
X14020500Y-27140000D01*
X14020500Y-28570000D01*
X14053194Y-28734363D01*
X14132934Y-28853702D01*
X14146298Y-28873702D01*
X15446298Y-30173703D01*
X15585638Y-30266807D01*
X15750000Y-30299500D01*
X18330500Y-30299500D01*
X18330500Y-31940000D01*
X18363194Y-32104363D01*
X18410727Y-32175500D01*
X18456298Y-32243702D01*
X19381298Y-33168703D01*
X19520638Y-33261807D01*
X19685000Y-33294500D01*
X19931487Y-33294500D01*
X19987456Y-33381478D01*
X20089212Y-33451005D01*
X20210000Y-33475465D01*
X20716958Y-33475465D01*
X20667802Y-33524535D01*
X20210000Y-33524535D01*
X20097159Y-33545767D01*
X19993522Y-33612456D01*
X19923995Y-33714212D01*
X19899535Y-33835000D01*
X19899535Y-34435000D01*
X19920767Y-34547841D01*
X19987456Y-34651478D01*
X20089212Y-34721005D01*
X20210000Y-34745465D01*
X20667657Y-34745465D01*
X20716642Y-34794535D01*
X20210000Y-34794535D01*
X20097159Y-34815767D01*
X19993522Y-34882456D01*
X19923995Y-34984212D01*
X19899535Y-35105000D01*
X19899535Y-35705000D01*
X19920767Y-35817841D01*
X19987456Y-35921478D01*
X20089212Y-35991005D01*
X20210000Y-36015465D01*
X22180000Y-36015465D01*
X22292841Y-35994233D01*
X22396478Y-35927544D01*
X22448224Y-35851811D01*
X22719273Y-35964360D01*
X23039323Y-35964639D01*
X23335117Y-35842420D01*
X23561624Y-35616308D01*
X23684360Y-35320727D01*
X23684639Y-35000677D01*
X23562420Y-34704883D01*
X23336308Y-34478376D01*
X23040727Y-34355640D01*
X22720677Y-34355361D01*
X22487044Y-34451896D01*
X22490465Y-34435000D01*
X22490465Y-33835000D01*
X22469233Y-33722159D01*
X22402544Y-33618522D01*
X22300788Y-33548995D01*
X22180000Y-33524535D01*
X21722343Y-33524535D01*
X21673358Y-33475465D01*
X22180000Y-33475465D01*
X22292841Y-33454233D01*
X22396478Y-33387544D01*
X22460052Y-33294500D01*
X24103888Y-33294500D01*
X23985640Y-33579273D01*
X23985361Y-33899323D01*
X24107580Y-34195117D01*
X24333692Y-34421624D01*
X24629273Y-34544360D01*
X24949323Y-34544639D01*
X25245117Y-34422420D01*
X25318164Y-34349500D01*
X25372575Y-34349500D01*
X25368376Y-34353692D01*
X25245640Y-34649273D01*
X25245361Y-34969323D01*
X25367580Y-35265117D01*
X25593692Y-35491624D01*
X25889273Y-35614360D01*
X26209323Y-35614639D01*
X26505117Y-35492420D01*
X26731624Y-35266308D01*
X26838513Y-35008891D01*
X26865585Y-34981819D01*
X26865361Y-35239323D01*
X26987580Y-35535117D01*
X27213692Y-35761624D01*
X27509273Y-35884360D01*
X27829323Y-35884639D01*
X28125117Y-35762420D01*
X28351624Y-35536308D01*
X28474360Y-35240727D01*
X28474639Y-34920677D01*
X28352420Y-34624883D01*
X28133889Y-34405970D01*
X28222841Y-34389233D01*
X28326478Y-34322544D01*
X28396005Y-34220788D01*
X28420465Y-34100000D01*
X28420465Y-33800000D01*
X28399233Y-33687159D01*
X28384846Y-33664802D01*
X28391005Y-33655788D01*
X28408586Y-33568968D01*
X28450254Y-33551709D01*
X28621709Y-33380254D01*
X28714500Y-33156237D01*
X28714500Y-33124875D01*
X28562125Y-32972500D01*
X28519463Y-32972500D01*
X28626709Y-32865254D01*
X28684931Y-32724694D01*
X28714500Y-32695125D01*
X28714500Y-32663763D01*
X28712335Y-32658536D01*
X28719500Y-32641237D01*
X28719500Y-32597375D01*
X28664021Y-32541896D01*
X28621709Y-32439746D01*
X28476963Y-32295000D01*
X28567125Y-32295000D01*
X28719500Y-32142625D01*
X28719500Y-32098763D01*
X28626709Y-31874746D01*
X28455254Y-31703291D01*
X28231237Y-31610500D01*
X28162375Y-31610500D01*
X28010000Y-31762875D01*
X28010000Y-32295000D01*
X28037875Y-32295000D01*
X28005000Y-32327875D01*
X28005000Y-32520000D01*
X27810000Y-32520000D01*
X27810000Y-32445000D01*
X27805000Y-32445000D01*
X27805000Y-32327875D01*
X27795465Y-32318340D01*
X27795465Y-32295000D01*
X27810000Y-32295000D01*
X27810000Y-31762875D01*
X27657625Y-31610500D01*
X27588763Y-31610500D01*
X27364746Y-31703291D01*
X27248502Y-31819535D01*
X27235000Y-31819535D01*
X27122159Y-31840767D01*
X27111295Y-31847758D01*
X27105788Y-31843995D01*
X26985000Y-31819535D01*
X26735000Y-31819535D01*
X26622159Y-31840767D01*
X26518522Y-31907456D01*
X26516238Y-31910798D01*
X26510000Y-31909535D01*
X26110000Y-31909535D01*
X25997159Y-31930767D01*
X25904332Y-31990500D01*
X24560000Y-31990500D01*
X24534376Y-31995597D01*
X24644360Y-31730727D01*
X24644639Y-31410677D01*
X24522420Y-31114883D01*
X24296308Y-30888376D01*
X24000727Y-30765640D01*
X23680677Y-30765361D01*
X23384883Y-30887580D01*
X23158376Y-31113692D01*
X23136863Y-31165500D01*
X22458513Y-31165500D01*
X22402544Y-31078522D01*
X22300788Y-31008995D01*
X22180000Y-30984535D01*
X21624500Y-30984535D01*
X21624500Y-28284460D01*
X21829323Y-28284639D01*
X22125117Y-28162420D01*
X22351624Y-27936308D01*
X22474360Y-27640727D01*
X22474639Y-27320677D01*
X22352420Y-27024883D01*
X22126308Y-26798376D01*
X22001267Y-26746455D01*
X22121624Y-26626308D01*
X22244360Y-26330727D01*
X22244361Y-26329323D01*
X25165361Y-26329323D01*
X25287580Y-26625117D01*
X25513692Y-26851624D01*
X25809273Y-26974360D01*
X26129323Y-26974639D01*
X26425117Y-26852420D01*
X26651624Y-26626308D01*
X26774360Y-26330727D01*
X26774639Y-26010677D01*
X26678731Y-25778561D01*
X26680465Y-25770000D01*
X26680465Y-25170000D01*
X26659233Y-25057159D01*
X26592544Y-24953522D01*
X26490788Y-24883995D01*
X26370000Y-24859535D01*
X25570000Y-24859535D01*
X25457159Y-24880767D01*
X25353522Y-24947456D01*
X25283995Y-25049212D01*
X25259535Y-25170000D01*
X25259535Y-25770000D01*
X25261238Y-25779049D01*
X25165640Y-26009273D01*
X25165361Y-26329323D01*
X22244361Y-26329323D01*
X22244639Y-26010677D01*
X22122420Y-25714883D01*
X21896308Y-25488376D01*
X21600727Y-25365640D01*
X21280677Y-25365361D01*
X20984883Y-25487580D01*
X20758376Y-25713692D01*
X20747244Y-25740500D01*
X20720000Y-25740500D01*
X20555638Y-25773193D01*
X20416298Y-25866297D01*
X19406298Y-26876298D01*
X19313194Y-27015637D01*
X19280500Y-27180000D01*
X19280500Y-28632096D01*
X18472096Y-29440500D01*
X15927905Y-29440500D01*
X14879500Y-28392096D01*
X14879500Y-28027180D01*
X15023692Y-28171624D01*
X15319273Y-28294360D01*
X15639323Y-28294639D01*
X15935117Y-28172420D01*
X15987282Y-28120346D01*
X16000750Y-28140501D01*
X16036298Y-28193702D01*
X16206270Y-28363674D01*
X16195640Y-28389273D01*
X16195361Y-28709323D01*
X16317580Y-29005117D01*
X16543692Y-29231624D01*
X16839273Y-29354360D01*
X17159323Y-29354639D01*
X17455117Y-29232420D01*
X17681624Y-29006308D01*
X17804360Y-28710727D01*
X17804639Y-28390677D01*
X17682420Y-28094883D01*
X17456308Y-27868376D01*
X17160727Y-27745640D01*
X16840677Y-27745361D01*
X16813850Y-27756446D01*
X16769500Y-27712096D01*
X16769500Y-27690465D01*
X16990000Y-27690465D01*
X17102841Y-27669233D01*
X17206478Y-27602544D01*
X17276005Y-27500788D01*
X17300465Y-27380000D01*
X17300465Y-27090465D01*
X17340000Y-27090465D01*
X17452841Y-27069233D01*
X17556478Y-27002544D01*
X17626005Y-26900788D01*
X17650465Y-26780000D01*
X17650465Y-26480000D01*
X17630958Y-26376328D01*
X17650465Y-26280000D01*
X17650465Y-25980000D01*
X17629233Y-25867159D01*
X17562544Y-25763522D01*
X17460788Y-25693995D01*
X17340000Y-25669535D01*
X17300465Y-25669535D01*
X17300465Y-25380000D01*
X17279233Y-25267159D01*
X17212544Y-25163522D01*
X17110788Y-25093995D01*
X16990000Y-25069535D01*
X16769500Y-25069535D01*
X16769500Y-24997379D01*
X16975117Y-24912420D01*
X17201624Y-24686308D01*
X17324360Y-24390727D01*
X17324639Y-24070677D01*
X17241442Y-23869323D01*
X24385361Y-23869323D01*
X24507580Y-24165117D01*
X24733692Y-24391624D01*
X25029273Y-24514360D01*
X25349323Y-24514639D01*
X25645117Y-24392420D01*
X25657093Y-24380465D01*
X26370000Y-24380465D01*
X26482841Y-24359233D01*
X26586478Y-24292544D01*
X26656005Y-24190788D01*
X26680465Y-24070000D01*
X26680465Y-23470000D01*
X26659233Y-23357159D01*
X26592544Y-23253522D01*
X26490788Y-23183995D01*
X26370000Y-23159535D01*
X25777238Y-23159535D01*
X25646308Y-23028376D01*
X25350727Y-22905640D01*
X25030677Y-22905361D01*
X24734883Y-23027580D01*
X24508376Y-23253692D01*
X24385640Y-23549273D01*
X24385361Y-23869323D01*
X17241442Y-23869323D01*
X17202420Y-23774883D01*
X16976308Y-23548376D01*
X16680727Y-23425640D01*
X16360677Y-23425361D01*
X16064883Y-23547580D01*
X15838376Y-23773692D01*
X15715640Y-24069273D01*
X15715361Y-24389323D01*
X15837580Y-24685117D01*
X15910500Y-24758164D01*
X15910500Y-25249692D01*
X15903995Y-25259212D01*
X15879535Y-25380000D01*
X15879535Y-25706804D01*
X15860788Y-25693995D01*
X15740000Y-25669535D01*
X15340000Y-25669535D01*
X15284382Y-25680000D01*
X15232875Y-25680000D01*
X15212991Y-25699884D01*
X15123522Y-25757456D01*
X15053995Y-25859212D01*
X15029535Y-25980000D01*
X15029535Y-26200500D01*
X14960000Y-26200500D01*
X14795637Y-26233194D01*
X14700581Y-26296709D01*
X14656298Y-26326298D01*
X14146298Y-26836298D01*
X14053194Y-26975637D01*
X14020500Y-27140000D01*
X14001500Y-27140000D01*
X14001500Y-25258763D01*
X15080500Y-25258763D01*
X15080500Y-25327625D01*
X15232875Y-25480000D01*
X15765000Y-25480000D01*
X15765000Y-24922875D01*
X15612625Y-24770500D01*
X15568763Y-24770500D01*
X15344746Y-24863291D01*
X15173291Y-25034746D01*
X15080500Y-25258763D01*
X14001500Y-25258763D01*
X14001500Y-14001500D01*
X18357958Y-14001500D01*
X20328229Y-15971771D01*
M02*
