G04 #@! TF.FileFunction,Soldermask,Top*
%FSLAX46Y46*%
G04 Gerber Fmt 4.6, Leading zero omitted, Abs format (unit mm)*
G04 Created by KiCad (PCBNEW 4.0.7) date 06/01/18 18:38:23*
%MOMM*%
%LPD*%
G01*
G04 APERTURE LIST*
%ADD10C,0.100000*%
%ADD11C,4.400000*%
%ADD12R,1.924000X1.924000*%
G04 APERTURE END LIST*
D10*
D11*
X102500000Y-50000000D03*
X97500000Y-50000000D03*
D12*
X104766000Y-96190000D03*
X104766000Y-97714000D03*
X104766000Y-99238000D03*
X104766000Y-103810000D03*
X104766000Y-102286000D03*
X104766000Y-100762000D03*
X103242000Y-100762000D03*
X103242000Y-102286000D03*
X103242000Y-103810000D03*
X103242000Y-99238000D03*
X103242000Y-97714000D03*
X103242000Y-96190000D03*
X98282000Y-99238000D03*
X98282000Y-97714000D03*
X98282000Y-96190000D03*
X96758000Y-96190000D03*
X96758000Y-97714000D03*
X96758000Y-99238000D03*
X95234000Y-99238000D03*
X95234000Y-97714000D03*
X95234000Y-96190000D03*
X95234000Y-100762000D03*
X95234000Y-102286000D03*
X95234000Y-103810000D03*
X96758000Y-103810000D03*
X96758000Y-102286000D03*
X96758000Y-100762000D03*
X101718000Y-96190000D03*
X101718000Y-97714000D03*
X101718000Y-99238000D03*
X101718000Y-103810000D03*
X101718000Y-102286000D03*
X98282000Y-100762000D03*
X98282000Y-102286000D03*
X98282000Y-103810000D03*
X101718000Y-100762000D03*
X94920000Y-147100000D03*
X97460000Y-147100000D03*
X96190000Y-147100000D03*
X98730000Y-147100000D03*
X105080000Y-147100000D03*
X102540000Y-147100000D03*
X103810000Y-147100000D03*
X101270000Y-147100000D03*
X100000000Y-147100000D03*
M02*
