M48
INCH,TZ
T1C0.012
T2C0.030
T3C0.102
%
G90
G05
T1
X37370Y-57913
X37870Y-57913
X38370Y-57913
X38870Y-57913
X39370Y-57913
X39870Y-57913
X40370Y-57913
X40870Y-57913
X41370Y-57913
T2
X37494Y-37870
X37494Y-38470
X37494Y-39070
X37494Y-39670
X37494Y-40270
X37494Y-40870
X38094Y-37870
X38094Y-38470
X38094Y-39070
X38094Y-39670
X38094Y-40270
X38094Y-40870
X38694Y-37870
X38694Y-38470
X38694Y-39070
X38694Y-39670
X38694Y-40270
X38694Y-40870
X40046Y-37870
X40046Y-38470
X40046Y-39070
X40046Y-39670
X40046Y-40270
X40046Y-40870
X40646Y-37870
X40646Y-38470
X40646Y-39070
X40646Y-39670
X40646Y-40270
X40646Y-40870
X41246Y-37870
X41246Y-38470
X41246Y-39070
X41246Y-39670
X41246Y-40270
X41246Y-40870
T3
X38386Y-19685
X40354Y-19685
T0
M30
