G04 #@! TF.FileFunction,Copper,L1,Top,Signal*
%FSLAX46Y46*%
G04 Gerber Fmt 4.6, Leading zero omitted, Abs format (unit mm)*
G04 Created by KiCad (PCBNEW 4.0.7) date 06/01/18 18:38:59*
%MOMM*%
%LPD*%
G01*
G04 APERTURE LIST*
%ADD10C,0.100000*%
%ADD11R,1.700000X1.700000*%
%ADD12O,1.700000X1.700000*%
%ADD13R,1.250000X1.000000*%
%ADD14R,0.500000X0.500000*%
%ADD15R,0.080000X0.250000*%
%ADD16C,0.600000*%
%ADD17C,0.250000*%
G04 APERTURE END LIST*
D10*
D11*
X23010000Y-36850000D03*
D12*
X25550000Y-36850000D03*
X28090000Y-36850000D03*
X30630000Y-36850000D03*
D13*
X23775000Y-32650000D03*
X23775000Y-34650000D03*
X30450000Y-34675000D03*
X30450000Y-32675000D03*
D14*
X27800000Y-32875000D03*
X27000000Y-32875000D03*
X28600000Y-32875000D03*
X26200000Y-32875000D03*
X27800000Y-34475000D03*
X27000000Y-34475000D03*
X26200000Y-34475000D03*
X25400000Y-34475000D03*
X28600000Y-33675000D03*
X28600000Y-34475000D03*
X25400000Y-33675000D03*
X25400000Y-32875000D03*
D15*
X28890000Y-34350000D03*
D16*
X24100000Y-33575000D03*
X24450000Y-35725000D03*
X30225000Y-33650000D03*
X27000000Y-33675000D03*
X27800000Y-32150000D03*
X27000000Y-32150000D03*
D17*
X25400000Y-34475000D02*
X24900000Y-34475000D01*
X24900000Y-34475000D02*
X24725001Y-34300001D01*
X24725001Y-34300001D02*
X24725001Y-33775737D01*
X24725001Y-33775737D02*
X24524264Y-33575000D01*
X24524264Y-33575000D02*
X24100000Y-33575000D01*
X24100000Y-33575000D02*
X24100000Y-32975000D01*
X24100000Y-32975000D02*
X23775000Y-32650000D01*
X28025000Y-35550000D02*
X24625000Y-35550000D01*
X24625000Y-35550000D02*
X24450000Y-35725000D01*
X28600000Y-34475000D02*
X28600000Y-34975000D01*
X28600000Y-34975000D02*
X28025000Y-35550000D01*
X23775000Y-32650000D02*
X23900000Y-32650000D01*
X28600000Y-34475000D02*
X29075000Y-34475000D01*
X29075000Y-34475000D02*
X30250000Y-34475000D01*
X28600000Y-32875000D02*
X28885002Y-32875000D01*
X28885002Y-32875000D02*
X29175001Y-33164999D01*
X29175001Y-33164999D02*
X29175001Y-34374999D01*
X29175001Y-34374999D02*
X29075000Y-34475000D01*
X28600000Y-34475000D02*
X28765000Y-34475000D01*
X28765000Y-34475000D02*
X28890000Y-34350000D01*
X30250000Y-34475000D02*
X30450000Y-34675000D01*
X30630000Y-36850000D02*
X30630000Y-34855000D01*
X30630000Y-34855000D02*
X30450000Y-34675000D01*
X26200000Y-34475000D02*
X26200000Y-34975000D01*
X26200000Y-34975000D02*
X26075000Y-35100000D01*
X26075000Y-35100000D02*
X23975000Y-35100000D01*
X23975000Y-35100000D02*
X23850000Y-35225000D01*
X23850000Y-35225000D02*
X23775000Y-35300000D01*
X23775000Y-34650000D02*
X23775000Y-35300000D01*
X23775000Y-35300000D02*
X23775000Y-36085000D01*
X27800000Y-33975000D02*
X28100000Y-33675000D01*
X27800000Y-34475000D02*
X27800000Y-33975000D01*
X28100000Y-33675000D02*
X28600000Y-33675000D01*
X30225000Y-33650000D02*
X30225000Y-32900000D01*
X30225000Y-32900000D02*
X30450000Y-32675000D01*
X27000000Y-34475000D02*
X27000000Y-33675000D01*
X23775000Y-36085000D02*
X23010000Y-36850000D01*
X27000000Y-34475000D02*
X27800000Y-34475000D01*
X26200000Y-34475000D02*
X27000000Y-34475000D01*
X25400000Y-33675000D02*
X25900000Y-33675000D01*
X25900000Y-33675000D02*
X26200000Y-33975000D01*
X26200000Y-33975000D02*
X26200000Y-34475000D01*
X27800000Y-32875000D02*
X27800000Y-32150000D01*
X27000000Y-32875000D02*
X27000000Y-32150000D01*
M02*
