G04 #@! TF.FileFunction,Copper,L2,Bot,Signal*
%FSLAX46Y46*%
G04 Gerber Fmt 4.6, Leading zero omitted, Abs format (unit mm)*
G04 Created by KiCad (PCBNEW 4.0.7) date 06/01/18 18:38:59*
%MOMM*%
%LPD*%
G01*
G04 APERTURE LIST*
%ADD10C,0.100000*%
%ADD11R,1.700000X1.700000*%
%ADD12O,1.700000X1.700000*%
%ADD13C,0.600000*%
%ADD14C,0.250000*%
G04 APERTURE END LIST*
D10*
D11*
X23010000Y-36850000D03*
D12*
X25550000Y-36850000D03*
X28090000Y-36850000D03*
X30630000Y-36850000D03*
D13*
X24100000Y-33575000D03*
X24450000Y-35725000D03*
X30225000Y-33650000D03*
X27000000Y-33675000D03*
X27800000Y-32150000D03*
X27000000Y-32150000D03*
D14*
X24450000Y-35725000D02*
X24450000Y-33925000D01*
X24450000Y-33925000D02*
X24100000Y-33575000D01*
X27000000Y-33675000D02*
X30200000Y-33675000D01*
X30200000Y-33675000D02*
X30225000Y-33650000D01*
X28939999Y-36000001D02*
X28090000Y-36850000D01*
X27800000Y-32150000D02*
X28224264Y-32150000D01*
X28224264Y-32150000D02*
X28349264Y-32275000D01*
X28349264Y-32275000D02*
X29775002Y-32275000D01*
X29775002Y-32275000D02*
X30850001Y-33349999D01*
X30850001Y-33349999D02*
X30850001Y-34089999D01*
X30850001Y-34089999D02*
X28939999Y-36000001D01*
X27000000Y-32150000D02*
X27000000Y-32749998D01*
X27000000Y-32749998D02*
X25550000Y-34199998D01*
X25550000Y-34199998D02*
X25550000Y-35647919D01*
X25550000Y-35647919D02*
X25550000Y-36850000D01*
M02*
