M48
INCH,TZ
T1C0.016
T2C0.026
T3C0.039
T4C0.130
%
G90
G05
T1
X11044Y-22917
X11130Y-14303
X11303Y-24354
X11511Y-18858
X11511Y-19189
X11645Y-24367
X11787Y-14302
X11827Y-22902
X11865Y-18520
X12000Y-23587
X12115Y-14210
X12192Y-22943
X12261Y-38236
X12272Y-20965
X12283Y-14461
X12287Y-13079
X12287Y-13381
X12339Y-39819
X12386Y-22240
X12390Y-24358
X12431Y-15778
X12504Y-22980
X12526Y-18809
X12528Y-34835
X12561Y-16861
X12647Y-24185
X12697Y-19472
X12720Y-22361
X12919Y-13941
X12933Y-14244
X12933Y-13626
X12941Y-13096
X13011Y-19111
X13036Y-34586
X13116Y-22546
X13136Y-20973
X13173Y-15134
X13205Y-39724
X13260Y-42724
X13276Y-40689
X13427Y-38502
X13457Y-28413
X13480Y-40024
X13511Y-23208
X13516Y-13708
X13665Y-13390
X13690Y-28119
X13780Y-23669
X13792Y-24177
X13824Y-39299
X13843Y-14900
X13850Y-14374
X13913Y-31228
X13925Y-21028
X13926Y-21659
X13941Y-13693
X14061Y-20061
X14092Y-28553
X14138Y-27287
X14187Y-27601
X14205Y-14428
X14213Y-14900
X14223Y-21603
X14339Y-19016
X14354Y-35760
X14358Y-24858
X14359Y-25502
X14378Y-13291
X14485Y-22794
X14547Y-23795
X14585Y-20013
X14618Y-44209
X14746Y-20269
X14760Y-27453
X14833Y-25264
X14833Y-24427
X14848Y-36959
X14861Y-18861
X14895Y-23544
X14953Y-21425
X14980Y-14331
X15051Y-16945
X15059Y-34457
X15102Y-20614
X15189Y-21894
X15252Y-19567
X15327Y-23544
X15328Y-35246
X15382Y-20327
X15394Y-26697
X15417Y-15248
X15528Y-17382
X15659Y-28510
X15661Y-26886
X15709Y-22328
X15772Y-23823
X15777Y-33213
X15777Y-34315
X15819Y-14752
X15854Y-13882
X15870Y-27862
X15933Y-24646
X15957Y-21579
X15968Y-28765
X15980Y-35815
X16000Y-31173
X16039Y-23618
X16129Y-28107
X16185Y-36677
X16213Y-14650
X16232Y-23898
X16244Y-14288
X16275Y-13461
X16382Y-21583
X16429Y-18476
X16460Y-14075
X16559Y-17907
X16575Y-19256
X16609Y-20285
X16630Y-29531
X16674Y-13860
X16690Y-30480
X16731Y-33330
X16753Y-27776
X16945Y-28839
X16954Y-23204
X17061Y-23961
X17067Y-24382
X17511Y-24886
X17962Y-19221
X18311Y-21711
X18360Y-19153
X18372Y-16169
X18375Y-18528
X18468Y-22623
X18498Y-22323
X18574Y-19994
X18744Y-23091
X18826Y-12782
X18861Y-24211
X18873Y-12482
X18939Y-13844
X18945Y-17343
X18961Y-13338
X18991Y-13036
X19045Y-18473
X19045Y-17744
X19264Y-19240
T2
X12020Y-12138
X12020Y-12638
X12520Y-12138
X12520Y-12638
X13020Y-12138
X13020Y-12638
X13520Y-12138
X13520Y-12638
X13611Y-25511
X13611Y-26011
X13611Y-26511
X13611Y-27011
X14020Y-12138
X14020Y-12638
X14059Y-16220
X14520Y-12138
X14520Y-12638
X14559Y-16220
X15020Y-12138
X15020Y-12638
X15059Y-16220
X15520Y-12138
X15520Y-12638
X15559Y-16220
X16020Y-12138
X16020Y-12638
X16059Y-16220
X16411Y-25511
X16411Y-26011
X16411Y-26511
X16411Y-27011
X16520Y-12138
X16520Y-12638
X17020Y-12138
X17020Y-12638
X17520Y-12138
X17520Y-12638
X18020Y-12138
X18020Y-12638
T3
X12059Y-17689
X12402Y-36516
X12811Y-35411
X13011Y-45009
X13059Y-17689
X13402Y-36516
X13402Y-41476
X13559Y-33819
X13811Y-35411
X14059Y-17689
X14402Y-36516
X14402Y-41476
X14559Y-33819
X14811Y-35411
X15059Y-17689
X15402Y-36516
X15402Y-41476
X15559Y-33819
X15811Y-19011
X15811Y-20011
X15811Y-21011
X16059Y-17689
X16402Y-41476
X16559Y-33819
X16732Y-36516
X16811Y-21011
X17059Y-17689
X17732Y-36516
X17811Y-21011
X18059Y-17689
X18811Y-21011
T4
X15059Y-29528
T0
M30
