G04 #@! TF.FileFunction,Soldermask,Bot*
%FSLAX46Y46*%
G04 Gerber Fmt 4.6, Leading zero omitted, Abs format (unit mm)*
G04 Created by KiCad (PCBNEW 4.0.7) date 06/01/18 18:40:32*
%MOMM*%
%LPD*%
G01*
G04 APERTURE LIST*
%ADD10C,0.100000*%
%ADD11C,4.400000*%
%ADD12R,2.100000X2.100000*%
%ADD13O,2.100000X2.100000*%
%ADD14R,1.400000X1.400000*%
%ADD15O,1.400000X1.400000*%
G04 APERTURE END LIST*
D10*
D11*
X38250000Y-75000000D03*
D12*
X40160000Y-53368000D03*
D13*
X42700000Y-53368000D03*
X45240000Y-53368000D03*
X47780000Y-53368000D03*
D14*
X45770000Y-32100000D03*
D15*
X45770000Y-30830000D03*
X44500000Y-32100000D03*
X44500000Y-30830000D03*
X43230000Y-32100000D03*
X43230000Y-30830000D03*
X41960000Y-32100000D03*
X41960000Y-30830000D03*
X40690000Y-32100000D03*
X40690000Y-30830000D03*
X39420000Y-32100000D03*
X39420000Y-30830000D03*
X38150000Y-32100000D03*
X38150000Y-30830000D03*
X36880000Y-32100000D03*
X36880000Y-30830000D03*
X35610000Y-32100000D03*
X35610000Y-30830000D03*
X34340000Y-32100000D03*
X34340000Y-30830000D03*
X33070000Y-32100000D03*
X33070000Y-30830000D03*
X31800000Y-32100000D03*
X31800000Y-30830000D03*
X30530000Y-32100000D03*
X30530000Y-30830000D03*
D12*
X33048000Y-114323000D03*
D14*
X34572000Y-64798000D03*
D15*
X34572000Y-66068000D03*
X34572000Y-67338000D03*
X34572000Y-68608000D03*
D14*
X41684000Y-64798000D03*
D15*
X41684000Y-66068000D03*
X41684000Y-67338000D03*
X41684000Y-68608000D03*
D12*
X30630000Y-44930000D03*
D13*
X33170000Y-44930000D03*
X35710000Y-44930000D03*
X38250000Y-44930000D03*
X40790000Y-44930000D03*
X43330000Y-44930000D03*
X45870000Y-44930000D03*
D12*
X42500000Y-92750000D03*
D13*
X45040000Y-92750000D03*
D12*
X31500000Y-92750000D03*
D13*
X34040000Y-92750000D03*
X36580000Y-92750000D03*
X39120000Y-92750000D03*
D12*
X32540000Y-89944000D03*
D13*
X35080000Y-89944000D03*
X37620000Y-89944000D03*
D12*
X40160000Y-48288000D03*
D13*
X40160000Y-50828000D03*
D14*
X35710000Y-41200000D03*
D15*
X36980000Y-41200000D03*
X38250000Y-41200000D03*
X39520000Y-41200000D03*
X40790000Y-41200000D03*
D12*
X34440000Y-85900000D03*
D13*
X36980000Y-85900000D03*
X39520000Y-85900000D03*
X42060000Y-85900000D03*
D12*
X34040000Y-105350000D03*
D13*
X36580000Y-105350000D03*
X39120000Y-105350000D03*
X41660000Y-105350000D03*
M02*
