G04 #@! TF.FileFunction,Profile,NP*
%FSLAX46Y46*%
G04 Gerber Fmt 4.6, Leading zero omitted, Abs format (unit mm)*
G04 Created by KiCad (PCBNEW 4.0.7) date 06/01/18 18:40:32*
%MOMM*%
%LPD*%
G01*
G04 APERTURE LIST*
%ADD10C,0.100000*%
%ADD11C,0.150000*%
G04 APERTURE END LIST*
D10*
D11*
X47540000Y-30000000D02*
X47350000Y-29810000D01*
X47550000Y-30000000D02*
X47540000Y-30000000D01*
X50000000Y-30000000D02*
X47550000Y-30000000D01*
X46580000Y-29040000D02*
X47350000Y-29810000D01*
X29720000Y-29040000D02*
X46580000Y-29040000D01*
X28760000Y-30000000D02*
X29720000Y-29040000D01*
X26500000Y-30000000D02*
X28760000Y-30000000D01*
X43500000Y-71175000D02*
X43500000Y-84850000D01*
X50000000Y-64000000D02*
X50000000Y-61275000D01*
X43600000Y-64000000D02*
X50000000Y-64000000D01*
X43600000Y-71075000D02*
X43600000Y-64000000D01*
X43500000Y-71175000D02*
X43600000Y-71075000D01*
X50000000Y-43800000D02*
X50000000Y-30000000D01*
X50225000Y-44025000D02*
X50000000Y-43800000D01*
X50225000Y-52850000D02*
X50225000Y-44025000D01*
X50125000Y-52950000D02*
X50225000Y-52850000D01*
X50125000Y-61150000D02*
X50125000Y-52950000D01*
X50100000Y-61175000D02*
X50125000Y-61150000D01*
X50000000Y-61275000D02*
X50100000Y-61175000D01*
X26500000Y-64000000D02*
X26500000Y-61900000D01*
X26500000Y-48900000D02*
X26500000Y-30000000D01*
X26350000Y-49050000D02*
X26500000Y-48900000D01*
X26350000Y-61750000D02*
X26350000Y-49050000D01*
X26500000Y-61900000D02*
X26350000Y-61750000D01*
X33000000Y-71125000D02*
X33000000Y-83000000D01*
X32700000Y-64000000D02*
X30000000Y-64000000D01*
X32900000Y-71025000D02*
X33000000Y-71125000D01*
X32900000Y-64200000D02*
X32900000Y-71025000D01*
X32700000Y-64000000D02*
X32900000Y-64200000D01*
X46500000Y-93460000D02*
X46500000Y-115500000D01*
X46600000Y-93360000D02*
X46500000Y-93460000D01*
X46500000Y-91940000D02*
X46500000Y-89500000D01*
X46600000Y-92040000D02*
X46600000Y-93360000D01*
X46560000Y-92000000D02*
X46600000Y-92040000D01*
X46500000Y-91940000D02*
X46560000Y-92000000D01*
X33000000Y-84330000D02*
X33000000Y-83000000D01*
X30000000Y-89500000D02*
X32860000Y-86640000D01*
X32860000Y-84470000D02*
X33000000Y-84330000D01*
X32860000Y-86640000D02*
X32860000Y-84470000D01*
X43670000Y-86670000D02*
X46500000Y-89500000D01*
X43670000Y-85020000D02*
X43500000Y-84850000D01*
X43670000Y-86670000D02*
X43670000Y-85020000D01*
X46500000Y-64000000D02*
X50000000Y-64000000D01*
X26500000Y-64000000D02*
X30000000Y-64000000D01*
X30000000Y-115500000D02*
X46500000Y-115500000D01*
X30000000Y-89500000D02*
X30000000Y-115500000D01*
M02*
