G04 #@! TF.FileFunction,Paste,Top*
%FSLAX46Y46*%
G04 Gerber Fmt 4.6, Leading zero omitted, Abs format (unit mm)*
G04 Created by KiCad (PCBNEW 4.0.7) date 06/01/18 20:16:30*
%MOMM*%
%LPD*%
G01*
G04 APERTURE LIST*
%ADD10C,0.100000*%
%ADD11R,4.000000X5.000000*%
%ADD12R,5.000000X4.000000*%
%ADD13R,1.000000X1.250000*%
%ADD14R,1.950000X2.500000*%
%ADD15R,2.500000X1.950000*%
%ADD16R,1.250000X1.000000*%
%ADD17R,0.700000X1.300000*%
%ADD18R,1.300000X0.700000*%
%ADD19R,0.550000X1.750000*%
%ADD20R,1.550000X0.600000*%
%ADD21R,2.000000X3.800000*%
%ADD22R,2.000000X1.500000*%
%ADD23R,3.800000X2.000000*%
%ADD24R,1.500000X2.000000*%
G04 APERTURE END LIST*
D10*
D11*
X52552000Y-63552000D03*
X47652000Y-63552000D03*
D12*
X34302000Y-52448000D03*
X34302000Y-47548000D03*
D13*
X61100000Y-22300000D03*
X59100000Y-22300000D03*
D14*
X36275000Y-29800000D03*
X39325000Y-29800000D03*
X43625000Y-29800000D03*
X40575000Y-29800000D03*
X27885000Y-40050000D03*
X30935000Y-40050000D03*
D13*
X43300000Y-31800000D03*
X41300000Y-31800000D03*
D14*
X31075000Y-27100000D03*
X34125000Y-27100000D03*
D13*
X31600000Y-25300000D03*
X33600000Y-25300000D03*
D15*
X46700000Y-53565000D03*
X46700000Y-56615000D03*
D16*
X55230000Y-58770000D03*
X55230000Y-56770000D03*
D13*
X57300000Y-31300000D03*
X59300000Y-31300000D03*
D17*
X47900000Y-58870000D03*
X49800000Y-58870000D03*
X52010000Y-56780000D03*
X53910000Y-56780000D03*
D18*
X56630000Y-54090000D03*
X56630000Y-52190000D03*
D17*
X49040000Y-56740000D03*
X50940000Y-56740000D03*
D18*
X56980000Y-55230000D03*
X56980000Y-57130000D03*
X61000000Y-33350000D03*
X61000000Y-31450000D03*
D17*
X56350000Y-28500000D03*
X58250000Y-28500000D03*
D18*
X22020000Y-59310000D03*
X22020000Y-57410000D03*
X56400000Y-23450000D03*
X56400000Y-25350000D03*
D17*
X56350000Y-22300000D03*
X58250000Y-22300000D03*
X55540000Y-33780000D03*
X57440000Y-33780000D03*
X57450000Y-32400000D03*
X59350000Y-32400000D03*
X51330000Y-58730000D03*
X53230000Y-58730000D03*
D19*
X50655000Y-54690000D03*
X51925000Y-54690000D03*
X53195000Y-54690000D03*
X54465000Y-54690000D03*
X54465000Y-47290000D03*
X53195000Y-47290000D03*
X51925000Y-47290000D03*
X50655000Y-47290000D03*
D20*
X58100000Y-23695000D03*
X58100000Y-24965000D03*
X58100000Y-26235000D03*
X58100000Y-27505000D03*
X63500000Y-27505000D03*
X63500000Y-26235000D03*
X63500000Y-24965000D03*
X63500000Y-23695000D03*
D11*
X47660000Y-34206000D03*
X52560000Y-34206000D03*
D12*
X65680000Y-47528000D03*
X65680000Y-52428000D03*
D21*
X43350000Y-25000000D03*
D22*
X37050000Y-25000000D03*
X37050000Y-27300000D03*
X37050000Y-22700000D03*
D23*
X31500000Y-35750000D03*
D24*
X31500000Y-29450000D03*
X29200000Y-29450000D03*
X33800000Y-29450000D03*
D16*
X65190000Y-24790000D03*
X65190000Y-26790000D03*
D13*
X52420000Y-45220000D03*
X54420000Y-45220000D03*
M02*
