M48
INCH,TZ
T1C0.012
T2C0.026
T3C0.030
T4C0.043
T5C0.069
T6C0.102
T7C0.130
%
G90
G05
T1
X9575Y-23303
X11008Y-12843
X11394Y-16651
X11563Y-12728
X11764Y-12476
X12305Y-16813
X12713Y-23488
X12713Y-24496
X12976Y-15827
X13057Y-22224
X13071Y-12756
X13303Y-12484
X13307Y-11594
X13311Y-15996
X13346Y-22874
X13358Y-14181
X13638Y-23063
X13717Y-14201
X13868Y-22165
X13908Y-21642
X14326Y-23110
X14508Y-24669
X14571Y-24094
X14803Y-21873
X15020Y-11799
X15035Y-16366
X15076Y-23705
X15110Y-23110
X15182Y-16040
X15197Y-17657
X15240Y-17220
X15299Y-22780
X15394Y-18011
X15425Y-20673
X15685Y-20402
X15689Y-25110
X15705Y-20980
X15709Y-20689
X15824Y-18508
X15906Y-24480
X15957Y-28777
X15988Y-20709
X16319Y-13535
X16372Y-18374
X16579Y-13807
X16723Y-24366
X16750Y-23656
X16843Y-21783
X16854Y-20807
X16858Y-20413
X16878Y-24047
X17055Y-20610
X17142Y-17488
X17252Y-20413
X17252Y-20807
X17267Y-24201
X17311Y-14728
X17323Y-22520
X17421Y-16067
X17472Y-13791
X17555Y-19898
X17575Y-16327
X17795Y-19488
X18134Y-15862
X18150Y-19732
X18457Y-19421
X18457Y-19732
X18457Y-20051
X18484Y-23835
X18528Y-24114
X18756Y-23661
X18760Y-19732
X18776Y-23969
X18890Y-14083
X18890Y-14362
X18894Y-13768
X19079Y-21787
X19091Y-23657
X19091Y-23976
X19177Y-16091
X19213Y-13768
X19213Y-14083
X19232Y-23173
X19555Y-13768
X19933Y-17909
X19972Y-20969
X20433Y-24272
X20433Y-24551
X20713Y-24272
X20713Y-24551
X20791Y-14839
X20823Y-22323
X20992Y-24551
X21008Y-24240
X21579Y-19303
X21717Y-22728
X21772Y-23583
X21913Y-12787
X21921Y-21913
X22209Y-20949
X22583Y-13902
X22890Y-17173
X23417Y-13657
X23539Y-10874
X23650Y-11550
X24457Y-10799
X24484Y-16492
X24539Y-12528
X24701Y-13685
X24976Y-16512
X25000Y-20039
X25000Y-20354
X25315Y-20039
X25315Y-20354
X25630Y-20039
X25630Y-20354
T2
X13236Y-14854
X13236Y-15354
X13736Y-14854
X13736Y-15354
X14236Y-14854
X14236Y-15354
X14736Y-14854
X14736Y-15354
X15236Y-14854
X15236Y-15354
X15736Y-14854
X15736Y-15354
X16142Y-25197
X16142Y-25697
X16142Y-26197
X16142Y-26697
X16142Y-27197
X16142Y-27697
X16142Y-28197
X16236Y-14854
X16236Y-15354
X16642Y-25197
X16642Y-25697
X16642Y-26197
X16642Y-26697
X16642Y-27197
X16642Y-27697
X16642Y-28197
X16736Y-14854
X16736Y-15354
T3
X9121Y-14087
X9665Y-13248
X26035Y-12168
X26035Y-13388
X27256Y-12168
X27256Y-13388
T4
X10811Y-26697
X11165Y-25378
X11165Y-28016
X13803Y-28016
X14157Y-26697
T5
X22965Y-25571
X25610Y-28217
T6
X23898Y-18701
X23898Y-20669
X28543Y-16142
X30512Y-16142
T7
X8661Y-16130
X16089Y-30733
X30709Y-23295
T0
M30
