G04 #@! TF.FileFunction,Legend,Top*
%FSLAX46Y46*%
G04 Gerber Fmt 4.6, Leading zero omitted, Abs format (unit mm)*
G04 Created by KiCad (PCBNEW 4.0.7) date 06/01/18 20:16:31*
%MOMM*%
%LPD*%
G01*
G04 APERTURE LIST*
%ADD10C,0.100000*%
%ADD11C,0.150000*%
%ADD12C,0.120000*%
%ADD13C,1.524000*%
%ADD14R,4.000000X5.000000*%
%ADD15R,1.000000X1.000000*%
%ADD16O,1.000000X1.000000*%
%ADD17R,5.000000X4.000000*%
%ADD18C,4.000000*%
%ADD19R,1.000000X1.250000*%
%ADD20R,1.950000X2.500000*%
%ADD21R,2.500000X1.950000*%
%ADD22R,1.250000X1.000000*%
%ADD23R,0.700000X1.300000*%
%ADD24R,1.300000X0.700000*%
%ADD25C,2.500000*%
%ADD26R,0.550000X1.750000*%
%ADD27R,1.550000X0.600000*%
%ADD28R,2.000000X3.800000*%
%ADD29R,2.000000X1.500000*%
%ADD30R,3.800000X2.000000*%
%ADD31R,1.500000X2.000000*%
G04 APERTURE END LIST*
D10*
D11*
X45102000Y-66052000D02*
X55102000Y-66052000D01*
X55102000Y-66052000D02*
X55102000Y-75052000D01*
X55102000Y-75052000D02*
X45102000Y-75052000D01*
X45102000Y-75052000D02*
X45102000Y-66052000D01*
D12*
X39870000Y-72315000D02*
X40692470Y-72315000D01*
X42577530Y-72315000D02*
X43400000Y-72315000D01*
X41307530Y-72315000D02*
X41962470Y-72315000D01*
X39870000Y-64760000D02*
X39870000Y-72315000D01*
X43400000Y-63305000D02*
X43400000Y-72315000D01*
X39870000Y-64760000D02*
X40436529Y-64760000D01*
X41563471Y-64760000D02*
X41706529Y-64760000D01*
X41760000Y-64706529D02*
X41760000Y-64563471D01*
X41760000Y-63436529D02*
X41760000Y-63305000D01*
X41760000Y-63305000D02*
X41962470Y-63305000D01*
X42577530Y-63305000D02*
X43400000Y-63305000D01*
X39870000Y-64000000D02*
X39870000Y-63240000D01*
X39870000Y-63240000D02*
X41000000Y-63240000D01*
D11*
X31802000Y-44998000D02*
X31802000Y-54998000D01*
X31802000Y-54998000D02*
X22802000Y-54998000D01*
X22802000Y-54998000D02*
X22802000Y-44998000D01*
X22802000Y-44998000D02*
X31802000Y-44998000D01*
X79299000Y-61349934D02*
X80598057Y-59099967D01*
X76700943Y-61349967D02*
X79299000Y-61349934D01*
X75401943Y-59100033D02*
X76701000Y-56850066D01*
X76701000Y-56850066D02*
X79299057Y-56850033D01*
X75401943Y-59100033D02*
X76700943Y-61349967D01*
X79299057Y-56850033D02*
X80598057Y-59099967D01*
X40900000Y-80598000D02*
X43150000Y-79299000D01*
X38650000Y-79299000D02*
X40900000Y-80598000D01*
X38650000Y-76701000D02*
X40900000Y-75402000D01*
X40900000Y-75402000D02*
X43150000Y-76701000D01*
X38650000Y-76701000D02*
X38650000Y-79299000D01*
X43150000Y-76701000D02*
X43150000Y-79299000D01*
D12*
X59600000Y-23150000D02*
X60600000Y-23150000D01*
X60600000Y-21450000D02*
X59600000Y-21450000D01*
X35000000Y-28150000D02*
X39550000Y-28150000D01*
X35000000Y-31450000D02*
X39550000Y-31450000D01*
X35000000Y-28150000D02*
X35000000Y-31450000D01*
X44900000Y-31450000D02*
X40350000Y-31450000D01*
X44900000Y-28150000D02*
X40350000Y-28150000D01*
X44900000Y-31450000D02*
X44900000Y-28150000D01*
X26610000Y-38400000D02*
X31160000Y-38400000D01*
X26610000Y-41700000D02*
X31160000Y-41700000D01*
X26610000Y-38400000D02*
X26610000Y-41700000D01*
X41800000Y-32650000D02*
X42800000Y-32650000D01*
X42800000Y-30950000D02*
X41800000Y-30950000D01*
X29800000Y-25450000D02*
X34350000Y-25450000D01*
X29800000Y-28750000D02*
X34350000Y-28750000D01*
X29800000Y-25450000D02*
X29800000Y-28750000D01*
X33100000Y-24450000D02*
X32100000Y-24450000D01*
X32100000Y-26150000D02*
X33100000Y-26150000D01*
X48350000Y-52290000D02*
X48350000Y-56840000D01*
X45050000Y-52290000D02*
X45050000Y-56840000D01*
X48350000Y-52290000D02*
X45050000Y-52290000D01*
X54380000Y-57270000D02*
X54380000Y-58270000D01*
X56080000Y-58270000D02*
X56080000Y-57270000D01*
X58800000Y-30450000D02*
X57800000Y-30450000D01*
X57800000Y-32150000D02*
X58800000Y-32150000D01*
X49450000Y-59750000D02*
X48250000Y-59750000D01*
X48250000Y-57990000D02*
X49450000Y-57990000D01*
X53560000Y-57660000D02*
X52360000Y-57660000D01*
X52360000Y-55900000D02*
X53560000Y-55900000D01*
X57510000Y-52540000D02*
X57510000Y-53740000D01*
X55750000Y-53740000D02*
X55750000Y-52540000D01*
X50590000Y-57620000D02*
X49390000Y-57620000D01*
X49390000Y-55860000D02*
X50590000Y-55860000D01*
X56100000Y-56780000D02*
X56100000Y-55580000D01*
X57860000Y-55580000D02*
X57860000Y-56780000D01*
X61880000Y-31800000D02*
X61880000Y-33000000D01*
X60120000Y-33000000D02*
X60120000Y-31800000D01*
X57900000Y-29380000D02*
X56700000Y-29380000D01*
X56700000Y-27620000D02*
X57900000Y-27620000D01*
X22900000Y-57760000D02*
X22900000Y-58960000D01*
X21140000Y-58960000D02*
X21140000Y-57760000D01*
X55520000Y-25000000D02*
X55520000Y-23800000D01*
X57280000Y-23800000D02*
X57280000Y-25000000D01*
X57900000Y-23180000D02*
X56700000Y-23180000D01*
X56700000Y-21420000D02*
X57900000Y-21420000D01*
X57090000Y-34660000D02*
X55890000Y-34660000D01*
X55890000Y-32900000D02*
X57090000Y-32900000D01*
X59000000Y-33280000D02*
X57800000Y-33280000D01*
X57800000Y-31520000D02*
X59000000Y-31520000D01*
D11*
X25615112Y-34341692D02*
X22848345Y-38602138D01*
X22848345Y-38602138D02*
X20718122Y-37218755D01*
X20718122Y-37218755D02*
X26251655Y-28697862D01*
X26251655Y-28697862D02*
X28381878Y-30081245D01*
X28381878Y-30081245D02*
X25615112Y-34341692D01*
D12*
X52880000Y-59610000D02*
X51680000Y-59610000D01*
X51680000Y-57850000D02*
X52880000Y-57850000D01*
D11*
X75050000Y-64950000D02*
G75*
G03X75050000Y-64950000I-10000000J0D01*
G01*
X49355000Y-53740000D02*
X50010000Y-53740000D01*
X49355000Y-48240000D02*
X50105000Y-48240000D01*
X55765000Y-48240000D02*
X55015000Y-48240000D01*
X55765000Y-53740000D02*
X55015000Y-53740000D01*
X49355000Y-53740000D02*
X49355000Y-48240000D01*
X55765000Y-53740000D02*
X55765000Y-48240000D01*
X50010000Y-53740000D02*
X50010000Y-55490000D01*
X58725000Y-23025000D02*
X58725000Y-23075000D01*
X62875000Y-23025000D02*
X62875000Y-23170000D01*
X62875000Y-28175000D02*
X62875000Y-28030000D01*
X58725000Y-28175000D02*
X58725000Y-28030000D01*
X58725000Y-23025000D02*
X62875000Y-23025000D01*
X58725000Y-28175000D02*
X62875000Y-28175000D01*
X58725000Y-23075000D02*
X57325000Y-23075000D01*
X55110000Y-31706000D02*
X45110000Y-31706000D01*
X45110000Y-31706000D02*
X45110000Y-22706000D01*
X45110000Y-22706000D02*
X55110000Y-22706000D01*
X55110000Y-22706000D02*
X55110000Y-31706000D01*
X68180000Y-54978000D02*
X68180000Y-44978000D01*
X68180000Y-44978000D02*
X77180000Y-44978000D01*
X77180000Y-44978000D02*
X77180000Y-54978000D01*
X77180000Y-54978000D02*
X68180000Y-54978000D01*
X72380000Y-32456000D02*
G75*
G03X72380000Y-32456000I-4700000J0D01*
G01*
D12*
X42110000Y-28410000D02*
X42110000Y-27150000D01*
X42110000Y-21590000D02*
X42110000Y-22850000D01*
X38350000Y-28410000D02*
X42110000Y-28410000D01*
X36100000Y-21590000D02*
X42110000Y-21590000D01*
X28090000Y-34510000D02*
X29350000Y-34510000D01*
X34910000Y-34510000D02*
X33650000Y-34510000D01*
X28090000Y-30750000D02*
X28090000Y-34510000D01*
X34910000Y-28500000D02*
X34910000Y-34510000D01*
X43205000Y-40130000D02*
X43205000Y-39307530D01*
X43205000Y-37422470D02*
X43205000Y-36600000D01*
X43205000Y-38692470D02*
X43205000Y-38037530D01*
X34380000Y-40130000D02*
X43205000Y-40130000D01*
X32925000Y-36600000D02*
X43205000Y-36600000D01*
X34380000Y-40130000D02*
X34380000Y-39563471D01*
X34380000Y-38436529D02*
X34380000Y-38293471D01*
X34326529Y-38240000D02*
X34183471Y-38240000D01*
X33056529Y-38240000D02*
X32925000Y-38240000D01*
X32925000Y-38240000D02*
X32925000Y-38037530D01*
X32925000Y-37422470D02*
X32925000Y-36600000D01*
X33620000Y-40130000D02*
X32860000Y-40130000D01*
X32860000Y-40130000D02*
X32860000Y-39000000D01*
D11*
X23299000Y-43149934D02*
X24598057Y-40899967D01*
X20700943Y-43149967D02*
X23299000Y-43149934D01*
X19401943Y-40900033D02*
X20701000Y-38650066D01*
X20701000Y-38650066D02*
X23299057Y-38650033D01*
X19401943Y-40900033D02*
X20700943Y-43149967D01*
X23299057Y-38650033D02*
X24598057Y-40899967D01*
X70000000Y-41000000D02*
X70000000Y-38400000D01*
X70000000Y-38400000D02*
X75000000Y-38400000D01*
X74900000Y-43600000D02*
X70000000Y-43600000D01*
X70000000Y-43600000D02*
X70000000Y-41100000D01*
X80000000Y-41100000D02*
X80000000Y-43600000D01*
X80000000Y-43600000D02*
X77400000Y-43600000D01*
X77900000Y-38400000D02*
X80000000Y-38400000D01*
X80000000Y-38400000D02*
X80000000Y-41000000D01*
X74900000Y-43600000D02*
X77400000Y-43600000D01*
X75000000Y-38400000D02*
X77900000Y-38400000D01*
X70000000Y-41000000D02*
X70000000Y-41100000D01*
X80000000Y-41000000D02*
X80000000Y-41100000D01*
D12*
X66040000Y-26290000D02*
X66040000Y-25290000D01*
X64340000Y-25290000D02*
X64340000Y-26290000D01*
X53920000Y-44370000D02*
X52920000Y-44370000D01*
X52920000Y-46070000D02*
X53920000Y-46070000D01*
D11*
X56904381Y-64790095D02*
X55904381Y-64790095D01*
X55904381Y-64409142D01*
X55952000Y-64313904D01*
X55999619Y-64266285D01*
X56094857Y-64218666D01*
X56237714Y-64218666D01*
X56332952Y-64266285D01*
X56380571Y-64313904D01*
X56428190Y-64409142D01*
X56428190Y-64790095D01*
X55999619Y-63837714D02*
X55952000Y-63790095D01*
X55904381Y-63694857D01*
X55904381Y-63456761D01*
X55952000Y-63361523D01*
X55999619Y-63313904D01*
X56094857Y-63266285D01*
X56190095Y-63266285D01*
X56332952Y-63313904D01*
X56904381Y-63885333D01*
X56904381Y-63266285D01*
X41301667Y-61757381D02*
X41301667Y-62471667D01*
X41254047Y-62614524D01*
X41158809Y-62709762D01*
X41015952Y-62757381D01*
X40920714Y-62757381D01*
X41682619Y-61757381D02*
X42301667Y-61757381D01*
X41968333Y-62138333D01*
X42111191Y-62138333D01*
X42206429Y-62185952D01*
X42254048Y-62233571D01*
X42301667Y-62328810D01*
X42301667Y-62566905D01*
X42254048Y-62662143D01*
X42206429Y-62709762D01*
X42111191Y-62757381D01*
X41825476Y-62757381D01*
X41730238Y-62709762D01*
X41682619Y-62662143D01*
X33063905Y-56800381D02*
X33063905Y-55800381D01*
X33444858Y-55800381D01*
X33540096Y-55848000D01*
X33587715Y-55895619D01*
X33635334Y-55990857D01*
X33635334Y-56133714D01*
X33587715Y-56228952D01*
X33540096Y-56276571D01*
X33444858Y-56324190D01*
X33063905Y-56324190D01*
X33968667Y-55800381D02*
X34587715Y-55800381D01*
X34254381Y-56181333D01*
X34397239Y-56181333D01*
X34492477Y-56228952D01*
X34540096Y-56276571D01*
X34587715Y-56371810D01*
X34587715Y-56609905D01*
X34540096Y-56705143D01*
X34492477Y-56752762D01*
X34397239Y-56800381D01*
X34111524Y-56800381D01*
X34016286Y-56752762D01*
X33968667Y-56705143D01*
X78821490Y-63189529D02*
X78294719Y-62943802D01*
X78326618Y-63475243D02*
X77826618Y-62609218D01*
X78156533Y-62418742D01*
X78262821Y-62412362D01*
X78327870Y-62429792D01*
X78416728Y-62488461D01*
X78488157Y-62612178D01*
X78494536Y-62718466D01*
X78477107Y-62783515D01*
X78418438Y-62872373D01*
X78088523Y-63062850D01*
X78930739Y-62521611D02*
X79219414Y-62354944D01*
X79605037Y-62737148D02*
X79192644Y-62975243D01*
X78692644Y-62109218D01*
X79105037Y-61871123D01*
X80002961Y-61902563D02*
X79714286Y-62069230D01*
X79976190Y-62522862D02*
X79476191Y-61656837D01*
X79888584Y-61418742D01*
X80342216Y-61156837D02*
X80461263Y-61363033D01*
X80207448Y-61399602D02*
X80461263Y-61363033D01*
X80619842Y-61161507D01*
X80432784Y-61599419D02*
X80461263Y-61363033D01*
X80680220Y-61456561D01*
X81002045Y-60775885D02*
X81121092Y-60982081D01*
X80867277Y-61018650D02*
X81121092Y-60982081D01*
X81279671Y-60780554D01*
X81092613Y-61218466D02*
X81121092Y-60982081D01*
X81340049Y-61075609D01*
X39566667Y-81952381D02*
X39233333Y-81476190D01*
X38995238Y-81952381D02*
X38995238Y-80952381D01*
X39376191Y-80952381D01*
X39471429Y-81000000D01*
X39519048Y-81047619D01*
X39566667Y-81142857D01*
X39566667Y-81285714D01*
X39519048Y-81380952D01*
X39471429Y-81428571D01*
X39376191Y-81476190D01*
X38995238Y-81476190D01*
X39995238Y-81428571D02*
X40328572Y-81428571D01*
X40471429Y-81952381D02*
X39995238Y-81952381D01*
X39995238Y-80952381D01*
X40471429Y-80952381D01*
X41233334Y-81428571D02*
X40900000Y-81428571D01*
X40900000Y-81952381D02*
X40900000Y-80952381D01*
X41376191Y-80952381D01*
X41900000Y-80952381D02*
X41900000Y-81190476D01*
X41661905Y-81095238D02*
X41900000Y-81190476D01*
X42138096Y-81095238D01*
X41757143Y-81380952D02*
X41900000Y-81190476D01*
X42042858Y-81380952D01*
X42661905Y-80952381D02*
X42661905Y-81190476D01*
X42423810Y-81095238D02*
X42661905Y-81190476D01*
X42900001Y-81095238D01*
X42519048Y-81380952D02*
X42661905Y-81190476D01*
X42804763Y-81380952D01*
X59933334Y-24157143D02*
X59885715Y-24204762D01*
X59742858Y-24252381D01*
X59647620Y-24252381D01*
X59504762Y-24204762D01*
X59409524Y-24109524D01*
X59361905Y-24014286D01*
X59314286Y-23823810D01*
X59314286Y-23680952D01*
X59361905Y-23490476D01*
X59409524Y-23395238D01*
X59504762Y-23300000D01*
X59647620Y-23252381D01*
X59742858Y-23252381D01*
X59885715Y-23300000D01*
X59933334Y-23347619D01*
X60409524Y-24252381D02*
X60600000Y-24252381D01*
X60695239Y-24204762D01*
X60742858Y-24157143D01*
X60838096Y-24014286D01*
X60885715Y-23823810D01*
X60885715Y-23442857D01*
X60838096Y-23347619D01*
X60790477Y-23300000D01*
X60695239Y-23252381D01*
X60504762Y-23252381D01*
X60409524Y-23300000D01*
X60361905Y-23347619D01*
X60314286Y-23442857D01*
X60314286Y-23680952D01*
X60361905Y-23776190D01*
X60409524Y-23823810D01*
X60504762Y-23871429D01*
X60695239Y-23871429D01*
X60790477Y-23823810D01*
X60838096Y-23776190D01*
X60885715Y-23680952D01*
X37633334Y-27007143D02*
X37585715Y-27054762D01*
X37442858Y-27102381D01*
X37347620Y-27102381D01*
X37204762Y-27054762D01*
X37109524Y-26959524D01*
X37061905Y-26864286D01*
X37014286Y-26673810D01*
X37014286Y-26530952D01*
X37061905Y-26340476D01*
X37109524Y-26245238D01*
X37204762Y-26150000D01*
X37347620Y-26102381D01*
X37442858Y-26102381D01*
X37585715Y-26150000D01*
X37633334Y-26197619D01*
X38585715Y-27102381D02*
X38014286Y-27102381D01*
X38300000Y-27102381D02*
X38300000Y-26102381D01*
X38204762Y-26245238D01*
X38109524Y-26340476D01*
X38014286Y-26388095D01*
X41933334Y-33307143D02*
X41885715Y-33354762D01*
X41742858Y-33402381D01*
X41647620Y-33402381D01*
X41504762Y-33354762D01*
X41409524Y-33259524D01*
X41361905Y-33164286D01*
X41314286Y-32973810D01*
X41314286Y-32830952D01*
X41361905Y-32640476D01*
X41409524Y-32545238D01*
X41504762Y-32450000D01*
X41647620Y-32402381D01*
X41742858Y-32402381D01*
X41885715Y-32450000D01*
X41933334Y-32497619D01*
X42314286Y-32497619D02*
X42361905Y-32450000D01*
X42457143Y-32402381D01*
X42695239Y-32402381D01*
X42790477Y-32450000D01*
X42838096Y-32497619D01*
X42885715Y-32592857D01*
X42885715Y-32688095D01*
X42838096Y-32830952D01*
X42266667Y-33402381D01*
X42885715Y-33402381D01*
X29243334Y-37257143D02*
X29195715Y-37304762D01*
X29052858Y-37352381D01*
X28957620Y-37352381D01*
X28814762Y-37304762D01*
X28719524Y-37209524D01*
X28671905Y-37114286D01*
X28624286Y-36923810D01*
X28624286Y-36780952D01*
X28671905Y-36590476D01*
X28719524Y-36495238D01*
X28814762Y-36400000D01*
X28957620Y-36352381D01*
X29052858Y-36352381D01*
X29195715Y-36400000D01*
X29243334Y-36447619D01*
X29576667Y-36352381D02*
X30195715Y-36352381D01*
X29862381Y-36733333D01*
X30005239Y-36733333D01*
X30100477Y-36780952D01*
X30148096Y-36828571D01*
X30195715Y-36923810D01*
X30195715Y-37161905D01*
X30148096Y-37257143D01*
X30100477Y-37304762D01*
X30005239Y-37352381D01*
X29719524Y-37352381D01*
X29624286Y-37304762D01*
X29576667Y-37257143D01*
X42133334Y-33657143D02*
X42085715Y-33704762D01*
X41942858Y-33752381D01*
X41847620Y-33752381D01*
X41704762Y-33704762D01*
X41609524Y-33609524D01*
X41561905Y-33514286D01*
X41514286Y-33323810D01*
X41514286Y-33180952D01*
X41561905Y-32990476D01*
X41609524Y-32895238D01*
X41704762Y-32800000D01*
X41847620Y-32752381D01*
X41942858Y-32752381D01*
X42085715Y-32800000D01*
X42133334Y-32847619D01*
X42990477Y-33085714D02*
X42990477Y-33752381D01*
X42752381Y-32704762D02*
X42514286Y-33419048D01*
X43133334Y-33419048D01*
X32433334Y-24307143D02*
X32385715Y-24354762D01*
X32242858Y-24402381D01*
X32147620Y-24402381D01*
X32004762Y-24354762D01*
X31909524Y-24259524D01*
X31861905Y-24164286D01*
X31814286Y-23973810D01*
X31814286Y-23830952D01*
X31861905Y-23640476D01*
X31909524Y-23545238D01*
X32004762Y-23450000D01*
X32147620Y-23402381D01*
X32242858Y-23402381D01*
X32385715Y-23450000D01*
X32433334Y-23497619D01*
X33338096Y-23402381D02*
X32861905Y-23402381D01*
X32814286Y-23878571D01*
X32861905Y-23830952D01*
X32957143Y-23783333D01*
X33195239Y-23783333D01*
X33290477Y-23830952D01*
X33338096Y-23878571D01*
X33385715Y-23973810D01*
X33385715Y-24211905D01*
X33338096Y-24307143D01*
X33290477Y-24354762D01*
X33195239Y-24402381D01*
X32957143Y-24402381D01*
X32861905Y-24354762D01*
X32814286Y-24307143D01*
X32433334Y-24157143D02*
X32385715Y-24204762D01*
X32242858Y-24252381D01*
X32147620Y-24252381D01*
X32004762Y-24204762D01*
X31909524Y-24109524D01*
X31861905Y-24014286D01*
X31814286Y-23823810D01*
X31814286Y-23680952D01*
X31861905Y-23490476D01*
X31909524Y-23395238D01*
X32004762Y-23300000D01*
X32147620Y-23252381D01*
X32242858Y-23252381D01*
X32385715Y-23300000D01*
X32433334Y-23347619D01*
X33290477Y-23252381D02*
X33100000Y-23252381D01*
X33004762Y-23300000D01*
X32957143Y-23347619D01*
X32861905Y-23490476D01*
X32814286Y-23680952D01*
X32814286Y-24061905D01*
X32861905Y-24157143D01*
X32909524Y-24204762D01*
X33004762Y-24252381D01*
X33195239Y-24252381D01*
X33290477Y-24204762D01*
X33338096Y-24157143D01*
X33385715Y-24061905D01*
X33385715Y-23823810D01*
X33338096Y-23728571D01*
X33290477Y-23680952D01*
X33195239Y-23633333D01*
X33004762Y-23633333D01*
X32909524Y-23680952D01*
X32861905Y-23728571D01*
X32814286Y-23823810D01*
X50207143Y-55256666D02*
X50254762Y-55304285D01*
X50302381Y-55447142D01*
X50302381Y-55542380D01*
X50254762Y-55685238D01*
X50159524Y-55780476D01*
X50064286Y-55828095D01*
X49873810Y-55875714D01*
X49730952Y-55875714D01*
X49540476Y-55828095D01*
X49445238Y-55780476D01*
X49350000Y-55685238D01*
X49302381Y-55542380D01*
X49302381Y-55447142D01*
X49350000Y-55304285D01*
X49397619Y-55256666D01*
X49302381Y-54923333D02*
X49302381Y-54256666D01*
X50302381Y-54685238D01*
X54087143Y-57936666D02*
X54134762Y-57984285D01*
X54182381Y-58127142D01*
X54182381Y-58222380D01*
X54134762Y-58365238D01*
X54039524Y-58460476D01*
X53944286Y-58508095D01*
X53753810Y-58555714D01*
X53610952Y-58555714D01*
X53420476Y-58508095D01*
X53325238Y-58460476D01*
X53230000Y-58365238D01*
X53182381Y-58222380D01*
X53182381Y-58127142D01*
X53230000Y-57984285D01*
X53277619Y-57936666D01*
X53610952Y-57365238D02*
X53563333Y-57460476D01*
X53515714Y-57508095D01*
X53420476Y-57555714D01*
X53372857Y-57555714D01*
X53277619Y-57508095D01*
X53230000Y-57460476D01*
X53182381Y-57365238D01*
X53182381Y-57174761D01*
X53230000Y-57079523D01*
X53277619Y-57031904D01*
X53372857Y-56984285D01*
X53420476Y-56984285D01*
X53515714Y-57031904D01*
X53563333Y-57079523D01*
X53610952Y-57174761D01*
X53610952Y-57365238D01*
X53658571Y-57460476D01*
X53706190Y-57508095D01*
X53801429Y-57555714D01*
X53991905Y-57555714D01*
X54087143Y-57508095D01*
X54134762Y-57460476D01*
X54182381Y-57365238D01*
X54182381Y-57174761D01*
X54134762Y-57079523D01*
X54087143Y-57031904D01*
X53991905Y-56984285D01*
X53801429Y-56984285D01*
X53706190Y-57031904D01*
X53658571Y-57079523D01*
X53610952Y-57174761D01*
X57657143Y-30157143D02*
X57609524Y-30204762D01*
X57466667Y-30252381D01*
X57371429Y-30252381D01*
X57228571Y-30204762D01*
X57133333Y-30109524D01*
X57085714Y-30014286D01*
X57038095Y-29823810D01*
X57038095Y-29680952D01*
X57085714Y-29490476D01*
X57133333Y-29395238D01*
X57228571Y-29300000D01*
X57371429Y-29252381D01*
X57466667Y-29252381D01*
X57609524Y-29300000D01*
X57657143Y-29347619D01*
X58609524Y-30252381D02*
X58038095Y-30252381D01*
X58323809Y-30252381D02*
X58323809Y-29252381D01*
X58228571Y-29395238D01*
X58133333Y-29490476D01*
X58038095Y-29538095D01*
X59466667Y-29585714D02*
X59466667Y-30252381D01*
X59228571Y-29204762D02*
X58990476Y-29919048D01*
X59609524Y-29919048D01*
X48683334Y-57672381D02*
X48350000Y-57196190D01*
X48111905Y-57672381D02*
X48111905Y-56672381D01*
X48492858Y-56672381D01*
X48588096Y-56720000D01*
X48635715Y-56767619D01*
X48683334Y-56862857D01*
X48683334Y-57005714D01*
X48635715Y-57100952D01*
X48588096Y-57148571D01*
X48492858Y-57196190D01*
X48111905Y-57196190D01*
X49635715Y-57672381D02*
X49064286Y-57672381D01*
X49350000Y-57672381D02*
X49350000Y-56672381D01*
X49254762Y-56815238D01*
X49159524Y-56910476D01*
X49064286Y-56958095D01*
X52793334Y-55582381D02*
X52460000Y-55106190D01*
X52221905Y-55582381D02*
X52221905Y-54582381D01*
X52602858Y-54582381D01*
X52698096Y-54630000D01*
X52745715Y-54677619D01*
X52793334Y-54772857D01*
X52793334Y-54915714D01*
X52745715Y-55010952D01*
X52698096Y-55058571D01*
X52602858Y-55106190D01*
X52221905Y-55106190D01*
X53174286Y-54677619D02*
X53221905Y-54630000D01*
X53317143Y-54582381D01*
X53555239Y-54582381D01*
X53650477Y-54630000D01*
X53698096Y-54677619D01*
X53745715Y-54772857D01*
X53745715Y-54868095D01*
X53698096Y-55010952D01*
X53126667Y-55582381D01*
X53745715Y-55582381D01*
X55432381Y-53306666D02*
X54956190Y-53640000D01*
X55432381Y-53878095D02*
X54432381Y-53878095D01*
X54432381Y-53497142D01*
X54480000Y-53401904D01*
X54527619Y-53354285D01*
X54622857Y-53306666D01*
X54765714Y-53306666D01*
X54860952Y-53354285D01*
X54908571Y-53401904D01*
X54956190Y-53497142D01*
X54956190Y-53878095D01*
X54432381Y-52973333D02*
X54432381Y-52354285D01*
X54813333Y-52687619D01*
X54813333Y-52544761D01*
X54860952Y-52449523D01*
X54908571Y-52401904D01*
X55003810Y-52354285D01*
X55241905Y-52354285D01*
X55337143Y-52401904D01*
X55384762Y-52449523D01*
X55432381Y-52544761D01*
X55432381Y-52830476D01*
X55384762Y-52925714D01*
X55337143Y-52973333D01*
X49823334Y-55542381D02*
X49490000Y-55066190D01*
X49251905Y-55542381D02*
X49251905Y-54542381D01*
X49632858Y-54542381D01*
X49728096Y-54590000D01*
X49775715Y-54637619D01*
X49823334Y-54732857D01*
X49823334Y-54875714D01*
X49775715Y-54970952D01*
X49728096Y-55018571D01*
X49632858Y-55066190D01*
X49251905Y-55066190D01*
X50680477Y-54875714D02*
X50680477Y-55542381D01*
X50442381Y-54494762D02*
X50204286Y-55209048D01*
X50823334Y-55209048D01*
X59082381Y-56346666D02*
X58606190Y-56680000D01*
X59082381Y-56918095D02*
X58082381Y-56918095D01*
X58082381Y-56537142D01*
X58130000Y-56441904D01*
X58177619Y-56394285D01*
X58272857Y-56346666D01*
X58415714Y-56346666D01*
X58510952Y-56394285D01*
X58558571Y-56441904D01*
X58606190Y-56537142D01*
X58606190Y-56918095D01*
X58082381Y-55441904D02*
X58082381Y-55918095D01*
X58558571Y-55965714D01*
X58510952Y-55918095D01*
X58463333Y-55822857D01*
X58463333Y-55584761D01*
X58510952Y-55489523D01*
X58558571Y-55441904D01*
X58653810Y-55394285D01*
X58891905Y-55394285D01*
X58987143Y-55441904D01*
X59034762Y-55489523D01*
X59082381Y-55584761D01*
X59082381Y-55822857D01*
X59034762Y-55918095D01*
X58987143Y-55965714D01*
X59802381Y-32566666D02*
X59326190Y-32900000D01*
X59802381Y-33138095D02*
X58802381Y-33138095D01*
X58802381Y-32757142D01*
X58850000Y-32661904D01*
X58897619Y-32614285D01*
X58992857Y-32566666D01*
X59135714Y-32566666D01*
X59230952Y-32614285D01*
X59278571Y-32661904D01*
X59326190Y-32757142D01*
X59326190Y-33138095D01*
X58802381Y-31709523D02*
X58802381Y-31900000D01*
X58850000Y-31995238D01*
X58897619Y-32042857D01*
X59040476Y-32138095D01*
X59230952Y-32185714D01*
X59611905Y-32185714D01*
X59707143Y-32138095D01*
X59754762Y-32090476D01*
X59802381Y-31995238D01*
X59802381Y-31804761D01*
X59754762Y-31709523D01*
X59707143Y-31661904D01*
X59611905Y-31614285D01*
X59373810Y-31614285D01*
X59278571Y-31661904D01*
X59230952Y-31709523D01*
X59183333Y-31804761D01*
X59183333Y-31995238D01*
X59230952Y-32090476D01*
X59278571Y-32138095D01*
X59373810Y-32185714D01*
X57133334Y-27302381D02*
X56800000Y-26826190D01*
X56561905Y-27302381D02*
X56561905Y-26302381D01*
X56942858Y-26302381D01*
X57038096Y-26350000D01*
X57085715Y-26397619D01*
X57133334Y-26492857D01*
X57133334Y-26635714D01*
X57085715Y-26730952D01*
X57038096Y-26778571D01*
X56942858Y-26826190D01*
X56561905Y-26826190D01*
X57466667Y-26302381D02*
X58133334Y-26302381D01*
X57704762Y-27302381D01*
X20822381Y-58526666D02*
X20346190Y-58860000D01*
X20822381Y-59098095D02*
X19822381Y-59098095D01*
X19822381Y-58717142D01*
X19870000Y-58621904D01*
X19917619Y-58574285D01*
X20012857Y-58526666D01*
X20155714Y-58526666D01*
X20250952Y-58574285D01*
X20298571Y-58621904D01*
X20346190Y-58717142D01*
X20346190Y-59098095D01*
X20250952Y-57955238D02*
X20203333Y-58050476D01*
X20155714Y-58098095D01*
X20060476Y-58145714D01*
X20012857Y-58145714D01*
X19917619Y-58098095D01*
X19870000Y-58050476D01*
X19822381Y-57955238D01*
X19822381Y-57764761D01*
X19870000Y-57669523D01*
X19917619Y-57621904D01*
X20012857Y-57574285D01*
X20060476Y-57574285D01*
X20155714Y-57621904D01*
X20203333Y-57669523D01*
X20250952Y-57764761D01*
X20250952Y-57955238D01*
X20298571Y-58050476D01*
X20346190Y-58098095D01*
X20441429Y-58145714D01*
X20631905Y-58145714D01*
X20727143Y-58098095D01*
X20774762Y-58050476D01*
X20822381Y-57955238D01*
X20822381Y-57764761D01*
X20774762Y-57669523D01*
X20727143Y-57621904D01*
X20631905Y-57574285D01*
X20441429Y-57574285D01*
X20346190Y-57621904D01*
X20298571Y-57669523D01*
X20250952Y-57764761D01*
X58502381Y-24566666D02*
X58026190Y-24900000D01*
X58502381Y-25138095D02*
X57502381Y-25138095D01*
X57502381Y-24757142D01*
X57550000Y-24661904D01*
X57597619Y-24614285D01*
X57692857Y-24566666D01*
X57835714Y-24566666D01*
X57930952Y-24614285D01*
X57978571Y-24661904D01*
X58026190Y-24757142D01*
X58026190Y-25138095D01*
X58502381Y-24090476D02*
X58502381Y-23900000D01*
X58454762Y-23804761D01*
X58407143Y-23757142D01*
X58264286Y-23661904D01*
X58073810Y-23614285D01*
X57692857Y-23614285D01*
X57597619Y-23661904D01*
X57550000Y-23709523D01*
X57502381Y-23804761D01*
X57502381Y-23995238D01*
X57550000Y-24090476D01*
X57597619Y-24138095D01*
X57692857Y-24185714D01*
X57930952Y-24185714D01*
X58026190Y-24138095D01*
X58073810Y-24090476D01*
X58121429Y-23995238D01*
X58121429Y-23804761D01*
X58073810Y-23709523D01*
X58026190Y-23661904D01*
X57930952Y-23614285D01*
X56657143Y-21102381D02*
X56323809Y-20626190D01*
X56085714Y-21102381D02*
X56085714Y-20102381D01*
X56466667Y-20102381D01*
X56561905Y-20150000D01*
X56609524Y-20197619D01*
X56657143Y-20292857D01*
X56657143Y-20435714D01*
X56609524Y-20530952D01*
X56561905Y-20578571D01*
X56466667Y-20626190D01*
X56085714Y-20626190D01*
X57609524Y-21102381D02*
X57038095Y-21102381D01*
X57323809Y-21102381D02*
X57323809Y-20102381D01*
X57228571Y-20245238D01*
X57133333Y-20340476D01*
X57038095Y-20388095D01*
X58228571Y-20102381D02*
X58323810Y-20102381D01*
X58419048Y-20150000D01*
X58466667Y-20197619D01*
X58514286Y-20292857D01*
X58561905Y-20483333D01*
X58561905Y-20721429D01*
X58514286Y-20911905D01*
X58466667Y-21007143D01*
X58419048Y-21054762D01*
X58323810Y-21102381D01*
X58228571Y-21102381D01*
X58133333Y-21054762D01*
X58085714Y-21007143D01*
X58038095Y-20911905D01*
X57990476Y-20721429D01*
X57990476Y-20483333D01*
X58038095Y-20292857D01*
X58085714Y-20197619D01*
X58133333Y-20150000D01*
X58228571Y-20102381D01*
X55847143Y-32582381D02*
X55513809Y-32106190D01*
X55275714Y-32582381D02*
X55275714Y-31582381D01*
X55656667Y-31582381D01*
X55751905Y-31630000D01*
X55799524Y-31677619D01*
X55847143Y-31772857D01*
X55847143Y-31915714D01*
X55799524Y-32010952D01*
X55751905Y-32058571D01*
X55656667Y-32106190D01*
X55275714Y-32106190D01*
X56180476Y-31582381D02*
X56799524Y-31582381D01*
X56466190Y-31963333D01*
X56609048Y-31963333D01*
X56704286Y-32010952D01*
X56751905Y-32058571D01*
X56799524Y-32153810D01*
X56799524Y-32391905D01*
X56751905Y-32487143D01*
X56704286Y-32534762D01*
X56609048Y-32582381D01*
X56323333Y-32582381D01*
X56228095Y-32534762D01*
X56180476Y-32487143D01*
X57132857Y-31582381D02*
X57751905Y-31582381D01*
X57418571Y-31963333D01*
X57561429Y-31963333D01*
X57656667Y-32010952D01*
X57704286Y-32058571D01*
X57751905Y-32153810D01*
X57751905Y-32391905D01*
X57704286Y-32487143D01*
X57656667Y-32534762D01*
X57561429Y-32582381D01*
X57275714Y-32582381D01*
X57180476Y-32534762D01*
X57132857Y-32487143D01*
X57757143Y-31202381D02*
X57423809Y-30726190D01*
X57185714Y-31202381D02*
X57185714Y-30202381D01*
X57566667Y-30202381D01*
X57661905Y-30250000D01*
X57709524Y-30297619D01*
X57757143Y-30392857D01*
X57757143Y-30535714D01*
X57709524Y-30630952D01*
X57661905Y-30678571D01*
X57566667Y-30726190D01*
X57185714Y-30726190D01*
X58090476Y-30202381D02*
X58709524Y-30202381D01*
X58376190Y-30583333D01*
X58519048Y-30583333D01*
X58614286Y-30630952D01*
X58661905Y-30678571D01*
X58709524Y-30773810D01*
X58709524Y-31011905D01*
X58661905Y-31107143D01*
X58614286Y-31154762D01*
X58519048Y-31202381D01*
X58233333Y-31202381D01*
X58138095Y-31154762D01*
X58090476Y-31107143D01*
X59566667Y-30535714D02*
X59566667Y-31202381D01*
X59328571Y-30154762D02*
X59090476Y-30869048D01*
X59709524Y-30869048D01*
X20799039Y-36438237D02*
X20916781Y-36344363D01*
X21046457Y-36144678D01*
X21058391Y-36038870D01*
X21044389Y-35972998D01*
X20990451Y-35881191D01*
X20910578Y-35829321D01*
X20804770Y-35817387D01*
X20738898Y-35831389D01*
X20647090Y-35885326D01*
X20503412Y-36019139D01*
X20411605Y-36073077D01*
X20345733Y-36087078D01*
X20239925Y-36075144D01*
X20160051Y-36023274D01*
X20106113Y-35931467D01*
X20092112Y-35865595D01*
X20104046Y-35759787D01*
X20233722Y-35560103D01*
X20351464Y-35466228D01*
X20493074Y-35160736D02*
X21461420Y-35505692D01*
X20966111Y-34956916D01*
X21668902Y-35186198D01*
X20959907Y-34441876D01*
X21115518Y-34202256D02*
X21478611Y-33643142D01*
X22083864Y-34547211D01*
X50994286Y-56532381D02*
X51565715Y-56532381D01*
X51280000Y-57532381D02*
X51280000Y-56532381D01*
X51899048Y-57532381D02*
X51899048Y-56532381D01*
X51899048Y-57008571D02*
X52470477Y-57008571D01*
X52470477Y-57532381D02*
X52470477Y-56532381D01*
X53470477Y-57532381D02*
X52899048Y-57532381D01*
X53184762Y-57532381D02*
X53184762Y-56532381D01*
X53089524Y-56675238D01*
X52994286Y-56770476D01*
X52899048Y-56818095D01*
X64288095Y-55512381D02*
X64288095Y-56321905D01*
X64335714Y-56417143D01*
X64383333Y-56464762D01*
X64478571Y-56512381D01*
X64669048Y-56512381D01*
X64764286Y-56464762D01*
X64811905Y-56417143D01*
X64859524Y-56321905D01*
X64859524Y-55512381D01*
X65288095Y-55607619D02*
X65335714Y-55560000D01*
X65430952Y-55512381D01*
X65669048Y-55512381D01*
X65764286Y-55560000D01*
X65811905Y-55607619D01*
X65859524Y-55702857D01*
X65859524Y-55798095D01*
X65811905Y-55940952D01*
X65240476Y-56512381D01*
X65859524Y-56512381D01*
X47882381Y-51751905D02*
X48691905Y-51751905D01*
X48787143Y-51704286D01*
X48834762Y-51656667D01*
X48882381Y-51561429D01*
X48882381Y-51370952D01*
X48834762Y-51275714D01*
X48787143Y-51228095D01*
X48691905Y-51180476D01*
X47882381Y-51180476D01*
X47882381Y-50228095D02*
X47882381Y-50704286D01*
X48358571Y-50751905D01*
X48310952Y-50704286D01*
X48263333Y-50609048D01*
X48263333Y-50370952D01*
X48310952Y-50275714D01*
X48358571Y-50228095D01*
X48453810Y-50180476D01*
X48691905Y-50180476D01*
X48787143Y-50228095D01*
X48834762Y-50275714D01*
X48882381Y-50370952D01*
X48882381Y-50609048D01*
X48834762Y-50704286D01*
X48787143Y-50751905D01*
X60038095Y-21552381D02*
X60038095Y-22361905D01*
X60085714Y-22457143D01*
X60133333Y-22504762D01*
X60228571Y-22552381D01*
X60419048Y-22552381D01*
X60514286Y-22504762D01*
X60561905Y-22457143D01*
X60609524Y-22361905D01*
X60609524Y-21552381D01*
X60990476Y-21552381D02*
X61657143Y-21552381D01*
X61228571Y-22552381D01*
X44212381Y-34444095D02*
X43212381Y-34444095D01*
X43212381Y-34063142D01*
X43260000Y-33967904D01*
X43307619Y-33920285D01*
X43402857Y-33872666D01*
X43545714Y-33872666D01*
X43640952Y-33920285D01*
X43688571Y-33967904D01*
X43736190Y-34063142D01*
X43736190Y-34444095D01*
X44212381Y-32920285D02*
X44212381Y-33491714D01*
X44212381Y-33206000D02*
X43212381Y-33206000D01*
X43355238Y-33301238D01*
X43450476Y-33396476D01*
X43498095Y-33491714D01*
X59961905Y-44102381D02*
X59961905Y-43102381D01*
X60342858Y-43102381D01*
X60438096Y-43150000D01*
X60485715Y-43197619D01*
X60533334Y-43292857D01*
X60533334Y-43435714D01*
X60485715Y-43530952D01*
X60438096Y-43578571D01*
X60342858Y-43626190D01*
X59961905Y-43626190D01*
X61390477Y-43435714D02*
X61390477Y-44102381D01*
X61152381Y-43054762D02*
X60914286Y-43769048D01*
X61533334Y-43769048D01*
X64965714Y-44080381D02*
X64965714Y-43080381D01*
X65346667Y-43080381D01*
X65441905Y-43128000D01*
X65489524Y-43175619D01*
X65537143Y-43270857D01*
X65537143Y-43413714D01*
X65489524Y-43508952D01*
X65441905Y-43556571D01*
X65346667Y-43604190D01*
X64965714Y-43604190D01*
X66489524Y-44080381D02*
X65918095Y-44080381D01*
X66203809Y-44080381D02*
X66203809Y-43080381D01*
X66108571Y-43223238D01*
X66013333Y-43318476D01*
X65918095Y-43366095D01*
X67394286Y-43080381D02*
X66918095Y-43080381D01*
X66870476Y-43556571D01*
X66918095Y-43508952D01*
X67013333Y-43461333D01*
X67251429Y-43461333D01*
X67346667Y-43508952D01*
X67394286Y-43556571D01*
X67441905Y-43651810D01*
X67441905Y-43889905D01*
X67394286Y-43985143D01*
X67346667Y-44032762D01*
X67251429Y-44080381D01*
X67013333Y-44080381D01*
X66918095Y-44032762D01*
X66870476Y-43985143D01*
X66918095Y-35108381D02*
X66918095Y-35917905D01*
X66965714Y-36013143D01*
X67013333Y-36060762D01*
X67108571Y-36108381D01*
X67299048Y-36108381D01*
X67394286Y-36060762D01*
X67441905Y-36013143D01*
X67489524Y-35917905D01*
X67489524Y-35108381D01*
X68394286Y-35441714D02*
X68394286Y-36108381D01*
X68156190Y-35060762D02*
X67918095Y-35775048D01*
X68537143Y-35775048D01*
X39438095Y-19952381D02*
X39438095Y-20761905D01*
X39485714Y-20857143D01*
X39533333Y-20904762D01*
X39628571Y-20952381D01*
X39819048Y-20952381D01*
X39914286Y-20904762D01*
X39961905Y-20857143D01*
X40009524Y-20761905D01*
X40009524Y-19952381D01*
X41009524Y-20952381D02*
X40438095Y-20952381D01*
X40723809Y-20952381D02*
X40723809Y-19952381D01*
X40628571Y-20095238D01*
X40533333Y-20190476D01*
X40438095Y-20238095D01*
X35452381Y-33361905D02*
X36261905Y-33361905D01*
X36357143Y-33314286D01*
X36404762Y-33266667D01*
X36452381Y-33171429D01*
X36452381Y-32980952D01*
X36404762Y-32885714D01*
X36357143Y-32838095D01*
X36261905Y-32790476D01*
X35452381Y-32790476D01*
X35452381Y-32409524D02*
X35452381Y-31790476D01*
X35833333Y-32123810D01*
X35833333Y-31980952D01*
X35880952Y-31885714D01*
X35928571Y-31838095D01*
X36023810Y-31790476D01*
X36261905Y-31790476D01*
X36357143Y-31838095D01*
X36404762Y-31885714D01*
X36452381Y-31980952D01*
X36452381Y-32266667D01*
X36404762Y-32361905D01*
X36357143Y-32409524D01*
X31377381Y-38698333D02*
X32091667Y-38698333D01*
X32234524Y-38745953D01*
X32329762Y-38841191D01*
X32377381Y-38984048D01*
X32377381Y-39079286D01*
X31472619Y-38269762D02*
X31425000Y-38222143D01*
X31377381Y-38126905D01*
X31377381Y-37888809D01*
X31425000Y-37793571D01*
X31472619Y-37745952D01*
X31567857Y-37698333D01*
X31663095Y-37698333D01*
X31805952Y-37745952D01*
X32377381Y-38317381D01*
X32377381Y-37698333D01*
X22821490Y-44989529D02*
X22294719Y-44743802D01*
X22326618Y-45275243D02*
X21826618Y-44409218D01*
X22156533Y-44218742D01*
X22262821Y-44212362D01*
X22327870Y-44229792D01*
X22416728Y-44288461D01*
X22488157Y-44412178D01*
X22494536Y-44518466D01*
X22477107Y-44583515D01*
X22418438Y-44672373D01*
X22088523Y-44862850D01*
X22930739Y-44321611D02*
X23219414Y-44154944D01*
X23605037Y-44537148D02*
X23192644Y-44775243D01*
X22692644Y-43909218D01*
X23105037Y-43671123D01*
X24002961Y-43702563D02*
X23714286Y-43869230D01*
X23976190Y-44322862D02*
X23476191Y-43456837D01*
X23888584Y-43218742D01*
X24342216Y-42956837D02*
X24461263Y-43163033D01*
X24207448Y-43199602D02*
X24461263Y-43163033D01*
X24619842Y-42961507D01*
X24432784Y-43399419D02*
X24461263Y-43163033D01*
X24680220Y-43256561D01*
X25002045Y-42575885D02*
X25121092Y-42782081D01*
X24867277Y-42818650D02*
X25121092Y-42782081D01*
X25279671Y-42580554D01*
X25092613Y-43018466D02*
X25121092Y-42782081D01*
X25340049Y-42875609D01*
X69054762Y-42333333D02*
X69102381Y-42190476D01*
X69102381Y-41952380D01*
X69054762Y-41857142D01*
X69007143Y-41809523D01*
X68911905Y-41761904D01*
X68816667Y-41761904D01*
X68721429Y-41809523D01*
X68673810Y-41857142D01*
X68626190Y-41952380D01*
X68578571Y-42142857D01*
X68530952Y-42238095D01*
X68483333Y-42285714D01*
X68388095Y-42333333D01*
X68292857Y-42333333D01*
X68197619Y-42285714D01*
X68150000Y-42238095D01*
X68102381Y-42142857D01*
X68102381Y-41904761D01*
X68150000Y-41761904D01*
X68102381Y-41428571D02*
X69102381Y-41190476D01*
X68388095Y-40999999D01*
X69102381Y-40809523D01*
X68102381Y-40571428D01*
X69102381Y-39666666D02*
X69102381Y-40238095D01*
X69102381Y-39952381D02*
X68102381Y-39952381D01*
X68245238Y-40047619D01*
X68340476Y-40142857D01*
X68388095Y-40238095D01*
X67047143Y-26432857D02*
X67094762Y-26480476D01*
X67142381Y-26623333D01*
X67142381Y-26718571D01*
X67094762Y-26861429D01*
X66999524Y-26956667D01*
X66904286Y-27004286D01*
X66713810Y-27051905D01*
X66570952Y-27051905D01*
X66380476Y-27004286D01*
X66285238Y-26956667D01*
X66190000Y-26861429D01*
X66142381Y-26718571D01*
X66142381Y-26623333D01*
X66190000Y-26480476D01*
X66237619Y-26432857D01*
X67142381Y-25480476D02*
X67142381Y-26051905D01*
X67142381Y-25766191D02*
X66142381Y-25766191D01*
X66285238Y-25861429D01*
X66380476Y-25956667D01*
X66428095Y-26051905D01*
X66142381Y-24861429D02*
X66142381Y-24766190D01*
X66190000Y-24670952D01*
X66237619Y-24623333D01*
X66332857Y-24575714D01*
X66523333Y-24528095D01*
X66761429Y-24528095D01*
X66951905Y-24575714D01*
X67047143Y-24623333D01*
X67094762Y-24670952D01*
X67142381Y-24766190D01*
X67142381Y-24861429D01*
X67094762Y-24956667D01*
X67047143Y-25004286D01*
X66951905Y-25051905D01*
X66761429Y-25099524D01*
X66523333Y-25099524D01*
X66332857Y-25051905D01*
X66237619Y-25004286D01*
X66190000Y-24956667D01*
X66142381Y-24861429D01*
X52777143Y-44077143D02*
X52729524Y-44124762D01*
X52586667Y-44172381D01*
X52491429Y-44172381D01*
X52348571Y-44124762D01*
X52253333Y-44029524D01*
X52205714Y-43934286D01*
X52158095Y-43743810D01*
X52158095Y-43600952D01*
X52205714Y-43410476D01*
X52253333Y-43315238D01*
X52348571Y-43220000D01*
X52491429Y-43172381D01*
X52586667Y-43172381D01*
X52729524Y-43220000D01*
X52777143Y-43267619D01*
X53729524Y-44172381D02*
X53158095Y-44172381D01*
X53443809Y-44172381D02*
X53443809Y-43172381D01*
X53348571Y-43315238D01*
X53253333Y-43410476D01*
X53158095Y-43458095D01*
X54681905Y-44172381D02*
X54110476Y-44172381D01*
X54396190Y-44172381D02*
X54396190Y-43172381D01*
X54300952Y-43315238D01*
X54205714Y-43410476D01*
X54110476Y-43458095D01*
%LPC*%
D13*
X27460000Y-67810000D03*
X28360000Y-71160000D03*
X35960000Y-67810000D03*
X35060000Y-71160000D03*
X28360000Y-64460000D03*
D14*
X52552000Y-63552000D03*
X47652000Y-63552000D03*
D15*
X41000000Y-64000000D03*
D16*
X42270000Y-64000000D03*
X41000000Y-65270000D03*
X42270000Y-65270000D03*
X41000000Y-66540000D03*
X42270000Y-66540000D03*
X41000000Y-67810000D03*
X42270000Y-67810000D03*
X41000000Y-69080000D03*
X42270000Y-69080000D03*
X41000000Y-70350000D03*
X42270000Y-70350000D03*
X41000000Y-71620000D03*
X42270000Y-71620000D03*
D17*
X34302000Y-52448000D03*
X34302000Y-47548000D03*
D18*
X78000000Y-59170000D03*
X40865000Y-78060622D03*
D19*
X61100000Y-22300000D03*
X59100000Y-22300000D03*
D20*
X36275000Y-29800000D03*
X39325000Y-29800000D03*
X43625000Y-29800000D03*
X40575000Y-29800000D03*
X27885000Y-40050000D03*
X30935000Y-40050000D03*
D19*
X43300000Y-31800000D03*
X41300000Y-31800000D03*
D20*
X31075000Y-27100000D03*
X34125000Y-27100000D03*
D19*
X31600000Y-25300000D03*
X33600000Y-25300000D03*
D21*
X46700000Y-53565000D03*
X46700000Y-56615000D03*
D22*
X55230000Y-58770000D03*
X55230000Y-56770000D03*
D19*
X57300000Y-31300000D03*
X59300000Y-31300000D03*
D23*
X47900000Y-58870000D03*
X49800000Y-58870000D03*
X52010000Y-56780000D03*
X53910000Y-56780000D03*
D24*
X56630000Y-54090000D03*
X56630000Y-52190000D03*
D23*
X49040000Y-56740000D03*
X50940000Y-56740000D03*
D24*
X56980000Y-55230000D03*
X56980000Y-57130000D03*
X61000000Y-33350000D03*
X61000000Y-31450000D03*
D23*
X56350000Y-28500000D03*
X58250000Y-28500000D03*
D24*
X22020000Y-59310000D03*
X22020000Y-57410000D03*
X56400000Y-23450000D03*
X56400000Y-25350000D03*
D23*
X56350000Y-22300000D03*
X58250000Y-22300000D03*
X55540000Y-33780000D03*
X57440000Y-33780000D03*
X57450000Y-32400000D03*
X59350000Y-32400000D03*
D13*
X24550000Y-33650000D03*
X23166617Y-35780223D03*
D23*
X51330000Y-58730000D03*
X53230000Y-58730000D03*
D25*
X65050000Y-71670000D03*
X58330000Y-64950000D03*
D26*
X50655000Y-54690000D03*
X51925000Y-54690000D03*
X53195000Y-54690000D03*
X54465000Y-54690000D03*
X54465000Y-47290000D03*
X53195000Y-47290000D03*
X51925000Y-47290000D03*
X50655000Y-47290000D03*
D27*
X58100000Y-23695000D03*
X58100000Y-24965000D03*
X58100000Y-26235000D03*
X58100000Y-27505000D03*
X63500000Y-27505000D03*
X63500000Y-26235000D03*
X63500000Y-24965000D03*
X63500000Y-23695000D03*
D14*
X47660000Y-34206000D03*
X52560000Y-34206000D03*
D18*
X60700000Y-47500000D03*
X60700000Y-52500000D03*
D17*
X65680000Y-47528000D03*
X65680000Y-52428000D03*
D13*
X69230000Y-30906000D03*
X69230000Y-34006000D03*
X66130000Y-34006000D03*
X66130000Y-30906000D03*
D28*
X43350000Y-25000000D03*
D29*
X37050000Y-25000000D03*
X37050000Y-27300000D03*
X37050000Y-22700000D03*
D30*
X31500000Y-35750000D03*
D31*
X31500000Y-29450000D03*
X29200000Y-29450000D03*
X33800000Y-29450000D03*
D15*
X33620000Y-39000000D03*
D16*
X33620000Y-37730000D03*
X34890000Y-39000000D03*
X34890000Y-37730000D03*
X36160000Y-39000000D03*
X36160000Y-37730000D03*
X37430000Y-39000000D03*
X37430000Y-37730000D03*
X38700000Y-39000000D03*
X38700000Y-37730000D03*
X39970000Y-39000000D03*
X39970000Y-37730000D03*
X41240000Y-39000000D03*
X41240000Y-37730000D03*
X42510000Y-39000000D03*
X42510000Y-37730000D03*
D18*
X22000000Y-40970000D03*
X72500000Y-41000000D03*
X77500000Y-41000000D03*
D22*
X65190000Y-24790000D03*
X65190000Y-26790000D03*
D19*
X52420000Y-45220000D03*
X54420000Y-45220000D03*
M02*
