G04 #@! TF.FileFunction,Legend,Bot*
%FSLAX46Y46*%
G04 Gerber Fmt 4.6, Leading zero omitted, Abs format (unit mm)*
G04 Created by KiCad (PCBNEW 4.0.7) date 06/01/18 20:16:30*
%MOMM*%
%LPD*%
G01*
G04 APERTURE LIST*
%ADD10C,0.100000*%
%ADD11C,0.150000*%
%ADD12C,0.120000*%
%ADD13C,1.524000*%
%ADD14R,1.000000X1.000000*%
%ADD15O,1.000000X1.000000*%
%ADD16R,2.400000X0.740000*%
%ADD17C,4.000000*%
%ADD18C,2.500000*%
G04 APERTURE END LIST*
D10*
D11*
X39910000Y-67810000D02*
G75*
G03X39910000Y-67810000I-8200000J0D01*
G01*
X41460000Y-67810000D02*
G75*
G03X41460000Y-67810000I-9750000J0D01*
G01*
D12*
X36865000Y-41785000D02*
X33335000Y-41785000D01*
X36865000Y-58415000D02*
X33335000Y-58415000D01*
X38190000Y-41850000D02*
X36865000Y-41850000D01*
X36865000Y-41785000D02*
X36865000Y-41850000D01*
X33335000Y-41785000D02*
X33335000Y-41850000D01*
X36865000Y-58350000D02*
X36865000Y-58415000D01*
X33335000Y-58350000D02*
X33335000Y-58415000D01*
D11*
X32471905Y-61662381D02*
X32471905Y-62471905D01*
X32424286Y-62567143D01*
X32376667Y-62614762D01*
X32281429Y-62662381D01*
X32090952Y-62662381D01*
X31995714Y-62614762D01*
X31948095Y-62567143D01*
X31900476Y-62471905D01*
X31900476Y-61662381D01*
X30995714Y-61662381D02*
X31186191Y-61662381D01*
X31281429Y-61710000D01*
X31329048Y-61757619D01*
X31424286Y-61900476D01*
X31471905Y-62090952D01*
X31471905Y-62471905D01*
X31424286Y-62567143D01*
X31376667Y-62614762D01*
X31281429Y-62662381D01*
X31090952Y-62662381D01*
X30995714Y-62614762D01*
X30948095Y-62567143D01*
X30900476Y-62471905D01*
X30900476Y-62233810D01*
X30948095Y-62138571D01*
X30995714Y-62090952D01*
X31090952Y-62043333D01*
X31281429Y-62043333D01*
X31376667Y-62090952D01*
X31424286Y-62138571D01*
X31471905Y-62233810D01*
X35433333Y-40237381D02*
X35433333Y-40951667D01*
X35480953Y-41094524D01*
X35576191Y-41189762D01*
X35719048Y-41237381D01*
X35814286Y-41237381D01*
X34433333Y-41237381D02*
X35004762Y-41237381D01*
X34719048Y-41237381D02*
X34719048Y-40237381D01*
X34814286Y-40380238D01*
X34909524Y-40475476D01*
X35004762Y-40523095D01*
%LPC*%
D13*
X27460000Y-67810000D03*
X28360000Y-71160000D03*
X35960000Y-67810000D03*
X35060000Y-71160000D03*
X28360000Y-64460000D03*
D14*
X41000000Y-64000000D03*
D15*
X42270000Y-64000000D03*
X41000000Y-65270000D03*
X42270000Y-65270000D03*
X41000000Y-66540000D03*
X42270000Y-66540000D03*
X41000000Y-67810000D03*
X42270000Y-67810000D03*
X41000000Y-69080000D03*
X42270000Y-69080000D03*
X41000000Y-70350000D03*
X42270000Y-70350000D03*
X41000000Y-71620000D03*
X42270000Y-71620000D03*
D16*
X37050000Y-42480000D03*
X33150000Y-42480000D03*
X37050000Y-43750000D03*
X33150000Y-43750000D03*
X37050000Y-45020000D03*
X33150000Y-45020000D03*
X37050000Y-46290000D03*
X33150000Y-46290000D03*
X37050000Y-47560000D03*
X33150000Y-47560000D03*
X37050000Y-48830000D03*
X33150000Y-48830000D03*
X37050000Y-50100000D03*
X33150000Y-50100000D03*
X37050000Y-51370000D03*
X33150000Y-51370000D03*
X37050000Y-52640000D03*
X33150000Y-52640000D03*
X37050000Y-53910000D03*
X33150000Y-53910000D03*
X37050000Y-55180000D03*
X33150000Y-55180000D03*
X37050000Y-56450000D03*
X33150000Y-56450000D03*
X37050000Y-57720000D03*
X33150000Y-57720000D03*
D17*
X78000000Y-59170000D03*
X40865000Y-78060622D03*
D13*
X24550000Y-33650000D03*
X23166617Y-35780223D03*
D18*
X65050000Y-71670000D03*
X58330000Y-64950000D03*
D17*
X60700000Y-47500000D03*
X60700000Y-52500000D03*
D13*
X69230000Y-30906000D03*
X69230000Y-34006000D03*
X66130000Y-34006000D03*
X66130000Y-30906000D03*
D14*
X33620000Y-39000000D03*
D15*
X33620000Y-37730000D03*
X34890000Y-39000000D03*
X34890000Y-37730000D03*
X36160000Y-39000000D03*
X36160000Y-37730000D03*
X37430000Y-39000000D03*
X37430000Y-37730000D03*
X38700000Y-39000000D03*
X38700000Y-37730000D03*
X39970000Y-39000000D03*
X39970000Y-37730000D03*
X41240000Y-39000000D03*
X41240000Y-37730000D03*
X42510000Y-39000000D03*
X42510000Y-37730000D03*
D17*
X22000000Y-40970000D03*
X72500000Y-41000000D03*
X77500000Y-41000000D03*
M02*
