G04 #@! TF.FileFunction,Paste,Top*
%FSLAX46Y46*%
G04 Gerber Fmt 4.6, Leading zero omitted, Abs format (unit mm)*
G04 Created by KiCad (PCBNEW 4.0.7) date 06/01/18 20:18:40*
%MOMM*%
%LPD*%
G01*
G04 APERTURE LIST*
%ADD10C,0.100000*%
%ADD11R,0.290000X1.500000*%
%ADD12R,1.500000X0.290000*%
%ADD13R,0.900000X0.800000*%
%ADD14R,1.250000X1.000000*%
%ADD15R,1.000000X1.250000*%
%ADD16R,5.500000X2.000000*%
%ADD17R,0.700000X1.300000*%
%ADD18R,1.300000X0.700000*%
%ADD19R,2.500000X1.950000*%
%ADD20R,1.950000X2.500000*%
%ADD21R,1.500000X4.200000*%
G04 APERTURE END LIST*
D10*
D11*
X39000000Y-61000000D03*
X39500000Y-61000000D03*
X40000000Y-61000000D03*
X40500000Y-61000000D03*
X41000000Y-61000000D03*
X41500000Y-61000000D03*
X42000000Y-61000000D03*
X42500000Y-61000000D03*
X43000000Y-61000000D03*
X43500000Y-61000000D03*
X44000000Y-61000000D03*
X44500000Y-61000000D03*
X45000000Y-61000000D03*
X45500000Y-61000000D03*
X46000000Y-61000000D03*
X46500000Y-61000000D03*
X47000000Y-61000000D03*
X47500000Y-61000000D03*
X48000000Y-61000000D03*
X48500000Y-61000000D03*
X49000000Y-61000000D03*
X49500000Y-61000000D03*
X50000000Y-61000000D03*
X50500000Y-61000000D03*
X51000000Y-61000000D03*
D12*
X53000000Y-59000000D03*
X53000000Y-58500000D03*
X53000000Y-58000000D03*
X53000000Y-57500000D03*
X53000000Y-57000000D03*
X53000000Y-56500000D03*
X53000000Y-56000000D03*
X53000000Y-55500000D03*
X53000000Y-55000000D03*
X53000000Y-54500000D03*
X53000000Y-54000000D03*
X53000000Y-53500000D03*
X53000000Y-53000000D03*
X53000000Y-52500000D03*
X53000000Y-52000000D03*
X53000000Y-51500000D03*
X53000000Y-51000000D03*
X53000000Y-50500000D03*
X53000000Y-50000000D03*
X53000000Y-49500000D03*
X53000000Y-49000000D03*
X53000000Y-48500000D03*
X53000000Y-48000000D03*
X53000000Y-47500000D03*
X53000000Y-47000000D03*
D11*
X51000000Y-45000000D03*
X50500000Y-45000000D03*
X50000000Y-45000000D03*
X49500000Y-45000000D03*
X49000000Y-45000000D03*
X48500000Y-45000000D03*
X48000000Y-45000000D03*
X47500000Y-45000000D03*
X47000000Y-45000000D03*
X46500000Y-45000000D03*
X46000000Y-45000000D03*
X45500000Y-45000000D03*
X45000000Y-45000000D03*
X44500000Y-45000000D03*
X44000000Y-45000000D03*
X43500000Y-45000000D03*
X43000000Y-45000000D03*
X42500000Y-45000000D03*
X42000000Y-45000000D03*
X41500000Y-45000000D03*
X41000000Y-45000000D03*
X40500000Y-45000000D03*
X40000000Y-45000000D03*
X39500000Y-45000000D03*
X39000000Y-45000000D03*
D12*
X37000000Y-47000000D03*
X37000000Y-47500000D03*
X37000000Y-48000000D03*
X37000000Y-48500000D03*
X37000000Y-49000000D03*
X37000000Y-49500000D03*
X37000000Y-50000000D03*
X37000000Y-50500000D03*
X37000000Y-51000000D03*
X37000000Y-51500000D03*
X37000000Y-52000000D03*
X37000000Y-52500000D03*
X37000000Y-53000000D03*
X37000000Y-53500000D03*
X37000000Y-54000000D03*
X37000000Y-54500000D03*
X37000000Y-55000000D03*
X37000000Y-55500000D03*
X37000000Y-56000000D03*
X37000000Y-56500000D03*
X37000000Y-57000000D03*
X37000000Y-57500000D03*
X37000000Y-58000000D03*
X37000000Y-58500000D03*
X37000000Y-59000000D03*
D13*
X23500000Y-45850000D03*
X23500000Y-47750000D03*
X25500000Y-46800000D03*
D14*
X35030000Y-57370000D03*
X35030000Y-59370000D03*
D15*
X55940000Y-44970000D03*
X57940000Y-44970000D03*
D14*
X55320000Y-58960000D03*
X55320000Y-56960000D03*
X35000000Y-48000000D03*
X35000000Y-50000000D03*
D15*
X44760000Y-63300000D03*
X46760000Y-63300000D03*
D16*
X66750000Y-52000000D03*
X57250000Y-52000000D03*
D17*
X57930000Y-47020000D03*
X56030000Y-47020000D03*
X45530000Y-77970000D03*
X47430000Y-77970000D03*
D13*
X23500000Y-50350000D03*
X23500000Y-52250000D03*
X25500000Y-51300000D03*
X23500000Y-59350000D03*
X23500000Y-61250000D03*
X25500000Y-60300000D03*
X23500000Y-54850000D03*
X23500000Y-56750000D03*
X25500000Y-55800000D03*
D18*
X26700000Y-51150000D03*
X26700000Y-53050000D03*
X22200000Y-61250000D03*
X22200000Y-59350000D03*
X22200000Y-47750000D03*
X22200000Y-45850000D03*
X22200000Y-56750000D03*
X22200000Y-54850000D03*
D19*
X50060000Y-66870000D03*
X50060000Y-63820000D03*
D20*
X29380000Y-58190000D03*
X32430000Y-58190000D03*
D21*
X34860000Y-53550000D03*
X31260000Y-53550000D03*
M02*
