M48
INCH,TZ
T1C0.016
T2C0.026
T3C0.130
%
G90
G05
T1
X8635Y-21087
X8654Y-21969
X8811Y-19126
X9185Y-23756
X9205Y-21079
X9402Y-20185
X9524Y-20941
X9630Y-19130
X9669Y-18323
X10130Y-17457
X10181Y-23106
X10484Y-18110
X10575Y-20496
X10610Y-22287
X10646Y-21335
X10665Y-19343
X10693Y-17287
X10800Y-17866
X10996Y-20835
X10997Y-19703
X11048Y-17564
X11290Y-17050
X11295Y-19323
X11341Y-18937
X11528Y-20230
X11541Y-17453
X11906Y-16331
X11980Y-18850
X12150Y-16587
X12153Y-22546
X12185Y-23217
X12370Y-16365
X12492Y-18886
X12666Y-16303
X12831Y-19157
X12842Y-19500
X12964Y-16248
X13102Y-17448
X13236Y-21734
X13238Y-17167
X13378Y-20268
X13724Y-21083
X13803Y-22202
X13937Y-18091
X14646Y-12953
X14676Y-18035
X14752Y-23696
X14961Y-13051
X15004Y-23272
X15122Y-29012
X15122Y-22776
X15161Y-22224
X15217Y-12441
X15236Y-19083
X15276Y-21260
X15315Y-12933
X15317Y-17197
X15374Y-21974
X15413Y-12185
X15583Y-20331
X15591Y-13091
X15602Y-23315
X15646Y-21039
X15681Y-24514
X15693Y-29028
X15709Y-12461
X15713Y-19685
X15823Y-28740
X15866Y-22150
X15929Y-19949
X16028Y-23476
X16105Y-24496
X16220Y-20669
X16488Y-18461
X16626Y-23228
X16755Y-24624
X16965Y-18874
X17023Y-21155
X17041Y-26628
X17126Y-17028
X17256Y-20531
X17276Y-23209
X17282Y-18209
X17283Y-28937
X17362Y-21122
X17657Y-21299
X17710Y-22959
X17846Y-23287
X17862Y-25963
X18071Y-26299
X18173Y-27248
X18268Y-28307
X18311Y-31185
X18330Y-21681
X18370Y-19728
X18409Y-26776
X18449Y-28598
X18516Y-20035
X18569Y-26496
X18728Y-22488
X19142Y-19807
X19154Y-28307
X19272Y-20949
X19303Y-25941
X19350Y-20563
X19400Y-20238
X19437Y-21961
X19583Y-19642
X19587Y-27004
X19739Y-24516
X20028Y-20346
X20087Y-27272
X20106Y-24465
X20122Y-20638
X20157Y-25898
X20205Y-19764
X20272Y-23272
X20295Y-21283
X20307Y-20941
X20354Y-18492
X20362Y-22598
X20709Y-24144
X20709Y-24453
X20945Y-23543
X21449Y-19799
X21461Y-21496
X21484Y-18220
X21484Y-23717
X21587Y-18657
X21587Y-21157
X21835Y-22799
X22043Y-19008
X22228Y-22713
X22449Y-22445
X22885Y-22461
X23142Y-18547
X23299Y-17795
X23839Y-20937
X24067Y-19909
X24437Y-19883
X24972Y-21043
T2
X13236Y-14854
X13236Y-15354
X13736Y-14854
X13736Y-15354
X13937Y-9803
X13937Y-10303
X13937Y-10803
X13937Y-11303
X13937Y-11803
X14236Y-14854
X14236Y-15354
X14437Y-9803
X14437Y-10303
X14437Y-10803
X14437Y-11303
X14437Y-11803
X14736Y-14854
X14736Y-15354
X15236Y-14854
X15236Y-15354
X15736Y-14854
X15736Y-15354
X16142Y-25197
X16142Y-25697
X16142Y-26197
X16142Y-26697
X16142Y-27197
X16142Y-27697
X16142Y-28197
X16236Y-14854
X16236Y-15354
X16642Y-25197
X16642Y-25697
X16642Y-26197
X16642Y-26697
X16642Y-27197
X16642Y-27697
X16642Y-28197
X16736Y-14854
X16736Y-15354
X17520Y-29724
X18020Y-29724
X18520Y-29724
X19020Y-29724
X19520Y-29724
X20020Y-29724
X20520Y-29724
X21020Y-29724
X25197Y-15748
X25197Y-16248
X25197Y-16748
X25197Y-17248
T3
X8661Y-16102
X16102Y-30709
X30709Y-23268
T0
M30
