G04 #@! TF.FileFunction,Soldermask,Top*
%FSLAX46Y46*%
G04 Gerber Fmt 4.6, Leading zero omitted, Abs format (unit mm)*
G04 Created by KiCad (PCBNEW 4.0.7) date 06/01/18 20:18:40*
%MOMM*%
%LPD*%
G01*
G04 APERTURE LIST*
%ADD10C,0.100000*%
%ADD11R,0.690000X1.900000*%
%ADD12R,1.900000X0.690000*%
%ADD13R,1.400000X1.400000*%
%ADD14O,1.400000X1.400000*%
%ADD15R,1.300000X1.200000*%
%ADD16R,1.650000X1.400000*%
%ADD17R,1.400000X1.650000*%
%ADD18R,5.900000X2.400000*%
%ADD19R,1.100000X1.700000*%
%ADD20C,4.400000*%
%ADD21R,1.700000X1.100000*%
%ADD22R,2.900000X2.350000*%
%ADD23R,2.350000X2.900000*%
%ADD24R,1.900000X4.600000*%
G04 APERTURE END LIST*
D10*
D11*
X39000000Y-61000000D03*
X39500000Y-61000000D03*
X40000000Y-61000000D03*
X40500000Y-61000000D03*
X41000000Y-61000000D03*
X41500000Y-61000000D03*
X42000000Y-61000000D03*
X42500000Y-61000000D03*
X43000000Y-61000000D03*
X43500000Y-61000000D03*
X44000000Y-61000000D03*
X44500000Y-61000000D03*
X45000000Y-61000000D03*
X45500000Y-61000000D03*
X46000000Y-61000000D03*
X46500000Y-61000000D03*
X47000000Y-61000000D03*
X47500000Y-61000000D03*
X48000000Y-61000000D03*
X48500000Y-61000000D03*
X49000000Y-61000000D03*
X49500000Y-61000000D03*
X50000000Y-61000000D03*
X50500000Y-61000000D03*
X51000000Y-61000000D03*
D12*
X53000000Y-59000000D03*
X53000000Y-58500000D03*
X53000000Y-58000000D03*
X53000000Y-57500000D03*
X53000000Y-57000000D03*
X53000000Y-56500000D03*
X53000000Y-56000000D03*
X53000000Y-55500000D03*
X53000000Y-55000000D03*
X53000000Y-54500000D03*
X53000000Y-54000000D03*
X53000000Y-53500000D03*
X53000000Y-53000000D03*
X53000000Y-52500000D03*
X53000000Y-52000000D03*
X53000000Y-51500000D03*
X53000000Y-51000000D03*
X53000000Y-50500000D03*
X53000000Y-50000000D03*
X53000000Y-49500000D03*
X53000000Y-49000000D03*
X53000000Y-48500000D03*
X53000000Y-48000000D03*
X53000000Y-47500000D03*
X53000000Y-47000000D03*
D11*
X51000000Y-45000000D03*
X50500000Y-45000000D03*
X50000000Y-45000000D03*
X49500000Y-45000000D03*
X49000000Y-45000000D03*
X48500000Y-45000000D03*
X48000000Y-45000000D03*
X47500000Y-45000000D03*
X47000000Y-45000000D03*
X46500000Y-45000000D03*
X46000000Y-45000000D03*
X45500000Y-45000000D03*
X45000000Y-45000000D03*
X44500000Y-45000000D03*
X44000000Y-45000000D03*
X43500000Y-45000000D03*
X43000000Y-45000000D03*
X42500000Y-45000000D03*
X42000000Y-45000000D03*
X41500000Y-45000000D03*
X41000000Y-45000000D03*
X40500000Y-45000000D03*
X40000000Y-45000000D03*
X39500000Y-45000000D03*
X39000000Y-45000000D03*
D12*
X37000000Y-47000000D03*
X37000000Y-47500000D03*
X37000000Y-48000000D03*
X37000000Y-48500000D03*
X37000000Y-49000000D03*
X37000000Y-49500000D03*
X37000000Y-50000000D03*
X37000000Y-50500000D03*
X37000000Y-51000000D03*
X37000000Y-51500000D03*
X37000000Y-52000000D03*
X37000000Y-52500000D03*
X37000000Y-53000000D03*
X37000000Y-53500000D03*
X37000000Y-54000000D03*
X37000000Y-54500000D03*
X37000000Y-55000000D03*
X37000000Y-55500000D03*
X37000000Y-56000000D03*
X37000000Y-56500000D03*
X37000000Y-57000000D03*
X37000000Y-57500000D03*
X37000000Y-58000000D03*
X37000000Y-58500000D03*
X37000000Y-59000000D03*
D13*
X41000000Y-64000000D03*
D14*
X42270000Y-64000000D03*
X41000000Y-65270000D03*
X42270000Y-65270000D03*
X41000000Y-66540000D03*
X42270000Y-66540000D03*
X41000000Y-67810000D03*
X42270000Y-67810000D03*
X41000000Y-69080000D03*
X42270000Y-69080000D03*
X41000000Y-70350000D03*
X42270000Y-70350000D03*
X41000000Y-71620000D03*
X42270000Y-71620000D03*
D15*
X23500000Y-45850000D03*
X23500000Y-47750000D03*
X25500000Y-46800000D03*
D16*
X35030000Y-57370000D03*
X35030000Y-59370000D03*
D13*
X33620000Y-39000000D03*
D14*
X33620000Y-37730000D03*
X34890000Y-39000000D03*
X34890000Y-37730000D03*
X36160000Y-39000000D03*
X36160000Y-37730000D03*
X37430000Y-39000000D03*
X37430000Y-37730000D03*
X38700000Y-39000000D03*
X38700000Y-37730000D03*
X39970000Y-39000000D03*
X39970000Y-37730000D03*
X41240000Y-39000000D03*
X41240000Y-37730000D03*
X42510000Y-39000000D03*
X42510000Y-37730000D03*
D17*
X55940000Y-44970000D03*
X57940000Y-44970000D03*
D16*
X55320000Y-58960000D03*
X55320000Y-56960000D03*
X35000000Y-48000000D03*
X35000000Y-50000000D03*
D17*
X44760000Y-63300000D03*
X46760000Y-63300000D03*
D18*
X66750000Y-52000000D03*
X57250000Y-52000000D03*
D13*
X35400000Y-24900000D03*
D14*
X36670000Y-24900000D03*
X35400000Y-26170000D03*
X36670000Y-26170000D03*
X35400000Y-27440000D03*
X36670000Y-27440000D03*
X35400000Y-28710000D03*
X36670000Y-28710000D03*
X35400000Y-29980000D03*
X36670000Y-29980000D03*
D19*
X57930000Y-47020000D03*
X56030000Y-47020000D03*
X45530000Y-77970000D03*
X47430000Y-77970000D03*
D15*
X23500000Y-50350000D03*
X23500000Y-52250000D03*
X25500000Y-51300000D03*
X23500000Y-59350000D03*
X23500000Y-61250000D03*
X25500000Y-60300000D03*
X23500000Y-54850000D03*
X23500000Y-56750000D03*
X25500000Y-55800000D03*
D20*
X40900000Y-78000000D03*
X78000000Y-59100000D03*
X22000000Y-40900000D03*
D13*
X44500000Y-75500000D03*
D14*
X45770000Y-75500000D03*
X47040000Y-75500000D03*
X48310000Y-75500000D03*
X49580000Y-75500000D03*
X50850000Y-75500000D03*
X52120000Y-75500000D03*
X53390000Y-75500000D03*
D13*
X64000000Y-40000000D03*
D14*
X64000000Y-41270000D03*
X64000000Y-42540000D03*
X64000000Y-43810000D03*
D21*
X26700000Y-51150000D03*
X26700000Y-53050000D03*
X22200000Y-61250000D03*
X22200000Y-59350000D03*
X22200000Y-47750000D03*
X22200000Y-45850000D03*
X22200000Y-56750000D03*
X22200000Y-54850000D03*
D22*
X50060000Y-66870000D03*
X50060000Y-63820000D03*
D23*
X29380000Y-58190000D03*
X32430000Y-58190000D03*
D24*
X34860000Y-53550000D03*
X31260000Y-53550000D03*
M02*
