G04 #@! TF.FileFunction,Legend,Top*
%FSLAX46Y46*%
G04 Gerber Fmt 4.6, Leading zero omitted, Abs format (unit mm)*
G04 Created by KiCad (PCBNEW 4.0.7) date 06/01/18 20:18:40*
%MOMM*%
%LPD*%
G01*
G04 APERTURE LIST*
%ADD10C,0.100000*%
%ADD11C,0.254000*%
%ADD12C,0.120000*%
%ADD13C,0.150000*%
%ADD14C,0.050000*%
%ADD15R,0.690000X1.900000*%
%ADD16R,1.900000X0.690000*%
%ADD17R,1.400000X1.400000*%
%ADD18O,1.400000X1.400000*%
%ADD19R,1.300000X1.200000*%
%ADD20R,1.650000X1.400000*%
%ADD21R,1.400000X1.650000*%
%ADD22R,5.900000X2.400000*%
%ADD23R,1.100000X1.700000*%
%ADD24C,4.400000*%
%ADD25R,1.700000X1.100000*%
%ADD26R,2.900000X2.350000*%
%ADD27R,2.350000X2.900000*%
%ADD28R,1.900000X4.600000*%
G04 APERTURE END LIST*
D10*
D11*
X38000000Y-60000000D02*
X38000000Y-46000000D01*
X38000000Y-46000000D02*
X52000000Y-46000000D01*
X52000000Y-46000000D02*
X52000000Y-60000000D01*
X52000000Y-60000000D02*
X38000000Y-60000000D01*
X39249900Y-59000000D02*
G75*
G03X39249900Y-59000000I-249900J0D01*
G01*
D10*
X38104000Y-61300000D02*
G75*
G03X38104000Y-61300000I-254000J0D01*
G01*
D12*
X39870000Y-72315000D02*
X40692470Y-72315000D01*
X42577530Y-72315000D02*
X43400000Y-72315000D01*
X41307530Y-72315000D02*
X41962470Y-72315000D01*
X39870000Y-64760000D02*
X39870000Y-72315000D01*
X43400000Y-63305000D02*
X43400000Y-72315000D01*
X39870000Y-64760000D02*
X40436529Y-64760000D01*
X41563471Y-64760000D02*
X41706529Y-64760000D01*
X41760000Y-64706529D02*
X41760000Y-64563471D01*
X41760000Y-63436529D02*
X41760000Y-63305000D01*
X41760000Y-63305000D02*
X41962470Y-63305000D01*
X42577530Y-63305000D02*
X43400000Y-63305000D01*
X39870000Y-64000000D02*
X39870000Y-63240000D01*
X39870000Y-63240000D02*
X41000000Y-63240000D01*
X25260000Y-48380000D02*
X25260000Y-47450000D01*
X25260000Y-45220000D02*
X25260000Y-46150000D01*
X25260000Y-45220000D02*
X23100000Y-45220000D01*
X25260000Y-48380000D02*
X23800000Y-48380000D01*
X35880000Y-58870000D02*
X35880000Y-57870000D01*
X34180000Y-57870000D02*
X34180000Y-58870000D01*
X43205000Y-40130000D02*
X43205000Y-39307530D01*
X43205000Y-37422470D02*
X43205000Y-36600000D01*
X43205000Y-38692470D02*
X43205000Y-38037530D01*
X34380000Y-40130000D02*
X43205000Y-40130000D01*
X32925000Y-36600000D02*
X43205000Y-36600000D01*
X34380000Y-40130000D02*
X34380000Y-39563471D01*
X34380000Y-38436529D02*
X34380000Y-38293471D01*
X34326529Y-38240000D02*
X34183471Y-38240000D01*
X33056529Y-38240000D02*
X32925000Y-38240000D01*
X32925000Y-38240000D02*
X32925000Y-38037530D01*
X32925000Y-37422470D02*
X32925000Y-36600000D01*
X33620000Y-40130000D02*
X32860000Y-40130000D01*
X32860000Y-40130000D02*
X32860000Y-39000000D01*
X57440000Y-44120000D02*
X56440000Y-44120000D01*
X56440000Y-45820000D02*
X57440000Y-45820000D01*
X54470000Y-57460000D02*
X54470000Y-58460000D01*
X56170000Y-58460000D02*
X56170000Y-57460000D01*
X35850000Y-49500000D02*
X35850000Y-48500000D01*
X34150000Y-48500000D02*
X34150000Y-49500000D01*
X46260000Y-62450000D02*
X45260000Y-62450000D01*
X45260000Y-64150000D02*
X46260000Y-64150000D01*
X65300000Y-54740000D02*
X58700000Y-54740000D01*
X65300000Y-49260000D02*
X58700000Y-49260000D01*
X69800000Y-54800000D02*
X69800000Y-49200000D01*
X34270000Y-30675000D02*
X35092470Y-30675000D01*
X36977530Y-30675000D02*
X37800000Y-30675000D01*
X35707530Y-30675000D02*
X36362470Y-30675000D01*
X34270000Y-25660000D02*
X34270000Y-30675000D01*
X37800000Y-24205000D02*
X37800000Y-30675000D01*
X34270000Y-25660000D02*
X34836529Y-25660000D01*
X35963471Y-25660000D02*
X36106529Y-25660000D01*
X36160000Y-25606529D02*
X36160000Y-25463471D01*
X36160000Y-24336529D02*
X36160000Y-24205000D01*
X36160000Y-24205000D02*
X36362470Y-24205000D01*
X36977530Y-24205000D02*
X37800000Y-24205000D01*
X34270000Y-24900000D02*
X34270000Y-24140000D01*
X34270000Y-24140000D02*
X35400000Y-24140000D01*
X56380000Y-46140000D02*
X57580000Y-46140000D01*
X57580000Y-47900000D02*
X56380000Y-47900000D01*
X47080000Y-78850000D02*
X45880000Y-78850000D01*
X45880000Y-77090000D02*
X47080000Y-77090000D01*
X25260000Y-52880000D02*
X25260000Y-51950000D01*
X25260000Y-49720000D02*
X25260000Y-50650000D01*
X25260000Y-49720000D02*
X23100000Y-49720000D01*
X25260000Y-52880000D02*
X23800000Y-52880000D01*
X25260000Y-61880000D02*
X25260000Y-60950000D01*
X25260000Y-58720000D02*
X25260000Y-59650000D01*
X25260000Y-58720000D02*
X23100000Y-58720000D01*
X25260000Y-61880000D02*
X23800000Y-61880000D01*
X25260000Y-57380000D02*
X25260000Y-56450000D01*
X25260000Y-54220000D02*
X25260000Y-55150000D01*
X25260000Y-54220000D02*
X23100000Y-54220000D01*
X25260000Y-57380000D02*
X23800000Y-57380000D01*
D13*
X40900000Y-80598000D02*
X43150000Y-79299000D01*
X38650000Y-79299000D02*
X40900000Y-80598000D01*
X38650000Y-76701000D02*
X40900000Y-75402000D01*
X40900000Y-75402000D02*
X43150000Y-76701000D01*
X38650000Y-76701000D02*
X38650000Y-79299000D01*
X43150000Y-76701000D02*
X43150000Y-79299000D01*
X80598000Y-59100000D02*
X79299000Y-56850000D01*
X79299000Y-61350000D02*
X80598000Y-59100000D01*
X76701000Y-61350000D02*
X75402000Y-59100000D01*
X75402000Y-59100000D02*
X76701000Y-56850000D01*
X76701000Y-61350000D02*
X79299000Y-61350000D01*
X76701000Y-56850000D02*
X79299000Y-56850000D01*
X24598000Y-40900000D02*
X23299000Y-38650000D01*
X23299000Y-43150000D02*
X24598000Y-40900000D01*
X20701000Y-43150000D02*
X19402000Y-40900000D01*
X19402000Y-40900000D02*
X20701000Y-38650000D01*
X20701000Y-43150000D02*
X23299000Y-43150000D01*
X20701000Y-38650000D02*
X23299000Y-38650000D01*
D12*
X54085000Y-76610000D02*
X54085000Y-75807530D01*
X54085000Y-75192470D02*
X54085000Y-74390000D01*
X45260000Y-76610000D02*
X54085000Y-76610000D01*
X45260000Y-74390000D02*
X54085000Y-74390000D01*
X45260000Y-76610000D02*
X45260000Y-76063471D01*
X45260000Y-74936529D02*
X45260000Y-74390000D01*
X44500000Y-76610000D02*
X43740000Y-76610000D01*
X43740000Y-76610000D02*
X43740000Y-75500000D01*
X62890000Y-44505000D02*
X63692470Y-44505000D01*
X64307530Y-44505000D02*
X65110000Y-44505000D01*
X62890000Y-40760000D02*
X62890000Y-44505000D01*
X65110000Y-40760000D02*
X65110000Y-44505000D01*
X62890000Y-40760000D02*
X63436529Y-40760000D01*
X64563471Y-40760000D02*
X65110000Y-40760000D01*
X62890000Y-40000000D02*
X62890000Y-39240000D01*
X62890000Y-39240000D02*
X64000000Y-39240000D01*
X25820000Y-52700000D02*
X25820000Y-51500000D01*
X27580000Y-51500000D02*
X27580000Y-52700000D01*
X23080000Y-59700000D02*
X23080000Y-60900000D01*
X21320000Y-60900000D02*
X21320000Y-59700000D01*
X23080000Y-46200000D02*
X23080000Y-47400000D01*
X21320000Y-47400000D02*
X21320000Y-46200000D01*
X23080000Y-55200000D02*
X23080000Y-56400000D01*
X21320000Y-56400000D02*
X21320000Y-55200000D01*
X48410000Y-68145000D02*
X48410000Y-63595000D01*
X51710000Y-68145000D02*
X51710000Y-63595000D01*
X48410000Y-68145000D02*
X51710000Y-68145000D01*
X28105000Y-56540000D02*
X32655000Y-56540000D01*
X28105000Y-59840000D02*
X32655000Y-59840000D01*
X28105000Y-56540000D02*
X28105000Y-59840000D01*
X35610000Y-56100000D02*
X30510000Y-56100000D01*
X35610000Y-51000000D02*
X30510000Y-51000000D01*
D14*
X35655269Y-60455859D02*
X34653969Y-60455859D01*
X35559907Y-59406878D02*
X35607588Y-59454559D01*
X35655269Y-59597602D01*
X35655269Y-59692964D01*
X35607588Y-59836006D01*
X35512226Y-59931368D01*
X35416864Y-59979049D01*
X35226140Y-60026730D01*
X35083098Y-60026730D01*
X34892374Y-59979049D01*
X34797012Y-59931368D01*
X34701650Y-59836006D01*
X34653969Y-59692964D01*
X34653969Y-59597602D01*
X34701650Y-59454559D01*
X34749331Y-59406878D01*
X35655269Y-58453259D02*
X35655269Y-59025430D01*
X35655269Y-58739344D02*
X34653969Y-58739344D01*
X34797012Y-58834706D01*
X34892374Y-58930068D01*
X34940055Y-59025430D01*
X55014345Y-64384579D02*
X55014345Y-63907308D01*
X55300708Y-64480034D02*
X54298438Y-64145944D01*
X55300708Y-63811854D01*
X54298438Y-63620945D02*
X54298438Y-63048219D01*
X55300708Y-63334582D02*
X54298438Y-63334582D01*
X55300708Y-62714129D02*
X54298438Y-62714129D01*
X55014345Y-62380039D01*
X54298438Y-62045949D01*
X55300708Y-62045949D01*
X54775709Y-61568678D02*
X54775709Y-61234588D01*
X55300708Y-61091407D02*
X55300708Y-61568678D01*
X54298438Y-61568678D01*
X54298438Y-61091407D01*
X54346165Y-60136864D02*
X54298438Y-60232318D01*
X54298438Y-60375499D01*
X54346165Y-60518681D01*
X54441619Y-60614135D01*
X54537074Y-60661862D01*
X54727982Y-60709589D01*
X54871164Y-60709589D01*
X55062072Y-60661862D01*
X55157526Y-60614135D01*
X55252981Y-60518681D01*
X55300708Y-60375499D01*
X55300708Y-60280045D01*
X55252981Y-60136864D01*
X55205254Y-60089137D01*
X54871164Y-60089137D01*
X54871164Y-60280045D01*
X55014345Y-59707319D02*
X55014345Y-59230048D01*
X55300708Y-59802774D02*
X54298438Y-59468684D01*
X55300708Y-59134594D01*
X54393892Y-58848230D02*
X54346165Y-58800503D01*
X54298438Y-58705049D01*
X54298438Y-58466413D01*
X54346165Y-58370959D01*
X54393892Y-58323232D01*
X54489346Y-58275505D01*
X54584801Y-58275505D01*
X54727982Y-58323232D01*
X55300708Y-58895958D01*
X55300708Y-58275505D01*
X54298438Y-57368689D02*
X54298438Y-57845960D01*
X54775709Y-57893687D01*
X54727982Y-57845960D01*
X54680255Y-57750506D01*
X54680255Y-57511870D01*
X54727982Y-57416416D01*
X54775709Y-57368689D01*
X54871164Y-57320962D01*
X55109799Y-57320962D01*
X55205254Y-57368689D01*
X55252981Y-57416416D01*
X55300708Y-57511870D01*
X55300708Y-57750506D01*
X55252981Y-57845960D01*
X55205254Y-57893687D01*
X54298438Y-56461873D02*
X54298438Y-56652782D01*
X54346165Y-56748236D01*
X54393892Y-56795963D01*
X54537074Y-56891417D01*
X54727982Y-56939144D01*
X55109799Y-56939144D01*
X55205254Y-56891417D01*
X55252981Y-56843690D01*
X55300708Y-56748236D01*
X55300708Y-56557327D01*
X55252981Y-56461873D01*
X55205254Y-56414146D01*
X55109799Y-56366419D01*
X54871164Y-56366419D01*
X54775709Y-56414146D01*
X54727982Y-56461873D01*
X54680255Y-56557327D01*
X54680255Y-56748236D01*
X54727982Y-56843690D01*
X54775709Y-56891417D01*
X54871164Y-56939144D01*
X54298438Y-55745966D02*
X54298438Y-55650511D01*
X54346165Y-55555057D01*
X54393892Y-55507330D01*
X54489346Y-55459603D01*
X54680255Y-55411876D01*
X54918891Y-55411876D01*
X55109799Y-55459603D01*
X55205254Y-55507330D01*
X55252981Y-55555057D01*
X55300708Y-55650511D01*
X55300708Y-55745966D01*
X55252981Y-55841420D01*
X55205254Y-55889147D01*
X55109799Y-55936874D01*
X54918891Y-55984601D01*
X54680255Y-55984601D01*
X54489346Y-55936874D01*
X54393892Y-55889147D01*
X54346165Y-55841420D01*
X54298438Y-55745966D01*
X54918891Y-54982331D02*
X54918891Y-54218697D01*
X55014345Y-53789152D02*
X55014345Y-53311881D01*
X55300708Y-53884607D02*
X54298438Y-53550517D01*
X55300708Y-53216427D01*
D13*
X41301667Y-61757381D02*
X41301667Y-62471667D01*
X41254047Y-62614524D01*
X41158809Y-62709762D01*
X41015952Y-62757381D01*
X40920714Y-62757381D01*
X42206429Y-62090714D02*
X42206429Y-62757381D01*
X41968333Y-61709762D02*
X41730238Y-62424048D01*
X42349286Y-62424048D01*
X24404762Y-44847619D02*
X24309524Y-44800000D01*
X24214286Y-44704762D01*
X24071429Y-44561905D01*
X23976190Y-44514286D01*
X23880952Y-44514286D01*
X23928571Y-44752381D02*
X23833333Y-44704762D01*
X23738095Y-44609524D01*
X23690476Y-44419048D01*
X23690476Y-44085714D01*
X23738095Y-43895238D01*
X23833333Y-43800000D01*
X23928571Y-43752381D01*
X24119048Y-43752381D01*
X24214286Y-43800000D01*
X24309524Y-43895238D01*
X24357143Y-44085714D01*
X24357143Y-44419048D01*
X24309524Y-44609524D01*
X24214286Y-44704762D01*
X24119048Y-44752381D01*
X23928571Y-44752381D01*
X24690476Y-43752381D02*
X25309524Y-43752381D01*
X24976190Y-44133333D01*
X25119048Y-44133333D01*
X25214286Y-44180952D01*
X25261905Y-44228571D01*
X25309524Y-44323810D01*
X25309524Y-44561905D01*
X25261905Y-44657143D01*
X25214286Y-44704762D01*
X25119048Y-44752381D01*
X24833333Y-44752381D01*
X24738095Y-44704762D01*
X24690476Y-44657143D01*
X36887143Y-58536666D02*
X36934762Y-58584285D01*
X36982381Y-58727142D01*
X36982381Y-58822380D01*
X36934762Y-58965238D01*
X36839524Y-59060476D01*
X36744286Y-59108095D01*
X36553810Y-59155714D01*
X36410952Y-59155714D01*
X36220476Y-59108095D01*
X36125238Y-59060476D01*
X36030000Y-58965238D01*
X35982381Y-58822380D01*
X35982381Y-58727142D01*
X36030000Y-58584285D01*
X36077619Y-58536666D01*
X35982381Y-58203333D02*
X35982381Y-57536666D01*
X36982381Y-57965238D01*
X31377381Y-38698333D02*
X32091667Y-38698333D01*
X32234524Y-38745953D01*
X32329762Y-38841191D01*
X32377381Y-38984048D01*
X32377381Y-39079286D01*
X31472619Y-38269762D02*
X31425000Y-38222143D01*
X31377381Y-38126905D01*
X31377381Y-37888809D01*
X31425000Y-37793571D01*
X31472619Y-37745952D01*
X31567857Y-37698333D01*
X31663095Y-37698333D01*
X31805952Y-37745952D01*
X32377381Y-38317381D01*
X32377381Y-37698333D01*
X56773334Y-43827143D02*
X56725715Y-43874762D01*
X56582858Y-43922381D01*
X56487620Y-43922381D01*
X56344762Y-43874762D01*
X56249524Y-43779524D01*
X56201905Y-43684286D01*
X56154286Y-43493810D01*
X56154286Y-43350952D01*
X56201905Y-43160476D01*
X56249524Y-43065238D01*
X56344762Y-42970000D01*
X56487620Y-42922381D01*
X56582858Y-42922381D01*
X56725715Y-42970000D01*
X56773334Y-43017619D01*
X57725715Y-43922381D02*
X57154286Y-43922381D01*
X57440000Y-43922381D02*
X57440000Y-42922381D01*
X57344762Y-43065238D01*
X57249524Y-43160476D01*
X57154286Y-43208095D01*
X54177143Y-58126666D02*
X54224762Y-58174285D01*
X54272381Y-58317142D01*
X54272381Y-58412380D01*
X54224762Y-58555238D01*
X54129524Y-58650476D01*
X54034286Y-58698095D01*
X53843810Y-58745714D01*
X53700952Y-58745714D01*
X53510476Y-58698095D01*
X53415238Y-58650476D01*
X53320000Y-58555238D01*
X53272381Y-58412380D01*
X53272381Y-58317142D01*
X53320000Y-58174285D01*
X53367619Y-58126666D01*
X53605714Y-57269523D02*
X54272381Y-57269523D01*
X53224762Y-57507619D02*
X53939048Y-57745714D01*
X53939048Y-57126666D01*
X36857143Y-49166666D02*
X36904762Y-49214285D01*
X36952381Y-49357142D01*
X36952381Y-49452380D01*
X36904762Y-49595238D01*
X36809524Y-49690476D01*
X36714286Y-49738095D01*
X36523810Y-49785714D01*
X36380952Y-49785714D01*
X36190476Y-49738095D01*
X36095238Y-49690476D01*
X36000000Y-49595238D01*
X35952381Y-49452380D01*
X35952381Y-49357142D01*
X36000000Y-49214285D01*
X36047619Y-49166666D01*
X35952381Y-48261904D02*
X35952381Y-48738095D01*
X36428571Y-48785714D01*
X36380952Y-48738095D01*
X36333333Y-48642857D01*
X36333333Y-48404761D01*
X36380952Y-48309523D01*
X36428571Y-48261904D01*
X36523810Y-48214285D01*
X36761905Y-48214285D01*
X36857143Y-48261904D01*
X36904762Y-48309523D01*
X36952381Y-48404761D01*
X36952381Y-48642857D01*
X36904762Y-48738095D01*
X36857143Y-48785714D01*
X45593334Y-62157143D02*
X45545715Y-62204762D01*
X45402858Y-62252381D01*
X45307620Y-62252381D01*
X45164762Y-62204762D01*
X45069524Y-62109524D01*
X45021905Y-62014286D01*
X44974286Y-61823810D01*
X44974286Y-61680952D01*
X45021905Y-61490476D01*
X45069524Y-61395238D01*
X45164762Y-61300000D01*
X45307620Y-61252381D01*
X45402858Y-61252381D01*
X45545715Y-61300000D01*
X45593334Y-61347619D01*
X46450477Y-61252381D02*
X46260000Y-61252381D01*
X46164762Y-61300000D01*
X46117143Y-61347619D01*
X46021905Y-61490476D01*
X45974286Y-61680952D01*
X45974286Y-62061905D01*
X46021905Y-62157143D01*
X46069524Y-62204762D01*
X46164762Y-62252381D01*
X46355239Y-62252381D01*
X46450477Y-62204762D01*
X46498096Y-62157143D01*
X46545715Y-62061905D01*
X46545715Y-61823810D01*
X46498096Y-61728571D01*
X46450477Y-61680952D01*
X46355239Y-61633333D01*
X46164762Y-61633333D01*
X46069524Y-61680952D01*
X46021905Y-61728571D01*
X45974286Y-61823810D01*
X59571429Y-56157143D02*
X59523810Y-56204762D01*
X59380953Y-56252381D01*
X59285715Y-56252381D01*
X59142857Y-56204762D01*
X59047619Y-56109524D01*
X59000000Y-56014286D01*
X58952381Y-55823810D01*
X58952381Y-55680952D01*
X59000000Y-55490476D01*
X59047619Y-55395238D01*
X59142857Y-55300000D01*
X59285715Y-55252381D01*
X59380953Y-55252381D01*
X59523810Y-55300000D01*
X59571429Y-55347619D01*
X59952381Y-56204762D02*
X60095238Y-56252381D01*
X60333334Y-56252381D01*
X60428572Y-56204762D01*
X60476191Y-56157143D01*
X60523810Y-56061905D01*
X60523810Y-55966667D01*
X60476191Y-55871429D01*
X60428572Y-55823810D01*
X60333334Y-55776190D01*
X60142857Y-55728571D01*
X60047619Y-55680952D01*
X60000000Y-55633333D01*
X59952381Y-55538095D01*
X59952381Y-55442857D01*
X60000000Y-55347619D01*
X60047619Y-55300000D01*
X60142857Y-55252381D01*
X60380953Y-55252381D01*
X60523810Y-55300000D01*
X60809524Y-55252381D02*
X61380953Y-55252381D01*
X61095238Y-56252381D02*
X61095238Y-55252381D01*
X61714286Y-55728571D02*
X62047620Y-55728571D01*
X62190477Y-56252381D02*
X61714286Y-56252381D01*
X61714286Y-55252381D01*
X62190477Y-55252381D01*
X63190477Y-56157143D02*
X63142858Y-56204762D01*
X63000001Y-56252381D01*
X62904763Y-56252381D01*
X62761905Y-56204762D01*
X62666667Y-56109524D01*
X62619048Y-56014286D01*
X62571429Y-55823810D01*
X62571429Y-55680952D01*
X62619048Y-55490476D01*
X62666667Y-55395238D01*
X62761905Y-55300000D01*
X62904763Y-55252381D01*
X63000001Y-55252381D01*
X63142858Y-55300000D01*
X63190477Y-55347619D01*
X63619048Y-55728571D02*
X63952382Y-55728571D01*
X64095239Y-56252381D02*
X63619048Y-56252381D01*
X63619048Y-55252381D01*
X64095239Y-55252381D01*
X65047620Y-56252381D02*
X64476191Y-56252381D01*
X64761905Y-56252381D02*
X64761905Y-55252381D01*
X64666667Y-55395238D01*
X64571429Y-55490476D01*
X64476191Y-55538095D01*
X35701667Y-22657381D02*
X35701667Y-23371667D01*
X35654047Y-23514524D01*
X35558809Y-23609762D01*
X35415952Y-23657381D01*
X35320714Y-23657381D01*
X36701667Y-23657381D02*
X36130238Y-23657381D01*
X36415952Y-23657381D02*
X36415952Y-22657381D01*
X36320714Y-22800238D01*
X36225476Y-22895476D01*
X36130238Y-22943095D01*
X56813334Y-49122381D02*
X56480000Y-48646190D01*
X56241905Y-49122381D02*
X56241905Y-48122381D01*
X56622858Y-48122381D01*
X56718096Y-48170000D01*
X56765715Y-48217619D01*
X56813334Y-48312857D01*
X56813334Y-48455714D01*
X56765715Y-48550952D01*
X56718096Y-48598571D01*
X56622858Y-48646190D01*
X56241905Y-48646190D01*
X57765715Y-49122381D02*
X57194286Y-49122381D01*
X57480000Y-49122381D02*
X57480000Y-48122381D01*
X57384762Y-48265238D01*
X57289524Y-48360476D01*
X57194286Y-48408095D01*
X46313334Y-76772381D02*
X45980000Y-76296190D01*
X45741905Y-76772381D02*
X45741905Y-75772381D01*
X46122858Y-75772381D01*
X46218096Y-75820000D01*
X46265715Y-75867619D01*
X46313334Y-75962857D01*
X46313334Y-76105714D01*
X46265715Y-76200952D01*
X46218096Y-76248571D01*
X46122858Y-76296190D01*
X45741905Y-76296190D01*
X46694286Y-75867619D02*
X46741905Y-75820000D01*
X46837143Y-75772381D01*
X47075239Y-75772381D01*
X47170477Y-75820000D01*
X47218096Y-75867619D01*
X47265715Y-75962857D01*
X47265715Y-76058095D01*
X47218096Y-76200952D01*
X46646667Y-76772381D01*
X47265715Y-76772381D01*
X24404762Y-49347619D02*
X24309524Y-49300000D01*
X24214286Y-49204762D01*
X24071429Y-49061905D01*
X23976190Y-49014286D01*
X23880952Y-49014286D01*
X23928571Y-49252381D02*
X23833333Y-49204762D01*
X23738095Y-49109524D01*
X23690476Y-48919048D01*
X23690476Y-48585714D01*
X23738095Y-48395238D01*
X23833333Y-48300000D01*
X23928571Y-48252381D01*
X24119048Y-48252381D01*
X24214286Y-48300000D01*
X24309524Y-48395238D01*
X24357143Y-48585714D01*
X24357143Y-48919048D01*
X24309524Y-49109524D01*
X24214286Y-49204762D01*
X24119048Y-49252381D01*
X23928571Y-49252381D01*
X25309524Y-49252381D02*
X24738095Y-49252381D01*
X25023809Y-49252381D02*
X25023809Y-48252381D01*
X24928571Y-48395238D01*
X24833333Y-48490476D01*
X24738095Y-48538095D01*
X24404762Y-58347619D02*
X24309524Y-58300000D01*
X24214286Y-58204762D01*
X24071429Y-58061905D01*
X23976190Y-58014286D01*
X23880952Y-58014286D01*
X23928571Y-58252381D02*
X23833333Y-58204762D01*
X23738095Y-58109524D01*
X23690476Y-57919048D01*
X23690476Y-57585714D01*
X23738095Y-57395238D01*
X23833333Y-57300000D01*
X23928571Y-57252381D01*
X24119048Y-57252381D01*
X24214286Y-57300000D01*
X24309524Y-57395238D01*
X24357143Y-57585714D01*
X24357143Y-57919048D01*
X24309524Y-58109524D01*
X24214286Y-58204762D01*
X24119048Y-58252381D01*
X23928571Y-58252381D01*
X24738095Y-57347619D02*
X24785714Y-57300000D01*
X24880952Y-57252381D01*
X25119048Y-57252381D01*
X25214286Y-57300000D01*
X25261905Y-57347619D01*
X25309524Y-57442857D01*
X25309524Y-57538095D01*
X25261905Y-57680952D01*
X24690476Y-58252381D01*
X25309524Y-58252381D01*
X24404762Y-53847619D02*
X24309524Y-53800000D01*
X24214286Y-53704762D01*
X24071429Y-53561905D01*
X23976190Y-53514286D01*
X23880952Y-53514286D01*
X23928571Y-53752381D02*
X23833333Y-53704762D01*
X23738095Y-53609524D01*
X23690476Y-53419048D01*
X23690476Y-53085714D01*
X23738095Y-52895238D01*
X23833333Y-52800000D01*
X23928571Y-52752381D01*
X24119048Y-52752381D01*
X24214286Y-52800000D01*
X24309524Y-52895238D01*
X24357143Y-53085714D01*
X24357143Y-53419048D01*
X24309524Y-53609524D01*
X24214286Y-53704762D01*
X24119048Y-53752381D01*
X23928571Y-53752381D01*
X25214286Y-53085714D02*
X25214286Y-53752381D01*
X24976190Y-52704762D02*
X24738095Y-53419048D01*
X25357143Y-53419048D01*
X39566667Y-81952381D02*
X39233333Y-81476190D01*
X38995238Y-81952381D02*
X38995238Y-80952381D01*
X39376191Y-80952381D01*
X39471429Y-81000000D01*
X39519048Y-81047619D01*
X39566667Y-81142857D01*
X39566667Y-81285714D01*
X39519048Y-81380952D01*
X39471429Y-81428571D01*
X39376191Y-81476190D01*
X38995238Y-81476190D01*
X39995238Y-81428571D02*
X40328572Y-81428571D01*
X40471429Y-81952381D02*
X39995238Y-81952381D01*
X39995238Y-80952381D01*
X40471429Y-80952381D01*
X41233334Y-81428571D02*
X40900000Y-81428571D01*
X40900000Y-81952381D02*
X40900000Y-80952381D01*
X41376191Y-80952381D01*
X41900000Y-80952381D02*
X41900000Y-81190476D01*
X41661905Y-81095238D02*
X41900000Y-81190476D01*
X42138096Y-81095238D01*
X41757143Y-81380952D02*
X41900000Y-81190476D01*
X42042858Y-81380952D01*
X42661905Y-80952381D02*
X42661905Y-81190476D01*
X42423810Y-81095238D02*
X42661905Y-81190476D01*
X42900001Y-81095238D01*
X42519048Y-81380952D02*
X42661905Y-81190476D01*
X42804763Y-81380952D01*
X81952381Y-60433333D02*
X81476190Y-60766667D01*
X81952381Y-61004762D02*
X80952381Y-61004762D01*
X80952381Y-60623809D01*
X81000000Y-60528571D01*
X81047619Y-60480952D01*
X81142857Y-60433333D01*
X81285714Y-60433333D01*
X81380952Y-60480952D01*
X81428571Y-60528571D01*
X81476190Y-60623809D01*
X81476190Y-61004762D01*
X81428571Y-60004762D02*
X81428571Y-59671428D01*
X81952381Y-59528571D02*
X81952381Y-60004762D01*
X80952381Y-60004762D01*
X80952381Y-59528571D01*
X81428571Y-58766666D02*
X81428571Y-59100000D01*
X81952381Y-59100000D02*
X80952381Y-59100000D01*
X80952381Y-58623809D01*
X80952381Y-58100000D02*
X81190476Y-58100000D01*
X81095238Y-58338095D02*
X81190476Y-58100000D01*
X81095238Y-57861904D01*
X81380952Y-58242857D02*
X81190476Y-58100000D01*
X81380952Y-57957142D01*
X80952381Y-57338095D02*
X81190476Y-57338095D01*
X81095238Y-57576190D02*
X81190476Y-57338095D01*
X81095238Y-57099999D01*
X81380952Y-57480952D02*
X81190476Y-57338095D01*
X81380952Y-57195237D01*
X25952381Y-42233333D02*
X25476190Y-42566667D01*
X25952381Y-42804762D02*
X24952381Y-42804762D01*
X24952381Y-42423809D01*
X25000000Y-42328571D01*
X25047619Y-42280952D01*
X25142857Y-42233333D01*
X25285714Y-42233333D01*
X25380952Y-42280952D01*
X25428571Y-42328571D01*
X25476190Y-42423809D01*
X25476190Y-42804762D01*
X25428571Y-41804762D02*
X25428571Y-41471428D01*
X25952381Y-41328571D02*
X25952381Y-41804762D01*
X24952381Y-41804762D01*
X24952381Y-41328571D01*
X25428571Y-40566666D02*
X25428571Y-40900000D01*
X25952381Y-40900000D02*
X24952381Y-40900000D01*
X24952381Y-40423809D01*
X24952381Y-39900000D02*
X25190476Y-39900000D01*
X25095238Y-40138095D02*
X25190476Y-39900000D01*
X25095238Y-39661904D01*
X25380952Y-40042857D02*
X25190476Y-39900000D01*
X25380952Y-39757142D01*
X24952381Y-39138095D02*
X25190476Y-39138095D01*
X25095238Y-39376190D02*
X25190476Y-39138095D01*
X25095238Y-38899999D01*
X25380952Y-39280952D02*
X25190476Y-39138095D01*
X25380952Y-38995237D01*
X42257381Y-75833333D02*
X42971667Y-75833333D01*
X43114524Y-75880953D01*
X43209762Y-75976191D01*
X43257381Y-76119048D01*
X43257381Y-76214286D01*
X42257381Y-75452381D02*
X42257381Y-74833333D01*
X42638333Y-75166667D01*
X42638333Y-75023809D01*
X42685952Y-74928571D01*
X42733571Y-74880952D01*
X42828810Y-74833333D01*
X43066905Y-74833333D01*
X43162143Y-74880952D01*
X43209762Y-74928571D01*
X43257381Y-75023809D01*
X43257381Y-75309524D01*
X43209762Y-75404762D01*
X43162143Y-75452381D01*
X63666667Y-37757381D02*
X63666667Y-38471667D01*
X63619047Y-38614524D01*
X63523809Y-38709762D01*
X63380952Y-38757381D01*
X63285714Y-38757381D01*
X64619048Y-37757381D02*
X64142857Y-37757381D01*
X64095238Y-38233571D01*
X64142857Y-38185952D01*
X64238095Y-38138333D01*
X64476191Y-38138333D01*
X64571429Y-38185952D01*
X64619048Y-38233571D01*
X64666667Y-38328810D01*
X64666667Y-38566905D01*
X64619048Y-38662143D01*
X64571429Y-38709762D01*
X64476191Y-38757381D01*
X64238095Y-38757381D01*
X64142857Y-38709762D01*
X64095238Y-38662143D01*
X28802381Y-52266666D02*
X28326190Y-52600000D01*
X28802381Y-52838095D02*
X27802381Y-52838095D01*
X27802381Y-52457142D01*
X27850000Y-52361904D01*
X27897619Y-52314285D01*
X27992857Y-52266666D01*
X28135714Y-52266666D01*
X28230952Y-52314285D01*
X28278571Y-52361904D01*
X28326190Y-52457142D01*
X28326190Y-52838095D01*
X27802381Y-51361904D02*
X27802381Y-51838095D01*
X28278571Y-51885714D01*
X28230952Y-51838095D01*
X28183333Y-51742857D01*
X28183333Y-51504761D01*
X28230952Y-51409523D01*
X28278571Y-51361904D01*
X28373810Y-51314285D01*
X28611905Y-51314285D01*
X28707143Y-51361904D01*
X28754762Y-51409523D01*
X28802381Y-51504761D01*
X28802381Y-51742857D01*
X28754762Y-51838095D01*
X28707143Y-51885714D01*
X21002381Y-60466666D02*
X20526190Y-60800000D01*
X21002381Y-61038095D02*
X20002381Y-61038095D01*
X20002381Y-60657142D01*
X20050000Y-60561904D01*
X20097619Y-60514285D01*
X20192857Y-60466666D01*
X20335714Y-60466666D01*
X20430952Y-60514285D01*
X20478571Y-60561904D01*
X20526190Y-60657142D01*
X20526190Y-61038095D01*
X21002381Y-59990476D02*
X21002381Y-59800000D01*
X20954762Y-59704761D01*
X20907143Y-59657142D01*
X20764286Y-59561904D01*
X20573810Y-59514285D01*
X20192857Y-59514285D01*
X20097619Y-59561904D01*
X20050000Y-59609523D01*
X20002381Y-59704761D01*
X20002381Y-59895238D01*
X20050000Y-59990476D01*
X20097619Y-60038095D01*
X20192857Y-60085714D01*
X20430952Y-60085714D01*
X20526190Y-60038095D01*
X20573810Y-59990476D01*
X20621429Y-59895238D01*
X20621429Y-59704761D01*
X20573810Y-59609523D01*
X20526190Y-59561904D01*
X20430952Y-59514285D01*
X21002381Y-47442857D02*
X20526190Y-47776191D01*
X21002381Y-48014286D02*
X20002381Y-48014286D01*
X20002381Y-47633333D01*
X20050000Y-47538095D01*
X20097619Y-47490476D01*
X20192857Y-47442857D01*
X20335714Y-47442857D01*
X20430952Y-47490476D01*
X20478571Y-47538095D01*
X20526190Y-47633333D01*
X20526190Y-48014286D01*
X21002381Y-46490476D02*
X21002381Y-47061905D01*
X21002381Y-46776191D02*
X20002381Y-46776191D01*
X20145238Y-46871429D01*
X20240476Y-46966667D01*
X20288095Y-47061905D01*
X20002381Y-45871429D02*
X20002381Y-45776190D01*
X20050000Y-45680952D01*
X20097619Y-45633333D01*
X20192857Y-45585714D01*
X20383333Y-45538095D01*
X20621429Y-45538095D01*
X20811905Y-45585714D01*
X20907143Y-45633333D01*
X20954762Y-45680952D01*
X21002381Y-45776190D01*
X21002381Y-45871429D01*
X20954762Y-45966667D01*
X20907143Y-46014286D01*
X20811905Y-46061905D01*
X20621429Y-46109524D01*
X20383333Y-46109524D01*
X20192857Y-46061905D01*
X20097619Y-46014286D01*
X20050000Y-45966667D01*
X20002381Y-45871429D01*
X21002381Y-56442857D02*
X20526190Y-56776191D01*
X21002381Y-57014286D02*
X20002381Y-57014286D01*
X20002381Y-56633333D01*
X20050000Y-56538095D01*
X20097619Y-56490476D01*
X20192857Y-56442857D01*
X20335714Y-56442857D01*
X20430952Y-56490476D01*
X20478571Y-56538095D01*
X20526190Y-56633333D01*
X20526190Y-57014286D01*
X21002381Y-55490476D02*
X21002381Y-56061905D01*
X21002381Y-55776191D02*
X20002381Y-55776191D01*
X20145238Y-55871429D01*
X20240476Y-55966667D01*
X20288095Y-56061905D01*
X20097619Y-55109524D02*
X20050000Y-55061905D01*
X20002381Y-54966667D01*
X20002381Y-54728571D01*
X20050000Y-54633333D01*
X20097619Y-54585714D01*
X20192857Y-54538095D01*
X20288095Y-54538095D01*
X20430952Y-54585714D01*
X21002381Y-55157143D01*
X21002381Y-54538095D01*
X47267143Y-65511666D02*
X47314762Y-65559285D01*
X47362381Y-65702142D01*
X47362381Y-65797380D01*
X47314762Y-65940238D01*
X47219524Y-66035476D01*
X47124286Y-66083095D01*
X46933810Y-66130714D01*
X46790952Y-66130714D01*
X46600476Y-66083095D01*
X46505238Y-66035476D01*
X46410000Y-65940238D01*
X46362381Y-65797380D01*
X46362381Y-65702142D01*
X46410000Y-65559285D01*
X46457619Y-65511666D01*
X46790952Y-64940238D02*
X46743333Y-65035476D01*
X46695714Y-65083095D01*
X46600476Y-65130714D01*
X46552857Y-65130714D01*
X46457619Y-65083095D01*
X46410000Y-65035476D01*
X46362381Y-64940238D01*
X46362381Y-64749761D01*
X46410000Y-64654523D01*
X46457619Y-64606904D01*
X46552857Y-64559285D01*
X46600476Y-64559285D01*
X46695714Y-64606904D01*
X46743333Y-64654523D01*
X46790952Y-64749761D01*
X46790952Y-64940238D01*
X46838571Y-65035476D01*
X46886190Y-65083095D01*
X46981429Y-65130714D01*
X47171905Y-65130714D01*
X47267143Y-65083095D01*
X47314762Y-65035476D01*
X47362381Y-64940238D01*
X47362381Y-64749761D01*
X47314762Y-64654523D01*
X47267143Y-64606904D01*
X47171905Y-64559285D01*
X46981429Y-64559285D01*
X46886190Y-64606904D01*
X46838571Y-64654523D01*
X46790952Y-64749761D01*
X30738334Y-55397143D02*
X30690715Y-55444762D01*
X30547858Y-55492381D01*
X30452620Y-55492381D01*
X30309762Y-55444762D01*
X30214524Y-55349524D01*
X30166905Y-55254286D01*
X30119286Y-55063810D01*
X30119286Y-54920952D01*
X30166905Y-54730476D01*
X30214524Y-54635238D01*
X30309762Y-54540000D01*
X30452620Y-54492381D01*
X30547858Y-54492381D01*
X30690715Y-54540000D01*
X30738334Y-54587619D01*
X31214524Y-55492381D02*
X31405000Y-55492381D01*
X31500239Y-55444762D01*
X31547858Y-55397143D01*
X31643096Y-55254286D01*
X31690715Y-55063810D01*
X31690715Y-54682857D01*
X31643096Y-54587619D01*
X31595477Y-54540000D01*
X31500239Y-54492381D01*
X31309762Y-54492381D01*
X31214524Y-54540000D01*
X31166905Y-54587619D01*
X31119286Y-54682857D01*
X31119286Y-54920952D01*
X31166905Y-55016190D01*
X31214524Y-55063810D01*
X31309762Y-55111429D01*
X31500239Y-55111429D01*
X31595477Y-55063810D01*
X31643096Y-55016190D01*
X31690715Y-54920952D01*
X32893334Y-57452381D02*
X32417143Y-57452381D01*
X32417143Y-56452381D01*
X33750477Y-57452381D02*
X33179048Y-57452381D01*
X33464762Y-57452381D02*
X33464762Y-56452381D01*
X33369524Y-56595238D01*
X33274286Y-56690476D01*
X33179048Y-56738095D01*
%LPC*%
D15*
X39000000Y-61000000D03*
X39500000Y-61000000D03*
X40000000Y-61000000D03*
X40500000Y-61000000D03*
X41000000Y-61000000D03*
X41500000Y-61000000D03*
X42000000Y-61000000D03*
X42500000Y-61000000D03*
X43000000Y-61000000D03*
X43500000Y-61000000D03*
X44000000Y-61000000D03*
X44500000Y-61000000D03*
X45000000Y-61000000D03*
X45500000Y-61000000D03*
X46000000Y-61000000D03*
X46500000Y-61000000D03*
X47000000Y-61000000D03*
X47500000Y-61000000D03*
X48000000Y-61000000D03*
X48500000Y-61000000D03*
X49000000Y-61000000D03*
X49500000Y-61000000D03*
X50000000Y-61000000D03*
X50500000Y-61000000D03*
X51000000Y-61000000D03*
D16*
X53000000Y-59000000D03*
X53000000Y-58500000D03*
X53000000Y-58000000D03*
X53000000Y-57500000D03*
X53000000Y-57000000D03*
X53000000Y-56500000D03*
X53000000Y-56000000D03*
X53000000Y-55500000D03*
X53000000Y-55000000D03*
X53000000Y-54500000D03*
X53000000Y-54000000D03*
X53000000Y-53500000D03*
X53000000Y-53000000D03*
X53000000Y-52500000D03*
X53000000Y-52000000D03*
X53000000Y-51500000D03*
X53000000Y-51000000D03*
X53000000Y-50500000D03*
X53000000Y-50000000D03*
X53000000Y-49500000D03*
X53000000Y-49000000D03*
X53000000Y-48500000D03*
X53000000Y-48000000D03*
X53000000Y-47500000D03*
X53000000Y-47000000D03*
D15*
X51000000Y-45000000D03*
X50500000Y-45000000D03*
X50000000Y-45000000D03*
X49500000Y-45000000D03*
X49000000Y-45000000D03*
X48500000Y-45000000D03*
X48000000Y-45000000D03*
X47500000Y-45000000D03*
X47000000Y-45000000D03*
X46500000Y-45000000D03*
X46000000Y-45000000D03*
X45500000Y-45000000D03*
X45000000Y-45000000D03*
X44500000Y-45000000D03*
X44000000Y-45000000D03*
X43500000Y-45000000D03*
X43000000Y-45000000D03*
X42500000Y-45000000D03*
X42000000Y-45000000D03*
X41500000Y-45000000D03*
X41000000Y-45000000D03*
X40500000Y-45000000D03*
X40000000Y-45000000D03*
X39500000Y-45000000D03*
X39000000Y-45000000D03*
D16*
X37000000Y-47000000D03*
X37000000Y-47500000D03*
X37000000Y-48000000D03*
X37000000Y-48500000D03*
X37000000Y-49000000D03*
X37000000Y-49500000D03*
X37000000Y-50000000D03*
X37000000Y-50500000D03*
X37000000Y-51000000D03*
X37000000Y-51500000D03*
X37000000Y-52000000D03*
X37000000Y-52500000D03*
X37000000Y-53000000D03*
X37000000Y-53500000D03*
X37000000Y-54000000D03*
X37000000Y-54500000D03*
X37000000Y-55000000D03*
X37000000Y-55500000D03*
X37000000Y-56000000D03*
X37000000Y-56500000D03*
X37000000Y-57000000D03*
X37000000Y-57500000D03*
X37000000Y-58000000D03*
X37000000Y-58500000D03*
X37000000Y-59000000D03*
D17*
X41000000Y-64000000D03*
D18*
X42270000Y-64000000D03*
X41000000Y-65270000D03*
X42270000Y-65270000D03*
X41000000Y-66540000D03*
X42270000Y-66540000D03*
X41000000Y-67810000D03*
X42270000Y-67810000D03*
X41000000Y-69080000D03*
X42270000Y-69080000D03*
X41000000Y-70350000D03*
X42270000Y-70350000D03*
X41000000Y-71620000D03*
X42270000Y-71620000D03*
D19*
X23500000Y-45850000D03*
X23500000Y-47750000D03*
X25500000Y-46800000D03*
D20*
X35030000Y-57370000D03*
X35030000Y-59370000D03*
D17*
X33620000Y-39000000D03*
D18*
X33620000Y-37730000D03*
X34890000Y-39000000D03*
X34890000Y-37730000D03*
X36160000Y-39000000D03*
X36160000Y-37730000D03*
X37430000Y-39000000D03*
X37430000Y-37730000D03*
X38700000Y-39000000D03*
X38700000Y-37730000D03*
X39970000Y-39000000D03*
X39970000Y-37730000D03*
X41240000Y-39000000D03*
X41240000Y-37730000D03*
X42510000Y-39000000D03*
X42510000Y-37730000D03*
D21*
X55940000Y-44970000D03*
X57940000Y-44970000D03*
D20*
X55320000Y-58960000D03*
X55320000Y-56960000D03*
X35000000Y-48000000D03*
X35000000Y-50000000D03*
D21*
X44760000Y-63300000D03*
X46760000Y-63300000D03*
D22*
X66750000Y-52000000D03*
X57250000Y-52000000D03*
D17*
X35400000Y-24900000D03*
D18*
X36670000Y-24900000D03*
X35400000Y-26170000D03*
X36670000Y-26170000D03*
X35400000Y-27440000D03*
X36670000Y-27440000D03*
X35400000Y-28710000D03*
X36670000Y-28710000D03*
X35400000Y-29980000D03*
X36670000Y-29980000D03*
D23*
X57930000Y-47020000D03*
X56030000Y-47020000D03*
X45530000Y-77970000D03*
X47430000Y-77970000D03*
D19*
X23500000Y-50350000D03*
X23500000Y-52250000D03*
X25500000Y-51300000D03*
X23500000Y-59350000D03*
X23500000Y-61250000D03*
X25500000Y-60300000D03*
X23500000Y-54850000D03*
X23500000Y-56750000D03*
X25500000Y-55800000D03*
D24*
X40900000Y-78000000D03*
X78000000Y-59100000D03*
X22000000Y-40900000D03*
D17*
X44500000Y-75500000D03*
D18*
X45770000Y-75500000D03*
X47040000Y-75500000D03*
X48310000Y-75500000D03*
X49580000Y-75500000D03*
X50850000Y-75500000D03*
X52120000Y-75500000D03*
X53390000Y-75500000D03*
D17*
X64000000Y-40000000D03*
D18*
X64000000Y-41270000D03*
X64000000Y-42540000D03*
X64000000Y-43810000D03*
D25*
X26700000Y-51150000D03*
X26700000Y-53050000D03*
X22200000Y-61250000D03*
X22200000Y-59350000D03*
X22200000Y-47750000D03*
X22200000Y-45850000D03*
X22200000Y-56750000D03*
X22200000Y-54850000D03*
D26*
X50060000Y-66870000D03*
X50060000Y-63820000D03*
D27*
X29380000Y-58190000D03*
X32430000Y-58190000D03*
D28*
X34860000Y-53550000D03*
X31260000Y-53550000D03*
M02*
