G04 #@! TF.FileFunction,Soldermask,Bot*
%FSLAX46Y46*%
G04 Gerber Fmt 4.6, Leading zero omitted, Abs format (unit mm)*
G04 Created by KiCad (PCBNEW 4.0.7) date 06/01/18 20:15:47*
%MOMM*%
%LPD*%
G01*
G04 APERTURE LIST*
%ADD10C,0.100000*%
%ADD11C,1.524000*%
%ADD12C,3.000000*%
%ADD13R,0.900000X0.800000*%
%ADD14C,4.000000*%
%ADD15R,1.000000X1.250000*%
%ADD16R,1.250000X1.000000*%
%ADD17R,2.500000X1.950000*%
%ADD18R,1.950000X2.500000*%
%ADD19R,1.300000X0.700000*%
%ADD20R,0.700000X1.300000*%
%ADD21R,1.000000X1.000000*%
%ADD22O,1.000000X1.000000*%
G04 APERTURE END LIST*
D10*
D11*
X44393600Y-48205200D03*
X49473600Y-48205200D03*
D12*
X56863600Y-27165200D03*
X42863600Y-27165200D03*
X42863600Y-44165200D03*
X56863600Y-44165200D03*
D11*
X46933600Y-48205200D03*
D13*
X28500000Y-45050000D03*
X28500000Y-43150000D03*
X30500000Y-44100000D03*
D11*
X29063600Y-36065200D03*
X27313600Y-36065200D03*
X30813600Y-36065200D03*
X32563600Y-36065200D03*
D14*
X40900000Y-78000000D03*
X78000000Y-59100000D03*
D15*
X79913600Y-46990200D03*
X77913600Y-46990200D03*
D16*
X37063600Y-77665200D03*
X37063600Y-75665200D03*
D15*
X77913600Y-48840200D03*
X79913600Y-48840200D03*
D17*
X58563600Y-77990200D03*
X58563600Y-74940200D03*
D15*
X38338600Y-26165200D03*
X40338600Y-26165200D03*
D18*
X76413600Y-51515200D03*
X79463600Y-51515200D03*
D15*
X79438600Y-45140200D03*
X77438600Y-45140200D03*
X60238600Y-23765200D03*
X62238600Y-23765200D03*
X39838600Y-24090200D03*
X37838600Y-24090200D03*
X39813600Y-22240200D03*
X37813600Y-22240200D03*
D17*
X35263600Y-23865200D03*
X35263600Y-26915200D03*
D13*
X33500000Y-45300000D03*
X33500000Y-43400000D03*
X35500000Y-44350000D03*
D19*
X65913600Y-47390200D03*
X65913600Y-45490200D03*
D20*
X61010000Y-78030000D03*
X62910000Y-78030000D03*
X61013600Y-76465200D03*
X62913600Y-76465200D03*
X51563600Y-72515200D03*
X53463600Y-72515200D03*
D19*
X32200000Y-43300000D03*
X32200000Y-45200000D03*
D20*
X50813600Y-70690200D03*
X52713600Y-70690200D03*
D19*
X26700000Y-43100000D03*
X26700000Y-45000000D03*
D21*
X44500000Y-75500000D03*
D22*
X45770000Y-75500000D03*
X47040000Y-75500000D03*
X48310000Y-75500000D03*
X49580000Y-75500000D03*
X50850000Y-75500000D03*
X52120000Y-75500000D03*
X53390000Y-75500000D03*
D21*
X64000000Y-40000000D03*
D22*
X64000000Y-41270000D03*
X64000000Y-42540000D03*
X64000000Y-43810000D03*
D20*
X67788600Y-41265200D03*
X65888600Y-41265200D03*
X60313600Y-42540200D03*
X62213600Y-42540200D03*
X60313600Y-45815200D03*
X62213600Y-45815200D03*
D14*
X22000000Y-40900000D03*
D18*
X42810000Y-73420000D03*
X45860000Y-73420000D03*
M02*
