G04 #@! TF.FileFunction,Copper,L2,Bot,Signal*
%FSLAX46Y46*%
G04 Gerber Fmt 4.6, Leading zero omitted, Abs format (unit mm)*
G04 Created by KiCad (PCBNEW 4.0.7) date 06/01/18 20:15:47*
%MOMM*%
%LPD*%
G01*
G04 APERTURE LIST*
%ADD10C,0.100000*%
%ADD11C,1.524000*%
%ADD12C,3.000000*%
%ADD13R,0.900000X0.800000*%
%ADD14C,4.000000*%
%ADD15R,1.000000X1.250000*%
%ADD16R,1.250000X1.000000*%
%ADD17R,2.500000X1.950000*%
%ADD18R,1.950000X2.500000*%
%ADD19R,1.300000X0.700000*%
%ADD20R,0.700000X1.300000*%
%ADD21R,1.000000X1.000000*%
%ADD22O,1.000000X1.000000*%
%ADD23C,0.700000*%
%ADD24C,0.500000*%
%ADD25C,0.250000*%
%ADD26C,1.000000*%
%ADD27C,0.170000*%
%ADD28C,0.200000*%
G04 APERTURE END LIST*
D10*
D11*
X44393600Y-48205200D03*
X49473600Y-48205200D03*
D12*
X56863600Y-27165200D03*
X42863600Y-27165200D03*
X42863600Y-44165200D03*
X56863600Y-44165200D03*
D11*
X46933600Y-48205200D03*
D13*
X28500000Y-45050000D03*
X28500000Y-43150000D03*
X30500000Y-44100000D03*
D11*
X29063600Y-36065200D03*
X27313600Y-36065200D03*
X30813600Y-36065200D03*
X32563600Y-36065200D03*
D14*
X40900000Y-78000000D03*
X78000000Y-59100000D03*
D15*
X79913600Y-46990200D03*
X77913600Y-46990200D03*
D16*
X37063600Y-77665200D03*
X37063600Y-75665200D03*
D15*
X77913600Y-48840200D03*
X79913600Y-48840200D03*
D17*
X58563600Y-77990200D03*
X58563600Y-74940200D03*
D15*
X38338600Y-26165200D03*
X40338600Y-26165200D03*
D18*
X76413600Y-51515200D03*
X79463600Y-51515200D03*
D15*
X79438600Y-45140200D03*
X77438600Y-45140200D03*
X60238600Y-23765200D03*
X62238600Y-23765200D03*
X39838600Y-24090200D03*
X37838600Y-24090200D03*
X39813600Y-22240200D03*
X37813600Y-22240200D03*
D17*
X35263600Y-23865200D03*
X35263600Y-26915200D03*
D13*
X33500000Y-45300000D03*
X33500000Y-43400000D03*
X35500000Y-44350000D03*
D19*
X65913600Y-47390200D03*
X65913600Y-45490200D03*
D20*
X61010000Y-78030000D03*
X62910000Y-78030000D03*
X61013600Y-76465200D03*
X62913600Y-76465200D03*
X51563600Y-72515200D03*
X53463600Y-72515200D03*
D19*
X32200000Y-43300000D03*
X32200000Y-45200000D03*
D20*
X50813600Y-70690200D03*
X52713600Y-70690200D03*
D19*
X26700000Y-43100000D03*
X26700000Y-45000000D03*
D21*
X44500000Y-75500000D03*
D22*
X45770000Y-75500000D03*
X47040000Y-75500000D03*
X48310000Y-75500000D03*
X49580000Y-75500000D03*
X50850000Y-75500000D03*
X52120000Y-75500000D03*
X53390000Y-75500000D03*
D21*
X64000000Y-40000000D03*
D22*
X64000000Y-41270000D03*
X64000000Y-42540000D03*
X64000000Y-43810000D03*
D20*
X67788600Y-41265200D03*
X65888600Y-41265200D03*
X60313600Y-42540200D03*
X62213600Y-42540200D03*
X60313600Y-45815200D03*
X62213600Y-45815200D03*
D14*
X22000000Y-40900000D03*
D18*
X42810000Y-73420000D03*
X45860000Y-73420000D03*
D23*
X50360000Y-74250000D03*
X48730000Y-74260000D03*
X36640000Y-58070000D03*
X39100000Y-58030000D03*
X61050000Y-34980000D03*
X61300000Y-33140000D03*
X59550000Y-49690000D03*
X61640000Y-51760000D03*
X62820000Y-27720000D03*
X61300000Y-27760000D03*
X44600000Y-71800000D03*
X47200000Y-71800000D03*
X47245000Y-73400000D03*
X45900000Y-71700000D03*
X38700000Y-75900000D03*
X35500000Y-77700000D03*
X80963600Y-46915200D03*
X53738600Y-70540200D03*
X60138600Y-20565200D03*
X40863600Y-23765200D03*
X58788600Y-23690200D03*
X60113600Y-76465200D03*
X37763600Y-78665200D03*
X78883600Y-48285200D03*
X40800000Y-72000000D03*
X38800000Y-72000000D03*
X48338600Y-58090200D03*
X40500000Y-75500000D03*
X40530413Y-73545000D03*
X42800000Y-76100000D03*
X55438600Y-75615200D03*
X39800000Y-74065000D03*
X38300000Y-77500000D03*
X66213600Y-37815200D03*
X62063600Y-38140200D03*
X39288600Y-63340200D03*
X51960000Y-62090000D03*
X50690000Y-63380000D03*
X46630000Y-56910000D03*
X45520000Y-58030000D03*
X48500000Y-64150000D03*
X47440000Y-65170000D03*
X47390000Y-69020000D03*
X46330000Y-70090000D03*
X76863600Y-46315200D03*
X60113600Y-77990200D03*
X36113600Y-25390200D03*
X41363600Y-25765200D03*
X63363600Y-23690200D03*
X63813600Y-77965200D03*
X37163600Y-74465200D03*
X39313600Y-25740200D03*
X61913600Y-76640200D03*
X58113600Y-79490200D03*
X71438600Y-54615200D03*
X58988600Y-21490200D03*
X36113600Y-46315200D03*
D24*
X48730000Y-74260000D02*
X50350000Y-74260000D01*
X50350000Y-74260000D02*
X50360000Y-74250000D01*
X39100000Y-58030000D02*
X36680000Y-58030000D01*
X36680000Y-58030000D02*
X36640000Y-58070000D01*
D25*
X61300000Y-33140000D02*
X61300000Y-34730000D01*
X61300000Y-34730000D02*
X61050000Y-34980000D01*
X61640000Y-51760000D02*
X59570000Y-49690000D01*
X59570000Y-49690000D02*
X59550000Y-49690000D01*
X61300000Y-27760000D02*
X62780000Y-27760000D01*
X62780000Y-27760000D02*
X62820000Y-27720000D01*
D24*
X45860000Y-73420000D02*
X45860000Y-73060000D01*
X45860000Y-73060000D02*
X44600000Y-71800000D01*
X45860000Y-73420000D02*
X45860000Y-73140000D01*
X45860000Y-73140000D02*
X47200000Y-71800000D01*
X45860000Y-73420000D02*
X47225000Y-73420000D01*
X47225000Y-73420000D02*
X47245000Y-73400000D01*
X45860000Y-73420000D02*
X45860000Y-71740000D01*
X45860000Y-71740000D02*
X45900000Y-71700000D01*
D26*
X45770000Y-75500000D02*
X45770000Y-73510000D01*
X45770000Y-73510000D02*
X45860000Y-73420000D01*
D25*
X37063600Y-77665200D02*
X37063600Y-77536400D01*
X37063600Y-77536400D02*
X38700000Y-75900000D01*
X37063600Y-77665200D02*
X37534800Y-77665200D01*
X35534800Y-77665200D02*
X37063600Y-77665200D01*
X35500000Y-77700000D02*
X35534800Y-77665200D01*
X79913600Y-48840200D02*
X79913600Y-51065200D01*
X79913600Y-51065200D02*
X79463600Y-51515200D01*
X79913600Y-46990200D02*
X79913600Y-48840200D01*
X79913600Y-46990200D02*
X79913600Y-45615200D01*
X79913600Y-45615200D02*
X79438600Y-45140200D01*
X80888600Y-46990200D02*
X79913600Y-46990200D01*
X80963600Y-46915200D02*
X80888600Y-46990200D01*
X54013600Y-70540200D02*
X53738600Y-70540200D01*
X58413600Y-74940200D02*
X54013600Y-70540200D01*
X58563600Y-74940200D02*
X58413600Y-74940200D01*
X60238600Y-20665200D02*
X60238600Y-23765200D01*
X60138600Y-20565200D02*
X60238600Y-20665200D01*
D27*
X35263600Y-26915200D02*
X35538600Y-26915200D01*
D25*
X35538600Y-26915200D02*
X37388600Y-25065200D01*
X37388600Y-25065200D02*
X38863600Y-25065200D01*
X38863600Y-25065200D02*
X39838600Y-24090200D01*
D27*
X40863600Y-23765200D02*
X40538600Y-24090200D01*
X40538600Y-24090200D02*
X39838600Y-24090200D01*
X39838600Y-24090200D02*
X39838600Y-22265200D01*
X39838600Y-22265200D02*
X39813600Y-22240200D01*
D25*
X58863600Y-23765200D02*
X60238600Y-23765200D01*
D27*
X58788600Y-23690200D02*
X58863600Y-23765200D01*
X58563600Y-74940200D02*
X58813600Y-74940200D01*
D25*
X58813600Y-74940200D02*
X60113600Y-76240200D01*
D27*
X60113600Y-76240200D02*
X60113600Y-76465200D01*
D25*
X60113600Y-76465200D02*
X61013600Y-76465200D01*
X37763600Y-78665200D02*
X37063600Y-77965200D01*
D27*
X37063600Y-77965200D02*
X37063600Y-77665200D01*
D25*
X77913600Y-48840200D02*
X78328600Y-48840200D01*
X78328600Y-48840200D02*
X78883600Y-48285200D01*
X40400000Y-72000000D02*
X40800000Y-72000000D01*
X38800000Y-72000000D02*
X40400000Y-72000000D01*
X48338600Y-58090200D02*
X59038600Y-47390200D01*
X59038600Y-47390200D02*
X65913600Y-47390200D01*
D27*
X55438600Y-75615200D02*
X54943626Y-75615200D01*
X54943626Y-75615200D02*
X54308825Y-76250001D01*
X54308825Y-76250001D02*
X49060001Y-76250001D01*
X49060001Y-76250001D02*
X48809999Y-75999999D01*
X48809999Y-75999999D02*
X48310000Y-75500000D01*
X42800000Y-76100000D02*
X43649998Y-76100000D01*
X43649998Y-76100000D02*
X43799999Y-76250001D01*
X47810001Y-75999999D02*
X48310000Y-75500000D01*
X43799999Y-76250001D02*
X47559999Y-76250001D01*
X47559999Y-76250001D02*
X47810001Y-75999999D01*
D25*
X40530413Y-73545000D02*
X40530413Y-75469587D01*
X40530413Y-75469587D02*
X40500000Y-75500000D01*
X48310000Y-75500000D02*
X48310000Y-75736600D01*
X48310000Y-75500000D02*
X48310000Y-75593800D01*
X39800000Y-74065000D02*
X39800000Y-74559974D01*
X39743565Y-74616409D02*
X39743565Y-75811037D01*
X39800000Y-74559974D02*
X39743565Y-74616409D01*
X39743565Y-75811037D02*
X38649999Y-76904603D01*
X38649999Y-76904603D02*
X38649999Y-77150001D01*
X38649999Y-77150001D02*
X38300000Y-77500000D01*
X47040000Y-75500000D02*
X47890000Y-74650000D01*
X47890000Y-74650000D02*
X47890000Y-70641600D01*
X47890000Y-70641600D02*
X40588600Y-63340200D01*
X40588600Y-63340200D02*
X39288600Y-63340200D01*
X62388600Y-37815200D02*
X66213600Y-37815200D01*
X62063600Y-38140200D02*
X62388600Y-37815200D01*
D24*
X47390000Y-69020000D02*
X47390000Y-65220000D01*
X47390000Y-65220000D02*
X47440000Y-65170000D01*
X46330000Y-70090000D02*
X44390000Y-70090000D01*
X44390000Y-70090000D02*
X42810000Y-71670000D01*
X42810000Y-71670000D02*
X42810000Y-73420000D01*
X48500000Y-64150000D02*
X49920000Y-64150000D01*
X49920000Y-64150000D02*
X50690000Y-63380000D01*
X48500000Y-64150000D02*
X45520000Y-61170000D01*
X45520000Y-61170000D02*
X45520000Y-58030000D01*
X42810000Y-71230000D02*
X43950000Y-70090000D01*
X43950000Y-70090000D02*
X46330000Y-70090000D01*
X42810000Y-73420000D02*
X42810000Y-71230000D01*
D25*
X32200000Y-45200000D02*
X33400000Y-45200000D01*
X33400000Y-45200000D02*
X33500000Y-45300000D01*
X26700000Y-45000000D02*
X28450000Y-45000000D01*
X28450000Y-45000000D02*
X28500000Y-45050000D01*
X39200000Y-72900000D02*
X40815000Y-72900000D01*
X40815000Y-72900000D02*
X41335000Y-73420000D01*
X38703774Y-73396226D02*
X39200000Y-72900000D01*
X38703774Y-73420000D02*
X38703774Y-73396226D01*
X37163600Y-74465200D02*
X37658574Y-74465200D01*
X37658574Y-74465200D02*
X38703774Y-73420000D01*
D24*
X42810000Y-71670000D02*
X42800000Y-71660000D01*
X42810000Y-73420000D02*
X41335000Y-73420000D01*
X41335000Y-73420000D02*
X41315000Y-73400000D01*
D26*
X44500000Y-75500000D02*
X42810000Y-73810000D01*
X42810000Y-73810000D02*
X42810000Y-73420000D01*
D24*
X27313600Y-36065200D02*
X27313600Y-37142830D01*
D25*
X76863600Y-46315200D02*
X76863600Y-51065200D01*
X76863600Y-51065200D02*
X76413600Y-51515200D01*
X76863600Y-46315200D02*
X76863600Y-45715200D01*
X76863600Y-45715200D02*
X77438600Y-45140200D01*
X77288600Y-46365200D02*
X77913600Y-46990200D01*
X76913600Y-46365200D02*
X77288600Y-46365200D01*
X76863600Y-46315200D02*
X76913600Y-46365200D01*
X77913600Y-46990200D02*
X77913600Y-45615200D01*
X77913600Y-45615200D02*
X77438600Y-45140200D01*
D27*
X58563600Y-77990200D02*
X60113600Y-77990200D01*
D25*
X36113600Y-25390200D02*
X35263600Y-24540200D01*
X35263600Y-24540200D02*
X35263600Y-23865200D01*
D24*
X34963600Y-23865200D02*
X35263600Y-23865200D01*
D27*
X40963600Y-26165200D02*
X40338600Y-26165200D01*
X41363600Y-25765200D02*
X40963600Y-26165200D01*
D25*
X37813600Y-22240200D02*
X37813600Y-24065200D01*
D27*
X37813600Y-24065200D02*
X37838600Y-24090200D01*
D25*
X35263600Y-23865200D02*
X37613600Y-23865200D01*
D27*
X37613600Y-23865200D02*
X37838600Y-24090200D01*
D25*
X63288600Y-23765200D02*
X62238600Y-23765200D01*
D27*
X63363600Y-23690200D02*
X63288600Y-23765200D01*
X62238600Y-23765200D02*
X61938600Y-23765200D01*
X58563600Y-77990200D02*
X58038600Y-77990200D01*
D25*
X63613600Y-78165200D02*
X62913600Y-78165200D01*
D27*
X63813600Y-77965200D02*
X63613600Y-78165200D01*
D25*
X37063600Y-74565200D02*
X37063600Y-75665200D01*
D27*
X37163600Y-74465200D02*
X37063600Y-74565200D01*
D25*
X53390000Y-75500000D02*
X53390000Y-72588800D01*
X53390000Y-72588800D02*
X53463600Y-72515200D01*
X52713600Y-70690200D02*
X52713600Y-71415200D01*
X52713600Y-71415200D02*
X53463600Y-72165200D01*
X53463600Y-72165200D02*
X53463600Y-72515200D01*
D27*
X38888600Y-26165200D02*
X38338600Y-26165200D01*
X39313600Y-25740200D02*
X38888600Y-26165200D01*
D25*
X30500000Y-44100000D02*
X30500000Y-47304398D01*
X30500000Y-47304398D02*
X50760802Y-67565200D01*
X50760802Y-67565200D02*
X50813600Y-67565200D01*
X50813600Y-70690200D02*
X50813600Y-73315200D01*
X51263600Y-75086400D02*
X50850000Y-75500000D01*
X51263600Y-73765200D02*
X51263600Y-75086400D01*
X50813600Y-73315200D02*
X51263600Y-73765200D01*
X50813600Y-70690200D02*
X50813600Y-67565200D01*
X50850000Y-70726600D02*
X50813600Y-70690200D01*
X50620000Y-70883800D02*
X50813600Y-70690200D01*
X51563600Y-62990200D02*
X35473599Y-46900199D01*
X35473599Y-46900199D02*
X35473599Y-45026401D01*
X35473599Y-45026401D02*
X35500000Y-45000000D01*
X35500000Y-45000000D02*
X35500000Y-44350000D01*
X51563600Y-72515200D02*
X51563600Y-62990200D01*
X52120000Y-75500000D02*
X52120000Y-73071600D01*
X52120000Y-73071600D02*
X51563600Y-72515200D01*
X51563600Y-72515200D02*
X51563600Y-72565200D01*
X51563600Y-72565200D02*
X51890000Y-72891600D01*
X32200000Y-43300000D02*
X32200000Y-36428800D01*
X32200000Y-36428800D02*
X32563600Y-36065200D01*
X32200000Y-43300000D02*
X33400000Y-43300000D01*
X33400000Y-43300000D02*
X33500000Y-43400000D01*
X28500000Y-43150000D02*
X26750000Y-43150000D01*
X26750000Y-43150000D02*
X26700000Y-43100000D01*
X30813600Y-36065200D02*
X30813600Y-40886400D01*
X30813600Y-40886400D02*
X28550000Y-43150000D01*
X28550000Y-43150000D02*
X28500000Y-43150000D01*
X61713600Y-77290200D02*
X61013600Y-77990200D01*
X61713600Y-76840200D02*
X61713600Y-77290200D01*
D27*
X61913600Y-76640200D02*
X61713600Y-76840200D01*
X61013600Y-77990200D02*
X61013600Y-78165200D01*
X60380000Y-78970000D02*
X59859800Y-79490200D01*
X59859800Y-79490200D02*
X58113600Y-79490200D01*
X61520002Y-78970000D02*
X60380000Y-78970000D01*
X61688600Y-77871399D02*
X61688600Y-78801402D01*
X61688600Y-78801402D02*
X61520002Y-78970000D01*
X61688600Y-77871399D02*
X62913600Y-76646399D01*
X62913600Y-76646399D02*
X62913600Y-76465200D01*
X62913600Y-76690200D02*
X62913600Y-76465200D01*
D25*
X67788600Y-50965200D02*
X71438600Y-54615200D01*
X67788600Y-50965200D02*
X67788600Y-41265200D01*
X60313600Y-42540200D02*
X60313600Y-27315200D01*
X58063600Y-22415200D02*
X58988600Y-21490200D01*
X58063600Y-25065200D02*
X58063600Y-22415200D01*
X60313600Y-27315200D02*
X58063600Y-25065200D01*
D27*
X59188600Y-46065200D02*
X58938600Y-46315200D01*
X58938600Y-46315200D02*
X36113600Y-46315200D01*
D25*
X60313600Y-45815200D02*
X59438600Y-45815200D01*
X59438600Y-45815200D02*
X59188600Y-46065200D01*
X64000000Y-40000000D02*
X66398400Y-40000000D01*
X66763600Y-44640200D02*
X65913600Y-45490200D01*
X66763600Y-40365200D02*
X66763600Y-44640200D01*
X66398400Y-40000000D02*
X66763600Y-40365200D01*
X64000000Y-41270000D02*
X65883800Y-41270000D01*
X65883800Y-41270000D02*
X65888600Y-41265200D01*
X62213600Y-42540200D02*
X63999800Y-42540200D01*
X63999800Y-42540200D02*
X64000000Y-42540000D01*
X62213600Y-45815200D02*
X62213600Y-45596400D01*
X62213600Y-45596400D02*
X64000000Y-43810000D01*
D28*
G36*
X71791288Y-72883107D02*
X66931591Y-76679918D01*
X63660000Y-78332518D01*
X63660000Y-78180000D01*
X63560000Y-78080000D01*
X62960000Y-78080000D01*
X62960000Y-78100000D01*
X62860000Y-78100000D01*
X62860000Y-78080000D01*
X62260000Y-78080000D01*
X62160000Y-78180000D01*
X62160000Y-78719396D01*
X62175372Y-78796675D01*
X62205524Y-78869471D01*
X62249299Y-78934985D01*
X62305014Y-78990700D01*
X62327404Y-79005660D01*
X61869773Y-79236826D01*
X61996899Y-79109700D01*
X62022450Y-79078593D01*
X62048349Y-79047728D01*
X62049455Y-79045716D01*
X62050909Y-79043946D01*
X62069926Y-79008480D01*
X62089343Y-78973161D01*
X62090037Y-78970975D01*
X62091120Y-78968954D01*
X62102910Y-78930392D01*
X62115072Y-78892051D01*
X62115327Y-78889778D01*
X62115999Y-78887580D01*
X62120074Y-78847462D01*
X62124558Y-78807490D01*
X62124589Y-78803013D01*
X62124598Y-78802923D01*
X62124590Y-78802839D01*
X62124600Y-78801402D01*
X62124600Y-78051997D01*
X62228298Y-77948298D01*
X62260000Y-77980000D01*
X62860000Y-77980000D01*
X62860000Y-77960000D01*
X62960000Y-77960000D01*
X62960000Y-77980000D01*
X63560000Y-77980000D01*
X63660000Y-77880000D01*
X63660000Y-77340604D01*
X63644628Y-77263325D01*
X63614476Y-77190529D01*
X63607151Y-77179566D01*
X63616298Y-77115200D01*
X63616298Y-75815200D01*
X63611841Y-75759305D01*
X63582481Y-75664500D01*
X63527873Y-75581628D01*
X63452338Y-75517251D01*
X63361859Y-75476466D01*
X63263600Y-75462502D01*
X62563600Y-75462502D01*
X62507705Y-75466959D01*
X62412900Y-75496319D01*
X62330028Y-75550927D01*
X62265651Y-75626462D01*
X62224866Y-75716941D01*
X62210902Y-75815200D01*
X62210902Y-76004725D01*
X62121894Y-75967310D01*
X61987229Y-75939667D01*
X61849759Y-75938707D01*
X61716298Y-75964166D01*
X61716298Y-75815200D01*
X61711841Y-75759305D01*
X61682481Y-75664500D01*
X61627873Y-75581628D01*
X61552338Y-75517251D01*
X61461859Y-75476466D01*
X61363600Y-75462502D01*
X60663600Y-75462502D01*
X60607705Y-75466959D01*
X60512900Y-75496319D01*
X60430028Y-75550927D01*
X60365651Y-75626462D01*
X60324866Y-75716941D01*
X60317231Y-75770665D01*
X60166298Y-75619732D01*
X60166298Y-74153569D01*
X61103717Y-74643639D01*
X63051047Y-75216770D01*
X65072612Y-75400747D01*
X67091411Y-75188562D01*
X69030550Y-74588299D01*
X70816165Y-73622820D01*
X71993496Y-72648847D01*
X71791288Y-72883107D01*
X71791288Y-72883107D01*
G37*
X71791288Y-72883107D02*
X66931591Y-76679918D01*
X63660000Y-78332518D01*
X63660000Y-78180000D01*
X63560000Y-78080000D01*
X62960000Y-78080000D01*
X62960000Y-78100000D01*
X62860000Y-78100000D01*
X62860000Y-78080000D01*
X62260000Y-78080000D01*
X62160000Y-78180000D01*
X62160000Y-78719396D01*
X62175372Y-78796675D01*
X62205524Y-78869471D01*
X62249299Y-78934985D01*
X62305014Y-78990700D01*
X62327404Y-79005660D01*
X61869773Y-79236826D01*
X61996899Y-79109700D01*
X62022450Y-79078593D01*
X62048349Y-79047728D01*
X62049455Y-79045716D01*
X62050909Y-79043946D01*
X62069926Y-79008480D01*
X62089343Y-78973161D01*
X62090037Y-78970975D01*
X62091120Y-78968954D01*
X62102910Y-78930392D01*
X62115072Y-78892051D01*
X62115327Y-78889778D01*
X62115999Y-78887580D01*
X62120074Y-78847462D01*
X62124558Y-78807490D01*
X62124589Y-78803013D01*
X62124598Y-78802923D01*
X62124590Y-78802839D01*
X62124600Y-78801402D01*
X62124600Y-78051997D01*
X62228298Y-77948298D01*
X62260000Y-77980000D01*
X62860000Y-77980000D01*
X62860000Y-77960000D01*
X62960000Y-77960000D01*
X62960000Y-77980000D01*
X63560000Y-77980000D01*
X63660000Y-77880000D01*
X63660000Y-77340604D01*
X63644628Y-77263325D01*
X63614476Y-77190529D01*
X63607151Y-77179566D01*
X63616298Y-77115200D01*
X63616298Y-75815200D01*
X63611841Y-75759305D01*
X63582481Y-75664500D01*
X63527873Y-75581628D01*
X63452338Y-75517251D01*
X63361859Y-75476466D01*
X63263600Y-75462502D01*
X62563600Y-75462502D01*
X62507705Y-75466959D01*
X62412900Y-75496319D01*
X62330028Y-75550927D01*
X62265651Y-75626462D01*
X62224866Y-75716941D01*
X62210902Y-75815200D01*
X62210902Y-76004725D01*
X62121894Y-75967310D01*
X61987229Y-75939667D01*
X61849759Y-75938707D01*
X61716298Y-75964166D01*
X61716298Y-75815200D01*
X61711841Y-75759305D01*
X61682481Y-75664500D01*
X61627873Y-75581628D01*
X61552338Y-75517251D01*
X61461859Y-75476466D01*
X61363600Y-75462502D01*
X60663600Y-75462502D01*
X60607705Y-75466959D01*
X60512900Y-75496319D01*
X60430028Y-75550927D01*
X60365651Y-75626462D01*
X60324866Y-75716941D01*
X60317231Y-75770665D01*
X60166298Y-75619732D01*
X60166298Y-74153569D01*
X61103717Y-74643639D01*
X63051047Y-75216770D01*
X65072612Y-75400747D01*
X67091411Y-75188562D01*
X69030550Y-74588299D01*
X70816165Y-73622820D01*
X71993496Y-72648847D01*
X71791288Y-72883107D01*
G36*
X53520931Y-71210117D02*
X53655197Y-71239637D01*
X53792640Y-71242516D01*
X53928025Y-71218644D01*
X53993487Y-71193253D01*
X56960902Y-74160668D01*
X56960902Y-75915200D01*
X56965359Y-75971095D01*
X56994719Y-76065900D01*
X57049327Y-76148772D01*
X57124862Y-76213149D01*
X57215341Y-76253934D01*
X57313600Y-76267898D01*
X59438846Y-76267898D01*
X59413598Y-76386682D01*
X59411678Y-76524142D01*
X59428391Y-76615200D01*
X58713600Y-76615200D01*
X58613600Y-76715200D01*
X58613600Y-77940200D01*
X60113600Y-77940200D01*
X60213600Y-77840200D01*
X60213600Y-77159412D01*
X60303025Y-77143644D01*
X60312866Y-77139827D01*
X60315359Y-77171095D01*
X60338076Y-77244449D01*
X60321266Y-77281741D01*
X60307302Y-77380000D01*
X60307302Y-78540784D01*
X60299798Y-78541440D01*
X60297593Y-78542080D01*
X60295314Y-78542304D01*
X60256782Y-78553937D01*
X60218084Y-78565180D01*
X60216048Y-78566235D01*
X60213853Y-78566898D01*
X60213600Y-78567033D01*
X60213600Y-78140200D01*
X60113600Y-78040200D01*
X58613600Y-78040200D01*
X58613600Y-78060200D01*
X58513600Y-78060200D01*
X58513600Y-78040200D01*
X58493600Y-78040200D01*
X58493600Y-77940200D01*
X58513600Y-77940200D01*
X58513600Y-76715200D01*
X58413600Y-76615200D01*
X57274204Y-76615200D01*
X57196925Y-76630572D01*
X57124129Y-76660724D01*
X57064600Y-76700500D01*
X57064600Y-76665200D01*
X57060915Y-76627618D01*
X57057497Y-76590060D01*
X57057100Y-76588712D01*
X57056963Y-76587312D01*
X57046057Y-76551191D01*
X57035401Y-76514983D01*
X57034749Y-76513736D01*
X57034343Y-76512391D01*
X57016632Y-76479082D01*
X56999142Y-76445627D01*
X56998261Y-76444531D01*
X56997601Y-76443290D01*
X56973774Y-76414075D01*
X56950104Y-76384635D01*
X56949025Y-76383730D01*
X56948138Y-76382642D01*
X56919130Y-76358644D01*
X56890152Y-76334329D01*
X56888916Y-76333650D01*
X56887836Y-76332756D01*
X56854681Y-76314829D01*
X56821571Y-76296627D01*
X56820231Y-76296202D01*
X56818994Y-76295533D01*
X56782916Y-76284365D01*
X56746973Y-76272963D01*
X56745577Y-76272806D01*
X56744232Y-76272390D01*
X56706697Y-76268445D01*
X56669199Y-76264239D01*
X56666496Y-76264220D01*
X56666399Y-76264210D01*
X56666302Y-76264219D01*
X56663600Y-76264200D01*
X55703936Y-76264200D01*
X55756195Y-76243930D01*
X55872267Y-76170268D01*
X55971821Y-76075464D01*
X56051065Y-75963129D01*
X56106981Y-75837541D01*
X56137438Y-75703484D01*
X56139630Y-75546463D01*
X56112928Y-75411608D01*
X56060541Y-75284508D01*
X55984465Y-75170004D01*
X55887596Y-75072457D01*
X55773626Y-74995583D01*
X55646894Y-74942310D01*
X55512229Y-74914667D01*
X55374759Y-74913707D01*
X55239721Y-74939467D01*
X55112258Y-74990965D01*
X54997225Y-75066241D01*
X54899004Y-75162426D01*
X54883635Y-75184872D01*
X54863424Y-75186640D01*
X54861219Y-75187280D01*
X54858940Y-75187504D01*
X54820408Y-75199137D01*
X54781710Y-75210380D01*
X54779674Y-75211435D01*
X54777479Y-75212098D01*
X54741891Y-75231020D01*
X54706163Y-75249540D01*
X54704374Y-75250968D01*
X54702347Y-75252046D01*
X54671133Y-75277504D01*
X54639662Y-75302626D01*
X54636473Y-75305771D01*
X54636405Y-75305827D01*
X54636353Y-75305890D01*
X54635327Y-75306902D01*
X54204390Y-75737839D01*
X54222404Y-75681051D01*
X54240917Y-75516000D01*
X54241000Y-75504118D01*
X54241000Y-75495882D01*
X54224793Y-75330589D01*
X54176789Y-75171591D01*
X54098816Y-75024946D01*
X53993845Y-74896238D01*
X53866000Y-74790476D01*
X53866000Y-73513720D01*
X53869495Y-73513441D01*
X53964300Y-73484081D01*
X54047172Y-73429473D01*
X54111549Y-73353938D01*
X54152334Y-73263459D01*
X54166298Y-73165200D01*
X54166298Y-71865200D01*
X54161841Y-71809305D01*
X54132481Y-71714500D01*
X54077873Y-71631628D01*
X54002338Y-71567251D01*
X53911859Y-71526466D01*
X53813600Y-71512502D01*
X53484068Y-71512502D01*
X53403291Y-71431725D01*
X53416298Y-71340200D01*
X53416298Y-71164403D01*
X53520931Y-71210117D01*
X53520931Y-71210117D01*
G37*
X53520931Y-71210117D02*
X53655197Y-71239637D01*
X53792640Y-71242516D01*
X53928025Y-71218644D01*
X53993487Y-71193253D01*
X56960902Y-74160668D01*
X56960902Y-75915200D01*
X56965359Y-75971095D01*
X56994719Y-76065900D01*
X57049327Y-76148772D01*
X57124862Y-76213149D01*
X57215341Y-76253934D01*
X57313600Y-76267898D01*
X59438846Y-76267898D01*
X59413598Y-76386682D01*
X59411678Y-76524142D01*
X59428391Y-76615200D01*
X58713600Y-76615200D01*
X58613600Y-76715200D01*
X58613600Y-77940200D01*
X60113600Y-77940200D01*
X60213600Y-77840200D01*
X60213600Y-77159412D01*
X60303025Y-77143644D01*
X60312866Y-77139827D01*
X60315359Y-77171095D01*
X60338076Y-77244449D01*
X60321266Y-77281741D01*
X60307302Y-77380000D01*
X60307302Y-78540784D01*
X60299798Y-78541440D01*
X60297593Y-78542080D01*
X60295314Y-78542304D01*
X60256782Y-78553937D01*
X60218084Y-78565180D01*
X60216048Y-78566235D01*
X60213853Y-78566898D01*
X60213600Y-78567033D01*
X60213600Y-78140200D01*
X60113600Y-78040200D01*
X58613600Y-78040200D01*
X58613600Y-78060200D01*
X58513600Y-78060200D01*
X58513600Y-78040200D01*
X58493600Y-78040200D01*
X58493600Y-77940200D01*
X58513600Y-77940200D01*
X58513600Y-76715200D01*
X58413600Y-76615200D01*
X57274204Y-76615200D01*
X57196925Y-76630572D01*
X57124129Y-76660724D01*
X57064600Y-76700500D01*
X57064600Y-76665200D01*
X57060915Y-76627618D01*
X57057497Y-76590060D01*
X57057100Y-76588712D01*
X57056963Y-76587312D01*
X57046057Y-76551191D01*
X57035401Y-76514983D01*
X57034749Y-76513736D01*
X57034343Y-76512391D01*
X57016632Y-76479082D01*
X56999142Y-76445627D01*
X56998261Y-76444531D01*
X56997601Y-76443290D01*
X56973774Y-76414075D01*
X56950104Y-76384635D01*
X56949025Y-76383730D01*
X56948138Y-76382642D01*
X56919130Y-76358644D01*
X56890152Y-76334329D01*
X56888916Y-76333650D01*
X56887836Y-76332756D01*
X56854681Y-76314829D01*
X56821571Y-76296627D01*
X56820231Y-76296202D01*
X56818994Y-76295533D01*
X56782916Y-76284365D01*
X56746973Y-76272963D01*
X56745577Y-76272806D01*
X56744232Y-76272390D01*
X56706697Y-76268445D01*
X56669199Y-76264239D01*
X56666496Y-76264220D01*
X56666399Y-76264210D01*
X56666302Y-76264219D01*
X56663600Y-76264200D01*
X55703936Y-76264200D01*
X55756195Y-76243930D01*
X55872267Y-76170268D01*
X55971821Y-76075464D01*
X56051065Y-75963129D01*
X56106981Y-75837541D01*
X56137438Y-75703484D01*
X56139630Y-75546463D01*
X56112928Y-75411608D01*
X56060541Y-75284508D01*
X55984465Y-75170004D01*
X55887596Y-75072457D01*
X55773626Y-74995583D01*
X55646894Y-74942310D01*
X55512229Y-74914667D01*
X55374759Y-74913707D01*
X55239721Y-74939467D01*
X55112258Y-74990965D01*
X54997225Y-75066241D01*
X54899004Y-75162426D01*
X54883635Y-75184872D01*
X54863424Y-75186640D01*
X54861219Y-75187280D01*
X54858940Y-75187504D01*
X54820408Y-75199137D01*
X54781710Y-75210380D01*
X54779674Y-75211435D01*
X54777479Y-75212098D01*
X54741891Y-75231020D01*
X54706163Y-75249540D01*
X54704374Y-75250968D01*
X54702347Y-75252046D01*
X54671133Y-75277504D01*
X54639662Y-75302626D01*
X54636473Y-75305771D01*
X54636405Y-75305827D01*
X54636353Y-75305890D01*
X54635327Y-75306902D01*
X54204390Y-75737839D01*
X54222404Y-75681051D01*
X54240917Y-75516000D01*
X54241000Y-75504118D01*
X54241000Y-75495882D01*
X54224793Y-75330589D01*
X54176789Y-75171591D01*
X54098816Y-75024946D01*
X53993845Y-74896238D01*
X53866000Y-74790476D01*
X53866000Y-73513720D01*
X53869495Y-73513441D01*
X53964300Y-73484081D01*
X54047172Y-73429473D01*
X54111549Y-73353938D01*
X54152334Y-73263459D01*
X54166298Y-73165200D01*
X54166298Y-71865200D01*
X54161841Y-71809305D01*
X54132481Y-71714500D01*
X54077873Y-71631628D01*
X54002338Y-71567251D01*
X53911859Y-71526466D01*
X53813600Y-71512502D01*
X53484068Y-71512502D01*
X53403291Y-71431725D01*
X53416298Y-71340200D01*
X53416298Y-71164403D01*
X53520931Y-71210117D01*
G36*
X27398453Y-36051058D02*
X27384311Y-36065200D01*
X28103050Y-36783939D01*
X28182217Y-36752260D01*
X28187129Y-36759882D01*
X28338752Y-36916893D01*
X28517985Y-37041463D01*
X28718000Y-37128847D01*
X28931179Y-37175718D01*
X29149401Y-37180289D01*
X29364356Y-37142387D01*
X29567855Y-37063455D01*
X29752147Y-36946499D01*
X29910212Y-36795976D01*
X29936434Y-36758804D01*
X29937129Y-36759882D01*
X30088752Y-36916893D01*
X30267985Y-37041463D01*
X30337600Y-37071877D01*
X30337600Y-40689234D01*
X28629532Y-42397302D01*
X28050000Y-42397302D01*
X27994105Y-42401759D01*
X27899300Y-42431119D01*
X27816428Y-42485727D01*
X27752051Y-42561262D01*
X27711266Y-42651741D01*
X27708103Y-42674000D01*
X27692015Y-42674000D01*
X27668881Y-42599300D01*
X27614273Y-42516428D01*
X27538738Y-42452051D01*
X27448259Y-42411266D01*
X27350000Y-42397302D01*
X26050000Y-42397302D01*
X25994105Y-42401759D01*
X25899300Y-42431119D01*
X25816428Y-42485727D01*
X25752051Y-42561262D01*
X25711266Y-42651741D01*
X25697302Y-42750000D01*
X25697302Y-43450000D01*
X25701759Y-43505895D01*
X25731119Y-43600700D01*
X25785727Y-43683572D01*
X25861262Y-43747949D01*
X25951741Y-43788734D01*
X26050000Y-43802698D01*
X27350000Y-43802698D01*
X27405895Y-43798241D01*
X27500700Y-43768881D01*
X27583572Y-43714273D01*
X27647949Y-43638738D01*
X27653691Y-43626000D01*
X27707985Y-43626000D01*
X27731119Y-43700700D01*
X27785727Y-43783572D01*
X27861262Y-43847949D01*
X27951741Y-43888734D01*
X28050000Y-43902698D01*
X28950000Y-43902698D01*
X29005895Y-43898241D01*
X29100700Y-43868881D01*
X29183572Y-43814273D01*
X29247949Y-43738738D01*
X29288734Y-43648259D01*
X29302698Y-43550000D01*
X29302698Y-43070468D01*
X31150183Y-41222983D01*
X31178114Y-41188979D01*
X31206354Y-41155324D01*
X31207558Y-41153134D01*
X31209149Y-41151197D01*
X31229957Y-41112389D01*
X31251108Y-41073916D01*
X31251864Y-41071534D01*
X31253048Y-41069325D01*
X31265914Y-41027242D01*
X31279198Y-40985366D01*
X31279477Y-40982880D01*
X31280209Y-40980485D01*
X31284656Y-40936711D01*
X31289554Y-40893046D01*
X31289588Y-40888162D01*
X31289598Y-40888062D01*
X31289589Y-40887968D01*
X31289600Y-40886400D01*
X31289600Y-37074414D01*
X31317855Y-37063455D01*
X31502147Y-36946499D01*
X31660212Y-36795976D01*
X31686434Y-36758804D01*
X31687129Y-36759882D01*
X31724000Y-36798063D01*
X31724000Y-42597302D01*
X31550000Y-42597302D01*
X31494105Y-42601759D01*
X31399300Y-42631119D01*
X31316428Y-42685727D01*
X31252051Y-42761262D01*
X31211266Y-42851741D01*
X31197302Y-42950000D01*
X31197302Y-43451964D01*
X31138738Y-43402051D01*
X31048259Y-43361266D01*
X30950000Y-43347302D01*
X30050000Y-43347302D01*
X29994105Y-43351759D01*
X29899300Y-43381119D01*
X29816428Y-43435727D01*
X29752051Y-43511262D01*
X29711266Y-43601741D01*
X29697302Y-43700000D01*
X29697302Y-44500000D01*
X29701759Y-44555895D01*
X29731119Y-44650700D01*
X29785727Y-44733572D01*
X29861262Y-44797949D01*
X29951741Y-44838734D01*
X30024000Y-44849003D01*
X30024000Y-47304398D01*
X30028293Y-47348179D01*
X30032123Y-47391959D01*
X30032820Y-47394360D01*
X30033065Y-47396854D01*
X30045786Y-47438986D01*
X30058041Y-47481169D01*
X30059192Y-47483390D01*
X30059916Y-47485787D01*
X30080572Y-47524635D01*
X30100793Y-47563646D01*
X30102353Y-47565600D01*
X30103529Y-47567812D01*
X30131319Y-47601885D01*
X30158750Y-47636249D01*
X30162186Y-47639733D01*
X30162244Y-47639804D01*
X30162310Y-47639859D01*
X30163417Y-47640981D01*
X50337600Y-67815164D01*
X50337600Y-69713670D01*
X50312900Y-69721319D01*
X50230028Y-69775927D01*
X50165651Y-69851462D01*
X50124866Y-69941941D01*
X50110902Y-70040200D01*
X50110902Y-71340200D01*
X50115359Y-71396095D01*
X50144719Y-71490900D01*
X50199327Y-71573772D01*
X50274862Y-71638149D01*
X50337600Y-71666429D01*
X50337600Y-73315200D01*
X50341893Y-73358981D01*
X50345723Y-73402761D01*
X50346420Y-73405162D01*
X50346665Y-73407656D01*
X50359386Y-73449788D01*
X50371641Y-73491971D01*
X50372792Y-73494192D01*
X50373516Y-73496589D01*
X50394172Y-73535437D01*
X50401327Y-73549241D01*
X50296159Y-73548507D01*
X50161121Y-73574267D01*
X50033658Y-73625765D01*
X49982870Y-73659000D01*
X49092627Y-73659000D01*
X49065026Y-73640383D01*
X48938294Y-73587110D01*
X48803629Y-73559467D01*
X48666159Y-73558507D01*
X48531121Y-73584267D01*
X48403658Y-73635765D01*
X48366000Y-73660408D01*
X48366000Y-70641600D01*
X48361707Y-70597819D01*
X48357877Y-70554039D01*
X48357180Y-70551638D01*
X48356935Y-70549144D01*
X48344214Y-70507012D01*
X48331959Y-70464829D01*
X48330808Y-70462608D01*
X48330084Y-70460211D01*
X48309428Y-70421363D01*
X48289207Y-70382352D01*
X48287647Y-70380398D01*
X48286471Y-70378186D01*
X48258681Y-70344113D01*
X48231250Y-70309749D01*
X48227814Y-70306265D01*
X48227756Y-70306194D01*
X48227690Y-70306139D01*
X48226583Y-70305017D01*
X40925183Y-63003617D01*
X40891179Y-62975686D01*
X40857524Y-62947446D01*
X40855334Y-62946242D01*
X40853397Y-62944651D01*
X40814589Y-62923843D01*
X40776116Y-62902692D01*
X40773734Y-62901936D01*
X40771525Y-62900752D01*
X40729430Y-62887882D01*
X40687566Y-62874602D01*
X40685081Y-62874323D01*
X40682686Y-62873591D01*
X40638950Y-62869149D01*
X40595246Y-62864246D01*
X40590352Y-62864212D01*
X40590262Y-62864203D01*
X40590178Y-62864211D01*
X40588600Y-62864200D01*
X39803875Y-62864200D01*
X39737596Y-62797457D01*
X39623626Y-62720583D01*
X39496894Y-62667310D01*
X39362229Y-62639667D01*
X39224759Y-62638707D01*
X39089721Y-62664467D01*
X38962258Y-62715965D01*
X38847225Y-62791241D01*
X38749004Y-62887426D01*
X38671337Y-63000857D01*
X38617180Y-63127213D01*
X38588598Y-63261682D01*
X38586678Y-63399142D01*
X38611495Y-63534357D01*
X38662102Y-63662176D01*
X38736573Y-63777732D01*
X38832070Y-63876621D01*
X38944956Y-63955079D01*
X39070931Y-64010117D01*
X39205197Y-64039637D01*
X39342640Y-64042516D01*
X39478025Y-64018644D01*
X39606195Y-63968930D01*
X39722267Y-63895268D01*
X39805297Y-63816200D01*
X40391434Y-63816200D01*
X47414000Y-70838766D01*
X47414000Y-71129509D01*
X47408294Y-71127110D01*
X47273629Y-71099467D01*
X47136159Y-71098507D01*
X47001121Y-71124267D01*
X46873658Y-71175765D01*
X46758625Y-71251041D01*
X46660404Y-71347226D01*
X46582737Y-71460657D01*
X46570939Y-71488185D01*
X46521941Y-71369308D01*
X46445865Y-71254804D01*
X46348996Y-71157257D01*
X46235026Y-71080383D01*
X46108294Y-71027110D01*
X45973629Y-70999467D01*
X45836159Y-70998507D01*
X45701121Y-71024267D01*
X45573658Y-71075765D01*
X45458625Y-71151041D01*
X45360404Y-71247226D01*
X45282737Y-71360657D01*
X45228916Y-71486230D01*
X45221941Y-71469308D01*
X45145865Y-71354804D01*
X45048996Y-71257257D01*
X44935026Y-71180383D01*
X44808294Y-71127110D01*
X44673629Y-71099467D01*
X44536159Y-71098507D01*
X44401121Y-71124267D01*
X44273658Y-71175765D01*
X44158625Y-71251041D01*
X44060404Y-71347226D01*
X43982737Y-71460657D01*
X43928580Y-71587013D01*
X43899998Y-71721482D01*
X43899113Y-71784862D01*
X43824397Y-71770000D01*
X42960000Y-71770000D01*
X42860000Y-71870000D01*
X42860000Y-73370000D01*
X42880000Y-73370000D01*
X42880000Y-73400000D01*
X42000000Y-73400000D01*
X41963654Y-73406839D01*
X41930273Y-73428319D01*
X41907879Y-73461094D01*
X41906075Y-73470000D01*
X41535000Y-73470000D01*
X41435000Y-73570000D01*
X41435000Y-74709396D01*
X41450372Y-74786675D01*
X41480524Y-74859471D01*
X41524299Y-74924985D01*
X41580014Y-74980700D01*
X41645529Y-75024475D01*
X41718324Y-75054628D01*
X41795603Y-75070000D01*
X41900000Y-75070000D01*
X41900000Y-75869982D01*
X41598573Y-75743274D01*
X41183006Y-75657970D01*
X41198838Y-75588284D01*
X41201030Y-75431263D01*
X41174328Y-75296408D01*
X41121941Y-75169308D01*
X41045865Y-75054804D01*
X41006413Y-75015076D01*
X41006413Y-74059755D01*
X41063634Y-74005264D01*
X41142878Y-73892929D01*
X41198794Y-73767341D01*
X41229251Y-73633284D01*
X41231443Y-73476263D01*
X41204741Y-73341408D01*
X41152354Y-73214308D01*
X41076278Y-73099804D01*
X40979409Y-73002257D01*
X40865439Y-72925383D01*
X40738707Y-72872110D01*
X40604042Y-72844467D01*
X40466572Y-72843507D01*
X40331534Y-72869267D01*
X40204071Y-72920765D01*
X40089038Y-72996041D01*
X39990817Y-73092226D01*
X39913150Y-73205657D01*
X39858993Y-73332013D01*
X39852127Y-73364317D01*
X39736159Y-73363507D01*
X39601121Y-73389267D01*
X39473658Y-73440765D01*
X39358625Y-73516041D01*
X39260404Y-73612226D01*
X39182737Y-73725657D01*
X39128580Y-73852013D01*
X39099998Y-73986482D01*
X39098078Y-74123942D01*
X39122895Y-74259157D01*
X39173502Y-74386976D01*
X39247973Y-74502532D01*
X39276017Y-74531572D01*
X39272514Y-74566059D01*
X39267611Y-74609763D01*
X39267577Y-74614657D01*
X39267568Y-74614747D01*
X39267576Y-74614831D01*
X39267565Y-74616409D01*
X39267565Y-75487465D01*
X39245865Y-75454804D01*
X39148996Y-75357257D01*
X39035026Y-75280383D01*
X38908294Y-75227110D01*
X38773629Y-75199467D01*
X38636159Y-75198507D01*
X38501121Y-75224267D01*
X38373658Y-75275765D01*
X38258625Y-75351041D01*
X38160404Y-75447226D01*
X38082737Y-75560657D01*
X38059360Y-75615198D01*
X37988602Y-75615198D01*
X38088600Y-75515200D01*
X38088600Y-75125803D01*
X38073228Y-75048524D01*
X38043075Y-74975729D01*
X37999300Y-74910214D01*
X37943585Y-74854499D01*
X37878071Y-74810724D01*
X37805275Y-74780572D01*
X37727996Y-74765200D01*
X37213600Y-74765200D01*
X37113600Y-74865200D01*
X37113600Y-75615200D01*
X37133600Y-75615200D01*
X37133600Y-75715200D01*
X37113600Y-75715200D01*
X37113600Y-76465200D01*
X37213600Y-76565200D01*
X37361634Y-76565200D01*
X37114332Y-76812502D01*
X36438600Y-76812502D01*
X36382705Y-76816959D01*
X36287900Y-76846319D01*
X36205028Y-76900927D01*
X36140651Y-76976462D01*
X36099866Y-77066941D01*
X36085902Y-77165200D01*
X36085902Y-77189200D01*
X35980717Y-77189200D01*
X35948996Y-77157257D01*
X35835026Y-77080383D01*
X35708294Y-77027110D01*
X35573629Y-76999467D01*
X35436159Y-76998507D01*
X35301121Y-77024267D01*
X35173658Y-77075765D01*
X35058625Y-77151041D01*
X34960404Y-77247226D01*
X34882737Y-77360657D01*
X34828580Y-77487013D01*
X34817122Y-77540920D01*
X31966022Y-75947494D01*
X31810577Y-75815200D01*
X36038600Y-75815200D01*
X36038600Y-76204597D01*
X36053972Y-76281876D01*
X36084125Y-76354671D01*
X36127900Y-76420186D01*
X36183615Y-76475901D01*
X36249129Y-76519676D01*
X36321925Y-76549828D01*
X36399204Y-76565200D01*
X36913600Y-76565200D01*
X37013600Y-76465200D01*
X37013600Y-75715200D01*
X36138600Y-75715200D01*
X36038600Y-75815200D01*
X31810577Y-75815200D01*
X31687932Y-75710821D01*
X31693983Y-75710821D01*
X31730011Y-75711386D01*
X31735588Y-75710888D01*
X33192929Y-75570517D01*
X33228618Y-75563514D01*
X33264352Y-75557019D01*
X33269726Y-75555447D01*
X34672045Y-75134683D01*
X34693695Y-75125803D01*
X36038600Y-75125803D01*
X36038600Y-75515200D01*
X36138600Y-75615200D01*
X37013600Y-75615200D01*
X37013600Y-74865200D01*
X36913600Y-74765200D01*
X36399204Y-74765200D01*
X36321925Y-74780572D01*
X36249129Y-74810724D01*
X36183615Y-74854499D01*
X36127900Y-74910214D01*
X36084125Y-74975729D01*
X36053972Y-75048524D01*
X36038600Y-75125803D01*
X34693695Y-75125803D01*
X34705652Y-75120899D01*
X34739486Y-75107570D01*
X34744452Y-75104984D01*
X36038338Y-74419854D01*
X36068623Y-74399807D01*
X36099228Y-74380158D01*
X36103598Y-74376657D01*
X37239767Y-73453259D01*
X37265600Y-73427693D01*
X37291787Y-73402491D01*
X37295393Y-73398208D01*
X38180205Y-72332378D01*
X38247973Y-72437532D01*
X38343470Y-72536421D01*
X38456356Y-72614879D01*
X38582331Y-72669917D01*
X38716597Y-72699437D01*
X38854040Y-72702316D01*
X38989425Y-72678444D01*
X39117595Y-72628730D01*
X39233667Y-72555068D01*
X39316697Y-72476000D01*
X40285122Y-72476000D01*
X40343470Y-72536421D01*
X40456356Y-72614879D01*
X40582331Y-72669917D01*
X40716597Y-72699437D01*
X40854040Y-72702316D01*
X40989425Y-72678444D01*
X41117595Y-72628730D01*
X41233667Y-72555068D01*
X41333221Y-72460264D01*
X41412465Y-72347929D01*
X41435000Y-72297315D01*
X41435000Y-73270000D01*
X41535000Y-73370000D01*
X42760000Y-73370000D01*
X42760000Y-71870000D01*
X42660000Y-71770000D01*
X41795603Y-71770000D01*
X41718324Y-71785372D01*
X41645529Y-71815525D01*
X41580014Y-71859300D01*
X41524299Y-71915015D01*
X41500765Y-71950236D01*
X41501030Y-71931263D01*
X41474328Y-71796408D01*
X41421941Y-71669308D01*
X41345865Y-71554804D01*
X41248996Y-71457257D01*
X41135026Y-71380383D01*
X41008294Y-71327110D01*
X40873629Y-71299467D01*
X40736159Y-71298507D01*
X40601121Y-71324267D01*
X40473658Y-71375765D01*
X40358625Y-71451041D01*
X40284122Y-71524000D01*
X39315275Y-71524000D01*
X39248996Y-71457257D01*
X39135026Y-71380383D01*
X39008294Y-71327110D01*
X38873629Y-71299467D01*
X38767507Y-71298726D01*
X38973002Y-70920223D01*
X38987137Y-70886759D01*
X39001752Y-70853462D01*
X39003454Y-70848128D01*
X39438792Y-69450265D01*
X39446170Y-69414634D01*
X39454026Y-69379192D01*
X39454660Y-69373628D01*
X39610194Y-67917828D01*
X39610510Y-67881473D01*
X39611333Y-67845150D01*
X39610874Y-67839569D01*
X39480679Y-66381286D01*
X39473934Y-66345597D01*
X39467681Y-66309771D01*
X39466146Y-66304386D01*
X39055183Y-64899163D01*
X39041617Y-64865419D01*
X39028541Y-64831534D01*
X39025990Y-64826549D01*
X38349910Y-63527913D01*
X38330063Y-63497469D01*
X38310640Y-63466747D01*
X38307170Y-63462353D01*
X37391726Y-62319765D01*
X37366345Y-62293757D01*
X37341323Y-62267391D01*
X37337065Y-62263755D01*
X36217126Y-61320739D01*
X36187183Y-61300161D01*
X36157510Y-61279153D01*
X36152627Y-61276414D01*
X34870851Y-60568888D01*
X34837508Y-60554529D01*
X34804294Y-60539673D01*
X34798972Y-60537934D01*
X33404181Y-60092848D01*
X33368648Y-60085231D01*
X33333217Y-60077118D01*
X33327658Y-60076445D01*
X31872979Y-59910751D01*
X31836623Y-59910181D01*
X31800310Y-59909104D01*
X31794727Y-59909524D01*
X30335570Y-60029535D01*
X30299760Y-60036044D01*
X30263965Y-60042035D01*
X30258570Y-60043531D01*
X28850512Y-60444674D01*
X28816668Y-60458007D01*
X28782700Y-60470843D01*
X28777702Y-60473357D01*
X28777697Y-60473359D01*
X28777693Y-60473362D01*
X27474371Y-61140356D01*
X27443749Y-61160016D01*
X27412933Y-61179199D01*
X27408522Y-61182633D01*
X27408515Y-61182638D01*
X27408509Y-61182644D01*
X26259565Y-62090084D01*
X26233380Y-62115284D01*
X26206841Y-62140120D01*
X26203175Y-62144352D01*
X25252363Y-63257680D01*
X25231579Y-63287475D01*
X25210362Y-63317004D01*
X25207588Y-63321867D01*
X24491131Y-64598674D01*
X24476519Y-64631964D01*
X24461453Y-64665026D01*
X24459676Y-64670336D01*
X24004863Y-66061985D01*
X23996997Y-66097474D01*
X23988638Y-66132838D01*
X23987927Y-66138392D01*
X23812465Y-67588714D01*
X23438936Y-67117438D01*
X20619993Y-61632368D01*
X19615402Y-58128942D01*
X35938078Y-58128942D01*
X35962895Y-58264157D01*
X36013502Y-58391976D01*
X36087973Y-58507532D01*
X36183470Y-58606421D01*
X36296356Y-58684879D01*
X36422331Y-58739917D01*
X36556597Y-58769437D01*
X36694040Y-58772316D01*
X36829425Y-58748444D01*
X36957595Y-58698730D01*
X37064320Y-58631000D01*
X38736387Y-58631000D01*
X38756356Y-58644879D01*
X38882331Y-58699917D01*
X39016597Y-58729437D01*
X39154040Y-58732316D01*
X39289425Y-58708444D01*
X39417595Y-58658730D01*
X39533667Y-58585068D01*
X39633221Y-58490264D01*
X39712465Y-58377929D01*
X39768381Y-58252341D01*
X39798838Y-58118284D01*
X39801030Y-57961263D01*
X39774328Y-57826408D01*
X39721941Y-57699308D01*
X39645865Y-57584804D01*
X39548996Y-57487257D01*
X39435026Y-57410383D01*
X39308294Y-57357110D01*
X39173629Y-57329467D01*
X39036159Y-57328507D01*
X38901121Y-57354267D01*
X38773658Y-57405765D01*
X38738151Y-57429000D01*
X36924158Y-57429000D01*
X36848294Y-57397110D01*
X36713629Y-57369467D01*
X36576159Y-57368507D01*
X36441121Y-57394267D01*
X36313658Y-57445765D01*
X36198625Y-57521041D01*
X36100404Y-57617226D01*
X36022737Y-57730657D01*
X35968580Y-57857013D01*
X35939998Y-57991482D01*
X35938078Y-58128942D01*
X19615402Y-58128942D01*
X18920125Y-55704224D01*
X18404080Y-49558809D01*
X18898607Y-45150000D01*
X25650000Y-45150000D01*
X25650000Y-45389397D01*
X25665372Y-45466676D01*
X25695525Y-45539471D01*
X25739300Y-45604986D01*
X25795015Y-45660701D01*
X25860529Y-45704476D01*
X25933325Y-45734628D01*
X26010604Y-45750000D01*
X26550000Y-45750000D01*
X26650000Y-45650000D01*
X26650000Y-45050000D01*
X26750000Y-45050000D01*
X26750000Y-45650000D01*
X26850000Y-45750000D01*
X27389396Y-45750000D01*
X27466675Y-45734628D01*
X27539471Y-45704476D01*
X27604985Y-45660701D01*
X27660700Y-45604986D01*
X27673380Y-45586009D01*
X27695524Y-45639471D01*
X27739299Y-45704985D01*
X27795014Y-45760700D01*
X27860529Y-45804475D01*
X27933324Y-45834628D01*
X28010603Y-45850000D01*
X28350000Y-45850000D01*
X28450000Y-45750000D01*
X28450000Y-45100000D01*
X28550000Y-45100000D01*
X28550000Y-45750000D01*
X28650000Y-45850000D01*
X28989397Y-45850000D01*
X29066676Y-45834628D01*
X29139471Y-45804475D01*
X29204986Y-45760700D01*
X29260701Y-45704985D01*
X29304476Y-45639471D01*
X29334628Y-45566675D01*
X29350000Y-45489396D01*
X29350000Y-45200000D01*
X29250000Y-45100000D01*
X28550000Y-45100000D01*
X28450000Y-45100000D01*
X27750000Y-45100000D01*
X27725000Y-45125000D01*
X27650000Y-45050000D01*
X26750000Y-45050000D01*
X26650000Y-45050000D01*
X25750000Y-45050000D01*
X25650000Y-45150000D01*
X18898607Y-45150000D01*
X18959110Y-44610603D01*
X25650000Y-44610603D01*
X25650000Y-44850000D01*
X25750000Y-44950000D01*
X26650000Y-44950000D01*
X26650000Y-44350000D01*
X26750000Y-44350000D01*
X26750000Y-44950000D01*
X27650000Y-44950000D01*
X27675000Y-44925000D01*
X27750000Y-45000000D01*
X28450000Y-45000000D01*
X28450000Y-44350000D01*
X28550000Y-44350000D01*
X28550000Y-45000000D01*
X29250000Y-45000000D01*
X29350000Y-44900000D01*
X29350000Y-44610604D01*
X29334628Y-44533325D01*
X29304476Y-44460529D01*
X29260701Y-44395015D01*
X29204986Y-44339300D01*
X29139471Y-44295525D01*
X29066676Y-44265372D01*
X28989397Y-44250000D01*
X28650000Y-44250000D01*
X28550000Y-44350000D01*
X28450000Y-44350000D01*
X28350000Y-44250000D01*
X28010603Y-44250000D01*
X27933324Y-44265372D01*
X27860529Y-44295525D01*
X27795014Y-44339300D01*
X27739299Y-44395015D01*
X27700000Y-44453831D01*
X27660700Y-44395014D01*
X27604985Y-44339299D01*
X27539471Y-44295524D01*
X27466675Y-44265372D01*
X27389396Y-44250000D01*
X26850000Y-44250000D01*
X26750000Y-44350000D01*
X26650000Y-44350000D01*
X26550000Y-44250000D01*
X26010604Y-44250000D01*
X25933325Y-44265372D01*
X25860529Y-44295524D01*
X25795015Y-44339299D01*
X25739300Y-44395014D01*
X25695525Y-44460529D01*
X25665372Y-44533324D01*
X25650000Y-44610603D01*
X18959110Y-44610603D01*
X19091514Y-43430198D01*
X19713907Y-41468166D01*
X19729139Y-41551159D01*
X19898865Y-41979837D01*
X20148622Y-42367384D01*
X20468898Y-42699039D01*
X20847493Y-42962169D01*
X21269986Y-43146752D01*
X21720285Y-43245757D01*
X22181239Y-43255412D01*
X22635289Y-43175351D01*
X23065142Y-43008622D01*
X23454423Y-42761577D01*
X23788306Y-42443624D01*
X24054073Y-42066876D01*
X24241601Y-41645681D01*
X24343747Y-41196084D01*
X24351100Y-40669473D01*
X24261548Y-40217199D01*
X24085853Y-39790932D01*
X23830709Y-39406910D01*
X23505834Y-39079759D01*
X23240814Y-38901000D01*
X26300000Y-38901000D01*
X26337582Y-38897315D01*
X26375140Y-38893897D01*
X26376488Y-38893500D01*
X26377888Y-38893363D01*
X26414009Y-38882457D01*
X26450217Y-38871801D01*
X26451464Y-38871149D01*
X26452809Y-38870743D01*
X26486118Y-38853032D01*
X26519573Y-38835542D01*
X26520669Y-38834661D01*
X26521910Y-38834001D01*
X26551125Y-38810174D01*
X26580565Y-38786504D01*
X26581470Y-38785425D01*
X26582558Y-38784538D01*
X26606556Y-38755530D01*
X26630871Y-38726552D01*
X26631550Y-38725316D01*
X26632444Y-38724236D01*
X26650371Y-38691081D01*
X26668573Y-38657971D01*
X26668998Y-38656631D01*
X26669667Y-38655394D01*
X26680835Y-38619316D01*
X26692237Y-38583373D01*
X26692394Y-38581977D01*
X26692810Y-38580632D01*
X26696755Y-38543097D01*
X26700961Y-38505599D01*
X26700980Y-38502896D01*
X26700990Y-38502799D01*
X26700981Y-38502702D01*
X26701000Y-38500000D01*
X26701000Y-37055641D01*
X26870620Y-37145528D01*
X27089893Y-37211191D01*
X27317763Y-37232814D01*
X27545474Y-37209567D01*
X27764273Y-37142341D01*
X27958831Y-37038349D01*
X28032339Y-36854650D01*
X27313600Y-36135911D01*
X27299458Y-36150053D01*
X27228747Y-36079342D01*
X27242889Y-36065200D01*
X27228747Y-36051058D01*
X27299458Y-35980347D01*
X27313600Y-35994489D01*
X27327742Y-35980347D01*
X27398453Y-36051058D01*
X27398453Y-36051058D01*
G37*
X27398453Y-36051058D02*
X27384311Y-36065200D01*
X28103050Y-36783939D01*
X28182217Y-36752260D01*
X28187129Y-36759882D01*
X28338752Y-36916893D01*
X28517985Y-37041463D01*
X28718000Y-37128847D01*
X28931179Y-37175718D01*
X29149401Y-37180289D01*
X29364356Y-37142387D01*
X29567855Y-37063455D01*
X29752147Y-36946499D01*
X29910212Y-36795976D01*
X29936434Y-36758804D01*
X29937129Y-36759882D01*
X30088752Y-36916893D01*
X30267985Y-37041463D01*
X30337600Y-37071877D01*
X30337600Y-40689234D01*
X28629532Y-42397302D01*
X28050000Y-42397302D01*
X27994105Y-42401759D01*
X27899300Y-42431119D01*
X27816428Y-42485727D01*
X27752051Y-42561262D01*
X27711266Y-42651741D01*
X27708103Y-42674000D01*
X27692015Y-42674000D01*
X27668881Y-42599300D01*
X27614273Y-42516428D01*
X27538738Y-42452051D01*
X27448259Y-42411266D01*
X27350000Y-42397302D01*
X26050000Y-42397302D01*
X25994105Y-42401759D01*
X25899300Y-42431119D01*
X25816428Y-42485727D01*
X25752051Y-42561262D01*
X25711266Y-42651741D01*
X25697302Y-42750000D01*
X25697302Y-43450000D01*
X25701759Y-43505895D01*
X25731119Y-43600700D01*
X25785727Y-43683572D01*
X25861262Y-43747949D01*
X25951741Y-43788734D01*
X26050000Y-43802698D01*
X27350000Y-43802698D01*
X27405895Y-43798241D01*
X27500700Y-43768881D01*
X27583572Y-43714273D01*
X27647949Y-43638738D01*
X27653691Y-43626000D01*
X27707985Y-43626000D01*
X27731119Y-43700700D01*
X27785727Y-43783572D01*
X27861262Y-43847949D01*
X27951741Y-43888734D01*
X28050000Y-43902698D01*
X28950000Y-43902698D01*
X29005895Y-43898241D01*
X29100700Y-43868881D01*
X29183572Y-43814273D01*
X29247949Y-43738738D01*
X29288734Y-43648259D01*
X29302698Y-43550000D01*
X29302698Y-43070468D01*
X31150183Y-41222983D01*
X31178114Y-41188979D01*
X31206354Y-41155324D01*
X31207558Y-41153134D01*
X31209149Y-41151197D01*
X31229957Y-41112389D01*
X31251108Y-41073916D01*
X31251864Y-41071534D01*
X31253048Y-41069325D01*
X31265914Y-41027242D01*
X31279198Y-40985366D01*
X31279477Y-40982880D01*
X31280209Y-40980485D01*
X31284656Y-40936711D01*
X31289554Y-40893046D01*
X31289588Y-40888162D01*
X31289598Y-40888062D01*
X31289589Y-40887968D01*
X31289600Y-40886400D01*
X31289600Y-37074414D01*
X31317855Y-37063455D01*
X31502147Y-36946499D01*
X31660212Y-36795976D01*
X31686434Y-36758804D01*
X31687129Y-36759882D01*
X31724000Y-36798063D01*
X31724000Y-42597302D01*
X31550000Y-42597302D01*
X31494105Y-42601759D01*
X31399300Y-42631119D01*
X31316428Y-42685727D01*
X31252051Y-42761262D01*
X31211266Y-42851741D01*
X31197302Y-42950000D01*
X31197302Y-43451964D01*
X31138738Y-43402051D01*
X31048259Y-43361266D01*
X30950000Y-43347302D01*
X30050000Y-43347302D01*
X29994105Y-43351759D01*
X29899300Y-43381119D01*
X29816428Y-43435727D01*
X29752051Y-43511262D01*
X29711266Y-43601741D01*
X29697302Y-43700000D01*
X29697302Y-44500000D01*
X29701759Y-44555895D01*
X29731119Y-44650700D01*
X29785727Y-44733572D01*
X29861262Y-44797949D01*
X29951741Y-44838734D01*
X30024000Y-44849003D01*
X30024000Y-47304398D01*
X30028293Y-47348179D01*
X30032123Y-47391959D01*
X30032820Y-47394360D01*
X30033065Y-47396854D01*
X30045786Y-47438986D01*
X30058041Y-47481169D01*
X30059192Y-47483390D01*
X30059916Y-47485787D01*
X30080572Y-47524635D01*
X30100793Y-47563646D01*
X30102353Y-47565600D01*
X30103529Y-47567812D01*
X30131319Y-47601885D01*
X30158750Y-47636249D01*
X30162186Y-47639733D01*
X30162244Y-47639804D01*
X30162310Y-47639859D01*
X30163417Y-47640981D01*
X50337600Y-67815164D01*
X50337600Y-69713670D01*
X50312900Y-69721319D01*
X50230028Y-69775927D01*
X50165651Y-69851462D01*
X50124866Y-69941941D01*
X50110902Y-70040200D01*
X50110902Y-71340200D01*
X50115359Y-71396095D01*
X50144719Y-71490900D01*
X50199327Y-71573772D01*
X50274862Y-71638149D01*
X50337600Y-71666429D01*
X50337600Y-73315200D01*
X50341893Y-73358981D01*
X50345723Y-73402761D01*
X50346420Y-73405162D01*
X50346665Y-73407656D01*
X50359386Y-73449788D01*
X50371641Y-73491971D01*
X50372792Y-73494192D01*
X50373516Y-73496589D01*
X50394172Y-73535437D01*
X50401327Y-73549241D01*
X50296159Y-73548507D01*
X50161121Y-73574267D01*
X50033658Y-73625765D01*
X49982870Y-73659000D01*
X49092627Y-73659000D01*
X49065026Y-73640383D01*
X48938294Y-73587110D01*
X48803629Y-73559467D01*
X48666159Y-73558507D01*
X48531121Y-73584267D01*
X48403658Y-73635765D01*
X48366000Y-73660408D01*
X48366000Y-70641600D01*
X48361707Y-70597819D01*
X48357877Y-70554039D01*
X48357180Y-70551638D01*
X48356935Y-70549144D01*
X48344214Y-70507012D01*
X48331959Y-70464829D01*
X48330808Y-70462608D01*
X48330084Y-70460211D01*
X48309428Y-70421363D01*
X48289207Y-70382352D01*
X48287647Y-70380398D01*
X48286471Y-70378186D01*
X48258681Y-70344113D01*
X48231250Y-70309749D01*
X48227814Y-70306265D01*
X48227756Y-70306194D01*
X48227690Y-70306139D01*
X48226583Y-70305017D01*
X40925183Y-63003617D01*
X40891179Y-62975686D01*
X40857524Y-62947446D01*
X40855334Y-62946242D01*
X40853397Y-62944651D01*
X40814589Y-62923843D01*
X40776116Y-62902692D01*
X40773734Y-62901936D01*
X40771525Y-62900752D01*
X40729430Y-62887882D01*
X40687566Y-62874602D01*
X40685081Y-62874323D01*
X40682686Y-62873591D01*
X40638950Y-62869149D01*
X40595246Y-62864246D01*
X40590352Y-62864212D01*
X40590262Y-62864203D01*
X40590178Y-62864211D01*
X40588600Y-62864200D01*
X39803875Y-62864200D01*
X39737596Y-62797457D01*
X39623626Y-62720583D01*
X39496894Y-62667310D01*
X39362229Y-62639667D01*
X39224759Y-62638707D01*
X39089721Y-62664467D01*
X38962258Y-62715965D01*
X38847225Y-62791241D01*
X38749004Y-62887426D01*
X38671337Y-63000857D01*
X38617180Y-63127213D01*
X38588598Y-63261682D01*
X38586678Y-63399142D01*
X38611495Y-63534357D01*
X38662102Y-63662176D01*
X38736573Y-63777732D01*
X38832070Y-63876621D01*
X38944956Y-63955079D01*
X39070931Y-64010117D01*
X39205197Y-64039637D01*
X39342640Y-64042516D01*
X39478025Y-64018644D01*
X39606195Y-63968930D01*
X39722267Y-63895268D01*
X39805297Y-63816200D01*
X40391434Y-63816200D01*
X47414000Y-70838766D01*
X47414000Y-71129509D01*
X47408294Y-71127110D01*
X47273629Y-71099467D01*
X47136159Y-71098507D01*
X47001121Y-71124267D01*
X46873658Y-71175765D01*
X46758625Y-71251041D01*
X46660404Y-71347226D01*
X46582737Y-71460657D01*
X46570939Y-71488185D01*
X46521941Y-71369308D01*
X46445865Y-71254804D01*
X46348996Y-71157257D01*
X46235026Y-71080383D01*
X46108294Y-71027110D01*
X45973629Y-70999467D01*
X45836159Y-70998507D01*
X45701121Y-71024267D01*
X45573658Y-71075765D01*
X45458625Y-71151041D01*
X45360404Y-71247226D01*
X45282737Y-71360657D01*
X45228916Y-71486230D01*
X45221941Y-71469308D01*
X45145865Y-71354804D01*
X45048996Y-71257257D01*
X44935026Y-71180383D01*
X44808294Y-71127110D01*
X44673629Y-71099467D01*
X44536159Y-71098507D01*
X44401121Y-71124267D01*
X44273658Y-71175765D01*
X44158625Y-71251041D01*
X44060404Y-71347226D01*
X43982737Y-71460657D01*
X43928580Y-71587013D01*
X43899998Y-71721482D01*
X43899113Y-71784862D01*
X43824397Y-71770000D01*
X42960000Y-71770000D01*
X42860000Y-71870000D01*
X42860000Y-73370000D01*
X42880000Y-73370000D01*
X42880000Y-73400000D01*
X42000000Y-73400000D01*
X41963654Y-73406839D01*
X41930273Y-73428319D01*
X41907879Y-73461094D01*
X41906075Y-73470000D01*
X41535000Y-73470000D01*
X41435000Y-73570000D01*
X41435000Y-74709396D01*
X41450372Y-74786675D01*
X41480524Y-74859471D01*
X41524299Y-74924985D01*
X41580014Y-74980700D01*
X41645529Y-75024475D01*
X41718324Y-75054628D01*
X41795603Y-75070000D01*
X41900000Y-75070000D01*
X41900000Y-75869982D01*
X41598573Y-75743274D01*
X41183006Y-75657970D01*
X41198838Y-75588284D01*
X41201030Y-75431263D01*
X41174328Y-75296408D01*
X41121941Y-75169308D01*
X41045865Y-75054804D01*
X41006413Y-75015076D01*
X41006413Y-74059755D01*
X41063634Y-74005264D01*
X41142878Y-73892929D01*
X41198794Y-73767341D01*
X41229251Y-73633284D01*
X41231443Y-73476263D01*
X41204741Y-73341408D01*
X41152354Y-73214308D01*
X41076278Y-73099804D01*
X40979409Y-73002257D01*
X40865439Y-72925383D01*
X40738707Y-72872110D01*
X40604042Y-72844467D01*
X40466572Y-72843507D01*
X40331534Y-72869267D01*
X40204071Y-72920765D01*
X40089038Y-72996041D01*
X39990817Y-73092226D01*
X39913150Y-73205657D01*
X39858993Y-73332013D01*
X39852127Y-73364317D01*
X39736159Y-73363507D01*
X39601121Y-73389267D01*
X39473658Y-73440765D01*
X39358625Y-73516041D01*
X39260404Y-73612226D01*
X39182737Y-73725657D01*
X39128580Y-73852013D01*
X39099998Y-73986482D01*
X39098078Y-74123942D01*
X39122895Y-74259157D01*
X39173502Y-74386976D01*
X39247973Y-74502532D01*
X39276017Y-74531572D01*
X39272514Y-74566059D01*
X39267611Y-74609763D01*
X39267577Y-74614657D01*
X39267568Y-74614747D01*
X39267576Y-74614831D01*
X39267565Y-74616409D01*
X39267565Y-75487465D01*
X39245865Y-75454804D01*
X39148996Y-75357257D01*
X39035026Y-75280383D01*
X38908294Y-75227110D01*
X38773629Y-75199467D01*
X38636159Y-75198507D01*
X38501121Y-75224267D01*
X38373658Y-75275765D01*
X38258625Y-75351041D01*
X38160404Y-75447226D01*
X38082737Y-75560657D01*
X38059360Y-75615198D01*
X37988602Y-75615198D01*
X38088600Y-75515200D01*
X38088600Y-75125803D01*
X38073228Y-75048524D01*
X38043075Y-74975729D01*
X37999300Y-74910214D01*
X37943585Y-74854499D01*
X37878071Y-74810724D01*
X37805275Y-74780572D01*
X37727996Y-74765200D01*
X37213600Y-74765200D01*
X37113600Y-74865200D01*
X37113600Y-75615200D01*
X37133600Y-75615200D01*
X37133600Y-75715200D01*
X37113600Y-75715200D01*
X37113600Y-76465200D01*
X37213600Y-76565200D01*
X37361634Y-76565200D01*
X37114332Y-76812502D01*
X36438600Y-76812502D01*
X36382705Y-76816959D01*
X36287900Y-76846319D01*
X36205028Y-76900927D01*
X36140651Y-76976462D01*
X36099866Y-77066941D01*
X36085902Y-77165200D01*
X36085902Y-77189200D01*
X35980717Y-77189200D01*
X35948996Y-77157257D01*
X35835026Y-77080383D01*
X35708294Y-77027110D01*
X35573629Y-76999467D01*
X35436159Y-76998507D01*
X35301121Y-77024267D01*
X35173658Y-77075765D01*
X35058625Y-77151041D01*
X34960404Y-77247226D01*
X34882737Y-77360657D01*
X34828580Y-77487013D01*
X34817122Y-77540920D01*
X31966022Y-75947494D01*
X31810577Y-75815200D01*
X36038600Y-75815200D01*
X36038600Y-76204597D01*
X36053972Y-76281876D01*
X36084125Y-76354671D01*
X36127900Y-76420186D01*
X36183615Y-76475901D01*
X36249129Y-76519676D01*
X36321925Y-76549828D01*
X36399204Y-76565200D01*
X36913600Y-76565200D01*
X37013600Y-76465200D01*
X37013600Y-75715200D01*
X36138600Y-75715200D01*
X36038600Y-75815200D01*
X31810577Y-75815200D01*
X31687932Y-75710821D01*
X31693983Y-75710821D01*
X31730011Y-75711386D01*
X31735588Y-75710888D01*
X33192929Y-75570517D01*
X33228618Y-75563514D01*
X33264352Y-75557019D01*
X33269726Y-75555447D01*
X34672045Y-75134683D01*
X34693695Y-75125803D01*
X36038600Y-75125803D01*
X36038600Y-75515200D01*
X36138600Y-75615200D01*
X37013600Y-75615200D01*
X37013600Y-74865200D01*
X36913600Y-74765200D01*
X36399204Y-74765200D01*
X36321925Y-74780572D01*
X36249129Y-74810724D01*
X36183615Y-74854499D01*
X36127900Y-74910214D01*
X36084125Y-74975729D01*
X36053972Y-75048524D01*
X36038600Y-75125803D01*
X34693695Y-75125803D01*
X34705652Y-75120899D01*
X34739486Y-75107570D01*
X34744452Y-75104984D01*
X36038338Y-74419854D01*
X36068623Y-74399807D01*
X36099228Y-74380158D01*
X36103598Y-74376657D01*
X37239767Y-73453259D01*
X37265600Y-73427693D01*
X37291787Y-73402491D01*
X37295393Y-73398208D01*
X38180205Y-72332378D01*
X38247973Y-72437532D01*
X38343470Y-72536421D01*
X38456356Y-72614879D01*
X38582331Y-72669917D01*
X38716597Y-72699437D01*
X38854040Y-72702316D01*
X38989425Y-72678444D01*
X39117595Y-72628730D01*
X39233667Y-72555068D01*
X39316697Y-72476000D01*
X40285122Y-72476000D01*
X40343470Y-72536421D01*
X40456356Y-72614879D01*
X40582331Y-72669917D01*
X40716597Y-72699437D01*
X40854040Y-72702316D01*
X40989425Y-72678444D01*
X41117595Y-72628730D01*
X41233667Y-72555068D01*
X41333221Y-72460264D01*
X41412465Y-72347929D01*
X41435000Y-72297315D01*
X41435000Y-73270000D01*
X41535000Y-73370000D01*
X42760000Y-73370000D01*
X42760000Y-71870000D01*
X42660000Y-71770000D01*
X41795603Y-71770000D01*
X41718324Y-71785372D01*
X41645529Y-71815525D01*
X41580014Y-71859300D01*
X41524299Y-71915015D01*
X41500765Y-71950236D01*
X41501030Y-71931263D01*
X41474328Y-71796408D01*
X41421941Y-71669308D01*
X41345865Y-71554804D01*
X41248996Y-71457257D01*
X41135026Y-71380383D01*
X41008294Y-71327110D01*
X40873629Y-71299467D01*
X40736159Y-71298507D01*
X40601121Y-71324267D01*
X40473658Y-71375765D01*
X40358625Y-71451041D01*
X40284122Y-71524000D01*
X39315275Y-71524000D01*
X39248996Y-71457257D01*
X39135026Y-71380383D01*
X39008294Y-71327110D01*
X38873629Y-71299467D01*
X38767507Y-71298726D01*
X38973002Y-70920223D01*
X38987137Y-70886759D01*
X39001752Y-70853462D01*
X39003454Y-70848128D01*
X39438792Y-69450265D01*
X39446170Y-69414634D01*
X39454026Y-69379192D01*
X39454660Y-69373628D01*
X39610194Y-67917828D01*
X39610510Y-67881473D01*
X39611333Y-67845150D01*
X39610874Y-67839569D01*
X39480679Y-66381286D01*
X39473934Y-66345597D01*
X39467681Y-66309771D01*
X39466146Y-66304386D01*
X39055183Y-64899163D01*
X39041617Y-64865419D01*
X39028541Y-64831534D01*
X39025990Y-64826549D01*
X38349910Y-63527913D01*
X38330063Y-63497469D01*
X38310640Y-63466747D01*
X38307170Y-63462353D01*
X37391726Y-62319765D01*
X37366345Y-62293757D01*
X37341323Y-62267391D01*
X37337065Y-62263755D01*
X36217126Y-61320739D01*
X36187183Y-61300161D01*
X36157510Y-61279153D01*
X36152627Y-61276414D01*
X34870851Y-60568888D01*
X34837508Y-60554529D01*
X34804294Y-60539673D01*
X34798972Y-60537934D01*
X33404181Y-60092848D01*
X33368648Y-60085231D01*
X33333217Y-60077118D01*
X33327658Y-60076445D01*
X31872979Y-59910751D01*
X31836623Y-59910181D01*
X31800310Y-59909104D01*
X31794727Y-59909524D01*
X30335570Y-60029535D01*
X30299760Y-60036044D01*
X30263965Y-60042035D01*
X30258570Y-60043531D01*
X28850512Y-60444674D01*
X28816668Y-60458007D01*
X28782700Y-60470843D01*
X28777702Y-60473357D01*
X28777697Y-60473359D01*
X28777693Y-60473362D01*
X27474371Y-61140356D01*
X27443749Y-61160016D01*
X27412933Y-61179199D01*
X27408522Y-61182633D01*
X27408515Y-61182638D01*
X27408509Y-61182644D01*
X26259565Y-62090084D01*
X26233380Y-62115284D01*
X26206841Y-62140120D01*
X26203175Y-62144352D01*
X25252363Y-63257680D01*
X25231579Y-63287475D01*
X25210362Y-63317004D01*
X25207588Y-63321867D01*
X24491131Y-64598674D01*
X24476519Y-64631964D01*
X24461453Y-64665026D01*
X24459676Y-64670336D01*
X24004863Y-66061985D01*
X23996997Y-66097474D01*
X23988638Y-66132838D01*
X23987927Y-66138392D01*
X23812465Y-67588714D01*
X23438936Y-67117438D01*
X20619993Y-61632368D01*
X19615402Y-58128942D01*
X35938078Y-58128942D01*
X35962895Y-58264157D01*
X36013502Y-58391976D01*
X36087973Y-58507532D01*
X36183470Y-58606421D01*
X36296356Y-58684879D01*
X36422331Y-58739917D01*
X36556597Y-58769437D01*
X36694040Y-58772316D01*
X36829425Y-58748444D01*
X36957595Y-58698730D01*
X37064320Y-58631000D01*
X38736387Y-58631000D01*
X38756356Y-58644879D01*
X38882331Y-58699917D01*
X39016597Y-58729437D01*
X39154040Y-58732316D01*
X39289425Y-58708444D01*
X39417595Y-58658730D01*
X39533667Y-58585068D01*
X39633221Y-58490264D01*
X39712465Y-58377929D01*
X39768381Y-58252341D01*
X39798838Y-58118284D01*
X39801030Y-57961263D01*
X39774328Y-57826408D01*
X39721941Y-57699308D01*
X39645865Y-57584804D01*
X39548996Y-57487257D01*
X39435026Y-57410383D01*
X39308294Y-57357110D01*
X39173629Y-57329467D01*
X39036159Y-57328507D01*
X38901121Y-57354267D01*
X38773658Y-57405765D01*
X38738151Y-57429000D01*
X36924158Y-57429000D01*
X36848294Y-57397110D01*
X36713629Y-57369467D01*
X36576159Y-57368507D01*
X36441121Y-57394267D01*
X36313658Y-57445765D01*
X36198625Y-57521041D01*
X36100404Y-57617226D01*
X36022737Y-57730657D01*
X35968580Y-57857013D01*
X35939998Y-57991482D01*
X35938078Y-58128942D01*
X19615402Y-58128942D01*
X18920125Y-55704224D01*
X18404080Y-49558809D01*
X18898607Y-45150000D01*
X25650000Y-45150000D01*
X25650000Y-45389397D01*
X25665372Y-45466676D01*
X25695525Y-45539471D01*
X25739300Y-45604986D01*
X25795015Y-45660701D01*
X25860529Y-45704476D01*
X25933325Y-45734628D01*
X26010604Y-45750000D01*
X26550000Y-45750000D01*
X26650000Y-45650000D01*
X26650000Y-45050000D01*
X26750000Y-45050000D01*
X26750000Y-45650000D01*
X26850000Y-45750000D01*
X27389396Y-45750000D01*
X27466675Y-45734628D01*
X27539471Y-45704476D01*
X27604985Y-45660701D01*
X27660700Y-45604986D01*
X27673380Y-45586009D01*
X27695524Y-45639471D01*
X27739299Y-45704985D01*
X27795014Y-45760700D01*
X27860529Y-45804475D01*
X27933324Y-45834628D01*
X28010603Y-45850000D01*
X28350000Y-45850000D01*
X28450000Y-45750000D01*
X28450000Y-45100000D01*
X28550000Y-45100000D01*
X28550000Y-45750000D01*
X28650000Y-45850000D01*
X28989397Y-45850000D01*
X29066676Y-45834628D01*
X29139471Y-45804475D01*
X29204986Y-45760700D01*
X29260701Y-45704985D01*
X29304476Y-45639471D01*
X29334628Y-45566675D01*
X29350000Y-45489396D01*
X29350000Y-45200000D01*
X29250000Y-45100000D01*
X28550000Y-45100000D01*
X28450000Y-45100000D01*
X27750000Y-45100000D01*
X27725000Y-45125000D01*
X27650000Y-45050000D01*
X26750000Y-45050000D01*
X26650000Y-45050000D01*
X25750000Y-45050000D01*
X25650000Y-45150000D01*
X18898607Y-45150000D01*
X18959110Y-44610603D01*
X25650000Y-44610603D01*
X25650000Y-44850000D01*
X25750000Y-44950000D01*
X26650000Y-44950000D01*
X26650000Y-44350000D01*
X26750000Y-44350000D01*
X26750000Y-44950000D01*
X27650000Y-44950000D01*
X27675000Y-44925000D01*
X27750000Y-45000000D01*
X28450000Y-45000000D01*
X28450000Y-44350000D01*
X28550000Y-44350000D01*
X28550000Y-45000000D01*
X29250000Y-45000000D01*
X29350000Y-44900000D01*
X29350000Y-44610604D01*
X29334628Y-44533325D01*
X29304476Y-44460529D01*
X29260701Y-44395015D01*
X29204986Y-44339300D01*
X29139471Y-44295525D01*
X29066676Y-44265372D01*
X28989397Y-44250000D01*
X28650000Y-44250000D01*
X28550000Y-44350000D01*
X28450000Y-44350000D01*
X28350000Y-44250000D01*
X28010603Y-44250000D01*
X27933324Y-44265372D01*
X27860529Y-44295525D01*
X27795014Y-44339300D01*
X27739299Y-44395015D01*
X27700000Y-44453831D01*
X27660700Y-44395014D01*
X27604985Y-44339299D01*
X27539471Y-44295524D01*
X27466675Y-44265372D01*
X27389396Y-44250000D01*
X26850000Y-44250000D01*
X26750000Y-44350000D01*
X26650000Y-44350000D01*
X26550000Y-44250000D01*
X26010604Y-44250000D01*
X25933325Y-44265372D01*
X25860529Y-44295524D01*
X25795015Y-44339299D01*
X25739300Y-44395014D01*
X25695525Y-44460529D01*
X25665372Y-44533324D01*
X25650000Y-44610603D01*
X18959110Y-44610603D01*
X19091514Y-43430198D01*
X19713907Y-41468166D01*
X19729139Y-41551159D01*
X19898865Y-41979837D01*
X20148622Y-42367384D01*
X20468898Y-42699039D01*
X20847493Y-42962169D01*
X21269986Y-43146752D01*
X21720285Y-43245757D01*
X22181239Y-43255412D01*
X22635289Y-43175351D01*
X23065142Y-43008622D01*
X23454423Y-42761577D01*
X23788306Y-42443624D01*
X24054073Y-42066876D01*
X24241601Y-41645681D01*
X24343747Y-41196084D01*
X24351100Y-40669473D01*
X24261548Y-40217199D01*
X24085853Y-39790932D01*
X23830709Y-39406910D01*
X23505834Y-39079759D01*
X23240814Y-38901000D01*
X26300000Y-38901000D01*
X26337582Y-38897315D01*
X26375140Y-38893897D01*
X26376488Y-38893500D01*
X26377888Y-38893363D01*
X26414009Y-38882457D01*
X26450217Y-38871801D01*
X26451464Y-38871149D01*
X26452809Y-38870743D01*
X26486118Y-38853032D01*
X26519573Y-38835542D01*
X26520669Y-38834661D01*
X26521910Y-38834001D01*
X26551125Y-38810174D01*
X26580565Y-38786504D01*
X26581470Y-38785425D01*
X26582558Y-38784538D01*
X26606556Y-38755530D01*
X26630871Y-38726552D01*
X26631550Y-38725316D01*
X26632444Y-38724236D01*
X26650371Y-38691081D01*
X26668573Y-38657971D01*
X26668998Y-38656631D01*
X26669667Y-38655394D01*
X26680835Y-38619316D01*
X26692237Y-38583373D01*
X26692394Y-38581977D01*
X26692810Y-38580632D01*
X26696755Y-38543097D01*
X26700961Y-38505599D01*
X26700980Y-38502896D01*
X26700990Y-38502799D01*
X26700981Y-38502702D01*
X26701000Y-38500000D01*
X26701000Y-37055641D01*
X26870620Y-37145528D01*
X27089893Y-37211191D01*
X27317763Y-37232814D01*
X27545474Y-37209567D01*
X27764273Y-37142341D01*
X27958831Y-37038349D01*
X28032339Y-36854650D01*
X27313600Y-36135911D01*
X27299458Y-36150053D01*
X27228747Y-36079342D01*
X27242889Y-36065200D01*
X27228747Y-36051058D01*
X27299458Y-35980347D01*
X27313600Y-35994489D01*
X27327742Y-35980347D01*
X27398453Y-36051058D01*
G36*
X62245105Y-20870046D02*
X67669937Y-23803242D01*
X72421726Y-27734264D01*
X76319478Y-32513380D01*
X79164559Y-37864200D01*
X69863600Y-37864200D01*
X69826018Y-37867885D01*
X69788460Y-37871303D01*
X69787112Y-37871700D01*
X69785712Y-37871837D01*
X69749591Y-37882743D01*
X69713383Y-37893399D01*
X69712136Y-37894051D01*
X69710791Y-37894457D01*
X69677482Y-37912168D01*
X69644027Y-37929658D01*
X69642931Y-37930539D01*
X69641690Y-37931199D01*
X69612475Y-37955026D01*
X69583035Y-37978696D01*
X69582130Y-37979775D01*
X69581042Y-37980662D01*
X69557044Y-38009670D01*
X69532729Y-38038648D01*
X69532050Y-38039884D01*
X69531156Y-38040964D01*
X69513229Y-38074119D01*
X69495027Y-38107229D01*
X69494602Y-38108569D01*
X69493933Y-38109806D01*
X69482765Y-38145884D01*
X69471363Y-38181827D01*
X69471206Y-38183223D01*
X69470790Y-38184568D01*
X69466845Y-38222103D01*
X69462639Y-38259601D01*
X69462620Y-38262304D01*
X69462610Y-38262401D01*
X69462619Y-38262498D01*
X69462600Y-38265200D01*
X69462600Y-43715200D01*
X69466285Y-43752782D01*
X69469703Y-43790340D01*
X69470100Y-43791688D01*
X69470237Y-43793088D01*
X69481143Y-43829209D01*
X69491799Y-43865417D01*
X69492451Y-43866664D01*
X69492857Y-43868009D01*
X69510568Y-43901318D01*
X69528058Y-43934773D01*
X69528939Y-43935869D01*
X69529599Y-43937110D01*
X69553426Y-43966325D01*
X69577096Y-43995765D01*
X69578175Y-43996670D01*
X69579062Y-43997758D01*
X69608070Y-44021756D01*
X69637048Y-44046071D01*
X69638284Y-44046750D01*
X69639364Y-44047644D01*
X69672519Y-44065571D01*
X69705629Y-44083773D01*
X69706969Y-44084198D01*
X69708206Y-44084867D01*
X69744284Y-44096035D01*
X69780227Y-44107437D01*
X69781623Y-44107594D01*
X69782968Y-44108010D01*
X69820503Y-44111955D01*
X69858001Y-44116161D01*
X69860704Y-44116180D01*
X69860801Y-44116190D01*
X69860898Y-44116181D01*
X69863600Y-44116200D01*
X76894176Y-44116200D01*
X76821924Y-44130572D01*
X76749129Y-44160725D01*
X76683614Y-44204500D01*
X76627899Y-44260215D01*
X76584124Y-44325729D01*
X76553972Y-44398525D01*
X76538600Y-44475804D01*
X76538600Y-44990200D01*
X76638600Y-45090200D01*
X77388600Y-45090200D01*
X77388600Y-45070200D01*
X77488600Y-45070200D01*
X77488600Y-45090200D01*
X78238600Y-45090200D01*
X78338600Y-44990200D01*
X78338600Y-44475804D01*
X78323228Y-44398525D01*
X78293076Y-44325729D01*
X78249301Y-44260215D01*
X78193586Y-44204500D01*
X78128071Y-44160725D01*
X78055276Y-44130572D01*
X77983024Y-44116200D01*
X81022088Y-44116200D01*
X81233077Y-46268029D01*
X81171894Y-46242310D01*
X81037229Y-46214667D01*
X80899759Y-46213707D01*
X80764721Y-46239467D01*
X80742938Y-46248268D01*
X80732481Y-46214500D01*
X80677873Y-46131628D01*
X80602338Y-46067251D01*
X80511859Y-46026466D01*
X80413600Y-46012502D01*
X80389600Y-46012502D01*
X80389600Y-45615200D01*
X80385307Y-45571419D01*
X80381477Y-45527639D01*
X80380780Y-45525239D01*
X80380535Y-45522744D01*
X80367800Y-45480566D01*
X80355558Y-45438429D01*
X80354409Y-45436212D01*
X80353684Y-45433811D01*
X80333010Y-45394928D01*
X80312807Y-45355952D01*
X80311247Y-45353998D01*
X80310071Y-45351786D01*
X80291298Y-45328768D01*
X80291298Y-44515200D01*
X80286841Y-44459305D01*
X80257481Y-44364500D01*
X80202873Y-44281628D01*
X80127338Y-44217251D01*
X80036859Y-44176466D01*
X79938600Y-44162502D01*
X78938600Y-44162502D01*
X78882705Y-44166959D01*
X78787900Y-44196319D01*
X78705028Y-44250927D01*
X78640651Y-44326462D01*
X78599866Y-44416941D01*
X78585902Y-44515200D01*
X78585902Y-45765200D01*
X78590359Y-45821095D01*
X78619719Y-45915900D01*
X78674327Y-45998772D01*
X78749862Y-46063149D01*
X78840341Y-46103934D01*
X78938600Y-46117898D01*
X79165564Y-46117898D01*
X79115651Y-46176462D01*
X79074866Y-46266941D01*
X79060902Y-46365200D01*
X79060902Y-47605948D01*
X78957229Y-47584667D01*
X78819759Y-47583707D01*
X78813600Y-47584882D01*
X78813600Y-47140200D01*
X78713600Y-47040200D01*
X77963600Y-47040200D01*
X77963600Y-47060200D01*
X77863600Y-47060200D01*
X77863600Y-47040200D01*
X77113600Y-47040200D01*
X77013600Y-47140200D01*
X77013600Y-47654596D01*
X77028972Y-47731875D01*
X77059124Y-47804671D01*
X77102899Y-47870185D01*
X77158614Y-47925900D01*
X77188105Y-47945605D01*
X77180028Y-47950927D01*
X77115651Y-48026462D01*
X77074866Y-48116941D01*
X77060902Y-48215200D01*
X77060902Y-49465200D01*
X77065359Y-49521095D01*
X77094719Y-49615900D01*
X77149327Y-49698772D01*
X77224862Y-49763149D01*
X77315341Y-49803934D01*
X77413600Y-49817898D01*
X78413600Y-49817898D01*
X78469495Y-49813441D01*
X78564300Y-49784081D01*
X78647172Y-49729473D01*
X78711549Y-49653938D01*
X78752334Y-49563459D01*
X78766298Y-49465200D01*
X78766298Y-49075668D01*
X78856156Y-48985809D01*
X78937640Y-48987516D01*
X79060902Y-48965782D01*
X79060902Y-49465200D01*
X79065359Y-49521095D01*
X79094719Y-49615900D01*
X79149327Y-49698772D01*
X79224862Y-49763149D01*
X79315341Y-49803934D01*
X79413600Y-49817898D01*
X79437600Y-49817898D01*
X79437600Y-49912502D01*
X78488600Y-49912502D01*
X78432705Y-49916959D01*
X78337900Y-49946319D01*
X78255028Y-50000927D01*
X78190651Y-50076462D01*
X78149866Y-50166941D01*
X78135902Y-50265200D01*
X78135902Y-52765200D01*
X78140359Y-52821095D01*
X78169719Y-52915900D01*
X78224327Y-52998772D01*
X78299862Y-53063149D01*
X78390341Y-53103934D01*
X78488600Y-53117898D01*
X80438600Y-53117898D01*
X80494495Y-53113441D01*
X80589300Y-53084081D01*
X80672172Y-53029473D01*
X80736549Y-52953938D01*
X80777334Y-52863459D01*
X80791298Y-52765200D01*
X80791298Y-50265200D01*
X80786841Y-50209305D01*
X80757481Y-50114500D01*
X80702873Y-50031628D01*
X80627338Y-49967251D01*
X80536859Y-49926466D01*
X80438600Y-49912502D01*
X80389600Y-49912502D01*
X80389600Y-49817898D01*
X80413600Y-49817898D01*
X80469495Y-49813441D01*
X80564300Y-49784081D01*
X80647172Y-49729473D01*
X80711549Y-49653938D01*
X80752334Y-49563459D01*
X80766298Y-49465200D01*
X80766298Y-48215200D01*
X80761841Y-48159305D01*
X80732481Y-48064500D01*
X80677873Y-47981628D01*
X80602338Y-47917251D01*
X80594917Y-47913906D01*
X80647172Y-47879473D01*
X80711549Y-47803938D01*
X80752334Y-47713459D01*
X80766298Y-47615200D01*
X80766298Y-47589595D01*
X80880197Y-47614637D01*
X81017640Y-47617516D01*
X81153025Y-47593644D01*
X81281195Y-47543930D01*
X81353670Y-47497935D01*
X81599000Y-50000000D01*
X81586680Y-50882296D01*
X80813744Y-57000711D01*
X80291769Y-58569827D01*
X80261548Y-58417199D01*
X80085853Y-57990932D01*
X79830709Y-57606910D01*
X79505834Y-57279759D01*
X79123603Y-57021940D01*
X78698573Y-56843274D01*
X78246935Y-56750566D01*
X77785892Y-56747348D01*
X77333004Y-56833741D01*
X76905521Y-57006455D01*
X76519727Y-57258911D01*
X76190316Y-57581495D01*
X75929835Y-57961917D01*
X75748206Y-58385689D01*
X75652348Y-58836669D01*
X75645910Y-59297678D01*
X75729139Y-59751159D01*
X75898865Y-60179837D01*
X76148622Y-60567384D01*
X76468898Y-60899039D01*
X76847493Y-61162169D01*
X77269986Y-61346752D01*
X77720285Y-61445757D01*
X78181239Y-61455412D01*
X78635289Y-61375351D01*
X79065142Y-61208622D01*
X79454423Y-60961577D01*
X79515482Y-60903431D01*
X78867123Y-62852471D01*
X75820962Y-68214685D01*
X73720490Y-70648105D01*
X74616203Y-68963513D01*
X75202915Y-67020231D01*
X75401000Y-65000000D01*
X75396945Y-64709587D01*
X75142528Y-62695674D01*
X74501786Y-60769532D01*
X73499124Y-59004527D01*
X72172733Y-57467888D01*
X70573134Y-56218145D01*
X68761257Y-55302900D01*
X66806115Y-54757015D01*
X64782178Y-54601281D01*
X62766538Y-54841632D01*
X60835970Y-55468911D01*
X59064008Y-56459227D01*
X57518147Y-57774858D01*
X56257267Y-59365693D01*
X55329395Y-61171137D01*
X54769873Y-63122420D01*
X54600014Y-65145221D01*
X54826287Y-67162489D01*
X55440073Y-69097390D01*
X56417995Y-70876222D01*
X57722802Y-72431230D01*
X59192007Y-73612502D01*
X57759068Y-73612502D01*
X54363673Y-70217107D01*
X54360541Y-70209508D01*
X54284465Y-70095004D01*
X54187596Y-69997457D01*
X54073626Y-69920583D01*
X53946894Y-69867310D01*
X53812229Y-69839667D01*
X53674759Y-69838707D01*
X53539721Y-69864467D01*
X53412258Y-69915965D01*
X53394313Y-69927708D01*
X53382481Y-69889500D01*
X53327873Y-69806628D01*
X53252338Y-69742251D01*
X53161859Y-69701466D01*
X53063600Y-69687502D01*
X52363600Y-69687502D01*
X52307705Y-69691959D01*
X52212900Y-69721319D01*
X52130028Y-69775927D01*
X52065651Y-69851462D01*
X52039600Y-69909255D01*
X52039600Y-62990200D01*
X52035307Y-62946416D01*
X52031477Y-62902639D01*
X52030780Y-62900238D01*
X52030535Y-62897744D01*
X52017814Y-62855612D01*
X52005559Y-62813429D01*
X52004408Y-62811208D01*
X52003684Y-62808811D01*
X51983028Y-62769963D01*
X51962807Y-62730952D01*
X51961247Y-62728998D01*
X51960071Y-62726786D01*
X51932281Y-62692713D01*
X51904850Y-62658349D01*
X51901414Y-62654865D01*
X51901356Y-62654794D01*
X51901290Y-62654739D01*
X51900183Y-62653617D01*
X47395708Y-58149142D01*
X47636678Y-58149142D01*
X47661495Y-58284357D01*
X47712102Y-58412176D01*
X47786573Y-58527732D01*
X47882070Y-58626621D01*
X47994956Y-58705079D01*
X48120931Y-58760117D01*
X48255197Y-58789637D01*
X48392640Y-58792516D01*
X48528025Y-58768644D01*
X48656195Y-58718930D01*
X48772267Y-58645268D01*
X48871821Y-58550464D01*
X48951065Y-58438129D01*
X49006981Y-58312541D01*
X49037438Y-58178484D01*
X49039051Y-58062915D01*
X57353024Y-49748942D01*
X58848078Y-49748942D01*
X58872895Y-49884157D01*
X58923502Y-50011976D01*
X58997973Y-50127532D01*
X59093470Y-50226421D01*
X59206356Y-50304879D01*
X59332331Y-50359917D01*
X59466597Y-50389437D01*
X59599045Y-50392211D01*
X60939286Y-51732452D01*
X60938078Y-51818942D01*
X60962895Y-51954157D01*
X61013502Y-52081976D01*
X61087973Y-52197532D01*
X61183470Y-52296421D01*
X61296356Y-52374879D01*
X61422331Y-52429917D01*
X61556597Y-52459437D01*
X61694040Y-52462316D01*
X61829425Y-52438444D01*
X61957595Y-52388730D01*
X62073667Y-52315068D01*
X62173221Y-52220264D01*
X62252465Y-52107929D01*
X62308381Y-51982341D01*
X62338838Y-51848284D01*
X62341030Y-51691263D01*
X62314328Y-51556408D01*
X62261941Y-51429308D01*
X62185865Y-51314804D01*
X62088996Y-51217257D01*
X61975026Y-51140383D01*
X61848294Y-51087110D01*
X61713629Y-51059467D01*
X61611923Y-51058757D01*
X60249975Y-49696809D01*
X60251030Y-49621263D01*
X60224328Y-49486408D01*
X60171941Y-49359308D01*
X60095865Y-49244804D01*
X59998996Y-49147257D01*
X59885026Y-49070383D01*
X59758294Y-49017110D01*
X59623629Y-48989467D01*
X59486159Y-48988507D01*
X59351121Y-49014267D01*
X59223658Y-49065765D01*
X59108625Y-49141041D01*
X59010404Y-49237226D01*
X58932737Y-49350657D01*
X58878580Y-49477013D01*
X58849998Y-49611482D01*
X58848078Y-49748942D01*
X57353024Y-49748942D01*
X59235766Y-47866200D01*
X64937070Y-47866200D01*
X64944719Y-47890900D01*
X64999327Y-47973772D01*
X65074862Y-48038149D01*
X65165341Y-48078934D01*
X65263600Y-48092898D01*
X66563600Y-48092898D01*
X66619495Y-48088441D01*
X66714300Y-48059081D01*
X66797172Y-48004473D01*
X66861549Y-47928938D01*
X66902334Y-47838459D01*
X66916298Y-47740200D01*
X66916298Y-47040200D01*
X66911841Y-46984305D01*
X66882481Y-46889500D01*
X66827873Y-46806628D01*
X66752338Y-46742251D01*
X66661859Y-46701466D01*
X66563600Y-46687502D01*
X65263600Y-46687502D01*
X65207705Y-46691959D01*
X65112900Y-46721319D01*
X65030028Y-46775927D01*
X64965651Y-46851462D01*
X64937371Y-46914200D01*
X59038600Y-46914200D01*
X58994819Y-46918493D01*
X58951039Y-46922323D01*
X58948638Y-46923020D01*
X58946144Y-46923265D01*
X58904012Y-46935986D01*
X58861829Y-46948241D01*
X58859608Y-46949392D01*
X58857211Y-46950116D01*
X58818363Y-46970772D01*
X58779352Y-46990993D01*
X58777398Y-46992553D01*
X58775186Y-46993729D01*
X58741113Y-47021519D01*
X58706749Y-47048950D01*
X58703265Y-47052386D01*
X58703194Y-47052444D01*
X58703139Y-47052510D01*
X58702017Y-47053617D01*
X48366288Y-57389346D01*
X48274759Y-57388707D01*
X48139721Y-57414467D01*
X48012258Y-57465965D01*
X47897225Y-57541241D01*
X47799004Y-57637426D01*
X47721337Y-57750857D01*
X47667180Y-57877213D01*
X47638598Y-58011682D01*
X47636678Y-58149142D01*
X47395708Y-58149142D01*
X38241216Y-48994650D01*
X43674861Y-48994650D01*
X43748369Y-49178349D01*
X43950620Y-49285528D01*
X44169893Y-49351191D01*
X44397763Y-49372814D01*
X44625474Y-49349567D01*
X44844273Y-49282341D01*
X45038831Y-49178349D01*
X45112339Y-48994650D01*
X44393600Y-48275911D01*
X43674861Y-48994650D01*
X38241216Y-48994650D01*
X37455929Y-48209363D01*
X43225986Y-48209363D01*
X43249233Y-48437074D01*
X43316459Y-48655873D01*
X43420451Y-48850431D01*
X43604150Y-48923939D01*
X44322889Y-48205200D01*
X44464311Y-48205200D01*
X45183050Y-48923939D01*
X45366749Y-48850431D01*
X45473928Y-48648180D01*
X45539591Y-48428907D01*
X45551938Y-48298784D01*
X45819137Y-48298784D01*
X45858539Y-48513469D01*
X45938890Y-48716411D01*
X46057129Y-48899882D01*
X46208752Y-49056893D01*
X46387985Y-49181463D01*
X46588000Y-49268847D01*
X46801179Y-49315718D01*
X47019401Y-49320289D01*
X47234356Y-49282387D01*
X47437855Y-49203455D01*
X47622147Y-49086499D01*
X47780212Y-48935976D01*
X47906030Y-48757617D01*
X47994809Y-48558217D01*
X48043166Y-48345371D01*
X48043816Y-48298784D01*
X48359137Y-48298784D01*
X48398539Y-48513469D01*
X48478890Y-48716411D01*
X48597129Y-48899882D01*
X48748752Y-49056893D01*
X48927985Y-49181463D01*
X49128000Y-49268847D01*
X49341179Y-49315718D01*
X49559401Y-49320289D01*
X49774356Y-49282387D01*
X49977855Y-49203455D01*
X50162147Y-49086499D01*
X50320212Y-48935976D01*
X50446030Y-48757617D01*
X50534809Y-48558217D01*
X50583166Y-48345371D01*
X50586647Y-48096065D01*
X50544252Y-47881951D01*
X50461075Y-47680150D01*
X50340286Y-47498348D01*
X50186485Y-47343470D01*
X50005531Y-47221414D01*
X49804315Y-47136831D01*
X49590503Y-47092942D01*
X49372238Y-47091418D01*
X49157834Y-47132318D01*
X48955457Y-47214083D01*
X48772816Y-47333600D01*
X48616867Y-47486316D01*
X48493552Y-47666414D01*
X48407566Y-47867034D01*
X48362185Y-48080535D01*
X48359137Y-48298784D01*
X48043816Y-48298784D01*
X48046647Y-48096065D01*
X48004252Y-47881951D01*
X47921075Y-47680150D01*
X47800286Y-47498348D01*
X47646485Y-47343470D01*
X47465531Y-47221414D01*
X47264315Y-47136831D01*
X47050503Y-47092942D01*
X46832238Y-47091418D01*
X46617834Y-47132318D01*
X46415457Y-47214083D01*
X46232816Y-47333600D01*
X46076867Y-47486316D01*
X45953552Y-47666414D01*
X45867566Y-47867034D01*
X45822185Y-48080535D01*
X45819137Y-48298784D01*
X45551938Y-48298784D01*
X45561214Y-48201037D01*
X45537967Y-47973326D01*
X45470741Y-47754527D01*
X45366749Y-47559969D01*
X45183050Y-47486461D01*
X44464311Y-48205200D01*
X44322889Y-48205200D01*
X43604150Y-47486461D01*
X43420451Y-47559969D01*
X43313272Y-47762220D01*
X43247609Y-47981493D01*
X43225986Y-48209363D01*
X37455929Y-48209363D01*
X36662316Y-47415750D01*
X43674861Y-47415750D01*
X44393600Y-48134489D01*
X45112339Y-47415750D01*
X45038831Y-47232051D01*
X44836580Y-47124872D01*
X44617307Y-47059209D01*
X44389437Y-47037586D01*
X44161726Y-47060833D01*
X43942927Y-47128059D01*
X43748369Y-47232051D01*
X43674861Y-47415750D01*
X36662316Y-47415750D01*
X36249626Y-47003060D01*
X36303025Y-46993644D01*
X36431195Y-46943930D01*
X36547267Y-46870268D01*
X36646821Y-46775464D01*
X36663937Y-46751200D01*
X58938600Y-46751200D01*
X58978661Y-46747272D01*
X59018802Y-46743760D01*
X59021007Y-46743120D01*
X59023286Y-46742896D01*
X59061818Y-46731263D01*
X59100516Y-46720020D01*
X59102552Y-46718965D01*
X59104747Y-46718302D01*
X59140335Y-46699380D01*
X59176063Y-46680860D01*
X59177852Y-46679432D01*
X59179879Y-46678354D01*
X59211093Y-46652896D01*
X59242564Y-46627774D01*
X59245757Y-46624625D01*
X59245821Y-46624573D01*
X59245870Y-46624514D01*
X59246899Y-46623499D01*
X59362365Y-46508032D01*
X59365371Y-46507159D01*
X59447848Y-46464407D01*
X59520451Y-46406450D01*
X59525183Y-46401783D01*
X59610902Y-46316064D01*
X59610902Y-46465200D01*
X59615359Y-46521095D01*
X59644719Y-46615900D01*
X59699327Y-46698772D01*
X59774862Y-46763149D01*
X59865341Y-46803934D01*
X59963600Y-46817898D01*
X60663600Y-46817898D01*
X60719495Y-46813441D01*
X60814300Y-46784081D01*
X60897172Y-46729473D01*
X60961549Y-46653938D01*
X61002334Y-46563459D01*
X61016298Y-46465200D01*
X61016298Y-45165200D01*
X61011841Y-45109305D01*
X60982481Y-45014500D01*
X60927873Y-44931628D01*
X60852338Y-44867251D01*
X60761859Y-44826466D01*
X60663600Y-44812502D01*
X59963600Y-44812502D01*
X59907705Y-44816959D01*
X59812900Y-44846319D01*
X59730028Y-44900927D01*
X59665651Y-44976462D01*
X59624866Y-45066941D01*
X59610902Y-45165200D01*
X59610902Y-45339200D01*
X59438600Y-45339200D01*
X59394819Y-45343493D01*
X59351039Y-45347323D01*
X59348639Y-45348020D01*
X59346144Y-45348265D01*
X59303966Y-45361000D01*
X59261829Y-45373242D01*
X59259612Y-45374391D01*
X59257211Y-45375116D01*
X59218328Y-45395790D01*
X59179352Y-45415993D01*
X59177398Y-45417553D01*
X59175186Y-45418729D01*
X59141082Y-45446543D01*
X59106749Y-45473951D01*
X59103267Y-45477385D01*
X59103194Y-45477444D01*
X59103138Y-45477511D01*
X59102017Y-45478617D01*
X58852017Y-45728617D01*
X58793051Y-45800403D01*
X58750801Y-45879200D01*
X57563430Y-45879200D01*
X57702212Y-45825370D01*
X58008703Y-45630865D01*
X58271577Y-45380534D01*
X58480822Y-45083910D01*
X58628468Y-44752293D01*
X58708890Y-44398314D01*
X58714679Y-43983700D01*
X58644172Y-43627614D01*
X58505844Y-43292004D01*
X58304963Y-42989653D01*
X58049181Y-42732079D01*
X57748240Y-42529092D01*
X57413604Y-42388424D01*
X57058018Y-42315433D01*
X56695027Y-42312899D01*
X56338457Y-42380918D01*
X56261000Y-42412213D01*
X56261000Y-28921959D01*
X56288842Y-28934123D01*
X56643374Y-29012072D01*
X57006294Y-29019674D01*
X57363779Y-28956640D01*
X57702212Y-28825370D01*
X58008703Y-28630865D01*
X58271577Y-28380534D01*
X58480822Y-28083910D01*
X58628468Y-27752293D01*
X58708890Y-27398314D01*
X58714679Y-26983700D01*
X58644172Y-26627614D01*
X58505844Y-26292004D01*
X58304963Y-25989653D01*
X58049181Y-25732079D01*
X57822431Y-25579134D01*
X57849887Y-25557166D01*
X57864760Y-25539526D01*
X59837600Y-27512365D01*
X59837600Y-41563670D01*
X59812900Y-41571319D01*
X59730028Y-41625927D01*
X59665651Y-41701462D01*
X59624866Y-41791941D01*
X59610902Y-41890200D01*
X59610902Y-43190200D01*
X59615359Y-43246095D01*
X59644719Y-43340900D01*
X59699327Y-43423772D01*
X59774862Y-43488149D01*
X59865341Y-43528934D01*
X59963600Y-43542898D01*
X60663600Y-43542898D01*
X60719495Y-43538441D01*
X60814300Y-43509081D01*
X60897172Y-43454473D01*
X60961549Y-43378938D01*
X61002334Y-43288459D01*
X61016298Y-43190200D01*
X61016298Y-41890200D01*
X61510902Y-41890200D01*
X61510902Y-43190200D01*
X61515359Y-43246095D01*
X61544719Y-43340900D01*
X61599327Y-43423772D01*
X61674862Y-43488149D01*
X61765341Y-43528934D01*
X61863600Y-43542898D01*
X62563600Y-43542898D01*
X62619495Y-43538441D01*
X62714300Y-43509081D01*
X62797172Y-43454473D01*
X62861549Y-43378938D01*
X62902334Y-43288459D01*
X62916298Y-43190200D01*
X62916298Y-43016200D01*
X63292016Y-43016200D01*
X63387866Y-43135414D01*
X63434745Y-43174750D01*
X63396238Y-43206155D01*
X63290371Y-43334127D01*
X63211376Y-43480224D01*
X63162263Y-43638883D01*
X63144903Y-43804059D01*
X63159956Y-43969461D01*
X63161643Y-43975191D01*
X62324332Y-44812502D01*
X61863600Y-44812502D01*
X61807705Y-44816959D01*
X61712900Y-44846319D01*
X61630028Y-44900927D01*
X61565651Y-44976462D01*
X61524866Y-45066941D01*
X61510902Y-45165200D01*
X61510902Y-46465200D01*
X61515359Y-46521095D01*
X61544719Y-46615900D01*
X61599327Y-46698772D01*
X61674862Y-46763149D01*
X61765341Y-46803934D01*
X61863600Y-46817898D01*
X62563600Y-46817898D01*
X62619495Y-46813441D01*
X62714300Y-46784081D01*
X62797172Y-46729473D01*
X62861549Y-46653938D01*
X62902334Y-46563459D01*
X62916298Y-46465200D01*
X62916298Y-45566868D01*
X63838562Y-44644604D01*
X63984000Y-44660917D01*
X63995882Y-44661000D01*
X64004118Y-44661000D01*
X64169411Y-44644793D01*
X64328409Y-44596789D01*
X64475054Y-44518816D01*
X64603762Y-44413845D01*
X64709629Y-44285873D01*
X64788624Y-44139776D01*
X64837737Y-43981117D01*
X64855097Y-43815941D01*
X64840044Y-43650539D01*
X64793151Y-43491210D01*
X64716204Y-43344024D01*
X64612134Y-43214586D01*
X64565255Y-43175250D01*
X64603762Y-43143845D01*
X64709629Y-43015873D01*
X64788624Y-42869776D01*
X64837737Y-42711117D01*
X64855097Y-42545941D01*
X64840044Y-42380539D01*
X64793151Y-42221210D01*
X64716204Y-42074024D01*
X64612134Y-41944586D01*
X64565255Y-41905250D01*
X64603762Y-41873845D01*
X64709524Y-41746000D01*
X65185902Y-41746000D01*
X65185902Y-41915200D01*
X65190359Y-41971095D01*
X65219719Y-42065900D01*
X65274327Y-42148772D01*
X65349862Y-42213149D01*
X65440341Y-42253934D01*
X65538600Y-42267898D01*
X66238600Y-42267898D01*
X66287600Y-42263991D01*
X66287600Y-44443035D01*
X65943132Y-44787502D01*
X65263600Y-44787502D01*
X65207705Y-44791959D01*
X65112900Y-44821319D01*
X65030028Y-44875927D01*
X64965651Y-44951462D01*
X64924866Y-45041941D01*
X64910902Y-45140200D01*
X64910902Y-45840200D01*
X64915359Y-45896095D01*
X64944719Y-45990900D01*
X64999327Y-46073772D01*
X65074862Y-46138149D01*
X65165341Y-46178934D01*
X65263600Y-46192898D01*
X66563600Y-46192898D01*
X66619495Y-46188441D01*
X66714300Y-46159081D01*
X66797172Y-46104473D01*
X66861549Y-46028938D01*
X66902334Y-45938459D01*
X66916298Y-45840200D01*
X66916298Y-45160667D01*
X67100183Y-44976782D01*
X67128098Y-44942799D01*
X67156354Y-44909124D01*
X67157558Y-44906934D01*
X67159150Y-44904996D01*
X67179967Y-44866171D01*
X67201108Y-44827716D01*
X67201864Y-44825334D01*
X67203048Y-44823125D01*
X67215914Y-44781042D01*
X67229198Y-44739166D01*
X67229477Y-44736680D01*
X67230209Y-44734285D01*
X67234655Y-44690515D01*
X67239554Y-44646846D01*
X67239588Y-44641961D01*
X67239598Y-44641861D01*
X67239589Y-44641767D01*
X67239600Y-44640200D01*
X67239600Y-42204403D01*
X67249862Y-42213149D01*
X67312600Y-42241429D01*
X67312600Y-50965200D01*
X67316893Y-51008981D01*
X67320723Y-51052761D01*
X67321420Y-51055162D01*
X67321665Y-51057656D01*
X67334386Y-51099788D01*
X67346641Y-51141971D01*
X67347792Y-51144192D01*
X67348516Y-51146589D01*
X67369172Y-51185437D01*
X67389393Y-51224448D01*
X67390953Y-51226402D01*
X67392129Y-51228614D01*
X67419919Y-51262687D01*
X67447350Y-51297051D01*
X67450786Y-51300535D01*
X67450844Y-51300606D01*
X67450910Y-51300661D01*
X67452017Y-51301783D01*
X70737886Y-54587651D01*
X70736678Y-54674142D01*
X70761495Y-54809357D01*
X70812102Y-54937176D01*
X70886573Y-55052732D01*
X70982070Y-55151621D01*
X71094956Y-55230079D01*
X71220931Y-55285117D01*
X71355197Y-55314637D01*
X71492640Y-55317516D01*
X71628025Y-55293644D01*
X71756195Y-55243930D01*
X71872267Y-55170268D01*
X71971821Y-55075464D01*
X72051065Y-54963129D01*
X72106981Y-54837541D01*
X72137438Y-54703484D01*
X72139630Y-54546463D01*
X72112928Y-54411608D01*
X72060541Y-54284508D01*
X71984465Y-54170004D01*
X71887596Y-54072457D01*
X71773626Y-53995583D01*
X71646894Y-53942310D01*
X71512229Y-53914667D01*
X71410522Y-53913957D01*
X69161766Y-51665200D01*
X75038600Y-51665200D01*
X75038600Y-52804596D01*
X75053972Y-52881875D01*
X75084124Y-52954671D01*
X75127899Y-53020185D01*
X75183614Y-53075900D01*
X75249129Y-53119675D01*
X75321924Y-53149828D01*
X75399203Y-53165200D01*
X76263600Y-53165200D01*
X76363600Y-53065200D01*
X76363600Y-51565200D01*
X76463600Y-51565200D01*
X76463600Y-53065200D01*
X76563600Y-53165200D01*
X77427997Y-53165200D01*
X77505276Y-53149828D01*
X77578071Y-53119675D01*
X77643586Y-53075900D01*
X77699301Y-53020185D01*
X77743076Y-52954671D01*
X77773228Y-52881875D01*
X77788600Y-52804596D01*
X77788600Y-51665200D01*
X77688600Y-51565200D01*
X76463600Y-51565200D01*
X76363600Y-51565200D01*
X75138600Y-51565200D01*
X75038600Y-51665200D01*
X69161766Y-51665200D01*
X68264600Y-50768034D01*
X68264600Y-50225804D01*
X75038600Y-50225804D01*
X75038600Y-51365200D01*
X75138600Y-51465200D01*
X76363600Y-51465200D01*
X76363600Y-49965200D01*
X76463600Y-49965200D01*
X76463600Y-51465200D01*
X77688600Y-51465200D01*
X77788600Y-51365200D01*
X77788600Y-50225804D01*
X77773228Y-50148525D01*
X77743076Y-50075729D01*
X77699301Y-50010215D01*
X77643586Y-49954500D01*
X77578071Y-49910725D01*
X77505276Y-49880572D01*
X77427997Y-49865200D01*
X76563600Y-49865200D01*
X76463600Y-49965200D01*
X76363600Y-49965200D01*
X76263600Y-49865200D01*
X75399203Y-49865200D01*
X75321924Y-49880572D01*
X75249129Y-49910725D01*
X75183614Y-49954500D01*
X75127899Y-50010215D01*
X75084124Y-50075729D01*
X75053972Y-50148525D01*
X75038600Y-50225804D01*
X68264600Y-50225804D01*
X68264600Y-45290200D01*
X76538600Y-45290200D01*
X76538600Y-45804596D01*
X76553972Y-45881875D01*
X76584124Y-45954671D01*
X76627899Y-46020185D01*
X76683614Y-46075900D01*
X76749129Y-46119675D01*
X76821924Y-46149828D01*
X76899203Y-46165200D01*
X77066159Y-46165200D01*
X77059124Y-46175729D01*
X77028972Y-46248525D01*
X77013600Y-46325804D01*
X77013600Y-46840200D01*
X77113600Y-46940200D01*
X77863600Y-46940200D01*
X77863600Y-46920200D01*
X77963600Y-46920200D01*
X77963600Y-46940200D01*
X78713600Y-46940200D01*
X78813600Y-46840200D01*
X78813600Y-46325804D01*
X78798228Y-46248525D01*
X78768076Y-46175729D01*
X78724301Y-46110215D01*
X78668586Y-46054500D01*
X78603071Y-46010725D01*
X78530276Y-45980572D01*
X78452997Y-45965200D01*
X78286041Y-45965200D01*
X78293076Y-45954671D01*
X78323228Y-45881875D01*
X78338600Y-45804596D01*
X78338600Y-45290200D01*
X78238600Y-45190200D01*
X77488600Y-45190200D01*
X77488600Y-45210200D01*
X77388600Y-45210200D01*
X77388600Y-45190200D01*
X76638600Y-45190200D01*
X76538600Y-45290200D01*
X68264600Y-45290200D01*
X68264600Y-42241730D01*
X68289300Y-42234081D01*
X68372172Y-42179473D01*
X68436549Y-42103938D01*
X68477334Y-42013459D01*
X68491298Y-41915200D01*
X68491298Y-40615200D01*
X68486841Y-40559305D01*
X68457481Y-40464500D01*
X68402873Y-40381628D01*
X68327338Y-40317251D01*
X68236859Y-40276466D01*
X68138600Y-40262502D01*
X67438600Y-40262502D01*
X67382705Y-40266959D01*
X67287900Y-40296319D01*
X67236187Y-40330395D01*
X67235307Y-40321416D01*
X67231477Y-40277639D01*
X67230780Y-40275238D01*
X67230535Y-40272744D01*
X67217814Y-40230612D01*
X67205559Y-40188429D01*
X67204408Y-40186208D01*
X67203684Y-40183811D01*
X67183028Y-40144963D01*
X67162807Y-40105952D01*
X67161247Y-40103998D01*
X67160071Y-40101786D01*
X67132281Y-40067713D01*
X67104850Y-40033349D01*
X67101414Y-40029865D01*
X67101356Y-40029794D01*
X67101290Y-40029739D01*
X67100183Y-40028617D01*
X66734983Y-39663417D01*
X66700979Y-39635486D01*
X66667324Y-39607246D01*
X66665134Y-39606042D01*
X66663197Y-39604451D01*
X66624389Y-39583643D01*
X66585916Y-39562492D01*
X66583534Y-39561736D01*
X66581325Y-39560552D01*
X66539230Y-39547682D01*
X66497366Y-39534402D01*
X66494881Y-39534123D01*
X66492486Y-39533391D01*
X66448750Y-39528949D01*
X66405046Y-39524046D01*
X66400152Y-39524012D01*
X66400062Y-39524003D01*
X66399978Y-39524011D01*
X66398400Y-39524000D01*
X64852698Y-39524000D01*
X64852698Y-39500000D01*
X64848241Y-39444105D01*
X64818881Y-39349300D01*
X64764273Y-39266428D01*
X64688738Y-39202051D01*
X64598259Y-39161266D01*
X64500000Y-39147302D01*
X63500000Y-39147302D01*
X63444105Y-39151759D01*
X63349300Y-39181119D01*
X63266428Y-39235727D01*
X63202051Y-39311262D01*
X63161266Y-39401741D01*
X63147302Y-39500000D01*
X63147302Y-40500000D01*
X63151759Y-40555895D01*
X63181119Y-40650700D01*
X63235727Y-40733572D01*
X63297155Y-40785926D01*
X63290371Y-40794127D01*
X63211376Y-40940224D01*
X63162263Y-41098883D01*
X63144903Y-41264059D01*
X63159956Y-41429461D01*
X63206849Y-41588790D01*
X63283796Y-41735976D01*
X63387866Y-41865414D01*
X63434745Y-41904750D01*
X63396238Y-41936155D01*
X63290371Y-42064127D01*
X63290332Y-42064200D01*
X62916298Y-42064200D01*
X62916298Y-41890200D01*
X62911841Y-41834305D01*
X62882481Y-41739500D01*
X62827873Y-41656628D01*
X62752338Y-41592251D01*
X62661859Y-41551466D01*
X62563600Y-41537502D01*
X61863600Y-41537502D01*
X61807705Y-41541959D01*
X61712900Y-41571319D01*
X61630028Y-41625927D01*
X61565651Y-41701462D01*
X61524866Y-41791941D01*
X61510902Y-41890200D01*
X61016298Y-41890200D01*
X61011841Y-41834305D01*
X60982481Y-41739500D01*
X60927873Y-41656628D01*
X60852338Y-41592251D01*
X60789600Y-41563971D01*
X60789600Y-38199142D01*
X61361678Y-38199142D01*
X61386495Y-38334357D01*
X61437102Y-38462176D01*
X61511573Y-38577732D01*
X61607070Y-38676621D01*
X61719956Y-38755079D01*
X61845931Y-38810117D01*
X61980197Y-38839637D01*
X62117640Y-38842516D01*
X62253025Y-38818644D01*
X62381195Y-38768930D01*
X62497267Y-38695268D01*
X62596821Y-38600464D01*
X62676065Y-38488129D01*
X62731981Y-38362541D01*
X62748189Y-38291200D01*
X65698722Y-38291200D01*
X65757070Y-38351621D01*
X65869956Y-38430079D01*
X65995931Y-38485117D01*
X66130197Y-38514637D01*
X66267640Y-38517516D01*
X66403025Y-38493644D01*
X66531195Y-38443930D01*
X66647267Y-38370268D01*
X66746821Y-38275464D01*
X66826065Y-38163129D01*
X66881981Y-38037541D01*
X66912438Y-37903484D01*
X66914630Y-37746463D01*
X66887928Y-37611608D01*
X66835541Y-37484508D01*
X66759465Y-37370004D01*
X66716199Y-37326436D01*
X67534215Y-37400881D01*
X68485483Y-37300898D01*
X69399214Y-37018051D01*
X70240604Y-36563113D01*
X70977606Y-35953412D01*
X71582147Y-35212172D01*
X72031200Y-34367626D01*
X72307661Y-33451943D01*
X72401000Y-32500000D01*
X72399089Y-32363156D01*
X72279207Y-31414191D01*
X71977286Y-30506584D01*
X71504827Y-29674905D01*
X70879825Y-28950834D01*
X70126087Y-28361949D01*
X69272322Y-27930681D01*
X68351050Y-27673457D01*
X67397361Y-27600075D01*
X66447582Y-27713329D01*
X65537889Y-28008906D01*
X64702933Y-28475548D01*
X63974516Y-29095479D01*
X63380383Y-29845088D01*
X62943165Y-30695822D01*
X62679516Y-31615276D01*
X62599478Y-32568429D01*
X62706099Y-33518975D01*
X62995318Y-34430709D01*
X63456119Y-35268903D01*
X64070950Y-36001631D01*
X64816393Y-36600982D01*
X65664053Y-37044128D01*
X66003454Y-37144019D01*
X65887258Y-37190965D01*
X65772225Y-37266241D01*
X65697722Y-37339200D01*
X62388600Y-37339200D01*
X62344819Y-37343493D01*
X62301039Y-37347323D01*
X62298639Y-37348020D01*
X62296144Y-37348265D01*
X62253966Y-37361000D01*
X62211829Y-37373242D01*
X62209612Y-37374391D01*
X62207211Y-37375116D01*
X62168328Y-37395790D01*
X62129352Y-37415993D01*
X62127398Y-37417553D01*
X62125186Y-37418729D01*
X62099834Y-37439406D01*
X61999759Y-37438707D01*
X61864721Y-37464467D01*
X61737258Y-37515965D01*
X61622225Y-37591241D01*
X61524004Y-37687426D01*
X61446337Y-37800857D01*
X61392180Y-37927213D01*
X61363598Y-38061682D01*
X61361678Y-38199142D01*
X60789600Y-38199142D01*
X60789600Y-35631248D01*
X60832331Y-35649917D01*
X60966597Y-35679437D01*
X61104040Y-35682316D01*
X61239425Y-35658444D01*
X61367595Y-35608730D01*
X61483667Y-35535068D01*
X61583221Y-35440264D01*
X61662465Y-35327929D01*
X61718381Y-35202341D01*
X61748838Y-35068284D01*
X61751030Y-34911263D01*
X61746677Y-34889278D01*
X61752303Y-34870876D01*
X61765598Y-34828966D01*
X61765877Y-34826481D01*
X61766609Y-34824086D01*
X61771051Y-34780350D01*
X61775954Y-34736646D01*
X61775988Y-34731752D01*
X61775997Y-34731662D01*
X61775989Y-34731578D01*
X61776000Y-34730000D01*
X61776000Y-33654755D01*
X61833221Y-33600264D01*
X61912465Y-33487929D01*
X61968381Y-33362341D01*
X61998838Y-33228284D01*
X62001030Y-33071263D01*
X61974328Y-32936408D01*
X61921941Y-32809308D01*
X61845865Y-32694804D01*
X61748996Y-32597257D01*
X61635026Y-32520383D01*
X61508294Y-32467110D01*
X61373629Y-32439467D01*
X61236159Y-32438507D01*
X61101121Y-32464267D01*
X60973658Y-32515765D01*
X60858625Y-32591041D01*
X60789600Y-32658635D01*
X60789600Y-28240638D01*
X60843470Y-28296421D01*
X60956356Y-28374879D01*
X61082331Y-28429917D01*
X61216597Y-28459437D01*
X61354040Y-28462316D01*
X61489425Y-28438444D01*
X61617595Y-28388730D01*
X61733667Y-28315068D01*
X61816697Y-28236000D01*
X62343749Y-28236000D01*
X62363470Y-28256421D01*
X62476356Y-28334879D01*
X62602331Y-28389917D01*
X62736597Y-28419437D01*
X62874040Y-28422316D01*
X63009425Y-28398444D01*
X63137595Y-28348730D01*
X63253667Y-28275068D01*
X63353221Y-28180264D01*
X63432465Y-28067929D01*
X63488381Y-27942341D01*
X63518838Y-27808284D01*
X63521030Y-27651263D01*
X63494328Y-27516408D01*
X63441941Y-27389308D01*
X63365865Y-27274804D01*
X63268996Y-27177257D01*
X63155026Y-27100383D01*
X63028294Y-27047110D01*
X62893629Y-27019467D01*
X62756159Y-27018507D01*
X62621121Y-27044267D01*
X62493658Y-27095765D01*
X62378625Y-27171041D01*
X62280404Y-27267226D01*
X62268919Y-27284000D01*
X61815275Y-27284000D01*
X61748996Y-27217257D01*
X61635026Y-27140383D01*
X61508294Y-27087110D01*
X61373629Y-27059467D01*
X61236159Y-27058507D01*
X61101121Y-27084267D01*
X60973658Y-27135765D01*
X60858625Y-27211041D01*
X60786329Y-27281838D01*
X60785307Y-27271416D01*
X60781477Y-27227639D01*
X60780780Y-27225238D01*
X60780535Y-27222744D01*
X60767814Y-27180612D01*
X60755559Y-27138429D01*
X60754408Y-27136208D01*
X60753684Y-27133811D01*
X60733028Y-27094963D01*
X60712807Y-27055952D01*
X60711247Y-27053998D01*
X60710071Y-27051786D01*
X60682281Y-27017713D01*
X60654850Y-26983349D01*
X60651418Y-26979870D01*
X60651356Y-26979794D01*
X60651286Y-26979736D01*
X60650183Y-26978618D01*
X58539600Y-24868034D01*
X58539600Y-24346429D01*
X58570931Y-24360117D01*
X58705197Y-24389637D01*
X58842640Y-24392516D01*
X58978025Y-24368644D01*
X59106195Y-24318930D01*
X59222267Y-24245268D01*
X59226539Y-24241200D01*
X59385902Y-24241200D01*
X59385902Y-24390200D01*
X59390359Y-24446095D01*
X59419719Y-24540900D01*
X59474327Y-24623772D01*
X59549862Y-24688149D01*
X59640341Y-24728934D01*
X59738600Y-24742898D01*
X60738600Y-24742898D01*
X60794495Y-24738441D01*
X60889300Y-24709081D01*
X60972172Y-24654473D01*
X61036549Y-24578938D01*
X61077334Y-24488459D01*
X61091298Y-24390200D01*
X61091298Y-23915200D01*
X61338600Y-23915200D01*
X61338600Y-24429596D01*
X61353972Y-24506875D01*
X61384124Y-24579671D01*
X61427899Y-24645185D01*
X61483614Y-24700900D01*
X61549129Y-24744675D01*
X61621924Y-24774828D01*
X61699203Y-24790200D01*
X62088600Y-24790200D01*
X62188600Y-24690200D01*
X62188600Y-23815200D01*
X62288600Y-23815200D01*
X62288600Y-24690200D01*
X62388600Y-24790200D01*
X62777997Y-24790200D01*
X62855276Y-24774828D01*
X62928071Y-24744675D01*
X62993586Y-24700900D01*
X63049301Y-24645185D01*
X63093076Y-24579671D01*
X63123228Y-24506875D01*
X63138600Y-24429596D01*
X63138600Y-23915200D01*
X63038600Y-23815200D01*
X62288600Y-23815200D01*
X62188600Y-23815200D01*
X61438600Y-23815200D01*
X61338600Y-23915200D01*
X61091298Y-23915200D01*
X61091298Y-23140200D01*
X61088157Y-23100804D01*
X61338600Y-23100804D01*
X61338600Y-23615200D01*
X61438600Y-23715200D01*
X62188600Y-23715200D01*
X62188600Y-22840200D01*
X62288600Y-22840200D01*
X62288600Y-23715200D01*
X63038600Y-23715200D01*
X63138600Y-23615200D01*
X63138600Y-23100804D01*
X63123228Y-23023525D01*
X63093076Y-22950729D01*
X63049301Y-22885215D01*
X62993586Y-22829500D01*
X62928071Y-22785725D01*
X62855276Y-22755572D01*
X62777997Y-22740200D01*
X62388600Y-22740200D01*
X62288600Y-22840200D01*
X62188600Y-22840200D01*
X62088600Y-22740200D01*
X61699203Y-22740200D01*
X61621924Y-22755572D01*
X61549129Y-22785725D01*
X61483614Y-22829500D01*
X61427899Y-22885215D01*
X61384124Y-22950729D01*
X61353972Y-23023525D01*
X61338600Y-23100804D01*
X61088157Y-23100804D01*
X61086841Y-23084305D01*
X61057481Y-22989500D01*
X61002873Y-22906628D01*
X60927338Y-22842251D01*
X60836859Y-22801466D01*
X60738600Y-22787502D01*
X60714600Y-22787502D01*
X60714600Y-20964821D01*
X60751065Y-20913129D01*
X60806981Y-20787541D01*
X60837438Y-20653484D01*
X60839630Y-20496463D01*
X60826661Y-20430964D01*
X62245105Y-20870046D01*
X62245105Y-20870046D01*
G37*
X62245105Y-20870046D02*
X67669937Y-23803242D01*
X72421726Y-27734264D01*
X76319478Y-32513380D01*
X79164559Y-37864200D01*
X69863600Y-37864200D01*
X69826018Y-37867885D01*
X69788460Y-37871303D01*
X69787112Y-37871700D01*
X69785712Y-37871837D01*
X69749591Y-37882743D01*
X69713383Y-37893399D01*
X69712136Y-37894051D01*
X69710791Y-37894457D01*
X69677482Y-37912168D01*
X69644027Y-37929658D01*
X69642931Y-37930539D01*
X69641690Y-37931199D01*
X69612475Y-37955026D01*
X69583035Y-37978696D01*
X69582130Y-37979775D01*
X69581042Y-37980662D01*
X69557044Y-38009670D01*
X69532729Y-38038648D01*
X69532050Y-38039884D01*
X69531156Y-38040964D01*
X69513229Y-38074119D01*
X69495027Y-38107229D01*
X69494602Y-38108569D01*
X69493933Y-38109806D01*
X69482765Y-38145884D01*
X69471363Y-38181827D01*
X69471206Y-38183223D01*
X69470790Y-38184568D01*
X69466845Y-38222103D01*
X69462639Y-38259601D01*
X69462620Y-38262304D01*
X69462610Y-38262401D01*
X69462619Y-38262498D01*
X69462600Y-38265200D01*
X69462600Y-43715200D01*
X69466285Y-43752782D01*
X69469703Y-43790340D01*
X69470100Y-43791688D01*
X69470237Y-43793088D01*
X69481143Y-43829209D01*
X69491799Y-43865417D01*
X69492451Y-43866664D01*
X69492857Y-43868009D01*
X69510568Y-43901318D01*
X69528058Y-43934773D01*
X69528939Y-43935869D01*
X69529599Y-43937110D01*
X69553426Y-43966325D01*
X69577096Y-43995765D01*
X69578175Y-43996670D01*
X69579062Y-43997758D01*
X69608070Y-44021756D01*
X69637048Y-44046071D01*
X69638284Y-44046750D01*
X69639364Y-44047644D01*
X69672519Y-44065571D01*
X69705629Y-44083773D01*
X69706969Y-44084198D01*
X69708206Y-44084867D01*
X69744284Y-44096035D01*
X69780227Y-44107437D01*
X69781623Y-44107594D01*
X69782968Y-44108010D01*
X69820503Y-44111955D01*
X69858001Y-44116161D01*
X69860704Y-44116180D01*
X69860801Y-44116190D01*
X69860898Y-44116181D01*
X69863600Y-44116200D01*
X76894176Y-44116200D01*
X76821924Y-44130572D01*
X76749129Y-44160725D01*
X76683614Y-44204500D01*
X76627899Y-44260215D01*
X76584124Y-44325729D01*
X76553972Y-44398525D01*
X76538600Y-44475804D01*
X76538600Y-44990200D01*
X76638600Y-45090200D01*
X77388600Y-45090200D01*
X77388600Y-45070200D01*
X77488600Y-45070200D01*
X77488600Y-45090200D01*
X78238600Y-45090200D01*
X78338600Y-44990200D01*
X78338600Y-44475804D01*
X78323228Y-44398525D01*
X78293076Y-44325729D01*
X78249301Y-44260215D01*
X78193586Y-44204500D01*
X78128071Y-44160725D01*
X78055276Y-44130572D01*
X77983024Y-44116200D01*
X81022088Y-44116200D01*
X81233077Y-46268029D01*
X81171894Y-46242310D01*
X81037229Y-46214667D01*
X80899759Y-46213707D01*
X80764721Y-46239467D01*
X80742938Y-46248268D01*
X80732481Y-46214500D01*
X80677873Y-46131628D01*
X80602338Y-46067251D01*
X80511859Y-46026466D01*
X80413600Y-46012502D01*
X80389600Y-46012502D01*
X80389600Y-45615200D01*
X80385307Y-45571419D01*
X80381477Y-45527639D01*
X80380780Y-45525239D01*
X80380535Y-45522744D01*
X80367800Y-45480566D01*
X80355558Y-45438429D01*
X80354409Y-45436212D01*
X80353684Y-45433811D01*
X80333010Y-45394928D01*
X80312807Y-45355952D01*
X80311247Y-45353998D01*
X80310071Y-45351786D01*
X80291298Y-45328768D01*
X80291298Y-44515200D01*
X80286841Y-44459305D01*
X80257481Y-44364500D01*
X80202873Y-44281628D01*
X80127338Y-44217251D01*
X80036859Y-44176466D01*
X79938600Y-44162502D01*
X78938600Y-44162502D01*
X78882705Y-44166959D01*
X78787900Y-44196319D01*
X78705028Y-44250927D01*
X78640651Y-44326462D01*
X78599866Y-44416941D01*
X78585902Y-44515200D01*
X78585902Y-45765200D01*
X78590359Y-45821095D01*
X78619719Y-45915900D01*
X78674327Y-45998772D01*
X78749862Y-46063149D01*
X78840341Y-46103934D01*
X78938600Y-46117898D01*
X79165564Y-46117898D01*
X79115651Y-46176462D01*
X79074866Y-46266941D01*
X79060902Y-46365200D01*
X79060902Y-47605948D01*
X78957229Y-47584667D01*
X78819759Y-47583707D01*
X78813600Y-47584882D01*
X78813600Y-47140200D01*
X78713600Y-47040200D01*
X77963600Y-47040200D01*
X77963600Y-47060200D01*
X77863600Y-47060200D01*
X77863600Y-47040200D01*
X77113600Y-47040200D01*
X77013600Y-47140200D01*
X77013600Y-47654596D01*
X77028972Y-47731875D01*
X77059124Y-47804671D01*
X77102899Y-47870185D01*
X77158614Y-47925900D01*
X77188105Y-47945605D01*
X77180028Y-47950927D01*
X77115651Y-48026462D01*
X77074866Y-48116941D01*
X77060902Y-48215200D01*
X77060902Y-49465200D01*
X77065359Y-49521095D01*
X77094719Y-49615900D01*
X77149327Y-49698772D01*
X77224862Y-49763149D01*
X77315341Y-49803934D01*
X77413600Y-49817898D01*
X78413600Y-49817898D01*
X78469495Y-49813441D01*
X78564300Y-49784081D01*
X78647172Y-49729473D01*
X78711549Y-49653938D01*
X78752334Y-49563459D01*
X78766298Y-49465200D01*
X78766298Y-49075668D01*
X78856156Y-48985809D01*
X78937640Y-48987516D01*
X79060902Y-48965782D01*
X79060902Y-49465200D01*
X79065359Y-49521095D01*
X79094719Y-49615900D01*
X79149327Y-49698772D01*
X79224862Y-49763149D01*
X79315341Y-49803934D01*
X79413600Y-49817898D01*
X79437600Y-49817898D01*
X79437600Y-49912502D01*
X78488600Y-49912502D01*
X78432705Y-49916959D01*
X78337900Y-49946319D01*
X78255028Y-50000927D01*
X78190651Y-50076462D01*
X78149866Y-50166941D01*
X78135902Y-50265200D01*
X78135902Y-52765200D01*
X78140359Y-52821095D01*
X78169719Y-52915900D01*
X78224327Y-52998772D01*
X78299862Y-53063149D01*
X78390341Y-53103934D01*
X78488600Y-53117898D01*
X80438600Y-53117898D01*
X80494495Y-53113441D01*
X80589300Y-53084081D01*
X80672172Y-53029473D01*
X80736549Y-52953938D01*
X80777334Y-52863459D01*
X80791298Y-52765200D01*
X80791298Y-50265200D01*
X80786841Y-50209305D01*
X80757481Y-50114500D01*
X80702873Y-50031628D01*
X80627338Y-49967251D01*
X80536859Y-49926466D01*
X80438600Y-49912502D01*
X80389600Y-49912502D01*
X80389600Y-49817898D01*
X80413600Y-49817898D01*
X80469495Y-49813441D01*
X80564300Y-49784081D01*
X80647172Y-49729473D01*
X80711549Y-49653938D01*
X80752334Y-49563459D01*
X80766298Y-49465200D01*
X80766298Y-48215200D01*
X80761841Y-48159305D01*
X80732481Y-48064500D01*
X80677873Y-47981628D01*
X80602338Y-47917251D01*
X80594917Y-47913906D01*
X80647172Y-47879473D01*
X80711549Y-47803938D01*
X80752334Y-47713459D01*
X80766298Y-47615200D01*
X80766298Y-47589595D01*
X80880197Y-47614637D01*
X81017640Y-47617516D01*
X81153025Y-47593644D01*
X81281195Y-47543930D01*
X81353670Y-47497935D01*
X81599000Y-50000000D01*
X81586680Y-50882296D01*
X80813744Y-57000711D01*
X80291769Y-58569827D01*
X80261548Y-58417199D01*
X80085853Y-57990932D01*
X79830709Y-57606910D01*
X79505834Y-57279759D01*
X79123603Y-57021940D01*
X78698573Y-56843274D01*
X78246935Y-56750566D01*
X77785892Y-56747348D01*
X77333004Y-56833741D01*
X76905521Y-57006455D01*
X76519727Y-57258911D01*
X76190316Y-57581495D01*
X75929835Y-57961917D01*
X75748206Y-58385689D01*
X75652348Y-58836669D01*
X75645910Y-59297678D01*
X75729139Y-59751159D01*
X75898865Y-60179837D01*
X76148622Y-60567384D01*
X76468898Y-60899039D01*
X76847493Y-61162169D01*
X77269986Y-61346752D01*
X77720285Y-61445757D01*
X78181239Y-61455412D01*
X78635289Y-61375351D01*
X79065142Y-61208622D01*
X79454423Y-60961577D01*
X79515482Y-60903431D01*
X78867123Y-62852471D01*
X75820962Y-68214685D01*
X73720490Y-70648105D01*
X74616203Y-68963513D01*
X75202915Y-67020231D01*
X75401000Y-65000000D01*
X75396945Y-64709587D01*
X75142528Y-62695674D01*
X74501786Y-60769532D01*
X73499124Y-59004527D01*
X72172733Y-57467888D01*
X70573134Y-56218145D01*
X68761257Y-55302900D01*
X66806115Y-54757015D01*
X64782178Y-54601281D01*
X62766538Y-54841632D01*
X60835970Y-55468911D01*
X59064008Y-56459227D01*
X57518147Y-57774858D01*
X56257267Y-59365693D01*
X55329395Y-61171137D01*
X54769873Y-63122420D01*
X54600014Y-65145221D01*
X54826287Y-67162489D01*
X55440073Y-69097390D01*
X56417995Y-70876222D01*
X57722802Y-72431230D01*
X59192007Y-73612502D01*
X57759068Y-73612502D01*
X54363673Y-70217107D01*
X54360541Y-70209508D01*
X54284465Y-70095004D01*
X54187596Y-69997457D01*
X54073626Y-69920583D01*
X53946894Y-69867310D01*
X53812229Y-69839667D01*
X53674759Y-69838707D01*
X53539721Y-69864467D01*
X53412258Y-69915965D01*
X53394313Y-69927708D01*
X53382481Y-69889500D01*
X53327873Y-69806628D01*
X53252338Y-69742251D01*
X53161859Y-69701466D01*
X53063600Y-69687502D01*
X52363600Y-69687502D01*
X52307705Y-69691959D01*
X52212900Y-69721319D01*
X52130028Y-69775927D01*
X52065651Y-69851462D01*
X52039600Y-69909255D01*
X52039600Y-62990200D01*
X52035307Y-62946416D01*
X52031477Y-62902639D01*
X52030780Y-62900238D01*
X52030535Y-62897744D01*
X52017814Y-62855612D01*
X52005559Y-62813429D01*
X52004408Y-62811208D01*
X52003684Y-62808811D01*
X51983028Y-62769963D01*
X51962807Y-62730952D01*
X51961247Y-62728998D01*
X51960071Y-62726786D01*
X51932281Y-62692713D01*
X51904850Y-62658349D01*
X51901414Y-62654865D01*
X51901356Y-62654794D01*
X51901290Y-62654739D01*
X51900183Y-62653617D01*
X47395708Y-58149142D01*
X47636678Y-58149142D01*
X47661495Y-58284357D01*
X47712102Y-58412176D01*
X47786573Y-58527732D01*
X47882070Y-58626621D01*
X47994956Y-58705079D01*
X48120931Y-58760117D01*
X48255197Y-58789637D01*
X48392640Y-58792516D01*
X48528025Y-58768644D01*
X48656195Y-58718930D01*
X48772267Y-58645268D01*
X48871821Y-58550464D01*
X48951065Y-58438129D01*
X49006981Y-58312541D01*
X49037438Y-58178484D01*
X49039051Y-58062915D01*
X57353024Y-49748942D01*
X58848078Y-49748942D01*
X58872895Y-49884157D01*
X58923502Y-50011976D01*
X58997973Y-50127532D01*
X59093470Y-50226421D01*
X59206356Y-50304879D01*
X59332331Y-50359917D01*
X59466597Y-50389437D01*
X59599045Y-50392211D01*
X60939286Y-51732452D01*
X60938078Y-51818942D01*
X60962895Y-51954157D01*
X61013502Y-52081976D01*
X61087973Y-52197532D01*
X61183470Y-52296421D01*
X61296356Y-52374879D01*
X61422331Y-52429917D01*
X61556597Y-52459437D01*
X61694040Y-52462316D01*
X61829425Y-52438444D01*
X61957595Y-52388730D01*
X62073667Y-52315068D01*
X62173221Y-52220264D01*
X62252465Y-52107929D01*
X62308381Y-51982341D01*
X62338838Y-51848284D01*
X62341030Y-51691263D01*
X62314328Y-51556408D01*
X62261941Y-51429308D01*
X62185865Y-51314804D01*
X62088996Y-51217257D01*
X61975026Y-51140383D01*
X61848294Y-51087110D01*
X61713629Y-51059467D01*
X61611923Y-51058757D01*
X60249975Y-49696809D01*
X60251030Y-49621263D01*
X60224328Y-49486408D01*
X60171941Y-49359308D01*
X60095865Y-49244804D01*
X59998996Y-49147257D01*
X59885026Y-49070383D01*
X59758294Y-49017110D01*
X59623629Y-48989467D01*
X59486159Y-48988507D01*
X59351121Y-49014267D01*
X59223658Y-49065765D01*
X59108625Y-49141041D01*
X59010404Y-49237226D01*
X58932737Y-49350657D01*
X58878580Y-49477013D01*
X58849998Y-49611482D01*
X58848078Y-49748942D01*
X57353024Y-49748942D01*
X59235766Y-47866200D01*
X64937070Y-47866200D01*
X64944719Y-47890900D01*
X64999327Y-47973772D01*
X65074862Y-48038149D01*
X65165341Y-48078934D01*
X65263600Y-48092898D01*
X66563600Y-48092898D01*
X66619495Y-48088441D01*
X66714300Y-48059081D01*
X66797172Y-48004473D01*
X66861549Y-47928938D01*
X66902334Y-47838459D01*
X66916298Y-47740200D01*
X66916298Y-47040200D01*
X66911841Y-46984305D01*
X66882481Y-46889500D01*
X66827873Y-46806628D01*
X66752338Y-46742251D01*
X66661859Y-46701466D01*
X66563600Y-46687502D01*
X65263600Y-46687502D01*
X65207705Y-46691959D01*
X65112900Y-46721319D01*
X65030028Y-46775927D01*
X64965651Y-46851462D01*
X64937371Y-46914200D01*
X59038600Y-46914200D01*
X58994819Y-46918493D01*
X58951039Y-46922323D01*
X58948638Y-46923020D01*
X58946144Y-46923265D01*
X58904012Y-46935986D01*
X58861829Y-46948241D01*
X58859608Y-46949392D01*
X58857211Y-46950116D01*
X58818363Y-46970772D01*
X58779352Y-46990993D01*
X58777398Y-46992553D01*
X58775186Y-46993729D01*
X58741113Y-47021519D01*
X58706749Y-47048950D01*
X58703265Y-47052386D01*
X58703194Y-47052444D01*
X58703139Y-47052510D01*
X58702017Y-47053617D01*
X48366288Y-57389346D01*
X48274759Y-57388707D01*
X48139721Y-57414467D01*
X48012258Y-57465965D01*
X47897225Y-57541241D01*
X47799004Y-57637426D01*
X47721337Y-57750857D01*
X47667180Y-57877213D01*
X47638598Y-58011682D01*
X47636678Y-58149142D01*
X47395708Y-58149142D01*
X38241216Y-48994650D01*
X43674861Y-48994650D01*
X43748369Y-49178349D01*
X43950620Y-49285528D01*
X44169893Y-49351191D01*
X44397763Y-49372814D01*
X44625474Y-49349567D01*
X44844273Y-49282341D01*
X45038831Y-49178349D01*
X45112339Y-48994650D01*
X44393600Y-48275911D01*
X43674861Y-48994650D01*
X38241216Y-48994650D01*
X37455929Y-48209363D01*
X43225986Y-48209363D01*
X43249233Y-48437074D01*
X43316459Y-48655873D01*
X43420451Y-48850431D01*
X43604150Y-48923939D01*
X44322889Y-48205200D01*
X44464311Y-48205200D01*
X45183050Y-48923939D01*
X45366749Y-48850431D01*
X45473928Y-48648180D01*
X45539591Y-48428907D01*
X45551938Y-48298784D01*
X45819137Y-48298784D01*
X45858539Y-48513469D01*
X45938890Y-48716411D01*
X46057129Y-48899882D01*
X46208752Y-49056893D01*
X46387985Y-49181463D01*
X46588000Y-49268847D01*
X46801179Y-49315718D01*
X47019401Y-49320289D01*
X47234356Y-49282387D01*
X47437855Y-49203455D01*
X47622147Y-49086499D01*
X47780212Y-48935976D01*
X47906030Y-48757617D01*
X47994809Y-48558217D01*
X48043166Y-48345371D01*
X48043816Y-48298784D01*
X48359137Y-48298784D01*
X48398539Y-48513469D01*
X48478890Y-48716411D01*
X48597129Y-48899882D01*
X48748752Y-49056893D01*
X48927985Y-49181463D01*
X49128000Y-49268847D01*
X49341179Y-49315718D01*
X49559401Y-49320289D01*
X49774356Y-49282387D01*
X49977855Y-49203455D01*
X50162147Y-49086499D01*
X50320212Y-48935976D01*
X50446030Y-48757617D01*
X50534809Y-48558217D01*
X50583166Y-48345371D01*
X50586647Y-48096065D01*
X50544252Y-47881951D01*
X50461075Y-47680150D01*
X50340286Y-47498348D01*
X50186485Y-47343470D01*
X50005531Y-47221414D01*
X49804315Y-47136831D01*
X49590503Y-47092942D01*
X49372238Y-47091418D01*
X49157834Y-47132318D01*
X48955457Y-47214083D01*
X48772816Y-47333600D01*
X48616867Y-47486316D01*
X48493552Y-47666414D01*
X48407566Y-47867034D01*
X48362185Y-48080535D01*
X48359137Y-48298784D01*
X48043816Y-48298784D01*
X48046647Y-48096065D01*
X48004252Y-47881951D01*
X47921075Y-47680150D01*
X47800286Y-47498348D01*
X47646485Y-47343470D01*
X47465531Y-47221414D01*
X47264315Y-47136831D01*
X47050503Y-47092942D01*
X46832238Y-47091418D01*
X46617834Y-47132318D01*
X46415457Y-47214083D01*
X46232816Y-47333600D01*
X46076867Y-47486316D01*
X45953552Y-47666414D01*
X45867566Y-47867034D01*
X45822185Y-48080535D01*
X45819137Y-48298784D01*
X45551938Y-48298784D01*
X45561214Y-48201037D01*
X45537967Y-47973326D01*
X45470741Y-47754527D01*
X45366749Y-47559969D01*
X45183050Y-47486461D01*
X44464311Y-48205200D01*
X44322889Y-48205200D01*
X43604150Y-47486461D01*
X43420451Y-47559969D01*
X43313272Y-47762220D01*
X43247609Y-47981493D01*
X43225986Y-48209363D01*
X37455929Y-48209363D01*
X36662316Y-47415750D01*
X43674861Y-47415750D01*
X44393600Y-48134489D01*
X45112339Y-47415750D01*
X45038831Y-47232051D01*
X44836580Y-47124872D01*
X44617307Y-47059209D01*
X44389437Y-47037586D01*
X44161726Y-47060833D01*
X43942927Y-47128059D01*
X43748369Y-47232051D01*
X43674861Y-47415750D01*
X36662316Y-47415750D01*
X36249626Y-47003060D01*
X36303025Y-46993644D01*
X36431195Y-46943930D01*
X36547267Y-46870268D01*
X36646821Y-46775464D01*
X36663937Y-46751200D01*
X58938600Y-46751200D01*
X58978661Y-46747272D01*
X59018802Y-46743760D01*
X59021007Y-46743120D01*
X59023286Y-46742896D01*
X59061818Y-46731263D01*
X59100516Y-46720020D01*
X59102552Y-46718965D01*
X59104747Y-46718302D01*
X59140335Y-46699380D01*
X59176063Y-46680860D01*
X59177852Y-46679432D01*
X59179879Y-46678354D01*
X59211093Y-46652896D01*
X59242564Y-46627774D01*
X59245757Y-46624625D01*
X59245821Y-46624573D01*
X59245870Y-46624514D01*
X59246899Y-46623499D01*
X59362365Y-46508032D01*
X59365371Y-46507159D01*
X59447848Y-46464407D01*
X59520451Y-46406450D01*
X59525183Y-46401783D01*
X59610902Y-46316064D01*
X59610902Y-46465200D01*
X59615359Y-46521095D01*
X59644719Y-46615900D01*
X59699327Y-46698772D01*
X59774862Y-46763149D01*
X59865341Y-46803934D01*
X59963600Y-46817898D01*
X60663600Y-46817898D01*
X60719495Y-46813441D01*
X60814300Y-46784081D01*
X60897172Y-46729473D01*
X60961549Y-46653938D01*
X61002334Y-46563459D01*
X61016298Y-46465200D01*
X61016298Y-45165200D01*
X61011841Y-45109305D01*
X60982481Y-45014500D01*
X60927873Y-44931628D01*
X60852338Y-44867251D01*
X60761859Y-44826466D01*
X60663600Y-44812502D01*
X59963600Y-44812502D01*
X59907705Y-44816959D01*
X59812900Y-44846319D01*
X59730028Y-44900927D01*
X59665651Y-44976462D01*
X59624866Y-45066941D01*
X59610902Y-45165200D01*
X59610902Y-45339200D01*
X59438600Y-45339200D01*
X59394819Y-45343493D01*
X59351039Y-45347323D01*
X59348639Y-45348020D01*
X59346144Y-45348265D01*
X59303966Y-45361000D01*
X59261829Y-45373242D01*
X59259612Y-45374391D01*
X59257211Y-45375116D01*
X59218328Y-45395790D01*
X59179352Y-45415993D01*
X59177398Y-45417553D01*
X59175186Y-45418729D01*
X59141082Y-45446543D01*
X59106749Y-45473951D01*
X59103267Y-45477385D01*
X59103194Y-45477444D01*
X59103138Y-45477511D01*
X59102017Y-45478617D01*
X58852017Y-45728617D01*
X58793051Y-45800403D01*
X58750801Y-45879200D01*
X57563430Y-45879200D01*
X57702212Y-45825370D01*
X58008703Y-45630865D01*
X58271577Y-45380534D01*
X58480822Y-45083910D01*
X58628468Y-44752293D01*
X58708890Y-44398314D01*
X58714679Y-43983700D01*
X58644172Y-43627614D01*
X58505844Y-43292004D01*
X58304963Y-42989653D01*
X58049181Y-42732079D01*
X57748240Y-42529092D01*
X57413604Y-42388424D01*
X57058018Y-42315433D01*
X56695027Y-42312899D01*
X56338457Y-42380918D01*
X56261000Y-42412213D01*
X56261000Y-28921959D01*
X56288842Y-28934123D01*
X56643374Y-29012072D01*
X57006294Y-29019674D01*
X57363779Y-28956640D01*
X57702212Y-28825370D01*
X58008703Y-28630865D01*
X58271577Y-28380534D01*
X58480822Y-28083910D01*
X58628468Y-27752293D01*
X58708890Y-27398314D01*
X58714679Y-26983700D01*
X58644172Y-26627614D01*
X58505844Y-26292004D01*
X58304963Y-25989653D01*
X58049181Y-25732079D01*
X57822431Y-25579134D01*
X57849887Y-25557166D01*
X57864760Y-25539526D01*
X59837600Y-27512365D01*
X59837600Y-41563670D01*
X59812900Y-41571319D01*
X59730028Y-41625927D01*
X59665651Y-41701462D01*
X59624866Y-41791941D01*
X59610902Y-41890200D01*
X59610902Y-43190200D01*
X59615359Y-43246095D01*
X59644719Y-43340900D01*
X59699327Y-43423772D01*
X59774862Y-43488149D01*
X59865341Y-43528934D01*
X59963600Y-43542898D01*
X60663600Y-43542898D01*
X60719495Y-43538441D01*
X60814300Y-43509081D01*
X60897172Y-43454473D01*
X60961549Y-43378938D01*
X61002334Y-43288459D01*
X61016298Y-43190200D01*
X61016298Y-41890200D01*
X61510902Y-41890200D01*
X61510902Y-43190200D01*
X61515359Y-43246095D01*
X61544719Y-43340900D01*
X61599327Y-43423772D01*
X61674862Y-43488149D01*
X61765341Y-43528934D01*
X61863600Y-43542898D01*
X62563600Y-43542898D01*
X62619495Y-43538441D01*
X62714300Y-43509081D01*
X62797172Y-43454473D01*
X62861549Y-43378938D01*
X62902334Y-43288459D01*
X62916298Y-43190200D01*
X62916298Y-43016200D01*
X63292016Y-43016200D01*
X63387866Y-43135414D01*
X63434745Y-43174750D01*
X63396238Y-43206155D01*
X63290371Y-43334127D01*
X63211376Y-43480224D01*
X63162263Y-43638883D01*
X63144903Y-43804059D01*
X63159956Y-43969461D01*
X63161643Y-43975191D01*
X62324332Y-44812502D01*
X61863600Y-44812502D01*
X61807705Y-44816959D01*
X61712900Y-44846319D01*
X61630028Y-44900927D01*
X61565651Y-44976462D01*
X61524866Y-45066941D01*
X61510902Y-45165200D01*
X61510902Y-46465200D01*
X61515359Y-46521095D01*
X61544719Y-46615900D01*
X61599327Y-46698772D01*
X61674862Y-46763149D01*
X61765341Y-46803934D01*
X61863600Y-46817898D01*
X62563600Y-46817898D01*
X62619495Y-46813441D01*
X62714300Y-46784081D01*
X62797172Y-46729473D01*
X62861549Y-46653938D01*
X62902334Y-46563459D01*
X62916298Y-46465200D01*
X62916298Y-45566868D01*
X63838562Y-44644604D01*
X63984000Y-44660917D01*
X63995882Y-44661000D01*
X64004118Y-44661000D01*
X64169411Y-44644793D01*
X64328409Y-44596789D01*
X64475054Y-44518816D01*
X64603762Y-44413845D01*
X64709629Y-44285873D01*
X64788624Y-44139776D01*
X64837737Y-43981117D01*
X64855097Y-43815941D01*
X64840044Y-43650539D01*
X64793151Y-43491210D01*
X64716204Y-43344024D01*
X64612134Y-43214586D01*
X64565255Y-43175250D01*
X64603762Y-43143845D01*
X64709629Y-43015873D01*
X64788624Y-42869776D01*
X64837737Y-42711117D01*
X64855097Y-42545941D01*
X64840044Y-42380539D01*
X64793151Y-42221210D01*
X64716204Y-42074024D01*
X64612134Y-41944586D01*
X64565255Y-41905250D01*
X64603762Y-41873845D01*
X64709524Y-41746000D01*
X65185902Y-41746000D01*
X65185902Y-41915200D01*
X65190359Y-41971095D01*
X65219719Y-42065900D01*
X65274327Y-42148772D01*
X65349862Y-42213149D01*
X65440341Y-42253934D01*
X65538600Y-42267898D01*
X66238600Y-42267898D01*
X66287600Y-42263991D01*
X66287600Y-44443035D01*
X65943132Y-44787502D01*
X65263600Y-44787502D01*
X65207705Y-44791959D01*
X65112900Y-44821319D01*
X65030028Y-44875927D01*
X64965651Y-44951462D01*
X64924866Y-45041941D01*
X64910902Y-45140200D01*
X64910902Y-45840200D01*
X64915359Y-45896095D01*
X64944719Y-45990900D01*
X64999327Y-46073772D01*
X65074862Y-46138149D01*
X65165341Y-46178934D01*
X65263600Y-46192898D01*
X66563600Y-46192898D01*
X66619495Y-46188441D01*
X66714300Y-46159081D01*
X66797172Y-46104473D01*
X66861549Y-46028938D01*
X66902334Y-45938459D01*
X66916298Y-45840200D01*
X66916298Y-45160667D01*
X67100183Y-44976782D01*
X67128098Y-44942799D01*
X67156354Y-44909124D01*
X67157558Y-44906934D01*
X67159150Y-44904996D01*
X67179967Y-44866171D01*
X67201108Y-44827716D01*
X67201864Y-44825334D01*
X67203048Y-44823125D01*
X67215914Y-44781042D01*
X67229198Y-44739166D01*
X67229477Y-44736680D01*
X67230209Y-44734285D01*
X67234655Y-44690515D01*
X67239554Y-44646846D01*
X67239588Y-44641961D01*
X67239598Y-44641861D01*
X67239589Y-44641767D01*
X67239600Y-44640200D01*
X67239600Y-42204403D01*
X67249862Y-42213149D01*
X67312600Y-42241429D01*
X67312600Y-50965200D01*
X67316893Y-51008981D01*
X67320723Y-51052761D01*
X67321420Y-51055162D01*
X67321665Y-51057656D01*
X67334386Y-51099788D01*
X67346641Y-51141971D01*
X67347792Y-51144192D01*
X67348516Y-51146589D01*
X67369172Y-51185437D01*
X67389393Y-51224448D01*
X67390953Y-51226402D01*
X67392129Y-51228614D01*
X67419919Y-51262687D01*
X67447350Y-51297051D01*
X67450786Y-51300535D01*
X67450844Y-51300606D01*
X67450910Y-51300661D01*
X67452017Y-51301783D01*
X70737886Y-54587651D01*
X70736678Y-54674142D01*
X70761495Y-54809357D01*
X70812102Y-54937176D01*
X70886573Y-55052732D01*
X70982070Y-55151621D01*
X71094956Y-55230079D01*
X71220931Y-55285117D01*
X71355197Y-55314637D01*
X71492640Y-55317516D01*
X71628025Y-55293644D01*
X71756195Y-55243930D01*
X71872267Y-55170268D01*
X71971821Y-55075464D01*
X72051065Y-54963129D01*
X72106981Y-54837541D01*
X72137438Y-54703484D01*
X72139630Y-54546463D01*
X72112928Y-54411608D01*
X72060541Y-54284508D01*
X71984465Y-54170004D01*
X71887596Y-54072457D01*
X71773626Y-53995583D01*
X71646894Y-53942310D01*
X71512229Y-53914667D01*
X71410522Y-53913957D01*
X69161766Y-51665200D01*
X75038600Y-51665200D01*
X75038600Y-52804596D01*
X75053972Y-52881875D01*
X75084124Y-52954671D01*
X75127899Y-53020185D01*
X75183614Y-53075900D01*
X75249129Y-53119675D01*
X75321924Y-53149828D01*
X75399203Y-53165200D01*
X76263600Y-53165200D01*
X76363600Y-53065200D01*
X76363600Y-51565200D01*
X76463600Y-51565200D01*
X76463600Y-53065200D01*
X76563600Y-53165200D01*
X77427997Y-53165200D01*
X77505276Y-53149828D01*
X77578071Y-53119675D01*
X77643586Y-53075900D01*
X77699301Y-53020185D01*
X77743076Y-52954671D01*
X77773228Y-52881875D01*
X77788600Y-52804596D01*
X77788600Y-51665200D01*
X77688600Y-51565200D01*
X76463600Y-51565200D01*
X76363600Y-51565200D01*
X75138600Y-51565200D01*
X75038600Y-51665200D01*
X69161766Y-51665200D01*
X68264600Y-50768034D01*
X68264600Y-50225804D01*
X75038600Y-50225804D01*
X75038600Y-51365200D01*
X75138600Y-51465200D01*
X76363600Y-51465200D01*
X76363600Y-49965200D01*
X76463600Y-49965200D01*
X76463600Y-51465200D01*
X77688600Y-51465200D01*
X77788600Y-51365200D01*
X77788600Y-50225804D01*
X77773228Y-50148525D01*
X77743076Y-50075729D01*
X77699301Y-50010215D01*
X77643586Y-49954500D01*
X77578071Y-49910725D01*
X77505276Y-49880572D01*
X77427997Y-49865200D01*
X76563600Y-49865200D01*
X76463600Y-49965200D01*
X76363600Y-49965200D01*
X76263600Y-49865200D01*
X75399203Y-49865200D01*
X75321924Y-49880572D01*
X75249129Y-49910725D01*
X75183614Y-49954500D01*
X75127899Y-50010215D01*
X75084124Y-50075729D01*
X75053972Y-50148525D01*
X75038600Y-50225804D01*
X68264600Y-50225804D01*
X68264600Y-45290200D01*
X76538600Y-45290200D01*
X76538600Y-45804596D01*
X76553972Y-45881875D01*
X76584124Y-45954671D01*
X76627899Y-46020185D01*
X76683614Y-46075900D01*
X76749129Y-46119675D01*
X76821924Y-46149828D01*
X76899203Y-46165200D01*
X77066159Y-46165200D01*
X77059124Y-46175729D01*
X77028972Y-46248525D01*
X77013600Y-46325804D01*
X77013600Y-46840200D01*
X77113600Y-46940200D01*
X77863600Y-46940200D01*
X77863600Y-46920200D01*
X77963600Y-46920200D01*
X77963600Y-46940200D01*
X78713600Y-46940200D01*
X78813600Y-46840200D01*
X78813600Y-46325804D01*
X78798228Y-46248525D01*
X78768076Y-46175729D01*
X78724301Y-46110215D01*
X78668586Y-46054500D01*
X78603071Y-46010725D01*
X78530276Y-45980572D01*
X78452997Y-45965200D01*
X78286041Y-45965200D01*
X78293076Y-45954671D01*
X78323228Y-45881875D01*
X78338600Y-45804596D01*
X78338600Y-45290200D01*
X78238600Y-45190200D01*
X77488600Y-45190200D01*
X77488600Y-45210200D01*
X77388600Y-45210200D01*
X77388600Y-45190200D01*
X76638600Y-45190200D01*
X76538600Y-45290200D01*
X68264600Y-45290200D01*
X68264600Y-42241730D01*
X68289300Y-42234081D01*
X68372172Y-42179473D01*
X68436549Y-42103938D01*
X68477334Y-42013459D01*
X68491298Y-41915200D01*
X68491298Y-40615200D01*
X68486841Y-40559305D01*
X68457481Y-40464500D01*
X68402873Y-40381628D01*
X68327338Y-40317251D01*
X68236859Y-40276466D01*
X68138600Y-40262502D01*
X67438600Y-40262502D01*
X67382705Y-40266959D01*
X67287900Y-40296319D01*
X67236187Y-40330395D01*
X67235307Y-40321416D01*
X67231477Y-40277639D01*
X67230780Y-40275238D01*
X67230535Y-40272744D01*
X67217814Y-40230612D01*
X67205559Y-40188429D01*
X67204408Y-40186208D01*
X67203684Y-40183811D01*
X67183028Y-40144963D01*
X67162807Y-40105952D01*
X67161247Y-40103998D01*
X67160071Y-40101786D01*
X67132281Y-40067713D01*
X67104850Y-40033349D01*
X67101414Y-40029865D01*
X67101356Y-40029794D01*
X67101290Y-40029739D01*
X67100183Y-40028617D01*
X66734983Y-39663417D01*
X66700979Y-39635486D01*
X66667324Y-39607246D01*
X66665134Y-39606042D01*
X66663197Y-39604451D01*
X66624389Y-39583643D01*
X66585916Y-39562492D01*
X66583534Y-39561736D01*
X66581325Y-39560552D01*
X66539230Y-39547682D01*
X66497366Y-39534402D01*
X66494881Y-39534123D01*
X66492486Y-39533391D01*
X66448750Y-39528949D01*
X66405046Y-39524046D01*
X66400152Y-39524012D01*
X66400062Y-39524003D01*
X66399978Y-39524011D01*
X66398400Y-39524000D01*
X64852698Y-39524000D01*
X64852698Y-39500000D01*
X64848241Y-39444105D01*
X64818881Y-39349300D01*
X64764273Y-39266428D01*
X64688738Y-39202051D01*
X64598259Y-39161266D01*
X64500000Y-39147302D01*
X63500000Y-39147302D01*
X63444105Y-39151759D01*
X63349300Y-39181119D01*
X63266428Y-39235727D01*
X63202051Y-39311262D01*
X63161266Y-39401741D01*
X63147302Y-39500000D01*
X63147302Y-40500000D01*
X63151759Y-40555895D01*
X63181119Y-40650700D01*
X63235727Y-40733572D01*
X63297155Y-40785926D01*
X63290371Y-40794127D01*
X63211376Y-40940224D01*
X63162263Y-41098883D01*
X63144903Y-41264059D01*
X63159956Y-41429461D01*
X63206849Y-41588790D01*
X63283796Y-41735976D01*
X63387866Y-41865414D01*
X63434745Y-41904750D01*
X63396238Y-41936155D01*
X63290371Y-42064127D01*
X63290332Y-42064200D01*
X62916298Y-42064200D01*
X62916298Y-41890200D01*
X62911841Y-41834305D01*
X62882481Y-41739500D01*
X62827873Y-41656628D01*
X62752338Y-41592251D01*
X62661859Y-41551466D01*
X62563600Y-41537502D01*
X61863600Y-41537502D01*
X61807705Y-41541959D01*
X61712900Y-41571319D01*
X61630028Y-41625927D01*
X61565651Y-41701462D01*
X61524866Y-41791941D01*
X61510902Y-41890200D01*
X61016298Y-41890200D01*
X61011841Y-41834305D01*
X60982481Y-41739500D01*
X60927873Y-41656628D01*
X60852338Y-41592251D01*
X60789600Y-41563971D01*
X60789600Y-38199142D01*
X61361678Y-38199142D01*
X61386495Y-38334357D01*
X61437102Y-38462176D01*
X61511573Y-38577732D01*
X61607070Y-38676621D01*
X61719956Y-38755079D01*
X61845931Y-38810117D01*
X61980197Y-38839637D01*
X62117640Y-38842516D01*
X62253025Y-38818644D01*
X62381195Y-38768930D01*
X62497267Y-38695268D01*
X62596821Y-38600464D01*
X62676065Y-38488129D01*
X62731981Y-38362541D01*
X62748189Y-38291200D01*
X65698722Y-38291200D01*
X65757070Y-38351621D01*
X65869956Y-38430079D01*
X65995931Y-38485117D01*
X66130197Y-38514637D01*
X66267640Y-38517516D01*
X66403025Y-38493644D01*
X66531195Y-38443930D01*
X66647267Y-38370268D01*
X66746821Y-38275464D01*
X66826065Y-38163129D01*
X66881981Y-38037541D01*
X66912438Y-37903484D01*
X66914630Y-37746463D01*
X66887928Y-37611608D01*
X66835541Y-37484508D01*
X66759465Y-37370004D01*
X66716199Y-37326436D01*
X67534215Y-37400881D01*
X68485483Y-37300898D01*
X69399214Y-37018051D01*
X70240604Y-36563113D01*
X70977606Y-35953412D01*
X71582147Y-35212172D01*
X72031200Y-34367626D01*
X72307661Y-33451943D01*
X72401000Y-32500000D01*
X72399089Y-32363156D01*
X72279207Y-31414191D01*
X71977286Y-30506584D01*
X71504827Y-29674905D01*
X70879825Y-28950834D01*
X70126087Y-28361949D01*
X69272322Y-27930681D01*
X68351050Y-27673457D01*
X67397361Y-27600075D01*
X66447582Y-27713329D01*
X65537889Y-28008906D01*
X64702933Y-28475548D01*
X63974516Y-29095479D01*
X63380383Y-29845088D01*
X62943165Y-30695822D01*
X62679516Y-31615276D01*
X62599478Y-32568429D01*
X62706099Y-33518975D01*
X62995318Y-34430709D01*
X63456119Y-35268903D01*
X64070950Y-36001631D01*
X64816393Y-36600982D01*
X65664053Y-37044128D01*
X66003454Y-37144019D01*
X65887258Y-37190965D01*
X65772225Y-37266241D01*
X65697722Y-37339200D01*
X62388600Y-37339200D01*
X62344819Y-37343493D01*
X62301039Y-37347323D01*
X62298639Y-37348020D01*
X62296144Y-37348265D01*
X62253966Y-37361000D01*
X62211829Y-37373242D01*
X62209612Y-37374391D01*
X62207211Y-37375116D01*
X62168328Y-37395790D01*
X62129352Y-37415993D01*
X62127398Y-37417553D01*
X62125186Y-37418729D01*
X62099834Y-37439406D01*
X61999759Y-37438707D01*
X61864721Y-37464467D01*
X61737258Y-37515965D01*
X61622225Y-37591241D01*
X61524004Y-37687426D01*
X61446337Y-37800857D01*
X61392180Y-37927213D01*
X61363598Y-38061682D01*
X61361678Y-38199142D01*
X60789600Y-38199142D01*
X60789600Y-35631248D01*
X60832331Y-35649917D01*
X60966597Y-35679437D01*
X61104040Y-35682316D01*
X61239425Y-35658444D01*
X61367595Y-35608730D01*
X61483667Y-35535068D01*
X61583221Y-35440264D01*
X61662465Y-35327929D01*
X61718381Y-35202341D01*
X61748838Y-35068284D01*
X61751030Y-34911263D01*
X61746677Y-34889278D01*
X61752303Y-34870876D01*
X61765598Y-34828966D01*
X61765877Y-34826481D01*
X61766609Y-34824086D01*
X61771051Y-34780350D01*
X61775954Y-34736646D01*
X61775988Y-34731752D01*
X61775997Y-34731662D01*
X61775989Y-34731578D01*
X61776000Y-34730000D01*
X61776000Y-33654755D01*
X61833221Y-33600264D01*
X61912465Y-33487929D01*
X61968381Y-33362341D01*
X61998838Y-33228284D01*
X62001030Y-33071263D01*
X61974328Y-32936408D01*
X61921941Y-32809308D01*
X61845865Y-32694804D01*
X61748996Y-32597257D01*
X61635026Y-32520383D01*
X61508294Y-32467110D01*
X61373629Y-32439467D01*
X61236159Y-32438507D01*
X61101121Y-32464267D01*
X60973658Y-32515765D01*
X60858625Y-32591041D01*
X60789600Y-32658635D01*
X60789600Y-28240638D01*
X60843470Y-28296421D01*
X60956356Y-28374879D01*
X61082331Y-28429917D01*
X61216597Y-28459437D01*
X61354040Y-28462316D01*
X61489425Y-28438444D01*
X61617595Y-28388730D01*
X61733667Y-28315068D01*
X61816697Y-28236000D01*
X62343749Y-28236000D01*
X62363470Y-28256421D01*
X62476356Y-28334879D01*
X62602331Y-28389917D01*
X62736597Y-28419437D01*
X62874040Y-28422316D01*
X63009425Y-28398444D01*
X63137595Y-28348730D01*
X63253667Y-28275068D01*
X63353221Y-28180264D01*
X63432465Y-28067929D01*
X63488381Y-27942341D01*
X63518838Y-27808284D01*
X63521030Y-27651263D01*
X63494328Y-27516408D01*
X63441941Y-27389308D01*
X63365865Y-27274804D01*
X63268996Y-27177257D01*
X63155026Y-27100383D01*
X63028294Y-27047110D01*
X62893629Y-27019467D01*
X62756159Y-27018507D01*
X62621121Y-27044267D01*
X62493658Y-27095765D01*
X62378625Y-27171041D01*
X62280404Y-27267226D01*
X62268919Y-27284000D01*
X61815275Y-27284000D01*
X61748996Y-27217257D01*
X61635026Y-27140383D01*
X61508294Y-27087110D01*
X61373629Y-27059467D01*
X61236159Y-27058507D01*
X61101121Y-27084267D01*
X60973658Y-27135765D01*
X60858625Y-27211041D01*
X60786329Y-27281838D01*
X60785307Y-27271416D01*
X60781477Y-27227639D01*
X60780780Y-27225238D01*
X60780535Y-27222744D01*
X60767814Y-27180612D01*
X60755559Y-27138429D01*
X60754408Y-27136208D01*
X60753684Y-27133811D01*
X60733028Y-27094963D01*
X60712807Y-27055952D01*
X60711247Y-27053998D01*
X60710071Y-27051786D01*
X60682281Y-27017713D01*
X60654850Y-26983349D01*
X60651418Y-26979870D01*
X60651356Y-26979794D01*
X60651286Y-26979736D01*
X60650183Y-26978618D01*
X58539600Y-24868034D01*
X58539600Y-24346429D01*
X58570931Y-24360117D01*
X58705197Y-24389637D01*
X58842640Y-24392516D01*
X58978025Y-24368644D01*
X59106195Y-24318930D01*
X59222267Y-24245268D01*
X59226539Y-24241200D01*
X59385902Y-24241200D01*
X59385902Y-24390200D01*
X59390359Y-24446095D01*
X59419719Y-24540900D01*
X59474327Y-24623772D01*
X59549862Y-24688149D01*
X59640341Y-24728934D01*
X59738600Y-24742898D01*
X60738600Y-24742898D01*
X60794495Y-24738441D01*
X60889300Y-24709081D01*
X60972172Y-24654473D01*
X61036549Y-24578938D01*
X61077334Y-24488459D01*
X61091298Y-24390200D01*
X61091298Y-23915200D01*
X61338600Y-23915200D01*
X61338600Y-24429596D01*
X61353972Y-24506875D01*
X61384124Y-24579671D01*
X61427899Y-24645185D01*
X61483614Y-24700900D01*
X61549129Y-24744675D01*
X61621924Y-24774828D01*
X61699203Y-24790200D01*
X62088600Y-24790200D01*
X62188600Y-24690200D01*
X62188600Y-23815200D01*
X62288600Y-23815200D01*
X62288600Y-24690200D01*
X62388600Y-24790200D01*
X62777997Y-24790200D01*
X62855276Y-24774828D01*
X62928071Y-24744675D01*
X62993586Y-24700900D01*
X63049301Y-24645185D01*
X63093076Y-24579671D01*
X63123228Y-24506875D01*
X63138600Y-24429596D01*
X63138600Y-23915200D01*
X63038600Y-23815200D01*
X62288600Y-23815200D01*
X62188600Y-23815200D01*
X61438600Y-23815200D01*
X61338600Y-23915200D01*
X61091298Y-23915200D01*
X61091298Y-23140200D01*
X61088157Y-23100804D01*
X61338600Y-23100804D01*
X61338600Y-23615200D01*
X61438600Y-23715200D01*
X62188600Y-23715200D01*
X62188600Y-22840200D01*
X62288600Y-22840200D01*
X62288600Y-23715200D01*
X63038600Y-23715200D01*
X63138600Y-23615200D01*
X63138600Y-23100804D01*
X63123228Y-23023525D01*
X63093076Y-22950729D01*
X63049301Y-22885215D01*
X62993586Y-22829500D01*
X62928071Y-22785725D01*
X62855276Y-22755572D01*
X62777997Y-22740200D01*
X62388600Y-22740200D01*
X62288600Y-22840200D01*
X62188600Y-22840200D01*
X62088600Y-22740200D01*
X61699203Y-22740200D01*
X61621924Y-22755572D01*
X61549129Y-22785725D01*
X61483614Y-22829500D01*
X61427899Y-22885215D01*
X61384124Y-22950729D01*
X61353972Y-23023525D01*
X61338600Y-23100804D01*
X61088157Y-23100804D01*
X61086841Y-23084305D01*
X61057481Y-22989500D01*
X61002873Y-22906628D01*
X60927338Y-22842251D01*
X60836859Y-22801466D01*
X60738600Y-22787502D01*
X60714600Y-22787502D01*
X60714600Y-20964821D01*
X60751065Y-20913129D01*
X60806981Y-20787541D01*
X60837438Y-20653484D01*
X60839630Y-20496463D01*
X60826661Y-20430964D01*
X62245105Y-20870046D01*
G36*
X42162600Y-25265200D02*
X42170237Y-25343088D01*
X42192857Y-25418009D01*
X42202370Y-25435901D01*
X42001890Y-25516900D01*
X41698144Y-25715666D01*
X41438791Y-25969643D01*
X41233708Y-26269159D01*
X41221363Y-26297963D01*
X41138600Y-26215200D01*
X40388600Y-26215200D01*
X40388600Y-27090200D01*
X40488600Y-27190200D01*
X40877997Y-27190200D01*
X40955276Y-27174828D01*
X41012537Y-27151110D01*
X41010167Y-27320837D01*
X41075696Y-27677873D01*
X41209325Y-28015382D01*
X41405965Y-28320508D01*
X41658126Y-28581628D01*
X41956202Y-28788797D01*
X42288842Y-28934123D01*
X42643374Y-29012072D01*
X43006294Y-29019674D01*
X43363779Y-28956640D01*
X43458949Y-28919726D01*
X43449100Y-42403345D01*
X43413604Y-42388424D01*
X43058018Y-42315433D01*
X42695027Y-42312899D01*
X42338457Y-42380918D01*
X42001890Y-42516900D01*
X41698144Y-42715666D01*
X41438791Y-42969643D01*
X41233708Y-43269159D01*
X41090707Y-43602805D01*
X41015235Y-43957873D01*
X41010167Y-44320837D01*
X41075696Y-44677873D01*
X41209325Y-45015382D01*
X41405965Y-45320508D01*
X41658126Y-45581628D01*
X41956202Y-45788797D01*
X42163127Y-45879200D01*
X36665575Y-45879200D01*
X36659465Y-45870004D01*
X36562596Y-45772457D01*
X36448626Y-45695583D01*
X36321894Y-45642310D01*
X36187229Y-45614667D01*
X36049759Y-45613707D01*
X35949599Y-45632814D01*
X35949599Y-45149722D01*
X35952314Y-45140842D01*
X35964788Y-45101519D01*
X36005895Y-45098241D01*
X36100700Y-45068881D01*
X36183572Y-45014273D01*
X36247949Y-44938738D01*
X36288734Y-44848259D01*
X36302698Y-44750000D01*
X36302698Y-43950000D01*
X36298241Y-43894105D01*
X36268881Y-43799300D01*
X36214273Y-43716428D01*
X36138738Y-43652051D01*
X36048259Y-43611266D01*
X35950000Y-43597302D01*
X35050000Y-43597302D01*
X34994105Y-43601759D01*
X34899300Y-43631119D01*
X34816428Y-43685727D01*
X34752051Y-43761262D01*
X34711266Y-43851741D01*
X34697302Y-43950000D01*
X34697302Y-44750000D01*
X34701759Y-44805895D01*
X34731119Y-44900700D01*
X34785727Y-44983572D01*
X34861262Y-45047949D01*
X34951741Y-45088734D01*
X34997599Y-45095251D01*
X34997599Y-46900199D01*
X35001887Y-46943930D01*
X35005722Y-46987760D01*
X35006419Y-46990161D01*
X35006664Y-46992655D01*
X35019385Y-47034787D01*
X35031640Y-47076970D01*
X35032791Y-47079191D01*
X35033515Y-47081588D01*
X35054171Y-47120436D01*
X35074392Y-47159447D01*
X35075952Y-47161401D01*
X35077128Y-47163613D01*
X35104918Y-47197686D01*
X35132349Y-47232050D01*
X35135785Y-47235534D01*
X35135843Y-47235605D01*
X35135909Y-47235660D01*
X35137016Y-47236782D01*
X51087600Y-63187366D01*
X51087600Y-67176705D01*
X51082524Y-67172446D01*
X51081063Y-67171643D01*
X51079776Y-67170578D01*
X51040319Y-67149244D01*
X51001116Y-67127692D01*
X50999528Y-67127188D01*
X50998057Y-67126393D01*
X50993863Y-67125095D01*
X30976000Y-47107232D01*
X30976000Y-45350000D01*
X31150000Y-45350000D01*
X31150000Y-45589397D01*
X31165372Y-45666676D01*
X31195525Y-45739471D01*
X31239300Y-45804986D01*
X31295015Y-45860701D01*
X31360529Y-45904476D01*
X31433325Y-45934628D01*
X31510604Y-45950000D01*
X32050000Y-45950000D01*
X32150000Y-45850000D01*
X32150000Y-45250000D01*
X31250000Y-45250000D01*
X31150000Y-45350000D01*
X30976000Y-45350000D01*
X30976000Y-44850625D01*
X31005895Y-44848241D01*
X31100700Y-44818881D01*
X31155542Y-44782743D01*
X31150000Y-44810603D01*
X31150000Y-45050000D01*
X31250000Y-45150000D01*
X32150000Y-45150000D01*
X32150000Y-44550000D01*
X32250000Y-44550000D01*
X32250000Y-45150000D01*
X32270000Y-45150000D01*
X32270000Y-45250000D01*
X32250000Y-45250000D01*
X32250000Y-45850000D01*
X32350000Y-45950000D01*
X32735968Y-45950000D01*
X32739299Y-45954985D01*
X32795014Y-46010700D01*
X32860529Y-46054475D01*
X32933324Y-46084628D01*
X33010603Y-46100000D01*
X33350000Y-46100000D01*
X33450000Y-46000000D01*
X33450000Y-45350000D01*
X33550000Y-45350000D01*
X33550000Y-46000000D01*
X33650000Y-46100000D01*
X33989397Y-46100000D01*
X34066676Y-46084628D01*
X34139471Y-46054475D01*
X34204986Y-46010700D01*
X34260701Y-45954985D01*
X34304476Y-45889471D01*
X34334628Y-45816675D01*
X34350000Y-45739396D01*
X34350000Y-45450000D01*
X34250000Y-45350000D01*
X33550000Y-45350000D01*
X33450000Y-45350000D01*
X33430000Y-45350000D01*
X33430000Y-45250000D01*
X33450000Y-45250000D01*
X33450000Y-44600000D01*
X33550000Y-44600000D01*
X33550000Y-45250000D01*
X34250000Y-45250000D01*
X34350000Y-45150000D01*
X34350000Y-44860604D01*
X34334628Y-44783325D01*
X34304476Y-44710529D01*
X34260701Y-44645015D01*
X34204986Y-44589300D01*
X34139471Y-44545525D01*
X34066676Y-44515372D01*
X33989397Y-44500000D01*
X33650000Y-44500000D01*
X33550000Y-44600000D01*
X33450000Y-44600000D01*
X33350000Y-44500000D01*
X33046170Y-44500000D01*
X33039471Y-44495524D01*
X32966675Y-44465372D01*
X32889396Y-44450000D01*
X32350000Y-44450000D01*
X32250000Y-44550000D01*
X32150000Y-44550000D01*
X32050000Y-44450000D01*
X31510604Y-44450000D01*
X31433325Y-44465372D01*
X31360529Y-44495524D01*
X31297333Y-44537750D01*
X31302698Y-44500000D01*
X31302698Y-43898036D01*
X31361262Y-43947949D01*
X31451741Y-43988734D01*
X31550000Y-44002698D01*
X32765383Y-44002698D01*
X32785727Y-44033572D01*
X32861262Y-44097949D01*
X32951741Y-44138734D01*
X33050000Y-44152698D01*
X33950000Y-44152698D01*
X34005895Y-44148241D01*
X34100700Y-44118881D01*
X34183572Y-44064273D01*
X34247949Y-43988738D01*
X34288734Y-43898259D01*
X34302698Y-43800000D01*
X34302698Y-43000000D01*
X34298241Y-42944105D01*
X34268881Y-42849300D01*
X34214273Y-42766428D01*
X34138738Y-42702051D01*
X34048259Y-42661266D01*
X33950000Y-42647302D01*
X33050000Y-42647302D01*
X33031479Y-42648779D01*
X32948259Y-42611266D01*
X32850000Y-42597302D01*
X32676000Y-42597302D01*
X32676000Y-37175599D01*
X32864356Y-37142387D01*
X33067855Y-37063455D01*
X33252147Y-36946499D01*
X33410212Y-36795976D01*
X33536030Y-36617617D01*
X33624809Y-36418217D01*
X33673166Y-36205371D01*
X33676647Y-35956065D01*
X33634252Y-35741951D01*
X33551075Y-35540150D01*
X33430286Y-35358348D01*
X33276485Y-35203470D01*
X33095531Y-35081414D01*
X32894315Y-34996831D01*
X32680503Y-34952942D01*
X32462238Y-34951418D01*
X32247834Y-34992318D01*
X32045457Y-35074083D01*
X31862816Y-35193600D01*
X31706867Y-35346316D01*
X31689319Y-35371944D01*
X31680286Y-35358348D01*
X31526485Y-35203470D01*
X31345531Y-35081414D01*
X31144315Y-34996831D01*
X31082880Y-34984220D01*
X33283550Y-32783550D01*
X33307039Y-32754953D01*
X33330871Y-32726552D01*
X33331889Y-32724701D01*
X33333225Y-32723074D01*
X33350718Y-32690449D01*
X33368573Y-32657971D01*
X33369210Y-32655962D01*
X33370207Y-32654103D01*
X33381039Y-32618672D01*
X33392237Y-32583373D01*
X33392472Y-32581278D01*
X33393089Y-32579260D01*
X33396831Y-32542422D01*
X33400961Y-32505599D01*
X33400990Y-32501471D01*
X33400997Y-32501400D01*
X33400991Y-32501333D01*
X33401000Y-32500000D01*
X33401000Y-25940200D01*
X33660902Y-25940200D01*
X33660902Y-27890200D01*
X33665359Y-27946095D01*
X33694719Y-28040900D01*
X33749327Y-28123772D01*
X33824862Y-28188149D01*
X33915341Y-28228934D01*
X34013600Y-28242898D01*
X36513600Y-28242898D01*
X36569495Y-28238441D01*
X36664300Y-28209081D01*
X36747172Y-28154473D01*
X36811549Y-28078938D01*
X36852334Y-27988459D01*
X36866298Y-27890200D01*
X36866298Y-26260668D01*
X37485902Y-25641064D01*
X37485902Y-26790200D01*
X37490359Y-26846095D01*
X37519719Y-26940900D01*
X37574327Y-27023772D01*
X37649862Y-27088149D01*
X37740341Y-27128934D01*
X37838600Y-27142898D01*
X38838600Y-27142898D01*
X38894495Y-27138441D01*
X38989300Y-27109081D01*
X39072172Y-27054473D01*
X39136549Y-26978938D01*
X39177334Y-26888459D01*
X39191298Y-26790200D01*
X39191298Y-26478785D01*
X39192564Y-26477774D01*
X39195757Y-26474625D01*
X39195821Y-26474573D01*
X39195870Y-26474514D01*
X39196899Y-26473499D01*
X39230749Y-26439649D01*
X39367640Y-26442516D01*
X39438600Y-26430004D01*
X39438600Y-26829596D01*
X39453972Y-26906875D01*
X39484124Y-26979671D01*
X39527899Y-27045185D01*
X39583614Y-27100900D01*
X39649129Y-27144675D01*
X39721924Y-27174828D01*
X39799203Y-27190200D01*
X40188600Y-27190200D01*
X40288600Y-27090200D01*
X40288600Y-26215200D01*
X40268600Y-26215200D01*
X40268600Y-26115200D01*
X40288600Y-26115200D01*
X40288600Y-25240200D01*
X40388600Y-25240200D01*
X40388600Y-26115200D01*
X41138600Y-26115200D01*
X41238600Y-26015200D01*
X41238600Y-25500804D01*
X41223228Y-25423525D01*
X41193076Y-25350729D01*
X41149301Y-25285215D01*
X41093586Y-25229500D01*
X41028071Y-25185725D01*
X40955276Y-25155572D01*
X40877997Y-25140200D01*
X40488600Y-25140200D01*
X40388600Y-25240200D01*
X40288600Y-25240200D01*
X40188600Y-25140200D01*
X39799203Y-25140200D01*
X39721924Y-25155572D01*
X39708650Y-25161070D01*
X39648626Y-25120583D01*
X39530879Y-25071087D01*
X39534068Y-25067898D01*
X40338600Y-25067898D01*
X40394495Y-25063441D01*
X40489300Y-25034081D01*
X40572172Y-24979473D01*
X40636549Y-24903938D01*
X40677334Y-24813459D01*
X40691298Y-24715200D01*
X40691298Y-24497698D01*
X40700516Y-24495020D01*
X40702552Y-24493965D01*
X40704747Y-24493302D01*
X40740335Y-24474380D01*
X40765405Y-24461385D01*
X40780197Y-24464637D01*
X40917640Y-24467516D01*
X41053025Y-24443644D01*
X41181195Y-24393930D01*
X41297267Y-24320268D01*
X41396821Y-24225464D01*
X41476065Y-24113129D01*
X41531981Y-23987541D01*
X41562438Y-23853484D01*
X41564630Y-23696463D01*
X41537928Y-23561608D01*
X41485541Y-23434508D01*
X41409465Y-23320004D01*
X41312596Y-23222457D01*
X41198626Y-23145583D01*
X41071894Y-23092310D01*
X40937229Y-23064667D01*
X40799759Y-23063707D01*
X40664721Y-23089467D01*
X40537258Y-23140965D01*
X40509427Y-23159177D01*
X40505072Y-23157214D01*
X40547172Y-23129473D01*
X40611549Y-23053938D01*
X40652334Y-22963459D01*
X40666298Y-22865200D01*
X40666298Y-21615200D01*
X40661841Y-21559305D01*
X40632481Y-21464500D01*
X40577873Y-21381628D01*
X40502338Y-21317251D01*
X40411859Y-21276466D01*
X40313600Y-21262502D01*
X39313600Y-21262502D01*
X39257705Y-21266959D01*
X39162900Y-21296319D01*
X39080028Y-21350927D01*
X39015651Y-21426462D01*
X38974866Y-21516941D01*
X38960902Y-21615200D01*
X38960902Y-22865200D01*
X38965359Y-22921095D01*
X38994719Y-23015900D01*
X39049327Y-23098772D01*
X39124862Y-23163149D01*
X39147128Y-23173186D01*
X39105028Y-23200927D01*
X39040651Y-23276462D01*
X38999866Y-23366941D01*
X38985902Y-23465200D01*
X38985902Y-24269732D01*
X38738600Y-24517034D01*
X38738600Y-24240200D01*
X38638600Y-24140200D01*
X37888600Y-24140200D01*
X37888600Y-24160200D01*
X37788600Y-24160200D01*
X37788600Y-24140200D01*
X37038600Y-24140200D01*
X36938600Y-24240200D01*
X36938600Y-24754596D01*
X36953107Y-24827527D01*
X36913600Y-24867034D01*
X36913600Y-24015200D01*
X36813600Y-23915200D01*
X35313600Y-23915200D01*
X35313600Y-25140200D01*
X35413600Y-25240200D01*
X36540434Y-25240200D01*
X36193132Y-25587502D01*
X34013600Y-25587502D01*
X33957705Y-25591959D01*
X33862900Y-25621319D01*
X33780028Y-25675927D01*
X33715651Y-25751462D01*
X33674866Y-25841941D01*
X33660902Y-25940200D01*
X33401000Y-25940200D01*
X33401000Y-24015200D01*
X33613600Y-24015200D01*
X33613600Y-24879597D01*
X33628972Y-24956876D01*
X33659125Y-25029671D01*
X33702900Y-25095186D01*
X33758615Y-25150901D01*
X33824129Y-25194676D01*
X33896925Y-25224828D01*
X33974204Y-25240200D01*
X35113600Y-25240200D01*
X35213600Y-25140200D01*
X35213600Y-23915200D01*
X33713600Y-23915200D01*
X33613600Y-24015200D01*
X33401000Y-24015200D01*
X33401000Y-23191329D01*
X33613600Y-23080185D01*
X33613600Y-23715200D01*
X33713600Y-23815200D01*
X35213600Y-23815200D01*
X35213600Y-22590200D01*
X35313600Y-22590200D01*
X35313600Y-23815200D01*
X36813600Y-23815200D01*
X36913600Y-23715200D01*
X36913600Y-22904596D01*
X36928972Y-22981875D01*
X36959124Y-23054671D01*
X37002899Y-23120185D01*
X37058614Y-23175900D01*
X37060772Y-23177342D01*
X37027899Y-23210215D01*
X36984124Y-23275729D01*
X36953972Y-23348525D01*
X36938600Y-23425804D01*
X36938600Y-23940200D01*
X37038600Y-24040200D01*
X37788600Y-24040200D01*
X37788600Y-23165200D01*
X37763600Y-23140200D01*
X37763600Y-22290200D01*
X37863600Y-22290200D01*
X37863600Y-23165200D01*
X37888600Y-23190200D01*
X37888600Y-24040200D01*
X38638600Y-24040200D01*
X38738600Y-23940200D01*
X38738600Y-23425804D01*
X38723228Y-23348525D01*
X38693076Y-23275729D01*
X38649301Y-23210215D01*
X38593586Y-23154500D01*
X38591428Y-23153058D01*
X38624301Y-23120185D01*
X38668076Y-23054671D01*
X38698228Y-22981875D01*
X38713600Y-22904596D01*
X38713600Y-22390200D01*
X38613600Y-22290200D01*
X37863600Y-22290200D01*
X37763600Y-22290200D01*
X37013600Y-22290200D01*
X36913600Y-22390200D01*
X36913600Y-22850803D01*
X36898228Y-22773524D01*
X36868075Y-22700729D01*
X36824300Y-22635214D01*
X36768585Y-22579499D01*
X36703071Y-22535724D01*
X36630275Y-22505572D01*
X36552996Y-22490200D01*
X35413600Y-22490200D01*
X35313600Y-22590200D01*
X35213600Y-22590200D01*
X35113600Y-22490200D01*
X34742136Y-22490200D01*
X36491214Y-21575804D01*
X36913600Y-21575804D01*
X36913600Y-22090200D01*
X37013600Y-22190200D01*
X37763600Y-22190200D01*
X37763600Y-21315200D01*
X37863600Y-21315200D01*
X37863600Y-22190200D01*
X38613600Y-22190200D01*
X38713600Y-22090200D01*
X38713600Y-21575804D01*
X38698228Y-21498525D01*
X38668076Y-21425729D01*
X38624301Y-21360215D01*
X38568586Y-21304500D01*
X38503071Y-21260725D01*
X38430276Y-21230572D01*
X38352997Y-21215200D01*
X37963600Y-21215200D01*
X37863600Y-21315200D01*
X37763600Y-21315200D01*
X37663600Y-21215200D01*
X37274203Y-21215200D01*
X37196924Y-21230572D01*
X37124129Y-21260725D01*
X37058614Y-21304500D01*
X37002899Y-21360215D01*
X36959124Y-21425729D01*
X36928972Y-21498525D01*
X36913600Y-21575804D01*
X36491214Y-21575804D01*
X38162806Y-20701917D01*
X42162600Y-19524714D01*
X42162600Y-25265200D01*
X42162600Y-25265200D01*
G37*
X42162600Y-25265200D02*
X42170237Y-25343088D01*
X42192857Y-25418009D01*
X42202370Y-25435901D01*
X42001890Y-25516900D01*
X41698144Y-25715666D01*
X41438791Y-25969643D01*
X41233708Y-26269159D01*
X41221363Y-26297963D01*
X41138600Y-26215200D01*
X40388600Y-26215200D01*
X40388600Y-27090200D01*
X40488600Y-27190200D01*
X40877997Y-27190200D01*
X40955276Y-27174828D01*
X41012537Y-27151110D01*
X41010167Y-27320837D01*
X41075696Y-27677873D01*
X41209325Y-28015382D01*
X41405965Y-28320508D01*
X41658126Y-28581628D01*
X41956202Y-28788797D01*
X42288842Y-28934123D01*
X42643374Y-29012072D01*
X43006294Y-29019674D01*
X43363779Y-28956640D01*
X43458949Y-28919726D01*
X43449100Y-42403345D01*
X43413604Y-42388424D01*
X43058018Y-42315433D01*
X42695027Y-42312899D01*
X42338457Y-42380918D01*
X42001890Y-42516900D01*
X41698144Y-42715666D01*
X41438791Y-42969643D01*
X41233708Y-43269159D01*
X41090707Y-43602805D01*
X41015235Y-43957873D01*
X41010167Y-44320837D01*
X41075696Y-44677873D01*
X41209325Y-45015382D01*
X41405965Y-45320508D01*
X41658126Y-45581628D01*
X41956202Y-45788797D01*
X42163127Y-45879200D01*
X36665575Y-45879200D01*
X36659465Y-45870004D01*
X36562596Y-45772457D01*
X36448626Y-45695583D01*
X36321894Y-45642310D01*
X36187229Y-45614667D01*
X36049759Y-45613707D01*
X35949599Y-45632814D01*
X35949599Y-45149722D01*
X35952314Y-45140842D01*
X35964788Y-45101519D01*
X36005895Y-45098241D01*
X36100700Y-45068881D01*
X36183572Y-45014273D01*
X36247949Y-44938738D01*
X36288734Y-44848259D01*
X36302698Y-44750000D01*
X36302698Y-43950000D01*
X36298241Y-43894105D01*
X36268881Y-43799300D01*
X36214273Y-43716428D01*
X36138738Y-43652051D01*
X36048259Y-43611266D01*
X35950000Y-43597302D01*
X35050000Y-43597302D01*
X34994105Y-43601759D01*
X34899300Y-43631119D01*
X34816428Y-43685727D01*
X34752051Y-43761262D01*
X34711266Y-43851741D01*
X34697302Y-43950000D01*
X34697302Y-44750000D01*
X34701759Y-44805895D01*
X34731119Y-44900700D01*
X34785727Y-44983572D01*
X34861262Y-45047949D01*
X34951741Y-45088734D01*
X34997599Y-45095251D01*
X34997599Y-46900199D01*
X35001887Y-46943930D01*
X35005722Y-46987760D01*
X35006419Y-46990161D01*
X35006664Y-46992655D01*
X35019385Y-47034787D01*
X35031640Y-47076970D01*
X35032791Y-47079191D01*
X35033515Y-47081588D01*
X35054171Y-47120436D01*
X35074392Y-47159447D01*
X35075952Y-47161401D01*
X35077128Y-47163613D01*
X35104918Y-47197686D01*
X35132349Y-47232050D01*
X35135785Y-47235534D01*
X35135843Y-47235605D01*
X35135909Y-47235660D01*
X35137016Y-47236782D01*
X51087600Y-63187366D01*
X51087600Y-67176705D01*
X51082524Y-67172446D01*
X51081063Y-67171643D01*
X51079776Y-67170578D01*
X51040319Y-67149244D01*
X51001116Y-67127692D01*
X50999528Y-67127188D01*
X50998057Y-67126393D01*
X50993863Y-67125095D01*
X30976000Y-47107232D01*
X30976000Y-45350000D01*
X31150000Y-45350000D01*
X31150000Y-45589397D01*
X31165372Y-45666676D01*
X31195525Y-45739471D01*
X31239300Y-45804986D01*
X31295015Y-45860701D01*
X31360529Y-45904476D01*
X31433325Y-45934628D01*
X31510604Y-45950000D01*
X32050000Y-45950000D01*
X32150000Y-45850000D01*
X32150000Y-45250000D01*
X31250000Y-45250000D01*
X31150000Y-45350000D01*
X30976000Y-45350000D01*
X30976000Y-44850625D01*
X31005895Y-44848241D01*
X31100700Y-44818881D01*
X31155542Y-44782743D01*
X31150000Y-44810603D01*
X31150000Y-45050000D01*
X31250000Y-45150000D01*
X32150000Y-45150000D01*
X32150000Y-44550000D01*
X32250000Y-44550000D01*
X32250000Y-45150000D01*
X32270000Y-45150000D01*
X32270000Y-45250000D01*
X32250000Y-45250000D01*
X32250000Y-45850000D01*
X32350000Y-45950000D01*
X32735968Y-45950000D01*
X32739299Y-45954985D01*
X32795014Y-46010700D01*
X32860529Y-46054475D01*
X32933324Y-46084628D01*
X33010603Y-46100000D01*
X33350000Y-46100000D01*
X33450000Y-46000000D01*
X33450000Y-45350000D01*
X33550000Y-45350000D01*
X33550000Y-46000000D01*
X33650000Y-46100000D01*
X33989397Y-46100000D01*
X34066676Y-46084628D01*
X34139471Y-46054475D01*
X34204986Y-46010700D01*
X34260701Y-45954985D01*
X34304476Y-45889471D01*
X34334628Y-45816675D01*
X34350000Y-45739396D01*
X34350000Y-45450000D01*
X34250000Y-45350000D01*
X33550000Y-45350000D01*
X33450000Y-45350000D01*
X33430000Y-45350000D01*
X33430000Y-45250000D01*
X33450000Y-45250000D01*
X33450000Y-44600000D01*
X33550000Y-44600000D01*
X33550000Y-45250000D01*
X34250000Y-45250000D01*
X34350000Y-45150000D01*
X34350000Y-44860604D01*
X34334628Y-44783325D01*
X34304476Y-44710529D01*
X34260701Y-44645015D01*
X34204986Y-44589300D01*
X34139471Y-44545525D01*
X34066676Y-44515372D01*
X33989397Y-44500000D01*
X33650000Y-44500000D01*
X33550000Y-44600000D01*
X33450000Y-44600000D01*
X33350000Y-44500000D01*
X33046170Y-44500000D01*
X33039471Y-44495524D01*
X32966675Y-44465372D01*
X32889396Y-44450000D01*
X32350000Y-44450000D01*
X32250000Y-44550000D01*
X32150000Y-44550000D01*
X32050000Y-44450000D01*
X31510604Y-44450000D01*
X31433325Y-44465372D01*
X31360529Y-44495524D01*
X31297333Y-44537750D01*
X31302698Y-44500000D01*
X31302698Y-43898036D01*
X31361262Y-43947949D01*
X31451741Y-43988734D01*
X31550000Y-44002698D01*
X32765383Y-44002698D01*
X32785727Y-44033572D01*
X32861262Y-44097949D01*
X32951741Y-44138734D01*
X33050000Y-44152698D01*
X33950000Y-44152698D01*
X34005895Y-44148241D01*
X34100700Y-44118881D01*
X34183572Y-44064273D01*
X34247949Y-43988738D01*
X34288734Y-43898259D01*
X34302698Y-43800000D01*
X34302698Y-43000000D01*
X34298241Y-42944105D01*
X34268881Y-42849300D01*
X34214273Y-42766428D01*
X34138738Y-42702051D01*
X34048259Y-42661266D01*
X33950000Y-42647302D01*
X33050000Y-42647302D01*
X33031479Y-42648779D01*
X32948259Y-42611266D01*
X32850000Y-42597302D01*
X32676000Y-42597302D01*
X32676000Y-37175599D01*
X32864356Y-37142387D01*
X33067855Y-37063455D01*
X33252147Y-36946499D01*
X33410212Y-36795976D01*
X33536030Y-36617617D01*
X33624809Y-36418217D01*
X33673166Y-36205371D01*
X33676647Y-35956065D01*
X33634252Y-35741951D01*
X33551075Y-35540150D01*
X33430286Y-35358348D01*
X33276485Y-35203470D01*
X33095531Y-35081414D01*
X32894315Y-34996831D01*
X32680503Y-34952942D01*
X32462238Y-34951418D01*
X32247834Y-34992318D01*
X32045457Y-35074083D01*
X31862816Y-35193600D01*
X31706867Y-35346316D01*
X31689319Y-35371944D01*
X31680286Y-35358348D01*
X31526485Y-35203470D01*
X31345531Y-35081414D01*
X31144315Y-34996831D01*
X31082880Y-34984220D01*
X33283550Y-32783550D01*
X33307039Y-32754953D01*
X33330871Y-32726552D01*
X33331889Y-32724701D01*
X33333225Y-32723074D01*
X33350718Y-32690449D01*
X33368573Y-32657971D01*
X33369210Y-32655962D01*
X33370207Y-32654103D01*
X33381039Y-32618672D01*
X33392237Y-32583373D01*
X33392472Y-32581278D01*
X33393089Y-32579260D01*
X33396831Y-32542422D01*
X33400961Y-32505599D01*
X33400990Y-32501471D01*
X33400997Y-32501400D01*
X33400991Y-32501333D01*
X33401000Y-32500000D01*
X33401000Y-25940200D01*
X33660902Y-25940200D01*
X33660902Y-27890200D01*
X33665359Y-27946095D01*
X33694719Y-28040900D01*
X33749327Y-28123772D01*
X33824862Y-28188149D01*
X33915341Y-28228934D01*
X34013600Y-28242898D01*
X36513600Y-28242898D01*
X36569495Y-28238441D01*
X36664300Y-28209081D01*
X36747172Y-28154473D01*
X36811549Y-28078938D01*
X36852334Y-27988459D01*
X36866298Y-27890200D01*
X36866298Y-26260668D01*
X37485902Y-25641064D01*
X37485902Y-26790200D01*
X37490359Y-26846095D01*
X37519719Y-26940900D01*
X37574327Y-27023772D01*
X37649862Y-27088149D01*
X37740341Y-27128934D01*
X37838600Y-27142898D01*
X38838600Y-27142898D01*
X38894495Y-27138441D01*
X38989300Y-27109081D01*
X39072172Y-27054473D01*
X39136549Y-26978938D01*
X39177334Y-26888459D01*
X39191298Y-26790200D01*
X39191298Y-26478785D01*
X39192564Y-26477774D01*
X39195757Y-26474625D01*
X39195821Y-26474573D01*
X39195870Y-26474514D01*
X39196899Y-26473499D01*
X39230749Y-26439649D01*
X39367640Y-26442516D01*
X39438600Y-26430004D01*
X39438600Y-26829596D01*
X39453972Y-26906875D01*
X39484124Y-26979671D01*
X39527899Y-27045185D01*
X39583614Y-27100900D01*
X39649129Y-27144675D01*
X39721924Y-27174828D01*
X39799203Y-27190200D01*
X40188600Y-27190200D01*
X40288600Y-27090200D01*
X40288600Y-26215200D01*
X40268600Y-26215200D01*
X40268600Y-26115200D01*
X40288600Y-26115200D01*
X40288600Y-25240200D01*
X40388600Y-25240200D01*
X40388600Y-26115200D01*
X41138600Y-26115200D01*
X41238600Y-26015200D01*
X41238600Y-25500804D01*
X41223228Y-25423525D01*
X41193076Y-25350729D01*
X41149301Y-25285215D01*
X41093586Y-25229500D01*
X41028071Y-25185725D01*
X40955276Y-25155572D01*
X40877997Y-25140200D01*
X40488600Y-25140200D01*
X40388600Y-25240200D01*
X40288600Y-25240200D01*
X40188600Y-25140200D01*
X39799203Y-25140200D01*
X39721924Y-25155572D01*
X39708650Y-25161070D01*
X39648626Y-25120583D01*
X39530879Y-25071087D01*
X39534068Y-25067898D01*
X40338600Y-25067898D01*
X40394495Y-25063441D01*
X40489300Y-25034081D01*
X40572172Y-24979473D01*
X40636549Y-24903938D01*
X40677334Y-24813459D01*
X40691298Y-24715200D01*
X40691298Y-24497698D01*
X40700516Y-24495020D01*
X40702552Y-24493965D01*
X40704747Y-24493302D01*
X40740335Y-24474380D01*
X40765405Y-24461385D01*
X40780197Y-24464637D01*
X40917640Y-24467516D01*
X41053025Y-24443644D01*
X41181195Y-24393930D01*
X41297267Y-24320268D01*
X41396821Y-24225464D01*
X41476065Y-24113129D01*
X41531981Y-23987541D01*
X41562438Y-23853484D01*
X41564630Y-23696463D01*
X41537928Y-23561608D01*
X41485541Y-23434508D01*
X41409465Y-23320004D01*
X41312596Y-23222457D01*
X41198626Y-23145583D01*
X41071894Y-23092310D01*
X40937229Y-23064667D01*
X40799759Y-23063707D01*
X40664721Y-23089467D01*
X40537258Y-23140965D01*
X40509427Y-23159177D01*
X40505072Y-23157214D01*
X40547172Y-23129473D01*
X40611549Y-23053938D01*
X40652334Y-22963459D01*
X40666298Y-22865200D01*
X40666298Y-21615200D01*
X40661841Y-21559305D01*
X40632481Y-21464500D01*
X40577873Y-21381628D01*
X40502338Y-21317251D01*
X40411859Y-21276466D01*
X40313600Y-21262502D01*
X39313600Y-21262502D01*
X39257705Y-21266959D01*
X39162900Y-21296319D01*
X39080028Y-21350927D01*
X39015651Y-21426462D01*
X38974866Y-21516941D01*
X38960902Y-21615200D01*
X38960902Y-22865200D01*
X38965359Y-22921095D01*
X38994719Y-23015900D01*
X39049327Y-23098772D01*
X39124862Y-23163149D01*
X39147128Y-23173186D01*
X39105028Y-23200927D01*
X39040651Y-23276462D01*
X38999866Y-23366941D01*
X38985902Y-23465200D01*
X38985902Y-24269732D01*
X38738600Y-24517034D01*
X38738600Y-24240200D01*
X38638600Y-24140200D01*
X37888600Y-24140200D01*
X37888600Y-24160200D01*
X37788600Y-24160200D01*
X37788600Y-24140200D01*
X37038600Y-24140200D01*
X36938600Y-24240200D01*
X36938600Y-24754596D01*
X36953107Y-24827527D01*
X36913600Y-24867034D01*
X36913600Y-24015200D01*
X36813600Y-23915200D01*
X35313600Y-23915200D01*
X35313600Y-25140200D01*
X35413600Y-25240200D01*
X36540434Y-25240200D01*
X36193132Y-25587502D01*
X34013600Y-25587502D01*
X33957705Y-25591959D01*
X33862900Y-25621319D01*
X33780028Y-25675927D01*
X33715651Y-25751462D01*
X33674866Y-25841941D01*
X33660902Y-25940200D01*
X33401000Y-25940200D01*
X33401000Y-24015200D01*
X33613600Y-24015200D01*
X33613600Y-24879597D01*
X33628972Y-24956876D01*
X33659125Y-25029671D01*
X33702900Y-25095186D01*
X33758615Y-25150901D01*
X33824129Y-25194676D01*
X33896925Y-25224828D01*
X33974204Y-25240200D01*
X35113600Y-25240200D01*
X35213600Y-25140200D01*
X35213600Y-23915200D01*
X33713600Y-23915200D01*
X33613600Y-24015200D01*
X33401000Y-24015200D01*
X33401000Y-23191329D01*
X33613600Y-23080185D01*
X33613600Y-23715200D01*
X33713600Y-23815200D01*
X35213600Y-23815200D01*
X35213600Y-22590200D01*
X35313600Y-22590200D01*
X35313600Y-23815200D01*
X36813600Y-23815200D01*
X36913600Y-23715200D01*
X36913600Y-22904596D01*
X36928972Y-22981875D01*
X36959124Y-23054671D01*
X37002899Y-23120185D01*
X37058614Y-23175900D01*
X37060772Y-23177342D01*
X37027899Y-23210215D01*
X36984124Y-23275729D01*
X36953972Y-23348525D01*
X36938600Y-23425804D01*
X36938600Y-23940200D01*
X37038600Y-24040200D01*
X37788600Y-24040200D01*
X37788600Y-23165200D01*
X37763600Y-23140200D01*
X37763600Y-22290200D01*
X37863600Y-22290200D01*
X37863600Y-23165200D01*
X37888600Y-23190200D01*
X37888600Y-24040200D01*
X38638600Y-24040200D01*
X38738600Y-23940200D01*
X38738600Y-23425804D01*
X38723228Y-23348525D01*
X38693076Y-23275729D01*
X38649301Y-23210215D01*
X38593586Y-23154500D01*
X38591428Y-23153058D01*
X38624301Y-23120185D01*
X38668076Y-23054671D01*
X38698228Y-22981875D01*
X38713600Y-22904596D01*
X38713600Y-22390200D01*
X38613600Y-22290200D01*
X37863600Y-22290200D01*
X37763600Y-22290200D01*
X37013600Y-22290200D01*
X36913600Y-22390200D01*
X36913600Y-22850803D01*
X36898228Y-22773524D01*
X36868075Y-22700729D01*
X36824300Y-22635214D01*
X36768585Y-22579499D01*
X36703071Y-22535724D01*
X36630275Y-22505572D01*
X36552996Y-22490200D01*
X35413600Y-22490200D01*
X35313600Y-22590200D01*
X35213600Y-22590200D01*
X35113600Y-22490200D01*
X34742136Y-22490200D01*
X36491214Y-21575804D01*
X36913600Y-21575804D01*
X36913600Y-22090200D01*
X37013600Y-22190200D01*
X37763600Y-22190200D01*
X37763600Y-21315200D01*
X37863600Y-21315200D01*
X37863600Y-22190200D01*
X38613600Y-22190200D01*
X38713600Y-22090200D01*
X38713600Y-21575804D01*
X38698228Y-21498525D01*
X38668076Y-21425729D01*
X38624301Y-21360215D01*
X38568586Y-21304500D01*
X38503071Y-21260725D01*
X38430276Y-21230572D01*
X38352997Y-21215200D01*
X37963600Y-21215200D01*
X37863600Y-21315200D01*
X37763600Y-21315200D01*
X37663600Y-21215200D01*
X37274203Y-21215200D01*
X37196924Y-21230572D01*
X37124129Y-21260725D01*
X37058614Y-21304500D01*
X37002899Y-21360215D01*
X36959124Y-21425729D01*
X36928972Y-21498525D01*
X36913600Y-21575804D01*
X36491214Y-21575804D01*
X38162806Y-20701917D01*
X42162600Y-19524714D01*
X42162600Y-25265200D01*
M02*
