G04 #@! TF.FileFunction,Legend,Top*
%FSLAX46Y46*%
G04 Gerber Fmt 4.6, Leading zero omitted, Abs format (unit mm)*
G04 Created by KiCad (PCBNEW 4.0.7) date 06/01/18 20:15:47*
%MOMM*%
%LPD*%
G01*
G04 APERTURE LIST*
%ADD10C,0.100000*%
%ADD11C,0.150000*%
%ADD12C,0.120000*%
%ADD13C,0.050000*%
%ADD14C,0.381000*%
%ADD15C,1.524000*%
%ADD16C,3.000000*%
%ADD17R,2.000000X2.000000*%
%ADD18C,4.000000*%
%ADD19R,0.800000X0.600000*%
%ADD20R,0.630000X0.450000*%
%ADD21R,0.850000X1.300000*%
%ADD22R,0.400000X0.300000*%
%ADD23R,0.400000X0.250000*%
%ADD24R,0.250000X0.400000*%
%ADD25R,0.350000X0.650000*%
%ADD26R,0.800000X1.000000*%
%ADD27R,0.400000X1.000000*%
%ADD28R,0.550000X0.950000*%
%ADD29R,0.600000X0.800000*%
%ADD30R,1.000000X1.000000*%
%ADD31O,1.000000X1.000000*%
G04 APERTURE END LIST*
D10*
D11*
X23813600Y-47065200D02*
X23813600Y-42065200D01*
X23813600Y-42065200D02*
X23813600Y-41565200D01*
X23813600Y-41565200D02*
X41313600Y-41565200D01*
X41313600Y-47065200D02*
X41313600Y-41565200D01*
X41313600Y-60065200D02*
X41313600Y-49065200D01*
X24813600Y-61065200D02*
X40313600Y-61065200D01*
X23813600Y-49065200D02*
X23813600Y-60065200D01*
X40313600Y-48065200D02*
X24813600Y-48065200D01*
X40900000Y-80598000D02*
X43150000Y-79299000D01*
X38650000Y-79299000D02*
X40900000Y-80598000D01*
X38650000Y-76701000D02*
X40900000Y-75402000D01*
X40900000Y-75402000D02*
X43150000Y-76701000D01*
X38650000Y-76701000D02*
X38650000Y-79299000D01*
X43150000Y-76701000D02*
X43150000Y-79299000D01*
X80598000Y-59100000D02*
X79299000Y-56850000D01*
X79299000Y-61350000D02*
X80598000Y-59100000D01*
X76701000Y-61350000D02*
X75402000Y-59100000D01*
X75402000Y-59100000D02*
X76701000Y-56850000D01*
X76701000Y-61350000D02*
X79299000Y-61350000D01*
X76701000Y-56850000D02*
X79299000Y-56850000D01*
D12*
X35410000Y-74970000D02*
X34270000Y-74970000D01*
X34270000Y-74970000D02*
X34270000Y-77070000D01*
X35410000Y-74970000D02*
X35410000Y-77070000D01*
D11*
X60138600Y-25340200D02*
X62188600Y-25340200D01*
X59433600Y-22040200D02*
X62188600Y-22040200D01*
D10*
X77638600Y-45990200D02*
G75*
G03X77638600Y-45990200I-100000J0D01*
G01*
D11*
X57663600Y-76840200D02*
X57663600Y-78290200D01*
X59863600Y-76115200D02*
X59863600Y-78290200D01*
X38063600Y-77865200D02*
X38063600Y-75465200D01*
X35863600Y-77865200D02*
X35863600Y-75465200D01*
D12*
X36963600Y-22515200D02*
X36963600Y-22015200D01*
X36963600Y-22015200D02*
X37463600Y-22015200D01*
X41663600Y-22015200D02*
X42163600Y-22015200D01*
X42163600Y-22015200D02*
X42163600Y-22515200D01*
X42163600Y-24815200D02*
X42163600Y-25315200D01*
X42163600Y-25315200D02*
X41663600Y-25315200D01*
X36963600Y-25215200D02*
X36963600Y-24265200D01*
X80030000Y-56600000D02*
X81170000Y-56600000D01*
X81170000Y-56600000D02*
X81170000Y-54500000D01*
X80030000Y-56600000D02*
X80030000Y-54500000D01*
X57700000Y-20930000D02*
X57700000Y-22070000D01*
X57700000Y-22070000D02*
X59800000Y-22070000D01*
X57700000Y-20930000D02*
X59800000Y-20930000D01*
X19030000Y-45000000D02*
X20170000Y-45000000D01*
X20170000Y-45000000D02*
X20170000Y-42900000D01*
X19030000Y-45000000D02*
X19030000Y-42900000D01*
X54085000Y-76610000D02*
X54085000Y-75807530D01*
X54085000Y-75192470D02*
X54085000Y-74390000D01*
X45260000Y-76610000D02*
X54085000Y-76610000D01*
X45260000Y-74390000D02*
X54085000Y-74390000D01*
X45260000Y-76610000D02*
X45260000Y-76063471D01*
X45260000Y-74936529D02*
X45260000Y-74390000D01*
X44500000Y-76610000D02*
X43740000Y-76610000D01*
X43740000Y-76610000D02*
X43740000Y-75500000D01*
X62890000Y-44505000D02*
X63692470Y-44505000D01*
X64307530Y-44505000D02*
X65110000Y-44505000D01*
X62890000Y-40760000D02*
X62890000Y-44505000D01*
X65110000Y-40760000D02*
X65110000Y-44505000D01*
X62890000Y-40760000D02*
X63436529Y-40760000D01*
X64563471Y-40760000D02*
X65110000Y-40760000D01*
X62890000Y-40000000D02*
X62890000Y-39240000D01*
X62890000Y-39240000D02*
X64000000Y-39240000D01*
D11*
X24598000Y-40900000D02*
X23299000Y-38650000D01*
X23299000Y-43150000D02*
X24598000Y-40900000D01*
X20701000Y-43150000D02*
X19402000Y-40900000D01*
X19402000Y-40900000D02*
X20701000Y-38650000D01*
X20701000Y-43150000D02*
X23299000Y-43150000D01*
X20701000Y-38650000D02*
X23299000Y-38650000D01*
X31301695Y-54517581D02*
X31301695Y-55327105D01*
X31349314Y-55422343D01*
X31396933Y-55469962D01*
X31492171Y-55517581D01*
X31682648Y-55517581D01*
X31777886Y-55469962D01*
X31825505Y-55422343D01*
X31873124Y-55327105D01*
X31873124Y-54517581D01*
X32825505Y-54517581D02*
X32349314Y-54517581D01*
X32301695Y-54993771D01*
X32349314Y-54946152D01*
X32444552Y-54898533D01*
X32682648Y-54898533D01*
X32777886Y-54946152D01*
X32825505Y-54993771D01*
X32873124Y-55089010D01*
X32873124Y-55327105D01*
X32825505Y-55422343D01*
X32777886Y-55469962D01*
X32682648Y-55517581D01*
X32444552Y-55517581D01*
X32349314Y-55469962D01*
X32301695Y-55422343D01*
X39566667Y-81952381D02*
X39233333Y-81476190D01*
X38995238Y-81952381D02*
X38995238Y-80952381D01*
X39376191Y-80952381D01*
X39471429Y-81000000D01*
X39519048Y-81047619D01*
X39566667Y-81142857D01*
X39566667Y-81285714D01*
X39519048Y-81380952D01*
X39471429Y-81428571D01*
X39376191Y-81476190D01*
X38995238Y-81476190D01*
X39995238Y-81428571D02*
X40328572Y-81428571D01*
X40471429Y-81952381D02*
X39995238Y-81952381D01*
X39995238Y-80952381D01*
X40471429Y-80952381D01*
X41233334Y-81428571D02*
X40900000Y-81428571D01*
X40900000Y-81952381D02*
X40900000Y-80952381D01*
X41376191Y-80952381D01*
X41900000Y-80952381D02*
X41900000Y-81190476D01*
X41661905Y-81095238D02*
X41900000Y-81190476D01*
X42138096Y-81095238D01*
X41757143Y-81380952D02*
X41900000Y-81190476D01*
X42042858Y-81380952D01*
X42661905Y-80952381D02*
X42661905Y-81190476D01*
X42423810Y-81095238D02*
X42661905Y-81190476D01*
X42900001Y-81095238D01*
X42519048Y-81380952D02*
X42661905Y-81190476D01*
X42804763Y-81380952D01*
X81952381Y-60433333D02*
X81476190Y-60766667D01*
X81952381Y-61004762D02*
X80952381Y-61004762D01*
X80952381Y-60623809D01*
X81000000Y-60528571D01*
X81047619Y-60480952D01*
X81142857Y-60433333D01*
X81285714Y-60433333D01*
X81380952Y-60480952D01*
X81428571Y-60528571D01*
X81476190Y-60623809D01*
X81476190Y-61004762D01*
X81428571Y-60004762D02*
X81428571Y-59671428D01*
X81952381Y-59528571D02*
X81952381Y-60004762D01*
X80952381Y-60004762D01*
X80952381Y-59528571D01*
X81428571Y-58766666D02*
X81428571Y-59100000D01*
X81952381Y-59100000D02*
X80952381Y-59100000D01*
X80952381Y-58623809D01*
X80952381Y-58100000D02*
X81190476Y-58100000D01*
X81095238Y-58338095D02*
X81190476Y-58100000D01*
X81095238Y-57861904D01*
X81380952Y-58242857D02*
X81190476Y-58100000D01*
X81380952Y-57957142D01*
X80952381Y-57338095D02*
X81190476Y-57338095D01*
X81095238Y-57576190D02*
X81190476Y-57338095D01*
X81095238Y-57099999D01*
X81380952Y-57480952D02*
X81190476Y-57338095D01*
X81380952Y-57195237D01*
X36692381Y-77008095D02*
X35692381Y-77008095D01*
X35692381Y-76770000D01*
X35740000Y-76627142D01*
X35835238Y-76531904D01*
X35930476Y-76484285D01*
X36120952Y-76436666D01*
X36263810Y-76436666D01*
X36454286Y-76484285D01*
X36549524Y-76531904D01*
X36644762Y-76627142D01*
X36692381Y-76770000D01*
X36692381Y-77008095D01*
X36692381Y-75484285D02*
X36692381Y-76055714D01*
X36692381Y-75770000D02*
X35692381Y-75770000D01*
X35835238Y-75865238D01*
X35930476Y-75960476D01*
X35978095Y-76055714D01*
X60425505Y-21567581D02*
X60425505Y-20567581D01*
X60996934Y-21567581D02*
X60568362Y-20996152D01*
X60996934Y-20567581D02*
X60425505Y-21139010D01*
X61949315Y-21567581D02*
X61377886Y-21567581D01*
X61663600Y-21567581D02*
X61663600Y-20567581D01*
X61568362Y-20710438D01*
X61473124Y-20805676D01*
X61377886Y-20853295D01*
D13*
X78012245Y-45150608D02*
X78012245Y-45345623D01*
X78023717Y-45368566D01*
X78035188Y-45380037D01*
X78058131Y-45391509D01*
X78104017Y-45391509D01*
X78126960Y-45380037D01*
X78138432Y-45368566D01*
X78149903Y-45345623D01*
X78149903Y-45150608D01*
X78390804Y-45391509D02*
X78253146Y-45391509D01*
X78321975Y-45391509D02*
X78321975Y-45150608D01*
X78299032Y-45185022D01*
X78276089Y-45207965D01*
X78253146Y-45219436D01*
X77272557Y-48400473D02*
X77157996Y-48400473D01*
X77157996Y-48159895D01*
X77341294Y-48389017D02*
X77375663Y-48400473D01*
X77432943Y-48400473D01*
X77455855Y-48389017D01*
X77467311Y-48377561D01*
X77478768Y-48354649D01*
X77478768Y-48331736D01*
X77467311Y-48308824D01*
X77455855Y-48297368D01*
X77432943Y-48285912D01*
X77387119Y-48274456D01*
X77364207Y-48263000D01*
X77352750Y-48251544D01*
X77341294Y-48228631D01*
X77341294Y-48205719D01*
X77352750Y-48182807D01*
X77364207Y-48171351D01*
X77387119Y-48159895D01*
X77444399Y-48159895D01*
X77478768Y-48171351D01*
X77581872Y-48400473D02*
X77581872Y-48159895D01*
X77662065Y-48331736D01*
X77742258Y-48159895D01*
X77742258Y-48400473D01*
X77833906Y-48159895D02*
X77982836Y-48159895D01*
X77902643Y-48251544D01*
X77937011Y-48251544D01*
X77959923Y-48263000D01*
X77971379Y-48274456D01*
X77982836Y-48297368D01*
X77982836Y-48354649D01*
X77971379Y-48377561D01*
X77959923Y-48389017D01*
X77937011Y-48400473D01*
X77868275Y-48400473D01*
X77845362Y-48389017D01*
X77833906Y-48377561D01*
X78131765Y-48159895D02*
X78154677Y-48159895D01*
X78177589Y-48171351D01*
X78189045Y-48182807D01*
X78200501Y-48205719D01*
X78211958Y-48251544D01*
X78211958Y-48308824D01*
X78200501Y-48354649D01*
X78189045Y-48377561D01*
X78177589Y-48389017D01*
X78154677Y-48400473D01*
X78131765Y-48400473D01*
X78108853Y-48389017D01*
X78097397Y-48377561D01*
X78085940Y-48354649D01*
X78074484Y-48308824D01*
X78074484Y-48251544D01*
X78085940Y-48205719D01*
X78097397Y-48182807D01*
X78108853Y-48171351D01*
X78131765Y-48159895D01*
X78292150Y-48159895D02*
X78441080Y-48159895D01*
X78360887Y-48251544D01*
X78395255Y-48251544D01*
X78418167Y-48263000D01*
X78429623Y-48274456D01*
X78441080Y-48297368D01*
X78441080Y-48354649D01*
X78429623Y-48377561D01*
X78418167Y-48389017D01*
X78395255Y-48400473D01*
X78326519Y-48400473D01*
X78303606Y-48389017D01*
X78292150Y-48377561D01*
X78532728Y-48331736D02*
X78647289Y-48331736D01*
X78509816Y-48400473D02*
X78590009Y-48159895D01*
X78670202Y-48400473D01*
X78876412Y-48171351D02*
X78853499Y-48159895D01*
X78819131Y-48159895D01*
X78784763Y-48171351D01*
X78761851Y-48194263D01*
X78750394Y-48217175D01*
X78738938Y-48263000D01*
X78738938Y-48297368D01*
X78750394Y-48343192D01*
X78761851Y-48366105D01*
X78784763Y-48389017D01*
X78819131Y-48400473D01*
X78842043Y-48400473D01*
X78876412Y-48389017D01*
X78887868Y-48377561D01*
X78887868Y-48297368D01*
X78842043Y-48297368D01*
X79128446Y-48400473D02*
X79048253Y-48285912D01*
X78990972Y-48400473D02*
X78990972Y-48159895D01*
X79082621Y-48159895D01*
X79105533Y-48171351D01*
X79116990Y-48182807D01*
X79128446Y-48205719D01*
X79128446Y-48240088D01*
X79116990Y-48263000D01*
X79105533Y-48274456D01*
X79082621Y-48285912D01*
X78990972Y-48285912D01*
X79197182Y-48159895D02*
X79334655Y-48159895D01*
X79265919Y-48400473D02*
X79265919Y-48159895D01*
X79552322Y-48400473D02*
X79472129Y-48285912D01*
X79414848Y-48400473D02*
X79414848Y-48159895D01*
X79506497Y-48159895D01*
X79529409Y-48171351D01*
X79540866Y-48182807D01*
X79552322Y-48205719D01*
X79552322Y-48240088D01*
X79540866Y-48263000D01*
X79529409Y-48274456D01*
X79506497Y-48285912D01*
X79414848Y-48285912D01*
D11*
X60240981Y-78327105D02*
X61050505Y-78327105D01*
X61145743Y-78279486D01*
X61193362Y-78231867D01*
X61240981Y-78136629D01*
X61240981Y-77946152D01*
X61193362Y-77850914D01*
X61145743Y-77803295D01*
X61050505Y-77755676D01*
X60240981Y-77755676D01*
X60336219Y-77327105D02*
X60288600Y-77279486D01*
X60240981Y-77184248D01*
X60240981Y-76946152D01*
X60288600Y-76850914D01*
X60336219Y-76803295D01*
X60431457Y-76755676D01*
X60526695Y-76755676D01*
X60669552Y-76803295D01*
X61240981Y-77374724D01*
X61240981Y-76755676D01*
X34615981Y-77427105D02*
X35425505Y-77427105D01*
X35520743Y-77379486D01*
X35568362Y-77331867D01*
X35615981Y-77236629D01*
X35615981Y-77046152D01*
X35568362Y-76950914D01*
X35520743Y-76903295D01*
X35425505Y-76855676D01*
X34615981Y-76855676D01*
X34615981Y-76474724D02*
X34615981Y-75855676D01*
X34996933Y-76189010D01*
X34996933Y-76046152D01*
X35044552Y-75950914D01*
X35092171Y-75903295D01*
X35187410Y-75855676D01*
X35425505Y-75855676D01*
X35520743Y-75903295D01*
X35568362Y-75950914D01*
X35615981Y-76046152D01*
X35615981Y-76331867D01*
X35568362Y-76427105D01*
X35520743Y-76474724D01*
X35365981Y-24427105D02*
X36175505Y-24427105D01*
X36270743Y-24379486D01*
X36318362Y-24331867D01*
X36365981Y-24236629D01*
X36365981Y-24046152D01*
X36318362Y-23950914D01*
X36270743Y-23903295D01*
X36175505Y-23855676D01*
X35365981Y-23855676D01*
X35365981Y-22950914D02*
X35365981Y-23141391D01*
X35413600Y-23236629D01*
X35461219Y-23284248D01*
X35604076Y-23379486D01*
X35794552Y-23427105D01*
X36175505Y-23427105D01*
X36270743Y-23379486D01*
X36318362Y-23331867D01*
X36365981Y-23236629D01*
X36365981Y-23046152D01*
X36318362Y-22950914D01*
X36270743Y-22903295D01*
X36175505Y-22855676D01*
X35937410Y-22855676D01*
X35842171Y-22903295D01*
X35794552Y-22950914D01*
X35746933Y-23046152D01*
X35746933Y-23236629D01*
X35794552Y-23331867D01*
X35842171Y-23379486D01*
X35937410Y-23427105D01*
X79652381Y-56038095D02*
X78652381Y-56038095D01*
X78652381Y-55800000D01*
X78700000Y-55657142D01*
X78795238Y-55561904D01*
X78890476Y-55514285D01*
X79080952Y-55466666D01*
X79223810Y-55466666D01*
X79414286Y-55514285D01*
X79509524Y-55561904D01*
X79604762Y-55657142D01*
X79652381Y-55800000D01*
X79652381Y-56038095D01*
X78747619Y-55085714D02*
X78700000Y-55038095D01*
X78652381Y-54942857D01*
X78652381Y-54704761D01*
X78700000Y-54609523D01*
X78747619Y-54561904D01*
X78842857Y-54514285D01*
X78938095Y-54514285D01*
X79080952Y-54561904D01*
X79652381Y-55133333D01*
X79652381Y-54514285D01*
X58261905Y-20552381D02*
X58261905Y-19552381D01*
X58500000Y-19552381D01*
X58642858Y-19600000D01*
X58738096Y-19695238D01*
X58785715Y-19790476D01*
X58833334Y-19980952D01*
X58833334Y-20123810D01*
X58785715Y-20314286D01*
X58738096Y-20409524D01*
X58642858Y-20504762D01*
X58500000Y-20552381D01*
X58261905Y-20552381D01*
X59166667Y-19552381D02*
X59785715Y-19552381D01*
X59452381Y-19933333D01*
X59595239Y-19933333D01*
X59690477Y-19980952D01*
X59738096Y-20028571D01*
X59785715Y-20123810D01*
X59785715Y-20361905D01*
X59738096Y-20457143D01*
X59690477Y-20504762D01*
X59595239Y-20552381D01*
X59309524Y-20552381D01*
X59214286Y-20504762D01*
X59166667Y-20457143D01*
X18652381Y-44438095D02*
X17652381Y-44438095D01*
X17652381Y-44200000D01*
X17700000Y-44057142D01*
X17795238Y-43961904D01*
X17890476Y-43914285D01*
X18080952Y-43866666D01*
X18223810Y-43866666D01*
X18414286Y-43914285D01*
X18509524Y-43961904D01*
X18604762Y-44057142D01*
X18652381Y-44200000D01*
X18652381Y-44438095D01*
X17985714Y-43009523D02*
X18652381Y-43009523D01*
X17604762Y-43247619D02*
X18319048Y-43485714D01*
X18319048Y-42866666D01*
X42257381Y-75833333D02*
X42971667Y-75833333D01*
X43114524Y-75880953D01*
X43209762Y-75976191D01*
X43257381Y-76119048D01*
X43257381Y-76214286D01*
X43257381Y-74833333D02*
X43257381Y-75404762D01*
X43257381Y-75119048D02*
X42257381Y-75119048D01*
X42400238Y-75214286D01*
X42495476Y-75309524D01*
X42543095Y-75404762D01*
X63666667Y-37757381D02*
X63666667Y-38471667D01*
X63619047Y-38614524D01*
X63523809Y-38709762D01*
X63380952Y-38757381D01*
X63285714Y-38757381D01*
X64095238Y-37852619D02*
X64142857Y-37805000D01*
X64238095Y-37757381D01*
X64476191Y-37757381D01*
X64571429Y-37805000D01*
X64619048Y-37852619D01*
X64666667Y-37947857D01*
X64666667Y-38043095D01*
X64619048Y-38185952D01*
X64047619Y-38757381D01*
X64666667Y-38757381D01*
X25952381Y-42233333D02*
X25476190Y-42566667D01*
X25952381Y-42804762D02*
X24952381Y-42804762D01*
X24952381Y-42423809D01*
X25000000Y-42328571D01*
X25047619Y-42280952D01*
X25142857Y-42233333D01*
X25285714Y-42233333D01*
X25380952Y-42280952D01*
X25428571Y-42328571D01*
X25476190Y-42423809D01*
X25476190Y-42804762D01*
X25428571Y-41804762D02*
X25428571Y-41471428D01*
X25952381Y-41328571D02*
X25952381Y-41804762D01*
X24952381Y-41804762D01*
X24952381Y-41328571D01*
X25428571Y-40566666D02*
X25428571Y-40900000D01*
X25952381Y-40900000D02*
X24952381Y-40900000D01*
X24952381Y-40423809D01*
X24952381Y-39900000D02*
X25190476Y-39900000D01*
X25095238Y-40138095D02*
X25190476Y-39900000D01*
X25095238Y-39661904D01*
X25380952Y-40042857D02*
X25190476Y-39900000D01*
X25380952Y-39757142D01*
X24952381Y-39138095D02*
X25190476Y-39138095D01*
X25095238Y-39376190D02*
X25190476Y-39138095D01*
X25095238Y-38899999D01*
X25380952Y-39280952D02*
X25190476Y-39138095D01*
X25380952Y-38995237D01*
%LPC*%
D14*
G36*
X77817360Y-45730200D02*
X78338600Y-45730200D01*
X78338600Y-46149544D01*
X77817360Y-46149544D01*
X77817360Y-45730200D01*
G37*
X77817360Y-45730200D02*
X78338600Y-45730200D01*
X78338600Y-46149544D01*
X77817360Y-46149544D01*
X77817360Y-45730200D01*
G36*
X77814120Y-46230200D02*
X78338600Y-46230200D01*
X78338600Y-46650024D01*
X77814120Y-46650024D01*
X77814120Y-46230200D01*
G37*
X77814120Y-46230200D02*
X78338600Y-46230200D01*
X78338600Y-46650024D01*
X77814120Y-46650024D01*
X77814120Y-46230200D01*
G36*
X77815700Y-46730200D02*
X78338600Y-46730200D01*
X78338600Y-47151510D01*
X77815700Y-47151510D01*
X77815700Y-46730200D01*
G37*
X77815700Y-46730200D02*
X78338600Y-46730200D01*
X78338600Y-47151510D01*
X77815700Y-47151510D01*
X77815700Y-46730200D01*
G36*
X77816060Y-47230200D02*
X78338600Y-47230200D01*
X78338600Y-47652583D01*
X77816060Y-47652583D01*
X77816060Y-47230200D01*
G37*
X77816060Y-47230200D02*
X78338600Y-47230200D01*
X78338600Y-47652583D01*
X77816060Y-47652583D01*
X77816060Y-47230200D01*
G36*
X79346031Y-45730200D02*
X79863600Y-45730200D01*
X79863600Y-46147600D01*
X79346031Y-46147600D01*
X79346031Y-45730200D01*
G37*
X79346031Y-45730200D02*
X79863600Y-45730200D01*
X79863600Y-46147600D01*
X79346031Y-46147600D01*
X79346031Y-45730200D01*
G36*
X79344483Y-46230200D02*
X79863600Y-46230200D01*
X79863600Y-46650130D01*
X79344483Y-46650130D01*
X79344483Y-46230200D01*
G37*
X79344483Y-46230200D02*
X79863600Y-46230200D01*
X79863600Y-46650130D01*
X79344483Y-46650130D01*
X79344483Y-46230200D01*
G36*
X79344343Y-46730200D02*
X79863600Y-46730200D01*
X79863600Y-47150877D01*
X79344343Y-47150877D01*
X79344343Y-46730200D01*
G37*
X79344343Y-46730200D02*
X79863600Y-46730200D01*
X79863600Y-47150877D01*
X79344343Y-47150877D01*
X79344343Y-46730200D01*
G36*
X79345435Y-47230200D02*
X79863600Y-47230200D01*
X79863600Y-47653689D01*
X79345435Y-47653689D01*
X79345435Y-47230200D01*
G37*
X79345435Y-47230200D02*
X79863600Y-47230200D01*
X79863600Y-47653689D01*
X79345435Y-47653689D01*
X79345435Y-47230200D01*
G36*
X78377703Y-45670200D02*
X78798600Y-45670200D01*
X78798600Y-46189225D01*
X78377703Y-46189225D01*
X78377703Y-45670200D01*
G37*
X78377703Y-45670200D02*
X78798600Y-45670200D01*
X78798600Y-46189225D01*
X78377703Y-46189225D01*
X78377703Y-45670200D01*
G36*
X78878696Y-45670200D02*
X79298600Y-45670200D01*
X79298600Y-46188999D01*
X78878696Y-46188999D01*
X78878696Y-45670200D01*
G37*
X78878696Y-45670200D02*
X79298600Y-45670200D01*
X79298600Y-46188999D01*
X78878696Y-46188999D01*
X78878696Y-45670200D01*
G36*
X78376944Y-47190200D02*
X78798600Y-47190200D01*
X78798600Y-47713870D01*
X78376944Y-47713870D01*
X78376944Y-47190200D01*
G37*
X78376944Y-47190200D02*
X78798600Y-47190200D01*
X78798600Y-47713870D01*
X78376944Y-47713870D01*
X78376944Y-47190200D01*
G36*
X78878764Y-47190200D02*
X79298600Y-47190200D01*
X79298600Y-47714390D01*
X78878764Y-47714390D01*
X78878764Y-47190200D01*
G37*
X78878764Y-47190200D02*
X79298600Y-47190200D01*
X79298600Y-47714390D01*
X78878764Y-47714390D01*
X78878764Y-47190200D01*
D15*
X44393600Y-48205200D03*
X49473600Y-48205200D03*
D16*
X56863600Y-27165200D03*
X42863600Y-27165200D03*
X42863600Y-44165200D03*
X56863600Y-44165200D03*
D15*
X46933600Y-48205200D03*
X29063600Y-36065200D03*
X27313600Y-36065200D03*
X30813600Y-36065200D03*
D17*
X41313600Y-61065200D03*
X23813600Y-61065200D03*
X23813600Y-48065200D03*
X41313600Y-48065200D03*
D15*
X32563600Y-36065200D03*
D18*
X40900000Y-78000000D03*
X78000000Y-59100000D03*
D19*
X34840000Y-75420000D03*
X34840000Y-77120000D03*
D20*
X59823600Y-22740200D03*
X59823600Y-23690200D03*
X59823600Y-24640200D03*
X62503600Y-24640200D03*
X62503600Y-23690200D03*
X62503600Y-22740200D03*
D21*
X61588600Y-24340200D03*
X61588600Y-23040200D03*
X60738600Y-24340200D03*
X60738600Y-23040200D03*
D22*
X78038600Y-45900200D03*
D23*
X78043600Y-46440200D03*
X78043600Y-46940200D03*
D22*
X78038600Y-47480200D03*
D24*
X78588600Y-47520200D03*
X79088600Y-47520200D03*
D22*
X79638600Y-47480200D03*
D23*
X79633600Y-46940200D03*
X79633600Y-46440200D03*
D22*
X79638600Y-45900200D03*
D24*
X79088600Y-45860200D03*
X78588600Y-45860200D03*
D25*
X59413600Y-76515200D03*
X58763600Y-76515200D03*
X58113600Y-76515200D03*
X58113600Y-78615200D03*
X58763600Y-78615200D03*
X59413600Y-78615200D03*
D26*
X58363600Y-77565200D03*
X59163600Y-77565200D03*
D27*
X36363600Y-75615200D03*
X36963600Y-75615200D03*
X36363600Y-77715200D03*
X36963600Y-77715200D03*
X37563600Y-77715200D03*
X37563600Y-75615200D03*
D28*
X41438600Y-24740200D03*
X37688600Y-24740200D03*
X38938600Y-24740200D03*
X40188600Y-24740200D03*
X37688600Y-22590200D03*
X38938600Y-22590200D03*
X40188600Y-22590200D03*
X41438600Y-22590200D03*
D19*
X80600000Y-56150000D03*
X80600000Y-54450000D03*
D29*
X58150000Y-21500000D03*
X59850000Y-21500000D03*
D19*
X19600000Y-44550000D03*
X19600000Y-42850000D03*
D30*
X44500000Y-75500000D03*
D31*
X45770000Y-75500000D03*
X47040000Y-75500000D03*
X48310000Y-75500000D03*
X49580000Y-75500000D03*
X50850000Y-75500000D03*
X52120000Y-75500000D03*
X53390000Y-75500000D03*
D30*
X64000000Y-40000000D03*
D31*
X64000000Y-41270000D03*
X64000000Y-42540000D03*
X64000000Y-43810000D03*
D18*
X22000000Y-40900000D03*
M02*
