G04 #@! TF.FileFunction,Paste,Top*
%FSLAX46Y46*%
G04 Gerber Fmt 4.6, Leading zero omitted, Abs format (unit mm)*
G04 Created by KiCad (PCBNEW 4.0.7) date 06/01/18 20:15:47*
%MOMM*%
%LPD*%
G01*
G04 APERTURE LIST*
%ADD10C,0.100000*%
%ADD11R,0.800000X0.600000*%
%ADD12R,0.630000X0.450000*%
%ADD13R,0.510000X0.780000*%
%ADD14R,0.400000X0.300000*%
%ADD15R,0.400000X0.250000*%
%ADD16R,0.250000X0.400000*%
%ADD17R,0.350000X0.650000*%
%ADD18R,0.480000X0.600000*%
%ADD19R,0.400000X1.000000*%
%ADD20R,0.550000X0.950000*%
%ADD21R,0.600000X0.800000*%
G04 APERTURE END LIST*
D10*
D11*
X34840000Y-75420000D03*
X34840000Y-77120000D03*
D12*
X59823600Y-22740200D03*
X59823600Y-23690200D03*
X59823600Y-24640200D03*
X62503600Y-24640200D03*
X62503600Y-23690200D03*
X62503600Y-22740200D03*
D13*
X61588600Y-24340200D03*
X61588600Y-23040200D03*
X60738600Y-24340200D03*
X60738600Y-23040200D03*
D14*
X78038600Y-45900200D03*
D15*
X78043600Y-46440200D03*
X78043600Y-46940200D03*
D14*
X78038600Y-47480200D03*
D16*
X78588600Y-47520200D03*
X79088600Y-47520200D03*
D14*
X79638600Y-47480200D03*
D15*
X79633600Y-46940200D03*
X79633600Y-46440200D03*
D14*
X79638600Y-45900200D03*
D16*
X79088600Y-45860200D03*
X78588600Y-45860200D03*
D17*
X59413600Y-76515200D03*
X58763600Y-76515200D03*
X58113600Y-76515200D03*
X58113600Y-78615200D03*
X58763600Y-78615200D03*
X59413600Y-78615200D03*
D18*
X58363600Y-77565200D03*
X59163600Y-77565200D03*
D19*
X36363600Y-75615200D03*
X36963600Y-75615200D03*
X36363600Y-77715200D03*
X36963600Y-77715200D03*
X37563600Y-77715200D03*
X37563600Y-75615200D03*
D20*
X41438600Y-24740200D03*
X37688600Y-24740200D03*
X38938600Y-24740200D03*
X40188600Y-24740200D03*
X37688600Y-22590200D03*
X38938600Y-22590200D03*
X40188600Y-22590200D03*
X41438600Y-22590200D03*
D11*
X80600000Y-56150000D03*
X80600000Y-54450000D03*
D21*
X58150000Y-21500000D03*
X59850000Y-21500000D03*
D11*
X19600000Y-44550000D03*
X19600000Y-42850000D03*
M02*
