G04 #@! TF.FileFunction,Paste,Bot*
%FSLAX46Y46*%
G04 Gerber Fmt 4.6, Leading zero omitted, Abs format (unit mm)*
G04 Created by KiCad (PCBNEW 4.0.7) date 06/01/18 20:15:47*
%MOMM*%
%LPD*%
G01*
G04 APERTURE LIST*
%ADD10C,0.100000*%
%ADD11R,0.900000X0.800000*%
%ADD12R,1.000000X1.250000*%
%ADD13R,1.250000X1.000000*%
%ADD14R,2.500000X1.950000*%
%ADD15R,1.950000X2.500000*%
%ADD16R,1.300000X0.700000*%
%ADD17R,0.700000X1.300000*%
G04 APERTURE END LIST*
D10*
D11*
X28500000Y-45050000D03*
X28500000Y-43150000D03*
X30500000Y-44100000D03*
D12*
X79913600Y-46990200D03*
X77913600Y-46990200D03*
D13*
X37063600Y-77665200D03*
X37063600Y-75665200D03*
D12*
X77913600Y-48840200D03*
X79913600Y-48840200D03*
D14*
X58563600Y-77990200D03*
X58563600Y-74940200D03*
D12*
X38338600Y-26165200D03*
X40338600Y-26165200D03*
D15*
X76413600Y-51515200D03*
X79463600Y-51515200D03*
D12*
X79438600Y-45140200D03*
X77438600Y-45140200D03*
X60238600Y-23765200D03*
X62238600Y-23765200D03*
X39838600Y-24090200D03*
X37838600Y-24090200D03*
X39813600Y-22240200D03*
X37813600Y-22240200D03*
D14*
X35263600Y-23865200D03*
X35263600Y-26915200D03*
D11*
X33500000Y-45300000D03*
X33500000Y-43400000D03*
X35500000Y-44350000D03*
D16*
X65913600Y-47390200D03*
X65913600Y-45490200D03*
D17*
X61010000Y-78030000D03*
X62910000Y-78030000D03*
X61013600Y-76465200D03*
X62913600Y-76465200D03*
X51563600Y-72515200D03*
X53463600Y-72515200D03*
D16*
X32200000Y-43300000D03*
X32200000Y-45200000D03*
D17*
X50813600Y-70690200D03*
X52713600Y-70690200D03*
D16*
X26700000Y-43100000D03*
X26700000Y-45000000D03*
D17*
X67788600Y-41265200D03*
X65888600Y-41265200D03*
X60313600Y-42540200D03*
X62213600Y-42540200D03*
X60313600Y-45815200D03*
X62213600Y-45815200D03*
D15*
X42810000Y-73420000D03*
X45860000Y-73420000D03*
M02*
