G04 #@! TF.FileFunction,Legend,Top*
%FSLAX46Y46*%
G04 Gerber Fmt 4.6, Leading zero omitted, Abs format (unit mm)*
G04 Created by KiCad (PCBNEW 4.0.7) date 02/03/18 21:49:53*
%MOMM*%
%LPD*%
G01*
G04 APERTURE LIST*
%ADD10C,0.100000*%
%ADD11C,0.120000*%
%ADD12C,0.127000*%
%ADD13C,0.200000*%
%ADD14C,0.150000*%
%ADD15C,0.050000*%
%ADD16C,0.381000*%
%ADD17R,0.300000X0.400000*%
%ADD18R,0.250000X0.400000*%
%ADD19R,0.400000X0.250000*%
%ADD20R,0.800000X0.600000*%
%ADD21R,0.400000X0.300000*%
%ADD22R,1.300000X0.700000*%
%ADD23R,1.970000X0.600000*%
%ADD24R,1.000000X1.250000*%
%ADD25R,0.800000X0.750000*%
%ADD26R,1.700000X1.700000*%
%ADD27O,1.700000X1.700000*%
%ADD28C,1.000000*%
%ADD29R,1.000000X1.000000*%
%ADD30R,0.600000X1.970000*%
%ADD31C,0.700000*%
G04 APERTURE END LIST*
D10*
X16403400Y-29453800D02*
G75*
G03X16403400Y-29453800I-100000J0D01*
G01*
D11*
X25820000Y-27590000D02*
X26960000Y-27590000D01*
X26960000Y-27590000D02*
X26960000Y-25490000D01*
X25820000Y-27590000D02*
X25820000Y-25490000D01*
D12*
X25400000Y-22200000D02*
X25300000Y-22200000D01*
X25300000Y-22200000D02*
X25300000Y-22600000D01*
X27200000Y-24200000D02*
X27300000Y-24200000D01*
X27300000Y-24200000D02*
X27300000Y-23800000D01*
X27300000Y-22200000D02*
X27300000Y-22600000D01*
X25400000Y-24200000D02*
X25300000Y-24200000D01*
X25300000Y-23800000D02*
X25300000Y-24200000D01*
X27300000Y-22200000D02*
X27200000Y-22200000D01*
D13*
X25000000Y-22900000D02*
G75*
G03X25000000Y-22900000I-100000J0D01*
G01*
D11*
X25553600Y-29985200D02*
X25553600Y-28785200D01*
X27313600Y-28785200D02*
X27313600Y-29985200D01*
D10*
X23105000Y-23525000D02*
G75*
G03X23105000Y-23525000I-200000J0D01*
G01*
D12*
X20590000Y-23510000D02*
X16590000Y-23510000D01*
X20590000Y-18510000D02*
X16590000Y-18510000D01*
D11*
X32463600Y-35115200D02*
X33463600Y-35115200D01*
X33463600Y-33415200D02*
X32463600Y-33415200D01*
X30813600Y-25965200D02*
X30113600Y-25965200D01*
X30113600Y-24765200D02*
X30813600Y-24765200D01*
X13733600Y-44775200D02*
X16393600Y-44775200D01*
X13733600Y-39635200D02*
X13733600Y-44775200D01*
X16393600Y-39635200D02*
X16393600Y-44775200D01*
X13733600Y-39635200D02*
X16393600Y-39635200D01*
X13733600Y-38365200D02*
X13733600Y-37035200D01*
X13733600Y-37035200D02*
X15063600Y-37035200D01*
D14*
X17963600Y-36835200D02*
X13713600Y-36835200D01*
X13713600Y-36835200D02*
X13713600Y-34295200D01*
X13713600Y-34295200D02*
X13713600Y-33025200D01*
X13713600Y-33025200D02*
X17963600Y-33025200D01*
X17963600Y-33025200D02*
X17963600Y-36835200D01*
D10*
X27848600Y-34080200D02*
G75*
G03X27848600Y-34080200I-200000J0D01*
G01*
D12*
X27663600Y-31765200D02*
X27663600Y-27765200D01*
X32663600Y-31765200D02*
X32663600Y-27765200D01*
D11*
X24973600Y-44795200D02*
X24973600Y-42135200D01*
X19833600Y-44795200D02*
X24973600Y-44795200D01*
X19833600Y-42135200D02*
X24973600Y-42135200D01*
X19833600Y-44795200D02*
X19833600Y-42135200D01*
X18563600Y-44795200D02*
X17233600Y-44795200D01*
X17233600Y-44795200D02*
X17233600Y-43465200D01*
D15*
X15463808Y-28980155D02*
X15658823Y-28980155D01*
X15681766Y-28968683D01*
X15693237Y-28957212D01*
X15704709Y-28934269D01*
X15704709Y-28888383D01*
X15693237Y-28865440D01*
X15681766Y-28853968D01*
X15658823Y-28842497D01*
X15463808Y-28842497D01*
X15704709Y-28601596D02*
X15704709Y-28739254D01*
X15704709Y-28670425D02*
X15463808Y-28670425D01*
X15498222Y-28693368D01*
X15521165Y-28716311D01*
X15532636Y-28739254D01*
X18713673Y-29719843D02*
X18713673Y-29834404D01*
X18473095Y-29834404D01*
X18702217Y-29651106D02*
X18713673Y-29616737D01*
X18713673Y-29559457D01*
X18702217Y-29536545D01*
X18690761Y-29525089D01*
X18667849Y-29513632D01*
X18644936Y-29513632D01*
X18622024Y-29525089D01*
X18610568Y-29536545D01*
X18599112Y-29559457D01*
X18587656Y-29605281D01*
X18576200Y-29628193D01*
X18564744Y-29639650D01*
X18541831Y-29651106D01*
X18518919Y-29651106D01*
X18496007Y-29639650D01*
X18484551Y-29628193D01*
X18473095Y-29605281D01*
X18473095Y-29548001D01*
X18484551Y-29513632D01*
X18713673Y-29410528D02*
X18473095Y-29410528D01*
X18644936Y-29330335D01*
X18473095Y-29250142D01*
X18713673Y-29250142D01*
X18473095Y-29158494D02*
X18473095Y-29009564D01*
X18564744Y-29089757D01*
X18564744Y-29055389D01*
X18576200Y-29032477D01*
X18587656Y-29021021D01*
X18610568Y-29009564D01*
X18667849Y-29009564D01*
X18690761Y-29021021D01*
X18702217Y-29032477D01*
X18713673Y-29055389D01*
X18713673Y-29124125D01*
X18702217Y-29147038D01*
X18690761Y-29158494D01*
X18473095Y-28860635D02*
X18473095Y-28837723D01*
X18484551Y-28814811D01*
X18496007Y-28803355D01*
X18518919Y-28791899D01*
X18564744Y-28780442D01*
X18622024Y-28780442D01*
X18667849Y-28791899D01*
X18690761Y-28803355D01*
X18702217Y-28814811D01*
X18713673Y-28837723D01*
X18713673Y-28860635D01*
X18702217Y-28883547D01*
X18690761Y-28895003D01*
X18667849Y-28906460D01*
X18622024Y-28917916D01*
X18564744Y-28917916D01*
X18518919Y-28906460D01*
X18496007Y-28895003D01*
X18484551Y-28883547D01*
X18473095Y-28860635D01*
X18473095Y-28700250D02*
X18473095Y-28551320D01*
X18564744Y-28631513D01*
X18564744Y-28597145D01*
X18576200Y-28574233D01*
X18587656Y-28562777D01*
X18610568Y-28551320D01*
X18667849Y-28551320D01*
X18690761Y-28562777D01*
X18702217Y-28574233D01*
X18713673Y-28597145D01*
X18713673Y-28665881D01*
X18702217Y-28688794D01*
X18690761Y-28700250D01*
X18644936Y-28459672D02*
X18644936Y-28345111D01*
X18713673Y-28482584D02*
X18473095Y-28402391D01*
X18713673Y-28322198D01*
X18484551Y-28115988D02*
X18473095Y-28138901D01*
X18473095Y-28173269D01*
X18484551Y-28207637D01*
X18507463Y-28230549D01*
X18530375Y-28242006D01*
X18576200Y-28253462D01*
X18610568Y-28253462D01*
X18656392Y-28242006D01*
X18679305Y-28230549D01*
X18702217Y-28207637D01*
X18713673Y-28173269D01*
X18713673Y-28150357D01*
X18702217Y-28115988D01*
X18690761Y-28104532D01*
X18610568Y-28104532D01*
X18610568Y-28150357D01*
X18713673Y-27863954D02*
X18599112Y-27944147D01*
X18713673Y-28001428D02*
X18473095Y-28001428D01*
X18473095Y-27909779D01*
X18484551Y-27886867D01*
X18496007Y-27875410D01*
X18518919Y-27863954D01*
X18553288Y-27863954D01*
X18576200Y-27875410D01*
X18587656Y-27886867D01*
X18599112Y-27909779D01*
X18599112Y-28001428D01*
X18473095Y-27795218D02*
X18473095Y-27657745D01*
X18713673Y-27726481D02*
X18473095Y-27726481D01*
X18713673Y-27440078D02*
X18599112Y-27520271D01*
X18713673Y-27577552D02*
X18473095Y-27577552D01*
X18473095Y-27485903D01*
X18484551Y-27462991D01*
X18496007Y-27451534D01*
X18518919Y-27440078D01*
X18553288Y-27440078D01*
X18576200Y-27451534D01*
X18587656Y-27462991D01*
X18599112Y-27485903D01*
X18599112Y-27577552D01*
D14*
X25442381Y-27028095D02*
X24442381Y-27028095D01*
X24442381Y-26790000D01*
X24490000Y-26647142D01*
X24585238Y-26551904D01*
X24680476Y-26504285D01*
X24870952Y-26456666D01*
X25013810Y-26456666D01*
X25204286Y-26504285D01*
X25299524Y-26551904D01*
X25394762Y-26647142D01*
X25442381Y-26790000D01*
X25442381Y-27028095D01*
X25442381Y-25504285D02*
X25442381Y-26075714D01*
X25442381Y-25790000D02*
X24442381Y-25790000D01*
X24585238Y-25885238D01*
X24680476Y-25980476D01*
X24728095Y-26075714D01*
D15*
X26300839Y-21778356D02*
X26300839Y-21136205D01*
X26973569Y-21717199D02*
X26942990Y-21747778D01*
X26851254Y-21778356D01*
X26790097Y-21778356D01*
X26698361Y-21747778D01*
X26637204Y-21686621D01*
X26606625Y-21625463D01*
X26576046Y-21503149D01*
X26576046Y-21411413D01*
X26606625Y-21289098D01*
X26637204Y-21227941D01*
X26698361Y-21166784D01*
X26790097Y-21136205D01*
X26851254Y-21136205D01*
X26942990Y-21166784D01*
X26973569Y-21197363D01*
X27585141Y-21778356D02*
X27218197Y-21778356D01*
X27401669Y-21778356D02*
X27401669Y-21136205D01*
X27340512Y-21227941D01*
X27279355Y-21289098D01*
X27218197Y-21319677D01*
X25344000Y-25170306D02*
X25038414Y-25170306D01*
X25038414Y-24528576D01*
X25557910Y-25170306D02*
X25557910Y-24528576D01*
X25802378Y-24528576D01*
X25863496Y-24559135D01*
X25894054Y-24589694D01*
X25924613Y-24650811D01*
X25924613Y-24742486D01*
X25894054Y-24803604D01*
X25863496Y-24834162D01*
X25802378Y-24864721D01*
X25557910Y-24864721D01*
X26169081Y-25139748D02*
X26260757Y-25170306D01*
X26413550Y-25170306D01*
X26474667Y-25139748D01*
X26505226Y-25109189D01*
X26535784Y-25048072D01*
X26535784Y-24986955D01*
X26505226Y-24925838D01*
X26474667Y-24895279D01*
X26413550Y-24864721D01*
X26291316Y-24834162D01*
X26230198Y-24803604D01*
X26199640Y-24773045D01*
X26169081Y-24711928D01*
X26169081Y-24650811D01*
X26199640Y-24589694D01*
X26230198Y-24559135D01*
X26291316Y-24528576D01*
X26444108Y-24528576D01*
X26535784Y-24559135D01*
X26780252Y-24589694D02*
X26810811Y-24559135D01*
X26871928Y-24528576D01*
X27024721Y-24528576D01*
X27085838Y-24559135D01*
X27116397Y-24589694D01*
X27146955Y-24650811D01*
X27146955Y-24711928D01*
X27116397Y-24803604D01*
X26749694Y-25170306D01*
X27146955Y-25170306D01*
X27391423Y-24589694D02*
X27421982Y-24559135D01*
X27483099Y-24528576D01*
X27635892Y-24528576D01*
X27697009Y-24559135D01*
X27727568Y-24589694D01*
X27758126Y-24650811D01*
X27758126Y-24711928D01*
X27727568Y-24803604D01*
X27360865Y-25170306D01*
X27758126Y-25170306D01*
X28033153Y-25170306D02*
X28033153Y-24528576D01*
X28033153Y-24834162D02*
X28399856Y-24834162D01*
X28399856Y-25170306D02*
X28399856Y-24528576D01*
X28919352Y-24834162D02*
X29011028Y-24864721D01*
X29041586Y-24895279D01*
X29072145Y-24956396D01*
X29072145Y-25048072D01*
X29041586Y-25109189D01*
X29011028Y-25139748D01*
X28949910Y-25170306D01*
X28705442Y-25170306D01*
X28705442Y-24528576D01*
X28919352Y-24528576D01*
X28980469Y-24559135D01*
X29011028Y-24589694D01*
X29041586Y-24650811D01*
X29041586Y-24711928D01*
X29011028Y-24773045D01*
X28980469Y-24803604D01*
X28919352Y-24834162D01*
X28705442Y-24834162D01*
D14*
X28535981Y-29551866D02*
X28059790Y-29885200D01*
X28535981Y-30123295D02*
X27535981Y-30123295D01*
X27535981Y-29742342D01*
X27583600Y-29647104D01*
X27631219Y-29599485D01*
X27726457Y-29551866D01*
X27869314Y-29551866D01*
X27964552Y-29599485D01*
X28012171Y-29647104D01*
X28059790Y-29742342D01*
X28059790Y-30123295D01*
X28535981Y-28599485D02*
X28535981Y-29170914D01*
X28535981Y-28885200D02*
X27535981Y-28885200D01*
X27678838Y-28980438D01*
X27774076Y-29075676D01*
X27821695Y-29170914D01*
D15*
X17587410Y-19717581D02*
X17587410Y-18717581D01*
X18635029Y-19622343D02*
X18587410Y-19669962D01*
X18444553Y-19717581D01*
X18349315Y-19717581D01*
X18206457Y-19669962D01*
X18111219Y-19574724D01*
X18063600Y-19479486D01*
X18015981Y-19289010D01*
X18015981Y-19146152D01*
X18063600Y-18955676D01*
X18111219Y-18860438D01*
X18206457Y-18765200D01*
X18349315Y-18717581D01*
X18444553Y-18717581D01*
X18587410Y-18765200D01*
X18635029Y-18812819D01*
X18968362Y-18717581D02*
X19587410Y-18717581D01*
X19254076Y-19098533D01*
X19396934Y-19098533D01*
X19492172Y-19146152D01*
X19539791Y-19193771D01*
X19587410Y-19289010D01*
X19587410Y-19527105D01*
X19539791Y-19622343D01*
X19492172Y-19669962D01*
X19396934Y-19717581D01*
X19111219Y-19717581D01*
X19015981Y-19669962D01*
X18968362Y-19622343D01*
X15611219Y-18417581D02*
X15611219Y-17417581D01*
X15611219Y-17893771D02*
X16182648Y-17893771D01*
X16182648Y-18417581D02*
X16182648Y-17417581D01*
X16658838Y-18417581D02*
X16658838Y-17417581D01*
X17135028Y-18417581D02*
X17135028Y-17417581D01*
X17135028Y-17893771D02*
X17706457Y-17893771D01*
X17706457Y-18417581D02*
X17706457Y-17417581D01*
X18230266Y-18417581D02*
X18420742Y-18417581D01*
X18515981Y-18369962D01*
X18563600Y-18322343D01*
X18658838Y-18179486D01*
X18706457Y-17989010D01*
X18706457Y-17608057D01*
X18658838Y-17512819D01*
X18611219Y-17465200D01*
X18515981Y-17417581D01*
X18325504Y-17417581D01*
X18230266Y-17465200D01*
X18182647Y-17512819D01*
X18135028Y-17608057D01*
X18135028Y-17846152D01*
X18182647Y-17941390D01*
X18230266Y-17989010D01*
X18325504Y-18036629D01*
X18515981Y-18036629D01*
X18611219Y-17989010D01*
X18658838Y-17941390D01*
X18706457Y-17846152D01*
X19658838Y-18417581D02*
X19087409Y-18417581D01*
X19373123Y-18417581D02*
X19373123Y-17417581D01*
X19277885Y-17560438D01*
X19182647Y-17655676D01*
X19087409Y-17703295D01*
X19992171Y-17417581D02*
X20611219Y-17417581D01*
X20277885Y-17798533D01*
X20420743Y-17798533D01*
X20515981Y-17846152D01*
X20563600Y-17893771D01*
X20611219Y-17989010D01*
X20611219Y-18227105D01*
X20563600Y-18322343D01*
X20515981Y-18369962D01*
X20420743Y-18417581D01*
X20135028Y-18417581D01*
X20039790Y-18369962D01*
X19992171Y-18322343D01*
X21563600Y-18417581D02*
X20992171Y-18417581D01*
X21277885Y-18417581D02*
X21277885Y-17417581D01*
X21182647Y-17560438D01*
X21087409Y-17655676D01*
X20992171Y-17703295D01*
D14*
X32796934Y-36122343D02*
X32749315Y-36169962D01*
X32606458Y-36217581D01*
X32511220Y-36217581D01*
X32368362Y-36169962D01*
X32273124Y-36074724D01*
X32225505Y-35979486D01*
X32177886Y-35789010D01*
X32177886Y-35646152D01*
X32225505Y-35455676D01*
X32273124Y-35360438D01*
X32368362Y-35265200D01*
X32511220Y-35217581D01*
X32606458Y-35217581D01*
X32749315Y-35265200D01*
X32796934Y-35312819D01*
X33368362Y-35646152D02*
X33273124Y-35598533D01*
X33225505Y-35550914D01*
X33177886Y-35455676D01*
X33177886Y-35408057D01*
X33225505Y-35312819D01*
X33273124Y-35265200D01*
X33368362Y-35217581D01*
X33558839Y-35217581D01*
X33654077Y-35265200D01*
X33701696Y-35312819D01*
X33749315Y-35408057D01*
X33749315Y-35455676D01*
X33701696Y-35550914D01*
X33654077Y-35598533D01*
X33558839Y-35646152D01*
X33368362Y-35646152D01*
X33273124Y-35693771D01*
X33225505Y-35741390D01*
X33177886Y-35836629D01*
X33177886Y-36027105D01*
X33225505Y-36122343D01*
X33273124Y-36169962D01*
X33368362Y-36217581D01*
X33558839Y-36217581D01*
X33654077Y-36169962D01*
X33701696Y-36122343D01*
X33749315Y-36027105D01*
X33749315Y-35836629D01*
X33701696Y-35741390D01*
X33654077Y-35693771D01*
X33558839Y-35646152D01*
X29120743Y-24622343D02*
X29073124Y-24669962D01*
X28930267Y-24717581D01*
X28835029Y-24717581D01*
X28692171Y-24669962D01*
X28596933Y-24574724D01*
X28549314Y-24479486D01*
X28501695Y-24289010D01*
X28501695Y-24146152D01*
X28549314Y-23955676D01*
X28596933Y-23860438D01*
X28692171Y-23765200D01*
X28835029Y-23717581D01*
X28930267Y-23717581D01*
X29073124Y-23765200D01*
X29120743Y-23812819D01*
X30073124Y-24717581D02*
X29501695Y-24717581D01*
X29787409Y-24717581D02*
X29787409Y-23717581D01*
X29692171Y-23860438D01*
X29596933Y-23955676D01*
X29501695Y-24003295D01*
X31025505Y-24717581D02*
X30454076Y-24717581D01*
X30739790Y-24717581D02*
X30739790Y-23717581D01*
X30644552Y-23860438D01*
X30549314Y-23955676D01*
X30454076Y-24003295D01*
X14730267Y-35487581D02*
X14730267Y-36201867D01*
X14682647Y-36344724D01*
X14587409Y-36439962D01*
X14444552Y-36487581D01*
X14349314Y-36487581D01*
X15111219Y-35487581D02*
X15730267Y-35487581D01*
X15396933Y-35868533D01*
X15539791Y-35868533D01*
X15635029Y-35916152D01*
X15682648Y-35963771D01*
X15730267Y-36059010D01*
X15730267Y-36297105D01*
X15682648Y-36392343D01*
X15635029Y-36439962D01*
X15539791Y-36487581D01*
X15254076Y-36487581D01*
X15158838Y-36439962D01*
X15111219Y-36392343D01*
X14860267Y-33747581D02*
X14860267Y-34461867D01*
X14812647Y-34604724D01*
X14717409Y-34699962D01*
X14574552Y-34747581D01*
X14479314Y-34747581D01*
X15765029Y-34080914D02*
X15765029Y-34747581D01*
X15526933Y-33699962D02*
X15288838Y-34414248D01*
X15907886Y-34414248D01*
D15*
X29001695Y-28417581D02*
X29001695Y-29227105D01*
X29049314Y-29322343D01*
X29096933Y-29369962D01*
X29192171Y-29417581D01*
X29382648Y-29417581D01*
X29477886Y-29369962D01*
X29525505Y-29322343D01*
X29573124Y-29227105D01*
X29573124Y-28417581D01*
X30001695Y-28512819D02*
X30049314Y-28465200D01*
X30144552Y-28417581D01*
X30382648Y-28417581D01*
X30477886Y-28465200D01*
X30525505Y-28512819D01*
X30573124Y-28608057D01*
X30573124Y-28703295D01*
X30525505Y-28846152D01*
X29954076Y-29417581D01*
X30573124Y-29417581D01*
X28673124Y-30517581D02*
X28196933Y-30517581D01*
X28196933Y-29517581D01*
X29006457Y-30517581D02*
X29006457Y-29517581D01*
X29339791Y-30231867D01*
X29673124Y-29517581D01*
X29673124Y-30517581D01*
X30054076Y-29517581D02*
X30673124Y-29517581D01*
X30339790Y-29898533D01*
X30482648Y-29898533D01*
X30577886Y-29946152D01*
X30625505Y-29993771D01*
X30673124Y-30089010D01*
X30673124Y-30327105D01*
X30625505Y-30422343D01*
X30577886Y-30469962D01*
X30482648Y-30517581D01*
X30196933Y-30517581D01*
X30101695Y-30469962D01*
X30054076Y-30422343D01*
X31577886Y-29517581D02*
X31101695Y-29517581D01*
X31054076Y-29993771D01*
X31101695Y-29946152D01*
X31196933Y-29898533D01*
X31435029Y-29898533D01*
X31530267Y-29946152D01*
X31577886Y-29993771D01*
X31625505Y-30089010D01*
X31625505Y-30327105D01*
X31577886Y-30422343D01*
X31530267Y-30469962D01*
X31435029Y-30517581D01*
X31196933Y-30517581D01*
X31101695Y-30469962D01*
X31054076Y-30422343D01*
X32196933Y-29946152D02*
X32101695Y-29898533D01*
X32054076Y-29850914D01*
X32006457Y-29755676D01*
X32006457Y-29708057D01*
X32054076Y-29612819D01*
X32101695Y-29565200D01*
X32196933Y-29517581D01*
X32387410Y-29517581D01*
X32482648Y-29565200D01*
X32530267Y-29612819D01*
X32577886Y-29708057D01*
X32577886Y-29755676D01*
X32530267Y-29850914D01*
X32482648Y-29898533D01*
X32387410Y-29946152D01*
X32196933Y-29946152D01*
X32101695Y-29993771D01*
X32054076Y-30041390D01*
X32006457Y-30136629D01*
X32006457Y-30327105D01*
X32054076Y-30422343D01*
X32101695Y-30469962D01*
X32196933Y-30517581D01*
X32387410Y-30517581D01*
X32482648Y-30469962D01*
X32530267Y-30422343D01*
X32577886Y-30327105D01*
X32577886Y-30136629D01*
X32530267Y-30041390D01*
X32482648Y-29993771D01*
X32387410Y-29946152D01*
D14*
X16685981Y-44060438D02*
X16209790Y-44393772D01*
X16685981Y-44631867D02*
X15685981Y-44631867D01*
X15685981Y-44250914D01*
X15733600Y-44155676D01*
X15781219Y-44108057D01*
X15876457Y-44060438D01*
X16019314Y-44060438D01*
X16114552Y-44108057D01*
X16162171Y-44155676D01*
X16209790Y-44250914D01*
X16209790Y-44631867D01*
X15685981Y-43774724D02*
X16685981Y-43441391D01*
X15685981Y-43108057D01*
X16685981Y-42250914D02*
X16685981Y-42822343D01*
X16685981Y-42536629D02*
X15685981Y-42536629D01*
X15828838Y-42631867D01*
X15924076Y-42727105D01*
X15971695Y-42822343D01*
%LPC*%
D16*
G36*
X16043400Y-29175040D02*
X16043400Y-28653800D01*
X16462744Y-28653800D01*
X16462744Y-29175040D01*
X16043400Y-29175040D01*
G37*
X16043400Y-29175040D02*
X16043400Y-28653800D01*
X16462744Y-28653800D01*
X16462744Y-29175040D01*
X16043400Y-29175040D01*
G36*
X16543400Y-29178280D02*
X16543400Y-28653800D01*
X16963224Y-28653800D01*
X16963224Y-29178280D01*
X16543400Y-29178280D01*
G37*
X16543400Y-29178280D02*
X16543400Y-28653800D01*
X16963224Y-28653800D01*
X16963224Y-29178280D01*
X16543400Y-29178280D01*
G36*
X17043400Y-29176700D02*
X17043400Y-28653800D01*
X17464710Y-28653800D01*
X17464710Y-29176700D01*
X17043400Y-29176700D01*
G37*
X17043400Y-29176700D02*
X17043400Y-28653800D01*
X17464710Y-28653800D01*
X17464710Y-29176700D01*
X17043400Y-29176700D01*
G36*
X17543400Y-29176340D02*
X17543400Y-28653800D01*
X17965783Y-28653800D01*
X17965783Y-29176340D01*
X17543400Y-29176340D01*
G37*
X17543400Y-29176340D02*
X17543400Y-28653800D01*
X17965783Y-28653800D01*
X17965783Y-29176340D01*
X17543400Y-29176340D01*
G36*
X16043400Y-27646369D02*
X16043400Y-27128800D01*
X16460800Y-27128800D01*
X16460800Y-27646369D01*
X16043400Y-27646369D01*
G37*
X16043400Y-27646369D02*
X16043400Y-27128800D01*
X16460800Y-27128800D01*
X16460800Y-27646369D01*
X16043400Y-27646369D01*
G36*
X16543400Y-27647917D02*
X16543400Y-27128800D01*
X16963330Y-27128800D01*
X16963330Y-27647917D01*
X16543400Y-27647917D01*
G37*
X16543400Y-27647917D02*
X16543400Y-27128800D01*
X16963330Y-27128800D01*
X16963330Y-27647917D01*
X16543400Y-27647917D01*
G36*
X17043400Y-27648057D02*
X17043400Y-27128800D01*
X17464077Y-27128800D01*
X17464077Y-27648057D01*
X17043400Y-27648057D01*
G37*
X17043400Y-27648057D02*
X17043400Y-27128800D01*
X17464077Y-27128800D01*
X17464077Y-27648057D01*
X17043400Y-27648057D01*
G36*
X17543400Y-27646965D02*
X17543400Y-27128800D01*
X17966889Y-27128800D01*
X17966889Y-27646965D01*
X17543400Y-27646965D01*
G37*
X17543400Y-27646965D02*
X17543400Y-27128800D01*
X17966889Y-27128800D01*
X17966889Y-27646965D01*
X17543400Y-27646965D01*
G36*
X15983400Y-28614697D02*
X15983400Y-28193800D01*
X16502425Y-28193800D01*
X16502425Y-28614697D01*
X15983400Y-28614697D01*
G37*
X15983400Y-28614697D02*
X15983400Y-28193800D01*
X16502425Y-28193800D01*
X16502425Y-28614697D01*
X15983400Y-28614697D01*
G36*
X15983400Y-28113704D02*
X15983400Y-27693800D01*
X16502199Y-27693800D01*
X16502199Y-28113704D01*
X15983400Y-28113704D01*
G37*
X15983400Y-28113704D02*
X15983400Y-27693800D01*
X16502199Y-27693800D01*
X16502199Y-28113704D01*
X15983400Y-28113704D01*
G36*
X17503400Y-28615456D02*
X17503400Y-28193800D01*
X18027070Y-28193800D01*
X18027070Y-28615456D01*
X17503400Y-28615456D01*
G37*
X17503400Y-28615456D02*
X17503400Y-28193800D01*
X18027070Y-28193800D01*
X18027070Y-28615456D01*
X17503400Y-28615456D01*
G36*
X17503400Y-28113636D02*
X17503400Y-27693800D01*
X18027590Y-27693800D01*
X18027590Y-28113636D01*
X17503400Y-28113636D01*
G37*
X17503400Y-28113636D02*
X17503400Y-27693800D01*
X18027590Y-27693800D01*
X18027590Y-28113636D01*
X17503400Y-28113636D01*
D17*
X16213400Y-28953800D03*
D18*
X16753400Y-28948800D03*
X17253400Y-28948800D03*
D17*
X17793400Y-28953800D03*
D19*
X17833400Y-28403800D03*
X17833400Y-27903800D03*
D17*
X17793400Y-27353800D03*
D18*
X17253400Y-27358800D03*
X16753400Y-27358800D03*
D17*
X16213400Y-27353800D03*
D19*
X16173400Y-27903800D03*
X16173400Y-28403800D03*
D20*
X26390000Y-27140000D03*
X26390000Y-25440000D03*
D17*
X25790000Y-24010000D03*
X26300000Y-24000000D03*
X26810000Y-24010000D03*
D21*
X27100000Y-22940000D03*
X27100000Y-23450000D03*
D17*
X26810000Y-22380000D03*
X26300000Y-22400000D03*
X25790000Y-22380000D03*
D21*
X25500000Y-23450000D03*
X25500000Y-22940000D03*
D22*
X26433600Y-28435200D03*
X26433600Y-30335200D03*
D23*
X21065000Y-22915000D03*
X21065000Y-21645000D03*
X21065000Y-20375000D03*
X21065000Y-19105000D03*
X16115000Y-19105000D03*
X16115000Y-20375000D03*
X16115000Y-21645000D03*
X16115000Y-22915000D03*
D24*
X33963600Y-34265200D03*
X31963600Y-34265200D03*
D25*
X31213600Y-25365200D03*
X29713600Y-25365200D03*
D26*
X15063600Y-38365200D03*
D27*
X15063600Y-40905200D03*
X15063600Y-43445200D03*
D28*
X16463600Y-35565200D03*
X15213600Y-35565200D03*
X31533600Y-36735200D03*
X32803600Y-35465200D03*
D29*
X30263600Y-35465200D03*
D30*
X28258600Y-32240200D03*
X29528600Y-32240200D03*
X30798600Y-32240200D03*
X32068600Y-32240200D03*
X32068600Y-27290200D03*
X30798600Y-27290200D03*
X29528600Y-27290200D03*
X28258600Y-27290200D03*
D26*
X18563600Y-43465200D03*
D27*
X21103600Y-43465200D03*
X23643600Y-43465200D03*
D31*
X25963600Y-21365200D03*
X19863600Y-34765200D03*
X23463600Y-37665200D03*
X26763600Y-32165200D03*
X25663600Y-25065200D03*
X15263600Y-25065200D03*
X17863600Y-25565200D03*
X22663600Y-22065200D03*
X33363600Y-33165200D03*
X18563600Y-29165200D03*
X21563600Y-23565200D03*
X20063600Y-29865200D03*
X16663600Y-29865200D03*
X22163600Y-28265200D03*
X19963600Y-27865200D03*
X25463600Y-30765200D03*
X14863600Y-28765200D03*
X23263600Y-28365200D03*
X22763600Y-20265200D03*
X23063600Y-25665200D03*
X15963600Y-26765200D03*
X17463600Y-23165200D03*
X25263600Y-21965200D03*
X25963600Y-32665200D03*
X24663600Y-26065200D03*
X24563600Y-38865200D03*
X28363600Y-29065200D03*
X31863600Y-25865200D03*
X28863600Y-25665200D03*
X27463600Y-36165200D03*
X29363600Y-30765200D03*
X31263600Y-28965200D03*
M02*
