M48
INCH,TZ
T1C0.012
T2C0.026
T3C0.030
T4C0.079
T5C0.130
%
G90
G05
T1
X13976Y-30591
X14218Y-9996
X14218Y-18234
X14425Y-22862
X14631Y-29317
X14868Y-30971
X15079Y-30512
X15236Y-29882
X15276Y-28346
X15394Y-22846
X15468Y-24937
X15478Y-10134
X15669Y-29159
X15945Y-29724
X15957Y-28955
X16063Y-28346
X16088Y-9356
X16285Y-10144
X16850Y-29961
X17559Y-28268
X17921Y-22846
X18071Y-28228
X18240Y-27594
X18358Y-22406
X18583Y-28268
X18600Y-28898
X18657Y-27173
X18677Y-25657
X19031Y-22870
X19094Y-25256
X19185Y-29236
X19827Y-29232
X19957Y-24953
X20457Y-24445
X21157Y-27772
X21826Y-29770
X22879Y-31295
X23145Y-9327
X23224Y-8461
X23445Y-19563
X23667Y-30104
X23667Y-30705
X23677Y-8097
X24035Y-13772
X24134Y-10929
X24134Y-13047
X24268Y-20378
X24375Y-30173
X24434Y-15016
X24732Y-10913
X24946Y-9327
X25123Y-30695
X26068Y-14888
X28125Y-21502
X30261Y-18234
X31057Y-19010
X31875Y-18471
T2
X17520Y-29724
X18020Y-29724
X18520Y-29724
X19020Y-29724
X19520Y-29724
X20020Y-29724
X20520Y-29724
X21020Y-29724
X25197Y-15748
X25197Y-16248
X25197Y-16748
X25197Y-17248
T3
X10753Y-14199
X11442Y-14199
X12131Y-14199
X12820Y-14199
X17478Y-18978
X18478Y-18978
X19478Y-18978
T4
X16875Y-10695
X16875Y-17388
X22387Y-10695
X22387Y-17388
T5
X8661Y-16102
X16102Y-30709
X30709Y-23268
T0
M30
