G04 #@! TF.FileFunction,Copper,L2,Bot,Signal*
%FSLAX46Y46*%
G04 Gerber Fmt 4.6, Leading zero omitted, Abs format (unit mm)*
G04 Created by KiCad (PCBNEW 4.0.7) date 02/03/18 21:51:46*
%MOMM*%
%LPD*%
G01*
G04 APERTURE LIST*
%ADD10C,0.100000*%
%ADD11C,0.700000*%
%ADD12C,0.250000*%
G04 APERTURE END LIST*
D10*
D11*
X21841740Y-22205240D03*
X24874800Y-16774800D03*
X18874800Y-14774800D03*
X20591740Y-22205240D03*
X19341740Y-22205240D03*
X19274800Y-15874800D03*
D12*
X21841740Y-21114740D02*
X21841740Y-20507860D01*
X21841740Y-22205240D02*
X21841740Y-21114740D01*
X21931740Y-22115240D02*
X21841740Y-22205240D01*
X24874800Y-17474800D02*
X24874800Y-16774800D01*
X21841740Y-20507860D02*
X24874800Y-17474800D01*
X18374800Y-16974800D02*
X18574800Y-16774800D01*
X18176240Y-17173360D02*
X18374800Y-16974800D01*
X20591740Y-23037840D02*
X20309840Y-23319740D01*
X20309840Y-23319740D02*
X18582640Y-23319740D01*
X18582640Y-23319740D02*
X18176240Y-22913340D01*
X20591740Y-23037840D02*
X20591740Y-22205240D01*
X18176240Y-22913340D02*
X18176240Y-17173360D01*
X18574800Y-15074800D02*
X18874800Y-14774800D01*
X18574800Y-16774800D02*
X18574800Y-15074800D01*
X20588640Y-22202140D02*
X20551740Y-22202140D01*
X20591740Y-22205240D02*
X20588640Y-22202140D01*
X19341740Y-22205240D02*
X19341740Y-15925440D01*
X19325440Y-15925440D02*
X19341740Y-15925440D01*
X19274800Y-15874800D02*
X19325440Y-15925440D01*
X19361740Y-22185240D02*
X19341740Y-22205240D01*
X19341740Y-22205240D02*
X19361740Y-22185240D01*
M02*
