G04 #@! TF.FileFunction,Soldermask,Top*
%FSLAX46Y46*%
G04 Gerber Fmt 4.6, Leading zero omitted, Abs format (unit mm)*
G04 Created by KiCad (PCBNEW 4.0.7) date 02/03/18 21:52:34*
%MOMM*%
%LPD*%
G01*
G04 APERTURE LIST*
%ADD10C,0.100000*%
%ADD11R,1.500000X0.290000*%
%ADD12R,0.290000X1.500000*%
%ADD13R,2.000000X3.800000*%
%ADD14R,2.000000X1.500000*%
%ADD15R,2.550000X2.500000*%
%ADD16R,1.000000X1.250000*%
%ADD17C,1.060000*%
%ADD18C,1.006000*%
%ADD19R,0.800000X3.000000*%
%ADD20R,2.100000X3.000000*%
%ADD21C,1.300000*%
%ADD22C,1.524000*%
%ADD23R,3.000000X0.800000*%
%ADD24R,0.600000X0.500000*%
%ADD25R,1.500000X0.500000*%
%ADD26R,0.900000X0.800000*%
%ADD27R,0.500000X0.900000*%
%ADD28R,0.900000X0.500000*%
%ADD29R,0.700000X1.300000*%
%ADD30R,1.250000X1.000000*%
%ADD31R,1.300000X1.700000*%
%ADD32R,5.500000X2.000000*%
%ADD33C,1.306000*%
%ADD34C,2.000000*%
%ADD35C,1.000000*%
%ADD36R,3.000000X0.650000*%
%ADD37C,0.706000*%
G04 APERTURE END LIST*
D10*
D11*
X34610000Y-38250000D03*
X34610000Y-38750000D03*
X34610000Y-39250000D03*
X34610000Y-39750000D03*
X34610000Y-40250000D03*
X34610000Y-42750000D03*
X34610000Y-43250000D03*
X34610000Y-43750000D03*
X34610000Y-44250000D03*
X34610000Y-44750000D03*
X34610000Y-45250000D03*
X34610000Y-45750000D03*
X34610000Y-46250000D03*
X34610000Y-46750000D03*
X34610000Y-47250000D03*
X34610000Y-47750000D03*
X34610000Y-48250000D03*
X34610000Y-48750000D03*
X34610000Y-49250000D03*
X34610000Y-49750000D03*
X34610000Y-50250000D03*
D12*
X36610000Y-52250000D03*
X37110000Y-52250000D03*
X37610000Y-52250000D03*
X38110000Y-52250000D03*
X38610000Y-52250000D03*
X39110000Y-52250000D03*
X39610000Y-52250000D03*
X40110000Y-52250000D03*
X40610000Y-52250000D03*
X41110000Y-52250000D03*
X41610000Y-52250000D03*
X42110000Y-52250000D03*
X42610000Y-52250000D03*
X43110000Y-52250000D03*
X43610000Y-52250000D03*
X44110000Y-52250000D03*
X44610000Y-52250000D03*
X45110000Y-52250000D03*
X45610000Y-52250000D03*
X46110000Y-52250000D03*
X46610000Y-52250000D03*
X47110000Y-52250000D03*
X47610000Y-52250000D03*
X48110000Y-52250000D03*
X48610000Y-52250000D03*
D11*
X50610000Y-50250000D03*
X50610000Y-49750000D03*
X50610000Y-49250000D03*
X50610000Y-48750000D03*
X50610000Y-48250000D03*
X50610000Y-47750000D03*
X50610000Y-47250000D03*
X50610000Y-46750000D03*
X50610000Y-46250000D03*
X50610000Y-45750000D03*
X50610000Y-45250000D03*
X50610000Y-44750000D03*
X50610000Y-44250000D03*
X50610000Y-43750000D03*
X50610000Y-43250000D03*
X50610000Y-42750000D03*
X50610000Y-42250000D03*
X50610000Y-41750000D03*
X50610000Y-41250000D03*
X50610000Y-40750000D03*
X50610000Y-40250000D03*
X50610000Y-39750000D03*
X50610000Y-39250000D03*
X50610000Y-38750000D03*
X50610000Y-38250000D03*
D12*
X48610000Y-36250000D03*
X48110000Y-36250000D03*
X47610000Y-36250000D03*
X47110000Y-36250000D03*
X46610000Y-36250000D03*
X46110000Y-36250000D03*
X45610000Y-36250000D03*
X45110000Y-36250000D03*
X44610000Y-36250000D03*
X44110000Y-36250000D03*
X43610000Y-36250000D03*
X43110000Y-36250000D03*
X42610000Y-36250000D03*
X42110000Y-36250000D03*
X41610000Y-36250000D03*
X41110000Y-36250000D03*
X40610000Y-36250000D03*
X40110000Y-36250000D03*
X39610000Y-36250000D03*
X39110000Y-36250000D03*
X38610000Y-36250000D03*
X38110000Y-36250000D03*
X37610000Y-36250000D03*
X37110000Y-36250000D03*
X36610000Y-36250000D03*
D13*
X61660000Y-67745000D03*
D14*
X55310000Y-67745000D03*
X55310000Y-65205000D03*
X55310000Y-70285000D03*
D15*
X54690000Y-62030000D03*
X59740000Y-62030000D03*
X67360000Y-62030000D03*
X62310000Y-62030000D03*
D16*
X62565000Y-66475000D03*
X64565000Y-66475000D03*
D17*
X64882500Y-56140100D03*
D18*
X66132500Y-56140100D03*
X69297020Y-56084220D03*
D17*
X70547020Y-56084220D03*
D19*
X57700000Y-49260000D03*
X56450000Y-49260000D03*
X55200000Y-49260000D03*
D20*
X60250000Y-52860000D03*
X51400000Y-52860000D03*
D19*
X53950000Y-49260000D03*
D21*
X50240000Y-51740000D03*
D22*
X55320000Y-51740000D03*
X60400000Y-51740000D03*
X60400000Y-36500000D03*
X55320000Y-36500000D03*
X50240000Y-36500000D03*
D18*
X67486000Y-36290000D03*
D17*
X66236000Y-36290000D03*
D23*
X58672960Y-22355200D03*
X58672960Y-21105200D03*
X58672960Y-19855200D03*
X58672960Y-18605200D03*
D17*
X35990000Y-16224000D03*
D18*
X35990000Y-17474000D03*
D24*
X39520000Y-56315000D03*
X40620000Y-56315000D03*
X44430000Y-56315000D03*
X43330000Y-56315000D03*
D13*
X26100000Y-20755000D03*
D14*
X32450000Y-20755000D03*
X32450000Y-23295000D03*
X32450000Y-18215000D03*
D25*
X29655000Y-62125000D03*
X26355000Y-62125000D03*
X29655000Y-61125000D03*
X26355000Y-61125000D03*
X29655000Y-60125000D03*
X26355000Y-60125000D03*
X29655000Y-59125000D03*
X26355000Y-59125000D03*
X29655000Y-58125000D03*
X26355000Y-58125000D03*
D26*
X30275000Y-38850000D03*
X30275000Y-36950000D03*
X28275000Y-37900000D03*
X53135000Y-35040000D03*
X53135000Y-33140000D03*
X51135000Y-34090000D03*
X29640000Y-35040000D03*
X29640000Y-33140000D03*
X27640000Y-34090000D03*
X30275000Y-42660000D03*
X30275000Y-40760000D03*
X28275000Y-41710000D03*
X30275000Y-50280000D03*
X30275000Y-48380000D03*
X28275000Y-49330000D03*
X24600000Y-60100000D03*
X24600000Y-58200000D03*
X22600000Y-59150000D03*
D27*
X32335000Y-57585000D03*
X33835000Y-57585000D03*
X57750000Y-51730000D03*
X56250000Y-51730000D03*
D28*
X55310000Y-31030000D03*
X55310000Y-29530000D03*
D27*
X41225000Y-56315000D03*
X42725000Y-56315000D03*
X28120000Y-36630000D03*
X26620000Y-36630000D03*
X50980000Y-32185000D03*
X49480000Y-32185000D03*
X29795000Y-31550000D03*
X31295000Y-31550000D03*
D28*
X27370000Y-37785000D03*
X27370000Y-39285000D03*
D29*
X33400000Y-33455000D03*
X31500000Y-33455000D03*
D27*
X51959040Y-36436960D03*
X53459040Y-36436960D03*
X28120000Y-40440000D03*
X26620000Y-40440000D03*
D28*
X26800000Y-34075000D03*
X26800000Y-35575000D03*
D27*
X31930000Y-35360000D03*
X30430000Y-35360000D03*
D28*
X27370000Y-41595000D03*
X27370000Y-43095000D03*
D27*
X28120000Y-48060000D03*
X26620000Y-48060000D03*
D28*
X28050000Y-49860000D03*
X28050000Y-51360000D03*
X24630000Y-57170000D03*
X24630000Y-55670000D03*
X21810000Y-60110000D03*
X21810000Y-61610000D03*
D15*
X33070000Y-26470000D03*
X28020000Y-26470000D03*
D16*
X36530000Y-56315000D03*
X38530000Y-56315000D03*
D15*
X20400000Y-26470000D03*
X25450000Y-26470000D03*
D16*
X21925000Y-23295000D03*
X23925000Y-23295000D03*
D30*
X32475000Y-43025000D03*
X32475000Y-45025000D03*
D16*
X37300000Y-54350000D03*
X39300000Y-54350000D03*
X48690000Y-34090000D03*
X46690000Y-34090000D03*
X34625000Y-34660000D03*
X36625000Y-34660000D03*
X53450000Y-55050000D03*
X55450000Y-55050000D03*
D31*
X35470000Y-56100000D03*
X31970000Y-56100000D03*
D17*
X15670000Y-52038000D03*
D18*
X16920000Y-52038000D03*
X20115000Y-52038000D03*
D17*
X21365000Y-52038000D03*
X51738000Y-72358000D03*
D18*
X51738000Y-71108000D03*
X51738000Y-67913000D03*
D17*
X51738000Y-66663000D03*
X34720000Y-72358000D03*
D18*
X34720000Y-71108000D03*
X34720000Y-67913000D03*
D17*
X34720000Y-66663000D03*
X53008000Y-16224000D03*
D18*
X53008000Y-17474000D03*
X53008000Y-20669000D03*
D17*
X53008000Y-21919000D03*
X71931000Y-36290000D03*
D18*
X70681000Y-36290000D03*
X67359000Y-53435000D03*
X66109000Y-53435000D03*
X35990000Y-20669000D03*
D17*
X35990000Y-21919000D03*
X15924000Y-35147000D03*
D18*
X17174000Y-35147000D03*
X20369000Y-35147000D03*
D17*
X21619000Y-35147000D03*
D28*
X53405000Y-58970000D03*
X53405000Y-57470000D03*
D27*
X53290000Y-56315000D03*
X54790000Y-56315000D03*
D19*
X41700000Y-32240000D03*
X40450000Y-32240000D03*
X39200000Y-32240000D03*
X42950000Y-32240000D03*
X44200000Y-32240000D03*
D20*
X36650000Y-28640000D03*
X48000000Y-28640000D03*
D19*
X45450000Y-32240000D03*
D32*
X47360000Y-60125000D03*
X37860000Y-60125000D03*
D18*
X18024580Y-57242460D03*
D17*
X16774580Y-57242460D03*
D18*
X71804000Y-53435000D03*
X70554000Y-53435000D03*
D22*
X53262000Y-69056000D03*
X53262000Y-66516000D03*
X34453300Y-19792700D03*
X34453300Y-22332700D03*
D33*
X35570900Y-36582100D03*
D34*
X28725600Y-28924000D03*
X59294500Y-59569100D03*
D17*
X17371800Y-32734000D03*
X17371800Y-31484000D03*
X31800000Y-71000000D03*
D18*
X30550000Y-71000000D03*
X43960520Y-53800760D03*
X42710520Y-53800760D03*
X53363600Y-43376600D03*
X52113600Y-43376600D03*
D35*
X52098680Y-50641000D03*
X52098680Y-49391000D03*
D36*
X56577840Y-24042120D03*
X56577840Y-26582120D03*
X56577840Y-29122120D03*
X59577840Y-25312120D03*
X59577840Y-27852120D03*
X59577840Y-30392120D03*
D18*
X30262300Y-26942800D03*
X26287200Y-28441400D03*
X30015920Y-25967440D03*
D35*
X62865740Y-23028660D03*
X63871580Y-24400260D03*
D37*
X58606160Y-23341080D03*
D35*
X62449940Y-27145640D03*
D37*
X58667120Y-29447240D03*
D35*
X40490000Y-27970000D03*
D37*
X43884320Y-28461720D03*
D35*
X33880000Y-37370000D03*
X32632120Y-39975540D03*
X55895980Y-21751040D03*
D37*
X58989700Y-32030420D03*
D35*
X61030000Y-47310000D03*
D18*
X26275900Y-25075900D03*
D35*
X62317100Y-53930300D03*
D18*
X32383200Y-23247100D03*
D37*
X54800000Y-65300000D03*
D35*
X60642730Y-19727570D03*
D37*
X48020200Y-41105480D03*
X64200000Y-66475000D03*
X39100000Y-56300000D03*
X31320000Y-51910000D03*
X28350000Y-54820000D03*
X47680000Y-32670000D03*
X47825000Y-53800000D03*
X37350000Y-31525000D03*
D35*
X37200000Y-34550000D03*
D37*
X28800000Y-60150000D03*
X31930000Y-35360000D03*
D35*
X33740000Y-30480000D03*
D37*
X54660000Y-54440000D03*
D35*
X60480680Y-66754760D03*
D37*
X30894760Y-31123640D03*
X27180000Y-42570000D03*
D35*
X56524120Y-24112880D03*
D37*
X53719200Y-22995640D03*
D35*
X41410000Y-28970000D03*
X29114220Y-48263560D03*
X28342060Y-46051220D03*
D37*
X34070000Y-33050000D03*
D35*
X34864780Y-29846020D03*
X52929260Y-26648160D03*
X51971680Y-28080720D03*
D37*
X52740000Y-37490000D03*
D35*
X59772020Y-47499020D03*
X57275000Y-67750000D03*
D37*
X66482700Y-57537100D03*
D35*
X58423280Y-39998400D03*
D18*
X28975000Y-65000000D03*
D37*
X59800000Y-28800000D03*
D35*
X61175000Y-67750000D03*
D37*
X37300000Y-54350000D03*
D18*
X41120000Y-58530000D03*
X38660000Y-57660000D03*
D35*
X43860000Y-59960000D03*
D18*
X41440000Y-60240000D03*
D37*
X27280000Y-39220000D03*
D35*
X34375000Y-54575000D03*
D37*
X53135000Y-35040000D03*
X33425000Y-59825000D03*
X36508920Y-39611960D03*
X31317160Y-60071660D03*
X36072040Y-40747340D03*
X46305000Y-53775000D03*
X33094400Y-34992060D03*
X33150000Y-46620000D03*
X53520000Y-41710000D03*
X26450000Y-53290000D03*
X28275000Y-41710000D03*
X29600000Y-44880000D03*
X22600000Y-59150000D03*
X30050000Y-57250000D03*
X29600000Y-46120000D03*
X38570000Y-48270000D03*
X31420000Y-37710000D03*
X36075000Y-54500000D03*
X35300000Y-57750000D03*
X31250000Y-66125000D03*
X52576200Y-46221400D03*
X43122320Y-30158440D03*
X39731420Y-49498000D03*
X45360060Y-42845740D03*
D18*
X45340000Y-49940000D03*
D37*
X48025000Y-42850000D03*
X44341520Y-30178760D03*
X55190000Y-34283400D03*
X57588210Y-33191790D03*
X56909440Y-34999680D03*
X39820320Y-48255940D03*
X42818280Y-45489520D03*
X43920000Y-55160000D03*
X59907400Y-44984060D03*
X57224400Y-59581800D03*
X53135000Y-60077100D03*
X56180460Y-56668420D03*
X58391020Y-43627700D03*
X40011580Y-40930220D03*
X29530000Y-33890000D03*
X57300600Y-38695380D03*
X46907680Y-39680540D03*
X40285900Y-42118940D03*
X60498460Y-39746940D03*
X45045100Y-41644320D03*
D18*
X47225000Y-50050000D03*
D37*
X54371980Y-35334960D03*
X42700000Y-55150000D03*
X49934600Y-33788100D03*
X32962320Y-31621480D03*
X49147960Y-39540840D03*
X53188340Y-52647600D03*
X58336920Y-53605180D03*
X60577200Y-55505100D03*
X66650000Y-55000000D03*
X69403700Y-61745880D03*
X54570100Y-59569100D03*
X37150000Y-45100000D03*
X53500000Y-40475000D03*
X36607220Y-49388780D03*
X38065180Y-32670500D03*
X47630000Y-56315000D03*
X32890000Y-36340000D03*
X34700000Y-61700000D03*
X34344080Y-28822400D03*
D35*
X31880280Y-30310840D03*
X24620960Y-54923440D03*
X28430000Y-56140000D03*
X32190160Y-54324000D03*
D37*
X53282320Y-29213560D03*
D35*
X46200000Y-30000000D03*
D37*
X28217600Y-24260560D03*
X29045640Y-24265640D03*
X52317120Y-31611320D03*
X50097160Y-31646880D03*
X58834760Y-48677580D03*
D35*
X57173600Y-54453540D03*
X50150500Y-56114700D03*
D18*
X21664400Y-27666700D03*
X24737800Y-32848300D03*
D37*
X57240000Y-51500000D03*
X58010000Y-46650000D03*
D35*
X42350000Y-61070000D03*
D37*
X27160000Y-40620000D03*
X31478960Y-39231320D03*
X37710340Y-42926660D03*
X38911000Y-39670740D03*
X35655480Y-41903040D03*
X29280000Y-39920000D03*
X44240000Y-47020000D03*
X42370000Y-41680000D03*
X42300000Y-39300000D03*
X28530020Y-43485820D03*
X27084760Y-52622200D03*
X23810000Y-56680000D03*
X26560000Y-56400000D03*
X45215280Y-39713920D03*
X40682140Y-47331020D03*
X34446440Y-41882720D03*
X50976000Y-32134560D03*
X60643240Y-33135320D03*
X59177660Y-34819340D03*
X39500280Y-26907240D03*
X44671720Y-26902160D03*
X35034960Y-28014680D03*
X53360000Y-54040000D03*
X47280000Y-48810000D03*
X45140000Y-34700000D03*
X45180000Y-38500000D03*
X43750000Y-34460000D03*
X43259480Y-38535360D03*
X42250000Y-34675000D03*
X41120000Y-38730000D03*
X39162460Y-38482020D03*
X40782980Y-34590740D03*
X47837320Y-45045020D03*
X53744600Y-45002200D03*
X48507880Y-47704400D03*
X52817500Y-47859700D03*
X53731900Y-47046900D03*
X47837320Y-46683320D03*
X52525400Y-45002200D03*
X49140340Y-46096580D03*
X58113400Y-36165540D03*
X55606420Y-39360860D03*
X62263760Y-31890720D03*
X53290000Y-39280000D03*
X61027540Y-40907360D03*
X58181980Y-45421300D03*
X53160400Y-30173680D03*
X51347600Y-35288880D03*
X32307000Y-25761700D03*
X27874700Y-22040600D03*
X58890640Y-66673480D03*
X55370200Y-61639200D03*
X41810000Y-50190000D03*
X42890000Y-49220000D03*
M02*
