G04 #@! TF.FileFunction,Soldermask,Bot*
%FSLAX46Y46*%
G04 Gerber Fmt 4.6, Leading zero omitted, Abs format (unit mm)*
G04 Created by KiCad (PCBNEW 4.0.7) date 02/03/18 21:52:34*
%MOMM*%
%LPD*%
G01*
G04 APERTURE LIST*
%ADD10C,0.100000*%
%ADD11R,1.050000X1.950000*%
%ADD12R,1.524000X1.524000*%
%ADD13C,1.060000*%
%ADD14C,1.006000*%
%ADD15R,3.000000X0.800000*%
%ADD16R,3.000000X2.100000*%
%ADD17C,1.300000*%
%ADD18C,1.524000*%
%ADD19R,0.900000X0.500000*%
%ADD20R,0.500000X0.900000*%
%ADD21R,1.300000X0.700000*%
%ADD22R,0.700000X1.300000*%
%ADD23R,0.800000X1.600000*%
%ADD24R,2.100000X3.000000*%
%ADD25R,0.800000X3.000000*%
%ADD26R,2.000000X3.000000*%
%ADD27R,1.900000X2.800000*%
%ADD28C,1.306000*%
%ADD29C,2.000000*%
%ADD30C,1.000000*%
%ADD31C,0.706000*%
G04 APERTURE END LIST*
D10*
D11*
X48150000Y-51660000D03*
X46150000Y-51660000D03*
X40150000Y-51660000D03*
X38150000Y-51660000D03*
X36150000Y-51660000D03*
X34150000Y-51660000D03*
X34150000Y-36860000D03*
X36150000Y-36860000D03*
X38150000Y-36860000D03*
X40150000Y-36860000D03*
X42150000Y-36860000D03*
X44150000Y-36860000D03*
X46150000Y-36860000D03*
X48150000Y-36860000D03*
D12*
X63803000Y-65207900D03*
X66343000Y-65207900D03*
X61263000Y-65207900D03*
X66343000Y-60127900D03*
X63803000Y-60127900D03*
X61263000Y-60127900D03*
X54913000Y-63150500D03*
X57453000Y-63150500D03*
X52373000Y-63150500D03*
X57453000Y-58070500D03*
X54913000Y-58070500D03*
X52373000Y-58070500D03*
D13*
X64882500Y-56140100D03*
D14*
X66132500Y-56140100D03*
X69297020Y-56084220D03*
D13*
X70547020Y-56084220D03*
D15*
X55945000Y-44250000D03*
X55945000Y-45500000D03*
X55945000Y-46750000D03*
X55945000Y-43000000D03*
X55945000Y-41750000D03*
D16*
X59545000Y-50550000D03*
X59545000Y-37950000D03*
D15*
X55945000Y-48000000D03*
X55945000Y-40500000D03*
D17*
X50240000Y-51740000D03*
D18*
X55320000Y-51740000D03*
X60400000Y-51740000D03*
X60400000Y-36500000D03*
X55320000Y-36500000D03*
X50240000Y-36500000D03*
D14*
X67486000Y-36290000D03*
D13*
X66236000Y-36290000D03*
D15*
X31815000Y-44250000D03*
X31815000Y-43000000D03*
X31815000Y-41750000D03*
X31815000Y-45500000D03*
X31815000Y-46750000D03*
D16*
X28215000Y-37950000D03*
X28215000Y-50550000D03*
D15*
X31815000Y-40500000D03*
X31815000Y-48000000D03*
D13*
X35990000Y-16224000D03*
D14*
X35990000Y-17474000D03*
D19*
X48960000Y-55795000D03*
X48960000Y-54295000D03*
D20*
X46305000Y-53775000D03*
X47805000Y-53775000D03*
D19*
X31180000Y-49215000D03*
X31180000Y-50715000D03*
X32450000Y-49215000D03*
X32450000Y-50715000D03*
D20*
X38915000Y-31550000D03*
X37415000Y-31550000D03*
D19*
X36060000Y-30210000D03*
X36060000Y-31710000D03*
D20*
X53520000Y-40440000D03*
X52020000Y-40440000D03*
X53520000Y-41710000D03*
X52020000Y-41710000D03*
D21*
X63565000Y-35040000D03*
X63565000Y-33140000D03*
D20*
X63450000Y-31550000D03*
X64950000Y-31550000D03*
D21*
X60867520Y-34648840D03*
X60867520Y-32748840D03*
D19*
X59120000Y-34840000D03*
X59120000Y-33340000D03*
D22*
X54360000Y-30280000D03*
X56260000Y-30280000D03*
D20*
X57100000Y-31550000D03*
X58600000Y-31550000D03*
D23*
X30175000Y-66050000D03*
X28925000Y-66050000D03*
X27675000Y-66050000D03*
D24*
X25125000Y-63150000D03*
X32725000Y-63150000D03*
D25*
X61025000Y-29645000D03*
X62275000Y-29645000D03*
X63525000Y-29645000D03*
X59775000Y-29645000D03*
X58525000Y-29645000D03*
D24*
X67325000Y-26045000D03*
X54725000Y-26045000D03*
D25*
X64775000Y-29645000D03*
X57275000Y-29645000D03*
X43880000Y-56315000D03*
X42630000Y-56315000D03*
X41380000Y-56315000D03*
X45130000Y-56315000D03*
X46380000Y-56315000D03*
D24*
X37580000Y-59915000D03*
X50180000Y-59915000D03*
D25*
X40130000Y-56315000D03*
X47630000Y-56315000D03*
X43880000Y-32185000D03*
X45130000Y-32185000D03*
X46380000Y-32185000D03*
X42630000Y-32185000D03*
X41380000Y-32185000D03*
D24*
X50180000Y-28585000D03*
D26*
X37770000Y-28585000D03*
D25*
X47630000Y-32185000D03*
X40130000Y-32185000D03*
D13*
X15670000Y-52038000D03*
D14*
X16920000Y-52038000D03*
X20115000Y-52038000D03*
D13*
X21365000Y-52038000D03*
X51738000Y-72358000D03*
D14*
X51738000Y-71108000D03*
X51738000Y-67913000D03*
D13*
X51738000Y-66663000D03*
X34720000Y-72358000D03*
D14*
X34720000Y-71108000D03*
X34720000Y-67913000D03*
D13*
X34720000Y-66663000D03*
X53008000Y-16224000D03*
D14*
X53008000Y-17474000D03*
X53008000Y-20669000D03*
D13*
X53008000Y-21919000D03*
X71931000Y-36290000D03*
D14*
X70681000Y-36290000D03*
X67359000Y-53435000D03*
X66109000Y-53435000D03*
X35990000Y-20669000D03*
D13*
X35990000Y-21919000D03*
X15924000Y-35147000D03*
D14*
X17174000Y-35147000D03*
X20369000Y-35147000D03*
D13*
X21619000Y-35147000D03*
D25*
X29800000Y-31640000D03*
X28550000Y-31640000D03*
X27300000Y-31640000D03*
D27*
X32450000Y-27940000D03*
D24*
X23500000Y-28040000D03*
D25*
X26050000Y-31640000D03*
D14*
X18024580Y-57242460D03*
D13*
X16774580Y-57242460D03*
D14*
X71804000Y-53435000D03*
X70554000Y-53435000D03*
D18*
X53262000Y-69056000D03*
X53262000Y-66516000D03*
X34453300Y-19792700D03*
X34453300Y-22332700D03*
D28*
X35570900Y-36582100D03*
D29*
X28725600Y-28924000D03*
X59294500Y-59569100D03*
D13*
X17371800Y-32734000D03*
X17371800Y-31484000D03*
X31800000Y-71000000D03*
D14*
X30550000Y-71000000D03*
X43960520Y-53800760D03*
X42710520Y-53800760D03*
X53363600Y-43376600D03*
X52113600Y-43376600D03*
D30*
X52098680Y-50641000D03*
X52098680Y-49391000D03*
D14*
X30262300Y-26942800D03*
X26287200Y-28441400D03*
X30015920Y-25967440D03*
D30*
X62865740Y-23028660D03*
X63871580Y-24400260D03*
D31*
X58606160Y-23341080D03*
D30*
X62449940Y-27145640D03*
D31*
X58667120Y-29447240D03*
D30*
X40490000Y-27970000D03*
D31*
X43884320Y-28461720D03*
D30*
X33880000Y-37370000D03*
X32632120Y-39975540D03*
X55895980Y-21751040D03*
D31*
X58989700Y-32030420D03*
D30*
X61030000Y-47310000D03*
D14*
X26275900Y-25075900D03*
D30*
X62317100Y-53930300D03*
D14*
X32383200Y-23247100D03*
D31*
X54800000Y-65300000D03*
D30*
X60642730Y-19727570D03*
D31*
X48020200Y-41105480D03*
X64200000Y-66475000D03*
X39100000Y-56300000D03*
X31320000Y-51910000D03*
X28350000Y-54820000D03*
X47680000Y-32670000D03*
X47825000Y-53800000D03*
X37350000Y-31525000D03*
D30*
X37200000Y-34550000D03*
D31*
X28800000Y-60150000D03*
X31930000Y-35360000D03*
D30*
X33740000Y-30480000D03*
D31*
X54660000Y-54440000D03*
D30*
X60480680Y-66754760D03*
D31*
X30894760Y-31123640D03*
X27180000Y-42570000D03*
D30*
X56524120Y-24112880D03*
D31*
X53719200Y-22995640D03*
D30*
X41410000Y-28970000D03*
X29114220Y-48263560D03*
X28342060Y-46051220D03*
D31*
X34070000Y-33050000D03*
D30*
X34864780Y-29846020D03*
X52929260Y-26648160D03*
X51971680Y-28080720D03*
D31*
X52740000Y-37490000D03*
D30*
X59772020Y-47499020D03*
X57275000Y-67750000D03*
D31*
X66482700Y-57537100D03*
D30*
X58423280Y-39998400D03*
D14*
X28975000Y-65000000D03*
D31*
X59800000Y-28800000D03*
D30*
X61175000Y-67750000D03*
D31*
X37300000Y-54350000D03*
D14*
X41120000Y-58530000D03*
X38660000Y-57660000D03*
D30*
X43860000Y-59960000D03*
D14*
X41440000Y-60240000D03*
D31*
X27280000Y-39220000D03*
D30*
X34375000Y-54575000D03*
D31*
X53135000Y-35040000D03*
X33425000Y-59825000D03*
X36508920Y-39611960D03*
X31317160Y-60071660D03*
X36072040Y-40747340D03*
X46305000Y-53775000D03*
X33094400Y-34992060D03*
X33150000Y-46620000D03*
X53520000Y-41710000D03*
X26450000Y-53290000D03*
X28275000Y-41710000D03*
X29600000Y-44880000D03*
X22600000Y-59150000D03*
X30050000Y-57250000D03*
X29600000Y-46120000D03*
X38570000Y-48270000D03*
X31420000Y-37710000D03*
X36075000Y-54500000D03*
X35300000Y-57750000D03*
X31250000Y-66125000D03*
X52576200Y-46221400D03*
X43122320Y-30158440D03*
X39731420Y-49498000D03*
X45360060Y-42845740D03*
D14*
X45340000Y-49940000D03*
D31*
X48025000Y-42850000D03*
X44341520Y-30178760D03*
X55190000Y-34283400D03*
X57588210Y-33191790D03*
X56909440Y-34999680D03*
X39820320Y-48255940D03*
X42818280Y-45489520D03*
X43920000Y-55160000D03*
X59907400Y-44984060D03*
X57224400Y-59581800D03*
X53135000Y-60077100D03*
X56180460Y-56668420D03*
X58391020Y-43627700D03*
X40011580Y-40930220D03*
X29530000Y-33890000D03*
X57300600Y-38695380D03*
X46907680Y-39680540D03*
X40285900Y-42118940D03*
X60498460Y-39746940D03*
X45045100Y-41644320D03*
D14*
X47225000Y-50050000D03*
D31*
X54371980Y-35334960D03*
X42700000Y-55150000D03*
X49934600Y-33788100D03*
X32962320Y-31621480D03*
X49147960Y-39540840D03*
X53188340Y-52647600D03*
X58336920Y-53605180D03*
X60577200Y-55505100D03*
X66650000Y-55000000D03*
X69403700Y-61745880D03*
X54570100Y-59569100D03*
X37150000Y-45100000D03*
X53500000Y-40475000D03*
X36607220Y-49388780D03*
X38065180Y-32670500D03*
X47630000Y-56315000D03*
X32890000Y-36340000D03*
X34700000Y-61700000D03*
X34344080Y-28822400D03*
D30*
X31880280Y-30310840D03*
X24620960Y-54923440D03*
X28430000Y-56140000D03*
X32190160Y-54324000D03*
D31*
X53282320Y-29213560D03*
D30*
X46200000Y-30000000D03*
D31*
X28217600Y-24260560D03*
X29045640Y-24265640D03*
X52317120Y-31611320D03*
X50097160Y-31646880D03*
X58834760Y-48677580D03*
D30*
X57173600Y-54453540D03*
X50150500Y-56114700D03*
D14*
X21664400Y-27666700D03*
X24737800Y-32848300D03*
D31*
X57240000Y-51500000D03*
X58010000Y-46650000D03*
D30*
X42350000Y-61070000D03*
D31*
X27160000Y-40620000D03*
X31478960Y-39231320D03*
X37710340Y-42926660D03*
X38911000Y-39670740D03*
X35655480Y-41903040D03*
X29280000Y-39920000D03*
X44240000Y-47020000D03*
X42370000Y-41680000D03*
X42300000Y-39300000D03*
X28530020Y-43485820D03*
X27084760Y-52622200D03*
X23810000Y-56680000D03*
X26560000Y-56400000D03*
X45215280Y-39713920D03*
X40682140Y-47331020D03*
X34446440Y-41882720D03*
X50976000Y-32134560D03*
X60643240Y-33135320D03*
X59177660Y-34819340D03*
X39500280Y-26907240D03*
X44671720Y-26902160D03*
X35034960Y-28014680D03*
X53360000Y-54040000D03*
X47280000Y-48810000D03*
X45140000Y-34700000D03*
X45180000Y-38500000D03*
X43750000Y-34460000D03*
X43259480Y-38535360D03*
X42250000Y-34675000D03*
X41120000Y-38730000D03*
X39162460Y-38482020D03*
X40782980Y-34590740D03*
X47837320Y-45045020D03*
X53744600Y-45002200D03*
X48507880Y-47704400D03*
X52817500Y-47859700D03*
X53731900Y-47046900D03*
X47837320Y-46683320D03*
X52525400Y-45002200D03*
X49140340Y-46096580D03*
X58113400Y-36165540D03*
X55606420Y-39360860D03*
X62263760Y-31890720D03*
X53290000Y-39280000D03*
X61027540Y-40907360D03*
X58181980Y-45421300D03*
X53160400Y-30173680D03*
X51347600Y-35288880D03*
X32307000Y-25761700D03*
X27874700Y-22040600D03*
X58890640Y-66673480D03*
X55370200Y-61639200D03*
X41810000Y-50190000D03*
X42890000Y-49220000D03*
M02*
