G04 #@! TF.FileFunction,Soldermask,Bot*
%FSLAX46Y46*%
G04 Gerber Fmt 4.6, Leading zero omitted, Abs format (unit mm)*
G04 Created by KiCad (PCBNEW 4.0.7) date 02/03/18 21:49:53*
%MOMM*%
%LPD*%
G01*
G04 APERTURE LIST*
%ADD10C,0.100000*%
%ADD11R,1.000000X1.250000*%
%ADD12R,0.600000X0.500000*%
%ADD13R,0.500000X0.600000*%
%ADD14R,1.250000X1.000000*%
%ADD15R,1.500000X1.950000*%
%ADD16R,3.000000X0.650000*%
%ADD17R,3.000000X0.800000*%
%ADD18R,3.000000X2.100000*%
%ADD19R,1.700000X1.700000*%
%ADD20O,1.700000X1.700000*%
%ADD21C,1.000000*%
%ADD22R,1.000000X1.000000*%
%ADD23R,0.500000X0.900000*%
%ADD24R,0.900000X0.500000*%
%ADD25C,0.700000*%
G04 APERTURE END LIST*
D10*
D11*
X18658600Y-25780200D03*
X16658600Y-25780200D03*
D12*
X18040000Y-21770000D03*
X19140000Y-21770000D03*
D13*
X18373400Y-28673800D03*
X18373400Y-27573800D03*
D14*
X22720000Y-23410000D03*
X22720000Y-21410000D03*
D11*
X24630000Y-21940000D03*
X26630000Y-21940000D03*
X14863600Y-24365200D03*
X16863600Y-24365200D03*
D14*
X14943400Y-25643800D03*
X14943400Y-27643800D03*
D15*
X35363600Y-34390200D03*
X35363600Y-37140200D03*
X33563600Y-29690200D03*
X33563600Y-32440200D03*
D16*
X23590000Y-24685000D03*
X23590000Y-27225000D03*
X23590000Y-29765000D03*
X20590000Y-25955000D03*
X20590000Y-28495000D03*
X20590000Y-31035000D03*
D17*
X25403600Y-35175200D03*
X25403600Y-36425200D03*
D18*
X21803600Y-32625200D03*
X21803600Y-40225200D03*
D17*
X25403600Y-37675200D03*
D19*
X15063600Y-38365200D03*
D20*
X15063600Y-40905200D03*
X15063600Y-43445200D03*
D21*
X16463600Y-35565200D03*
X15213600Y-35565200D03*
X31533600Y-36735200D03*
X32803600Y-35465200D03*
D22*
X30263600Y-35465200D03*
D23*
X30513600Y-30265200D03*
X32013600Y-30265200D03*
X31713600Y-29065200D03*
X30213600Y-29065200D03*
D24*
X24563600Y-39515200D03*
X24563600Y-41015200D03*
X32963600Y-37815200D03*
X32963600Y-36315200D03*
D19*
X18563600Y-43465200D03*
D20*
X21103600Y-43465200D03*
X23643600Y-43465200D03*
D25*
X25963600Y-21365200D03*
X19863600Y-34765200D03*
X23463600Y-37665200D03*
X26763600Y-32165200D03*
X25663600Y-25065200D03*
X15263600Y-25065200D03*
X17863600Y-25565200D03*
X22663600Y-22065200D03*
X33363600Y-33165200D03*
X18563600Y-29165200D03*
X21563600Y-23565200D03*
X20063600Y-29865200D03*
X16663600Y-29865200D03*
X22163600Y-28265200D03*
X19963600Y-27865200D03*
X25463600Y-30765200D03*
X14863600Y-28765200D03*
X23263600Y-28365200D03*
X22763600Y-20265200D03*
X23063600Y-25665200D03*
X15963600Y-26765200D03*
X17463600Y-23165200D03*
X25263600Y-21965200D03*
X25963600Y-32665200D03*
X24663600Y-26065200D03*
X24563600Y-38865200D03*
X28363600Y-29065200D03*
X31863600Y-25865200D03*
X28863600Y-25665200D03*
X27463600Y-36165200D03*
X29363600Y-30765200D03*
X31263600Y-28965200D03*
M02*
