G04 #@! TF.FileFunction,Soldermask,Top*
%FSLAX46Y46*%
G04 Gerber Fmt 4.6, Leading zero omitted, Abs format (unit mm)*
G04 Created by KiCad (PCBNEW 4.0.7) date 02/03/18 21:49:53*
%MOMM*%
%LPD*%
G01*
G04 APERTURE LIST*
%ADD10C,0.100000*%
%ADD11C,0.381000*%
%ADD12R,0.300000X0.400000*%
%ADD13R,0.250000X0.400000*%
%ADD14R,0.400000X0.250000*%
%ADD15R,0.800000X0.600000*%
%ADD16R,0.400000X0.300000*%
%ADD17R,1.300000X0.700000*%
%ADD18R,1.970000X0.600000*%
%ADD19R,1.000000X1.250000*%
%ADD20R,0.800000X0.750000*%
%ADD21R,1.700000X1.700000*%
%ADD22O,1.700000X1.700000*%
%ADD23C,1.000000*%
%ADD24R,1.000000X1.000000*%
%ADD25R,0.600000X1.970000*%
%ADD26C,0.700000*%
G04 APERTURE END LIST*
D10*
D11*
G36*
X16043400Y-29175040D02*
X16043400Y-28653800D01*
X16462744Y-28653800D01*
X16462744Y-29175040D01*
X16043400Y-29175040D01*
G37*
X16043400Y-29175040D02*
X16043400Y-28653800D01*
X16462744Y-28653800D01*
X16462744Y-29175040D01*
X16043400Y-29175040D01*
G36*
X16543400Y-29178280D02*
X16543400Y-28653800D01*
X16963224Y-28653800D01*
X16963224Y-29178280D01*
X16543400Y-29178280D01*
G37*
X16543400Y-29178280D02*
X16543400Y-28653800D01*
X16963224Y-28653800D01*
X16963224Y-29178280D01*
X16543400Y-29178280D01*
G36*
X17043400Y-29176700D02*
X17043400Y-28653800D01*
X17464710Y-28653800D01*
X17464710Y-29176700D01*
X17043400Y-29176700D01*
G37*
X17043400Y-29176700D02*
X17043400Y-28653800D01*
X17464710Y-28653800D01*
X17464710Y-29176700D01*
X17043400Y-29176700D01*
G36*
X17543400Y-29176340D02*
X17543400Y-28653800D01*
X17965783Y-28653800D01*
X17965783Y-29176340D01*
X17543400Y-29176340D01*
G37*
X17543400Y-29176340D02*
X17543400Y-28653800D01*
X17965783Y-28653800D01*
X17965783Y-29176340D01*
X17543400Y-29176340D01*
G36*
X16043400Y-27646369D02*
X16043400Y-27128800D01*
X16460800Y-27128800D01*
X16460800Y-27646369D01*
X16043400Y-27646369D01*
G37*
X16043400Y-27646369D02*
X16043400Y-27128800D01*
X16460800Y-27128800D01*
X16460800Y-27646369D01*
X16043400Y-27646369D01*
G36*
X16543400Y-27647917D02*
X16543400Y-27128800D01*
X16963330Y-27128800D01*
X16963330Y-27647917D01*
X16543400Y-27647917D01*
G37*
X16543400Y-27647917D02*
X16543400Y-27128800D01*
X16963330Y-27128800D01*
X16963330Y-27647917D01*
X16543400Y-27647917D01*
G36*
X17043400Y-27648057D02*
X17043400Y-27128800D01*
X17464077Y-27128800D01*
X17464077Y-27648057D01*
X17043400Y-27648057D01*
G37*
X17043400Y-27648057D02*
X17043400Y-27128800D01*
X17464077Y-27128800D01*
X17464077Y-27648057D01*
X17043400Y-27648057D01*
G36*
X17543400Y-27646965D02*
X17543400Y-27128800D01*
X17966889Y-27128800D01*
X17966889Y-27646965D01*
X17543400Y-27646965D01*
G37*
X17543400Y-27646965D02*
X17543400Y-27128800D01*
X17966889Y-27128800D01*
X17966889Y-27646965D01*
X17543400Y-27646965D01*
G36*
X15983400Y-28614697D02*
X15983400Y-28193800D01*
X16502425Y-28193800D01*
X16502425Y-28614697D01*
X15983400Y-28614697D01*
G37*
X15983400Y-28614697D02*
X15983400Y-28193800D01*
X16502425Y-28193800D01*
X16502425Y-28614697D01*
X15983400Y-28614697D01*
G36*
X15983400Y-28113704D02*
X15983400Y-27693800D01*
X16502199Y-27693800D01*
X16502199Y-28113704D01*
X15983400Y-28113704D01*
G37*
X15983400Y-28113704D02*
X15983400Y-27693800D01*
X16502199Y-27693800D01*
X16502199Y-28113704D01*
X15983400Y-28113704D01*
G36*
X17503400Y-28615456D02*
X17503400Y-28193800D01*
X18027070Y-28193800D01*
X18027070Y-28615456D01*
X17503400Y-28615456D01*
G37*
X17503400Y-28615456D02*
X17503400Y-28193800D01*
X18027070Y-28193800D01*
X18027070Y-28615456D01*
X17503400Y-28615456D01*
G36*
X17503400Y-28113636D02*
X17503400Y-27693800D01*
X18027590Y-27693800D01*
X18027590Y-28113636D01*
X17503400Y-28113636D01*
G37*
X17503400Y-28113636D02*
X17503400Y-27693800D01*
X18027590Y-27693800D01*
X18027590Y-28113636D01*
X17503400Y-28113636D01*
D12*
X16213400Y-28953800D03*
D13*
X16753400Y-28948800D03*
X17253400Y-28948800D03*
D12*
X17793400Y-28953800D03*
D14*
X17833400Y-28403800D03*
X17833400Y-27903800D03*
D12*
X17793400Y-27353800D03*
D13*
X17253400Y-27358800D03*
X16753400Y-27358800D03*
D12*
X16213400Y-27353800D03*
D14*
X16173400Y-27903800D03*
X16173400Y-28403800D03*
D15*
X26390000Y-27140000D03*
X26390000Y-25440000D03*
D12*
X25790000Y-24010000D03*
X26300000Y-24000000D03*
X26810000Y-24010000D03*
D16*
X27100000Y-22940000D03*
X27100000Y-23450000D03*
D12*
X26810000Y-22380000D03*
X26300000Y-22400000D03*
X25790000Y-22380000D03*
D16*
X25500000Y-23450000D03*
X25500000Y-22940000D03*
D17*
X26433600Y-28435200D03*
X26433600Y-30335200D03*
D18*
X21065000Y-22915000D03*
X21065000Y-21645000D03*
X21065000Y-20375000D03*
X21065000Y-19105000D03*
X16115000Y-19105000D03*
X16115000Y-20375000D03*
X16115000Y-21645000D03*
X16115000Y-22915000D03*
D19*
X33963600Y-34265200D03*
X31963600Y-34265200D03*
D20*
X31213600Y-25365200D03*
X29713600Y-25365200D03*
D21*
X15063600Y-38365200D03*
D22*
X15063600Y-40905200D03*
X15063600Y-43445200D03*
D23*
X16463600Y-35565200D03*
X15213600Y-35565200D03*
X31533600Y-36735200D03*
X32803600Y-35465200D03*
D24*
X30263600Y-35465200D03*
D25*
X28258600Y-32240200D03*
X29528600Y-32240200D03*
X30798600Y-32240200D03*
X32068600Y-32240200D03*
X32068600Y-27290200D03*
X30798600Y-27290200D03*
X29528600Y-27290200D03*
X28258600Y-27290200D03*
D21*
X18563600Y-43465200D03*
D22*
X21103600Y-43465200D03*
X23643600Y-43465200D03*
D26*
X25963600Y-21365200D03*
X19863600Y-34765200D03*
X23463600Y-37665200D03*
X26763600Y-32165200D03*
X25663600Y-25065200D03*
X15263600Y-25065200D03*
X17863600Y-25565200D03*
X22663600Y-22065200D03*
X33363600Y-33165200D03*
X18563600Y-29165200D03*
X21563600Y-23565200D03*
X20063600Y-29865200D03*
X16663600Y-29865200D03*
X22163600Y-28265200D03*
X19963600Y-27865200D03*
X25463600Y-30765200D03*
X14863600Y-28765200D03*
X23263600Y-28365200D03*
X22763600Y-20265200D03*
X23063600Y-25665200D03*
X15963600Y-26765200D03*
X17463600Y-23165200D03*
X25263600Y-21965200D03*
X25963600Y-32665200D03*
X24663600Y-26065200D03*
X24563600Y-38865200D03*
X28363600Y-29065200D03*
X31863600Y-25865200D03*
X28863600Y-25665200D03*
X27463600Y-36165200D03*
X29363600Y-30765200D03*
X31263600Y-28965200D03*
M02*
