G04 #@! TF.FileFunction,Paste,Top*
%FSLAX46Y46*%
G04 Gerber Fmt 4.6, Leading zero omitted, Abs format (unit mm)*
G04 Created by KiCad (PCBNEW 4.0.7) date 02/03/18 21:49:53*
%MOMM*%
%LPD*%
G01*
G04 APERTURE LIST*
%ADD10C,0.100000*%
%ADD11R,0.300000X0.400000*%
%ADD12R,0.250000X0.400000*%
%ADD13R,0.400000X0.250000*%
%ADD14R,0.800000X0.600000*%
%ADD15R,0.400000X0.300000*%
%ADD16R,1.300000X0.700000*%
%ADD17R,1.970000X0.600000*%
%ADD18R,1.000000X1.250000*%
%ADD19R,0.800000X0.750000*%
%ADD20R,0.600000X1.970000*%
G04 APERTURE END LIST*
D10*
D11*
X16213400Y-28953800D03*
D12*
X16753400Y-28948800D03*
X17253400Y-28948800D03*
D11*
X17793400Y-28953800D03*
D13*
X17833400Y-28403800D03*
X17833400Y-27903800D03*
D11*
X17793400Y-27353800D03*
D12*
X17253400Y-27358800D03*
X16753400Y-27358800D03*
D11*
X16213400Y-27353800D03*
D13*
X16173400Y-27903800D03*
X16173400Y-28403800D03*
D14*
X26390000Y-27140000D03*
X26390000Y-25440000D03*
D11*
X25790000Y-24010000D03*
X26300000Y-24000000D03*
X26810000Y-24010000D03*
D15*
X27100000Y-22940000D03*
X27100000Y-23450000D03*
D11*
X26810000Y-22380000D03*
X26300000Y-22400000D03*
X25790000Y-22380000D03*
D15*
X25500000Y-23450000D03*
X25500000Y-22940000D03*
D16*
X26433600Y-28435200D03*
X26433600Y-30335200D03*
D17*
X21065000Y-22915000D03*
X21065000Y-21645000D03*
X21065000Y-20375000D03*
X21065000Y-19105000D03*
X16115000Y-19105000D03*
X16115000Y-20375000D03*
X16115000Y-21645000D03*
X16115000Y-22915000D03*
D18*
X33963600Y-34265200D03*
X31963600Y-34265200D03*
D19*
X31213600Y-25365200D03*
X29713600Y-25365200D03*
D20*
X28258600Y-32240200D03*
X29528600Y-32240200D03*
X30798600Y-32240200D03*
X32068600Y-32240200D03*
X32068600Y-27290200D03*
X30798600Y-27290200D03*
X29528600Y-27290200D03*
X28258600Y-27290200D03*
M02*
