M48
INCH,TZ
T1C0.012
T2C0.020
T3C0.024
T4C0.039
%
G90
G05
T1
X5852Y-11325
X6009Y-9868
X6285Y-10537
X6560Y-11758
X6875Y-9120
X7033Y-10065
X7309Y-11482
X7820Y-13687
X7860Y-10971
X7899Y-11758
X8490Y-9278
X8726Y-11128
X8923Y-8687
X8962Y-7978
X9080Y-10104
X9159Y-11167
X9238Y-14829
X9671Y-15301
X9710Y-10262
X9946Y-8648
X10025Y-12112
X10104Y-9868
X10222Y-8411
X10222Y-12860
X10537Y-12663
X10812Y-14238
X11167Y-11443
X11364Y-10104
X11560Y-12112
X12309Y-11404
X12545Y-10183
X13135Y-13057
T2
X5990Y-14002
X6482Y-14002
T3
X11915Y-13963
X12415Y-14463
X12915Y-13963
T4
X5931Y-15104
X5931Y-16104
X5931Y-17104
X7309Y-17112
X8309Y-17112
X9309Y-17112
T0
M30
